<svg width="346" height="398" viewBox="0 0 346 398" fill="none" xmlns="http://www.w3.org/2000/svg">
<g filter="url(#filter0_d)">
<g filter="url(#filter1_b)">
<path d="M84 58.3186C84 55.3812 86.3812 53 89.3186 53H287.681C290.619 53 293 55.3812 293 58.3186V309.285C293 312.222 290.619 314.603 287.681 314.603H89.3186C86.3812 314.603 84 312.222 84 309.285V58.3186Z" fill="#184285"/>
<path d="M84.3324 58.3186C84.3324 55.5648 86.5648 53.3324 89.3186 53.3324H287.681C290.435 53.3324 292.668 55.5648 292.668 58.3186V309.285C292.668 312.038 290.435 314.271 287.681 314.271H89.3186C86.5648 314.271 84.3324 312.038 84.3324 309.285V58.3186Z" stroke="#254BC1" stroke-opacity="0.5" stroke-width="0.664831"/>
</g>
<path d="M164.699 116.787V116.861C165.431 116.886 166.051 117.134 166.56 117.605C167.081 118.064 167.341 118.765 167.341 119.708C167.341 120.775 166.963 121.631 166.206 122.276C165.45 122.908 164.42 123.225 163.118 123.225H156.345V110.758H163.118C164.284 110.758 165.214 111.062 165.909 111.67C166.616 112.278 166.969 113.084 166.969 114.089C166.969 114.932 166.727 115.59 166.244 116.061C165.772 116.52 165.257 116.762 164.699 116.787ZM159.917 113.531V115.838H162.132C162.528 115.838 162.851 115.732 163.099 115.521C163.347 115.298 163.471 115.013 163.471 114.666C163.471 114.331 163.347 114.058 163.099 113.847C162.863 113.636 162.559 113.531 162.187 113.531H159.917ZM159.917 120.452H162.318C162.739 120.452 163.068 120.341 163.304 120.117C163.552 119.882 163.676 119.578 163.676 119.206C163.676 118.858 163.552 118.579 163.304 118.368C163.068 118.157 162.752 118.052 162.355 118.052H159.917V120.452ZM178.543 120.155V123.225H169.091V110.758H172.664V120.155H178.543ZM193.392 123.225H189.541L188.852 121.327H183.94L183.233 123.225H179.4L184.424 110.758H188.368L193.392 123.225ZM187.773 118.331L186.415 114.591L185.038 118.331H187.773ZM200.403 120.285C201.134 120.285 201.742 120.074 202.226 119.652C202.722 119.23 203.057 118.61 203.231 117.791L206.803 118.61C206.53 120.124 205.817 121.321 204.663 122.201C203.522 123.07 202.102 123.504 200.403 123.504C198.517 123.504 196.923 122.877 195.621 121.624C194.331 120.359 193.686 118.815 193.686 116.991C193.686 115.168 194.331 113.63 195.621 112.377C196.923 111.112 198.517 110.479 200.403 110.479C201.99 110.479 203.38 110.913 204.57 111.782C205.774 112.65 206.518 113.804 206.803 115.242L203.231 116.098C203.057 115.317 202.722 114.721 202.226 114.312C201.742 113.903 201.134 113.698 200.403 113.698C199.522 113.698 198.784 114.014 198.188 114.647C197.593 115.28 197.295 116.061 197.295 116.991C197.295 117.922 197.593 118.703 198.188 119.336C198.784 119.968 199.522 120.285 200.403 120.285ZM221.217 123.225H216.9L214.016 118.926L212.174 121.141V123.225H208.601V110.758H212.174V116.136L216.714 110.758H220.77L216.342 116.117L221.217 123.225ZM129.587 135.847V138.042H135.244V141.15H129.587V145.225H126.015V132.758H135.969V135.847H129.587ZM149.322 145.225H145.023L141.6 141.243H141.116V145.225H137.544V132.758H144.186C145.526 132.758 146.605 133.143 147.424 133.912C148.255 134.681 148.67 135.692 148.67 136.945C148.67 137.937 148.404 138.793 147.87 139.512C147.337 140.219 146.605 140.716 145.675 141.001L149.322 145.225ZM141.116 138.415H143.516C144.013 138.415 144.409 138.291 144.707 138.042C145.005 137.782 145.154 137.447 145.154 137.038C145.154 136.641 145.005 136.324 144.707 136.089C144.409 135.841 144.013 135.717 143.516 135.717H141.116V138.415ZM155.99 135.828V142.155H158.092V145.225H150.296V142.155H152.399V135.828H150.296V132.758H158.092V135.828H155.99ZM159.711 132.758H164.976C167.011 132.758 168.648 133.335 169.889 134.489C171.141 135.63 171.768 137.131 171.768 138.991C171.768 140.852 171.141 142.359 169.889 143.513C168.648 144.654 167.011 145.225 164.976 145.225H159.711V132.758ZM163.283 142.21H164.716C165.745 142.21 166.577 141.913 167.209 141.317C167.842 140.722 168.158 139.947 168.158 138.991C168.158 138.036 167.842 137.261 167.209 136.666C166.577 136.07 165.745 135.772 164.716 135.772H163.283V142.21ZM186.047 145.225H182.195L181.507 143.327H176.595L175.888 145.225H172.055L177.079 132.758H181.023L186.047 145.225ZM180.428 140.331L179.07 136.591L177.693 140.331H180.428ZM197.543 132.758L192.668 141.41V145.225H188.946V141.41L184.239 132.758H188.165L190.882 137.819L193.58 132.758H197.543ZM208.509 132.479C209.986 132.479 211.195 132.795 212.138 133.428C213.08 134.061 213.663 134.954 213.887 136.107L210.389 136.814C210.277 136.269 210.041 135.872 209.682 135.624C209.322 135.376 208.931 135.252 208.509 135.252C208.113 135.252 207.79 135.345 207.542 135.531C207.306 135.704 207.188 135.946 207.188 136.256C207.188 136.678 207.43 136.945 207.914 137.056L210.445 137.652C212.814 138.247 213.998 139.481 213.998 141.354C213.998 142.285 213.725 143.072 213.18 143.717C212.646 144.362 211.995 144.821 211.226 145.094C210.457 145.367 209.613 145.504 208.696 145.504C207.157 145.504 205.867 145.156 204.825 144.462C203.783 143.767 203.176 142.831 203.002 141.652L206.649 140.964C206.934 142.068 207.641 142.62 208.77 142.62C209.204 142.62 209.558 142.533 209.831 142.359C210.103 142.186 210.24 141.937 210.24 141.615C210.24 141.193 209.955 140.914 209.384 140.778L206.798 140.164C204.515 139.63 203.374 138.427 203.374 136.554C203.374 135.276 203.852 134.278 204.807 133.558C205.762 132.839 206.996 132.479 208.509 132.479ZM228.746 145.225H224.894L224.206 143.327H219.294L218.587 145.225H214.754L219.778 132.758H223.722L228.746 145.225ZM223.127 140.331L221.768 136.591L220.392 140.331H223.127ZM239.444 142.155V145.225H229.992V132.758H233.564V142.155H239.444ZM251.092 142.21V145.225H241.175V132.758H251.018V135.772H244.748V137.615H250.516V140.35H244.748V142.21H251.092Z" fill="white"/>
<rect width="50.6866" height="10.7474" rx="1.06323" transform="matrix(1 0 0 -1 163.21 74.2645)" fill="#1F3169"/>
<rect width="116.313" height="7.16494" rx="1.06323" transform="matrix(1 0 0 -1 130.251 166.001)" fill="#1F3169"/>
<rect width="104.817" height="7.16495" rx="1.06323" transform="matrix(1 0 0 -1 136.088 176.749)" fill="#1F3169"/>
<rect width="72.8085" height="7.16492" rx="1.06323" transform="matrix(1 0 0 -1 152.144 187.496)" fill="#1F3169"/>
<rect width="49.9228" height="53.0205" rx="1.06323" transform="matrix(1 0 0 -1 103.669 285.313)" fill="#1F3169"/>
<rect width="49.9228" height="53.0205" rx="1.06323" transform="matrix(1 0 0 -1 163.742 285.313)" fill="#1F3169"/>
<rect width="49.9228" height="53.0205" rx="1.06323" transform="matrix(1 0 0 -1 223.282 285.313)" fill="#1F3169"/>
</g>
<defs>
<filter id="filter0_d" x="0.928408" y="0.136259" width="344.935" height="397.539" filterUnits="userSpaceOnUse" color-interpolation-filters="sRGB">
<feFlood flood-opacity="0" result="BackgroundImageFix"/>
<feColorMatrix in="SourceAlpha" type="matrix" values="0 0 0 0 0 0 0 0 0 0 0 0 0 0 0 0 0 0 127 0"/>
<feOffset dx="-15.1039" dy="15.1039"/>
<feGaussianBlur stdDeviation="33.9838"/>
<feColorMatrix type="matrix" values="0 0 0 0 0 0 0 0 0 0 0 0 0 0 0 0 0 0 0.25 0"/>
<feBlend mode="normal" in2="BackgroundImageFix" result="effect1_dropShadow"/>
<feBlend mode="normal" in="SourceGraphic" in2="effect1_dropShadow" result="shape"/>
</filter>
<filter id="filter1_b" x="44.1101" y="13.1101" width="288.78" height="341.383" filterUnits="userSpaceOnUse" color-interpolation-filters="sRGB">
<feFlood flood-opacity="0" result="BackgroundImageFix"/>
<feGaussianBlur in="BackgroundImage" stdDeviation="19.9449"/>
<feComposite in2="SourceAlpha" operator="in" result="effect1_backgroundBlur"/>
<feBlend mode="normal" in="SourceGraphic" in2="effect1_backgroundBlur" result="shape"/>
</filter>
</defs>
</svg>
