<svg width="362" height="418" viewBox="0 0 362 418" fill="none" xmlns="http://www.w3.org/2000/svg">
<g filter="url(#filter0_d)">
<g filter="url(#filter1_b)">
<path d="M84 58.7258C84 55.5636 86.5635 53 89.7258 53H303.274C306.436 53 309 55.5635 309 58.7258V328.904C309 332.067 306.436 334.63 303.274 334.63H89.7258C86.5635 334.63 84 332.067 84 328.904V58.7258Z" fill="#D1003C"/>
<path d="M84.3579 58.7258C84.3579 55.7612 86.7612 53.3579 89.7258 53.3579H303.274C306.239 53.3579 308.642 55.7612 308.642 58.7258V328.904C308.642 331.869 306.239 334.272 303.274 334.272H89.7258C86.7612 334.272 84.3579 331.869 84.3579 328.904V58.7258Z" stroke="#671717" stroke-width="0.715727"/>
</g>
<path d="M114.316 125.211C115.104 125.211 115.758 124.984 116.279 124.53C116.813 124.076 117.174 123.408 117.361 122.527L121.207 123.408C120.913 125.037 120.145 126.326 118.903 127.274C117.674 128.209 116.145 128.676 114.316 128.676C112.286 128.676 110.57 128.002 109.168 126.653C107.779 125.291 107.085 123.628 107.085 121.665C107.085 119.702 107.779 118.046 109.168 116.698C110.57 115.336 112.286 114.655 114.316 114.655C116.025 114.655 117.521 115.122 118.803 116.057C120.098 116.991 120.899 118.233 121.207 119.782L117.361 120.704C117.174 119.863 116.813 119.222 116.279 118.781C115.758 118.34 115.104 118.12 114.316 118.12C113.368 118.12 112.573 118.46 111.932 119.141C111.291 119.823 110.971 120.664 110.971 121.665C110.971 122.667 111.291 123.508 111.932 124.189C112.573 124.87 113.368 125.211 114.316 125.211ZM135.762 114.955V128.376H131.896V123.268H126.988V128.376H123.143V114.955H126.988V119.963H131.896V114.955H135.762ZM150.698 128.376H146.071L142.385 124.089H141.865V128.376H138.019V114.955H145.17C146.612 114.955 147.774 115.369 148.655 116.197C149.55 117.025 149.997 118.113 149.997 119.462C149.997 120.53 149.71 121.452 149.136 122.226C148.562 122.987 147.774 123.522 146.772 123.829L150.698 128.376ZM141.865 121.044H144.449C144.983 121.044 145.41 120.911 145.73 120.644C146.051 120.363 146.211 120.003 146.211 119.562C146.211 119.135 146.051 118.794 145.73 118.541C145.41 118.273 144.983 118.14 144.449 118.14H141.865V121.044ZM157.877 118.26V125.071H160.14V128.376H151.747V125.071H154.011V118.26H151.747V114.955H160.14V118.26H157.877ZM167.471 114.655C169.06 114.655 170.362 114.995 171.377 115.676C172.392 116.357 173.02 117.319 173.26 118.561L169.494 119.322C169.374 118.734 169.121 118.307 168.733 118.04C168.346 117.773 167.925 117.639 167.471 117.639C167.044 117.639 166.697 117.739 166.43 117.94C166.176 118.127 166.049 118.387 166.049 118.721C166.049 119.175 166.31 119.462 166.83 119.582L169.555 120.223C172.105 120.864 173.38 122.193 173.38 124.209C173.38 125.211 173.087 126.059 172.499 126.753C171.925 127.448 171.224 127.942 170.396 128.235C169.568 128.529 168.66 128.676 167.672 128.676C166.016 128.676 164.627 128.302 163.505 127.554C162.384 126.807 161.729 125.798 161.542 124.53L165.468 123.789C165.775 124.977 166.537 125.571 167.752 125.571C168.219 125.571 168.6 125.478 168.894 125.291C169.187 125.104 169.334 124.837 169.334 124.49C169.334 124.036 169.027 123.735 168.413 123.588L165.629 122.927C163.171 122.353 161.943 121.058 161.943 119.041C161.943 117.666 162.457 116.591 163.485 115.816C164.513 115.042 165.842 114.655 167.471 114.655ZM186.795 118.26H182.589V128.376H178.723V118.26H174.516V114.955H186.795V118.26ZM204.549 114.955V128.376H200.783V122.306L197.798 128.376H195.295L192.31 122.346V128.376H188.544V114.955H192.61L196.536 122.286L200.483 114.955H204.549ZM220.946 128.376H216.799L216.058 126.333H210.77L210.009 128.376H205.882L211.291 114.955H215.537L220.946 128.376ZM214.896 123.108L213.434 119.081L211.952 123.108H214.896ZM227.386 114.655C228.976 114.655 230.278 114.995 231.292 115.676C232.307 116.357 232.935 117.319 233.175 118.561L229.41 119.322C229.289 118.734 229.036 118.307 228.648 118.04C228.261 117.773 227.84 117.639 227.386 117.639C226.959 117.639 226.612 117.739 226.345 117.94C226.091 118.127 225.964 118.387 225.964 118.721C225.964 119.175 226.225 119.462 226.745 119.582L229.47 120.223C232.02 120.864 233.296 122.193 233.296 124.209C233.296 125.211 233.002 126.059 232.414 126.753C231.84 127.448 231.139 127.942 230.311 128.235C229.483 128.529 228.575 128.676 227.587 128.676C225.931 128.676 224.542 128.302 223.42 127.554C222.299 126.807 221.644 125.798 221.457 124.53L225.383 123.789C225.69 124.977 226.452 125.571 227.667 125.571C228.134 125.571 228.515 125.478 228.809 125.291C229.102 125.104 229.249 124.837 229.249 124.49C229.249 124.036 228.942 123.735 228.328 123.588L225.544 122.927C223.086 122.353 221.858 121.058 221.858 119.041C221.858 117.666 222.372 116.591 223.4 115.816C224.428 115.042 225.757 114.655 227.386 114.655ZM113.014 138.655C114.603 138.655 115.905 138.995 116.92 139.676C117.935 140.357 118.563 141.319 118.803 142.561L115.037 143.322C114.917 142.734 114.663 142.307 114.276 142.04C113.889 141.773 113.468 141.639 113.014 141.639C112.587 141.639 112.239 141.739 111.972 141.94C111.719 142.127 111.592 142.387 111.592 142.721C111.592 143.175 111.852 143.462 112.373 143.582L115.097 144.223C117.648 144.864 118.923 146.193 118.923 148.209C118.923 149.211 118.629 150.059 118.042 150.753C117.467 151.448 116.766 151.942 115.938 152.235C115.111 152.529 114.202 152.676 113.214 152.676C111.558 152.676 110.17 152.302 109.048 151.554C107.926 150.807 107.272 149.798 107.085 148.53L111.011 147.789C111.318 148.977 112.079 149.571 113.294 149.571C113.762 149.571 114.142 149.478 114.436 149.291C114.73 149.104 114.877 148.837 114.877 148.49C114.877 148.036 114.57 147.735 113.955 147.588L111.171 146.927C108.714 146.353 107.485 145.058 107.485 143.041C107.485 141.666 108 140.591 109.028 139.816C110.056 139.042 111.385 138.655 113.014 138.655ZM134.8 152.376H130.653L129.912 150.333H124.624L123.863 152.376H119.736L125.145 138.955H129.391L134.8 152.376ZM128.75 147.108L127.288 143.081L125.806 147.108H128.75ZM146.316 149.071V152.376H136.141V138.955H139.987V149.071H146.316ZM158.857 149.131V152.376H148.18V138.955H158.777V142.2H152.026V144.183H158.236V147.128H152.026V149.131H158.857ZM175.661 149.071V152.376H165.345H165.325V149.832L170.092 145.585C170.506 145.211 170.793 144.938 170.953 144.764C171.127 144.59 171.3 144.357 171.474 144.063C171.661 143.756 171.755 143.449 171.755 143.141C171.755 142.754 171.628 142.44 171.374 142.2C171.134 141.946 170.82 141.819 170.432 141.819C169.431 141.819 168.89 142.454 168.81 143.722L165.164 143.041C165.231 141.679 165.732 140.611 166.667 139.836C167.615 139.048 168.85 138.655 170.372 138.655C171.895 138.655 173.123 139.055 174.058 139.856C174.993 140.658 175.46 141.753 175.46 143.141C175.46 144.009 175.247 144.757 174.819 145.385C174.405 145.999 173.724 146.727 172.776 147.568L171.033 149.071H175.661ZM178.872 140.598C179.994 139.302 181.463 138.655 183.279 138.655C185.095 138.655 186.557 139.302 187.666 140.598C188.774 141.88 189.328 143.569 189.328 145.665C189.328 147.762 188.774 149.458 187.666 150.753C186.557 152.035 185.095 152.676 183.279 152.676C181.45 152.676 179.974 152.035 178.852 150.753C177.744 149.458 177.19 147.762 177.19 145.665C177.19 143.569 177.75 141.88 178.872 140.598ZM183.279 149.391C183.947 149.391 184.474 149.064 184.861 148.41C185.249 147.755 185.442 146.84 185.442 145.665C185.442 144.49 185.249 143.582 184.861 142.941C184.474 142.287 183.947 141.96 183.279 141.96C182.598 141.96 182.057 142.287 181.657 142.941C181.269 143.582 181.076 144.49 181.076 145.665C181.076 146.84 181.269 147.755 181.657 148.41C182.057 149.064 182.598 149.391 183.279 149.391ZM201.148 149.071V152.376H190.832H190.812V149.832L195.58 145.585C195.994 145.211 196.281 144.938 196.441 144.764C196.615 144.59 196.788 144.357 196.962 144.063C197.149 143.756 197.242 143.449 197.242 143.141C197.242 142.754 197.115 142.44 196.862 142.2C196.621 141.946 196.307 141.819 195.92 141.819C194.919 141.819 194.378 142.454 194.298 143.722L190.652 143.041C190.719 141.679 191.22 140.611 192.154 139.836C193.103 139.048 194.338 138.655 195.86 138.655C197.382 138.655 198.611 139.055 199.546 139.856C200.481 140.658 200.948 141.753 200.948 143.141C200.948 144.009 200.734 144.757 200.307 145.385C199.893 145.999 199.212 146.727 198.264 147.568L196.521 149.071H201.148ZM204.36 140.598C205.482 139.302 206.951 138.655 208.767 138.655C210.583 138.655 212.045 139.302 213.154 140.598C214.262 141.88 214.816 143.569 214.816 145.665C214.816 147.762 214.262 149.458 213.154 150.753C212.045 152.035 210.583 152.676 208.767 152.676C206.937 152.676 205.462 152.035 204.34 150.753C203.232 149.458 202.677 147.762 202.677 145.665C202.677 143.569 203.238 141.88 204.36 140.598ZM208.767 149.391C209.434 149.391 209.962 149.064 210.349 148.41C210.736 147.755 210.93 146.84 210.93 145.665C210.93 144.49 210.736 143.582 210.349 142.941C209.962 142.287 209.434 141.96 208.767 141.96C208.086 141.96 207.545 142.287 207.144 142.941C206.757 143.582 206.563 144.49 206.563 145.665C206.563 146.84 206.757 147.755 207.144 148.41C207.545 149.064 208.086 149.391 208.767 149.391Z" fill="white"/>
<rect width="54.5669" height="11.5702" rx="1.14462" transform="matrix(1 0 0 -1 106.484 75.8924)" fill="#A81B29"/>
<rect width="125.218" height="7.71345" rx="1.14462" transform="matrix(1 0 0 -1 106.485 174.652)" fill="#A81B29"/>
<rect width="112.842" height="7.71347" rx="1.14462" transform="matrix(1 0 0 -1 106.485 186.222)" fill="#A81B29"/>
<rect width="78.3824" height="7.71343" rx="1.14462" transform="matrix(1 0 0 -1 106.485 197.793)" fill="#A81B29"/>
<rect width="175.353" height="88.7502" rx="1.14462" transform="matrix(1 0 0 -1 105.053 302.789)" fill="#A81B29"/>
</g>
<defs>
<filter id="filter0_d" x="0.928408" y="0.136259" width="360.935" height="417.566" filterUnits="userSpaceOnUse" color-interpolation-filters="sRGB">
<feFlood flood-opacity="0" result="BackgroundImageFix"/>
<feColorMatrix in="SourceAlpha" type="matrix" values="0 0 0 0 0 0 0 0 0 0 0 0 0 0 0 0 0 0 127 0"/>
<feOffset dx="-15.1039" dy="15.1039"/>
<feGaussianBlur stdDeviation="33.9838"/>
<feColorMatrix type="matrix" values="0 0 0 0 0 0 0 0 0 0 0 0 0 0 0 0 0 0 0.25 0"/>
<feBlend mode="normal" in2="BackgroundImageFix" result="effect1_dropShadow"/>
<feBlend mode="normal" in="SourceGraphic" in2="effect1_dropShadow" result="shape"/>
</filter>
<filter id="filter1_b" x="41.0564" y="10.0564" width="310.887" height="367.518" filterUnits="userSpaceOnUse" color-interpolation-filters="sRGB">
<feFlood flood-opacity="0" result="BackgroundImageFix"/>
<feGaussianBlur in="BackgroundImage" stdDeviation="21.4718"/>
<feComposite in2="SourceAlpha" operator="in" result="effect1_backgroundBlur"/>
<feBlend mode="normal" in="SourceGraphic" in2="effect1_backgroundBlur" result="shape"/>
</filter>
</defs>
</svg>
