<svg width="333" height="418" viewBox="0 0 333 418" fill="none" xmlns="http://www.w3.org/2000/svg">
<path d="M0 11.8497C0 5.30529 5.30529 0 11.8497 0H321.099C327.643 0 332.948 5.30529 332.948 11.8497V406.15C332.948 412.695 327.643 418 321.099 418H11.8497C5.3053 418 0 412.695 0 406.15V11.8497Z" fill="#F8FAFD"/>
<path d="M77.2458 100.75H88.3352C88.4145 101.82 88.4541 102.475 88.4541 102.712C88.4541 105.765 87.4631 108.262 85.4811 110.204C83.5189 112.127 80.9918 113.088 77.8999 113.088C74.8476 113.088 72.271 112.087 70.1701 110.085C68.089 108.064 67.0484 105.596 67.0484 102.683C67.0484 99.7691 68.089 97.3114 70.1701 95.3096C72.271 93.2879 74.8377 92.2771 77.8702 92.2771C80.2288 92.2771 82.3 92.8023 84.0838 93.8528C85.8676 94.9033 87.0865 96.37 87.7406 98.2529L81.9432 99.7096C81.1504 98.1835 79.7927 97.4204 77.8702 97.4204C76.4035 97.4204 75.1945 97.9258 74.2431 98.9367C73.2917 99.9277 72.816 101.176 72.816 102.683C72.816 104.189 73.3016 105.448 74.2728 106.458C75.244 107.449 76.4729 107.945 77.9594 107.945C80.0801 107.945 81.5468 107.112 82.3594 105.448H77.2458V100.75ZM107.192 107.826V112.642H91.3461V92.7231H107.073V97.5393H97.0543V100.483H106.271V104.853H97.0543V107.826H107.192ZM127.712 97.6285H121.468V112.642H115.73V97.6285H109.487V92.7231H127.712V97.6285ZM146.472 92.7231V112.642H140.853V99.3231L136.245 101.672V96.4096L142.785 92.7231H146.472ZM152.127 95.1609C153.792 93.2384 155.972 92.2771 158.667 92.2771C161.363 92.2771 163.533 93.2384 165.178 95.1609C166.823 97.0637 167.646 99.5709 167.646 102.683C167.646 105.794 166.823 108.312 165.178 110.234C163.533 112.137 161.363 113.088 158.667 113.088C155.952 113.088 153.762 112.137 152.097 110.234C150.452 108.312 149.629 105.794 149.629 102.683C149.629 99.5709 150.462 97.0637 152.127 95.1609ZM158.667 108.212C159.658 108.212 160.441 107.727 161.016 106.756C161.591 105.785 161.878 104.427 161.878 102.683C161.878 100.938 161.591 99.5907 161.016 98.6394C160.441 97.6682 159.658 97.1826 158.667 97.1826C157.657 97.1826 156.854 97.6682 156.259 98.6394C155.685 99.5907 155.397 100.938 155.397 102.683C155.397 104.427 155.685 105.785 156.259 106.756C156.854 107.727 157.657 108.212 158.667 108.212ZM175.646 92.2771C177.113 92.2771 178.361 92.7528 179.392 93.7041C180.423 94.6555 180.938 95.8943 180.938 97.4204C180.938 98.9466 180.423 100.185 179.392 101.137C178.361 102.088 177.113 102.564 175.646 102.564C174.159 102.564 172.891 102.088 171.84 101.137C170.81 100.185 170.294 98.9466 170.294 97.4204C170.294 95.8943 170.81 94.6555 171.84 93.7041C172.891 92.7528 174.159 92.2771 175.646 92.2771ZM173.773 112.642L187.984 92.7231H190.957L176.776 112.642H173.773ZM175.646 95.4582C175.131 95.4582 174.685 95.6366 174.308 95.9934C173.931 96.3501 173.743 96.8258 173.743 97.4204C173.743 97.9952 173.931 98.4709 174.308 98.8475C174.704 99.2042 175.15 99.3826 175.646 99.3826C176.141 99.3826 176.568 99.2042 176.924 98.8475C177.301 98.4709 177.489 97.9952 177.489 97.4204C177.489 96.8258 177.301 96.3501 176.924 95.9934C176.568 95.6366 176.141 95.4582 175.646 95.4582ZM189.262 102.802C190.729 102.802 191.978 103.277 193.008 104.229C194.039 105.18 194.554 106.419 194.554 107.945C194.554 109.471 194.039 110.71 193.008 111.661C191.978 112.613 190.729 113.088 189.262 113.088C187.776 113.088 186.507 112.613 185.457 111.661C184.426 110.71 183.911 109.471 183.911 107.945C183.911 106.419 184.426 105.18 185.457 104.229C186.507 103.277 187.776 102.802 189.262 102.802ZM189.262 105.983C188.747 105.983 188.301 106.161 187.924 106.518C187.548 106.875 187.36 107.35 187.36 107.945C187.36 108.52 187.548 108.995 187.924 109.372C188.321 109.729 188.767 109.907 189.262 109.907C189.758 109.907 190.184 109.729 190.541 109.372C190.917 108.995 191.106 108.52 191.106 107.945C191.106 107.35 190.917 106.875 190.541 106.518C190.184 106.161 189.758 105.983 189.262 105.983ZM210.614 97.6583V101.166H219.652V106.131H210.614V112.642H204.906V92.7231H220.812V97.6583H210.614ZM225.914 95.3096C227.995 93.2879 230.542 92.2771 233.554 92.2771C236.567 92.2771 239.104 93.2879 241.165 95.3096C243.246 97.3114 244.287 99.7691 244.287 102.683C244.287 105.596 243.246 108.064 241.165 110.085C239.104 112.087 236.567 113.088 233.554 113.088C230.542 113.088 227.995 112.087 225.914 110.085C223.852 108.064 222.822 105.596 222.822 102.683C222.822 99.7691 223.852 97.3114 225.914 95.3096ZM229.987 106.458C230.938 107.449 232.127 107.945 233.554 107.945C234.981 107.945 236.161 107.449 237.092 106.458C238.043 105.448 238.519 104.189 238.519 102.683C238.519 101.196 238.043 99.9475 237.092 98.9367C236.161 97.9258 234.981 97.4204 233.554 97.4204C232.127 97.4204 230.938 97.9258 229.987 98.9367C229.055 99.9475 228.589 101.196 228.589 102.683C228.589 104.189 229.055 105.448 229.987 106.458ZM265.997 112.642H259.129L253.659 106.28H252.886V112.642H247.177V92.7231H257.791C259.932 92.7231 261.656 93.3375 262.964 94.5663C264.292 95.7952 264.956 97.4105 264.956 99.4123C264.956 100.998 264.53 102.366 263.678 103.515C262.825 104.645 261.656 105.438 260.169 105.894L265.997 112.642ZM252.886 101.761H256.721C257.514 101.761 258.148 101.563 258.623 101.166C259.099 100.75 259.337 100.215 259.337 99.561C259.337 98.9267 259.099 98.4213 258.623 98.0448C258.148 97.6483 257.514 97.4501 256.721 97.4501H252.886V101.761ZM115.078 148.642H108.924L107.824 145.61H99.975L98.8453 148.642H92.7208L100.748 128.723H107.051L115.078 148.642ZM106.099 140.823L103.929 134.847L101.729 140.823H106.099ZM129.933 133.658V137.166H138.971V142.131H129.933V148.642H124.225V128.723H140.13V133.658H129.933ZM161.465 148.642H154.597L149.127 142.28H148.354V148.642H142.646V128.723H153.259C155.4 128.723 157.124 129.337 158.432 130.566C159.76 131.795 160.424 133.411 160.424 135.412C160.424 136.998 159.998 138.366 159.146 139.515C158.294 140.645 157.124 141.438 155.638 141.894L161.465 148.642ZM148.354 137.761H152.189C152.982 137.761 153.616 137.563 154.092 137.166C154.567 136.75 154.805 136.215 154.805 135.561C154.805 134.927 154.567 134.421 154.092 134.045C153.616 133.648 152.982 133.45 152.189 133.45H148.354V137.761ZM172.12 133.629V143.737H175.479V148.642H163.022V143.737H166.382V133.629H163.022V128.723H175.479V133.629H172.12ZM193.911 143.826V148.642H178.065V128.723H193.792V133.539H183.773V136.483H192.99V140.853H183.773V143.826H193.911ZM216.601 128.723V148.642H211.874L202.717 138.385V148.642H197.009V128.723H201.706L210.863 139.337V128.723H216.601ZM219.959 128.723H228.373C231.623 128.723 234.24 129.645 236.222 131.488C238.223 133.311 239.224 135.71 239.224 138.683C239.224 141.656 238.223 144.064 236.222 145.907C234.24 147.731 231.623 148.642 228.373 148.642H219.959V128.723ZM225.667 143.826H227.957C229.602 143.826 230.93 143.35 231.94 142.399C232.951 141.448 233.457 140.209 233.457 138.683C233.457 137.157 232.951 135.918 231.94 134.966C230.93 134.015 229.602 133.539 227.957 133.539H225.667V143.826Z" fill="#305EED"/>
<rect width="80.7465" height="17.1726" rx="1.69887" transform="matrix(1 0 0 -1 126.184 33.9773)" fill="#C7E1FF"/>
<rect width="185.294" height="11.4484" rx="1.69887" transform="matrix(1 0 0 -1 73.6802 180.558)" fill="#C7E1FF"/>
<rect width="166.98" height="11.4484" rx="1.69887" transform="matrix(1 0 0 -1 82.9795 197.731)" fill="#C7E1FF"/>
<rect width="115.988" height="11.4484" rx="1.69887" transform="matrix(1 0 0 -1 108.556 214.903)" fill="#C7E1FF"/>
<rect width="79.5297" height="84.7182" rx="1.69887" transform="matrix(1 0 0 -1 31.335 371.199)" fill="#C7E1FF"/>
<rect width="79.5297" height="84.7182" rx="1.69887" transform="matrix(1 0 0 -1 127.034 371.199)" fill="#C7E1FF"/>
<rect width="79.5297" height="84.7182" rx="1.69887" transform="matrix(1 0 0 -1 221.884 371.199)" fill="#C7E1FF"/>
</svg>
