<svg width="87" height="75" viewBox="0 0 87 75" fill="none" xmlns="http://www.w3.org/2000/svg">
<path d="M79.4638 16.6136L79.4638 16.6136C79.8134 17.038 80.1472 17.4664 80.4651 17.899L79.6592 18.4912C80.6243 19.8046 81.4336 21.152 82.0871 22.5335L82.9911 22.1059C83.4659 23.1097 83.8627 24.1324 84.1809 25.1737L83.2245 25.4659C83.6849 26.9724 83.972 28.5167 84.0859 30.0988L85.0834 30.027C85.1226 30.5714 85.1421 31.1197 85.1421 31.6717C85.1421 32.2238 85.1225 32.772 85.0833 33.3165L84.0859 33.2447C83.9719 34.8267 83.6847 36.371 83.2243 37.8774L84.1806 38.1697C83.8623 39.211 83.4654 40.2337 82.9905 41.2374L82.0866 40.8097C81.433 42.1911 80.6235 43.5384 79.6581 44.8516L80.4638 45.4439C80.1458 45.8765 79.8119 46.3048 79.4622 46.7291C79.0626 47.2141 78.6478 47.6882 78.2178 48.1513L77.485 47.4709C76.2589 48.7916 74.9048 50.0213 73.4228 51.1599L74.0321 51.9529C73.0533 52.7048 72.0216 53.4171 70.9375 54.09L70.4102 53.2403C68.9019 54.1763 67.2863 55.0358 65.5633 55.8188L65.9771 56.7292C65.4159 56.9842 64.844 57.2311 64.2614 57.4699C63.8224 57.6499 63.3807 57.8237 62.9362 57.9912L62.5835 57.0555C61.2828 57.5458 59.9576 57.9819 58.608 58.3638L58.8803 59.326C57.9715 59.5832 57.052 59.8162 56.122 60.025L55.9029 59.0493C54.5539 59.3522 53.1816 59.6035 51.7861 59.803L51.9277 60.793C50.9971 60.9261 50.0567 61.0365 49.1065 61.1244L49.0144 60.1287C47.6429 60.2555 46.2499 60.3346 44.8354 60.3659L44.8575 61.3657C44.3872 61.3761 43.9147 61.3812 43.4399 61.3812C42.9955 61.3812 42.5479 61.3761 42.0973 61.3657L42.1203 60.366C40.8298 60.3363 39.5121 60.2636 38.1674 60.1479L38.0816 61.1442C37.7822 61.1184 37.4816 61.0906 37.1796 61.0606C36.8446 61.3448 36.5029 61.6224 36.1564 61.8933L35.5404 61.1056C34.1844 62.1659 32.7415 63.1298 31.3241 63.9851L31.8408 64.8413C30.8051 65.4664 29.7842 66.0337 28.8204 66.539L28.3561 65.6534C26.5075 66.6226 24.866 67.3634 23.7384 67.843L24.1298 68.7632C23.6304 68.9757 23.2289 69.1382 22.9509 69.2482C22.8119 69.3031 22.7037 69.345 22.6295 69.3734L22.544 69.4059L22.5345 69.4094L20.6513 70.2065L20.2615 69.2855L14.5535 71.7014L14.9433 72.6223L13.0406 73.4276C12.6581 73.5895 12.2621 73.652 11.8777 73.6243L11.9496 72.6269C11.2123 72.5737 10.6026 71.964 10.5497 71.2266L9.55223 71.2983C9.52461 70.9139 9.58723 70.5179 9.74922 70.1354L10.3858 68.6318L11.3068 69.0215C11.9996 67.3844 12.719 65.682 13.2133 64.5059L12.2914 64.1184C12.4742 63.6834 12.6257 63.3217 12.7335 63.0625C12.7874 62.9326 12.8297 62.8301 12.8592 62.7576C12.884 62.6967 12.8925 62.6744 12.8928 62.6745C12.8929 62.6746 12.8898 62.6836 12.8854 62.6973C12.8948 62.6677 12.9055 62.6386 12.9176 62.61C13.0518 62.2923 13.3928 61.6033 13.8027 60.7857L14.6967 61.2338C14.8619 60.9043 15.042 60.5465 15.2304 60.1722C15.9263 58.7901 16.735 57.184 17.3193 55.9514L16.4156 55.523C16.589 55.1573 16.7334 54.8431 16.8466 54.5867C16.6525 54.4729 16.4602 54.358 16.2694 54.2419L16.7892 53.3876C15.4648 52.5818 14.2251 51.7231 13.0701 50.8116L12.4506 51.5966C11.626 50.9459 10.8424 50.2682 10.0999 49.5635L10.7883 48.8382C9.67705 47.7834 8.66291 46.668 7.74588 45.4921L6.95732 46.1071C6.63674 45.696 6.32757 45.2777 6.02982 44.8521L6.02978 44.8521C5.75976 44.4661 5.50225 44.077 5.2573 43.6848L6.10548 43.1551C5.37272 41.9818 4.75959 40.7836 4.26605 39.5606L3.33871 39.9348C2.98392 39.0556 2.6878 38.1632 2.45068 37.2577L3.41806 37.0044C3.07709 35.7024 2.86441 34.3738 2.77997 33.0187L1.78191 33.0809C1.75281 32.6139 1.73828 32.1442 1.73828 31.6719C1.73828 31.2598 1.74981 30.8494 1.77289 30.4406L2.7713 30.497C2.83782 29.3189 3.00484 28.1568 3.27238 27.0109L2.29857 26.7835C2.48429 25.988 2.71603 25.2006 2.99356 24.4214L3.93559 24.7569C4.32254 23.6705 4.80328 22.5991 5.37782 21.5427L4.49934 21.0649C4.69258 20.7097 4.89581 20.3564 5.10898 20.0051L5.10899 20.0051C5.33657 19.63 5.57218 19.2603 5.81583 18.8958L6.64721 19.4514C7.35147 18.3978 8.12509 17.3896 8.96814 16.4268L8.21582 15.768C8.78895 15.1135 9.39275 14.4798 10.0271 13.8668L10.722 14.586C11.6221 13.7161 12.5868 12.8885 13.6159 12.103L13.0092 11.3081C13.3537 11.0452 13.7049 10.7871 14.063 10.5337L79.4638 16.6136ZM79.4638 16.6136C79.0641 16.1285 78.6492 15.6543 78.2192 15.1911L77.4863 15.8715C76.2601 14.5507 74.906 13.321 73.424 12.1823L74.0332 11.3894C73.0544 10.6373 72.0227 9.92496 70.9385 9.2521L70.4112 10.1018C68.9029 9.16568 67.2872 8.30606 65.5642 7.52291L65.978 6.61254C65.4168 6.35746 64.8448 6.11049 64.2621 5.87163L64.2621 5.87162C63.8231 5.69169 63.3814 5.51798 62.9369 5.35047L62.5843 6.28624C61.2835 5.79609 59.9584 5.36013 58.6088 4.97836L58.881 4.01612C57.9721 3.75904 57.0527 3.52612 56.1227 3.31734L55.9037 4.29306C54.5547 3.99023 53.1824 3.73905 51.7869 3.53952L51.9285 2.54958C50.9979 2.41652 50.0575 2.30608 49.1074 2.2182L49.0153 3.21395C47.6438 3.08711 46.2508 3.00805 44.8363 2.97678L44.8584 1.97702C44.3881 1.96662 43.9156 1.96143 43.4409 1.96143C42.8955 1.96143 42.3524 1.9687 41.8114 1.98325L41.8383 2.98288C40.2185 3.02645 38.62 3.13635 37.0428 3.31259L36.9318 2.31877C35.8449 2.44022 34.7677 2.59264 33.7002 2.77608L33.8696 3.76163C32.282 4.03442 30.7169 4.37695 29.1741 4.78924L28.916 3.82314C28.3896 3.9638 27.8659 4.11242 27.3446 4.26902C26.872 4.41101 26.4052 4.55768 25.9442 4.70904L26.2561 5.65914C24.8482 6.12143 23.4978 6.62761 22.2049 7.17765L21.8135 6.25746C20.894 6.64864 20.002 7.06198 19.1376 7.49757L19.5876 8.39059C18.2685 9.05536 17.0174 9.77202 15.8344 10.5406M79.4638 16.6136L15.8344 10.5406M15.8344 10.5406L15.2896 9.70198C14.8727 9.9728 14.4639 10.25 14.0631 10.5337L15.8344 10.5406Z" stroke="#305EED" stroke-width="2" stroke-linejoin="round" stroke-dasharray="3.02 4.53"/>
</svg>
