<svg width="319" height="282" viewBox="0 0 319 282" fill="none" xmlns="http://www.w3.org/2000/svg">
<path d="M1 247.961C1 248.359 1.02583 248.751 1.07602 249.136L2.06762 249.006C2.53494 252.589 5.37254 255.426 8.95513 255.894L8.82578 256.885C9.21053 256.936 9.6025 256.961 10 256.961H10.6667V255.961H17.3333V256.961H18C18.3108 256.961 18.6163 256.982 18.9155 257.021L19.0449 256.029C22.6275 256.496 25.4651 259.334 25.9324 262.917L24.9408 263.046C24.9798 263.345 25 263.651 25 263.961V264.656H26V271.604H25V272.299C25 272.607 25.0143 272.909 25.0422 273.206L26.0378 273.113C26.3186 276.099 28.1352 278.348 30.4809 279.485L30.0445 280.385C30.5909 280.65 31.1629 280.861 31.7505 281.015L32.0036 280.048C34.5257 280.708 37.3676 280.18 39.5224 278.093L40.2182 278.811C40.4323 278.603 40.6397 278.383 40.8396 278.149L41.5074 277.368L40.7474 276.718L47.4247 268.911L48.1846 269.561L49.5201 268L48.7601 267.35L55.4374 259.542L56.1973 260.192L56.8651 259.412C56.9746 259.284 57.0883 259.16 57.2059 259.041L56.4946 258.338C57.8573 256.959 59.6759 256.121 61.6097 255.982L61.6815 256.98C61.8484 256.967 62.0162 256.961 62.1848 256.961H63.1642V255.961H72.9585V256.961H74.9173V255.961H84.7116V256.961H86.6704V255.961H96.4647V256.961H98.4235V255.961H108.218V256.961H110.177V255.961H119.971V256.961H121.93V255.961H131.724V256.961H133.683V255.961H143.477V256.961H145.436V255.961H155.23V256.961H157.189V255.961H166.983V256.961H168.942V255.961H178.736V256.961H180.695V255.961H190.49V256.961H192.448V255.961H202.243V256.961H204.201V255.961H213.996V256.961H215.955V255.961H225.749V256.961H227.708V255.961H237.502V256.961H239.461V255.961H249.255V256.961H251.214V255.961H261.008V256.961H262.967V255.961H272.761V256.961H274.72V255.961H284.514V256.961H286.473V255.961H296.267V256.961H298.226V255.961H308.02V256.961H309C309.397 256.961 309.789 256.936 310.174 256.885L310.045 255.894C313.627 255.426 316.465 252.589 316.932 249.006L317.924 249.136C317.974 248.751 318 248.359 318 247.961V246.974H317V237.099H318V235.124H317V225.249H318V223.274H317V213.399H318V211.424H317V201.549H318V199.574H317V189.699H318V187.724H317V177.849H318V175.874H317V165.999H318V164.024H317V154.149H318V152.174H317V142.299H318V140.324H317V130.449H318V128.474H317V118.599H318V116.624H317V106.749H318V104.774H317V94.8989H318V92.9239H317V83.0489H318V81.0739H317V71.1989H318V69.2239H317V59.3489H318V57.3739H317V47.4989H318V45.5239H317V35.6489H318V33.6739H317V23.7989H318V21.8239H317V11.9489H318V10.9614C318 10.5639 317.974 10.172 317.924 9.78721L316.932 9.91655C316.465 6.33397 313.627 3.49636 310.045 3.02904L310.174 2.03744C309.789 1.98726 309.397 1.96143 309 1.96143H308.003V2.96143H298.037V1.96143H296.043V2.96143H286.077V1.96143H284.083V2.96143H274.117V1.96143H272.123V2.96143H262.157V1.96143H260.163V2.96143H250.197V1.96143H248.203V2.96143H238.237V1.96143H236.243V2.96143H226.277V1.96143H224.283V2.96143H214.317V1.96143H212.323V2.96143H202.357V1.96143H200.363V2.96143H190.397V1.96143H188.403V2.96143H178.437V1.96143H176.443V2.96143H166.477V1.96143H164.483V2.96143H154.517V1.96143H152.523V2.96143H142.557V1.96143H140.563V2.96143H130.597V1.96143H128.603V2.96143H118.637V1.96143H116.643V2.96143H106.677V1.96143H104.683V2.96143H94.7167V1.96143H92.7234V2.96143H82.7567V1.96143H80.7634V2.96143H70.7968V1.96143H68.8034V2.96143H58.8368V1.96143H56.8434V2.96143H46.8768V1.96143H44.8834V2.96143H34.9167V1.96143H32.9234V2.96143H22.9567V1.96143H20.9634V2.96143H10.9967V1.96143H10C9.6025 1.96143 9.21053 1.98726 8.82578 2.03744L8.95513 3.02904C5.37254 3.49636 2.53494 6.33397 2.06762 9.91655L1.07602 9.78721C1.02583 10.172 1 10.5639 1 10.9614V11.9489H2V21.8239H1V23.7989H2V33.6739H1V35.6489H2V45.5239H1V47.4989H2V57.3739H1V59.3489H2V69.2239H1V71.1989H2V81.0739H1V83.0489H2V92.9239H1V94.8989H2V104.774H1V106.749H2V116.624H1V118.599H2V128.474H1V130.449H2V140.324H1V142.299H2V152.174H1V154.149H2V164.024H1V165.999H2V175.874H1V177.849H2V187.724H1V189.699H2V199.574H1V201.549H2V211.424H1V213.399H2V223.274H1V225.249H2V235.124H1V237.099H2V246.974H1V247.961Z" stroke="white" stroke-width="2" stroke-linejoin="round" stroke-dasharray="2 10"/>
</svg>
