<svg width="69" height="60" viewBox="0 0 69 60" fill="none" xmlns="http://www.w3.org/2000/svg">
<path d="M6.41108 13.5782L6.41104 13.5782C6.13598 13.9162 5.87329 14.2575 5.62307 14.6023L6.43238 15.1896C5.68088 16.2251 5.05092 17.2875 4.54251 18.3767L3.63636 17.9537C3.26341 18.7528 2.95166 19.567 2.70168 20.3963L3.65913 20.6849C3.30211 21.8693 3.07945 23.0834 2.99116 24.3272L1.99367 24.2563C1.96295 24.689 1.94763 25.1247 1.94765 25.5632C1.94765 26.0017 1.96298 26.4373 1.99371 26.87L2.9912 26.7991C3.07953 28.0428 3.30224 29.2569 3.65932 30.4413L2.7019 30.7299C2.95193 31.5592 3.26374 32.3735 3.63678 33.1725L4.54288 32.7494C5.05142 33.8386 5.68154 34.9009 6.43326 35.9361L5.62408 36.5237C5.87435 36.8683 6.13708 37.2096 6.41219 37.5474C6.72489 37.9315 7.0494 38.307 7.3857 38.6738L8.12276 37.9979C9.07494 39.0364 10.1264 40.0034 11.2771 40.8989L10.663 41.688C11.4302 42.2851 12.2387 42.8505 13.088 43.3843L13.6202 42.5377C14.7946 43.2759 16.0529 43.9538 17.3949 44.5712L16.977 45.4797C17.417 45.6822 17.8654 45.8781 18.3222 46.0676C18.8366 46.2811 19.3559 46.4835 19.88 46.6749L20.223 45.7356C21.7424 46.2905 23.304 46.7502 24.9079 47.1149L24.6862 48.09C25.762 48.3346 26.8556 48.5373 27.967 48.6983L28.1103 47.7086C29.6938 47.938 31.3157 48.0807 32.9761 48.1369L32.9423 49.1363C33.4926 49.155 34.0468 49.1643 34.6049 49.1643C34.9524 49.1643 35.3023 49.1602 35.6546 49.152L35.6313 48.1522C36.635 48.1289 37.6599 48.0716 38.7058 47.9805L38.7926 48.9767C38.9941 48.9592 39.1964 48.9404 39.3993 48.9204C39.638 49.1237 39.8807 49.3226 40.1264 49.517L40.747 48.733C41.8007 49.5671 42.9219 50.3254 44.0235 50.9984L43.5021 51.8517C44.312 52.3466 45.1101 52.7957 45.8633 53.1955L46.3321 52.3122C47.7709 53.076 49.0487 53.6597 49.9266 54.0377L49.5312 54.9562C49.9221 55.1245 50.2366 55.2534 50.4547 55.3407C50.5638 55.3844 50.6489 55.4177 50.7075 55.4404L50.7752 55.4664L50.7783 55.4676L52.0872 56.0283L52.481 55.1091L56.466 56.8162L56.0722 57.7354L57.4006 58.3045C57.7824 58.468 58.1782 58.5323 58.5628 58.5062L58.4951 57.5085C59.2326 57.4584 59.8449 56.8511 59.9011 56.1139L60.8982 56.19C60.9275 55.8057 60.8667 55.4094 60.7064 55.0263L60.2731 53.99L59.3505 54.3756C58.8628 53.2086 58.3825 52.0575 58.0534 51.2641L58.9771 50.8809C58.8521 50.5797 58.7494 50.3313 58.6767 50.1539C58.6403 50.0649 58.612 49.9955 58.5925 49.9469C58.5827 49.9223 58.576 49.9053 58.5719 49.8948C58.5717 49.8943 58.5715 49.8939 58.5714 49.8935C58.5651 49.8755 58.5582 49.8577 58.5508 49.84C58.4432 49.5821 58.1741 49.0321 57.8568 48.3915L56.9607 48.8354C56.8322 48.576 56.6921 48.2943 56.5456 47.9997C56.0043 46.9115 55.3752 45.6468 54.9207 44.6764L55.8263 44.2523C55.7266 44.0393 55.6401 43.8504 55.5671 43.6869C55.6652 43.6279 55.7628 43.5685 55.8599 43.5087L55.3354 42.6573C56.3669 42.0219 57.3324 41.3448 58.2317 40.6261L58.856 41.4072C59.5024 40.8907 60.1168 40.3525 60.6991 39.7927L60.0061 39.0718C60.869 38.2423 61.6565 37.3652 62.3687 36.4407L63.161 37.0509C63.4119 36.7252 63.6539 36.3937 63.8869 36.0565L63.887 36.0565C64.3162 35.4355 64.7054 34.8041 65.054 34.1622L64.1753 33.6849C65.2184 31.7643 65.8704 29.7614 66.1312 27.6766L67.1235 27.8008C67.2157 27.0635 67.2617 26.3176 67.2617 25.5633C67.2617 24.9058 67.2253 24.2535 67.1523 23.6065L66.1586 23.7185C65.9537 21.9013 65.4431 20.1336 64.6268 18.4154L65.5301 17.9863C65.2556 17.4085 64.949 16.8374 64.6106 16.273L64.6106 16.273C64.2542 15.6785 63.8727 15.1007 63.4661 14.5395L62.6563 15.1262C61.5067 13.5395 60.1479 12.0916 58.5792 10.7826L59.22 10.0148C58.6972 9.57853 58.1527 9.15769 57.5866 8.75222L6.41108 13.5782ZM6.41108 13.5782C6.7238 13.194 7.04832 12.8185 7.38464 12.4518L8.12169 13.1276C9.07396 12.089 10.1255 11.122 11.2762 10.2265L10.6621 9.43729C11.4293 8.84017 12.2378 8.27476 13.0872 7.74087L13.6194 8.5875C14.7939 7.84918 16.0522 7.17125 17.3943 6.5537L16.9762 5.64526C17.4163 5.44275 17.8648 5.24674 18.3216 5.05719L18.3216 5.05718C18.8361 4.84376 19.3554 4.64138 19.8795 4.45003L20.2225 5.38939C21.7417 4.83476 23.3034 4.37514 24.9073 4.01054L24.6857 3.03542C25.7614 2.79088 26.855 2.58821 27.9664 2.42729L28.1097 3.41697C29.6931 3.18769 31.3151 3.04496 32.9754 2.98877L32.9416 1.98935C33.4919 1.97073 34.0461 1.96143 34.6041 1.96143C35.0305 1.96143 35.4552 1.96718 35.8782 1.9787L35.851 2.97833C37.1112 3.01265 38.3548 3.09921 39.5818 3.23803L39.6942 2.24437C40.5441 2.34052 41.3865 2.4612 42.2215 2.60645L42.0501 3.59165C43.2845 3.80639 44.5016 4.07602 45.7012 4.40053L45.9623 3.43523C46.3737 3.54651 46.7831 3.66411 47.1906 3.788C47.937 4.01496 48.665 4.2571 49.3746 4.51451L49.0335 5.45456C51.2597 6.26212 53.2905 7.22039 55.126 8.32927M6.41108 13.5782L55.126 8.32927M55.126 8.32927L55.6431 7.47334C56.3154 7.87949 56.9633 8.30575 57.5866 8.75221L55.126 8.32927ZM63.0757 35.4958L63.0654 35.4886L63.0757 35.4958ZM63.0757 35.4958L63.0767 35.4964L63.0757 35.4958Z" stroke="#53D084" stroke-width="2" stroke-linejoin="round" stroke-dasharray="3.02 4.53"/>
</svg>
