<svg width="1439" height="1178" viewBox="0 0 1439 1178" fill="none" xmlns="http://www.w3.org/2000/svg">
<g opacity="0.1" filter="url(#filter0_f)" transform="matrix(1,0,0,1,0,0)">
<path d="M1254.52 562.552L1063.3 837.975L937.764 748.584L835.238 805.543C778.384 837.128 714.972 855.078 649.999 857.979L597.429 860.325L531.904 907.241C479.831 944.526 406.904 911.668 400.335 847.961L264.347 783.913L353.169 633.622L373.444 499.374C385.633 418.662 421.078 343.251 475.444 282.362L543.165 206.516C554.837 193.444 568.599 182.401 583.89 173.84L717.2 99.1973C798.493 53.6797 892.761 133.281 861.505 221.051L1025.71 302.527L971.843 496.559L1254.52 562.552Z" fill="#12A4FF"/>
</g>
<defs>
<filter id="filter0_f" x="0.32869" y="-173.802" width="1511.22" height="1351.17" filterUnits="userSpaceOnUse" color-interpolation-filters="sRGB">
<feFlood flood-opacity="0" result="BackgroundImageFix"/>
<feBlend mode="normal" in="SourceGraphic" in2="BackgroundImageFix" result="shape"/>
<feGaussianBlur stdDeviation="125" result="effect1_foregroundBlur"/>
</filter>
</defs>
</svg>
