<svg width="2100" height="1700" viewBox="0 0 2100 1700" fill="none" xmlns="http://www.w3.org/2000/svg">
<g filter="url(#filter0_f)" transform="matrix(1,0,0,1,-80,-20)">
<path d="M286.951 1061.03L803.897 1442.64L977.608 1299.48L1174.13 1391.19C1233.07 1418.69 1297.59 1432.13 1362.6 1430.44L1484.97 1427.27L1585.27 1488.89C1664.98 1537.85 1767.85 1482.48 1770.87 1388.98L1962.41 1281.67L1346 1125L1521.47 932.922C1640.03 803.133 1634.11 602.647 1508.08 480.092C1482.24 454.962 1452.4 434.3 1419.79 418.95L1205.82 318.237C1042.18 241.216 850.628 344.071 824.438 523.021L593.575 658.629L692.025 935.79L286.951 1061.03Z" fill="#104262"/>
</g>
<defs>
<filter id="filter0_f" x="0.496094" y="0.937622" width="2222.41" height="1823.32" filterUnits="userSpaceOnUse" color-interpolation-filters="sRGB">
<feFlood flood-opacity="0" result="BackgroundImageFix"/>
<feBlend mode="normal" in="SourceGraphic" in2="BackgroundImageFix" result="shape"/>
<feGaussianBlur stdDeviation="125" result="effect1_foregroundBlur"/>
</filter>
</defs>
</svg>
