<svg width="145" height="90" viewBox="0 0 145 90" fill="none" xmlns="http://www.w3.org/2000/svg">
<path d="M24.316 45.5266L24.5459 47.9126C24.572 48.1843 24.7707 48.4408 25.104 48.6332L77.5306 78.9018C78.6527 79.5496 80.4719 79.5496 81.594 78.9018L110.489 62.219C111.029 61.9074 111.332 61.4847 111.331 61.044L111.326 58.7196C111.326 58.6411 111.297 58.5636 111.241 58.4921L110.851 57.9951L57.1804 27.0085C56.8064 26.7926 56.2 26.7926 55.826 27.0085L24.6648 44.9994C24.4239 45.1385 24.2971 45.3302 24.316 45.5266Z" fill="#1E3367" fill-opacity="0.3"/>
<path d="M73.3807 74.4343L73.3546 76.0221C73.3497 76.319 73.5518 76.6046 73.9155 76.8146L80.9168 80.8568C82.0389 81.5046 83.8581 81.5046 84.9802 80.8568L113.876 64.174C114.415 63.8625 114.718 63.4397 114.717 62.999L114.712 60.6746C114.712 60.5961 114.683 60.5186 114.627 60.4471L114.237 59.9501L106.787 55.6491C106.413 55.4332 105.807 55.4332 105.433 55.6491L73.7313 73.9521C73.5095 74.0801 73.3836 74.2532 73.3807 74.4343Z" fill="#D5DFE9"/>
<path d="M73.3807 74.4343L73.3546 76.0221C73.3497 76.319 73.5518 76.6046 73.9155 76.8146L80.9168 80.8568C82.0389 81.5046 83.8581 81.5046 84.9802 80.8568L113.876 64.174C114.415 63.8625 114.718 63.4397 114.717 62.999L114.712 60.6746C114.712 60.5961 114.683 60.5186 114.627 60.4471L114.237 59.9501L106.787 55.6491C106.413 55.4332 105.807 55.4332 105.433 55.6491L73.7313 73.9521C73.5095 74.0801 73.3836 74.2532 73.3807 74.4343Z" fill="#142960" fill-opacity="0.78"/>
<path d="M73.5454 73.9616L106.052 55.1938L114.094 59.8369C114.796 60.2417 114.796 60.8982 114.094 61.3031L84.1271 78.6047C83.4258 79.0096 82.2887 79.0096 81.5875 78.6047L73.5454 73.9616Z" fill="#142960" fill-opacity="0.78" stroke="#305EED" stroke-width="0.195499"/>
<path d="M73.3761 73.9616L106.052 55.096L114.179 59.788C114.927 60.2199 114.927 60.9201 114.179 61.352L84.2117 78.6536C83.4637 79.0855 82.2508 79.0855 81.5028 78.6536L73.3761 73.9616Z" fill="#142960" fill-opacity="0.78"/>
<path d="M73.5454 73.9616L106.052 55.1938L114.094 59.8369C114.796 60.2417 114.796 60.8982 114.094 61.3031L84.1271 78.6047C83.4258 79.0096 82.2887 79.0096 81.5875 78.6047L73.5454 73.9616Z" stroke="#305EED" stroke-width="0.195499"/>
<circle r="0.586497" transform="matrix(0.866025 -0.5 0.866025 0.5 76.4236 73.7661)" fill="#EC665A"/>
<circle r="0.586497" transform="matrix(0.866025 -0.5 0.866025 0.5 78.1167 72.7886)" fill="#E0C14C"/>
<circle r="0.586497" transform="matrix(0.866025 -0.5 0.866025 0.5 79.8097 71.8112)" fill="#71BF46"/>
<path d="M29.2368 27.7713L29.4667 30.1574C29.4928 30.429 29.6915 30.6855 30.0247 30.8779L82.4514 61.1465C83.5735 61.7943 85.3927 61.7943 86.5148 61.1465L115.41 44.4638C115.95 44.1522 116.253 43.7294 116.252 43.2887L116.247 40.9643C116.247 40.8859 116.218 40.8083 116.161 40.7368L115.771 40.2398L62.1012 9.25324C61.7272 9.0373 61.1208 9.0373 60.7467 9.25324L29.5856 27.2441C29.3447 27.3832 29.2179 27.5749 29.2368 27.7713Z" fill="#D5DFE9"/>
<path d="M29.8153 28.2845C29.0673 27.8526 29.0673 27.1524 29.8153 26.7205L59.7818 9.41932C60.5299 8.98744 61.7427 8.98744 62.4907 9.41932L115.71 40.1453C116.458 40.5772 116.458 41.2774 115.71 41.7093L85.7432 59.0105C84.9951 59.4424 83.7823 59.4424 83.0343 59.0105L29.8153 28.2845Z" fill="#F8FAFD"/>
<path d="M29.8153 28.2845C29.0673 27.8526 29.0673 27.1524 29.8153 26.7205L59.7826 9.41886C60.5307 8.98698 61.7435 8.98698 62.4915 9.41886L87.549 23.8858L54.8727 42.7514L29.8153 28.2845Z" fill="#E7F0FF"/>
<path d="M75.0203 54.2859L107.527 35.518L115.569 40.1611C116.271 40.566 116.271 41.2225 115.569 41.6273L85.602 58.929C84.9007 59.3339 83.7637 59.3339 83.0624 58.929L75.0203 54.2859Z" fill="#EFEFEF" stroke="#305EED" stroke-width="0.195499"/>
<g clip-path="url(#clip0)">
<path d="M107.409 38.1815L107.409 37.0187C107.409 36.9835 107.458 36.955 107.519 36.955C107.58 36.955 107.629 36.9835 107.629 37.0187L107.629 38.1815C107.629 38.2167 107.58 38.2452 107.519 38.2452C107.458 38.2452 107.409 38.2167 107.409 38.1815Z" fill="#3F6AF7"/>
<path d="M108.653 37.6002C108.653 37.565 108.604 37.5366 108.543 37.5366H106.529C106.468 37.5366 106.418 37.565 106.418 37.6002C106.418 37.6353 106.468 37.6638 106.529 37.6638H108.543C108.604 37.6638 108.653 37.6353 108.653 37.6002Z" fill="#3F6AF7"/>
</g>
<rect width="12.208" height="2.70662" transform="matrix(0.866025 -0.5 0.866025 0.5 78.9144 54.6768)" fill="#DDDDDD"/>
<rect width="12.208" height="4.07511" rx="2.03756" transform="matrix(0.866025 -0.5 0.866025 0.5 98.7233 44.6087)" fill="#305EED"/>
<path d="M107.16 42.7379L106.669 43.0212L106.34 42.9323L105.714 43.2936L105.865 43.4851L105.377 43.767L104.429 42.4807L104.932 42.1905L107.16 42.7379ZM105.82 42.7913L105.171 42.6161L105.472 42.9925L105.82 42.7913ZM105.73 41.7294L106.401 41.3421C106.66 41.1925 106.942 41.1145 107.247 41.1081C107.552 41.0999 107.823 41.1642 108.06 41.3011C108.297 41.4379 108.409 41.5949 108.397 41.7719C108.384 41.947 108.248 42.1094 107.989 42.259L107.318 42.6463L105.73 41.7294ZM107.389 42.1619L107.572 42.0565C107.703 41.9808 107.771 41.8978 107.776 41.8074C107.781 41.7171 107.722 41.6368 107.6 41.5666C107.479 41.4963 107.34 41.4626 107.183 41.4653C107.027 41.468 106.883 41.5073 106.752 41.583L106.569 41.6884L107.389 42.1619Z" fill="white"/>
<rect width="15.6961" height="1.74431" transform="matrix(0.866025 -0.5 0.866025 0.5 82.1312 56.5341)" fill="#DDDDDD"/>
<rect width="12.208" height="3.48861" transform="matrix(0.866025 -0.5 0.866025 0.5 46.6779 34.3202)" fill="#C7E2FF"/>
<rect width="15.6961" height="1.74431" transform="matrix(0.866025 -0.5 0.866025 0.5 50.9077 36.7622)" fill="#C7E2FF"/>
<path d="M43.9259 29.0344L46.4215 30.4752L45.7213 30.8795L44.5927 30.2279L45.1663 31.2L44.7007 31.4688L43.0245 31.1419L44.1457 31.7892L43.4454 32.1935L40.9499 30.7527L41.706 30.3161L43.7993 30.6817L43.1698 29.471L43.9259 29.0344ZM47.1016 27.9106L48.6771 30.2052L47.9434 30.6288L47.3958 29.8353L44.7997 29.2396L45.5372 28.8138L46.9302 29.1579L46.3641 28.3364L47.1016 27.9106ZM50.5236 26.6188L50.5385 26.6274C50.69 26.5456 50.8638 26.5026 51.06 26.4983C51.2561 26.4912 51.4486 26.5421 51.6373 26.651C51.8509 26.7743 51.9465 26.917 51.9241 27.079C51.8993 27.2395 51.7565 27.3951 51.4958 27.5456L50.14 28.3284L47.6444 26.8876L49.0002 26.1048C49.2336 25.97 49.4807 25.8976 49.7414 25.8876C50.0046 25.8761 50.2368 25.9285 50.4379 26.0446C50.6068 26.1421 50.69 26.246 50.6875 26.3564C50.685 26.4639 50.6304 26.5514 50.5236 26.6188ZM48.9145 26.7951L49.3764 27.0618L49.8196 26.8059C49.8991 26.76 49.9425 26.7105 49.95 26.6575C49.955 26.603 49.9227 26.5557 49.8531 26.5155C49.7861 26.4768 49.7066 26.4596 49.6148 26.4639C49.5254 26.4668 49.4434 26.4897 49.3689 26.5327L48.9145 26.7951ZM50.3001 27.5951L50.7806 27.3177C50.865 27.2689 50.9085 27.218 50.911 27.165C50.9135 27.1091 50.8775 27.0596 50.803 27.0166C50.7334 26.9765 50.6527 26.9585 50.5609 26.9628C50.4715 26.9657 50.387 26.9901 50.3076 27.036L49.8196 27.3177L50.3001 27.5951ZM50.5014 24.808L52.6841 26.0682C52.7263 26.0925 52.7747 26.1047 52.8294 26.1047C52.8815 26.1033 52.9299 26.0897 52.9746 26.0639C53.0218 26.0366 53.0727 25.99 53.1274 25.9241L53.7419 26.1585C53.7146 26.2087 53.6948 26.2459 53.6823 26.2703C53.6674 26.2932 53.6352 26.3276 53.5855 26.3735C53.5383 26.4208 53.4775 26.466 53.403 26.509C53.1994 26.6266 52.9734 26.6853 52.7251 26.6853C52.4768 26.6825 52.2496 26.6215 52.0434 26.5026L49.8049 25.2101L50.5014 24.808ZM52.5684 25.0167C52.5883 24.7902 52.7447 24.5923 53.0377 24.4232C53.3307 24.254 53.6722 24.1644 54.062 24.1544C54.4544 24.1429 54.7958 24.221 55.0863 24.3888C55.3769 24.5565 55.5122 24.7536 55.4923 24.9801C55.4725 25.2038 55.316 25.4002 55.023 25.5694C54.73 25.7385 54.3886 25.8296 53.9987 25.8425C53.6089 25.8525 53.2687 25.7737 52.9781 25.6059C52.6876 25.4382 52.551 25.2418 52.5684 25.0167ZM54.0546 25.3242C54.211 25.3257 54.3414 25.2963 54.4457 25.2361C54.55 25.1758 54.5996 25.1013 54.5947 25.0124C54.5922 24.9221 54.5326 24.8432 54.4159 24.7758C54.2992 24.7085 54.1638 24.6733 54.0099 24.6705C53.8559 24.6676 53.7256 24.697 53.6188 24.7586C53.512 24.8203 53.4611 24.8956 53.4661 24.9844C53.471 25.0733 53.5319 25.1515 53.6486 25.2188C53.7653 25.2862 53.9006 25.3214 54.0546 25.3242ZM56.5258 22.4696L58.4403 23.5749C58.7184 23.7355 58.8264 23.9254 58.7643 24.1448C58.7072 24.3641 58.5173 24.567 58.1944 24.7534C57.74 25.0157 57.2521 25.1068 56.7306 25.0265L57.0509 24.5319C57.1925 24.5362 57.3017 24.5305 57.3787 24.5147C57.4607 24.4989 57.5389 24.4695 57.6134 24.4265C57.74 24.3534 57.8158 24.2738 57.8406 24.1878C57.8679 24.1004 57.8182 24.0201 57.6916 23.947L57.5501 23.8652C57.555 24.0287 57.4433 24.1763 57.2148 24.3082C56.9541 24.4588 56.6449 24.5312 56.2874 24.5254C55.9298 24.5168 55.6045 24.4279 55.3115 24.2588C55.016 24.0882 54.862 23.9004 54.8496 23.6953C54.8372 23.4875 54.9614 23.3083 55.2221 23.1577C55.4505 23.0258 55.7063 22.9613 55.9894 22.9642L55.8292 22.8717L56.5258 22.4696ZM56.8014 23.876C56.9082 23.8143 56.9591 23.7391 56.9541 23.6502C56.9491 23.5613 56.8883 23.4832 56.7716 23.4158C56.6524 23.347 56.5158 23.3111 56.3619 23.3083C56.2079 23.3054 56.0775 23.3348 55.9708 23.3964C55.8565 23.4624 55.8044 23.5384 55.8143 23.6244C55.8218 23.709 55.8863 23.7864 56.008 23.8566C56.1272 23.9254 56.2613 23.9627 56.4103 23.9685C56.5568 23.9728 56.6872 23.9419 56.8014 23.876Z" fill="#305EED"/>
<line x1="102.328" y1="44.8041" x2="102.328" y2="28.5777" stroke="url(#paint0_linear)" stroke-width="0.195499"/>
<line x1="102.328" y1="44.8041" x2="102.328" y2="28.5777" stroke="#305EED" stroke-width="0.195499"/>
<rect width="37.7313" height="30.4978" rx="2.28248" transform="matrix(0.866025 -0.5 0.866025 0.5 57.751 29.7507)" fill="#2143AB" fill-opacity="0.38"/>
<rect x="0.247086" width="37.446" height="30.2125" rx="2.13983" transform="matrix(0.866025 -0.5 0.866025 0.5 57.7841 29.8742)" stroke="#305EED" stroke-width="0.28531"/>
<path d="M76.0806 23.8455L79.0299 25.5483L78.4489 25.8838L76.1994 24.5851L75.8473 25.2204L75.3147 24.9129L75.7108 24.059L76.0806 23.8455ZM78.3349 23.7486L78.7839 23.4894C79.0862 23.3149 79.4163 23.2242 79.7744 23.2174C80.1295 23.209 80.4523 23.2886 80.7428 23.4563C81.0421 23.6292 81.1874 23.8282 81.1786 24.0536C81.1698 24.2789 81.0025 24.4856 80.6768 24.6737C80.3657 24.8533 80.015 24.9524 79.6247 24.9711C79.2373 24.988 78.8822 24.9033 78.5594 24.7169L79.0216 24.3179C79.2212 24.4331 79.4207 24.4907 79.6203 24.4907C79.8199 24.4907 79.9974 24.4458 80.1529 24.356C80.3026 24.2696 80.3804 24.1756 80.3863 24.0739C80.3921 23.9689 80.3232 23.8748 80.1794 23.7918C80.0532 23.719 79.9064 23.6851 79.7392 23.6902C79.5719 23.6952 79.4163 23.7393 79.2725 23.8223L78.2865 24.3916L76.759 23.4538L78.6123 22.3838L79.1537 22.6964L77.8551 23.4462L78.3349 23.7486ZM83.3985 21.979C83.6333 22.1146 83.7506 22.2721 83.7506 22.4517C83.7506 22.6279 83.6391 22.7991 83.4161 22.9651L83.9003 23.2447L83.4073 23.5293L82.9055 23.2396C82.612 23.3548 82.3053 23.4166 81.9854 23.4251C81.6656 23.4336 81.3794 23.3734 81.1271 23.2447L81.5981 22.8406C81.8563 22.9727 82.1278 23.0024 82.4124 22.9295L81.7213 22.5305L81.5849 22.5839C81.3442 22.6821 81.0889 22.7381 80.8189 22.7516C80.5489 22.7618 80.2995 22.7008 80.0706 22.5686C79.8417 22.4365 79.7272 22.284 79.7272 22.1112C79.7272 21.935 79.8387 21.7638 80.0618 21.5978L79.5776 21.3182L80.0706 21.0336L80.568 21.3208C80.8527 21.2106 81.1461 21.1581 81.4484 21.1632C81.7507 21.1649 82.0251 21.2284 82.2716 21.3538L81.7918 21.7477C81.5717 21.6173 81.3295 21.5791 81.0654 21.6334L81.7081 22.0044L81.8798 21.9409C82.1615 21.8358 82.433 21.7859 82.6942 21.7909C82.9524 21.7943 83.1872 21.857 83.3985 21.979ZM80.634 22.2027C80.7778 22.2857 80.9554 22.2882 81.1667 22.2103L80.5812 21.8723C80.5284 21.9333 80.5064 21.9934 80.5152 22.0527C80.524 22.112 80.5636 22.162 80.634 22.2027ZM82.2628 22.3246L82.8878 22.6855C82.9612 22.6161 82.995 22.5491 82.9891 22.4848C82.9832 22.417 82.9407 22.3602 82.8614 22.3145C82.7881 22.2721 82.7044 22.2509 82.6105 22.2509C82.5166 22.2509 82.4007 22.2755 82.2628 22.3246Z" fill="white"/>
<path opacity="0.6" d="M81.871 29.3639L80.5179 28.5827L80.6784 28.49L80.8551 28.5921C80.824 28.5397 80.8206 28.4869 80.845 28.4337C80.8694 28.379 80.9208 28.329 80.9994 28.2836C81.0874 28.2328 81.185 28.2007 81.292 28.1874C81.399 28.1726 81.5087 28.1772 81.6211 28.2015C81.7335 28.2242 81.8425 28.266 81.9482 28.327C82.0525 28.3872 82.125 28.4502 82.1656 28.5159C82.2062 28.58 82.2143 28.6433 82.19 28.7059C82.1669 28.7677 82.1114 28.824 82.0234 28.8748C81.9475 28.9186 81.8629 28.9479 81.7694 28.9628C81.6759 28.9776 81.5852 28.9761 81.4972 28.9581L82.0356 29.2689L81.871 29.3639ZM81.8568 28.8185C81.9489 28.7653 81.9902 28.7039 81.9807 28.6343C81.9699 28.5639 81.9035 28.4936 81.7816 28.4232C81.6583 28.352 81.5364 28.3137 81.4159 28.3082C81.2953 28.3028 81.189 28.3266 81.0969 28.3798C81.0048 28.433 80.9635 28.4943 80.973 28.5639C80.9825 28.6335 81.0488 28.7039 81.1721 28.7751C81.294 28.8455 81.4159 28.8838 81.5378 28.89C81.6583 28.8955 81.7647 28.8717 81.8568 28.8185ZM83.0575 28.2777C82.8205 28.4146 82.5713 28.4075 82.3099 28.2566L81.6963 27.9024L81.8608 27.8074L82.4724 28.1604C82.5604 28.2113 82.643 28.2386 82.7203 28.2425C82.7988 28.2457 82.8767 28.2249 82.9539 28.1804C83.0379 28.1319 83.0785 28.0764 83.0758 28.0138C83.0717 27.9505 83.023 27.8918 82.9295 27.8379L82.3688 27.5141L82.5333 27.4191L83.5207 27.9892L83.3602 28.0818L83.1936 27.9856C83.2221 28.038 83.2241 28.09 83.1997 28.1417C83.1753 28.1917 83.1279 28.2371 83.0575 28.2777ZM83.8286 27.8114L82.8412 27.2413L83.0017 27.1487L83.1785 27.2507C83.1121 27.1514 83.1548 27.0509 83.3065 26.9493L83.3593 26.9117L83.5137 26.9868L83.4223 27.0537C83.337 27.1123 83.2957 27.1706 83.2984 27.2284C83.2997 27.2855 83.3444 27.3395 83.4325 27.3903L83.9952 27.7152L83.8286 27.8114ZM84.9817 27.1668C84.8828 27.2239 84.7765 27.261 84.6627 27.2782C84.5476 27.2947 84.4318 27.2919 84.3153 27.27C84.1988 27.2466 84.0884 27.2047 83.9841 27.1445C83.827 27.0538 83.7464 26.958 83.7424 26.8571C83.7369 26.7555 83.8087 26.6616 83.9577 26.5756C84.0187 26.5404 84.0898 26.5119 84.171 26.49C84.2523 26.4681 84.3322 26.4571 84.4108 26.4571L84.4738 26.5592C84.3966 26.56 84.3255 26.569 84.2604 26.5862C84.1968 26.6026 84.144 26.6229 84.102 26.6472C83.999 26.7066 83.9523 26.7711 83.9618 26.8407C83.9699 26.9095 84.0342 26.9787 84.1548 27.0483C84.2726 27.1164 84.3939 27.1543 84.5185 27.1621C84.6417 27.1691 84.7548 27.1429 84.8578 27.0835C84.8997 27.0593 84.935 27.0288 84.9634 26.992C84.9932 26.9545 85.0081 26.913 85.0081 26.8677L85.1849 26.904C85.1849 26.9494 85.1659 26.9963 85.128 27.0448C85.09 27.0917 85.0413 27.1324 84.9817 27.1668ZM85.4853 26.8549L84.053 26.028L84.2176 25.9329L84.825 26.2837C84.7979 26.2305 84.7986 26.1785 84.8271 26.1277C84.8555 26.0753 84.9063 26.028 84.9794 25.9857C85.2138 25.8504 85.4609 25.8579 85.721 26.008L86.3366 26.3634L86.172 26.4584L85.5666 26.1089C85.4745 26.0557 85.3892 26.0276 85.3106 26.0244C85.232 26.0197 85.1535 26.0401 85.0749 26.0854C84.9842 26.1378 84.9402 26.1961 84.9429 26.2602C84.9456 26.3228 84.9937 26.381 85.0871 26.435L85.6499 26.7599L85.4853 26.8549ZM86.9692 26.0193C86.9015 26.0584 86.8276 26.0862 86.7477 26.1026C86.6678 26.1175 86.5893 26.1206 86.5121 26.112C86.4349 26.1034 86.3678 26.0827 86.3109 26.0498C86.2391 26.0084 86.2005 25.965 86.1951 25.9196C86.191 25.8735 86.2229 25.8207 86.2906 25.7613C86.3583 25.7003 86.4667 25.6268 86.6157 25.5407L86.6807 25.5032L86.6177 25.4668C86.5337 25.4184 86.4558 25.3937 86.3841 25.3929C86.3123 25.3906 86.2385 25.4113 86.1626 25.4551C86.103 25.4895 86.0542 25.5278 86.0163 25.5701C85.977 25.6115 85.9472 25.66 85.9269 25.7155L85.7502 25.6792C85.7651 25.6283 85.7983 25.5755 85.8497 25.5208C85.9026 25.4653 85.9628 25.418 86.0305 25.3789C86.1579 25.3054 86.2832 25.269 86.4064 25.2698C86.531 25.2698 86.659 25.3077 86.7904 25.3836L87.4121 25.7425L87.2577 25.8316L87.087 25.7331C87.1195 25.7816 87.1256 25.8312 87.1053 25.8821C87.0863 25.9321 87.041 25.9779 86.9692 26.0193ZM86.8717 25.9325C86.9529 25.8856 86.9915 25.8312 86.9875 25.7695C86.9821 25.7069 86.936 25.6506 86.8493 25.6006L86.7884 25.5654L86.7254 25.6017C86.6157 25.6651 86.5344 25.7183 86.4816 25.7613C86.4288 25.8027 86.4023 25.8383 86.4023 25.868C86.4023 25.8962 86.424 25.9227 86.4674 25.9478C86.5229 25.9798 86.5872 25.9951 86.6604 25.9935C86.7349 25.9912 86.8053 25.9708 86.8717 25.9325ZM88.0689 25.3844C87.9917 25.429 87.9077 25.465 87.817 25.4923C87.7262 25.5197 87.6388 25.5349 87.5549 25.5381L87.4919 25.4407C87.5799 25.4352 87.6625 25.4212 87.7397 25.3985C87.817 25.3742 87.886 25.3445 87.947 25.3093C88.0242 25.2648 88.0682 25.2229 88.079 25.1838C88.0899 25.1447 88.0709 25.1111 88.0222 25.0829C87.9842 25.0611 87.9416 25.0513 87.8942 25.0536C87.8454 25.0552 87.7872 25.0685 87.7194 25.0935L87.4939 25.1768C87.2894 25.2526 87.1187 25.2511 86.9819 25.1721C86.8925 25.1205 86.856 25.0587 86.8722 24.9868C86.8898 24.914 86.9562 24.8444 87.0713 24.778C87.139 24.7389 87.2142 24.708 87.2968 24.6853C87.3795 24.6611 87.4614 24.6489 87.5427 24.6489L87.6036 24.7475C87.5278 24.749 87.454 24.7596 87.3822 24.7791C87.3104 24.7971 87.2488 24.821 87.1973 24.8507C87.1214 24.8945 87.0788 24.9363 87.0693 24.9762C87.0598 25.0161 87.0795 25.0501 87.1282 25.0783C87.2041 25.122 87.3029 25.1213 87.4248 25.0759L87.6483 24.9915C87.754 24.9524 87.8501 24.932 87.9368 24.9305C88.0222 24.9281 88.1 24.9473 88.1705 24.9879C88.2612 25.0403 88.2971 25.1025 88.2781 25.1744C88.2578 25.2456 88.1881 25.3156 88.0689 25.3844ZM89.1588 24.7552C89.003 24.8451 88.8344 24.8901 88.6529 24.8901C88.47 24.8893 88.3 24.8435 88.1429 24.7528C88.0413 24.6942 87.9723 24.6308 87.9357 24.5628C87.8978 24.494 87.893 24.4271 87.9215 24.3622C87.9499 24.2957 88.0109 24.2355 88.1043 24.1816C88.2384 24.1042 88.3867 24.0686 88.5493 24.0748C88.7104 24.0803 88.8662 24.1264 89.0165 24.2132L89.0795 24.2496L88.3359 24.6789C88.4538 24.7407 88.5723 24.7716 88.6915 24.7716C88.8093 24.7708 88.9211 24.7399 89.0267 24.6789C89.0863 24.6445 89.1344 24.6066 89.171 24.5651C89.2062 24.5229 89.2272 24.4756 89.2339 24.4232L89.4066 24.4572C89.4039 24.5073 89.3802 24.5593 89.3355 24.6132C89.2895 24.6664 89.2306 24.7137 89.1588 24.7552ZM88.2303 24.2496C88.1368 24.3036 88.0921 24.363 88.0962 24.4279C88.1003 24.4928 88.145 24.5554 88.2303 24.6156L88.8296 24.2695C88.7253 24.214 88.621 24.1843 88.5168 24.1804C88.4138 24.1757 88.3183 24.1988 88.2303 24.2496Z" fill="white"/>
<path d="M87.8467 31.279L90.796 32.9818L90.215 33.3173L87.9656 32.0186L87.6134 32.654L87.0808 32.3464L87.4769 31.4925L87.8467 31.279ZM92.1876 32.8494L91.7518 33.101L90.8362 32.2674L91.5053 31.881L91.5185 31.8887L92.1876 32.8494ZM91.2101 30.5418L91.6591 30.2826C91.9614 30.1081 92.2916 30.0174 92.6496 30.0106C93.0047 30.0022 93.3275 30.0818 93.618 30.2495C93.9174 30.4224 94.0626 30.6214 94.0538 30.8468C94.045 31.0721 93.8777 31.2788 93.552 31.4669C93.2409 31.6465 92.8902 31.7456 92.4999 31.7643C92.1125 31.7812 91.7574 31.6965 91.4346 31.5101L91.8968 31.1111C92.0964 31.2263 92.296 31.2839 92.4955 31.2839C92.6951 31.2839 92.8726 31.239 93.0282 31.1492C93.1778 31.0628 93.2556 30.9688 93.2615 30.8671C93.2673 30.7621 93.1984 30.668 93.0546 30.585C92.9284 30.5122 92.7816 30.4783 92.6144 30.4834C92.4471 30.4884 92.2916 30.5325 92.1478 30.6155L91.1617 31.1848L89.6342 30.247L91.4875 29.177L92.0289 29.4896L90.7303 30.2394L91.2101 30.5418ZM96.2737 28.7722C96.5085 28.9077 96.6258 29.0653 96.6258 29.2449C96.6258 29.4211 96.5143 29.5922 96.2913 29.7583L96.7755 30.0379L96.2825 30.3225L95.7807 30.0328C95.4872 30.148 95.1805 30.2098 94.8606 30.2183C94.5408 30.2268 94.2546 30.1666 94.0023 30.0379L94.4733 29.6338C94.7315 29.7659 95.003 29.7956 95.2876 29.7227L94.5965 29.3237L94.4601 29.3771C94.2194 29.4753 93.9641 29.5313 93.6941 29.5448C93.4241 29.555 93.1747 29.494 92.9458 29.3618C92.7169 29.2297 92.6024 29.0772 92.6024 28.9044C92.6024 28.7281 92.7139 28.557 92.937 28.391L92.4528 28.1114L92.9458 27.8268L93.4432 28.114C93.7279 28.0038 94.0213 27.9513 94.3236 27.9564C94.6259 27.9581 94.9003 28.0216 95.1468 28.147L94.667 28.5409C94.4469 28.4105 94.2048 28.3723 93.9406 28.4266L94.5833 28.7976L94.755 28.7341C95.0367 28.629 95.3082 28.579 95.5694 28.5841C95.8276 28.5875 96.0624 28.6502 96.2737 28.7722ZM93.5092 28.9958C93.653 29.0789 93.8306 29.0814 94.0419 29.0035L93.4564 28.6655C93.4036 28.7265 93.3816 28.7866 93.3904 28.8459C93.3992 28.9052 93.4388 28.9552 93.5092 28.9958ZM95.138 29.1178L95.7631 29.4787C95.8364 29.4093 95.8702 29.3423 95.8643 29.278C95.8584 29.2102 95.8159 29.1534 95.7366 29.1077C95.6633 29.0653 95.5796 29.0441 95.4857 29.0441C95.3918 29.0441 95.2759 29.0687 95.138 29.1178Z" fill="white"/>
<path opacity="0.6" d="M89.3178 39.2912L87.9647 38.51L88.1252 38.4173L88.3019 38.5194C88.2708 38.467 88.2674 38.4142 88.2918 38.361C88.3162 38.3063 88.3676 38.2562 88.4462 38.2109C88.5342 38.16 88.6318 38.128 88.7388 38.1147C88.8458 38.0998 88.9555 38.1045 89.0679 38.1288C89.1803 38.1514 89.2893 38.1933 89.395 38.2543C89.4993 38.3145 89.5717 38.3774 89.6124 38.4431C89.653 38.5073 89.6611 38.5706 89.6368 38.6332C89.6137 38.6949 89.5582 38.7512 89.4702 38.8021C89.3943 38.8459 89.3097 38.8752 89.2162 38.89C89.1227 38.9049 89.032 38.9033 88.944 38.8853L89.4824 39.1962L89.3178 39.2912ZM89.3036 38.7458C89.3957 38.6926 89.437 38.6312 89.4275 38.5616C89.4167 38.4912 89.3503 38.4208 89.2284 38.3505C89.1051 38.2793 88.9832 38.241 88.8627 38.2355C88.7421 38.23 88.6358 38.2539 88.5437 38.3071C88.4516 38.3602 88.4103 38.4216 88.4198 38.4912C88.4293 38.5608 88.4956 38.6312 88.6189 38.7024C88.7408 38.7727 88.8627 38.8111 88.9846 38.8173C89.1051 38.8228 89.2115 38.7989 89.3036 38.7458ZM90.5043 38.205C90.2673 38.3419 90.0181 38.3348 89.7566 38.1839L89.1431 37.8296L89.3076 37.7346L89.9192 38.0877C90.0072 38.1385 90.0898 38.1659 90.167 38.1698C90.2456 38.1729 90.3235 38.1522 90.4007 38.1076C90.4847 38.0592 90.5253 38.0036 90.5226 37.9411C90.5185 37.8777 90.4698 37.8191 90.3763 37.7651L89.8156 37.4414L89.9801 37.3464L90.9675 37.9164L90.807 38.0091L90.6404 37.9129C90.6689 37.9653 90.6709 38.0173 90.6465 38.0689C90.6221 38.119 90.5747 38.1643 90.5043 38.205ZM91.7935 37.4607C91.7149 37.506 91.6283 37.5358 91.5335 37.5498C91.44 37.5631 91.3479 37.5608 91.2571 37.5428L91.4359 37.646L91.2754 37.7387L89.8431 36.9117L90.0077 36.8167L90.6233 37.1721C90.5935 37.1221 90.5914 37.0701 90.6172 37.0161C90.6429 36.9622 90.6937 36.9133 90.7695 36.8695C90.8576 36.8187 90.9551 36.7866 91.0621 36.7733C91.1691 36.7584 91.2788 36.7631 91.3912 36.7874C91.5037 36.8101 91.6127 36.8519 91.7183 36.9129C91.8226 36.9731 91.8951 37.0361 91.9357 37.1017C91.9764 37.1659 91.9845 37.2292 91.9601 37.2918C91.9371 37.3535 91.8815 37.4099 91.7935 37.4607ZM91.6269 37.4044C91.719 37.3512 91.7603 37.2898 91.7508 37.2202C91.74 37.1498 91.6736 37.0795 91.5517 37.0091C91.4285 36.9379 91.3066 36.8996 91.186 36.8941C91.0655 36.8887 90.9592 36.9125 90.8671 36.9657C90.775 37.0189 90.7336 37.0802 90.7431 37.1498C90.7526 37.2194 90.819 37.2898 90.9422 37.361C91.0641 37.4314 91.186 37.4697 91.3079 37.4759C91.4285 37.4814 91.5348 37.4576 91.6269 37.4044ZM92.7809 36.8906C92.6807 36.9485 92.5757 36.9754 92.466 36.9715C92.3563 36.9661 92.2452 36.9309 92.1328 36.866L91.0276 36.2279L91.1921 36.1328L92.2852 36.7639C92.4301 36.8476 92.5601 36.8562 92.6753 36.7897C92.7091 36.7702 92.7355 36.7502 92.7545 36.7299L92.8886 36.812C92.8561 36.8417 92.8202 36.8679 92.7809 36.8906ZM91.8075 36.0075L91.6227 35.9007L91.8258 35.7834L92.0107 35.8902L91.8075 36.0075ZM93.0611 36.7077L92.0737 36.1377L92.2383 36.0426L93.2257 36.6127L93.0611 36.7077ZM93.8848 36.2533C93.8076 36.2979 93.7236 36.3338 93.6328 36.3612C93.5421 36.3886 93.4547 36.4038 93.3708 36.4069L93.3078 36.3096C93.3958 36.3041 93.4784 36.29 93.5556 36.2674C93.6328 36.2431 93.7019 36.2134 93.7629 36.1782C93.8401 36.1336 93.8841 36.0918 93.8949 36.0527C93.9058 36.0136 93.8868 35.98 93.838 35.9518C93.8001 35.9299 93.7575 35.9202 93.7101 35.9225C93.6613 35.9241 93.603 35.9374 93.5353 35.9624L93.3098 36.0457C93.1053 36.1215 92.9346 36.12 92.7978 36.041C92.7084 35.9894 92.6719 35.9276 92.6881 35.8556C92.7057 35.7829 92.7721 35.7133 92.8872 35.6468C92.9549 35.6077 93.0301 35.5769 93.1127 35.5542C93.1954 35.5299 93.2773 35.5178 93.3586 35.5178L93.4195 35.6164C93.3437 35.6179 93.2699 35.6285 93.1981 35.648C93.1263 35.666 93.0647 35.6899 93.0132 35.7196C92.9373 35.7634 92.8947 35.8052 92.8852 35.8451C92.8757 35.885 92.8953 35.919 92.9441 35.9471C93.02 35.9909 93.1188 35.9901 93.2407 35.9448L93.4642 35.8603C93.5699 35.8212 93.666 35.8009 93.7527 35.7993C93.838 35.797 93.9159 35.8162 93.9864 35.8568C94.0771 35.9092 94.113 35.9714 94.094 36.0433C94.0737 36.1145 94.004 36.1845 93.8848 36.2533ZM94.5114 35.8704L93.0791 35.0434L93.2437 34.9484L93.8511 35.2991C93.8241 35.2459 93.8247 35.1939 93.8532 35.1431C93.8816 35.0907 93.9324 35.0434 94.0055 35.0012C94.2399 34.8659 94.4871 34.8733 94.7471 35.0235L95.3627 35.3789L95.1981 35.4739L94.5927 35.1243C94.5006 35.0712 94.4153 35.043 94.3367 35.0399C94.2582 35.0352 94.1796 35.0555 94.101 35.1009C94.0103 35.1533 93.9663 35.2115 93.969 35.2757C93.9717 35.3382 94.0198 35.3965 94.1132 35.4504L94.676 35.7754L94.5114 35.8704ZM96.1294 34.9574C95.9736 35.0473 95.805 35.0923 95.6235 35.0923C95.4406 35.0915 95.2707 35.0457 95.1135 34.955C95.012 34.8964 94.9429 34.833 94.9063 34.765C94.8684 34.6962 94.8636 34.6293 94.8921 34.5644C94.9205 34.4979 94.9815 34.4377 95.0749 34.3838C95.209 34.3063 95.3573 34.2708 95.5199 34.277C95.6811 34.2825 95.8368 34.3286 95.9872 34.4154L96.0502 34.4518L95.3066 34.8811C95.4244 34.9429 95.5429 34.9738 95.6621 34.9738C95.7799 34.973 95.8917 34.9421 95.9973 34.8811C96.0569 34.8467 96.105 34.8088 96.1416 34.7673C96.1768 34.7251 96.1978 34.6778 96.2046 34.6254L96.3773 34.6594C96.3745 34.7095 96.3508 34.7615 96.3061 34.8154C96.2601 34.8686 96.2012 34.9159 96.1294 34.9574ZM95.2009 34.4518C95.1075 34.5058 95.0628 34.5652 95.0668 34.6301C95.0709 34.695 95.1156 34.7576 95.2009 34.8178L95.8003 34.4717C95.696 34.4162 95.5917 34.3865 95.4874 34.3826C95.3844 34.3779 95.2889 34.401 95.2009 34.4518ZM96.7475 34.5794L95.7601 34.0093L95.9206 33.9166L96.0973 34.0187C96.031 33.9194 96.0736 33.8189 96.2253 33.7172L96.2782 33.6797L96.4326 33.7548L96.3411 33.8216C96.2558 33.8803 96.2145 33.9385 96.2172 33.9964C96.2186 34.0535 96.2633 34.1075 96.3513 34.1583L96.9141 34.4832L96.7475 34.5794ZM98.4343 33.6266C98.3354 33.6837 98.2291 33.7209 98.1153 33.7381C98.0002 33.7545 97.8843 33.7518 97.7679 33.7299C97.6514 33.7064 97.541 33.6646 97.4367 33.6044C97.2796 33.5136 97.199 33.4179 97.1949 33.317C97.1895 33.2153 97.2613 33.1215 97.4103 33.0355C97.4712 33.0003 97.5423 32.9717 97.6236 32.9498C97.7049 32.9279 97.7848 32.917 97.8634 32.917L97.9263 33.019C97.8491 33.0198 97.778 33.0288 97.713 33.046C97.6493 33.0624 97.5965 33.0828 97.5545 33.107C97.4516 33.1664 97.4049 33.231 97.4143 33.3006C97.4225 33.3694 97.4868 33.4386 97.6074 33.5082C97.7252 33.5762 97.8464 33.6141 97.971 33.622C98.0943 33.629 98.2074 33.6028 98.3103 33.5434C98.3523 33.5191 98.3875 33.4886 98.416 33.4519C98.4458 33.4143 98.4607 33.3729 98.4607 33.3275L98.6374 33.3639C98.6374 33.4092 98.6185 33.4562 98.5805 33.5047C98.5426 33.5516 98.4939 33.5922 98.4343 33.6266ZM99.3467 33.0998C99.2506 33.1553 99.1463 33.1913 99.0339 33.2077C98.9214 33.2242 98.8077 33.2218 98.6925 33.2007C98.5774 33.178 98.4677 33.1366 98.3634 33.0764C98.2591 33.0161 98.188 32.9532 98.1501 32.8875C98.1121 32.8203 98.1074 32.7542 98.1359 32.6893C98.1643 32.6244 98.2266 32.5642 98.3228 32.5086C98.4176 32.4539 98.5212 32.4183 98.6336 32.4019C98.7474 32.3847 98.8618 32.3874 98.977 32.4101C99.0921 32.4312 99.2018 32.4719 99.3061 32.5321C99.4104 32.5923 99.4815 32.656 99.5194 32.7233C99.5574 32.789 99.5614 32.8547 99.5316 32.9204C99.5032 32.9853 99.4415 33.0451 99.3467 33.0998ZM99.2147 33.0236C99.3068 32.9704 99.3481 32.909 99.3386 32.8394C99.3278 32.769 99.2614 32.6987 99.1395 32.6283C99.0162 32.5571 98.8943 32.5188 98.7738 32.5133C98.6533 32.5079 98.5469 32.5317 98.4548 32.5849C98.3614 32.6388 98.3194 32.7006 98.3289 32.7702C98.3397 32.839 98.4067 32.909 98.53 32.9802C98.6519 33.0506 98.7731 33.0893 98.8937 33.0963C99.0142 33.1018 99.1212 33.0775 99.2147 33.0236ZM100.051 32.6721L99.0636 32.102L99.2242 32.0093L99.3907 32.1055C99.361 32.0539 99.3569 32.0039 99.3786 31.9554C99.3989 31.9061 99.4443 31.8611 99.5147 31.8205C99.6691 31.7313 99.835 31.713 100.012 31.7654C99.9799 31.7122 99.9752 31.6586 99.9982 31.6047C100.02 31.5499 100.069 31.5006 100.145 31.4569C100.364 31.3302 100.604 31.3419 100.864 31.492L101.479 31.8475L101.315 31.9425L100.707 31.5917C100.617 31.5394 100.534 31.5104 100.459 31.5049C100.385 31.4979 100.311 31.5155 100.238 31.5577C100.158 31.6039 100.123 31.657 100.132 31.7173C100.142 31.7775 100.194 31.8349 100.289 31.8897L100.847 32.2123L100.683 32.3073L100.075 31.9565C99.9847 31.9042 99.9021 31.8752 99.8276 31.8697C99.7531 31.8627 99.6792 31.8803 99.6061 31.9225C99.5248 31.9695 99.4889 32.023 99.4984 32.0832C99.5093 32.1427 99.5621 32.1997 99.6569 32.2545L100.216 32.5771L100.051 32.6721ZM100.533 30.9695L100.349 30.8628L100.552 30.7455L100.737 30.8522L100.533 30.9695ZM101.787 31.6698L100.8 31.0997L100.964 31.0047L101.952 31.5748L101.787 31.6698ZM102.611 31.2154C102.533 31.2599 102.45 31.2959 102.359 31.3233C102.268 31.3507 102.181 31.3659 102.097 31.369L102.034 31.2717C102.122 31.2662 102.204 31.2521 102.282 31.2294C102.359 31.2052 102.428 31.1755 102.489 31.1403C102.566 31.0957 102.61 31.0539 102.621 31.0148C102.632 30.9757 102.613 30.9421 102.564 30.9139C102.526 30.892 102.483 30.8822 102.436 30.8846C102.387 30.8862 102.329 30.8994 102.261 30.9245L102.036 31.0078C101.831 31.0836 101.661 31.082 101.524 31.0031C101.434 30.9515 101.398 30.8897 101.414 30.8177C101.432 30.745 101.498 30.6754 101.613 30.6089C101.681 30.5698 101.756 30.5389 101.839 30.5163C101.921 30.492 102.003 30.4799 102.084 30.4799L102.145 30.5784C102.07 30.58 101.996 30.5906 101.924 30.6101C101.852 30.6281 101.791 30.6519 101.739 30.6817C101.663 30.7255 101.621 30.7673 101.611 30.8072C101.602 30.8471 101.621 30.8811 101.67 30.9092C101.746 30.953 101.845 30.9522 101.967 30.9069L102.19 30.8224C102.296 30.7833 102.392 30.763 102.479 30.7614C102.564 30.7591 102.642 30.7782 102.712 30.8189C102.803 30.8713 102.839 30.9335 102.82 31.0054C102.8 31.0766 102.73 31.1466 102.611 31.2154ZM103.589 30.6506C103.512 30.6952 103.428 30.7312 103.337 30.7586C103.246 30.7859 103.159 30.8012 103.075 30.8043L103.012 30.7069C103.1 30.7015 103.183 30.6874 103.26 30.6647C103.337 30.6405 103.406 30.6108 103.467 30.5756C103.544 30.531 103.588 30.4892 103.599 30.4501C103.61 30.411 103.591 30.3773 103.542 30.3492C103.504 30.3273 103.462 30.3175 103.414 30.3199C103.365 30.3214 103.307 30.3347 103.239 30.3597L103.014 30.443C102.809 30.5189 102.639 30.5173 102.502 30.4383C102.412 30.3867 102.376 30.3249 102.392 30.253C102.41 30.1803 102.476 30.1107 102.591 30.0442C102.659 30.0051 102.734 29.9742 102.817 29.9515C102.899 29.9273 102.981 29.9152 103.063 29.9152L103.124 30.0137C103.048 30.0153 102.974 30.0258 102.902 30.0454C102.83 30.0634 102.769 30.0872 102.717 30.1169C102.641 30.1607 102.599 30.2026 102.589 30.2424C102.58 30.2823 102.599 30.3163 102.648 30.3445C102.724 30.3883 102.823 30.3875 102.945 30.3421L103.168 30.2577C103.274 30.2186 103.37 30.1983 103.457 30.1967C103.542 30.1943 103.62 30.2135 103.69 30.2542C103.781 30.3066 103.817 30.3687 103.798 30.4407C103.778 30.5118 103.708 30.5818 103.589 30.6506ZM102.962 29.5674L102.777 29.4607L102.98 29.3434L103.165 29.4501L102.962 29.5674ZM104.216 30.2677L103.228 29.6976L103.393 29.6026L104.38 30.1727L104.216 30.2677ZM105.116 29.7687C105.02 29.8242 104.916 29.8602 104.804 29.8766C104.691 29.893 104.577 29.8907 104.462 29.8696C104.347 29.8469 104.237 29.8055 104.133 29.7452C104.029 29.685 103.958 29.6221 103.92 29.5564C103.882 29.4891 103.877 29.4231 103.906 29.3582C103.934 29.2933 103.996 29.233 104.092 29.1775C104.187 29.1228 104.291 29.0872 104.403 29.0708C104.517 29.0536 104.632 29.0563 104.747 29.079C104.862 29.1001 104.971 29.1408 105.076 29.201C105.18 29.2612 105.251 29.3249 105.289 29.3922C105.327 29.4579 105.331 29.5236 105.301 29.5892C105.273 29.6541 105.211 29.714 105.116 29.7687ZM104.984 29.6925C105.076 29.6393 105.118 29.5779 105.108 29.5083C105.097 29.4379 105.031 29.3675 104.909 29.2972C104.786 29.226 104.664 29.1877 104.543 29.1822C104.423 29.1767 104.317 29.2006 104.224 29.2538C104.131 29.3077 104.089 29.3695 104.099 29.4391C104.109 29.5079 104.176 29.5779 104.3 29.6491C104.422 29.7194 104.543 29.7581 104.663 29.7652C104.784 29.7707 104.891 29.7464 104.984 29.6925ZM105.817 29.3433L104.829 28.7732L104.99 28.6806L105.158 28.7779C105.129 28.7232 105.128 28.6696 105.156 28.6172C105.185 28.5648 105.236 28.5171 105.311 28.4741C105.545 28.3388 105.792 28.3463 106.052 28.4964L106.668 28.8518L106.503 28.9468L105.898 28.5973C105.806 28.5441 105.72 28.516 105.642 28.5128C105.563 28.5081 105.485 28.5285 105.406 28.5738C105.315 28.6262 105.271 28.6845 105.274 28.7486C105.277 28.8112 105.325 28.8694 105.418 28.9234L105.981 29.2483L105.817 29.3433Z" fill="white"/>
<rect width="36.9493" height="0.195499" transform="matrix(0.866025 -0.5 0.866025 0.5 71.1263 37.0819)" fill="#B7C8FF" fill-opacity="0.08"/>
<defs>
<feFlood flood-opacity="0" result="BackgroundImageFix"/>
<feGaussianBlur in="BackgroundImage" stdDeviation="10.5139"/>
<feComposite in2="SourceAlpha" operator="in" result="effect1_backgroundBlur"/>
<feBlend mode="normal" in="SourceGraphic" in2="effect1_backgroundBlur" result="shape"/>
<filter id="filter1_b" x="52.3482" y="34.0682" width="83.4197" height="65.9372" filterUnits="userSpaceOnUse" color-interpolation-filters="sRGB">
<feFlood flood-opacity="0" result="BackgroundImageFix"/>
<feGaussianBlur in="BackgroundImage" stdDeviation="10.5139"/>
<feComposite in2="SourceAlpha" operator="in" result="effect1_backgroundBlur"/>
<feBlend mode="normal" in="SourceGraphic" in2="effect1_backgroundBlur" result="shape"/>
</filter>
<filter id="filter2_d" x="42.6685" y="1.21879" width="83.3475" height="59.3527" filterUnits="userSpaceOnUse" color-interpolation-filters="sRGB">
<feFlood flood-opacity="0" result="BackgroundImageFix"/>
<feColorMatrix in="SourceAlpha" type="matrix" values="0 0 0 0 0 0 0 0 0 0 0 0 0 0 0 0 0 0 127 0"/>
<feOffset dx="-2.9528" dy="2.9528"/>
<feGaussianBlur stdDeviation="6.6438"/>
<feColorMatrix type="matrix" values="0 0 0 0 0 0 0 0 0 0 0 0 0 0 0 0 0 0 0.25 0"/>
<feBlend mode="normal" in2="BackgroundImageFix" result="effect1_dropShadow"/>
<feBlend mode="normal" in="SourceGraphic" in2="effect1_dropShadow" result="shape"/>
</filter>
<filter id="filter3_b" x="41.7903" y="-5.56503" width="91.0095" height="67.0147" filterUnits="userSpaceOnUse" color-interpolation-filters="sRGB">
<feFlood flood-opacity="0" result="BackgroundImageFix"/>
<feGaussianBlur in="BackgroundImage" stdDeviation="8.55931"/>
<feComposite in2="SourceAlpha" operator="in" result="effect1_backgroundBlur"/>
<feBlend mode="normal" in="SourceGraphic" in2="effect1_backgroundBlur" result="shape"/>
</filter>
<linearGradient id="paint0_linear" x1="103.673" y1="44.6276" x2="103.673" y2="28.7542" gradientUnits="userSpaceOnUse">
<stop stop-color="#305EED"/>
<stop offset="0.357071" stop-color="white"/>
</linearGradient>
<clipPath id="clip0">
<rect width="2.73698" height="2.73698" fill="white" transform="matrix(-0.866025 0.5 0.866025 0.5 107.527 36.2023)"/>
</clipPath>
</defs>
</svg>
