<svg width="145" height="90" viewBox="0 0 145 90" fill="none" xmlns="http://www.w3.org/2000/svg">
<g clip-path="url(#clip0)">
<path d="M17.6254 48.918C16.8073 48.4456 16.8073 47.6798 17.6254 47.2075L56.41 24.8151C57.2281 24.3428 58.5546 24.3428 59.3727 24.8151L108.665 53.2739C109.483 53.7462 109.483 54.5121 108.665 54.9844L69.8801 77.3767C69.062 77.8491 67.7355 77.8491 66.9174 77.3767L17.6254 48.918Z" fill="#F8FAFD"/>
<path d="M38.6718 49.8465L40.0581 49.0461C40.2018 49.1176 40.2886 49.162 40.3183 49.1791C40.6999 49.3994 40.8882 49.6512 40.8832 49.9345C40.8783 50.2148 40.6825 50.4666 40.296 50.6898C39.9144 50.9101 39.4672 51.0238 38.9543 51.031C38.4414 51.0352 38.0028 50.9322 37.6386 50.722C37.2744 50.5117 37.0972 50.2592 37.1071 49.9645C37.1171 49.6669 37.3116 49.4087 37.6907 49.1899C37.9855 49.0196 38.3101 48.9081 38.6644 48.8551C39.0187 48.8022 39.3545 48.8201 39.6716 48.9088L39.129 49.4323C38.8391 49.3794 38.574 49.4223 38.3336 49.5611C38.1503 49.6669 38.0623 49.7907 38.0697 49.9323C38.0747 50.0725 38.1713 50.197 38.3596 50.3057C38.548 50.4144 38.766 50.4702 39.0138 50.473C39.2591 50.4745 39.4746 50.4215 39.6605 50.3143C39.9256 50.1612 40.0049 49.9953 39.8983 49.8164L39.2591 50.1855L38.6718 49.8465ZM43.3 48.1958L43.9021 48.5434L41.9212 49.6871L39.431 48.2494L41.3971 47.1143L41.9992 47.4619L40.7467 48.1851L41.1147 48.3975L42.2668 47.7323L42.8132 48.0477L41.661 48.7129L42.0327 48.9275L43.3 48.1958ZM44.5904 45.9788L43.8099 46.4294L45.6868 47.513L44.9695 47.9272L43.0926 46.8435L42.3121 47.2942L41.6989 46.9401L43.9771 45.6247L44.5904 45.9788ZM46.3224 44.2707L48.8125 45.7084L48.1101 46.1139L46.4451 45.1526L46.1626 45.6547L45.5048 45.2749L45.8616 44.5368L46.3224 44.2707ZM47.3341 44.0385C47.3019 43.7796 47.4543 43.5529 47.7912 43.3583C48.1282 43.1638 48.5197 43.0765 48.9657 43.0965C49.4092 43.1151 49.8254 43.2367 50.2145 43.4613C50.6035 43.6859 50.8153 43.9269 50.85 44.1844C50.8822 44.4405 50.7298 44.6658 50.3928 44.8604C50.0534 45.0563 49.6607 45.1457 49.2147 45.1286C48.7687 45.1085 48.3512 44.9862 47.9622 44.7616C47.5732 44.5371 47.3638 44.296 47.3341 44.0385ZM49.7833 44.5084C49.9072 44.4369 49.9444 44.3454 49.8948 44.2338C49.8453 44.1222 49.7115 44.0035 49.4934 43.8776C49.2754 43.7517 49.071 43.6752 48.8802 43.648C48.6869 43.6194 48.5284 43.6408 48.4045 43.7124C48.2781 43.7853 48.2385 43.8783 48.2855 43.9913C48.3326 44.1015 48.4652 44.2195 48.6832 44.3454C48.9013 44.4712 49.1069 44.5485 49.3002 44.5771C49.4959 44.6043 49.657 44.5814 49.7833 44.5084ZM49.9137 42.1329C50.0971 42.027 50.3126 41.9712 50.5604 41.9655C50.8082 41.9598 51.0275 42.012 51.2183 42.1221C51.409 42.2323 51.4995 42.3589 51.4896 42.502C51.4797 42.645 51.383 42.7695 51.1997 42.8753C51.0138 42.9826 50.7958 43.0398 50.5455 43.047C50.2978 43.0527 50.0785 43.0005 49.8877 42.8903C49.6969 42.7802 49.6065 42.6536 49.6164 42.5105C49.6288 42.3661 49.7279 42.2402 49.9137 42.1329ZM52.2255 43.7379L51.5119 41.2746L51.8835 41.06L52.6008 43.5212L52.2255 43.7379ZM50.3114 42.3625C50.247 42.3997 50.2135 42.4447 50.2111 42.4977C50.2086 42.5506 50.2445 42.5985 50.3188 42.6414C50.3907 42.6829 50.4737 42.7037 50.5678 42.7037C50.662 42.7008 50.74 42.6815 50.802 42.6457C50.8639 42.61 50.8949 42.5663 50.8949 42.5148C50.8949 42.4605 50.859 42.4125 50.7871 42.3711C50.7128 42.3281 50.6298 42.3074 50.5381 42.3088C50.4489 42.3088 50.3733 42.3267 50.3114 42.3625ZM52.9316 41.9097C53.115 41.8039 53.3305 41.7481 53.5783 41.7423C53.8261 41.7366 54.0453 41.7888 54.2361 41.899C54.4269 42.0091 54.5174 42.1357 54.5074 42.2788C54.4975 42.4218 54.4009 42.5463 54.2176 42.6522C54.0317 42.7594 53.8137 42.8167 53.5634 42.8238C53.3157 42.8295 53.0964 42.7773 52.9056 42.6672C52.7148 42.557 52.6244 42.4304 52.6343 42.2874C52.6467 42.1429 52.7458 42.017 52.9316 41.9097ZM53.3293 42.1393C53.2649 42.1765 53.2314 42.2216 53.2289 42.2745C53.2265 42.3274 53.2624 42.3754 53.3367 42.4183C53.4086 42.4598 53.4916 42.4805 53.5857 42.4805C53.6799 42.4776 53.7579 42.4583 53.8199 42.4226C53.8818 42.3868 53.9128 42.3432 53.9128 42.2917C53.9128 42.2373 53.8769 42.1894 53.805 42.1479C53.7307 42.105 53.6477 42.0842 53.556 42.0857C53.4668 42.0857 53.3912 42.1036 53.3293 42.1393ZM54.9579 39.9974L55.3964 40.2506L56.5263 39.5983L57.1469 39.9567L56.0171 40.609L56.831 41.0789L56.1174 41.4909L53.6273 40.0532L55.6157 38.9052L56.2326 39.2614L54.9579 39.9974ZM56.5768 38.7237C56.5843 38.4275 56.7763 38.1708 57.1529 37.9533C57.5295 37.7359 57.973 37.6257 58.4835 37.6229C58.9939 37.6172 59.4312 37.7194 59.7954 37.9297C60.1596 38.14 60.338 38.3932 60.3306 38.6893C60.3232 38.9826 60.1312 39.2379 59.7545 39.4554C59.3779 39.6728 58.9344 39.7844 58.424 39.7901C57.9136 39.793 57.4763 39.6893 57.112 39.479C56.7478 39.2687 56.5694 39.0169 56.5768 38.7237ZM58.4797 39.2344C58.7226 39.2372 58.9332 39.1872 59.1116 39.0842C59.29 38.9812 59.3754 38.8603 59.368 38.7215C59.3606 38.5799 59.2627 38.4547 59.0744 38.346C58.8886 38.2387 58.673 38.1829 58.4277 38.1786C58.1849 38.1729 57.9743 38.2216 57.7959 38.3245C57.6175 38.4275 57.532 38.5499 57.5394 38.6915C57.5494 38.8317 57.6472 38.9554 57.8331 39.0627C58.0214 39.1714 58.2369 39.2286 58.4797 39.2344ZM63.7544 37.0817L62.8959 37.5773L61.4167 37.513L61.3201 37.5687L62.1154 38.0279L61.4018 38.4399L58.9117 37.0023L60.2385 36.2362C60.5061 36.0817 60.7985 36.0016 61.1157 35.9959C61.4353 35.9887 61.7202 36.0574 61.9705 36.2019C62.1687 36.3163 62.2864 36.4458 62.3236 36.5903C62.3582 36.7333 62.3112 36.8749 62.1823 37.0151L63.7544 37.0817ZM60.7551 37.2426L61.2346 36.9658C61.3337 36.9086 61.3882 36.8485 61.3981 36.7855C61.4056 36.7212 61.3684 36.6654 61.2866 36.6182C61.2073 36.5724 61.1144 36.5531 61.0079 36.5602C60.8989 36.566 60.7948 36.5974 60.6957 36.6546L60.2162 36.9314L60.7551 37.2426ZM49.218 50.4742L48.4487 50.9184L47.9321 50.779L46.9509 51.3454L47.1888 51.6458L46.4232 52.0879L44.9365 50.0708L45.7244 49.6159L49.218 50.4742ZM47.1182 50.5579L46.0998 50.2833L46.5718 50.8734L47.1182 50.5579ZM49.2019 48.3206L49.6405 48.5738L50.7703 47.9215L51.391 48.2799L50.2611 48.9322L51.0751 49.4021L50.3615 49.8141L47.8714 48.3764L49.8597 47.2284L50.4767 47.5846L49.2019 48.3206ZM55.0169 47.1263L54.1584 47.6219L52.6792 47.5576L52.5826 47.6134L53.3779 48.0725L52.6643 48.4845L50.1742 47.0469L51.501 46.2808C51.7686 46.1263 52.061 46.0462 52.3781 46.0405C52.6978 46.0333 52.9827 46.102 53.233 46.2465C53.4312 46.3609 53.5489 46.4904 53.586 46.6349C53.6207 46.7779 53.5737 46.9195 53.4448 47.0597L55.0169 47.1263ZM52.0176 47.2872L52.4971 47.0104C52.5962 46.9532 52.6507 46.8931 52.6606 46.8301C52.668 46.7658 52.6309 46.71 52.5491 46.6628C52.4698 46.617 52.3769 46.5977 52.2704 46.6048C52.1613 46.6106 52.0573 46.642 51.9582 46.6992L51.4787 46.9761L52.0176 47.2872ZM54.472 45.2736L55.7357 46.0032L56.1556 45.7607L56.7689 46.1148L55.2116 47.0139L54.5984 46.6598L55.0184 46.4173L53.7547 45.6878L53.3347 45.9302L52.7215 45.5762L54.2788 44.6771L54.892 45.0312L54.472 45.2736ZM58.471 44.4368L59.0731 44.7844L57.0922 45.9281L54.602 44.4905L56.5681 43.3553L57.1702 43.7029L55.9177 44.4261L56.2857 44.6385L57.4378 43.9733L57.9841 44.2887L56.832 44.9539L57.2037 45.1685L58.471 44.4368ZM59.4195 41.7091L61.9096 43.1468L61.3186 43.488L58.8917 43.4086L60.1739 44.1489L59.4603 44.5609L56.9702 43.1232L57.5574 42.7842L60.029 42.8893L58.7022 42.1233L59.4195 41.7091ZM59.8393 41.4667L60.8911 40.8595C61.2974 40.6249 61.7397 40.5026 62.2179 40.4926C62.6961 40.4797 63.121 40.5805 63.4927 40.7951C63.8643 41.0097 64.0403 41.2557 64.0204 41.5333C64.0006 41.8079 63.7875 42.0626 63.3812 42.2972L62.3294 42.9044L59.8393 41.4667ZM62.4409 42.1448L62.7271 41.9796C62.9327 41.8608 63.0393 41.7307 63.0467 41.5891C63.0541 41.4474 62.9624 41.3215 62.7717 41.2114C62.5809 41.1012 62.3628 41.0483 62.1175 41.0526C61.8722 41.0569 61.6468 41.1184 61.4411 41.2371L61.1549 41.4024L62.4409 42.1448Z" fill="#305EED"/>
<rect width="11.6908" height="2.47888" rx="0.245232" transform="matrix(0.866025 -0.5 -0.866025 -0.5 36.2134 41.3803)" fill="#C7E1FF"/>
<rect width="26.8276" height="1.65259" rx="0.245232" transform="matrix(0.866025 -0.5 -0.866025 -0.5 47.9543 55.7607)" fill="#C7E1FF"/>
<rect width="24.176" height="1.65259" rx="0.245232" transform="matrix(0.866025 -0.5 -0.866025 -0.5 51.2672 56.3269)" fill="#C7E1FF"/>
<rect width="16.7932" height="1.65258" rx="0.245232" transform="matrix(0.866025 -0.5 -0.866025 -0.5 56.6209 55.7148)" fill="#C7E1FF"/>
<rect width="11.5146" height="12.2291" rx="0.245232" transform="matrix(0.866025 -0.5 -0.866025 -0.5 66.4771 72.5857)" fill="#C7E1FF"/>
<rect width="11.5146" height="12.2291" rx="0.245232" transform="matrix(0.866025 -0.5 -0.866025 -0.5 78.4765 65.6579)" fill="#C7E1FF"/>
<rect width="11.5146" height="12.2291" rx="0.245232" transform="matrix(0.866025 -0.5 -0.866025 -0.5 90.3694 58.7914)" fill="#C7E1FF"/>
<g filter="url(#filter0_d)">
<path d="M40.487 22.7094C40.0916 22.4812 40.0916 22.1111 40.487 21.8829L67.1829 6.46996C67.5782 6.24173 68.2192 6.24173 68.6145 6.46996L102.39 25.9702C102.785 26.1984 102.785 26.5685 102.39 26.7967L75.6939 42.2096C75.2986 42.4379 74.6577 42.4379 74.2623 42.2096L40.487 22.7094Z" fill="#D1003C"/>
<path d="M40.5317 22.6836C40.1611 22.4696 40.1611 22.1227 40.5317 21.9087L67.2276 6.49579C67.5983 6.28182 68.1991 6.28182 68.5698 6.49579L102.345 25.996C102.716 26.21 102.716 26.5569 102.345 26.7709L75.6492 42.1838C75.2786 42.3978 74.6777 42.3978 74.3071 42.1838L40.5317 22.6836Z" stroke="#671717" stroke-width="0.103316"/>
<path d="M52.195 25.0929C52.2935 25.0361 52.3469 24.9724 52.3553 24.9021C52.3653 24.8308 52.3269 24.7565 52.2401 24.6794L52.8311 24.4655C52.998 24.6043 53.0631 24.7527 53.0264 24.9108C52.9897 25.0669 52.8569 25.211 52.6282 25.343C52.3745 25.4895 52.0757 25.5647 51.7318 25.5686C51.3879 25.5705 51.0932 25.5006 50.8478 25.3589C50.6024 25.2173 50.4822 25.0476 50.4872 24.85C50.4923 24.6505 50.6216 24.4775 50.8754 24.331C51.0891 24.2076 51.3345 24.1334 51.6116 24.1084C51.8904 24.0824 52.1458 24.1142 52.3778 24.2038L52.0122 24.5479C51.8837 24.5006 51.7585 24.4804 51.6366 24.4872C51.5164 24.4929 51.4071 24.5243 51.3086 24.5811C51.1901 24.6496 51.1333 24.7315 51.1383 24.8269C51.1433 24.9223 51.2084 25.0062 51.3336 25.0785C51.4588 25.1507 51.6041 25.1883 51.7693 25.1912C51.9346 25.1941 52.0765 25.1614 52.195 25.0929ZM53.5939 22.8048L55.2717 23.7735L54.7884 24.0525L54.1498 23.6838L53.5363 24.038L54.1749 24.4067L53.6941 24.6843L52.0164 23.7156L52.4971 23.4381L53.1232 23.7995L53.7367 23.4453L53.1106 23.0839L53.5939 22.8048ZM57.1389 22.6954L56.5604 23.0294L55.5638 22.986L55.4987 23.0236L56.0346 23.333L55.5538 23.6106L53.876 22.642L54.77 22.1258C54.9503 22.0217 55.1473 21.9678 55.361 21.9639C55.5763 21.9591 55.7683 22.0054 55.9369 22.1027C56.0705 22.1798 56.1497 22.267 56.1748 22.3644C56.1982 22.4608 56.1664 22.5562 56.0796 22.6506L57.1389 22.6954ZM55.1181 22.8039L55.4411 22.6174C55.5079 22.5788 55.5446 22.5383 55.5513 22.4959C55.5563 22.4526 55.5312 22.415 55.4761 22.3832C55.4227 22.3523 55.3601 22.3393 55.2883 22.3441C55.2149 22.348 55.1448 22.3692 55.078 22.4077L54.755 22.5942L55.1181 22.8039ZM56.7717 21.4472L57.6231 21.9388L57.9061 21.7754L58.3192 22.014L57.27 22.6197L56.8569 22.3812L57.1398 22.2178L56.2884 21.7263L56.0055 21.8896L55.5923 21.6511L56.6415 21.0453L57.0547 21.2839L56.7717 21.4472ZM57.5204 20.4945C57.7191 20.3798 57.9244 20.3104 58.1364 20.2863C58.3484 20.2622 58.5471 20.2863 58.7324 20.3586L58.3568 20.6853C58.2683 20.6516 58.1832 20.6391 58.1014 20.6478C58.0196 20.6564 57.9503 20.6772 57.8935 20.7099C57.8401 20.7408 57.8092 20.7731 57.8009 20.8068C57.7925 20.8386 57.8092 20.8665 57.8509 20.8906C57.9077 20.9234 57.9761 20.9253 58.0563 20.8964L58.477 20.7461C58.8759 20.6082 59.2015 20.6121 59.4536 20.7576C59.5788 20.8299 59.648 20.9123 59.6614 21.0049C59.6764 21.0964 59.6505 21.1827 59.5838 21.2636C59.517 21.3446 59.4218 21.4207 59.2983 21.4921C59.0913 21.6116 58.8709 21.6848 58.6372 21.7118C58.4035 21.7388 58.1957 21.7133 58.0137 21.6352L58.4119 21.2983C58.5988 21.362 58.7683 21.3499 58.9202 21.2622C58.9786 21.2285 59.0145 21.1942 59.0279 21.1595C59.0412 21.1249 59.0262 21.095 58.9828 21.0699C58.926 21.0371 58.8501 21.0376 58.7549 21.0714L58.3242 21.2246C57.9453 21.3605 57.6297 21.3557 57.3777 21.2101C57.2057 21.1109 57.1356 20.9962 57.1673 20.8661C57.199 20.7359 57.3167 20.6121 57.5204 20.4945ZM60.3868 19.36L59.861 19.6637L61.1255 20.3937L60.6422 20.6728L59.3777 19.9427L58.8518 20.2463L58.4386 20.0077L59.9736 19.1215L60.3868 19.36ZM62.1931 17.8401L63.8708 18.8088L63.4 19.0806L62.6413 18.6425L63.0269 19.296L62.7139 19.4767L61.5871 19.2569L62.3408 19.6921L61.87 19.9639L60.1923 18.9953L60.7006 18.7018L62.1079 18.9476L61.6847 18.1336L62.1931 17.8401ZM65.9206 17.6253L65.4022 17.9246L65.0542 17.8306L64.3931 18.2123L64.5534 18.4147L64.0375 18.7125L63.0359 17.3535L63.5668 17.047L65.9206 17.6253ZM64.5058 17.6817L63.8197 17.4966L64.1377 17.8942L64.5058 17.6817ZM65.0105 16.1701C65.2091 16.0554 65.4145 15.986 65.6265 15.9619C65.8385 15.9378 66.0371 15.9619 66.2224 16.0342L65.8468 16.361C65.7583 16.3272 65.6732 16.3147 65.5914 16.3234C65.5096 16.332 65.4403 16.3528 65.3836 16.3855C65.3301 16.4164 65.2993 16.4487 65.2909 16.4824C65.2826 16.5142 65.2993 16.5422 65.341 16.5663C65.3978 16.599 65.4662 16.601 65.5463 16.572L65.967 16.4217C66.366 16.2839 66.6915 16.2877 66.9436 16.4332C67.0688 16.5055 67.1381 16.5879 67.1515 16.6805C67.1665 16.772 67.1406 16.8583 67.0738 16.9393C67.007 17.0202 66.9119 17.0964 66.7884 17.1677C66.5814 17.2872 66.361 17.3604 66.1273 17.3874C65.8936 17.4144 65.6857 17.3889 65.5038 17.3108L65.9019 16.974C66.0889 17.0376 66.2583 17.0255 66.4102 16.9378C66.4687 16.9041 66.5046 16.8699 66.5179 16.8352C66.5313 16.8005 66.5162 16.7706 66.4728 16.7455C66.4161 16.7128 66.3401 16.7132 66.245 16.747L65.8143 16.9002C65.4353 17.0361 65.1198 17.0313 64.8677 16.8858C64.6958 16.7865 64.6257 16.6718 64.6574 16.5417C64.6891 16.4116 64.8068 16.2877 65.0105 16.1701ZM53.3107 25.925C53.5093 25.8103 53.7147 25.7409 53.9267 25.7168C54.1387 25.6927 54.3374 25.7168 54.5227 25.7891L54.1471 26.1158C54.0586 26.0821 53.9734 26.0696 53.8916 26.0782C53.8098 26.0869 53.7406 26.1076 53.6838 26.1404C53.6304 26.1712 53.5995 26.2035 53.5911 26.2373C53.5828 26.2691 53.5995 26.297 53.6412 26.3211C53.698 26.3539 53.7664 26.3558 53.8466 26.3269L54.2673 26.1765C54.6662 26.0387 54.9918 26.0426 55.2438 26.1881C55.369 26.2604 55.4383 26.3428 55.4517 26.4353C55.4667 26.5269 55.4408 26.6132 55.3741 26.6941C55.3073 26.7751 55.2121 26.8512 55.0886 26.9225C54.8816 27.0421 54.6612 27.1153 54.4275 27.1423C54.1938 27.1693 53.986 27.1437 53.804 27.0657L54.2021 26.7288C54.3891 26.7924 54.5586 26.7804 54.7105 26.6927C54.7689 26.6589 54.8048 26.6247 54.8181 26.59C54.8315 26.5553 54.8165 26.5255 54.7731 26.5004C54.7163 26.4676 54.6404 26.4681 54.5452 26.5018L54.1145 26.6551C53.7355 26.791 53.42 26.7862 53.168 26.6406C52.996 26.5414 52.9259 26.4267 52.9576 26.2965C52.9893 26.1664 53.107 26.0426 53.3107 25.925ZM57.7494 25.3429L57.2311 25.6422L56.883 25.5482L56.2219 25.9299L56.3822 26.1323L55.8664 26.4301L54.8647 25.0711L55.3956 24.7646L57.7494 25.3429ZM56.3346 25.3993L55.6485 25.2143L55.9665 25.6118L56.3346 25.3993ZM58.776 24.2732L59.1892 24.5117L57.9171 25.2461L56.2394 24.2775L56.7201 23.9999L57.9847 24.73L58.776 24.2732ZM60.3512 23.3724L60.7569 23.6066L59.4222 24.3772L57.7444 23.4085L59.0691 22.6437L59.4748 22.8779L58.6309 23.3652L58.8788 23.5083L59.6551 23.0601L60.0232 23.2726L59.2469 23.7208L59.4973 23.8654L60.3512 23.3724ZM62.4443 22.1552L62.8575 22.3938L61.5679 23.1383L61.5654 23.1398L61.2474 22.9562L61.3125 22.3056C61.3175 22.2487 61.3192 22.2082 61.3175 22.1842C61.3175 22.1591 61.31 22.1297 61.295 22.096C61.2799 22.0603 61.2532 22.0314 61.2148 22.0092C61.1664 21.9813 61.1113 21.9678 61.0496 21.9687C60.9878 21.9678 60.9327 21.9813 60.8843 22.0092C60.7591 22.0815 60.7708 22.1663 60.9194 22.2637L60.3785 22.4776C60.2165 22.3745 60.1456 22.2613 60.1656 22.1379C60.1857 22.0126 60.2908 21.895 60.4811 21.7851C60.6715 21.6753 60.8751 21.6155 61.0921 21.6059C61.3092 21.5962 61.5045 21.6415 61.6781 21.7418C61.7866 21.8044 61.8534 21.8738 61.8784 21.9499C61.9035 22.0242 61.9093 22.1258 61.896 22.255L61.8659 22.4892L62.4443 22.1552ZM61.7866 21.3119C61.7649 21.1374 61.8676 20.9847 62.0946 20.8536C62.3217 20.7225 62.5854 20.6637 62.8859 20.6772C63.1847 20.6897 63.4652 20.7717 63.7273 20.923C63.9894 21.0743 64.1321 21.2367 64.1555 21.4102C64.1772 21.5827 64.0745 21.7345 63.8475 21.8656C63.6188 21.9976 63.3542 22.0579 63.0537 22.0463C62.7532 22.0328 62.4719 21.9504 62.2098 21.7991C61.9477 21.6478 61.8066 21.4854 61.7866 21.3119ZM63.4368 21.6285C63.5203 21.5803 63.5453 21.5186 63.5119 21.4434C63.4785 21.3683 63.3884 21.2883 63.2415 21.2035C63.0946 21.1186 62.9569 21.0671 62.8283 21.0488C62.6981 21.0295 62.5913 21.0439 62.5078 21.0921C62.4226 21.1413 62.3959 21.2039 62.4277 21.2801C62.4594 21.3543 62.5487 21.4338 62.6956 21.5186C62.8425 21.6034 62.9811 21.6555 63.1113 21.6748C63.2432 21.6931 63.3517 21.6777 63.4368 21.6285ZM65.6306 20.3157L66.0438 20.5542L64.7542 21.2988L64.7517 21.3002L64.4336 21.1166L64.4988 20.466C64.5038 20.4091 64.5054 20.3687 64.5038 20.3446C64.5038 20.3195 64.4962 20.2901 64.4812 20.2564C64.4662 20.2207 64.4395 20.1918 64.4011 20.1696C64.3527 20.1417 64.2976 20.1282 64.2358 20.1292C64.1741 20.1282 64.119 20.1417 64.0706 20.1696C63.9453 20.2419 63.957 20.3267 64.1056 20.4241L63.5647 20.638C63.4028 20.5349 63.3318 20.4217 63.3519 20.2983C63.3719 20.173 63.4771 20.0554 63.6674 19.9455C63.8577 19.8357 64.0614 19.7759 64.2784 19.7663C64.4954 19.7566 64.6907 19.8019 64.8643 19.9022C64.9729 19.9648 65.0396 20.0342 65.0647 20.1104C65.0897 20.1846 65.0956 20.2863 65.0822 20.4154L65.0522 20.6496L65.6306 20.3157ZM64.9729 19.4723C64.9512 19.2978 65.0538 19.1451 65.2809 19.014C65.5079 18.8829 65.7717 18.8241 66.0722 18.8376C66.371 18.8502 66.6514 18.9321 66.9135 19.0834C67.1756 19.2347 67.3184 19.3971 67.3417 19.5706C67.3634 19.7431 67.2608 19.8949 67.0337 20.026C66.805 20.1581 66.5404 20.2183 66.2399 20.2067C65.9394 20.1932 65.6582 20.1108 65.3961 19.9595C65.134 19.8082 64.9929 19.6458 64.9729 19.4723ZM66.6231 19.7889C66.7065 19.7407 66.7316 19.679 66.6982 19.6039C66.6648 19.5287 66.5746 19.4487 66.4277 19.3639C66.2808 19.2791 66.1431 19.2275 66.0146 19.2092C65.8844 19.1899 65.7775 19.2044 65.694 19.2526C65.6089 19.3017 65.5822 19.3644 65.6139 19.4405C65.6456 19.5147 65.7349 19.5942 65.8818 19.679C66.0288 19.7639 66.1673 19.8159 66.2975 19.8352C66.4294 19.8535 66.5379 19.8381 66.6231 19.7889Z" fill="white"/>
<rect width="7.87677" height="1.67016" rx="0.165227" transform="matrix(0.866025 -0.5 -0.866025 -0.5 45.4437 22.3256)" fill="#A81B29"/>
<rect width="18.0752" height="1.11344" rx="0.165227" transform="matrix(0.866025 -0.5 -0.866025 -0.5 57.79 29.4536)" fill="#A81B29"/>
<rect width="16.2887" height="1.11344" rx="0.165227" transform="matrix(0.866025 -0.5 -0.866025 -0.5 59.2364 30.2886)" fill="#A81B29"/>
<rect width="11.3145" height="1.11344" rx="0.165227" transform="matrix(0.866025 -0.5 -0.866025 -0.5 60.6828 31.1237)" fill="#A81B29"/>
<rect width="25.3123" height="12.8111" rx="0.165227" transform="matrix(0.866025 -0.5 -0.866025 -0.5 73.6294 38.8053)" fill="#A81B29"/>
</g>
<g filter="url(#filter2_d)">
<path d="M58.9377 57.7572C58.5705 57.5452 58.5705 57.2015 58.9377 56.9894L83.7353 42.6726C84.1025 42.4606 84.6979 42.4606 85.0651 42.6726L116.439 60.7861C116.806 60.9981 116.806 61.3418 116.439 61.5538L91.6411 75.8707C91.2739 76.0827 90.6785 76.0827 90.3113 75.8707L58.9377 57.7572Z" fill="#184285"/>
<path d="M58.9793 57.7332C58.635 57.5344 58.635 57.2122 58.9793 57.0134L83.7769 42.6966C84.1211 42.4978 84.6793 42.4978 85.0235 42.6966L116.397 60.8101C116.741 61.0088 116.741 61.3311 116.397 61.5299L91.5995 75.8467C91.2553 76.0455 90.6971 76.0455 90.3529 75.8467L58.9793 57.7332Z" stroke="#254BC1" stroke-opacity="0.5" stroke-width="0.0959687"/>
<path d="M76.0671 55.9978L76.0765 56.0032C76.171 55.9522 76.2796 55.9253 76.4021 55.9226C76.5246 55.9182 76.6448 55.9499 76.7626 56.018C76.896 56.095 76.9557 56.1841 76.9417 56.2852C76.9262 56.3855 76.8371 56.4826 76.6742 56.5766L75.8276 57.0655L74.2691 56.1657L75.1158 55.6769C75.2616 55.5927 75.4159 55.5475 75.5787 55.5412C75.7431 55.5341 75.888 55.5668 76.0136 55.6393C76.1191 55.7002 76.171 55.7651 76.1695 55.834C76.1679 55.9012 76.1338 55.9558 76.0671 55.9978ZM75.0623 56.108L75.3507 56.2745L75.6275 56.1147C75.6772 56.086 75.7043 56.0551 75.7089 56.022C75.712 55.988 75.6919 55.9585 75.6485 55.9334C75.6066 55.9092 75.557 55.8985 75.4996 55.9012C75.4438 55.9029 75.3926 55.9173 75.3461 55.9441L75.0623 56.108ZM75.9276 56.6075L76.2276 56.4343C76.2804 56.4039 76.3075 56.3721 76.3091 56.3389C76.3106 56.304 76.2881 56.2731 76.2416 56.2463C76.1982 56.2212 76.1478 56.21 76.0904 56.2127C76.0346 56.2145 75.9819 56.2297 75.9322 56.2584L75.6275 56.4343L75.9276 56.6075ZM78.2188 55.2417L78.6026 55.4633L77.421 56.1455L75.8625 55.2458L76.3091 54.9879L77.4838 55.6661L78.2188 55.2417ZM80.4589 54.3916L79.9774 54.6696L79.6541 54.5823L79.04 54.9368L79.1889 55.1248L78.7097 55.4015L77.7793 54.1391L78.2724 53.8544L80.4589 54.3916ZM79.1447 54.4439L78.5074 54.2721L78.8028 54.6414L79.1447 54.4439ZM80.9678 53.6734C81.0593 53.6206 81.1089 53.5615 81.1166 53.4961C81.1259 53.4299 81.0903 53.361 81.0096 53.2893L81.5586 53.0906C81.7136 53.2195 81.7741 53.3574 81.74 53.5042C81.7059 53.6492 81.5826 53.7831 81.3702 53.9057C81.1345 54.0418 80.8569 54.1117 80.5374 54.1152C80.218 54.117 79.9443 54.0521 79.7164 53.9205C79.4884 53.7889 79.3768 53.6313 79.3814 53.4478C79.3861 53.2625 79.5062 53.1018 79.7419 52.9657C79.9404 52.8511 80.1684 52.7822 80.4258 52.7589C80.6848 52.7347 80.922 52.7643 81.1376 52.8475L80.798 53.1671C80.6786 53.1233 80.5623 53.1045 80.4491 53.1107C80.3374 53.1161 80.2358 53.1452 80.1443 53.198C80.0343 53.2616 79.9815 53.3377 79.9862 53.4263C79.9908 53.5149 80.0513 53.5928 80.1676 53.66C80.2839 53.7271 80.4188 53.762 80.5723 53.7647C80.7259 53.7674 80.8577 53.737 80.9678 53.6734ZM83.9373 52.3833L83.3976 52.6949L82.4998 52.5928L82.5463 52.8856L82.8068 53.036L82.3602 53.2938L80.8018 52.3941L81.2484 52.1362L81.9206 52.5243L81.8159 51.8086L82.323 51.5158L82.4393 52.2222L83.9373 52.3833ZM73.9083 59.8199L74.1828 59.9783L74.8899 59.5701L75.2784 59.7944L74.5712 60.2026L75.0806 60.4967L74.6341 60.7545L73.0756 59.8548L74.32 59.1363L74.7062 59.3592L73.9083 59.8199ZM77.5476 59.0724L77.0103 59.3826L76.0846 59.3423L76.0241 59.3772L76.5219 59.6646L76.0753 59.9225L74.5168 59.0227L75.3472 58.5433C75.5147 58.4466 75.6977 58.3964 75.8962 58.3929C76.0962 58.3884 76.2745 58.4314 76.4312 58.5218C76.5552 58.5934 76.6289 58.6744 76.6521 58.7649C76.6738 58.8544 76.6444 58.943 76.5637 59.0308L77.5476 59.0724ZM75.6705 59.1731L75.9706 58.9999C76.0326 58.9641 76.0667 58.9265 76.0729 58.8871C76.0776 58.8468 76.0543 58.8119 76.0032 58.7823C75.9535 58.7537 75.8954 58.7416 75.8287 58.7461C75.7605 58.7496 75.6954 58.7693 75.6333 58.8051L75.3333 58.9784L75.6705 59.1731ZM77.2066 57.9129L77.9975 58.3695L78.2603 58.2178L78.6441 58.4394L77.6695 59.002L77.2857 58.7805L77.5485 58.6287L76.7577 58.1721L76.4948 58.3239L76.1111 58.1023L77.0857 57.5396L77.4695 57.7612L77.2066 57.9129ZM77.288 57.4228L77.9462 57.0427C78.2006 56.8959 78.4774 56.8194 78.7766 56.8131C79.0759 56.805 79.3419 56.8681 79.5745 57.0024C79.8071 57.1367 79.9172 57.2907 79.9048 57.4644C79.8924 57.6363 79.759 57.7957 79.5047 57.9425L78.8464 58.3225L77.288 57.4228ZM78.9162 57.8471L79.0953 57.7437C79.224 57.6694 79.2907 57.588 79.2953 57.4993C79.3 57.4107 79.2426 57.3319 79.1232 57.263C79.0038 57.194 78.8674 57.1609 78.7138 57.1636C78.5603 57.1663 78.4192 57.2048 78.2905 57.2791L78.1114 57.3825L78.9162 57.8471ZM82.1387 56.4217L81.6572 56.6997L81.3339 56.6124L80.7199 56.9669L80.8687 57.155L80.3896 57.4316L79.4592 56.1692L79.9523 55.8845L82.1387 56.4217ZM80.8245 56.4741L80.1872 56.3022L80.4826 56.6715L80.8245 56.4741ZM82.0174 54.6922L82.4896 55.6686L82.9664 55.9439L82.5012 56.2124L82.0244 55.9371L80.3543 55.6524L80.8451 55.3691L81.8174 55.5383L81.522 54.9783L82.0174 54.6922ZM83.3535 53.8806C83.538 53.774 83.7287 53.7096 83.9257 53.6872C84.1226 53.6648 84.3071 53.6872 84.4793 53.7543L84.1304 54.0578C84.0482 54.0265 83.9691 54.0149 83.8931 54.0229C83.8171 54.031 83.7528 54.0502 83.7001 54.0807C83.6504 54.1093 83.6217 54.1393 83.614 54.1706C83.6062 54.2002 83.6217 54.2262 83.6605 54.2485C83.7132 54.279 83.7768 54.2808 83.8512 54.2539L84.242 54.1142C84.6126 53.9862 84.915 53.9898 85.1492 54.125C85.2655 54.1921 85.3298 54.2687 85.3422 54.3546C85.3562 54.4397 85.3321 54.5198 85.2701 54.595C85.2081 54.6702 85.1197 54.7409 85.005 54.8072C84.8127 54.9182 84.608 54.9862 84.3909 55.0113C84.1738 55.0364 83.9807 55.0127 83.8117 54.9401L84.1815 54.6272C84.3552 54.6863 84.5126 54.6751 84.6537 54.5937C84.708 54.5623 84.7413 54.5305 84.7537 54.4983C84.7661 54.4661 84.7522 54.4383 84.7119 54.4151C84.6592 54.3846 84.5886 54.3851 84.5002 54.4164L84.1001 54.5588C83.7481 54.685 83.455 54.6805 83.2209 54.5453C83.0612 54.4531 82.996 54.3466 83.0255 54.2257C83.055 54.1048 83.1643 53.9898 83.3535 53.8806ZM87.4766 53.3399L86.9951 53.6179L86.6718 53.5306L86.0577 53.8851L86.2066 54.0731L85.7274 54.3498L84.797 53.0874L85.2901 52.8027L87.4766 53.3399ZM86.1624 53.3923L85.5251 53.2204L85.8205 53.5897L86.1624 53.3923ZM88.4301 52.3462L88.8139 52.5678L87.6323 53.25L86.0739 52.3502L86.5205 52.0924L87.6951 52.7706L88.4301 52.3462ZM89.8933 51.5095L90.2702 51.727L89.0304 52.4428L87.4719 51.5431L88.7024 50.8327L89.0792 51.0502L88.2954 51.5028L88.5256 51.6357L89.2467 51.2194L89.5886 51.4168L88.8676 51.8331L89.1002 51.9674L89.8933 51.5095Z" fill="white"/>
<rect width="7.31664" height="1.55139" rx="0.153477" transform="matrix(0.866025 -0.5 -0.866025 -0.5 70.8334 53.191)" fill="#1F3169"/>
<rect width="16.7899" height="1.03426" rx="0.153477" transform="matrix(0.866025 -0.5 -0.866025 -0.5 78.1812 62.191)" fill="#1F3169"/>
<rect width="15.1304" height="1.03427" rx="0.153477" transform="matrix(0.866025 -0.5 -0.866025 -0.5 80.2544 62.5454)" fill="#1F3169"/>
<rect width="10.51" height="1.03426" rx="0.153477" transform="matrix(0.866025 -0.5 -0.866025 -0.5 83.6051 62.1623)" fill="#1F3169"/>
<rect width="7.20638" height="7.65354" rx="0.153477" transform="matrix(0.866025 -0.5 -0.866025 -0.5 89.7735 72.7209)" fill="#1F3169"/>
<rect width="7.20638" height="7.65354" rx="0.153477" transform="matrix(0.866025 -0.5 -0.866025 -0.5 97.2832 68.3852)" fill="#1F3169"/>
<rect width="7.20638" height="7.65354" rx="0.153477" transform="matrix(0.866025 -0.5 -0.866025 -0.5 104.726 64.0879)" fill="#1F3169"/>
</g>
</g>
<defs>
<filter id="filter0_d" x="28.199" y="-1.33212" width="82.1182" height="55.7044" filterUnits="userSpaceOnUse" color-interpolation-filters="sRGB">
<feFlood flood-opacity="0" result="BackgroundImageFix"/>
<feColorMatrix in="SourceAlpha" type="matrix" values="0 0 0 0 0 0 0 0 0 0 0 0 0 0 0 0 0 0 127 0"/>
<feOffset dx="-2.18026" dy="2.18026"/>
<feGaussianBlur stdDeviation="4.90559"/>
<feColorMatrix type="matrix" values="0 0 0 0 0 0 0 0 0 0 0 0 0 0 0 0 0 0 0.25 0"/>
<feBlend mode="normal" in2="BackgroundImageFix" result="effect1_dropShadow"/>
<feBlend mode="normal" in="SourceGraphic" in2="effect1_dropShadow" result="shape"/>
</filter>

<filter id="filter2_d" x="46.6709" y="34.8826" width="77.6741" height="53.1385" filterUnits="userSpaceOnUse" color-interpolation-filters="sRGB">
<feFlood flood-opacity="0" result="BackgroundImageFix"/>
<feColorMatrix in="SourceAlpha" type="matrix" values="0 0 0 0 0 0 0 0 0 0 0 0 0 0 0 0 0 0 127 0"/>
<feOffset dx="-2.18026" dy="2.18026"/>
<feGaussianBlur stdDeviation="4.90559"/>
<feColorMatrix type="matrix" values="0 0 0 0 0 0 0 0 0 0 0 0 0 0 0 0 0 0 0.25 0"/>
<feBlend mode="normal" in2="BackgroundImageFix" result="effect1_dropShadow"/>
<feBlend mode="normal" in="SourceGraphic" in2="effect1_dropShadow" result="shape"/>
</filter>

<clipPath id="clip0">
<rect width="71.8866" height="83.5217" fill="white" transform="matrix(0.866025 -0.5 0.866025 0.5 5.64309 42)"/>
</clipPath>
</defs>
</svg>
