<svg width="145" height="90" viewBox="0 0 145 90" fill="none" xmlns="http://www.w3.org/2000/svg">
<g clip-path="url(#clip0)">
<rect width="62.2163" height="51.1282" rx="1.79798" transform="matrix(0.866025 -0.5 0.866025 0.5 23.0693 57.8126)" fill="#142960" fill-opacity="0.78"/>
<circle r="0.924004" transform="matrix(0.866025 -0.5 0.866025 0.5 26.8036 57.8126)" fill="#EC665A"/>
<circle r="0.924004" transform="matrix(0.866025 -0.5 0.866025 0.5 29.471 56.2726)" fill="#E0C14C"/>
<circle r="0.924004" transform="matrix(0.866025 -0.5 0.866025 0.5 32.1384 54.7325)" fill="#71BF46"/>
<rect x="0.194637" width="61.9915" height="50.9035" rx="1.68561" transform="matrix(0.866025 -0.5 0.866025 0.5 23.0954 57.9099)" stroke="#305EED" stroke-opacity="0.3" stroke-width="0.224748"/>
<path d="M24.6027 37.0752L24.3388 38.4303C24.2875 38.6937 24.4467 38.9562 24.7713 39.1436L67.1618 63.6178C68.0457 64.1281 69.4787 64.1281 70.3626 63.6178L120.321 34.7744C120.752 34.5253 120.991 34.1861 120.984 33.8338L120.949 32.2611C120.946 32.1475 120.867 32.039 120.728 31.9587L77.4844 6.99188C77.1897 6.82177 76.712 6.82177 76.4174 6.99188L24.8731 36.751C24.7219 36.8383 24.6266 36.9526 24.6027 37.0752Z" fill="#D5DFE9"/>
<path d="M25.4741 37.636C24.8849 37.2958 24.8849 36.7442 25.4741 36.404L75.8831 7.30037C76.4724 6.96016 77.4278 6.96016 78.017 7.30037L120.161 31.6325C120.751 31.9727 120.751 32.5243 120.161 32.8645L69.7524 61.9681C69.1632 62.3083 68.2078 62.3083 67.6185 61.9681L25.4741 37.636Z" fill="#F8FAFD"/>
<path fill-rule="evenodd" clip-rule="evenodd" d="M36.3141 36.492L35.9163 37.2252L35.1519 36.6L33.8232 36.6118L34.6207 35.9957L34.1973 35.2699L35.4545 35.5143L36.5215 35.0539L36.5011 35.821L37.584 36.2624L36.3141 36.492Z" fill="#305EED"/>
<g filter="url(#filter1_i)">
<rect width="60.6607" height="16.6046" rx="0.308001" transform="matrix(0.866025 -0.5 0.866025 0.5 34.1229 42.6187)" fill="#E6EFFA"/>
</g>
<rect width="30.8072" height="2.07558" rx="0.308001" transform="matrix(0.866025 -0.5 0.866025 0.5 40.1682 32.2791)" fill="#E6EFFA"/>
<rect width="6.96262" height="2.07558" rx="0.308001" transform="matrix(0.866025 -0.5 0.866025 0.5 69.739 15.2064)" fill="#E6EFFA"/>
<rect width="14.4975" height="15.3593" rx="0.308001" transform="matrix(0.866025 -0.5 -0.866025 -0.5 71.7298 58.6297)" fill="#E6EFFA"/>
<rect width="14.4975" height="15.3593" rx="0.308001" transform="matrix(0.866025 -0.5 -0.866025 -0.5 86.873 49.9276)" fill="#E6EFFA"/>
<rect width="14.4975" height="15.3593" rx="0.308001" transform="matrix(0.866025 -0.5 -0.866025 -0.5 101.847 41.2823)" fill="#E6EFFA"/>
</g>
<defs>
<filter id="filter0_b" x="6.50497" y="10.1401" width="131.288" height="89.8008" filterUnits="userSpaceOnUse" color-interpolation-filters="sRGB">
<feFlood flood-opacity="0" result="BackgroundImageFix"/>
<feGaussianBlur in="BackgroundImage" stdDeviation="8.28215"/>
<feComposite in2="SourceAlpha" operator="in" result="effect1_backgroundBlur"/>
<feBlend mode="normal" in="SourceGraphic" in2="effect1_backgroundBlur" result="shape"/>
</filter>
<filter id="filter1_i" x="34.2791" y="12.3786" width="66.6012" height="38.4522" filterUnits="userSpaceOnUse" color-interpolation-filters="sRGB">
<feFlood flood-opacity="0" result="BackgroundImageFix"/>
<feBlend mode="normal" in="SourceGraphic" in2="BackgroundImageFix" result="shape"/>
<feColorMatrix in="SourceAlpha" type="matrix" values="0 0 0 0 0 0 0 0 0 0 0 0 0 0 0 0 0 0 127 0" result="hardAlpha"/>
<feOffset dy="0.308001"/>
<feComposite in2="hardAlpha" operator="arithmetic" k2="-1" k3="1"/>
<feColorMatrix type="matrix" values="0 0 0 0 0.823333 0 0 0 0 0.882444 0 0 0 0 0.95 0 0 0 1 0"/>
<feBlend mode="normal" in2="shape" result="effect1_innerShadow"/>
</filter>
<clipPath id="clip0">
<rect width="82.2363" height="71.1483" fill="white" transform="matrix(0.866025 -0.5 0.866025 0.5 5.73135 47.8026)"/>
</clipPath>
</defs>
</svg>
