<svg width="145" height="90" viewBox="0 0 145 90" fill="none" xmlns="http://www.w3.org/2000/svg">
<g filter="url(#filter1_d)">
<g clip-path="url(#clip0)">
<rect width="10.3729" height="10.3729" rx="1.36808" transform="matrix(0.866026 -0.5 0.866025 0.5 15.0284 46)" fill="url(#paint0_linear)"/>
<path d="M25.8823 45.1783C25.9634 45.2262 25.9627 45.3029 25.8806 45.3502C25.7986 45.3976 25.6658 45.398 25.5828 45.3512L24.2362 44.5737C24.1551 44.5258 24.1558 44.4491 24.2379 44.4018C24.3199 44.3544 24.4527 44.354 24.5357 44.4008L25.8823 45.1783ZM26.7672 45.7495C26.7638 45.7743 26.6746 46.3632 25.6577 46.9503C24.6408 47.5374 23.6208 47.5889 23.5778 47.5909C23.4612 47.596 23.3594 47.5456 23.3505 47.4783C23.3415 47.4112 23.4284 47.3524 23.5447 47.3471C23.5609 47.3463 24.4622 47.2948 25.3582 46.7774C26.2656 46.2536 26.3442 45.736 26.3449 45.7308C26.3537 45.6635 26.4556 45.6131 26.5722 45.6183C26.6888 45.6234 26.7761 45.6822 26.7672 45.7495ZM21.2418 46.3025C21.1607 46.2547 21.1614 46.178 21.2434 46.1306C21.3255 46.0832 21.4583 46.0828 21.5413 46.1297L22.8878 46.9071C22.969 46.955 22.9683 47.0317 22.8862 47.0791C22.8042 47.1264 22.6713 47.1269 22.5884 47.08L21.2418 46.3025ZM21.691 45.6974C21.6105 45.6495 21.6115 45.5731 21.6933 45.5259C21.7751 45.4787 21.9074 45.4781 21.9904 45.5246L23.9906 46.6794C24.0712 46.7273 24.0701 46.8037 23.9883 46.8509C23.9065 46.8982 23.7742 46.8988 23.6912 46.8523L21.691 45.6975L21.691 45.6974ZM22.3638 45.2215C22.3241 45.1986 22.3018 45.1675 22.3018 45.1351C22.3018 45.1026 22.3241 45.0716 22.3638 45.0486C22.4035 45.0257 22.4574 45.0128 22.5136 45.0128C22.5697 45.0128 22.6236 45.0257 22.6633 45.0486L24.8342 46.302C24.9154 46.3499 24.9147 46.4266 24.8326 46.474C24.7505 46.5213 24.6177 46.5218 24.5348 46.4749L22.3638 45.2215ZM23.1882 44.833C23.1077 44.7851 23.1087 44.7087 23.1905 44.6615C23.2723 44.6142 23.4046 44.6137 23.4876 44.6602L25.4878 45.815C25.5684 45.8629 25.5673 45.9393 25.4855 45.9865C25.4037 46.0338 25.2714 46.0343 25.1884 45.9878L23.1882 44.833L23.1882 44.833ZM23.4502 43.7309L20.0815 45.6758C19.7714 45.8549 19.7714 46.1451 20.0815 46.3242L23.4502 48.2691C23.7603 48.4481 24.263 48.4481 24.5731 48.2691L27.9418 46.3242C28.2519 46.1451 28.2519 45.8549 27.9418 45.6758L24.5731 43.7309C24.263 43.5519 23.7603 43.5519 23.4502 43.7309Z" fill="#1F8DED"/>
</g>
<rect x="0.179664" width="10.1655" height="10.1655" rx="1.26435" transform="matrix(0.866026 -0.5 0.866025 0.5 15.0525 46.0898)" stroke="url(#paint1_linear)" stroke-width="0.207459"/>
</g>
<rect x="0.118479" width="13.348" height="13.348" rx="1.43649" transform="matrix(0.866026 -0.5 0.866025 0.5 12.3493 46.0592)" stroke="#305EED" stroke-width="0.136808"/>
<g filter="url(#filter3_d)">
<g clip-path="url(#clip1)">
<rect width="10.3729" height="10.3729" rx="1.36808" transform="matrix(0.866026 -0.5 0.866025 0.5 31.1982 36.6644)" fill="url(#paint2_linear)"/>
<g clip-path="url(#clip2)">
<path d="M39.5462 34.4583L36.3623 36.2965C36.0106 36.4996 36.0106 36.8288 36.3623 37.0318L39.5462 38.87C39.8979 39.0731 40.4681 39.0731 40.8197 38.87L44.0036 37.0318C44.3553 36.8288 44.3553 36.4996 44.0036 36.2965L40.8197 34.4583C40.4681 34.2553 39.8979 34.2553 39.5462 34.4583Z" fill="#4F44E0"/>
<path d="M39.7039 37.4916C39.9677 37.3393 39.9677 37.0924 39.7039 36.9401C39.4402 36.7878 39.0125 36.7878 38.7488 36.9401C38.485 37.0924 38.485 37.3393 38.7488 37.4916C39.0125 37.6439 39.4402 37.6439 39.7039 37.4916Z" fill="white"/>
<path d="M40.8184 36.6644C40.9943 36.5628 40.9943 36.3982 40.8184 36.2967C40.6426 36.1952 40.3575 36.1952 40.1817 36.2967C40.0058 36.3982 40.0058 36.5628 40.1817 36.6644C40.3575 36.7659 40.6426 36.7659 40.8184 36.6644Z" fill="white"/>
<path d="M41.6159 36.0214C41.7041 35.9705 41.7041 35.8879 41.6159 35.8369C41.5277 35.786 41.3846 35.786 41.2964 35.8369C41.2082 35.8879 41.2082 35.9705 41.2964 36.0214C41.3846 36.0723 41.5277 36.0723 41.6159 36.0214Z" fill="white"/>
</g>
</g>
<rect x="0.179664" width="10.1655" height="10.1655" rx="1.26435" transform="matrix(0.866026 -0.5 0.866025 0.5 31.2222 36.7542)" stroke="url(#paint3_linear)" stroke-width="0.207459"/>
</g>
<rect x="0.118479" width="13.348" height="13.348" rx="1.43649" transform="matrix(0.866026 -0.5 0.866025 0.5 28.519 36.7236)" stroke="#305EED" stroke-width="0.136808"/>
<g filter="url(#filter5_d)">
<g clip-path="url(#clip3)">
<rect width="10.3729" height="10.3729" rx="1.36808" transform="matrix(0.866026 -0.5 0.866025 0.5 47.3679 27.3288)" fill="url(#paint4_linear)"/>
<path d="M54.1053 26.0322L55.7501 25.0825C56.0817 24.8911 56.6206 24.8911 56.9521 25.0825L58.5969 26.0322L56.3511 27.3288L54.1053 26.0322Z" fill="#45A4FF"/>
<path d="M54.1053 28.6255L56.3512 27.3288L58.597 28.6255L57.0678 29.5083C56.6728 29.7364 56.0309 29.7372 55.6345 29.5083L54.1053 28.6255Z" fill="#2599FE"/>
<path d="M56.3511 27.3288L58.5969 26.0322L60.2657 26.9957C60.5846 27.1798 60.5845 27.4779 60.2657 27.662L58.5969 28.6254L56.3511 27.3288Z" fill="#E7F2FC"/>
<path d="M52.5946 26.9046L54.1054 26.0323L56.3512 27.3289L54.1054 28.6255L52.5945 27.7532C52.1897 27.5195 52.1883 27.1391 52.5946 26.9046Z" fill="#2599FE"/>
</g>
<rect x="0.179664" width="10.1655" height="10.1655" rx="1.26435" transform="matrix(0.866026 -0.5 0.866025 0.5 47.392 27.4187)" stroke="url(#paint5_linear)" stroke-width="0.207459"/>
</g>
<rect x="0.118479" width="13.348" height="13.348" rx="1.43649" transform="matrix(0.866026 -0.5 0.866025 0.5 44.6888 27.3881)" stroke="#305EED" stroke-width="0.136808"/>
<g filter="url(#filter7_d)">
<g clip-path="url(#clip4)">
<rect width="10.3729" height="10.3729" rx="1.36808" transform="matrix(0.866026 -0.5 0.866025 0.5 63.5376 17.9932)" fill="url(#paint6_linear)"/>
<path d="M72.1541 15.6045L71.3359 16.0769C71.2885 16.1047 71.2511 16.1376 71.226 16.1738C71.2008 16.21 71.1884 16.2487 71.1894 16.2878C71.1904 16.3268 71.2049 16.3654 71.2319 16.4012C71.259 16.437 71.2981 16.4694 71.3469 16.4965L75.4797 18.8825L76.6558 18.2035C76.7037 18.1758 76.7416 18.1429 76.7672 18.1066C76.7928 18.0703 76.8056 18.0314 76.8048 17.9922C76.804 17.953 76.7896 17.9143 76.7626 17.8783C76.7355 17.8423 76.6963 17.8097 76.6472 17.7825L72.8833 15.6094C72.8362 15.5811 72.7799 15.5585 72.7175 15.5428C72.6551 15.5272 72.588 15.5189 72.5201 15.5185C72.4522 15.518 72.3848 15.5254 72.322 15.5402C72.2591 15.5549 72.2021 15.5768 72.1541 15.6045Z" fill="#F57C00"/>
<path d="M71.2133 18.1962L72.4002 18.8815L71.3367 19.4955C71.2431 19.5495 71.1907 19.6228 71.1909 19.6993C71.191 19.7759 71.2439 19.8493 71.3377 19.9034L72.1557 20.3757C72.2505 20.4297 72.3778 20.4603 72.5107 20.4609C72.6436 20.4616 72.7716 20.4322 72.8674 20.3792L75.4697 18.8767L72.4009 17.1049L71.2173 17.7883C71.1706 17.8148 71.1335 17.8465 71.1081 17.8813C71.0826 17.9162 71.0693 17.9537 71.0689 17.9915C71.0686 18.0294 71.0811 18.067 71.1059 18.1021C71.1306 18.1372 71.1671 18.1692 71.2133 18.1962Z" fill="#FFC107"/>
<path d="M75.8351 18.6774L76.6558 18.2035C76.7038 18.1759 76.7416 18.1429 76.7672 18.1066C76.7928 18.0704 76.8056 18.0315 76.8048 17.9923C76.804 17.9531 76.7896 17.9143 76.7626 17.8783C76.7355 17.8423 76.6963 17.8097 76.6472 17.7826L75.4804 17.1089L72.4008 17.1049L75.4797 18.8825L75.8351 18.6774Z" fill="url(#paint7_linear)"/>
<path opacity="0.2" d="M71.2453 17.8013L72.4213 17.1223L72.3912 17.1049L71.2152 17.7839C71.1675 17.8106 71.1297 17.8426 71.1037 17.8779C71.0778 17.9132 71.0644 17.9512 71.0643 17.9896C71.0641 18.028 71.0773 18.0661 71.1029 18.1015C71.1286 18.137 71.1662 18.1692 71.2137 18.1962L71.2438 18.2136C71.1969 18.1865 71.1597 18.1543 71.1345 18.119C71.1093 18.0836 71.0965 18.0457 71.0969 18.0074C71.0973 17.9692 71.1108 17.9314 71.1367 17.8963C71.1626 17.8611 71.2004 17.8293 71.2478 17.8027L71.2453 17.8013ZM71.3672 19.5128L72.4307 18.8988L72.4006 18.8814L71.3371 19.4954C71.2435 19.5495 71.1911 19.6228 71.1912 19.6993C71.1914 19.7758 71.2443 19.8492 71.3381 19.9034L71.3682 19.9208C71.2744 19.8666 71.2215 19.7932 71.2214 19.7167C71.2212 19.6402 71.2736 19.5668 71.3672 19.5128ZM72.1545 15.6045L71.3363 16.0769C71.2889 16.1046 71.2515 16.1376 71.2264 16.1738C71.2012 16.21 71.1888 16.2487 71.1898 16.2877C71.1909 16.3268 71.2053 16.3653 71.2323 16.4012C71.2594 16.437 71.2985 16.4694 71.3473 16.4964L71.3775 16.5138C71.2816 16.4585 71.2277 16.3835 71.2275 16.3054C71.2273 16.2272 71.2809 16.1523 71.3764 16.0972L72.1922 15.6262C72.2877 15.571 72.4175 15.5401 72.5528 15.5402C72.6881 15.5403 72.818 15.5715 72.9138 15.6268L72.8837 15.6094C72.8366 15.5811 72.7803 15.5584 72.7179 15.5428C72.6555 15.5272 72.5884 15.5189 72.5205 15.5184C72.4526 15.518 72.3852 15.5254 72.3224 15.5401C72.2596 15.5549 72.2025 15.5768 72.1545 15.6045Z" fill="white"/>
<path opacity="0.2" d="M76.6282 18.1847L72.8498 20.3662C72.7567 20.4199 72.6304 20.4502 72.4985 20.4504C72.3666 20.4505 72.2398 20.4206 72.1457 20.367L72.1758 20.3844C72.2696 20.4386 72.3968 20.4691 72.5293 20.4692C72.6618 20.4693 72.7889 20.439 72.8824 20.385L76.6608 18.2036C76.7085 18.1757 76.746 18.1426 76.7711 18.1062C76.7963 18.0698 76.8086 18.0309 76.8073 17.9917C76.8061 17.9524 76.7913 17.9137 76.7638 17.8778C76.7363 17.8419 76.6967 17.8095 76.6473 17.7825L76.6272 17.771C76.7215 17.8262 76.7745 17.9005 76.7747 17.978C76.7749 18.0554 76.7222 18.1297 76.6282 18.1847Z" fill="#BF360C"/>
<path d="M72.318 17.7952L71.859 18.0602C71.8324 18.0757 71.8114 18.0942 71.7973 18.1145C71.7832 18.1348 71.7762 18.1565 71.7767 18.1783C71.7772 18.2002 71.7853 18.2218 71.8004 18.2418C71.8155 18.2619 71.8373 18.28 71.8646 18.2952L72.4584 18.638L71.7959 19.0205C71.7437 19.0501 71.7138 19.0904 71.7124 19.1327C71.7111 19.1749 71.7386 19.2158 71.7888 19.2466L72.4528 19.6299L71.8548 19.9751C71.8029 20.0055 71.774 20.0465 71.7742 20.0891C71.7745 20.1318 71.804 20.1726 71.8562 20.2028L72.3138 20.467C72.3668 20.4972 72.4381 20.5142 72.5125 20.5145C72.587 20.5149 72.6587 20.4984 72.7124 20.4686L74.8319 19.2449C74.8853 19.2141 74.9154 19.1724 74.9156 19.1288C74.9159 19.0852 74.8863 19.0434 74.8333 19.0124L72.7279 17.7968C72.7015 17.7809 72.67 17.7683 72.6351 17.7596C72.6002 17.7508 72.5626 17.7462 72.5245 17.746C72.4865 17.7458 72.4488 17.7499 72.4135 17.7582C72.3783 17.7665 72.3463 17.7788 72.3194 17.7943L72.318 17.7952Z" fill="url(#paint8_linear)"/>
</g>
<rect x="0.179664" width="10.1655" height="10.1655" rx="1.26435" transform="matrix(0.866026 -0.5 0.866025 0.5 63.5617 18.0831)" stroke="url(#paint9_linear)" stroke-width="0.207459"/>
</g>
<rect x="0.118479" width="13.348" height="13.348" rx="1.43649" transform="matrix(0.866026 -0.5 0.866025 0.5 60.8585 18.0525)" stroke="#305EED" stroke-width="0.136808"/>
<g filter="url(#filter9_d)">
<rect width="10.3729" height="10.3729" rx="1.36808" transform="matrix(0.866026 -0.5 0.866025 0.5 30.8722 55.1475)" fill="url(#paint10_linear)"/>
<path d="M41.0806 53.5277L38.6608 54.9248C38.6097 54.9543 38.6097 55.0022 38.6608 55.0317L38.9276 55.1857C38.9788 55.2153 39.0617 55.2153 39.1129 55.1857L41.5326 53.7887C41.5838 53.7591 41.5838 53.7113 41.5326 53.6817L41.2659 53.5277C41.2147 53.4982 41.1318 53.4982 41.0806 53.5277Z" fill="#52BD94"/>
<path d="M40.5983 55.1104L38.1786 56.5075C38.1274 56.537 38.1274 56.5849 38.1786 56.6145L38.4453 56.7685C38.4965 56.798 38.5795 56.798 38.6306 56.7685L41.0504 55.3714C41.1015 55.3419 41.1015 55.294 41.0504 55.2644L40.7836 55.1104C40.7325 55.0809 40.6495 55.0809 40.5983 55.1104Z" fill="#52BD94"/>
<path d="M37.5782 55.907C37.6341 55.8879 37.6535 55.8466 37.6217 55.8139C37.0261 55.1471 37.4085 54.3281 38.504 53.9245C38.5565 53.9046 38.5728 53.8644 38.5411 53.8331L38.3401 53.6321C38.3236 53.6159 38.2964 53.6042 38.2648 53.5999C38.2331 53.5955 38.1997 53.5988 38.1723 53.609C36.7824 54.1166 36.3017 55.1557 37.0682 55.9958C37.0836 56.012 37.1096 56.0239 37.1404 56.0289C37.1711 56.0339 37.2041 56.0315 37.2318 56.0223L37.5782 55.907Z" fill="#52BD94"/>
<path d="M42.1323 54.3881C42.0754 54.407 42.0555 54.4488 42.0876 54.4819C42.6844 55.1487 42.3025 55.9682 41.2068 56.3721C41.1541 56.392 41.1378 56.4322 41.1697 56.4635L41.3707 56.6628C41.3871 56.6791 41.4143 56.6908 41.4461 56.6952C41.4778 56.6996 41.5113 56.6963 41.5387 56.6861C42.928 56.1782 43.4085 55.1393 42.6426 54.2991C42.6273 54.2829 42.6014 54.2709 42.5706 54.266C42.5398 54.261 42.5069 54.2635 42.4793 54.2728L42.1323 54.3881Z" fill="#52BD94"/>
<path d="M39.8565 53.6615C39.9933 53.5825 39.9933 53.4544 39.8565 53.3754C39.7196 53.2964 39.4978 53.2964 39.3609 53.3754C39.2241 53.4544 39.2241 53.5825 39.3609 53.6615C39.4978 53.7405 39.7196 53.7405 39.8565 53.6615Z" fill="#52BD94"/>
<path d="M40.3504 56.9203C40.4872 56.8413 40.4872 56.7132 40.3504 56.6342C40.2135 56.5552 39.9917 56.5552 39.8548 56.6342C39.7179 56.7132 39.7179 56.8413 39.8548 56.9203C39.9917 56.9993 40.2135 56.9993 40.3504 56.9203Z" fill="#52BD94"/>
<rect x="0.179664" width="10.1655" height="10.1655" rx="1.26435" transform="matrix(0.866026 -0.5 0.866025 0.5 30.8963 55.2373)" stroke="url(#paint11_linear)" stroke-width="0.207459"/>
</g>
<rect x="0.118479" width="13.348" height="13.348" rx="1.43649" transform="matrix(0.866026 -0.5 0.866025 0.5 28.1932 55.2068)" stroke="#305EED" stroke-width="0.136808"/>
<g filter="url(#filter11_d)">
<rect width="10.3729" height="10.3729" rx="1.36808" transform="matrix(0.866026 -0.5 0.866025 0.5 47.042 45.8118)" fill="url(#paint12_linear)"/>
<path d="M56.6341 47.5832L53.9647 47.1702C53.8221 47.1481 53.7106 47.0838 53.6724 47.0015L52.9572 45.4603C52.919 45.3781 52.9597 45.2903 53.0637 45.2301L55.0188 44.1013C55.1231 44.0417 55.2746 44.0185 55.4165 44.0404L58.0857 44.4535C58.2283 44.4755 58.3398 44.5398 58.3779 44.6222L59.0932 46.1634C59.1314 46.2456 59.0908 46.3333 58.9867 46.3936L57.0321 47.5221C56.9277 47.5819 56.7761 47.6052 56.6339 47.5833L56.6341 47.5832Z" fill="#4386FA"/>
<path opacity="0.1" d="M56.0906 45.1448C56.0906 45.1448 57.0137 45.3642 57.0128 45.7911C57.0118 46.2181 56.1012 46.4709 56.1012 46.4709L58.8479 46.4731L58.9872 46.3927C59.0913 46.3324 59.1319 46.2447 59.0937 46.1625L58.6205 45.1425L56.0906 45.1448Z" fill="black"/>
<path d="M57.7445 45.7293L57.1448 45.7289C57.1382 45.7289 57.1316 45.7294 57.1253 45.7304C57.0886 45.5622 56.9422 45.4083 56.7158 45.3002C56.4895 45.1921 56.2003 45.1379 55.9071 45.1486C55.6139 45.1593 55.3389 45.2342 55.138 45.3579C54.9371 45.4816 54.8254 45.6449 54.8258 45.8145C54.8261 45.9841 54.9385 46.1472 55.1399 46.2707C55.3414 46.3941 55.6167 46.4686 55.9099 46.4789C56.2032 46.4892 56.4921 46.4346 56.718 46.3261C56.9439 46.2177 57.0897 46.0636 57.1257 45.8953C57.1317 45.8963 57.1379 45.8968 57.1441 45.8968H57.7445C57.7621 45.8968 57.779 45.8928 57.7914 45.8856C57.8039 45.8784 57.8109 45.8686 57.8109 45.8584L57.8109 45.7677C57.8109 45.7575 57.8039 45.7477 57.7914 45.7406C57.779 45.7334 57.7621 45.7293 57.7445 45.7293ZM56.594 46.1694C56.4725 46.2395 56.3178 46.2873 56.1493 46.3066C55.9808 46.326 55.8062 46.3161 55.6475 46.2781C55.4888 46.2402 55.3532 46.1759 55.2577 46.0935C55.1623 46.011 55.1114 45.9141 55.1114 45.8149C55.1114 45.7157 55.1623 45.6188 55.2577 45.5363C55.3532 45.4539 55.4888 45.3896 55.6475 45.3516C55.8062 45.3137 55.9808 45.3038 56.1493 45.3231C56.3178 45.3425 56.4725 45.3902 56.594 45.4604C56.7568 45.5544 56.8483 45.6819 56.8483 45.8149C56.8483 45.9478 56.7568 46.0754 56.594 46.1694ZM55.5547 46.0226L55.8084 46.1691C55.9165 46.1864 56.0306 46.1869 56.1392 46.1706L55.7172 45.927L55.5547 46.0226ZM55.6513 45.7238L56.3371 46.1198C56.4013 46.0942 56.4569 46.0621 56.5012 46.0251L55.8154 45.6291L55.6513 45.7238ZM56.5896 45.7174L56.4393 45.6306L56.2753 45.7253L56.5912 45.9076C56.6195 45.8451 56.6187 45.7793 56.5891 45.7169L56.5896 45.7174Z" fill="white"/>
<rect x="0.179664" width="10.1655" height="10.1655" rx="1.26435" transform="matrix(0.866026 -0.5 0.866025 0.5 47.0661 45.9017)" stroke="url(#paint13_linear)" stroke-width="0.207459"/>
</g>
<rect x="0.118479" width="13.348" height="13.348" rx="1.43649" transform="matrix(0.866026 -0.5 0.866025 0.5 44.3629 45.8711)" stroke="#305EED" stroke-width="0.136808"/>
<g filter="url(#filter13_d)">
<g clip-path="url(#clip5)">
<rect width="10.3729" height="10.3729" rx="1.36808" transform="matrix(0.866026 -0.5 0.866025 0.5 63.2117 36.4763)" fill="url(#paint14_linear)"/>
<path d="M70.9799 38.2609L69.8864 35.9051L71.9277 35.5893L73.0214 37.9451L70.9799 38.2609Z" fill="#FBBC04"/>
<path d="M75.2645 35.7769L71.1823 35.1456C70.6245 35.0463 70.0331 35.2268 69.8611 35.5488C69.6892 35.8709 70.002 36.2122 70.5596 36.3116C70.584 36.316 70.6087 36.3198 70.6337 36.3232L74.7159 36.9545C75.2776 37.046 75.8615 36.8573 76.02 36.5331C76.1785 36.2088 75.8517 35.8717 75.2901 35.7802C75.2809 35.7787 75.2719 35.7773 75.2629 35.7759L75.2645 35.7769Z" fill="#4285F4"/>
<path d="M72.7494 38.5269C73.1621 38.2886 73.1621 37.9023 72.7494 37.6641C72.3368 37.4258 71.6677 37.4258 71.255 37.6641C70.8424 37.9023 70.8424 38.2886 71.255 38.5269C71.6677 38.7651 72.3368 38.7651 72.7494 38.5269Z" fill="#34A853"/>
</g>
<rect x="0.179664" width="10.1655" height="10.1655" rx="1.26435" transform="matrix(0.866026 -0.5 0.866025 0.5 63.2358 36.5661)" stroke="url(#paint15_linear)" stroke-width="0.207459"/>
</g>
<rect x="0.118479" width="13.348" height="13.348" rx="1.43649" transform="matrix(0.866026 -0.5 0.866025 0.5 60.5326 36.5355)" stroke="#305EED" stroke-width="0.136808"/>
<g filter="url(#filter15_d)">
<rect width="10.3729" height="10.3729" rx="1.36808" transform="matrix(0.866026 -0.5 0.866025 0.5 79.3814 27.1407)" fill="url(#paint16_linear)"/>
<path d="M89.4407 27.7619L91.517 26.9884L88.6202 25.3159L87.2804 26.5147L89.4407 27.7619Z" fill="#E56A68"/>
<path d="M88.6203 25.3159L89.0929 25.2131L91.695 26.7155L91.517 26.9884L88.6203 25.3159ZM89.4407 27.7619L88.1009 28.9607L85.2041 27.2882L87.2804 26.5147L89.4407 27.7619Z" fill="#CC5E5C"/>
<path d="M85.2042 27.2882L85.0261 27.5611L87.6282 29.0635L88.1009 28.9607L85.2042 27.2882Z" fill="#E86D6B"/>
<path d="M90.8319 28.0641L91.188 27.5184L87.7104 25.5106L86.7651 25.7162L88.4973 26.946L90.8319 28.0641Z" fill="#CD5F5D"/>
<path d="M89.9641 28.5651L89.0189 28.7707L85.5412 26.7629L85.8973 26.2172L88.0274 27.2173L89.9641 28.5651Z" fill="#E86D6B"/>
<path d="M85.8973 26.2172L86.7739 25.7111L90.8325 28.0543L89.9559 28.5604L85.8973 26.2172Z" fill="#DE6664"/>
<rect x="0.179664" width="10.1655" height="10.1655" rx="1.26435" transform="matrix(0.866026 -0.5 0.866025 0.5 79.4055 27.2305)" stroke="url(#paint17_linear)" stroke-width="0.207459"/>
</g>
<rect x="0.118479" width="13.348" height="13.348" rx="1.43649" transform="matrix(0.866026 -0.5 0.866025 0.5 76.7024 27.1999)" stroke="#305EED" stroke-width="0.136808"/>
<g filter="url(#filter17_d)">
<rect width="10.3729" height="10.3729" rx="1.36808" transform="matrix(0.866026 -0.5 0.866025 0.5 46.7163 64.295)" fill="url(#paint18_linear)"/>
<mask id="mask0" mask-type="alpha" maskUnits="userSpaceOnUse" x="51" y="62" width="9" height="5">
<path d="M51.8944 64.6829L56.3713 62.0982L59.5046 63.9072L55.0277 66.4919L51.8944 64.6829Z" fill="white"/>
</mask>
<g mask="url(#mask0)">
<path fill-rule="evenodd" clip-rule="evenodd" d="M54.0987 63.805C54.0926 63.6347 54.2004 63.4647 54.4227 63.3364C54.7183 63.1657 55.141 63.112 55.523 63.174C55.591 63.0714 55.6958 62.9782 55.8305 62.9006C56.3636 62.5928 57.2318 62.595 57.7697 62.9055C58.3075 63.216 58.3113 63.7173 57.7782 64.0251C57.7131 64.0627 57.6429 64.0956 57.569 64.124C57.6638 64.3183 57.5791 64.5355 57.3146 64.6882C57.2077 64.7501 57.0778 64.797 56.9348 64.8255C57.1006 65.0627 57.0171 65.3444 56.6843 65.5366C56.3375 65.7368 55.8227 65.7807 55.4017 65.6685C55.3619 65.7039 55.3157 65.7367 55.2641 65.7665C54.8513 66.0048 54.1786 66.0028 53.7615 65.762C53.482 65.6006 53.3883 65.3729 53.4811 65.1686C53.3248 65.133 53.1829 65.0791 53.0642 65.0104C52.5845 64.7335 52.585 64.2842 53.0653 64.0069C53.3473 63.844 53.732 63.7767 54.0987 63.805Z" fill="#00A1E0"/>
<path fill-rule="evenodd" clip-rule="evenodd" d="M54.1674 65.2474C54.172 65.2533 54.1773 65.2519 54.1795 65.2522C54.194 65.2508 54.207 65.2484 54.2205 65.2463C54.2904 65.2339 54.3406 65.2131 54.3857 65.1871C54.4775 65.134 54.4858 65.0729 54.4071 65.0275L54.4056 65.0266C54.3329 64.9846 54.242 65.0066 54.1626 65.0304L54.1522 65.0335C54.0919 65.0512 54.0398 65.0665 54.0098 65.0492L54.0083 65.0483C53.9826 65.0335 53.9867 65.0093 54.0223 64.9888C54.0618 64.966 54.1219 64.9465 54.1688 64.9387C54.1688 64.9387 54.1835 64.9368 54.1781 64.93C54.1752 64.9263 54.1493 64.8937 54.1465 64.8902C54.1434 64.8864 54.1367 64.8861 54.1317 64.8868C54.0761 64.8946 54.0141 64.9139 53.9648 64.9424L53.9556 64.9477C53.8715 64.9962 53.8637 65.0595 53.9364 65.1015L53.938 65.1024C54.0147 65.1466 54.1044 65.1236 54.1823 65.0986L54.1951 65.0947C54.2528 65.0771 54.3027 65.0618 54.3338 65.0797L54.3353 65.0806C54.3638 65.0971 54.3601 65.1236 54.3202 65.1466C54.3047 65.1556 54.255 65.184 54.1679 65.1953C54.1576 65.1968 54.1512 65.1974 54.1432 65.1985C54.139 65.1991 54.1295 65.2013 54.1353 65.2079L54.1674 65.2474ZM55.5121 64.471C55.5166 64.4769 55.522 64.4756 55.5242 64.4758C55.5387 64.4745 55.5517 64.4721 55.5652 64.47C55.6351 64.4576 55.6853 64.4367 55.7304 64.4107C55.8222 64.3577 55.8305 64.2965 55.7518 64.2511L55.7503 64.2502C55.6776 64.2083 55.5867 64.2302 55.5073 64.254L55.4969 64.2571C55.4366 64.2749 55.3845 64.2902 55.3545 64.2729L55.3529 64.272C55.3273 64.2571 55.3314 64.233 55.367 64.2124C55.4065 64.1896 55.4665 64.1701 55.5135 64.1623C55.5135 64.1623 55.5282 64.1605 55.5228 64.1536C55.5199 64.1499 55.494 64.1173 55.4912 64.1138C55.4881 64.11 55.4814 64.1097 55.4764 64.1104C55.4208 64.1182 55.3588 64.1375 55.3095 64.166L55.3003 64.1713C55.2163 64.2198 55.2084 64.2831 55.2811 64.3251L55.2827 64.326C55.3594 64.3703 55.449 64.3473 55.527 64.3222L55.5398 64.3184C55.5975 64.3007 55.6474 64.2854 55.6785 64.3034L55.68 64.3043C55.7085 64.3207 55.7048 64.3472 55.6649 64.3703C55.6494 64.3792 55.5997 64.4076 55.5126 64.4189C55.5023 64.4205 55.4959 64.4212 55.4879 64.4222C55.4852 64.4225 55.4744 64.4253 55.48 64.4315L55.5121 64.471ZM56.276 63.8521C56.3205 63.8777 56.3472 63.9028 56.3557 63.9265C56.364 63.95 56.3515 63.971 56.3174 63.9906C56.2834 64.0103 56.2471 64.0175 56.2067 64.0125C56.1659 64.0075 56.1227 63.992 56.0782 63.9663C56.0338 63.9407 56.007 63.9158 55.9986 63.8924C55.9903 63.8692 56.0028 63.8483 56.0369 63.8287C56.071 63.809 56.1072 63.8017 56.1476 63.8064C56.1884 63.8111 56.2317 63.8265 56.276 63.8521ZM56.2704 63.7603C56.2373 63.7499 56.2032 63.7437 56.1689 63.7419C56.1344 63.7401 56.0996 63.7429 56.0652 63.7501C56.0308 63.7573 55.9976 63.7701 55.9665 63.788C55.9354 63.806 55.9133 63.8252 55.9008 63.845C55.8883 63.8648 55.8836 63.885 55.8867 63.9049C55.8898 63.9247 55.9005 63.9444 55.9184 63.9635C55.9362 63.9824 55.9601 64.0006 55.9895 64.0175C56.0189 64.0345 56.0504 64.0483 56.0832 64.0586C56.1161 64.0689 56.1503 64.0751 56.1847 64.0769C56.2191 64.0787 56.2539 64.0759 56.288 64.0685C56.3221 64.0611 56.3552 64.0483 56.3863 64.0304C56.4174 64.0124 56.4395 63.9933 56.4523 63.9736C56.4651 63.954 56.47 63.9339 56.4668 63.914C56.4638 63.8942 56.453 63.8744 56.4351 63.8554C56.4173 63.8365 56.3934 63.8183 56.364 63.8013C56.3347 63.7844 56.3031 63.7705 56.2704 63.7603ZM57.1111 63.5187C57.1011 63.5158 57.0967 63.5216 57.0967 63.5216C57.0898 63.5305 57.0819 63.5396 57.0712 63.5481C57.0605 63.5566 57.0473 63.5654 57.0322 63.5741C56.9951 63.5955 56.9546 63.6062 56.9117 63.6058C56.8687 63.6054 56.8215 63.5919 56.7739 63.5642C56.7307 63.5391 56.7085 63.5142 56.7024 63.489C56.6963 63.4639 56.7121 63.4401 56.75 63.4182C56.7816 63.4 56.8094 63.3882 56.8427 63.3781C56.8427 63.3781 56.8513 63.3762 56.8462 63.37C56.8343 63.3553 56.826 63.3448 56.8127 63.3288C56.8089 63.3243 56.8015 63.3257 56.7989 63.3264C56.7851 63.3299 56.7553 63.3397 56.7349 63.3484C56.7158 63.3565 56.6951 63.367 56.6735 63.3794C56.6413 63.398 56.6181 63.4178 56.6045 63.4383C56.5909 63.4587 56.5852 63.4794 56.5874 63.4997C56.5897 63.5201 56.5996 63.5403 56.6168 63.5597C56.6338 63.5791 56.6573 63.5976 56.6868 63.6146C56.7504 63.6513 56.8189 63.6711 56.8904 63.6733C56.9621 63.6755 57.0323 63.6571 57.0987 63.6187C57.138 63.5961 57.1704 63.5682 57.188 63.5449C57.188 63.5449 57.1908 63.5401 57.182 63.5378L57.1111 63.5187ZM57.0739 63.3423C57.0529 63.3259 57.0391 63.3101 57.0336 63.2948C57.0253 63.2716 57.0361 63.2499 57.0702 63.2302C57.1043 63.2105 57.1401 63.2053 57.1806 63.21C57.2073 63.2131 57.2334 63.2227 57.259 63.2354L57.0739 63.3423ZM57.2778 63.1619C57.2467 63.1515 57.2058 63.1465 57.1838 63.146C57.1491 63.1453 57.1202 63.1474 57.097 63.1528C57.0635 63.1606 57.0331 63.1722 57.0076 63.187C56.9752 63.2057 56.9512 63.2258 56.9385 63.2461C56.9258 63.2664 56.9211 63.2868 56.9244 63.3069C56.9277 63.327 56.9385 63.3469 56.9566 63.3661C56.9746 63.3852 56.9986 63.4035 57.0281 63.4205C57.058 63.4378 57.0898 63.4516 57.1227 63.4616C57.1559 63.4716 57.1907 63.4771 57.2263 63.4779C57.2619 63.4788 57.2984 63.4745 57.3348 63.4652C57.371 63.456 57.408 63.4407 57.4442 63.4196C57.519 63.3762 57.5417 63.3437 57.549 63.3291C57.5502 63.3266 57.5502 63.3234 57.5388 63.3207L57.4743 63.3031C57.4646 63.3005 57.46 63.3061 57.46 63.3061C57.4483 63.3209 57.4344 63.3432 57.3726 63.3787C57.3323 63.4019 57.2906 63.4123 57.2533 63.4124C57.2151 63.4124 57.1778 63.4018 57.1368 63.3799L57.3965 63.2302C57.3965 63.2302 57.4033 63.2262 57.3973 63.222C57.3948 63.2202 57.3529 63.1861 57.2778 63.1619ZM54.9953 64.5424C54.9742 64.526 54.9605 64.5102 54.955 64.4949C54.9467 64.4717 54.9575 64.45 54.9916 64.4303C55.0257 64.4106 55.0615 64.4054 55.102 64.4101C55.1287 64.4132 55.1548 64.4228 55.1804 64.4355L54.9953 64.5424ZM55.1992 64.362C55.1681 64.3516 55.1271 64.3466 55.1052 64.3461C55.0705 64.3453 55.0416 64.3475 55.0184 64.3529C54.9849 64.3607 54.9545 64.3723 54.929 64.3871C54.8966 64.4058 54.8726 64.4259 54.8599 64.4462C54.8472 64.4664 54.8425 64.4869 54.8458 64.507C54.849 64.5271 54.8599 64.547 54.878 64.5662C54.896 64.5853 54.92 64.6036 54.9495 64.6206C54.9794 64.6379 55.0112 64.6517 55.0441 64.6616C55.0773 64.6717 55.1121 64.6772 55.1476 64.678C55.1833 64.6789 55.2198 64.6746 55.2561 64.6653C55.2924 64.656 55.3293 64.6408 55.3656 64.6197C55.4403 64.5763 55.4631 64.5438 55.4704 64.5292C55.4716 64.5267 55.4716 64.5235 55.4601 64.5208L55.3957 64.5032C55.386 64.5006 55.3814 64.5062 55.3814 64.5062C55.3697 64.521 55.3558 64.5433 55.294 64.5788C55.2537 64.602 55.212 64.6124 55.1747 64.6124C55.1365 64.6125 55.0992 64.6019 55.0582 64.58L55.3179 64.4303C55.3179 64.4303 55.3247 64.4263 55.3187 64.4221C55.3162 64.4203 55.2743 64.3861 55.1992 64.362ZM54.6042 64.9644C54.5859 64.9656 54.5825 64.9652 54.5739 64.9641C54.5608 64.9625 54.5468 64.9575 54.5323 64.9491C54.5095 64.936 54.5007 64.9221 54.5053 64.9068C54.5051 64.9069 54.5082 64.8826 54.5618 64.8525C54.5858 64.8391 54.6113 64.8267 54.6382 64.8153L54.7562 64.8834L54.7562 64.8833C54.7562 64.8833 54.7304 64.9065 54.6955 64.9292C54.6458 64.9615 54.604 64.9644 54.6042 64.9644ZM54.5251 64.7994C54.5138 64.8051 54.4998 64.8127 54.4834 64.8222C54.4612 64.835 54.4425 64.849 54.4277 64.8638C54.4129 64.8787 54.4031 64.8941 54.3987 64.9096C54.3942 64.9251 54.3959 64.941 54.4038 64.9561C54.4117 64.9713 54.4272 64.9856 54.4497 64.9986C54.4728 65.0119 54.4967 65.0211 54.5209 65.0259C54.5448 65.0308 54.5704 65.0322 54.5954 65.0299C54.6203 65.0276 54.6458 65.0218 54.6711 65.0126C54.6962 65.0035 54.7216 64.9915 54.7469 64.9769C54.7735 64.9615 54.7978 64.9449 54.8191 64.9276C54.8373 64.9128 54.8548 64.8978 54.8718 64.8825C54.8785 64.8764 54.8854 64.8694 54.8854 64.8694C54.8902 64.8647 54.8828 64.8611 54.8828 64.8611L54.6453 64.7241C54.5933 64.6941 54.5408 64.6798 54.4895 64.6818C54.4384 64.6837 54.3863 64.6999 54.3344 64.7299C54.315 64.7411 54.2863 64.7607 54.2713 64.7737C54.2713 64.7737 54.2256 64.8128 54.2205 64.8368C54.2205 64.8368 54.2186 64.8416 54.2285 64.8441L54.2963 64.862C54.3049 64.8644 54.309 64.8595 54.309 64.8595C54.309 64.8595 54.3102 64.8579 54.3111 64.8558C54.3339 64.8113 54.3979 64.7753 54.3979 64.7753C54.4259 64.7591 54.4532 64.7499 54.4788 64.748C54.5038 64.7461 54.5274 64.7514 54.562 64.7714L54.573 64.7777C54.5475 64.7887 54.5251 64.7994 54.5251 64.7994ZM56.4848 63.5136C56.4843 63.5129 56.4835 63.5123 56.4826 63.5117C56.4817 63.5112 56.4805 63.5107 56.4793 63.5104C56.4781 63.5102 56.4767 63.51 56.4754 63.51C56.4741 63.51 56.4728 63.5102 56.4715 63.5105C56.4654 63.5121 56.4387 63.5221 56.4206 63.5313C56.386 63.549 56.3734 63.5626 56.3645 63.5762C56.3556 63.5897 56.3496 63.6067 56.353 63.6202L56.3213 63.6019C56.317 63.5994 56.3104 63.5992 56.306 63.6017L56.2395 63.6401C56.2352 63.6426 56.2355 63.6464 56.2399 63.649L56.627 63.8725C56.6291 63.8737 56.632 63.8744 56.6349 63.8744C56.6379 63.8744 56.6407 63.8737 56.6428 63.8725L56.711 63.8331C56.7131 63.8319 56.7143 63.8303 56.7143 63.8286C56.7142 63.8269 56.7131 63.8252 56.711 63.824L56.5176 63.7124C56.4916 63.6974 56.4686 63.6808 56.458 63.6681C56.4475 63.6555 56.4424 63.6437 56.4426 63.6329C56.4427 63.6226 56.4471 63.6124 56.4554 63.6033C56.4634 63.5949 56.4735 63.5871 56.4853 63.5803C56.4989 63.5725 56.5173 63.5659 56.5173 63.5659C56.5228 63.5633 56.5226 63.5599 56.5198 63.5564C56.5124 63.5469 56.4894 63.5191 56.4848 63.5136Z" fill="#FFFFFE"/>
<path fill-rule="evenodd" clip-rule="evenodd" d="M55.6652 63.7796C55.6543 63.783 55.6437 63.7867 55.6335 63.7909C55.6199 63.7965 55.6072 63.8028 55.5955 63.8097C55.5486 63.8368 55.5248 63.8658 55.525 63.8959C55.5252 63.9258 55.5473 63.9588 55.5906 63.994L55.605 64.006L55.5461 64.04C55.5461 64.04 55.5386 64.044 55.5449 64.0494L55.5892 64.0861C55.5937 64.0895 55.5992 64.0901 55.606 64.086L55.6634 64.0529L55.93 64.2741C55.9516 64.2918 55.9679 64.3072 55.9785 64.32C55.9889 64.3326 55.9954 64.3427 55.9973 64.3517C55.9991 64.3605 55.9991 64.3677 55.9918 64.3761C55.9859 64.383 55.977 64.3897 55.9657 64.3962C55.9594 64.3998 55.95 64.4041 55.9426 64.4069C55.9352 64.4098 55.9306 64.4108 55.9241 64.4124C55.9241 64.4124 55.9148 64.4148 55.9189 64.4202C55.9222 64.4246 55.949 64.4577 55.9524 64.4618C55.9557 64.4658 55.9623 64.4666 55.9667 64.4654C55.9771 64.4626 55.9845 64.4603 55.9973 64.4558C56.0152 64.4494 56.0276 64.4425 56.039 64.4359C56.0629 64.4221 56.0813 64.4076 56.0928 64.3934C56.1044 64.3791 56.1088 64.3634 56.1073 64.3464C56.1057 64.328 56.0977 64.3124 56.083 64.2934C56.0683 64.2746 56.0467 64.2532 56.0186 64.2299L55.7462 64.0051L55.8317 63.9558C55.8317 63.9558 55.8392 63.9518 55.8328 63.9464L55.7886 63.9096C55.7841 63.9063 55.7786 63.9057 55.7717 63.9097L55.6888 63.9576C55.6873 63.9563 55.6619 63.9373 55.6439 63.9159C55.6363 63.9068 55.6344 63.8969 55.6344 63.8894C55.6343 63.8823 55.6371 63.8753 55.6426 63.869C55.6489 63.8622 55.6569 63.856 55.6665 63.8506C55.6743 63.8461 55.6829 63.8422 55.69 63.8396C55.6997 63.8359 55.7037 63.8346 55.7065 63.8338C55.7175 63.8304 55.7161 63.8283 55.7137 63.825L55.6791 63.7821C55.6752 63.7775 55.6678 63.7789 55.6652 63.7796ZM55.0671 64.7731C55.0714 64.7756 55.0719 64.7794 55.0675 64.7819L54.9987 64.8217C54.9943 64.8242 54.9877 64.8239 54.9834 64.8214L54.4294 64.5016C54.4251 64.4991 54.4247 64.4953 54.429 64.4928L54.4979 64.4531C54.5022 64.4505 54.5088 64.4508 54.5131 64.4533L55.0671 64.7731Z" fill="#FFFFFE"/>
</g>
<rect x="0.179664" width="10.1655" height="10.1655" rx="1.26435" transform="matrix(0.866026 -0.5 0.866025 0.5 46.7403 64.3848)" stroke="url(#paint19_linear)" stroke-width="0.207459"/>
</g>
<rect x="0.118479" width="13.348" height="13.348" rx="1.43649" transform="matrix(0.866026 -0.5 0.866025 0.5 44.0371 64.3542)" stroke="#305EED" stroke-width="0.136808"/>
<g filter="url(#filter19_d)">
<rect width="10.3729" height="10.3729" rx="1.36808" transform="matrix(0.866026 -0.5 0.866025 0.5 62.8861 54.9594)" fill="url(#paint20_linear)"/>
<path d="M73.633 53.8114C73.3621 53.7706 73.0775 53.7711 72.8071 53.813C72.6001 53.8446 72.4164 53.8949 72.2427 53.9711L71.6954 53.6551C71.7388 53.5946 71.7498 53.5279 71.7269 53.4638C71.704 53.3996 71.6483 53.3409 71.5669 53.2952C71.513 53.2638 71.4489 53.2388 71.3782 53.2217C71.3075 53.2046 71.2317 53.1958 71.1551 53.1957C71.0785 53.1956 71.0026 53.2042 70.9318 53.2211C70.8609 53.238 70.7966 53.2627 70.7424 53.294C70.6327 53.3574 70.5709 53.4433 70.5707 53.5329C70.5704 53.6225 70.6317 53.7085 70.741 53.772C70.909 53.869 71.1413 53.9002 71.3593 53.8492L71.9034 54.1634C71.7949 54.2472 71.7104 54.3406 71.6533 54.44L69.079 54.6453C69.0506 54.617 69.0194 54.5888 68.9772 54.5644C68.7243 54.4184 68.3145 54.4184 68.0616 54.5644C67.8087 54.7104 67.809 54.9469 68.0619 55.0929C68.3148 55.2389 68.7247 55.2389 68.9776 55.0929C69.0639 55.043 69.1184 54.9823 69.1458 54.9186L69.3144 54.9051L71.5762 54.6934C71.5703 54.7704 71.5782 54.8497 71.608 54.9267C71.6694 55.0832 71.788 55.2256 71.9874 55.3408L72.0285 55.3645C72.1642 55.4424 72.3227 55.5057 72.4966 55.5517C72.6447 55.5913 72.8016 55.6146 72.963 55.6243L72.9641 56.129C72.7869 56.1759 72.6738 56.278 72.6738 56.3908C72.6735 56.4674 72.7262 56.541 72.8205 56.595C72.9147 56.649 73.0408 56.6794 73.1745 56.6794C73.3081 56.6794 73.4346 56.6492 73.5285 56.595C73.6224 56.5408 73.6755 56.4674 73.6748 56.3906C73.6741 56.3138 73.6224 56.2404 73.5281 56.1864C73.4921 56.1656 73.4507 56.1481 73.4054 56.1346L73.4054 55.6138C73.51 55.6029 73.6128 55.5851 73.7156 55.5614C73.9284 55.5135 74.1217 55.4406 74.2834 55.3475L74.3143 55.3297C74.5034 55.2205 74.6374 55.0917 74.7142 54.9425C74.7941 54.7897 74.8024 54.6275 74.7385 54.4722C74.6758 54.3145 74.5473 54.1739 74.3427 54.0557L74.3324 54.0498C74.1313 53.9337 73.8993 53.8535 73.632 53.8116L73.633 53.8114ZM74.0288 54.6758C74.0425 54.825 73.9856 54.9548 73.8266 55.0466L73.7964 55.064C73.7056 55.1164 73.5915 55.1534 73.4589 55.177C73.3144 55.2033 73.1605 55.2075 73.0124 55.189C72.8602 55.174 72.7286 55.1376 72.6255 55.078L72.5946 55.0602C72.4932 55.0017 72.4164 54.9348 72.3746 54.8541C72.3243 54.7644 72.3215 54.681 72.3544 54.5911C72.3873 54.5013 72.4548 54.4283 72.5652 54.3646L72.5755 54.3587C72.6748 54.3013 72.7893 54.2578 72.924 54.2326C73.0617 54.2079 73.2081 54.2039 73.3492 54.221C73.4901 54.2385 73.6217 54.275 73.7334 54.3276L73.7999 54.3632C73.9394 54.4437 74.0151 54.5492 74.0257 54.6784L74.0288 54.6758Z" fill="#F8761F"/>
<rect x="0.179664" width="10.1655" height="10.1655" rx="1.26435" transform="matrix(0.866026 -0.5 0.866025 0.5 62.9101 55.0492)" stroke="url(#paint21_linear)" stroke-width="0.207459"/>
</g>
<rect x="0.118479" width="13.348" height="13.348" rx="1.43649" transform="matrix(0.866026 -0.5 0.866025 0.5 60.2069 55.0187)" stroke="#305EED" stroke-width="0.136808"/>
<g filter="url(#filter21_d)">
<g clip-path="url(#clip6)">
<rect width="10.3729" height="10.3729" rx="1.36808" transform="matrix(0.866026 -0.5 0.866025 0.5 79.0558 45.6238)" fill="url(#paint22_linear)"/>
<path d="M87.7895 43.1747L83.7969 45.4798C83.6589 45.5594 83.6592 45.6884 83.7969 45.7679L87.7895 48.073C87.9272 48.1525 88.1506 48.1527 88.2885 48.073L90.4383 46.8319L88.7015 45.8291L88.1181 46.166L87.4381 45.7734L88.0215 45.4366L87.5225 45.1484C86.9423 44.8135 86.9805 44.4263 87.4995 44.1267C87.6734 44.0257 87.8571 43.93 88.049 43.8403L88.6529 44.1889L88.2948 44.3957C88.0133 44.5582 88.0927 44.6674 88.289 44.7808L88.722 45.0307L89.395 44.6422L89.9876 45.0852L89.4017 45.4234L91.1397 46.4269L92.2811 45.7679C92.4191 45.6882 92.4188 45.5593 92.2811 45.4798L88.2885 43.1747C88.1508 43.0952 87.9275 43.095 87.7895 43.1747Z" fill="#4267B2"/>
</g>
<rect x="0.179664" width="10.1655" height="10.1655" rx="1.26435" transform="matrix(0.866026 -0.5 0.866025 0.5 79.0798 45.7137)" stroke="url(#paint23_linear)" stroke-width="0.207459"/>
</g>
<rect x="0.118479" width="13.348" height="13.348" rx="1.43649" transform="matrix(0.866026 -0.5 0.866025 0.5 76.3767 45.683)" stroke="#305EED" stroke-width="0.136808"/>
<g filter="url(#filter23_d)">
<rect width="10.3729" height="10.3729" rx="1.36808" transform="matrix(0.866026 -0.5 0.866025 0.5 95.2255 36.2882)" fill="url(#paint24_linear)"/>
<path d="M104.314 36.5992C104.005 36.378 103.944 36.088 104.201 35.9395C104.458 35.791 104.879 35.8735 105.188 36.0947C105.498 36.3158 105.571 36.6035 105.33 36.7426C105.09 36.8817 104.676 36.8693 104.314 36.5992ZM106.101 37.3809C105.53 37.7114 104.737 37.8794 103.939 37.8391C104.358 37.7133 104.624 37.4571 104.632 37.141C104.633 37.1073 104.629 37.0737 104.621 37.0404C105.018 37.1231 105.4 37.0607 105.645 36.9192C106.061 36.6788 105.989 36.2319 105.507 35.9061C105.024 35.5803 104.311 35.513 103.915 35.7417C103.77 35.8235 103.666 35.9269 103.616 36.0402L103.034 35.5626C102.989 35.523 102.917 35.4968 102.836 35.4908C102.743 35.4795 102.686 35.4844 102.637 35.5127L102.065 35.8428C102.033 35.8633 102.031 35.8939 102.06 35.9154C102.111 35.9624 102.168 36.0076 102.229 36.0505C102.269 36.0784 102.318 36.0688 102.355 36.0476L102.771 35.8071C103.108 36.0773 103.759 36.6038 103.919 36.7389C104.068 36.869 104.147 37.0214 104.149 37.1781C104.146 37.4403 103.778 37.7133 103.283 37.7153C103.109 37.7137 102.757 37.666 102.29 37.3963C101.244 36.7928 101.256 35.8076 102.316 35.1956C103.376 34.5837 105.083 34.5768 106.128 35.1802C107.173 35.7837 107.161 36.769 106.101 37.3809ZM101.994 35.0097C100.754 35.7258 100.74 36.8787 101.963 37.5849C103.186 38.291 105.183 38.283 106.423 37.5669C107.664 36.8508 107.678 35.6978 106.455 34.9917C105.867 34.6525 105.067 34.4639 104.231 34.4673C103.394 34.4707 102.59 34.6658 101.994 35.0097Z" fill="#212124"/>
<rect x="0.179664" width="10.1655" height="10.1655" rx="1.26435" transform="matrix(0.866026 -0.5 0.866025 0.5 95.2496 36.3781)" stroke="url(#paint25_linear)" stroke-width="0.207459"/>
</g>
<rect x="0.118479" width="13.348" height="13.348" rx="1.43649" transform="matrix(0.866026 -0.5 0.866025 0.5 92.5464 36.3474)" stroke="#305EED" stroke-width="0.136808"/>
<g filter="url(#filter25_d)">
<rect width="10.3729" height="10.3729" rx="1.36808" transform="matrix(0.866026 -0.5 0.866025 0.5 62.5601 73.4424)" fill="url(#paint26_linear)"/>
<path d="M70.8737 73.1965L70.8737 74.0641C70.7667 74.0458 70.6633 74.0227 70.5633 73.9962C70.4363 73.9623 70.3164 73.9229 70.2035 73.8768L70.2033 73.0074C70.3161 72.9612 70.4358 72.9212 70.5628 72.8873C70.6086 73.0074 70.7197 73.1171 70.8737 73.1965ZM72.2118 73.1965C72.3658 73.1171 72.4769 73.0101 72.5227 72.8885C72.6513 72.9213 72.7708 72.9596 72.8826 73.0069L72.8832 73.8761C72.7703 73.9222 72.6492 73.9623 72.5234 73.9956C72.4235 74.022 72.319 74.0446 72.212 74.0629C72.2044 73.5003 72.2043 73.2116 72.2118 73.1965ZM73.5734 73.4423C73.4831 73.5465 73.3641 73.6377 73.2171 73.7118C73.2128 73.3506 73.2128 73.1705 73.2171 73.1714C73.3598 73.2493 73.6637 73.3381 73.5734 73.4423ZM69.5121 73.4423C69.5958 73.3457 69.7236 73.2486 69.8694 73.1703L69.8684 73.7131C69.7218 73.6378 69.5965 73.5479 69.5121 73.4423ZM71.8767 73.3112L71.8779 74.1062C71.7673 74.1157 71.6556 74.1205 71.5428 74.1205C71.4287 74.1198 71.317 74.115 71.2077 74.1062L71.2077 73.3119C71.3135 73.3337 71.4252 73.3452 71.5428 73.3452C71.6604 73.3452 71.7721 73.3322 71.8767 73.3112Z" fill="#080738"/>
<path d="M69.1983 72.7655C69.1983 72.0188 70.2483 71.4126 71.5429 71.4119C72.8386 71.4119 73.8875 72.0174 73.8875 72.7655C73.8875 73.0126 73.7722 73.2434 73.5735 73.4424C73.4747 73.3432 73.3548 73.2523 73.2172 73.1715L73.2172 73.7119C73.1149 73.7723 73.0032 73.8273 72.8821 73.8755L72.8821 73.0079C72.7693 72.9617 72.6482 72.9217 72.5223 72.8884C72.5376 72.8484 72.5459 72.8069 72.5459 72.7649C72.5447 72.4451 72.0955 72.1858 71.5429 72.1858C70.9891 72.1865 70.5399 72.4458 70.5399 72.7649C70.5411 72.8076 70.5481 72.8484 70.5634 72.8884C70.4364 72.9224 70.3165 72.9617 70.2036 73.0079L70.2036 73.8755C70.0825 73.8273 69.9708 73.7723 69.8685 73.7119L69.8685 73.1715C69.731 73.2523 69.611 73.3432 69.5123 73.4424C69.3124 73.2428 69.1983 73.0126 69.1983 72.7655ZM71.2078 73.312L71.2078 73.5741L71.2078 74.1063C71.0925 74.0968 70.9808 74.0825 70.8727 74.0635L70.8727 73.6888L70.8727 73.1973C70.9703 73.2468 71.0831 73.2862 71.2078 73.312ZM72.2119 73.1966L72.2119 73.6881L72.2119 74.0628C72.1037 74.0818 71.992 74.0961 71.8768 74.1056L71.8768 73.5734L71.8768 73.3113C72.0026 73.2862 72.1155 73.2468 72.2119 73.1966Z" fill="#0037FF"/>
<path d="M69.5123 73.4424C69.6111 73.5415 69.731 73.6324 69.8674 73.7125L69.8674 75.0662C69.4535 74.8218 69.1984 74.4885 69.1984 74.1192C69.1984 73.8721 69.3136 73.6413 69.5123 73.4424ZM73.2173 75.0669L73.2172 73.7119C73.3548 73.6311 73.4748 73.5415 73.5736 73.4424C73.7735 73.6419 73.8875 73.8721 73.8875 74.1192C73.8875 74.4885 73.6312 74.8225 73.2173 75.0669ZM70.54 74.1199C70.54 74.2909 70.6693 74.4444 70.8727 74.5509L70.8727 75.4172C70.6317 75.3757 70.4059 75.3119 70.2037 75.2305L70.2037 73.8768C70.3166 73.923 70.4365 73.9624 70.5635 73.9963C70.5482 74.0364 70.54 74.0778 70.54 74.1199ZM72.5224 73.9963C72.6494 73.9624 72.7705 73.9223 72.8822 73.8768L72.8822 75.2305C72.68 75.3119 72.4542 75.3757 72.2132 75.4172L72.2132 74.5509C72.4178 74.445 72.5459 74.2909 72.5459 74.1199C72.5459 74.0778 72.5377 74.0364 72.5224 73.9963ZM71.543 74.6989C71.6594 74.6982 71.7734 74.6867 71.8781 74.6657L71.8781 75.4599C71.7675 75.4694 71.6558 75.4742 71.543 75.4742C71.4289 75.4735 71.3172 75.4687 71.2078 75.4599L71.2078 74.6657C71.3137 74.6874 71.4254 74.6989 71.543 74.6989Z" fill="#0037FF"/>
<rect x="0.179664" width="10.1655" height="10.1655" rx="1.26435" transform="matrix(0.866026 -0.5 0.866025 0.5 62.5842 73.5323)" stroke="url(#paint27_linear)" stroke-width="0.207459"/>
</g>
<rect x="0.118479" width="13.348" height="13.348" rx="1.43649" transform="matrix(0.866026 -0.5 0.866025 0.5 59.8811 73.5017)" stroke="#305EED" stroke-width="0.136808"/>
<g filter="url(#filter27_d)">
<rect width="10.3729" height="10.3729" rx="1.36808" transform="matrix(0.866026 -0.5 0.866025 0.5 78.7298 64.1068)" fill="url(#paint28_linear)"/>
<path d="M87.0282 65.5469L85.2182 64.5019L85.9025 63.0615L87.7127 64.1066L88.3974 62.6664L90.2074 63.7114L89.523 65.1518L87.0282 65.5469L87.0282 65.5469ZM85.3847 62.9832L84.7002 64.4236L84.6181 64.5969L86.864 65.8936L87.1641 65.846L89.6589 65.4509L89.9589 65.4035L90.0411 65.2301L90.7254 63.7897L90.8077 63.6165L88.5619 62.3199L88.2617 62.3673L85.7671 62.7624L85.4672 62.8102L85.3847 62.9832Z" fill="url(#paint29_linear)"/>
<rect x="0.179664" width="10.1655" height="10.1655" rx="1.26435" transform="matrix(0.866026 -0.5 0.866025 0.5 78.7539 64.1967)" stroke="url(#paint30_linear)" stroke-width="0.207459"/>
</g>
<rect x="0.118479" width="13.348" height="13.348" rx="1.43649" transform="matrix(0.866026 -0.5 0.866025 0.5 76.0508 64.1661)" stroke="#305EED" stroke-width="0.136808"/>
<g filter="url(#filter29_d)">
<rect width="10.3729" height="10.3729" rx="1.36808" transform="matrix(0.866026 -0.5 0.866025 0.5 94.8996 54.7712)" fill="url(#paint31_linear)"/>
<path d="M104.766 53.2208C104.808 53.2418 104.848 53.2644 104.887 53.287C106.085 53.9791 106.54 55.3114 104.847 56.2888C104.326 56.59 103.693 56.7838 103.026 56.87C103.109 56.8321 103.183 56.7926 103.26 56.7481C103.69 56.4996 103.943 56.1883 104.016 55.8645C103.602 56.0934 103.002 56.1385 102.526 55.9986C102.591 55.9706 102.654 55.9408 102.714 55.9062C102.796 55.8586 102.868 55.8042 102.925 55.7484C102.419 55.9435 101.738 55.9154 101.297 55.6609L101.286 55.6544C101.476 55.6224 101.661 55.5645 101.817 55.4806C101.407 55.53 100.966 55.4633 100.652 55.2817C100.483 55.1845 100.374 55.0691 100.319 54.9453C101.323 55.0011 102.363 54.8153 103.167 54.3971C103.085 54.3663 103.006 54.3309 102.936 54.2903C102.436 54.0018 102.44 53.5298 102.95 53.2353C103.215 53.0822 103.564 53.0072 103.909 53.0122C104.077 52.8694 104.201 52.7105 104.274 52.5485C104.416 52.7095 104.447 52.8957 104.369 53.0707C104.535 52.9523 104.664 52.8194 104.759 52.6836C104.813 52.8596 104.816 53.0424 104.766 53.2208Z" fill="#1DA1F2"/>
<rect x="0.179664" width="10.1655" height="10.1655" rx="1.26435" transform="matrix(0.866026 -0.5 0.866025 0.5 94.9236 54.861)" stroke="url(#paint32_linear)" stroke-width="0.207459"/>
</g>
<rect x="0.118479" width="13.348" height="13.348" rx="1.43649" transform="matrix(0.866026 -0.5 0.866025 0.5 92.2205 54.8305)" stroke="#305EED" stroke-width="0.136808"/>
<g filter="url(#filter31_d)">
<rect width="10.3729" height="10.3729" rx="1.36808" transform="matrix(0.866026 -0.5 0.866025 0.5 111.069 45.4357)" fill="url(#paint33_linear)"/>
<path d="M120.335 45.6033C120.968 45.2378 120.968 44.6452 120.335 44.2798C119.702 43.9143 118.676 43.9143 118.043 44.2798C117.41 44.6452 117.41 45.2378 118.043 45.6033C118.676 45.9688 119.702 45.9688 120.335 45.6033Z" fill="#FFCD00"/>
<path d="M120.916 45.9298C120.915 45.9306 120.913 45.9313 120.912 45.932C120.109 46.3958 118.883 46.4672 117.95 46.1462C117.663 46.0475 117.282 46.0426 117.046 46.179L116.327 46.5938C117.91 47.5074 120.476 47.5075 122.058 46.5937C122.06 46.593 122.061 46.5923 122.062 46.5916L120.916 45.9298Z" fill="#00ECBB"/>
<path d="M120.908 45.9342C120.91 45.9335 120.911 45.9327 120.912 45.932C121.715 45.4682 121.839 44.7606 121.283 44.2217C121.112 44.0559 121.104 43.8361 121.34 43.6997L122.058 43.285C123.641 44.1987 123.641 45.6801 122.058 46.5938C122.057 46.5945 122.056 46.5952 122.055 46.5959L120.908 45.9342Z" fill="#AF64FF"/>
<path d="M123.245 44.9393C123.245 45.5381 122.85 46.1369 122.058 46.5937C121.267 47.0506 120.23 47.279 119.193 47.279L119.193 46.3431C119.815 46.3432 120.437 46.2061 120.912 45.932C121.387 45.6579 121.624 45.2986 121.624 44.9394L123.245 44.9393Z" fill="#7131FF"/>
<rect x="0.179664" width="10.1655" height="10.1655" rx="1.26435" transform="matrix(0.866026 -0.5 0.866025 0.5 111.093 45.5255)" stroke="url(#paint34_linear)" stroke-width="0.207459"/>
</g>
<rect x="0.118479" width="13.348" height="13.348" rx="1.43649" transform="matrix(0.866026 -0.5 0.866025 0.5 108.39 45.4949)" stroke="#305EED" stroke-width="0.136808"/>
<defs>

<filter id="filter1_d" x="8.18798" y="34.5204" width="31.6473" height="24.0538" filterUnits="userSpaceOnUse" color-interpolation-filters="sRGB">
<feFlood flood-opacity="0" result="BackgroundImageFix"/>
<feColorMatrix in="SourceAlpha" type="matrix" values="0 0 0 0 0 0 0 0 0 0 0 0 0 0 0 0 0 0 127 0"/>
<feOffset dy="0.547233"/>
<feGaussianBlur stdDeviation="3.42021"/>
<feColorMatrix type="matrix" values="0 0 0 0 0.188235 0 0 0 0 0.368627 0 0 0 0 0.929412 0 0 0 0.5 0"/>
<feBlend mode="normal" in2="BackgroundImageFix" result="effect1_dropShadow"/>
<feBlend mode="normal" in="SourceGraphic" in2="effect1_dropShadow" result="shape"/>
</filter>

<filter id="filter3_d" x="24.3577" y="25.1848" width="31.6473" height="24.0538" filterUnits="userSpaceOnUse" color-interpolation-filters="sRGB">
<feFlood flood-opacity="0" result="BackgroundImageFix"/>
<feColorMatrix in="SourceAlpha" type="matrix" values="0 0 0 0 0 0 0 0 0 0 0 0 0 0 0 0 0 0 127 0"/>
<feOffset dy="0.547233"/>
<feGaussianBlur stdDeviation="3.42021"/>
<feColorMatrix type="matrix" values="0 0 0 0 0.188235 0 0 0 0 0.368627 0 0 0 0 0.929412 0 0 0 0.5 0"/>
<feBlend mode="normal" in2="BackgroundImageFix" result="effect1_dropShadow"/>
<feBlend mode="normal" in="SourceGraphic" in2="effect1_dropShadow" result="shape"/>
</filter>

<filter id="filter5_d" x="40.5275" y="15.8492" width="31.6473" height="24.0538" filterUnits="userSpaceOnUse" color-interpolation-filters="sRGB">
<feFlood flood-opacity="0" result="BackgroundImageFix"/>
<feColorMatrix in="SourceAlpha" type="matrix" values="0 0 0 0 0 0 0 0 0 0 0 0 0 0 0 0 0 0 127 0"/>
<feOffset dy="0.547233"/>
<feGaussianBlur stdDeviation="3.42021"/>
<feColorMatrix type="matrix" values="0 0 0 0 0.188235 0 0 0 0 0.368627 0 0 0 0 0.929412 0 0 0 0.5 0"/>
<feBlend mode="normal" in2="BackgroundImageFix" result="effect1_dropShadow"/>
<feBlend mode="normal" in="SourceGraphic" in2="effect1_dropShadow" result="shape"/>
</filter>

<filter id="filter7_d" x="56.6972" y="6.51358" width="31.6473" height="24.0538" filterUnits="userSpaceOnUse" color-interpolation-filters="sRGB">
<feFlood flood-opacity="0" result="BackgroundImageFix"/>
<feColorMatrix in="SourceAlpha" type="matrix" values="0 0 0 0 0 0 0 0 0 0 0 0 0 0 0 0 0 0 127 0"/>
<feOffset dy="0.547233"/>
<feGaussianBlur stdDeviation="3.42021"/>
<feColorMatrix type="matrix" values="0 0 0 0 0.188235 0 0 0 0 0.368627 0 0 0 0 0.929412 0 0 0 0.5 0"/>
<feBlend mode="normal" in2="BackgroundImageFix" result="effect1_dropShadow"/>
<feBlend mode="normal" in="SourceGraphic" in2="effect1_dropShadow" result="shape"/>
</filter>

<filter id="filter9_d" x="24.0318" y="43.6678" width="31.6473" height="24.0538" filterUnits="userSpaceOnUse" color-interpolation-filters="sRGB">
<feFlood flood-opacity="0" result="BackgroundImageFix"/>
<feColorMatrix in="SourceAlpha" type="matrix" values="0 0 0 0 0 0 0 0 0 0 0 0 0 0 0 0 0 0 127 0"/>
<feOffset dy="0.547233"/>
<feGaussianBlur stdDeviation="3.42021"/>
<feColorMatrix type="matrix" values="0 0 0 0 0.188235 0 0 0 0 0.368627 0 0 0 0 0.929412 0 0 0 0.5 0"/>
<feBlend mode="normal" in2="BackgroundImageFix" result="effect1_dropShadow"/>
<feBlend mode="normal" in="SourceGraphic" in2="effect1_dropShadow" result="shape"/>
</filter>

<filter id="filter11_d" x="40.2016" y="34.3322" width="31.6473" height="24.0538" filterUnits="userSpaceOnUse" color-interpolation-filters="sRGB">
<feFlood flood-opacity="0" result="BackgroundImageFix"/>
<feColorMatrix in="SourceAlpha" type="matrix" values="0 0 0 0 0 0 0 0 0 0 0 0 0 0 0 0 0 0 127 0"/>
<feOffset dy="0.547233"/>
<feGaussianBlur stdDeviation="3.42021"/>
<feColorMatrix type="matrix" values="0 0 0 0 0.188235 0 0 0 0 0.368627 0 0 0 0 0.929412 0 0 0 0.5 0"/>
<feBlend mode="normal" in2="BackgroundImageFix" result="effect1_dropShadow"/>
<feBlend mode="normal" in="SourceGraphic" in2="effect1_dropShadow" result="shape"/>
</filter>

<filter id="filter13_d" x="56.3713" y="24.9966" width="31.6473" height="24.0538" filterUnits="userSpaceOnUse" color-interpolation-filters="sRGB">
<feFlood flood-opacity="0" result="BackgroundImageFix"/>
<feColorMatrix in="SourceAlpha" type="matrix" values="0 0 0 0 0 0 0 0 0 0 0 0 0 0 0 0 0 0 127 0"/>
<feOffset dy="0.547233"/>
<feGaussianBlur stdDeviation="3.42021"/>
<feColorMatrix type="matrix" values="0 0 0 0 0.188235 0 0 0 0 0.368627 0 0 0 0 0.929412 0 0 0 0.5 0"/>
<feBlend mode="normal" in2="BackgroundImageFix" result="effect1_dropShadow"/>
<feBlend mode="normal" in="SourceGraphic" in2="effect1_dropShadow" result="shape"/>
</filter>

<filter id="filter15_d" x="72.541" y="15.661" width="31.6473" height="24.0538" filterUnits="userSpaceOnUse" color-interpolation-filters="sRGB">
<feFlood flood-opacity="0" result="BackgroundImageFix"/>
<feColorMatrix in="SourceAlpha" type="matrix" values="0 0 0 0 0 0 0 0 0 0 0 0 0 0 0 0 0 0 127 0"/>
<feOffset dy="0.547233"/>
<feGaussianBlur stdDeviation="3.42021"/>
<feColorMatrix type="matrix" values="0 0 0 0 0.188235 0 0 0 0 0.368627 0 0 0 0 0.929412 0 0 0 0.5 0"/>
<feBlend mode="normal" in2="BackgroundImageFix" result="effect1_dropShadow"/>
<feBlend mode="normal" in="SourceGraphic" in2="effect1_dropShadow" result="shape"/>
</filter>

<filter id="filter17_d" x="39.8759" y="52.8153" width="31.6473" height="24.0538" filterUnits="userSpaceOnUse" color-interpolation-filters="sRGB">
<feFlood flood-opacity="0" result="BackgroundImageFix"/>
<feColorMatrix in="SourceAlpha" type="matrix" values="0 0 0 0 0 0 0 0 0 0 0 0 0 0 0 0 0 0 127 0"/>
<feOffset dy="0.547233"/>
<feGaussianBlur stdDeviation="3.42021"/>
<feColorMatrix type="matrix" values="0 0 0 0 0.188235 0 0 0 0 0.368627 0 0 0 0 0.929412 0 0 0 0.5 0"/>
<feBlend mode="normal" in2="BackgroundImageFix" result="effect1_dropShadow"/>
<feBlend mode="normal" in="SourceGraphic" in2="effect1_dropShadow" result="shape"/>
</filter>

<filter id="filter19_d" x="56.0456" y="43.4798" width="31.6473" height="24.0538" filterUnits="userSpaceOnUse" color-interpolation-filters="sRGB">
<feFlood flood-opacity="0" result="BackgroundImageFix"/>
<feColorMatrix in="SourceAlpha" type="matrix" values="0 0 0 0 0 0 0 0 0 0 0 0 0 0 0 0 0 0 127 0"/>
<feOffset dy="0.547233"/>
<feGaussianBlur stdDeviation="3.42021"/>
<feColorMatrix type="matrix" values="0 0 0 0 0.188235 0 0 0 0 0.368627 0 0 0 0 0.929412 0 0 0 0.5 0"/>
<feBlend mode="normal" in2="BackgroundImageFix" result="effect1_dropShadow"/>
<feBlend mode="normal" in="SourceGraphic" in2="effect1_dropShadow" result="shape"/>
</filter>

<filter id="filter21_d" x="72.2154" y="34.1442" width="31.6473" height="24.0538" filterUnits="userSpaceOnUse" color-interpolation-filters="sRGB">
<feFlood flood-opacity="0" result="BackgroundImageFix"/>
<feColorMatrix in="SourceAlpha" type="matrix" values="0 0 0 0 0 0 0 0 0 0 0 0 0 0 0 0 0 0 127 0"/>
<feOffset dy="0.547233"/>
<feGaussianBlur stdDeviation="3.42021"/>
<feColorMatrix type="matrix" values="0 0 0 0 0.188235 0 0 0 0 0.368627 0 0 0 0 0.929412 0 0 0 0.5 0"/>
<feBlend mode="normal" in2="BackgroundImageFix" result="effect1_dropShadow"/>
<feBlend mode="normal" in="SourceGraphic" in2="effect1_dropShadow" result="shape"/>
</filter>

<filter id="filter23_d" x="88.3851" y="24.8086" width="31.6473" height="24.0538" filterUnits="userSpaceOnUse" color-interpolation-filters="sRGB">
<feFlood flood-opacity="0" result="BackgroundImageFix"/>
<feColorMatrix in="SourceAlpha" type="matrix" values="0 0 0 0 0 0 0 0 0 0 0 0 0 0 0 0 0 0 127 0"/>
<feOffset dy="0.547233"/>
<feGaussianBlur stdDeviation="3.42021"/>
<feColorMatrix type="matrix" values="0 0 0 0 0.188235 0 0 0 0 0.368627 0 0 0 0 0.929412 0 0 0 0.5 0"/>
<feBlend mode="normal" in2="BackgroundImageFix" result="effect1_dropShadow"/>
<feBlend mode="normal" in="SourceGraphic" in2="effect1_dropShadow" result="shape"/>
</filter>

<filter id="filter25_d" x="55.7197" y="61.9628" width="31.6473" height="24.0538" filterUnits="userSpaceOnUse" color-interpolation-filters="sRGB">
<feFlood flood-opacity="0" result="BackgroundImageFix"/>
<feColorMatrix in="SourceAlpha" type="matrix" values="0 0 0 0 0 0 0 0 0 0 0 0 0 0 0 0 0 0 127 0"/>
<feOffset dy="0.547233"/>
<feGaussianBlur stdDeviation="3.42021"/>
<feColorMatrix type="matrix" values="0 0 0 0 0.188235 0 0 0 0 0.368627 0 0 0 0 0.929412 0 0 0 0.5 0"/>
<feBlend mode="normal" in2="BackgroundImageFix" result="effect1_dropShadow"/>
<feBlend mode="normal" in="SourceGraphic" in2="effect1_dropShadow" result="shape"/>
</filter>

<filter id="filter27_d" x="71.8894" y="52.6272" width="31.6473" height="24.0538" filterUnits="userSpaceOnUse" color-interpolation-filters="sRGB">
<feFlood flood-opacity="0" result="BackgroundImageFix"/>
<feColorMatrix in="SourceAlpha" type="matrix" values="0 0 0 0 0 0 0 0 0 0 0 0 0 0 0 0 0 0 127 0"/>
<feOffset dy="0.547233"/>
<feGaussianBlur stdDeviation="3.42021"/>
<feColorMatrix type="matrix" values="0 0 0 0 0.188235 0 0 0 0 0.368627 0 0 0 0 0.929412 0 0 0 0.5 0"/>
<feBlend mode="normal" in2="BackgroundImageFix" result="effect1_dropShadow"/>
<feBlend mode="normal" in="SourceGraphic" in2="effect1_dropShadow" result="shape"/>
</filter>

<filter id="filter29_d" x="88.0591" y="43.2916" width="31.6473" height="24.0538" filterUnits="userSpaceOnUse" color-interpolation-filters="sRGB">
<feFlood flood-opacity="0" result="BackgroundImageFix"/>
<feColorMatrix in="SourceAlpha" type="matrix" values="0 0 0 0 0 0 0 0 0 0 0 0 0 0 0 0 0 0 127 0"/>
<feOffset dy="0.547233"/>
<feGaussianBlur stdDeviation="3.42021"/>
<feColorMatrix type="matrix" values="0 0 0 0 0.188235 0 0 0 0 0.368627 0 0 0 0 0.929412 0 0 0 0.5 0"/>
<feBlend mode="normal" in2="BackgroundImageFix" result="effect1_dropShadow"/>
<feBlend mode="normal" in="SourceGraphic" in2="effect1_dropShadow" result="shape"/>
</filter>

<filter id="filter31_d" x="104.229" y="33.956" width="31.6473" height="24.0538" filterUnits="userSpaceOnUse" color-interpolation-filters="sRGB">
<feFlood flood-opacity="0" result="BackgroundImageFix"/>
<feColorMatrix in="SourceAlpha" type="matrix" values="0 0 0 0 0 0 0 0 0 0 0 0 0 0 0 0 0 0 127 0"/>
<feOffset dy="0.547233"/>
<feGaussianBlur stdDeviation="3.42021"/>
<feColorMatrix type="matrix" values="0 0 0 0 0.188235 0 0 0 0 0.368627 0 0 0 0 0.929412 0 0 0 0.5 0"/>
<feBlend mode="normal" in2="BackgroundImageFix" result="effect1_dropShadow"/>
<feBlend mode="normal" in="SourceGraphic" in2="effect1_dropShadow" result="shape"/>
</filter>
<linearGradient id="paint0_linear" x1="5.18646" y1="0" x2="5.18646" y2="10.3729" gradientUnits="userSpaceOnUse">
<stop stop-color="white"/>
<stop offset="1" stop-color="#F9F9F9"/>
</linearGradient>
<linearGradient id="paint1_linear" x1="5.18646" y1="0" x2="5.18646" y2="10.3729" gradientUnits="userSpaceOnUse">
<stop stop-color="#E2E2E2"/>
<stop offset="1" stop-color="#D7D7D7" stop-opacity="0.41"/>
</linearGradient>
<linearGradient id="paint2_linear" x1="5.18646" y1="0" x2="5.18646" y2="10.3729" gradientUnits="userSpaceOnUse">
<stop stop-color="white"/>
<stop offset="1" stop-color="#F9F9F9"/>
</linearGradient>
<linearGradient id="paint3_linear" x1="5.18646" y1="0" x2="5.18646" y2="10.3729" gradientUnits="userSpaceOnUse">
<stop stop-color="#E2E2E2"/>
<stop offset="1" stop-color="#D7D7D7" stop-opacity="0.41"/>
</linearGradient>
<linearGradient id="paint4_linear" x1="5.18646" y1="0" x2="5.18646" y2="10.3729" gradientUnits="userSpaceOnUse">
<stop stop-color="white"/>
<stop offset="1" stop-color="#F9F9F9"/>
</linearGradient>
<linearGradient id="paint5_linear" x1="5.18646" y1="0" x2="5.18646" y2="10.3729" gradientUnits="userSpaceOnUse">
<stop stop-color="#E2E2E2"/>
<stop offset="1" stop-color="#D7D7D7" stop-opacity="0.41"/>
</linearGradient>
<linearGradient id="paint6_linear" x1="5.18646" y1="0" x2="5.18646" y2="10.3729" gradientUnits="userSpaceOnUse">
<stop stop-color="white"/>
<stop offset="1" stop-color="#F9F9F9"/>
</linearGradient>
<linearGradient id="paint7_linear" x1="72.4155" y1="17.9918" x2="76.8006" y2="17.9811" gradientUnits="userSpaceOnUse">
<stop stop-color="#BF360C" stop-opacity="0.2"/>
<stop offset="0.28" stop-color="#BF360C" stop-opacity="0.12"/>
<stop offset="0.67" stop-color="#BF360C" stop-opacity="0.05"/>
<stop offset="1" stop-color="#BF360C" stop-opacity="0.02"/>
</linearGradient>
<linearGradient id="paint8_linear" x1="71.2611" y1="19.8592" x2="72.5208" y2="17.6772" gradientUnits="userSpaceOnUse">
<stop stop-color="white" stop-opacity="0.1"/>
<stop offset="0.14" stop-color="white" stop-opacity="0.08"/>
<stop offset="0.61" stop-color="white" stop-opacity="0.02"/>
<stop offset="1" stop-color="white" stop-opacity="0"/>
</linearGradient>
<linearGradient id="paint9_linear" x1="5.18646" y1="0" x2="5.18646" y2="10.3729" gradientUnits="userSpaceOnUse">
<stop stop-color="#E2E2E2"/>
<stop offset="1" stop-color="#D7D7D7" stop-opacity="0.41"/>
</linearGradient>
<linearGradient id="paint10_linear" x1="5.18646" y1="0" x2="5.18646" y2="10.3729" gradientUnits="userSpaceOnUse">
<stop stop-color="white"/>
<stop offset="1" stop-color="#F9F9F9"/>
</linearGradient>
<linearGradient id="paint11_linear" x1="5.18646" y1="0" x2="5.18646" y2="10.3729" gradientUnits="userSpaceOnUse">
<stop stop-color="#E2E2E2"/>
<stop offset="1" stop-color="#D7D7D7" stop-opacity="0.41"/>
</linearGradient>
<linearGradient id="paint12_linear" x1="5.18646" y1="0" x2="5.18646" y2="10.3729" gradientUnits="userSpaceOnUse">
<stop stop-color="white"/>
<stop offset="1" stop-color="#F9F9F9"/>
</linearGradient>
<linearGradient id="paint13_linear" x1="5.18646" y1="0" x2="5.18646" y2="10.3729" gradientUnits="userSpaceOnUse">
<stop stop-color="#E2E2E2"/>
<stop offset="1" stop-color="#D7D7D7" stop-opacity="0.41"/>
</linearGradient>
<linearGradient id="paint14_linear" x1="5.18646" y1="0" x2="5.18646" y2="10.3729" gradientUnits="userSpaceOnUse">
<stop stop-color="white"/>
<stop offset="1" stop-color="#F9F9F9"/>
</linearGradient>
<linearGradient id="paint15_linear" x1="5.18646" y1="0" x2="5.18646" y2="10.3729" gradientUnits="userSpaceOnUse">
<stop stop-color="#E2E2E2"/>
<stop offset="1" stop-color="#D7D7D7" stop-opacity="0.41"/>
</linearGradient>
<linearGradient id="paint16_linear" x1="5.18646" y1="0" x2="5.18646" y2="10.3729" gradientUnits="userSpaceOnUse">
<stop stop-color="white"/>
<stop offset="1" stop-color="#F9F9F9"/>
</linearGradient>
<linearGradient id="paint17_linear" x1="5.18646" y1="0" x2="5.18646" y2="10.3729" gradientUnits="userSpaceOnUse">
<stop stop-color="#E2E2E2"/>
<stop offset="1" stop-color="#D7D7D7" stop-opacity="0.41"/>
</linearGradient>
<linearGradient id="paint18_linear" x1="5.18646" y1="0" x2="5.18646" y2="10.3729" gradientUnits="userSpaceOnUse">
<stop stop-color="white"/>
<stop offset="1" stop-color="#F9F9F9"/>
</linearGradient>
<linearGradient id="paint19_linear" x1="5.18646" y1="0" x2="5.18646" y2="10.3729" gradientUnits="userSpaceOnUse">
<stop stop-color="#E2E2E2"/>
<stop offset="1" stop-color="#D7D7D7" stop-opacity="0.41"/>
</linearGradient>
<linearGradient id="paint20_linear" x1="5.18646" y1="0" x2="5.18646" y2="10.3729" gradientUnits="userSpaceOnUse">
<stop stop-color="white"/>
<stop offset="1" stop-color="#F9F9F9"/>
</linearGradient>
<linearGradient id="paint21_linear" x1="5.18646" y1="0" x2="5.18646" y2="10.3729" gradientUnits="userSpaceOnUse">
<stop stop-color="#E2E2E2"/>
<stop offset="1" stop-color="#D7D7D7" stop-opacity="0.41"/>
</linearGradient>
<linearGradient id="paint22_linear" x1="5.18646" y1="0" x2="5.18646" y2="10.3729" gradientUnits="userSpaceOnUse">
<stop stop-color="white"/>
<stop offset="1" stop-color="#F9F9F9"/>
</linearGradient>
<linearGradient id="paint23_linear" x1="5.18646" y1="0" x2="5.18646" y2="10.3729" gradientUnits="userSpaceOnUse">
<stop stop-color="#E2E2E2"/>
<stop offset="1" stop-color="#D7D7D7" stop-opacity="0.41"/>
</linearGradient>
<linearGradient id="paint24_linear" x1="5.18646" y1="0" x2="5.18646" y2="10.3729" gradientUnits="userSpaceOnUse">
<stop stop-color="white"/>
<stop offset="1" stop-color="#F9F9F9"/>
</linearGradient>
<linearGradient id="paint25_linear" x1="5.18646" y1="0" x2="5.18646" y2="10.3729" gradientUnits="userSpaceOnUse">
<stop stop-color="#E2E2E2"/>
<stop offset="1" stop-color="#D7D7D7" stop-opacity="0.41"/>
</linearGradient>
<linearGradient id="paint26_linear" x1="5.18646" y1="0" x2="5.18646" y2="10.3729" gradientUnits="userSpaceOnUse">
<stop stop-color="white"/>
<stop offset="1" stop-color="#F9F9F9"/>
</linearGradient>
<linearGradient id="paint27_linear" x1="5.18646" y1="0" x2="5.18646" y2="10.3729" gradientUnits="userSpaceOnUse">
<stop stop-color="#E2E2E2"/>
<stop offset="1" stop-color="#D7D7D7" stop-opacity="0.41"/>
</linearGradient>
<linearGradient id="paint28_linear" x1="5.18646" y1="0" x2="5.18646" y2="10.3729" gradientUnits="userSpaceOnUse">
<stop stop-color="white"/>
<stop offset="1" stop-color="#F9F9F9"/>
</linearGradient>
<linearGradient id="paint29_linear" x1="89.9551" y1="65.4058" x2="87.7093" y2="61.5159" gradientUnits="userSpaceOnUse">
<stop stop-color="#F37C27"/>
<stop offset="1" stop-color="#ED3774"/>
</linearGradient>
<linearGradient id="paint30_linear" x1="5.18646" y1="0" x2="5.18646" y2="10.3729" gradientUnits="userSpaceOnUse">
<stop stop-color="#E2E2E2"/>
<stop offset="1" stop-color="#D7D7D7" stop-opacity="0.41"/>
</linearGradient>
<linearGradient id="paint31_linear" x1="5.18646" y1="0" x2="5.18646" y2="10.3729" gradientUnits="userSpaceOnUse">
<stop stop-color="white"/>
<stop offset="1" stop-color="#F9F9F9"/>
</linearGradient>
<linearGradient id="paint32_linear" x1="5.18646" y1="0" x2="5.18646" y2="10.3729" gradientUnits="userSpaceOnUse">
<stop stop-color="#E2E2E2"/>
<stop offset="1" stop-color="#D7D7D7" stop-opacity="0.41"/>
</linearGradient>
<linearGradient id="paint33_linear" x1="5.18646" y1="0" x2="5.18646" y2="10.3729" gradientUnits="userSpaceOnUse">
<stop stop-color="white"/>
<stop offset="1" stop-color="#F9F9F9"/>
</linearGradient>
<linearGradient id="paint34_linear" x1="5.18646" y1="0" x2="5.18646" y2="10.3729" gradientUnits="userSpaceOnUse">
<stop stop-color="#E2E2E2"/>
<stop offset="1" stop-color="#D7D7D7" stop-opacity="0.41"/>
</linearGradient>
<clipPath id="clip0">
<rect width="10.3729" height="10.3729" rx="1.36808" transform="matrix(0.866026 -0.5 0.866025 0.5 15.0284 46)" fill="white"/>
</clipPath>
<clipPath id="clip1">
<rect width="10.3729" height="10.3729" rx="1.36808" transform="matrix(0.866026 -0.5 0.866025 0.5 31.1982 36.6644)" fill="white"/>
</clipPath>
<clipPath id="clip2">
<rect width="5.14702" height="5.14702" fill="white" transform="matrix(0.866026 -0.5 0.866025 0.5 35.724 36.6644)"/>
</clipPath>
<clipPath id="clip3">
<rect width="10.3729" height="10.3729" rx="1.36808" transform="matrix(0.866026 -0.5 0.866025 0.5 47.3679 27.3288)" fill="white"/>
</clipPath>
<clipPath id="clip4">
<rect width="10.3729" height="10.3729" rx="1.36808" transform="matrix(0.866026 -0.5 0.866025 0.5 63.5376 17.9932)" fill="white"/>
</clipPath>
<clipPath id="clip5">
<rect width="10.3729" height="10.3729" rx="1.36808" transform="matrix(0.866026 -0.5 0.866025 0.5 63.2117 36.4763)" fill="white"/>
</clipPath>
<clipPath id="clip6">
<rect width="10.3729" height="10.3729" rx="1.36808" transform="matrix(0.866026 -0.5 0.866025 0.5 79.0558 45.6238)" fill="white"/>
</clipPath>
</defs>
</svg>
