<svg viewBox="0 0 320 240" fill="none" xmlns="http://www.w3.org/2000/svg">
<g clip-path="url(#clip0)">
<path d="M18.3248 208.474C12.3167 206.693 11.7586 191.193 11.6643 188.573C11.1429 174.092 16.6837 162.146 20.016 156.213C26.6433 144.412 31.3692 144.227 35.2803 134.902C36.2337 132.628 36.9216 130.33 37.3953 128.044C38.1969 124.177 43.1427 124.053 44.0152 127.87C45.6219 134.9 46.365 140.983 46.7271 145.686C47.4106 154.55 48.0303 163.705 44.6887 174.921C41.2189 186.567 35.4679 193.756 32.1573 197.808C27.1849 203.893 22.4437 209.695 18.3248 208.474Z" fill="#B6D9FF"/>
<path d="M15.8806 202.75C8.79605 200.439 1.03535 193.621 1.74383 187.379C2.40757 181.531 10.0513 180.174 9.6764 175.308C9.32176 170.705 2.36554 170.408 1.35687 165.316C0.147691 159.212 9.41378 155.952 8.88522 148.625C8.44198 142.482 1.60309 141.098 2.31831 135.998C2.97304 131.331 8.94194 130.719 9.86987 124.652C10.3614 121.439 8.98336 119.671 10.3536 118.123C11.9247 116.348 15.8509 116.284 17.8991 118.123C20.0507 120.054 18.8119 122.366 20.898 126.038C23.2582 130.192 26.1439 129.285 27.573 132.37C29.9007 137.394 23.1565 141.769 24.8643 147.408C26.5614 153.012 34.2771 152.179 35.5056 157.203C36.9816 163.24 26.8858 168.719 28.7384 173.225C30.0949 176.525 35.8939 174.525 39.4717 179.167C41.8513 182.255 42.4876 187.293 40.7295 190.742C39.0073 194.121 36.8805 193.816 31.6028 199.237C28.9954 201.915 29.1349 204.005 27.3597 204.946C23.3461 207.077 17.9688 203.432 15.8806 202.75Z" fill="#305EED"/>
<path d="M127.521 175.648H118.588L115.446 167.39H130.663L127.521 175.648Z" fill="#B6D9FF"/>
<path d="M118.117 174.411L114.463 164.867H111.533C111.083 164.687 111.044 164.008 111.439 164.008H115.124L118.901 173.968L118.117 174.411Z" fill="#B6D9FF"/>
<path d="M119.732 178.893C120.316 178.893 120.789 178.409 120.789 177.812C120.789 177.215 120.316 176.731 119.732 176.731C119.149 176.731 118.676 177.215 118.676 177.812C118.676 178.409 119.149 178.893 119.732 178.893Z" fill="#B6D9FF"/>
<path d="M126.376 178.893C126.959 178.893 127.432 178.409 127.432 177.812C127.432 177.215 126.959 176.731 126.376 176.731C125.792 176.731 125.319 177.215 125.319 177.812C125.319 178.409 125.792 178.893 126.376 178.893Z" fill="#B6D9FF"/>
<path d="M46.2871 93.0949C46.2871 89.0663 49.4805 82.3818 53.4196 82.3818H62.171C66.1101 82.3818 69.3035 89.0663 69.3035 93.0949C69.3035 97.1235 46.2871 97.1235 46.2871 93.0949Z" fill="#B6D9FF"/>
<path d="M57.7951 80.6599C61.0943 80.6599 63.769 77.9249 63.769 74.5502C63.769 71.176 61.0943 68.4404 57.7951 68.4404C54.4954 68.4404 51.8207 71.176 51.8207 74.5502C51.8207 77.9249 54.4954 80.6599 57.7951 80.6599Z" fill="#B6D9FF"/>
<path d="M113.339 111.077H70.6513C69.5365 111.077 68.6326 110.153 68.6326 109.013V108.392C68.6326 107.252 69.5365 106.328 70.6513 106.328H113.339C114.454 106.328 115.357 107.252 115.357 108.392V109.013C115.357 110.153 114.454 111.077 113.339 111.077Z" fill="#B6D9FF"/>
<path d="M113.339 119.986H70.6513C69.5365 119.986 68.6326 119.062 68.6326 117.922V117.301C68.6326 116.161 69.5365 115.237 70.6513 115.237H113.339C114.454 115.237 115.357 116.161 115.357 117.301V117.922C115.357 119.062 114.454 119.986 113.339 119.986Z" fill="#B6D9FF"/>
<path d="M113.339 129.079H70.6513C69.5365 129.079 68.6326 128.155 68.6326 127.015V126.395C68.6326 125.255 69.5365 124.33 70.6513 124.33H113.339C114.454 124.33 115.357 125.255 115.357 126.395V127.015C115.357 128.155 114.454 129.079 113.339 129.079Z" fill="#B6D9FF"/>
<path d="M61.885 111.077H60.8691C59.7871 111.077 58.9103 110.18 58.9103 109.074V108.035C58.9103 106.928 59.7871 106.031 60.8691 106.031H61.885C62.9665 106.031 63.8438 106.928 63.8438 108.035V109.074C63.8438 110.18 62.9665 111.077 61.885 111.077Z" fill="#53D084"/>
<path d="M61.885 120.135H60.8691C59.7871 120.135 58.9103 119.237 58.9103 118.131V117.092C58.9103 115.986 59.7871 115.089 60.8691 115.089H61.885C62.9665 115.089 63.8438 115.986 63.8438 117.092V118.131C63.8438 119.237 62.9665 120.135 61.885 120.135Z" fill="#53D084"/>
<path d="M61.885 129.192H60.8691C59.7871 129.192 58.9103 128.295 58.9103 127.189V126.15C58.9103 125.043 59.7871 124.146 60.8691 124.146H61.885C62.9665 124.146 63.8438 125.043 63.8438 126.15V127.189C63.8438 128.295 62.9665 129.192 61.885 129.192Z" fill="#53D084"/>
<path d="M127.321 149.514H55.5724C54.1703 149.514 53.0337 148.352 53.0337 146.918V137.077C53.0337 135.643 54.1703 134.48 55.5724 134.48H127.321C128.724 134.48 129.86 135.643 129.86 137.077V146.918C129.86 148.352 128.724 149.514 127.321 149.514Z" fill="#53D084"/>
<path d="M146.935 217.716H83.5187C82.198 217.716 81.127 216.621 81.127 215.27V205.129C81.127 203.778 82.198 202.683 83.5187 202.683H146.935C148.256 202.683 149.327 203.778 149.327 205.129V215.27C149.327 216.621 148.256 217.716 146.935 217.716Z" fill="#B6D9FF"/>
<path fill-rule="evenodd" clip-rule="evenodd" d="M41.0665 158.227H40.1193V157.84H41.0665V158.227Z" fill="#305EED"/>
<path fill-rule="evenodd" clip-rule="evenodd" d="M44.596 158.227H43.6771V157.84H44.596V158.227ZM48.2717 158.227H46.4341V157.84H48.2717V158.227ZM51.9475 158.227H50.1099V157.84H51.9475V158.227ZM55.6233 158.227H53.7856V157.84H55.6233V158.227ZM59.2991 158.227H57.4614V157.84H59.2991V158.227ZM62.9749 158.227H61.1372V157.84H62.9749V158.227ZM66.6507 158.227H64.813V157.84H66.6507V158.227ZM70.3265 158.227H68.4888V157.84H70.3265V158.227ZM74.0023 158.227H72.1646V157.84H74.0023V158.227ZM77.678 158.227H75.8404V157.84H77.678V158.227ZM81.3538 158.227H79.5162V157.84H81.3538V158.227ZM85.0296 158.227H83.1915V157.84H85.0296V158.227ZM88.7054 158.227H86.8673V157.84H88.7054V158.227ZM92.3812 158.227H90.5431V157.84H92.3812V158.227ZM96.057 158.227H94.2189V157.84H96.057V158.227ZM99.7328 158.227H97.8946V157.84H99.7328V158.227ZM103.409 158.227H101.57V157.84H103.409V158.227ZM107.084 158.227H105.246V157.84H107.084V158.227ZM110.76 158.227H108.922V157.84H110.76V158.227ZM114.436 158.227H112.598V157.84H114.436V158.227ZM118.112 158.227H116.274V157.84H118.112V158.227ZM121.787 158.227H119.949V157.84H121.787V158.227ZM125.463 158.227H123.625V157.84H125.463V158.227ZM129.139 158.227H127.301V157.84H129.139V158.227ZM131.896 158.227H130.977V157.84H131.896V158.227Z" fill="#305EED"/>
<path fill-rule="evenodd" clip-rule="evenodd" d="M134.149 158.227H133.202V157.84H134.149V158.227Z" fill="#305EED"/>
<path d="M141.975 155.332C143.389 155.332 144.535 154.16 144.535 152.715C144.535 151.269 143.389 150.097 141.975 150.097C140.561 150.097 139.415 151.269 139.415 152.715C139.415 154.16 140.561 155.332 141.975 155.332Z" fill="#B6D9FF"/>
<path d="M44.846 34.1575C46.5651 34.1575 47.9589 32.732 47.9589 30.9738C47.9589 29.2155 46.5651 27.79 44.846 27.79C43.1268 27.79 41.733 29.2155 41.733 30.9738C41.733 32.732 43.1268 34.1575 44.846 34.1575Z" stroke="#242424" stroke-width="0.75" stroke-miterlimit="10"/>
<path d="M112.488 76.3361C113.452 76.3361 114.234 75.5364 114.234 74.5502C114.234 73.5639 113.452 72.7646 112.488 72.7646C111.524 72.7646 110.742 73.5639 110.742 74.5502C110.742 75.5364 111.524 76.3361 112.488 76.3361Z" stroke="#242424" stroke-width="0.75" stroke-miterlimit="10"/>
<path d="M152.476 21.8701C152.476 21.8701 152.273 26.9345 150.586 27.7903H160.308L152.476 21.8701Z" fill="#53D084"/>
<path d="M159.606 27.79H179.868C184.679 27.79 188.579 23.801 188.579 18.8804V18.8803C188.579 13.9597 184.679 9.9707 179.868 9.9707H161.034C156.223 9.9707 152.323 13.9597 152.323 18.8803V20.3406C152.323 24.4548 155.584 27.79 159.606 27.79Z" fill="#53D084"/>
<path d="M161.383 25.449C162.093 25.449 162.669 24.8606 162.669 24.1347C162.669 23.4088 162.093 22.8203 161.383 22.8203C160.674 22.8203 160.099 23.4088 160.099 24.1347C160.099 24.8606 160.674 25.449 161.383 25.449Z" fill="#305EED"/>
<path d="M157.513 25.4491C158.223 25.4491 158.798 24.8606 158.798 24.1347C158.798 23.4088 158.223 22.8203 157.513 22.8203C156.803 22.8203 156.228 23.4088 156.228 24.1347C156.228 24.8606 156.803 25.4491 157.513 25.4491Z" fill="#B6D9FF"/>
<path fill-rule="evenodd" clip-rule="evenodd" d="M56.6783 141.327C57.8543 149.662 56.0888 154.856 54.0132 158.162L53.7968 158.021L54.0132 158.162C50.871 163.17 46.1815 165.181 41.7504 167.047L41.6301 167.098C37.2227 168.954 33.1122 170.685 30.8026 175.015L30.3513 174.763C32.7483 170.269 37.0119 168.473 41.3664 166.64C41.4294 166.614 41.4919 166.587 41.5545 166.561C45.9965 164.69 50.5356 162.73 53.5807 157.878C55.5846 154.685 57.3287 149.62 56.1693 141.402L56.6783 141.327Z" fill="#305EED"/>
<path fill-rule="evenodd" clip-rule="evenodd" d="M30.7686 174.995C30.6234 175.267 30.4857 175.55 30.3549 175.843C29.1653 178.515 29.3285 180.445 29.5187 182.662L29.5196 182.669C29.7107 184.898 29.9254 187.396 28.7886 191.13C26.3846 199.025 20.4773 204.117 16.0925 207.1L15.8503 206.727C20.2049 203.765 26.0116 198.746 28.3711 190.997C29.482 187.347 29.2738 184.92 29.0836 182.707L29.0831 182.701C28.8916 180.473 28.7175 178.442 29.9569 175.658L30.1559 175.75L29.9569 175.658C30.0916 175.355 30.2346 175.063 30.3846 174.781L30.7686 174.995Z" fill="#B6D9FF"/>
<path d="M13.7658 202.032H29.2909C30.1598 202.032 30.9134 202.65 31.1036 203.517C32.7825 211.166 34.0963 226.367 34.0963 226.367C34.0963 228.234 32.6159 229.749 30.7896 229.749H12.267C10.4408 229.749 8.96033 228.234 8.96033 226.367C8.96033 226.367 10.274 211.166 11.953 203.517C12.1432 202.65 12.8972 202.032 13.7658 202.032Z" fill="#B6D9FF"/>
<path fill-rule="evenodd" clip-rule="evenodd" d="M69.0401 229.973H1.53027V229.525H69.0401V229.973Z" fill="#53D084"/>
<path d="M96.7155 207.536L97.5617 209.29L99.454 209.571L98.0847 210.936L98.4079 212.864L96.7155 211.954L95.0225 212.864L95.3462 210.936L93.9764 209.571L95.8692 209.29L96.7155 207.536Z" fill="#305EED"/>
<path d="M105.972 207.536L106.818 209.29L108.71 209.571L107.341 210.936L107.664 212.864L105.972 211.954L104.279 212.864L104.602 210.936L103.233 209.571L105.125 209.29L105.972 207.536Z" fill="#305EED"/>
<path d="M115.227 207.536L116.074 209.29L117.966 209.571L116.597 210.936L116.92 212.864L115.227 211.954L113.534 212.864L113.858 210.936L112.488 209.571L114.381 209.29L115.227 207.536Z" fill="#305EED"/>
<path d="M124.483 207.536L125.329 209.29L127.222 209.571L125.852 210.936L126.176 212.864L124.483 211.954L122.79 212.864L123.114 210.936L121.744 209.571L123.637 209.29L124.483 207.536Z" fill="#305EED"/>
<path d="M133.739 207.536L134.585 209.29L136.477 209.571L135.108 210.936L135.431 212.864L133.739 211.954L132.046 212.864L132.369 210.936L131 209.571L132.893 209.29L133.739 207.536Z" fill="#305EED"/>
<path fill-rule="evenodd" clip-rule="evenodd" d="M81.5713 201.169H63.2396V200.643H81.5713V201.169Z" fill="#53D084"/>
<path fill-rule="evenodd" clip-rule="evenodd" d="M89.0628 204.723H63.2396V204.197H89.0628V204.723Z" fill="#53D084"/>
<path d="M141.501 46.6024C146.905 46.6024 151.286 42.1221 151.286 36.5956C151.286 31.0691 146.905 26.5889 141.501 26.5889C136.097 26.5889 131.717 31.0691 131.717 36.5956C131.717 42.1221 136.097 46.6024 141.501 46.6024Z" fill="#B6D9FF"/>
<path d="M137.97 34.9935C138.499 34.9935 138.929 34.5543 138.929 34.0127C138.929 33.471 138.499 33.0322 137.97 33.0322C137.44 33.0322 137.01 33.471 137.01 34.0127C137.01 34.5543 137.44 34.9935 137.97 34.9935Z" fill="#305EED"/>
<path d="M145.219 34.8851C145.748 34.8851 146.178 34.4463 146.178 33.9047C146.178 33.3631 145.748 32.9238 145.219 32.9238C144.689 32.9238 144.26 33.3631 144.26 33.9047C144.26 34.4463 144.689 34.8851 145.219 34.8851Z" fill="#305EED"/>
<path d="M136.682 39.1814C136.779 39.3415 138.413 41.9352 141.371 41.9307C144.595 41.9258 146.215 38.8392 146.321 38.6299" stroke="#FFE458" stroke-width="0.937005" stroke-miterlimit="10" stroke-linecap="round"/>
<path d="M100.692 19.9453H83.429V22.0991H100.692V19.9453Z" fill="#305EED"/>
<path d="M95.2326 24.4355H83.429V26.5893H95.2326V24.4355Z" fill="#305EED"/>
<path d="M97.7477 28.9258H83.429V31.0797H97.7477V28.9258Z" fill="#305EED"/>
<path d="M170.477 50.7812H173.171V90.2048H170.477C168.551 90.2048 166.989 88.608 166.989 86.6382V54.3478C166.989 52.378 168.551 50.7812 170.477 50.7812Z" fill="#B6D9FF"/>
<path d="M170.079 120.135H146.438V123.098H170.079V120.135Z" fill="#53D084"/>
<path d="M170.079 126.116H158.373V129.08H170.079V126.116Z" fill="#53D084"/>
<path d="M295.529 196.9H153.7C146.841 196.9 141.281 191.214 141.281 184.2V184.199C141.281 177.185 146.841 171.499 153.7 171.499H295.529C302.387 171.499 307.947 177.185 307.947 184.199V184.2C307.947 191.214 302.387 196.9 295.529 196.9Z" fill="#B6D9FF"/>
<path d="M274.631 86.9373C294.6 86.9373 310.788 70.3815 310.788 49.9586C310.788 29.5355 294.6 12.9795 274.631 12.9795C254.661 12.9795 238.473 29.5355 238.473 49.9586C238.473 70.3815 254.661 86.9373 274.631 86.9373Z" fill="#53D084"/>
<path d="M170.283 99.1418V92.2041" stroke="#242424" stroke-width="0.649777" stroke-miterlimit="10"/>
<path d="M170.283 64.6262V43.5168C170.283 40.5679 172.621 38.1768 175.504 38.1768H278.618C281.502 38.1768 283.84 40.5679 283.84 43.5168V215.477C283.84 218.426 281.502 220.817 278.618 220.817H175.504C172.621 220.817 170.283 218.426 170.283 215.477V113.37" stroke="#242424" stroke-width="0.75" stroke-miterlimit="10"/>
<path d="M261.872 44.1569H192.251C190.827 44.1569 189.672 42.9756 189.672 41.5193V34.8348C189.672 33.3781 190.827 32.1973 192.251 32.1973H261.872C263.296 32.1973 264.45 33.3781 264.45 34.8348V41.5193C264.45 42.9756 263.296 44.1569 261.872 44.1569Z" fill="#B6D9FF"/>
<path d="M191.791 56.2474H180.362C179.56 56.2474 178.911 55.5832 178.911 54.7633C178.911 53.9439 179.56 53.2793 180.362 53.2793H191.791C192.593 53.2793 193.243 53.9439 193.243 54.7633C193.243 55.5832 192.593 56.2474 191.791 56.2474Z" fill="#B6D9FF"/>
<path d="M209.978 56.2474H198.548C197.747 56.2474 197.097 55.5832 197.097 54.7633C197.097 53.9439 197.747 53.2793 198.548 53.2793H209.978C210.78 53.2793 211.429 53.9439 211.429 54.7633C211.429 55.5832 210.78 56.2474 209.978 56.2474Z" fill="#B6D9FF"/>
<path d="M228.165 56.2474H216.735C215.934 56.2474 215.284 55.5832 215.284 54.7633C215.284 53.9439 215.934 53.2793 216.735 53.2793H228.165C228.966 53.2793 229.616 53.9439 229.616 54.7633C229.616 55.5832 228.966 56.2474 228.165 56.2474Z" fill="#B6D9FF"/>
<path d="M273.761 56.2474H262.331C261.529 56.2474 260.88 55.5832 260.88 54.7633C260.88 53.9439 261.529 53.2793 262.331 53.2793H273.761C274.562 53.2793 275.212 53.9439 275.212 54.7633C275.212 55.5832 274.562 56.2474 273.761 56.2474Z" fill="#B6D9FF"/>
<path d="M196.902 115.566C196.165 114.813 194.971 114.813 194.234 115.566L193.97 115.836L193.706 115.566C192.969 114.813 191.775 114.813 191.038 115.566C190.301 116.319 190.301 117.541 191.038 118.295L191.302 118.565L193.97 121.293L196.902 118.295C197.638 117.541 197.638 116.319 196.902 115.566Z" fill="#B6D9FF"/>
<path d="M204.962 115.111H201.311C200.395 115.111 199.652 115.871 199.652 116.808V118.337C199.652 119.274 200.395 120.034 201.311 120.034H203.714L205.484 121.293V119.94C206.143 119.715 206.621 119.086 206.621 118.337V116.808C206.621 115.871 205.878 115.111 204.962 115.111Z" stroke="#005B9D" stroke-width="0.75" stroke-miterlimit="10"/>
<path d="M249.703 122.635C248.214 122.635 247.003 121.396 247.003 119.874V116.421C247.003 114.898 248.214 113.659 249.703 113.659H263.062C264.551 113.659 265.762 114.898 265.762 116.421V119.874C265.762 121.396 264.551 122.635 263.062 122.635H249.703Z" fill="#B6D9FF"/>
<path d="M263.062 121.293H249.703C248.936 121.293 248.315 120.658 248.315 119.874V116.421C248.315 115.637 248.936 115.001 249.703 115.001H263.062C263.829 115.001 264.45 115.637 264.45 116.421V119.874C264.45 120.658 263.829 121.293 263.062 121.293Z" fill="#53D084"/>
<path d="M260.576 110.09H194.359C192.22 110.09 190.485 108.317 190.485 106.129V69.3326C190.485 67.1445 192.22 65.3711 194.359 65.3711H260.576C262.716 65.3711 264.45 67.1445 264.45 69.3326V106.129C264.45 108.317 262.716 110.09 260.576 110.09Z" fill="#B6D9FF"/>
<path d="M260.576 187.469H194.359C192.22 187.469 190.485 185.696 190.485 183.508V146.711C190.485 144.523 192.22 142.75 194.359 142.75H260.576C262.716 142.75 264.45 144.523 264.45 146.711V183.508C264.45 185.696 262.716 187.469 260.576 187.469Z" fill="#53D084"/>
<path d="M196.902 192.946C196.165 192.192 194.971 192.192 194.234 192.946L193.97 193.216L193.706 192.946C192.969 192.192 191.775 192.192 191.038 192.946C190.301 193.699 190.301 194.921 191.038 195.674L191.302 195.945L193.97 198.673L196.902 195.674C197.638 194.921 197.638 193.699 196.902 192.946Z" fill="#53D084"/>
<path d="M204.962 192.49H201.311C200.395 192.49 199.652 193.25 199.652 194.187V195.716C199.652 196.653 200.395 197.412 201.311 197.412H203.714L205.484 198.672V197.319C206.143 197.094 206.621 196.465 206.621 195.716V194.187C206.621 193.25 205.878 192.49 204.962 192.49Z" fill="#53D084"/>
<path d="M263.062 198.673H249.703C248.936 198.673 248.315 198.038 248.315 197.253V193.801C248.315 193.016 248.936 192.381 249.703 192.381H263.062C263.829 192.381 264.45 193.016 264.45 193.801V197.253C264.45 198.038 263.829 198.673 263.062 198.673Z" fill="#53D084"/>
<path d="M185.87 132.021H269.065" stroke="#242424" stroke-width="0.649777" stroke-miterlimit="10" stroke-linecap="round"/>
<path d="M305.756 93.7969L309.183 95.1369L312.611 96.4769L309.762 98.8421L306.914 101.208L306.335 97.5021L305.756 93.7969Z" fill="#B6D9FF"/>
<path d="M231.749 76.6292C231.749 74.0278 229.687 71.9189 227.143 71.9189H212.266C209.723 71.9189 207.661 74.0278 207.661 76.6292V99.373C207.661 101.974 209.723 104.083 212.266 104.083H226.761H231.749H242.67C245.213 104.083 247.275 101.974 247.275 99.373V86.0492C247.275 83.4478 245.213 81.3394 242.67 81.3394H236.354C233.811 81.3394 231.749 79.2305 231.749 76.6292Z" fill="#305EED"/>
<path d="M231.749 153.671C231.749 151.069 229.687 148.961 227.143 148.961H212.266C209.723 148.961 207.661 151.069 207.661 153.671V176.415C207.661 179.016 209.723 181.124 212.266 181.124H226.761H231.749H242.67C245.213 181.124 247.275 179.016 247.275 176.415V163.091C247.275 160.489 245.213 158.381 242.67 158.381H236.354C233.811 158.381 231.749 156.272 231.749 153.671Z" fill="#305EED"/>
<path d="M257.269 118.222C243.561 144.384 221.831 158.706 204.837 154.433C192.442 151.316 185.506 139.116 179.782 129.055C166.325 105.403 163.633 73.7332 171.624 69.8513C173.369 69.0038 175.826 69.3826 176.783 70.732C180.834 76.4441 161.087 104.426 149.861 101.304C139.45 98.4075 144.867 72.8038 131.025 63.6087C117.473 54.6056 94.0137 64.3382 71.6327 78.2449" stroke="#005B9D" stroke-width="0.75" stroke-miterlimit="10" stroke-dasharray="3.25 3.25"/>
<path d="M272.707 36.6299H279.86C282.987 36.6299 285.521 39.2218 285.521 42.4194V50.782" stroke="#242424" stroke-width="0.75" stroke-miterlimit="10"/>
<path d="M286.259 210.447V217.763C286.259 220.96 283.724 223.552 280.598 223.552H272.421" stroke="#242424" stroke-width="0.75" stroke-miterlimit="10"/>
<path d="M285.521 53.4639V64.2601V68.4153" stroke="#242424" stroke-width="0.75" stroke-miterlimit="10"/>
<path d="M285.521 72.5703V97.5022" stroke="#242424" stroke-width="0.75" stroke-miterlimit="10"/>
<path opacity="0.3" d="M170.283 171.499H168.531V196.9H170.283V171.499Z" fill="#242424"/>
<path d="M177.375 223.553H246.523" stroke="#242424" stroke-width="0.75" stroke-miterlimit="10"/>
<path d="M50.3478 57.6469C50.6819 57.6469 50.9526 57.37 50.9526 57.0287C50.9526 56.687 50.6819 56.4102 50.3478 56.4102C50.0141 56.4102 49.7434 56.687 49.7434 57.0287C49.7434 57.37 50.0141 57.6469 50.3478 57.6469Z" fill="#242424"/>
<path d="M22.8901 30.0775C23.2241 30.0775 23.4948 29.8007 23.4948 29.4592C23.4948 29.1177 23.2241 28.8408 22.8901 28.8408C22.5562 28.8408 22.2855 29.1177 22.2855 29.4592C22.2855 29.8007 22.5562 30.0775 22.8901 30.0775Z" fill="#242424"/>
<path d="M70.0919 35.9994C70.4261 35.9994 70.6968 35.7225 70.6968 35.3808C70.6968 35.0396 70.4261 34.7627 70.0919 34.7627C69.7583 34.7627 69.4875 35.0396 69.4875 35.3808C69.4875 35.7225 69.7583 35.9994 70.0919 35.9994Z" fill="#242424"/>
<path d="M18.3563 65.9896C18.6902 65.9896 18.9609 65.7128 18.9609 65.3711C18.9609 65.0293 18.6902 64.7529 18.3563 64.7529C18.0224 64.7529 17.7517 65.0293 17.7517 65.3711C17.7517 65.7128 18.0224 65.9896 18.3563 65.9896Z" fill="#242424"/>
<path d="M30.3605 101.827C30.6941 101.827 30.9648 101.55 30.9648 101.208C30.9648 100.867 30.6941 100.59 30.3605 100.59C30.0263 100.59 29.7556 100.867 29.7556 101.208C29.7556 101.55 30.0263 101.827 30.3605 101.827Z" fill="#242424"/>
<path d="M56.7982 13.2582C57.1319 13.2582 57.4026 12.9813 57.4026 12.6398C57.4026 12.2983 57.1319 12.0215 56.7982 12.0215C56.4641 12.0215 56.1934 12.2983 56.1934 12.6398C56.1934 12.9813 56.4641 13.2582 56.7982 13.2582Z" fill="#242424"/>
<path d="M106.619 88.6377H121.85" stroke="#005B9D" stroke-width="0.75" stroke-miterlimit="10"/>
<path d="M106.619 91.332H121.85" stroke="#005B9D" stroke-width="0.75" stroke-miterlimit="10"/>
<path d="M106.619 94.0254H121.85" stroke="#005B9D" stroke-width="0.75" stroke-miterlimit="10"/>
<path fill-rule="evenodd" clip-rule="evenodd" d="M70.2507 173.812L73.407 177.04L76.5492 173.826L79.5602 176.906L82.4624 173.938L85.7525 177.303C85.8264 177.378 85.8264 177.501 85.7525 177.576C85.6785 177.652 85.5587 177.652 85.4848 177.576L82.4624 174.486L79.5602 177.454L76.5492 174.374L73.407 177.588L70.2507 174.36L67.049 177.635L63.8928 174.407L60.8533 177.516C60.7794 177.592 60.6591 177.592 60.5852 177.516C60.5113 177.44 60.5113 177.318 60.5852 177.242L63.8928 173.859L67.049 177.087L70.2507 173.812Z" fill="#53D084"/>
<path fill-rule="evenodd" clip-rule="evenodd" d="M76.8126 177.654L79.9688 180.882L83.1115 177.668L86.1226 180.748L89.0247 177.78L92.3148 181.144C92.3887 181.22 92.3887 181.342 92.3148 181.418C92.2409 181.494 92.1206 181.494 92.0467 181.418L89.0247 178.327L86.1226 181.295L83.1115 178.216L79.9688 181.43L76.8126 178.202L73.6109 181.477L70.4551 178.249L67.4152 181.358C67.3413 181.433 67.2215 181.433 67.1471 181.358C67.0732 181.282 67.0732 181.16 67.1471 181.083L70.4551 177.701L73.6109 180.929L76.8126 177.654Z" fill="#53D084"/>
<path d="M235.846 213.777H218.277C216.838 213.777 215.672 212.584 215.672 211.113C215.672 209.642 216.838 208.449 218.277 208.449H235.846C237.284 208.449 238.451 209.642 238.451 211.113C238.451 212.584 237.284 213.777 235.846 213.777Z" fill="#B6D9FF"/>
<path d="M25.0341 202.482C19.9802 198.121 13.8556 187.828 14.3957 180.99C14.9223 174.324 20.5945 172.55 22.67 164.872C24.99 156.289 19.6652 151.986 17.1538 140.694C13.4854 124.197 21.5523 118.562 20.6999 102.412C20.2648 94.1662 17.4413 81.9744 5.3335 67.3535" stroke="#005B9D" stroke-width="0.75" stroke-miterlimit="10"/>
<path d="M310.433 156.035L306.897 147.883L298.805 129.226C297.626 126.506 294.514 125.28 291.855 126.486C290.226 127.225 289.148 128.707 288.826 130.37C287.405 129.497 285.608 129.32 283.978 130.059C282.348 130.798 281.271 132.281 280.949 133.943C279.528 133.071 277.73 132.893 276.101 133.632C273.442 134.838 272.243 138.021 273.422 140.74L263.801 118.556C262.622 115.837 259.51 114.61 256.851 115.817C254.191 117.023 252.992 120.205 254.172 122.925L269.279 157.759C269.524 158.322 269.276 158.98 268.725 159.23C268.326 159.411 267.859 159.33 267.54 159.025L258.896 150.765C256.951 148.552 253.621 148.371 251.458 150.36C249.295 152.349 249.118 155.755 251.062 157.968L269.278 175.375C271.724 177.712 275.294 178.337 278.36 176.965L307.452 163.944C310.41 162.602 311.745 159.061 310.433 156.035Z" fill="#305EED"/>
<path d="M318.08 173.671L316.414 169.825C315.526 167.785 313.195 166.863 311.201 167.767L282.079 181.212C280.085 182.116 279.184 184.504 280.067 186.544L281.738 190.39C282.621 192.43 284.957 193.351 286.951 192.448L316.073 179.003C318.067 178.095 318.964 175.711 318.08 173.671ZM312.224 176.444C311.131 176.941 309.854 176.436 309.368 175.322C308.883 174.204 309.377 172.898 310.471 172.401C311.564 171.904 312.841 172.41 313.326 173.524C313.812 174.642 313.318 175.953 312.224 176.444Z" fill="#305EED"/>
</g>
<defs>
<clipPath id="clip0">
<rect width="320" height="240" fill="white"/>
</clipPath>
</defs>
</svg>
