<svg viewBox="0 0 320 240" fill="none" xmlns="http://www.w3.org/2000/svg">
<g clip-path="url(#clip0)">
<path d="M117.671 126.893C120.466 126.893 122.732 124.504 122.732 121.556C122.732 118.609 120.466 116.22 117.671 116.22C114.876 116.22 112.61 118.609 112.61 121.556C112.61 124.504 114.876 126.893 117.671 126.893Z" fill="#FFE458"/>
<path d="M275.68 56.0643L271.086 51.875L268.291 55.4774L273.842 58.414L275.68 56.0643Z" fill="#F2C193"/>
<path d="M159.171 104.018C160.219 104.018 161.07 103.149 161.07 102.076C161.07 101.004 160.219 100.135 159.171 100.135C158.122 100.135 157.272 101.004 157.272 102.076C157.272 103.149 158.122 104.018 159.171 104.018Z" fill="#305EED"/>
<path d="M10.6312 25.3854C11.6797 25.3854 12.5297 24.5161 12.5297 23.4437C12.5297 22.3713 11.6797 21.502 10.6312 21.502C9.58258 21.502 8.73254 22.3713 8.73254 23.4437C8.73254 24.5161 9.58258 25.3854 10.6312 25.3854Z" fill="#53D084"/>
<path d="M232.367 52.2978C233.415 52.2978 234.265 51.4283 234.265 50.3562C234.265 49.2836 233.415 48.4141 232.367 48.4141C231.318 48.4141 230.468 49.2836 230.468 50.3562C230.468 51.4283 231.318 52.2978 232.367 52.2978Z" fill="#305EED"/>
<path d="M227.868 137.248L225.624 132.845L231.63 133.411L231.562 136.698L227.868 137.248Z" fill="#B6D9FF"/>
<path d="M67.9996 122.038H41.0477C38.1262 122.038 35.7575 124.461 35.7575 127.449V138.045H19.7618C18.7207 138.045 17.8768 138.908 17.8768 139.973V220.004H41.0477H45.2055H67.9996C70.9215 220.004 73.2899 217.581 73.2899 214.593V127.449C73.2899 124.461 70.9215 122.038 67.9996 122.038Z" fill="#B6D9FF"/>
<path d="M133.48 233.239C133.851 233.239 134.152 232.932 134.152 232.552C134.152 232.172 133.851 231.864 133.48 231.864C133.108 231.864 132.808 232.172 132.808 232.552C132.808 232.932 133.108 233.239 133.48 233.239Z" fill="#B6D9FF"/>
<path d="M184.734 233.273C185.105 233.273 185.407 232.966 185.407 232.586C185.407 232.206 185.105 231.898 184.734 231.898C184.363 231.898 184.062 232.206 184.062 232.586C184.062 232.966 184.363 233.273 184.734 233.273Z" fill="#B6D9FF"/>
<path d="M101.936 237.859C102.308 237.859 102.609 237.552 102.609 237.172C102.609 236.792 102.308 236.484 101.936 236.484C101.565 236.484 101.264 236.792 101.264 237.172C101.264 237.552 101.565 237.859 101.936 237.859Z" fill="#B6D9FF"/>
<path d="M100.592 235.302C100.963 235.302 101.265 234.994 101.265 234.615C101.265 234.235 100.963 233.927 100.592 233.927C100.221 233.927 99.9196 234.235 99.9196 234.615C99.9196 234.994 100.221 235.302 100.592 235.302Z" fill="#B6D9FF"/>
<path d="M51.4073 234.417C51.7785 234.417 52.0793 234.109 52.0793 233.73C52.0793 233.35 51.7785 233.042 51.4073 233.042C51.0357 233.042 50.7349 233.35 50.7349 233.73C50.7349 234.109 51.0357 234.417 51.4073 234.417Z" fill="#B6D9FF"/>
<path d="M49.5481 238.417C49.9193 238.417 50.2201 238.109 50.2201 237.729C50.2201 237.35 49.9193 237.042 49.5481 237.042C49.1764 237.042 48.8756 237.35 48.8756 237.729C48.8756 238.109 49.1764 238.417 49.5481 238.417Z" fill="#B6D9FF"/>
<path d="M190.316 234.14C190.687 234.14 190.989 233.832 190.989 233.452C190.989 233.072 190.687 232.765 190.316 232.765C189.945 232.765 189.644 233.072 189.644 233.452C189.644 233.832 189.945 234.14 190.316 234.14Z" fill="#B6D9FF"/>
<path d="M107.45 232.552C107.821 232.552 108.122 232.244 108.122 231.865C108.122 231.484 107.821 231.177 107.45 231.177C107.079 231.177 106.778 231.484 106.778 231.865C106.778 232.244 107.079 232.552 107.45 232.552Z" fill="#B6D9FF"/>
<path d="M27.8322 235.965C28.2035 235.965 28.5045 235.657 28.5045 235.278C28.5045 234.898 28.2035 234.59 27.8322 234.59C27.4609 234.59 27.1599 234.898 27.1599 235.278C27.1599 235.657 27.4609 235.965 27.8322 235.965Z" fill="#B6D9FF"/>
<path d="M178.281 232.548C178.652 232.548 178.953 232.241 178.953 231.861C178.953 231.481 178.652 231.173 178.281 231.173C177.91 231.173 177.609 231.481 177.609 231.861C177.609 232.241 177.91 232.548 178.281 232.548Z" fill="#B6D9FF"/>
<path d="M196.635 235.965C197.007 235.965 197.308 235.657 197.308 235.278C197.308 234.898 197.007 234.59 196.635 234.59C196.264 234.59 195.963 234.898 195.963 235.278C195.963 235.657 196.264 235.965 196.635 235.965Z" fill="#B6D9FF"/>
<path d="M172.98 236.253C173.351 236.253 173.652 235.945 173.652 235.566C173.652 235.186 173.351 234.878 172.98 234.878C172.609 234.878 172.308 235.186 172.308 235.566C172.308 235.945 172.609 236.253 172.98 236.253Z" fill="#B6D9FF"/>
<path d="M106.778 236.484C107.149 236.484 107.45 236.176 107.45 235.796C107.45 235.416 107.149 235.108 106.778 235.108C106.406 235.108 106.106 235.416 106.106 235.796C106.106 236.176 106.406 236.484 106.778 236.484Z" fill="#B6D9FF"/>
<path d="M118.248 234.338C118.62 234.338 118.921 234.03 118.921 233.651C118.921 233.271 118.62 232.963 118.248 232.963C117.877 232.963 117.576 233.271 117.576 233.651C117.576 234.03 117.877 234.338 118.248 234.338Z" fill="#B6D9FF"/>
<path d="M123.904 233.239C124.275 233.239 124.576 232.932 124.576 232.552C124.576 232.172 124.275 231.864 123.904 231.864C123.532 231.864 123.231 232.172 123.231 232.552C123.231 232.932 123.532 233.239 123.904 233.239Z" fill="#B6D9FF"/>
<path d="M242.997 238.029C243.369 238.029 243.669 237.721 243.669 237.341C243.669 236.961 243.369 236.653 242.997 236.653C242.626 236.653 242.325 236.961 242.325 237.341C242.325 237.721 242.626 238.029 242.997 238.029Z" fill="#B6D9FF"/>
<path d="M97.338 235.565C97.7096 235.565 98.0104 235.257 98.0104 234.877C98.0104 234.498 97.7096 234.189 97.338 234.189C96.9668 234.189 96.666 234.498 96.666 234.877C96.666 235.257 96.9668 235.565 97.338 235.565Z" fill="#B6D9FF"/>
<path d="M182.168 236.653C182.539 236.653 182.84 236.345 182.84 235.965C182.84 235.585 182.539 235.277 182.168 235.277C181.796 235.277 181.495 235.585 181.495 235.965C181.495 236.345 181.796 236.653 182.168 236.653Z" fill="#B6D9FF"/>
<path d="M93.9789 233.236C94.3501 233.236 94.6509 232.928 94.6509 232.548C94.6509 232.168 94.3501 231.86 93.9789 231.86C93.6073 231.86 93.3065 232.168 93.3065 232.548C93.3065 232.928 93.6073 233.236 93.9789 233.236Z" fill="#B6D9FF"/>
<path d="M89.9791 236.48C90.3503 236.48 90.6511 236.172 90.6511 235.792C90.6511 235.413 90.3503 235.104 89.9791 235.104C89.6075 235.104 89.3066 235.413 89.3066 235.792C89.3066 236.172 89.6075 236.48 89.9791 236.48Z" fill="#B6D9FF"/>
<path d="M71.7099 234.14C72.0815 234.14 72.3823 233.832 72.3823 233.452C72.3823 233.072 72.0815 232.765 71.7099 232.765C71.3387 232.765 71.0374 233.072 71.0374 233.452C71.0374 233.832 71.3387 234.14 71.7099 234.14Z" fill="#B6D9FF"/>
<path d="M129.108 233.239C129.479 233.239 129.78 232.932 129.78 232.552C129.78 232.172 129.479 231.864 129.108 231.864C128.736 231.864 128.435 232.172 128.435 232.552C128.435 232.932 128.736 233.239 129.108 233.239Z" fill="#B6D9FF"/>
<path d="M115.294 236.827C115.665 236.827 115.966 236.519 115.966 236.139C115.966 235.759 115.665 235.451 115.294 235.451C114.923 235.451 114.622 235.759 114.622 236.139C114.622 236.519 114.923 236.827 115.294 236.827Z" fill="#B6D9FF"/>
<path d="M75.5971 236.07C75.9683 236.07 76.2695 235.762 76.2695 235.382C76.2695 235.002 75.9683 234.694 75.5971 234.694C75.2259 234.694 74.9246 235.002 74.9246 235.382C74.9246 235.762 75.2259 236.07 75.5971 236.07Z" fill="#B6D9FF"/>
<path d="M113.174 233.239C113.545 233.239 113.846 232.932 113.846 232.552C113.846 232.172 113.545 231.864 113.174 231.864C112.802 231.864 112.502 232.172 112.502 232.552C112.502 232.932 112.802 233.239 113.174 233.239Z" fill="#B6D9FF"/>
<path d="M111.482 237.514C111.854 237.514 112.154 237.206 112.154 236.826C112.154 236.446 111.854 236.139 111.482 236.139C111.111 236.139 110.81 236.446 110.81 236.826C110.81 237.206 111.111 237.514 111.482 237.514Z" fill="#B6D9FF"/>
<path d="M204.447 238.029C204.819 238.029 205.12 237.721 205.12 237.341C205.12 236.961 204.819 236.653 204.447 236.653C204.076 236.653 203.775 236.961 203.775 237.341C203.775 237.721 204.076 238.029 204.447 238.029Z" fill="#B6D9FF"/>
<path d="M210.566 232.585C210.938 232.585 211.239 232.277 211.239 231.898C211.239 231.518 210.938 231.21 210.566 231.21C210.195 231.21 209.894 231.518 209.894 231.898C209.894 232.277 210.195 232.585 210.566 232.585Z" fill="#B6D9FF"/>
<path d="M203.775 233.616C204.146 233.616 204.447 233.309 204.447 232.929C204.447 232.549 204.146 232.241 203.775 232.241C203.404 232.241 203.103 232.549 203.103 232.929C203.103 233.309 203.404 233.616 203.775 233.616Z" fill="#B6D9FF"/>
<path d="M228.905 231.547C229.276 231.547 229.578 231.239 229.578 230.86C229.578 230.48 229.276 230.172 228.905 230.172C228.534 230.172 228.233 230.48 228.233 230.86C228.233 231.239 228.534 231.547 228.905 231.547Z" fill="#B6D9FF"/>
<path d="M66.8632 236.48C67.2348 236.48 67.5356 236.172 67.5356 235.792C67.5356 235.413 67.2348 235.104 66.8632 235.104C66.492 235.104 66.1912 235.413 66.1912 235.792C66.1912 236.172 66.492 236.48 66.8632 236.48Z" fill="#B6D9FF"/>
<path d="M62.7534 234.417C63.1251 234.417 63.4259 234.109 63.4259 233.73C63.4259 233.35 63.1251 233.042 62.7534 233.042C62.3822 233.042 62.0814 233.35 62.0814 233.73C62.0814 234.109 62.3822 234.417 62.7534 234.417Z" fill="#B6D9FF"/>
<path d="M125.818 236.827C126.19 236.827 126.491 236.519 126.491 236.139C126.491 235.759 126.19 235.451 125.818 235.451C125.447 235.451 125.146 235.759 125.146 236.139C125.146 236.519 125.447 236.827 125.818 236.827Z" fill="#B6D9FF"/>
<path d="M224.787 236.022C225.158 236.022 225.459 235.714 225.459 235.334C225.459 234.955 225.158 234.646 224.787 234.646C224.415 234.646 224.114 234.955 224.114 235.334C224.114 235.714 224.415 236.022 224.787 236.022Z" fill="#B6D9FF"/>
<path d="M218.931 231.898C219.302 231.898 219.603 231.59 219.603 231.21C219.603 230.831 219.302 230.522 218.931 230.522C218.56 230.522 218.258 230.831 218.258 231.21C218.258 231.59 218.56 231.898 218.931 231.898Z" fill="#B6D9FF"/>
<path d="M239.697 234.992C240.069 234.992 240.369 234.684 240.369 234.304C240.369 233.924 240.069 233.616 239.697 233.616C239.326 233.616 239.025 233.924 239.025 234.304C239.025 234.684 239.326 234.992 239.697 234.992Z" fill="#B6D9FF"/>
<path d="M121.838 236.484C122.21 236.484 122.511 236.176 122.511 235.796C122.511 235.416 122.21 235.108 121.838 235.108C121.467 235.108 121.166 235.416 121.166 235.796C121.166 236.176 121.467 236.484 121.838 236.484Z" fill="#B6D9FF"/>
<path d="M233.289 235.679C233.66 235.679 233.961 235.371 233.961 234.991C233.961 234.612 233.66 234.304 233.289 234.304C232.918 234.304 232.617 234.612 232.617 234.991C232.617 235.371 232.918 235.679 233.289 235.679Z" fill="#B6D9FF"/>
<path d="M80.973 234.829C81.3442 234.829 81.6451 234.521 81.6451 234.141C81.6451 233.761 81.3442 233.453 80.973 233.453C80.6014 233.453 80.3006 233.761 80.3006 234.141C80.3006 234.521 80.6014 234.829 80.973 234.829Z" fill="#B6D9FF"/>
<path d="M87.0008 233.236C87.3724 233.236 87.6732 232.928 87.6732 232.548C87.6732 232.168 87.3724 231.86 87.0008 231.86C86.6296 231.86 86.3283 232.168 86.3283 232.548C86.3283 232.928 86.6296 233.236 87.0008 233.236Z" fill="#B6D9FF"/>
<path d="M144.614 237.859C144.985 237.859 145.286 237.552 145.286 237.172C145.286 236.792 144.985 236.484 144.614 236.484C144.243 236.484 143.942 236.792 143.942 237.172C143.942 237.552 144.243 237.859 144.614 237.859Z" fill="#B6D9FF"/>
<path d="M36.5529 234.829C36.9241 234.829 37.2254 234.521 37.2254 234.141C37.2254 233.761 36.9241 233.453 36.5529 233.453C36.1817 233.453 35.8805 233.761 35.8805 234.141C35.8805 234.521 36.1817 234.829 36.5529 234.829Z" fill="#B6D9FF"/>
<path d="M18.1267 236.253C18.498 236.253 18.799 235.945 18.799 235.566C18.799 235.186 18.498 234.878 18.1267 234.878C17.7553 234.878 17.4543 235.186 17.4543 235.566C17.4543 235.945 17.7553 236.253 18.1267 236.253Z" fill="#B6D9FF"/>
<path d="M43.4073 236.136C43.7789 236.136 44.0797 235.828 44.0797 235.448C44.0797 235.068 43.7789 234.761 43.4073 234.761C43.0361 234.761 42.7352 235.068 42.7352 235.448C42.7352 235.828 43.0361 236.136 43.4073 236.136Z" fill="#B6D9FF"/>
<path d="M35.8801 237.341C36.2513 237.341 36.5526 237.033 36.5526 236.654C36.5526 236.273 36.2513 235.966 35.8801 235.966C35.509 235.966 35.2077 236.273 35.2077 236.654C35.2077 237.033 35.509 237.341 35.8801 237.341Z" fill="#B6D9FF"/>
<path d="M10.8819 238.417C11.2532 238.417 11.5542 238.109 11.5542 237.729C11.5542 237.35 11.2532 237.042 10.8819 237.042C10.5105 237.042 10.2095 237.35 10.2095 237.729C10.2095 238.109 10.5105 238.417 10.8819 238.417Z" fill="#B6D9FF"/>
<path d="M153.385 236.136C153.756 236.136 154.057 235.828 154.057 235.448C154.057 235.068 153.756 234.761 153.385 234.761C153.013 234.761 152.712 235.068 152.712 235.448C152.712 235.828 153.013 236.136 153.385 236.136Z" fill="#B6D9FF"/>
<path d="M216.134 236.253C216.505 236.253 216.806 235.945 216.806 235.566C216.806 235.186 216.505 234.878 216.134 234.878C215.762 234.878 215.461 235.186 215.461 235.566C215.461 235.945 215.762 236.253 216.134 236.253Z" fill="#B6D9FF"/>
<path d="M140.688 234.338C141.059 234.338 141.36 234.03 141.36 233.651C141.36 233.271 141.059 232.963 140.688 232.963C140.317 232.963 140.015 233.271 140.015 233.651C140.015 234.03 140.317 234.338 140.688 234.338Z" fill="#B6D9FF"/>
<path d="M148.614 232.959C148.985 232.959 149.286 232.651 149.286 232.272C149.286 231.892 148.985 231.584 148.614 231.584C148.242 231.584 147.942 231.892 147.942 232.272C147.942 232.651 148.242 232.959 148.614 232.959Z" fill="#B6D9FF"/>
<path d="M134.824 236.484C135.196 236.484 135.497 236.176 135.497 235.796C135.497 235.416 135.196 235.108 134.824 235.108C134.453 235.108 134.152 235.416 134.152 235.796C134.152 236.176 134.453 236.484 134.824 236.484Z" fill="#B6D9FF"/>
<path d="M131.059 236.484C131.43 236.484 131.731 236.176 131.731 235.796C131.731 235.416 131.43 235.108 131.059 235.108C130.688 235.108 130.387 235.416 130.387 235.796C130.387 236.176 130.688 236.484 131.059 236.484Z" fill="#B6D9FF"/>
<path d="M292.413 236.94C292.785 236.94 293.085 236.633 293.085 236.253C293.085 235.873 292.785 235.565 292.413 235.565C292.042 235.565 291.741 235.873 291.741 236.253C291.741 236.633 292.042 236.94 292.413 236.94Z" fill="#B6D9FF"/>
<path d="M155.724 231.173C156.095 231.173 156.396 230.865 156.396 230.486C156.396 230.106 156.095 229.798 155.724 229.798C155.353 229.798 155.052 230.106 155.052 230.486C155.052 230.865 155.353 231.173 155.724 231.173Z" fill="#B6D9FF"/>
<path d="M162.986 232.271C163.357 232.271 163.658 231.964 163.658 231.584C163.658 231.204 163.357 230.896 162.986 230.896C162.614 230.896 162.313 231.204 162.313 231.584C162.313 231.964 162.614 232.271 162.986 232.271Z" fill="#B6D9FF"/>
<path d="M159.283 235.448C159.654 235.448 159.955 235.14 159.955 234.76C159.955 234.38 159.654 234.072 159.283 234.072C158.911 234.072 158.61 234.38 158.61 234.76C158.61 235.14 158.911 235.448 159.283 235.448Z" fill="#B6D9FF"/>
<path d="M166.894 232.548C167.266 232.548 167.567 232.241 167.567 231.861C167.567 231.481 167.266 231.173 166.894 231.173C166.523 231.173 166.222 231.481 166.222 231.861C166.222 232.241 166.523 232.548 166.894 232.548Z" fill="#B6D9FF"/>
<path d="M56.7344 236.253C57.106 236.253 57.4068 235.945 57.4068 235.566C57.4068 235.186 57.106 234.878 56.7344 234.878C56.3632 234.878 56.062 235.186 56.062 235.566C56.062 235.945 56.3632 236.253 56.7344 236.253Z" fill="#B6D9FF"/>
<path d="M248.423 235.679C248.795 235.679 249.096 235.371 249.096 234.991C249.096 234.612 248.795 234.304 248.423 234.304C248.052 234.304 247.751 234.612 247.751 234.991C247.751 235.371 248.052 235.679 248.423 235.679Z" fill="#B6D9FF"/>
<path d="M253.803 237.921C254.174 237.921 254.475 237.613 254.475 237.234C254.475 236.854 254.174 236.546 253.803 236.546C253.432 236.546 253.13 236.854 253.13 237.234C253.13 237.613 253.432 237.921 253.803 237.921Z" fill="#B6D9FF"/>
<path d="M278.582 237.398C278.954 237.398 279.255 237.09 279.255 236.71C279.255 236.33 278.954 236.022 278.582 236.022C278.211 236.022 277.91 236.33 277.91 236.71C277.91 237.09 278.211 237.398 278.582 237.398Z" fill="#B6D9FF"/>
<path d="M297.597 234.14C297.969 234.14 298.27 233.832 298.27 233.452C298.27 233.072 297.969 232.765 297.597 232.765C297.226 232.765 296.925 233.072 296.925 233.452C296.925 233.832 297.226 234.14 297.597 234.14Z" fill="#B6D9FF"/>
<path d="M316.931 234.304C317.302 234.304 317.603 233.996 317.603 233.616C317.603 233.236 317.302 232.929 316.931 232.929C316.56 232.929 316.259 233.236 316.259 233.616C316.259 233.996 316.56 234.304 316.931 234.304Z" fill="#B6D9FF"/>
<path d="M266.251 236.94C266.622 236.94 266.923 236.633 266.923 236.253C266.923 235.873 266.622 235.565 266.251 235.565C265.879 235.565 265.578 235.873 265.578 236.253C265.578 236.633 265.879 236.94 266.251 236.94Z" fill="#B6D9FF"/>
<path d="M168.496 235.448C168.867 235.448 169.168 235.14 169.168 234.76C169.168 234.38 168.867 234.072 168.496 234.072C168.125 234.072 167.823 234.38 167.823 234.76C167.823 235.14 168.125 235.448 168.496 235.448Z" fill="#B6D9FF"/>
<path d="M288.259 233.453C288.63 233.453 288.931 233.145 288.931 232.765C288.931 232.385 288.63 232.077 288.259 232.077C287.888 232.077 287.586 232.385 287.586 232.765C287.586 233.145 287.888 233.453 288.259 233.453Z" fill="#B6D9FF"/>
<path d="M308.648 234.14C309.019 234.14 309.32 233.832 309.32 233.452C309.32 233.072 309.019 232.765 308.648 232.765C308.276 232.765 307.975 233.072 307.975 233.452C307.975 233.832 308.276 234.14 308.648 234.14Z" fill="#B6D9FF"/>
<path d="M207.451 198.47L198.84 196.086L196.509 204.893L205.12 207.277L207.451 198.47Z" fill="#B6D9FF"/>
<path d="M6.0196 198.233C7.91476 198.233 9.45106 196.661 9.45106 194.723C9.45106 192.785 7.91476 191.214 6.0196 191.214C4.12444 191.214 2.58813 192.785 2.58813 194.723C2.58813 196.661 4.12444 198.233 6.0196 198.233Z" stroke="#78D2EE" stroke-width="0.75" stroke-miterlimit="10"/>
<path d="M219.603 155.049C219.603 155.049 203.984 155.368 203.611 154.875C203.238 154.382 206.448 145.057 212.919 151.119C215.588 153.62 214.655 153.627 215.838 153.097C217.02 152.568 219.653 153.093 219.603 155.049Z" fill="#53D084"/>
<path d="M218.107 151.154H215.085C215.009 151.154 214.972 151.058 215.029 151.006C215.46 150.604 216.717 149.564 217.557 150.178C218.585 150.929 218.107 151.154 218.107 151.154Z" fill="#53D084"/>
<path d="M29.6095 122.202C29.6095 122.202 6.73003 122.67 6.18419 121.948C5.63835 121.226 10.3401 107.566 19.8182 116.445C23.7291 120.11 22.3625 120.119 24.0939 119.343C25.8254 118.568 29.6833 119.338 29.6095 122.202Z" fill="#53D084"/>
<path d="M27.4192 116.496H22.9925C22.8807 116.496 22.8264 116.355 22.9091 116.279C23.5421 115.69 25.3822 114.166 26.6124 115.065C28.1185 116.165 27.4192 116.496 27.4192 116.496Z" fill="#53D084"/>
<path d="M254.429 222.761L251.803 213.694L256.516 213.144L258.941 221.52C259.057 221.958 258.803 222.409 258.374 222.527L255.413 223.341C254.985 223.46 254.544 223.2 254.429 222.761Z" fill="#F2C193"/>
<path d="M277.125 221.801L273.937 209.688C273.822 209.25 274.076 208.799 274.504 208.681L277.466 207.866C277.894 207.748 278.335 208.008 278.45 208.446L281.638 220.559C281.753 220.997 281.499 221.448 281.071 221.566L278.109 222.381C277.681 222.499 277.24 222.239 277.125 221.801Z" fill="#F2C193"/>
<path d="M254.128 129.294L239.625 173L249.44 215.123L260.497 215.35L252.172 175.671L273.711 132.07L254.128 129.294Z" fill="#305EED"/>
<path d="M265.488 132.341L286.936 131.128C286.936 131.128 285.381 143.709 281.475 146.541C272.923 152.741 264.455 149.252 264.455 149.252L265.488 132.341Z" fill="#305EED"/>
<path d="M269.097 132.248L257.539 133.088L264.748 147.154L269.097 132.248Z" fill="#305EED"/>
<path d="M265.985 138.35L259.617 172.385L272.573 215.123H282.859L273.711 172.904L281.915 139.539L265.985 138.35Z" fill="#305EED"/>
<path d="M277.175 52.0742C277.119 56.3256 276.851 59.9198 279.063 64.2444C279.063 64.2444 272.196 65.7909 265.878 66.9324C266.283 64.1845 266.161 62.7392 265.878 60.667" fill="#F2C193"/>
<path d="M277.175 52.0742C277.119 56.3256 276.851 59.9198 279.063 64.2444C279.063 64.2444 272.196 65.7909 265.878 66.9324C266.283 64.1845 266.161 62.7392 265.878 60.667" stroke="#262526" stroke-width="0.851902" stroke-miterlimit="10" stroke-linecap="round"/>
<path d="M271.828 55.0231L270.818 59.1629C269.701 60.1005 261.686 61.5992 261.054 60.8378C259.632 59.1254 258.897 48.4319 259.306 44.3482C259.477 42.6358 259.95 41.8532 260.156 40.3145L272.174 40.7803L277.451 41.9433L277.91 49.7311L277.451 51.347L277.144 53.9932" fill="#F2C193"/>
<path d="M271.828 55.0231L270.818 59.1629C269.701 60.1005 261.686 61.5992 261.054 60.8378C259.632 59.1254 258.897 48.4319 259.306 44.3482C259.477 42.6358 259.95 41.8532 260.156 40.3145L272.174 40.7803L277.451 41.9433L277.91 49.7311L277.451 51.347L277.144 53.9932" stroke="#262526" stroke-width="0.851902" stroke-miterlimit="10" stroke-linecap="round"/>
<path d="M269.113 54.285L269.144 54.2695C269.153 54.2695 269.159 54.273 269.16 54.2743L269.174 54.339L269.125 54.3493L269.113 54.285Z" fill="#231F20"/>
<path d="M269.143 54.1094C269.079 54.1094 269.017 54.1413 268.977 54.2012C268.913 54.2964 268.937 54.417 269.032 54.4795C269.067 54.5028 269.106 54.5144 269.144 54.5144C269.209 54.5144 269.271 54.4825 269.311 54.4226C269.375 54.327 269.351 54.2076 269.256 54.1443C269.221 54.1206 269.181 54.1094 269.143 54.1094Z" fill="#262526"/>
<path d="M262.978 59.6815C262.916 59.7771 262.795 59.8055 262.7 59.7426C262.604 59.6797 262.583 59.5578 262.646 59.4621C262.709 59.3665 262.829 59.3376 262.925 59.4009C263.02 59.4643 263.042 59.5858 262.978 59.6815Z" fill="#231F20"/>
<path d="M262.815 59.3672C262.75 59.3672 262.686 59.4008 262.646 59.462C262.583 59.5576 262.604 59.6796 262.7 59.7425C262.734 59.7653 262.772 59.7761 262.809 59.7761C262.875 59.7761 262.938 59.7425 262.978 59.6813C263.042 59.5857 263.02 59.4641 262.925 59.4008C262.89 59.378 262.852 59.3672 262.815 59.3672Z" fill="#262526"/>
<path d="M260.549 55.3409C260.485 55.4366 260.365 55.4599 260.27 55.397C260.176 55.3341 260.152 55.2125 260.216 55.1173C260.28 55.0221 260.4 54.9984 260.494 55.0617C260.589 55.1251 260.612 55.2457 260.549 55.3409Z" fill="#231F20"/>
<path d="M260.382 55.0264C260.317 55.0264 260.256 55.0578 260.216 55.1177C260.152 55.2129 260.176 55.334 260.27 55.3969C260.306 55.4206 260.345 55.4323 260.384 55.4323C260.447 55.4323 260.509 55.4004 260.549 55.3409C260.612 55.2457 260.589 55.125 260.494 55.0617C260.459 55.0376 260.42 55.0264 260.382 55.0264Z" fill="#262526"/>
<path d="M269.114 55.8728L269.146 55.8564C269.156 55.8564 269.161 55.8599 269.163 55.8612L269.175 55.926L269.125 55.938L269.114 55.8728Z" fill="#231F20"/>
<path d="M269.142 55.6973C269.078 55.6973 269.017 55.7287 268.977 55.7878C268.913 55.883 268.938 56.0028 269.032 56.0657C269.068 56.0894 269.108 56.101 269.147 56.101C269.21 56.101 269.272 56.07 269.311 56.011C269.375 55.9153 269.35 55.7955 269.256 55.733C269.22 55.7093 269.18 55.6973 269.142 55.6973Z" fill="#262526"/>
<path d="M260.988 58.319C260.925 58.4146 260.804 58.4388 260.709 58.3759C260.615 58.3134 260.591 58.1932 260.654 58.0975C260.718 58.0023 260.839 57.9777 260.934 58.0406C261.028 58.1035 261.052 58.2238 260.988 58.319Z" fill="#231F20"/>
<path d="M260.821 58.0059C260.757 58.0059 260.694 58.0377 260.654 58.0976C260.591 58.1933 260.615 58.3135 260.709 58.3764C260.745 58.3997 260.784 58.4109 260.822 58.4109C260.886 58.4109 260.949 58.379 260.988 58.3191C261.052 58.2239 261.028 58.1037 260.934 58.0408C260.898 58.0171 260.859 58.0059 260.821 58.0059Z" fill="#262526"/>
<path d="M270.606 57.4044C270.543 57.5001 270.423 57.5233 270.328 57.4604C270.234 57.3975 270.21 57.2764 270.273 57.1812C270.337 57.0855 270.458 57.0618 270.552 57.1252C270.646 57.1885 270.67 57.3092 270.606 57.4044Z" fill="#231F20"/>
<path d="M270.439 57.0898C270.375 57.0898 270.313 57.1213 270.273 57.1812C270.21 57.2764 270.234 57.3975 270.328 57.4604C270.364 57.4841 270.403 57.4958 270.441 57.4958C270.505 57.4958 270.567 57.4639 270.606 57.4044C270.67 57.3092 270.646 57.1885 270.552 57.1252C270.517 57.1015 270.477 57.0898 270.439 57.0898Z" fill="#262526"/>
<path d="M270.409 53.247L270.44 53.2324C270.45 53.2324 270.456 53.2359 270.458 53.2371L270.471 53.2998L270.422 53.3101L270.409 53.247Z" fill="#231F20"/>
<path d="M270.44 53.0703C270.376 53.0703 270.314 53.1026 270.274 53.1625C270.21 53.2582 270.233 53.3793 270.328 53.4422C270.363 53.4659 270.402 53.4767 270.44 53.4767C270.505 53.4767 270.567 53.4448 270.607 53.3853C270.671 53.2896 270.648 53.1686 270.553 53.1052C270.517 53.0815 270.479 53.0703 270.44 53.0703Z" fill="#262526"/>
<path d="M261.669 60.2L261.701 60.1846C261.711 60.1846 261.717 60.1884 261.719 60.1897L261.73 60.2519L261.681 60.2614L261.669 60.2Z" fill="#231F20"/>
<path d="M261.7 60.0215C261.636 60.0215 261.573 60.0538 261.533 60.1141C261.47 60.2094 261.494 60.3313 261.588 60.3942C261.624 60.4175 261.663 60.4287 261.701 60.4287C261.765 60.4287 261.827 60.3968 261.867 60.3365C261.931 60.2408 261.907 60.1197 261.812 60.0564C261.776 60.0327 261.738 60.0215 261.7 60.0215Z" fill="#262526"/>
<path d="M264.597 59.8936L264.627 59.8799C264.637 59.8799 264.644 59.8837 264.646 59.885L264.659 59.9464L264.61 59.955L264.597 59.8936Z" fill="#231F20"/>
<path d="M264.631 59.7158C264.566 59.7158 264.503 59.7494 264.462 59.8098C264.399 59.905 264.421 60.0274 264.516 60.0907C264.551 60.114 264.59 60.1252 264.628 60.1252C264.692 60.1252 264.755 60.0924 264.795 60.0317C264.859 59.9356 264.837 59.8145 264.741 59.7507C264.706 59.727 264.668 59.7158 264.631 59.7158Z" fill="#262526"/>
<path d="M267.045 59.1367L267.075 59.1221C267.085 59.1221 267.091 59.1259 267.093 59.1268L267.106 59.189L267.058 59.1993L267.045 59.1367Z" fill="#231F20"/>
<path d="M267.076 58.96C267.011 58.96 266.949 58.9923 266.909 59.0526C266.845 59.1483 266.868 59.2698 266.964 59.3327C266.999 59.356 267.038 59.3672 267.076 59.3672C267.141 59.3672 267.203 59.3349 267.243 59.2745C267.307 59.1784 267.283 59.0578 267.188 58.9944C267.153 58.9707 267.114 58.96 267.076 58.96Z" fill="#262526"/>
<path d="M266.049 56.9877L266.08 56.9727C266.091 56.9727 266.097 56.9765 266.098 56.9774L266.111 57.0405L266.062 57.0495L266.049 56.9877Z" fill="#231F20"/>
<path d="M266.08 56.8105C266.016 56.8105 265.954 56.8429 265.914 56.9028C265.85 56.998 265.874 57.1191 265.968 57.1824C266.003 57.2061 266.042 57.2173 266.08 57.2173C266.145 57.2173 266.207 57.185 266.247 57.1255C266.311 57.0299 266.287 56.9088 266.193 56.8455C266.158 56.8218 266.119 56.8105 266.08 56.8105Z" fill="#262526"/>
<path d="M268.366 57.5419L268.397 57.5273C268.407 57.5273 268.413 57.5312 268.415 57.5321L268.428 57.5943L268.379 57.6037L268.366 57.5419Z" fill="#231F20"/>
<path d="M268.398 57.3633C268.333 57.3633 268.271 57.396 268.231 57.4564C268.167 57.552 268.191 57.6735 268.285 57.7369C268.321 57.7597 268.36 57.7714 268.398 57.7714C268.462 57.7714 268.525 57.739 268.565 57.6783C268.629 57.5826 268.605 57.4615 268.51 57.3982C268.475 57.3749 268.436 57.3633 268.398 57.3633Z" fill="#262526"/>
<path d="M264.592 56.5831C264.529 56.6792 264.408 56.7063 264.313 56.6421C264.218 56.5779 264.197 56.4551 264.261 56.3594C264.324 56.2633 264.444 56.2362 264.539 56.3008C264.635 56.365 264.656 56.487 264.592 56.5831Z" fill="#231F20"/>
<path d="M264.428 56.2656C264.364 56.2656 264.301 56.2988 264.261 56.3591C264.197 56.4552 264.218 56.578 264.313 56.6422C264.348 56.6659 264.386 56.6771 264.424 56.6771C264.489 56.6771 264.552 56.644 264.592 56.5832C264.656 56.4871 264.635 56.3652 264.539 56.3005C264.504 56.2768 264.466 56.2656 264.428 56.2656Z" fill="#262526"/>
<path d="M267.444 56.0117C267.381 56.107 267.26 56.1337 267.165 56.0699C267.071 56.0061 267.049 55.8842 267.113 55.7885C267.176 55.6929 267.296 55.6661 267.391 55.7304C267.486 55.7941 267.508 55.9161 267.444 56.0117Z" fill="#231F20"/>
<path d="M267.28 55.6953C267.216 55.6953 267.153 55.7281 267.113 55.7884C267.049 55.8841 267.071 56.006 267.165 56.0698C267.201 56.0935 267.239 56.1047 267.277 56.1047C267.341 56.1047 267.404 56.0715 267.444 56.0116C267.508 55.9159 267.486 55.794 267.391 55.7302C267.356 55.7065 267.318 55.6953 267.28 55.6953Z" fill="#262526"/>
<path d="M265.444 59.0697C265.381 59.1658 265.259 59.1921 265.164 59.1291C265.069 59.0667 265.045 58.9447 265.109 58.8486C265.173 58.7529 265.293 58.7258 265.389 58.7891C265.485 58.8525 265.507 58.9736 265.444 59.0697Z" fill="#231F20"/>
<path d="M265.278 58.7549C265.213 58.7549 265.15 58.7881 265.109 58.8488C265.045 58.9449 265.069 59.0669 265.164 59.1293C265.199 59.1526 265.237 59.1634 265.275 59.1634C265.34 59.1634 265.404 59.1306 265.444 59.0694C265.507 58.9738 265.485 58.8527 265.389 58.7894C265.354 58.7661 265.316 58.7549 265.278 58.7549Z" fill="#262526"/>
<path d="M262.412 55.1361C262.348 55.2322 262.228 55.2594 262.133 55.1952C262.038 55.131 262.017 55.0082 262.08 54.9121C262.144 54.8164 262.264 54.7888 262.359 54.8535C262.455 54.9177 262.475 55.0396 262.412 55.1361Z" fill="#231F20"/>
<path d="M262.248 54.8184C262.183 54.8184 262.121 54.8515 262.08 54.9123C262.017 55.008 262.038 55.1308 262.133 55.195C262.168 55.2182 262.206 55.2299 262.244 55.2299C262.309 55.2299 262.372 55.1967 262.412 55.1359C262.475 55.0394 262.455 54.9175 262.359 54.8533C262.324 54.8296 262.286 54.8184 262.248 54.8184Z" fill="#262526"/>
<path d="M260.988 54.106C260.924 54.2021 260.804 54.2288 260.709 54.165C260.614 54.1008 260.592 53.978 260.656 53.8819C260.72 53.7862 260.84 53.7587 260.935 53.8229C261.03 53.8875 261.051 54.0094 260.988 54.106Z" fill="#231F20"/>
<path d="M260.824 53.7881C260.759 53.7881 260.696 53.8217 260.656 53.882C260.592 53.9781 260.614 54.1009 260.709 54.1651C260.744 54.1884 260.782 54.2 260.82 54.2C260.884 54.2 260.947 54.1669 260.988 54.1057C261.051 54.0096 261.03 53.8876 260.935 53.8234C260.9 53.7993 260.861 53.7881 260.824 53.7881Z" fill="#262526"/>
<path d="M269.752 58.8668C269.689 58.9629 269.568 58.9874 269.474 58.9241C269.379 58.8612 269.355 58.7401 269.418 58.644C269.482 58.5483 269.602 58.5233 269.697 58.5867C269.792 58.65 269.816 58.7707 269.752 58.8668Z" fill="#231F20"/>
<path d="M269.585 58.5518C269.521 58.5518 269.458 58.5841 269.418 58.644C269.355 58.7401 269.379 58.8612 269.474 58.9241C269.509 58.9478 269.548 58.959 269.586 58.959C269.65 58.959 269.713 58.9267 269.752 58.8668C269.816 58.7707 269.792 58.65 269.697 58.5867C269.662 58.563 269.623 58.5518 269.585 58.5518Z" fill="#262526"/>
<path d="M265.878 62.6466C267.876 62.5134 269.022 62.0084 270.862 61.643C271.42 61.5322 271.824 61.0337 271.816 60.452C271.788 58.3836 271.846 56.8267 272.031 56.0024C272.198 55.2573 272.057 54.9531 272.057 54.9531C272.057 54.9531 270.909 58.5521 270.822 59.2368C270.323 59.8 266.711 60.43 265.878 60.6678C265.826 61.4848 265.849 61.8494 265.878 62.6466Z" fill="#262526"/>
<path d="M284.078 36.6013C283.846 37.239 283.404 38.0793 282.848 38.9842C286.231 40.8845 281.428 48.6064 280.358 50.0069C278.972 51.8167 278.98 55.0313 277.442 54.7684C276.966 54.6909 275.786 52.8466 275.786 52.3036C275.782 51.7995 276.995 49.8087 277.029 47.9127C277.059 46.1416 275.036 45.06 273.667 46.1459C273.658 46.1502 273.654 46.1589 273.646 46.1632C272.955 46.719 272.526 48.182 272.113 49.1946C271.919 49.6643 270.996 49.5307 270.841 49.1946C270.28 47.9924 270.84 43.1985 270.684 43.1037C269.892 42.3712 267.25 41.6041 264.507 41.2292C261.705 40.8457 260.5 36.9245 260.159 35.5326C260.247 35.4594 260.26 35.3215 260.29 35.0112C260.627 31.3098 262.868 30.267 266.011 30.1119C267.288 30.0471 276.886 28.9656 279.481 25.6778C279.612 27.3239 279.734 28.9785 279.861 30.6247C282.14 29.5819 283.223 27.492 284.293 25.3848C284.752 28.4097 284.921 34.2702 284.078 36.6013Z" fill="#B6D9FF"/>
<path d="M273.142 50.994C273.142 50.994 273.361 51.783 274.093 51.6778C275.453 51.4826 276.784 47.7527 275.795 46.7797C274.98 45.9786 273.149 46.9077 273.206 48.4197" fill="#F2C193"/>
<path d="M273.142 50.994C273.142 50.994 273.361 51.783 274.093 51.6778C275.453 51.4826 276.784 47.7527 275.795 46.7797C274.98 45.9786 273.149 46.9077 273.206 48.4197" stroke="#262526" stroke-width="0.916965" stroke-miterlimit="10" stroke-linecap="round"/>
<path d="M274.479 47.3066C274.824 47.4993 275.169 47.6919 275.515 47.8845" stroke="#262526" stroke-width="0.358476" stroke-miterlimit="10" stroke-linecap="round"/>
<path d="M274.339 48.333C274.584 48.4696 274.829 48.6071 275.074 48.7432" stroke="#262526" stroke-width="0.358476" stroke-miterlimit="10" stroke-linecap="round"/>
<path d="M261.063 47.3623C262.471 47.4997 264.055 47.6165 265.471 47.7342C265.778 47.7596 265.948 47.6195 265.961 47.3463C265.965 47.2671 265.849 47.1934 265.821 47.0994C265.721 46.7767 264.94 46.5741 264.726 46.5242C263.713 46.2889 260.934 45.7916 260.339 46.104C259.745 46.4164 260.261 46.4259 260.157 46.7237C260.052 47.0214 260.757 47.3326 261.063 47.3623Z" fill="#262526"/>
<path d="M262.912 49.3566C262.905 49.5863 262.726 49.7526 262.502 49.7475C262.28 49.7423 262.111 49.5669 262.118 49.3373C262.124 49.1076 262.303 48.9408 262.526 48.9464C262.75 48.952 262.918 49.127 262.912 49.3566Z" fill="#262526"/>
<path d="M259.196 47.6543C259.196 47.6543 258.283 50.8029 257.761 52.2633C257.639 52.6054 257.844 52.9764 258.194 53.045L259.44 53.288" fill="#F2C193"/>
<path d="M259.196 47.6543C259.196 47.6543 258.283 50.8029 257.761 52.2633C257.639 52.6054 257.844 52.9765 258.194 53.045L259.44 53.288" stroke="#262526" stroke-width="0.851902" stroke-miterlimit="10" stroke-linecap="round"/>
<path d="M260.895 56.6774C261.301 57.2173 262.812 56.6774 263 56.0039" stroke="#262526" stroke-width="0.851902" stroke-miterlimit="10" stroke-linecap="round"/>
<path d="M259.478 47.5332L259.233 48.3696L258.68 51.373L259.02 52.9127L259.935 53.1772L259.992 52.5192L260.096 48.7273L259.478 47.5332Z" fill="#F2C193"/>
<path d="M285.046 135.012L256.924 135.705C254.776 135.748 251.77 134.411 251.732 132.214C251.541 121.185 255.716 80.7243 257.25 76.4919C258.633 72.6741 264.785 66.9326 264.785 66.9326L264.928 65.4783L278.987 61.1016L280.201 63.9219C289.244 69.2276 288.406 78.5185 288.546 81.347L288.545 131.166C288.596 133.599 287.423 134.889 285.046 135.012Z" fill="#B6D9FF"/>
<path d="M257.961 64.4614L188.578 57.3682L181.643 128.328L251.026 135.421L257.961 64.4614Z" fill="#305EED"/>
<path d="M230.111 79.8071L224.637 75.3433L217.408 78.5083L219.259 60.4648L231.962 61.7636L230.111 79.8071Z" fill="#B6D9FF"/>
<path d="M227.867 79.5078L222.393 75.044L215.164 78.2094L216.918 60.2646L229.621 61.5634L227.867 79.5078Z" fill="#53D084"/>
<path d="M260.52 216.084H248.255C247.811 216.084 247.452 215.716 247.452 215.263V212.126C247.452 211.673 247.811 211.305 248.255 211.305H260.52C260.963 211.305 261.323 211.673 261.323 212.126V215.263C261.323 215.716 260.963 216.084 260.52 216.084Z" fill="#53D084"/>
<path d="M283.293 217.513H271.028C270.584 217.513 270.224 217.145 270.224 216.691V213.555C270.224 213.101 270.584 212.733 271.028 212.733H283.293C283.737 212.733 284.096 213.101 284.096 213.555V216.691C284.096 217.145 283.737 217.513 283.293 217.513Z" fill="#53D084"/>
<path d="M260.074 224.474L259.309 219.431L252.331 218.58L250.406 223.1L241.446 225.321C241.114 225.39 239.847 225.203 239.847 225.203C239.122 224.94 238.361 225.49 238.361 226.277V230.057H260.439L260.077 224.502C260.077 224.492 260.076 224.483 260.074 224.474Z" fill="#B6D9FF"/>
<path d="M260.233 232.144H238.614C238.365 232.144 238.17 231.923 238.196 231.669L238.362 230.057L260.251 229.574C260.356 229.572 260.443 229.655 260.448 229.762L260.473 230.312L260.65 231.656C260.684 231.915 260.488 232.144 260.233 232.144Z" fill="#53D084"/>
<path d="M260.232 221.312C258.626 221.107 254.954 220.324 253.367 220.475C252.907 220.519 252.657 222.486 253.055 222.726C254.058 223.33 256.166 223.653 257.321 223.892C257.448 223.919 257.401 224.33 257.277 224.369L245.473 227.62" stroke="#F0F1F1" stroke-width="0.5625" stroke-miterlimit="10" stroke-linecap="round"/>
<path d="M249.714 223.449C249.733 223.494 249.682 223.534 249.643 223.506C248.932 222.975 245.546 219.97 245.928 217.893C246.058 217.183 247.651 218.083 248.075 219.33C248.445 220.418 249.46 222.845 249.714 223.449Z" stroke="#005B9D" stroke-width="0.75" stroke-miterlimit="10"/>
<path d="M249.782 223.456C249.779 223.499 249.723 223.511 249.705 223.472C249.33 222.715 247.644 218.397 248.93 216.72C249.365 216.152 250.373 217.702 250.187 219.008C250.023 220.159 249.826 222.834 249.782 223.456Z" stroke="#005B9D" stroke-width="0.75" stroke-miterlimit="10"/>
<path d="M250.678 223.59L248.786 222.88L248.654 223.247L250.546 223.957L250.678 223.59Z" fill="#305EED"/>
<path d="M248.351 224.054L246.46 223.344L246.328 223.711L248.22 224.421L248.351 224.054Z" fill="#305EED"/>
<path d="M246.219 224.592L244.328 223.882L244.196 224.249L246.088 224.958L246.219 224.592Z" fill="#305EED"/>
<path d="M283.782 225.8L282.987 220.563L275.732 219.679L273.731 224.378L264.414 226.687C264.069 226.759 262.752 226.565 262.752 226.565C261.998 226.291 261.207 226.863 261.207 227.681V231.612H284.163L283.787 225.842C283.786 225.828 283.785 225.814 283.782 225.8Z" fill="#B6D9FF"/>
<path d="M283.948 233.781H261.469C261.209 233.781 261.007 233.552 261.034 233.288L261.207 231.612L283.967 231.109C284.076 231.107 284.166 231.194 284.171 231.305L284.197 231.876L284.382 233.275C284.417 233.543 284.213 233.781 283.948 233.781Z" fill="#53D084"/>
<path d="M283.947 222.519C282.276 222.306 278.459 221.492 276.809 221.649C276.331 221.695 276.07 223.74 276.484 223.989C277.528 224.617 279.719 224.953 280.919 225.202C281.052 225.23 281.004 225.658 280.874 225.698L268.6 229.078" stroke="#F0F1F1" stroke-width="0.5625" stroke-miterlimit="10" stroke-linecap="round"/>
<path d="M272.981 224.515C273.007 224.618 272.88 224.691 272.806 224.617C269.184 220.933 268.728 219.531 269.074 218.964C269.217 218.728 269.573 218.514 269.912 218.525C270.511 218.545 270.974 219.264 271.499 220.367C271.959 221.333 272.525 222.714 272.981 224.515Z" stroke="#005B9D" stroke-width="0.75" stroke-miterlimit="10"/>
<path d="M273.189 224.61C273.148 224.712 273.003 224.708 272.964 224.604C272.063 222.141 272.365 220.48 272.602 219.68C272.701 219.346 272.908 218.644 273.153 218.653C273.523 218.667 273.833 220.307 273.812 221.634C273.793 222.865 273.487 223.885 273.189 224.61Z" stroke="#005B9D" stroke-width="0.75" stroke-miterlimit="10"/>
<path d="M274.012 224.887L272.045 224.149L271.908 224.531L273.875 225.268L274.012 224.887Z" fill="#305EED"/>
<path d="M271.594 225.369L269.627 224.631L269.491 225.012L271.457 225.75L271.594 225.369Z" fill="#305EED"/>
<path d="M269.377 225.928L267.41 225.19L267.273 225.572L269.24 226.309L269.377 225.928Z" fill="#305EED"/>
<path d="M237.314 125.783C237.314 125.783 230.617 125.827 227.539 126.653C226.513 126.929 225.965 128.513 226.208 128.982C227.08 130.671 231.936 130.448 231.936 130.448C231.936 130.448 225.521 135.972 228.201 137.48C231.532 139.356 236.776 140.977 239.624 140.214C241.166 139.802 245.235 134.084 245.235 134.084L237.314 125.783Z" fill="#F2C193"/>
<path d="M121.235 68.953H26.4806C23.5047 68.953 21.0922 66.4856 21.0922 63.4421V41.3283C21.0922 38.2848 23.5047 35.8174 26.4806 35.8174H121.235C124.21 35.8174 126.623 38.2848 126.623 41.3283V63.4421C126.623 66.4856 124.21 68.953 121.235 68.953Z" fill="#B6D9FF"/>
<path d="M39.5159 63.0765C45.289 63.0765 49.9696 58.2899 49.9696 52.3852C49.9696 46.4809 45.289 41.6943 39.5159 41.6943C33.7428 41.6943 29.0624 46.4809 29.0624 52.3852C29.0624 58.2899 33.7428 63.0765 39.5159 63.0765Z" fill="#305EED"/>
<path d="M56.0541 48.708H103.817" stroke="white" stroke-width="3.75" stroke-miterlimit="10" stroke-linecap="round"/>
<path d="M56.0541 56.0635H87.896" stroke="white" stroke-width="3.75" stroke-miterlimit="10" stroke-linecap="round"/>
<path d="M26.0878 78.7939H73.8511" stroke="#005B9D" stroke-width="3.75" stroke-miterlimit="10" stroke-linecap="round"/>
<path d="M26.0878 86.1494H57.9297" stroke="#005B9D" stroke-width="3.75" stroke-miterlimit="10" stroke-linecap="round"/>
<path d="M184.77 86.0123C197.345 86.0123 207.538 75.5873 207.538 62.7269C207.538 49.8668 197.345 39.4414 184.77 39.4414C172.196 39.4414 162.002 49.8668 162.002 62.7269C162.002 75.5873 172.196 86.0123 184.77 86.0123Z" fill="#B6D9FF"/>
<path d="M179.39 76.4514C181.925 76.4514 183.98 74.3498 183.98 71.7579C183.98 69.166 181.925 67.0645 179.39 67.0645C176.856 67.0645 174.802 69.166 174.802 71.7579C174.802 74.3498 176.856 76.4514 179.39 76.4514Z" fill="#305EED"/>
<path d="M179.39 76.4509C181.925 76.4509 183.98 74.3494 183.98 71.7575C183.98 69.1656 181.925 67.0645 179.39 67.0645C176.856 67.0645 174.802 69.1656 174.802 71.7575C174.802 74.3494 176.856 76.4509 179.39 76.4509Z" fill="black" fill-opacity="0.06"/>
<path d="M185.148 55.2915L184.644 55.1161C183.383 54.6775 182.708 53.2766 183.137 51.9869L184.055 49.2247C184.484 47.935 185.854 47.2451 187.115 47.6838L187.619 47.8592C188.88 48.2979 189.555 49.6987 189.126 50.9884L188.207 53.7506C187.778 55.0403 186.409 55.7302 185.148 55.2915Z" fill="#305EED"/>
<path d="M185.148 55.2915L184.644 55.1161C183.383 54.6775 182.708 53.2766 183.137 51.9869L184.055 49.2247C184.484 47.935 185.854 47.2451 187.115 47.6838L187.619 47.8592C188.88 48.2979 189.555 49.6987 189.126 50.9884L188.207 53.7506C187.778 55.0403 186.409 55.7302 185.148 55.2915Z" fill="black" fill-opacity="0.06"/>
<path d="M192.308 72.3125C192.308 72.3125 190.401 64.22 190.725 63.2453L191.613 60.5762C192.333 58.41 192.051 53.4964 189.933 52.76L182.359 50.1254C180.241 49.3885 177.089 53.1077 176.368 55.2734L175.481 57.9429C175.157 58.9176 168.821 64.1428 168.821 64.1428C165.747 65.8854 166.663 68.9953 169.991 70.1527L187.798 76.3466C191.126 77.504 193.706 75.6106 192.308 72.3125Z" fill="#305EED"/>
<path d="M193.464 70.7411C197.504 70.7411 200.779 67.3912 200.779 63.2592C200.779 59.1272 197.504 55.7773 193.464 55.7773C189.423 55.7773 186.148 59.1272 186.148 63.2592C186.148 67.3912 189.423 70.7411 193.464 70.7411Z" fill="#53D084"/>
<path d="M195.48 59.8812L193.048 67.1933L191.302 66.5858L193.038 61.3631L191.986 60.9968L192.362 59.8687L194.244 59.4512L195.48 59.8812Z" fill="#B6D9FF"/>
<path d="M128.277 116.923C125.172 111.541 120.546 111.273 118.039 111.601C115.528 111.911 111.108 113.329 109.384 119.327C106.92 127.915 121.763 142.278 121.763 142.278C121.763 142.278 132.722 124.631 128.277 116.923ZM119.189 125.791C116.476 125.813 114.259 123.576 114.238 120.801C114.217 118.026 116.404 115.76 119.117 115.738C121.831 115.721 124.047 117.952 124.068 120.728C124.089 123.503 121.902 125.77 119.189 125.791Z" fill="#B6D9FF"/>
<path d="M121.949 143.553C125.365 143.553 128.135 143.359 128.135 143.12C128.135 142.881 125.365 142.688 121.949 142.688C118.533 142.688 115.763 142.881 115.763 143.12C115.763 143.359 118.533 143.553 121.949 143.553Z" fill="#305EED"/>
<path d="M86.9453 135.773H81.205C79.8315 135.773 78.7179 134.635 78.7179 133.23V127.36C78.7179 125.954 79.8315 124.815 81.205 124.815H86.9453C88.3188 124.815 89.4324 125.954 89.4324 127.36V133.23C89.4324 134.635 88.3188 135.773 86.9453 135.773Z" fill="#305EED"/>
<path d="M21.3589 143.12H87.6871" stroke="#78D2EE" stroke-width="1.5" stroke-miterlimit="10"/>
<path d="M22.3678 145.86C21.6633 145.86 21.0922 145.276 21.0922 144.555V141.685C21.0922 140.965 21.6633 140.381 22.3678 140.381C23.0722 140.381 23.6433 140.965 23.6433 141.685V144.555C23.6433 145.276 23.0722 145.86 22.3678 145.86Z" fill="#305EED"/>
<path d="M87.6871 145.86C86.9827 145.86 86.4117 145.276 86.4117 144.555V141.685C86.4117 140.965 86.9827 140.381 87.6871 140.381C88.3916 140.381 88.9629 140.965 88.9629 141.685V144.555C88.9629 145.276 88.3916 145.86 87.6871 145.86Z" fill="#B6D9FF"/>
<path d="M84.5853 137.646H83.5648V148.594H84.5853V137.646Z" fill="#305EED"/>
<path d="M21.3589 177.794H87.6871" stroke="#78D2EE" stroke-width="1.5" stroke-miterlimit="10"/>
<path d="M22.3678 180.534C21.6633 180.534 21.0922 179.95 21.0922 179.229V176.359C21.0922 175.639 21.6633 175.055 22.3678 175.055C23.0722 175.055 23.6433 175.639 23.6433 176.359V179.229C23.6433 179.95 23.0722 180.534 22.3678 180.534Z" fill="#305EED"/>
<path d="M87.6871 180.534C86.9827 180.534 86.4117 179.95 86.4117 179.229V176.359C86.4117 175.639 86.9827 175.055 87.6871 175.055C88.3916 175.055 88.9629 175.639 88.9629 176.359V179.229C88.9629 179.95 88.3916 180.534 87.6871 180.534Z" fill="#B6D9FF"/>
<path d="M21.3589 214.997H87.6871" stroke="#78D2EE" stroke-width="1.5" stroke-miterlimit="10"/>
<path d="M22.3678 217.736C21.6633 217.736 21.0922 217.152 21.0922 216.431V213.562C21.0922 212.841 21.6633 212.257 22.3678 212.257C23.0722 212.257 23.6433 212.841 23.6433 213.562V216.431C23.6433 217.152 23.0722 217.736 22.3678 217.736Z" fill="#305EED"/>
<path d="M87.6871 217.736C86.9827 217.736 86.4117 217.152 86.4117 216.431V213.562C86.4117 212.841 86.9827 212.257 87.6871 212.257C88.3916 212.257 88.9629 212.841 88.9629 213.562V216.431C88.9629 217.152 88.3916 217.736 87.6871 217.736Z" fill="#B6D9FF"/>
<path d="M80.4242 128.7L83.9023 134.263L93.2252 121.789C93.3461 121.626 93.1249 121.428 92.9829 121.573L83.735 130.501L80.4242 128.7Z" fill="#B6D9FF"/>
<path d="M86.9453 170.368H81.205C79.8315 170.368 78.7179 169.229 78.7179 167.825V161.954C78.7179 160.549 79.8315 159.41 81.205 159.41H86.9453C88.3188 159.41 89.4324 160.549 89.4324 161.954V167.825C89.4324 169.229 88.3188 170.368 86.9453 170.368Z" fill="#305EED"/>
<path d="M84.0755 162.178C85.4899 162.178 86.641 163.355 86.641 164.802C86.641 166.249 85.4899 167.426 84.0755 167.426C82.6611 167.426 81.5104 166.249 81.5104 164.802C81.5104 163.355 82.6611 162.178 84.0755 162.178ZM84.0755 161.497C82.2912 161.497 80.8443 162.977 80.8443 164.802C80.8443 166.627 82.2912 168.107 84.0755 168.107C85.8603 168.107 87.3071 166.627 87.3071 164.802C87.3071 162.977 85.8603 161.497 84.0755 161.497Z" fill="#B6D9FF"/>
<path d="M84.5853 172.241H83.5648V183.19H84.5853V172.241Z" fill="#305EED"/>
<path d="M86.9453 207.699H81.205C79.8315 207.699 78.7179 206.56 78.7179 205.155V199.285C78.7179 197.88 79.8315 196.741 81.205 196.741H86.9453C88.3188 196.741 89.4324 197.88 89.4324 199.285V205.155C89.4324 206.56 88.3188 207.699 86.9453 207.699Z" fill="#305EED"/>
<path d="M84.5853 209.571H83.5648V220.519H84.5853V209.571Z" fill="#305EED"/>
<path d="M86.5373 200.031C85.9041 199.384 84.8777 199.384 84.2449 200.031L84.0755 200.205L83.9065 200.031C83.2733 199.384 82.2469 199.384 81.614 200.031C80.9808 200.679 80.9808 201.729 81.614 202.376L81.783 202.549L84.0755 204.894L86.5373 202.376C87.1702 201.729 87.1702 200.679 86.5373 200.031Z" fill="#B6D9FF"/>
<path d="M84.3262 161.757H83.8253V162.583H84.3262V161.757Z" fill="#B6D9FF"/>
<path d="M87.0415 164.634H86.2338V165.146H87.0415V164.634Z" fill="#B6D9FF"/>
<path fill-rule="evenodd" clip-rule="evenodd" d="M83.7428 163.057H84.4089V164.549H85.774V165.231H83.7428V163.057Z" fill="#B6D9FF"/>
<path d="M236.19 22.5127C236.19 22.5127 190.432 23.4493 189.34 22.0051C188.248 20.5609 197.652 -6.75856 216.608 11.0004C224.43 18.3281 221.697 18.3469 225.16 16.7963C228.622 15.2456 236.338 16.7844 236.19 22.5127Z" fill="#53D084"/>
<path d="M246.693 22.5125H237.839C237.616 22.5125 237.507 22.2325 237.673 22.0787C238.939 20.9019 242.619 17.8547 245.079 19.652C248.091 21.8523 246.693 22.5125 246.693 22.5125Z" fill="#53D084"/>
<path d="M52.653 2.90723L52.7984 6.33408L52.9442 9.76088L49.9695 8.17634L46.9949 6.5918L49.8238 4.74954L52.653 2.90723Z" fill="#305EED"/>
<path d="M157.936 25.4775L160.832 27.208L163.728 28.9385L160.815 30.638L157.902 32.3376L157.919 28.9076L157.936 25.4775Z" fill="#305EED"/>
<path d="M303.927 59.3008L304.072 62.7278L304.218 66.1544L301.243 64.5699L298.269 62.9855L301.098 61.1429L303.927 59.3008Z" fill="#B6D9FF"/>
<path d="M139.667 201.167L142.521 203.444L145.375 201.167L148.23 203.444L151.085 201.167L153.938 203.444L156.792 201.167L159.646 203.444L162.501 201.167L165.356 203.444L168.209 201.167L171.065 203.444L173.922 201.167L176.78 203.444" stroke="#FFE458" stroke-width="0.75" stroke-miterlimit="10"/>
<path d="M136.013 206.343L138.867 208.62L141.721 206.343L144.576 208.62L147.43 206.343L150.283 208.62L153.137 206.343L155.992 208.62L158.846 206.343L161.701 208.62L164.554 206.343L167.411 208.62L170.268 206.343L173.126 208.62" stroke="#FFE458" stroke-width="0.75" stroke-miterlimit="10"/>
<path d="M293.833 171.747L289.484 173.915L291.604 178.363L295.953 176.195L293.833 171.747Z" fill="#53D084"/>
<path d="M145.36 50.6436L143.186 51.7277L144.246 53.9516L146.42 52.8675L145.36 50.6436Z" fill="#B6D9FF"/>
<path d="M76.827 100.423L74.6529 101.507L75.7125 103.731L77.887 102.647L76.827 100.423Z" fill="#B6D9FF"/>
<path d="M144.546 150.302C144.696 150.287 144.788 150.41 144.948 150.609C144.721 149.619 144.26 147.908 144.702 147.491C144.801 147.398 145.636 147.046 145.896 147.913C146.061 146.356 146.477 144.295 147.527 144.212C148.887 144.106 148.471 147.432 148.253 148.751C148.555 148.279 148.577 147.958 148.835 147.858C149.11 147.75 149.748 148.146 149.624 148.747C149.503 149.34 149.455 150.112 149.308 150.76C149.594 150.431 149.735 150.192 149.98 150.213C150.333 150.243 150.545 150.782 150.584 150.88C150.926 151.747 150.51 152.863 149.794 153.547C149.123 154.189 148.285 154.36 147.712 154.397V156.25H147.06V154.388C145.7 154.272 144.156 153.421 143.896 152.169C143.719 151.319 144.146 150.342 144.546 150.302Z" fill="#53D084"/>
<path d="M162.621 149.202C162.771 149.188 162.862 149.31 163.023 149.51C162.795 148.519 162.334 146.808 162.777 146.391C162.875 146.298 163.711 145.946 163.971 146.813C164.136 145.256 164.552 143.195 165.602 143.113C166.962 143.006 166.546 146.332 166.328 147.651C166.629 147.179 166.652 146.858 166.91 146.758C167.184 146.651 167.823 147.046 167.699 147.646C167.577 148.24 167.53 149.012 167.382 149.66C167.669 149.331 167.81 149.093 168.055 149.113C168.407 149.143 168.62 149.682 168.659 149.78C169 150.648 168.584 151.763 167.869 152.447C167.198 153.089 166.359 153.26 165.787 153.297V155.15H165.135V153.288C163.775 153.172 162.231 152.322 161.971 151.069C161.794 150.219 162.22 149.242 162.621 149.202Z" fill="#53D084"/>
<path d="M117.434 88.5133C117.26 88.4961 117.154 88.6383 116.968 88.8692C117.232 87.7217 117.765 85.7413 117.253 85.2578C117.139 85.1505 116.171 84.7429 115.87 85.7464C115.679 83.9439 115.197 81.5576 113.981 81.4619C112.407 81.3378 112.889 85.1893 113.142 86.7173C112.792 86.1709 112.766 85.799 112.467 85.6822C112.149 85.5586 111.41 86.0162 111.553 86.7117C111.694 87.399 111.749 88.2927 111.92 89.0429C111.588 88.6624 111.425 88.3862 111.142 88.4103C110.733 88.4452 110.487 89.0683 110.443 89.1825C110.047 90.187 110.529 91.478 111.357 92.2704C112.134 93.0137 113.105 93.2119 113.768 93.2542V95.4005H114.522V93.2443C116.097 93.1103 117.885 92.1252 118.187 90.6748C118.391 89.6906 117.897 88.559 117.434 88.5133Z" fill="#53D084"/>
<path d="M141.162 101.127C141.022 101.113 140.935 101.228 140.785 101.416C140.999 100.484 141.432 98.8767 141.016 98.4842C140.924 98.3971 140.138 98.0662 139.893 98.8811C139.738 97.4177 139.347 95.4803 138.36 95.4028C137.082 95.3024 137.474 98.429 137.678 99.6692C137.395 99.2254 137.373 98.9237 137.131 98.8289C136.873 98.7285 136.273 99.1 136.389 99.6645C136.504 100.222 136.548 100.948 136.687 101.557C136.418 101.248 136.285 101.024 136.055 101.043C135.724 101.072 135.524 101.578 135.488 101.67C135.166 102.486 135.557 103.534 136.23 104.177C136.86 104.781 137.649 104.941 138.187 104.976V106.718H138.8V104.968C140.078 104.859 141.529 104.059 141.774 102.882C141.94 102.083 141.539 101.164 141.162 101.127Z" fill="#53D084"/>
<path d="M302.287 107.754V126.072" stroke="#005B9D" stroke-width="0.75" stroke-miterlimit="10"/>
<path d="M302.287 97.7305V106.424" stroke="#005B9D" stroke-width="0.75" stroke-miterlimit="10"/>
<path d="M297.774 98.4521V116.771" stroke="#005B9D" stroke-width="0.75" stroke-miterlimit="10"/>
<path d="M297.774 88.4297V97.1228" stroke="#005B9D" stroke-width="0.75" stroke-miterlimit="10"/>
<path d="M117.54 170.483L125.572 186.064L124.842 186.457L116.811 170.876C116.757 170.772 116.796 170.644 116.897 170.588L117.258 170.394C117.36 170.339 117.486 170.379 117.54 170.483Z" fill="#B6D9FF"/>
<path d="M113.868 172.462L121.9 188.043L121.17 188.437L113.138 172.856C113.085 172.751 113.124 172.623 113.225 172.568L113.587 172.373C113.688 172.318 113.814 172.358 113.868 172.462Z" fill="#B6D9FF"/>
<path d="M110.443 11.8801L126.985 6.97949L127.214 7.78943L110.672 12.6901C110.562 12.7228 110.446 12.6578 110.414 12.5449L110.301 12.1438C110.269 12.0309 110.332 11.9128 110.443 11.8801Z" fill="#B6D9FF"/>
<path d="M111.597 15.9573L128.14 11.0566L128.369 11.8666L111.827 16.7673C111.717 16.8 111.601 16.7349 111.569 16.622L111.455 16.221C111.423 16.1081 111.487 15.99 111.597 15.9573Z" fill="#B6D9FF"/>
<path d="M250.051 211.305H263.283" stroke="#005B9D" stroke-width="0.75" stroke-miterlimit="10"/>
<path d="M273.488 212.733H286.719" stroke="#005B9D" stroke-width="0.75" stroke-miterlimit="10"/>
<path d="M285.234 84.7839L271.164 112.601L247.286 137.481L235.784 124.775L257.745 100.834L268.227 76.2127C270.541 71.4102 276.224 69.4345 280.92 71.8015" fill="#B6D9FF"/>
<path d="M280.92 71.8008C285.617 74.1673 287.548 79.9799 285.234 84.7832L280.92 71.8008Z" fill="#B6D9FF"/>
<path d="M285.234 84.7832L271.164 112.601L247.286 137.48L235.784 124.775" stroke="white" stroke-width="0.75" stroke-miterlimit="10" stroke-linecap="round"/>
<path d="M257.745 100.834L268.226 76.2127C270.54 71.4102 276.224 69.4345 280.92 71.8015" stroke="white" stroke-width="0.75" stroke-miterlimit="10" stroke-linecap="round"/>
<path d="M270.683 43.1043C270.11 42.7419 269.061 42.7509 268.602 42.785C265.72 42.9746 263.655 43.8972 261.132 42.8371C260.702 42.6475 259.691 41.8202 259.476 42.6648C259.257 43.5132 257.049 36.2528 258.654 35.8521C259.649 35.6022 260.011 35.6539 260.158 35.5332C260.5 36.9246 261.705 40.8459 264.507 41.2298C267.249 41.6047 269.891 42.3713 270.683 43.1043Z" fill="#305EED"/>
<path d="M106.937 63.3594C106.777 63.6748 106.621 63.9967 106.469 64.3242" stroke="#414042" stroke-width="0.75" stroke-miterlimit="10"/>
<path d="M105.332 67.1035C101.362 78.1546 101.759 93.5178 107.475 98.5478C117.216 107.119 137.635 93.1235 142.975 99.8681C149.767 108.447 119.457 134.459 127.053 151.137C132.161 162.352 152.567 165.286 167.071 161.149C183.373 156.499 196.107 141.806 200.422 122.687" stroke="#005B9D" stroke-width="0.75" stroke-miterlimit="10" stroke-dasharray="3.74 3.74"/>
<path d="M200.736 121.215C200.807 120.864 200.874 120.512 200.939 120.158" stroke="#414042" stroke-width="0.75" stroke-miterlimit="10"/>
<path d="M107.411 72.468C112.33 72.468 116.317 68.3899 116.317 63.359C116.317 58.3281 112.33 54.25 107.411 54.25C102.492 54.25 98.5041 58.3281 98.5041 63.359C98.5041 68.3899 102.492 72.468 107.411 72.468Z" stroke="#78D2EE" stroke-width="2.41594" stroke-miterlimit="10"/>
<path d="M107.34 66.7562C109.174 66.7562 110.661 65.2355 110.661 63.3593C110.661 61.4836 109.174 59.9629 107.34 59.9629C105.506 59.9629 104.019 61.4836 104.019 63.3593C104.019 65.2355 105.506 66.7562 107.34 66.7562Z" fill="#305EED"/>
<path d="M163.085 162.273C162.87 162.252 162.739 162.427 162.509 162.713C162.835 161.294 163.495 158.845 162.861 158.247C162.721 158.115 161.524 157.61 161.151 158.851C160.915 156.623 160.319 153.672 158.816 153.553C156.869 153.4 157.465 158.163 157.777 160.052C157.346 159.376 157.313 158.917 156.943 158.773C156.551 158.619 155.637 159.185 155.814 160.045C155.988 160.895 156.056 162 156.267 162.928C155.857 162.457 155.655 162.116 155.304 162.146C154.799 162.189 154.495 162.959 154.44 163.1C153.951 164.342 154.546 165.939 155.571 166.919C156.531 167.838 157.732 168.083 158.552 168.135V170.789H159.485V168.123C161.433 167.957 163.643 166.739 164.016 164.946C164.269 163.729 163.659 162.329 163.085 162.273Z" fill="#53D084"/>
<path d="M200.939 127.291C204.791 127.291 207.913 124.098 207.913 120.158C207.913 116.219 204.791 113.025 200.939 113.025C197.087 113.025 193.965 116.219 193.965 120.158C193.965 124.098 197.087 127.291 200.939 127.291Z" stroke="#005B9D" stroke-width="2.09136" stroke-miterlimit="10"/>
<path d="M200.94 123.098C202.527 123.098 203.815 121.782 203.815 120.158C203.815 118.534 202.527 117.218 200.94 117.218C199.352 117.218 198.065 118.534 198.065 120.158C198.065 121.782 199.352 123.098 200.94 123.098Z" fill="#B6D9FF"/>
<path d="M33.9341 57.7797C33.9341 56.19 35.1939 52.7471 36.7482 52.7471H42.2836C43.8375 52.7471 45.0973 56.19 45.0973 57.7797C45.0973 59.3688 33.9341 59.3688 33.9341 57.7797Z" fill="#B6D9FF"/>
<path d="M39.5155 51.9048C41.0374 51.9048 42.271 50.6431 42.271 49.0867C42.271 47.5303 41.0374 46.2686 39.5155 46.2686C37.9937 46.2686 36.76 47.5303 36.76 49.0867C36.76 50.6431 37.9937 51.9048 39.5155 51.9048Z" fill="#B6D9FF"/>
</g>
<defs>
<clipPath id="clip0">
<rect width="320" height="240" fill="white"/>
</clipPath>
</defs>
</svg>
