<svg viewBox="0 0 320 240" fill="none" xmlns="http://www.w3.org/2000/svg">
<g clip-path="url(#clip0)">
<path d="M38.187 113.796C38.187 120.1 29.968 127.313 26.4799 127.313C22.514 127.313 14.7728 120.1 14.7728 113.796C14.7728 107.492 20.0143 102.382 26.4799 102.382C32.9455 102.382 38.187 107.492 38.187 113.796Z" fill="#072D57"/>
<path opacity="0.6" d="M309.256 22.9096C342.719 30.7322 174.092 112.946 259.58 92.2898C317.454 78.3059 -4.20131 285.489 49.588 207.848C93.1583 144.958 9.85607 177.471 14.1695 162.863C22.2549 135.479 250.357 9.14087 309.256 22.9096Z" fill="#072D57"/>
<path d="M254.984 83.9057L241.834 76.1724C240.592 75.4358 238.587 75.4358 237.384 76.1724L224.315 83.9057C223.072 84.6419 223.072 85.8286 224.315 86.5652L237.465 94.2981C238.707 95.0346 240.712 95.0346 241.914 94.2981L254.984 86.5652C256.227 85.8286 256.227 84.6419 254.984 83.9057Z" fill="#305EED"/>
<path opacity="0.53" d="M220.63 214.955H151.085C148.569 214.955 146.388 212.9 146.388 210.161V187.22C146.388 184.652 148.401 182.427 151.085 182.427H220.63C223.146 182.427 225.327 184.481 225.327 187.22V210.161C225.327 212.729 223.146 214.955 220.63 214.955Z" fill="#072D57"/>
<path d="M195.591 189.551H157.386V191.705H195.591V189.551Z" fill="#305EED"/>
<path d="M208.26 201.58H170.055V203.734H208.26V201.58Z" fill="#305EED"/>
<path d="M195.591 192.797H157.386V194.951H195.591V192.797Z" fill="#305EED"/>
<path d="M208.26 204.827H170.055V206.981H208.26V204.827Z" fill="#305EED"/>
<path d="M216.899 204.852L210.124 209.688V207.875L215.456 204.28V204.228L210.124 200.634V198.874L216.899 203.708V204.852Z" fill="#305EED"/>
<path d="M152.356 191.924C153.238 191.924 153.398 191.432 153.398 190.983C153.398 190.614 153.358 190.246 153.278 189.878C153.238 189.51 153.158 189.182 153.158 188.814C153.158 187.628 153.92 187.096 155.002 187.096H155.282V187.791H155.042C154.28 187.791 154.04 188.2 154.04 188.896C154.04 189.182 154.08 189.51 154.12 189.796C154.16 190.123 154.2 190.451 154.2 190.778C154.2 191.596 153.839 192.005 153.278 192.169V192.21C153.839 192.333 154.2 192.783 154.2 193.642C154.2 194.011 154.16 194.297 154.12 194.624C154.08 194.951 154.04 195.238 154.04 195.565C154.04 196.302 154.321 196.711 155.042 196.711H155.282V197.407H155.002C153.96 197.407 153.158 196.956 153.158 195.647C153.158 195.279 153.198 194.951 153.278 194.583C153.318 194.215 153.398 193.888 153.398 193.519C153.398 193.11 153.278 192.578 152.356 192.578V191.924Z" fill="#305EED"/>
<path d="M191.883 94.1344L163.941 77.6452C161.295 76.0906 157.045 76.0906 154.44 77.6452L126.657 94.1344C124.051 95.6889 124.051 98.2261 126.697 99.7397L154.64 116.229C157.286 117.784 161.535 117.784 164.141 116.229L191.924 99.7397C194.569 98.1852 194.529 95.6889 191.883 94.1344Z" fill="#305EED"/>
<path d="M105.57 148.307L92.4202 140.574C91.1773 139.838 89.1729 139.838 87.93 140.574L74.8611 148.307C73.6181 149.044 73.6582 150.23 74.8611 150.967L88.0102 158.7C89.2531 159.436 91.2574 159.436 92.5004 158.7L105.57 150.967C106.812 150.23 106.812 149.044 105.57 148.307Z" fill="#305EED"/>
<g opacity="0.6">
<path opacity="0.6" d="M203.632 113.149L161.897 88.582C161.631 88.4455 161.23 88.4455 160.963 88.582C160.696 88.7181 160.696 88.9904 160.963 89.1269L202.698 113.739C202.965 113.875 203.365 113.875 203.632 113.739C203.899 113.557 203.899 113.33 203.632 113.149Z" fill="#305EED"/>
<path opacity="0.6" d="M199.404 115.692L157.625 91.0795C157.359 90.9434 156.958 90.9434 156.691 91.0795C156.424 91.2161 156.424 91.4883 156.691 91.6244L198.426 116.237C198.692 116.373 199.093 116.373 199.36 116.237C199.627 116.101 199.627 115.828 199.404 115.692Z" fill="#305EED"/>
<path opacity="0.6" d="M195.133 118.189L153.398 93.6223C153.131 93.4858 152.731 93.4858 152.464 93.6223C152.197 93.7584 152.197 94.0307 152.464 94.1672L194.199 118.78C194.465 118.916 194.866 118.916 195.133 118.78C195.4 118.643 195.4 118.371 195.133 118.189Z" fill="#305EED"/>
<path opacity="0.6" d="M190.863 120.732L149.128 96.1202C148.861 95.9837 148.461 95.9837 148.194 96.1202C147.927 96.2564 147.927 96.5286 148.194 96.6651L189.928 121.277C190.196 121.414 190.596 121.414 190.863 121.277C191.13 121.141 191.13 120.869 190.863 120.732Z" fill="#305EED"/>
<path opacity="0.6" d="M186.636 123.229L144.901 98.6625C144.634 98.5264 144.234 98.5264 143.967 98.6625C143.7 98.7986 143.7 99.0713 143.967 99.2074L185.701 123.82C185.969 123.956 186.369 123.956 186.636 123.82C186.903 123.684 186.903 123.411 186.636 123.229Z" fill="#305EED"/>
</g>
<path d="M96.6667 183.644L54.932 159.077C54.6648 158.941 54.2647 158.941 53.9975 159.077C53.7308 159.213 53.7308 159.486 53.9975 159.622L95.7323 184.234C95.999 184.37 96.3995 184.37 96.6667 184.234C96.9334 184.053 96.9334 183.826 96.6667 183.644Z" fill="#305EED"/>
<path d="M92.4394 186.187L50.6603 161.575C50.3932 161.439 49.9926 161.439 49.7259 161.575C49.4587 161.711 49.4587 161.983 49.7259 162.12L91.4602 186.732C91.7274 186.868 92.1279 186.868 92.3946 186.732C92.6618 186.596 92.6618 186.323 92.4394 186.187Z" fill="#305EED"/>
<path d="M88.1674 188.684L46.4331 164.117C46.166 163.981 45.7654 163.981 45.4987 164.117C45.2315 164.253 45.2315 164.526 45.4987 164.662L87.233 189.275C87.5002 189.411 87.9007 189.411 88.1674 189.275C88.4346 189.138 88.4346 188.866 88.1674 188.684Z" fill="#305EED"/>
<path d="M83.8974 191.228L42.1627 166.615C41.8959 166.479 41.4954 166.479 41.2283 166.615C40.9615 166.751 40.9615 167.024 41.2283 167.16L82.963 191.773C83.2297 191.909 83.6303 191.909 83.8974 191.773C84.1642 191.636 84.1642 191.364 83.8974 191.228Z" fill="#305EED"/>
<path d="M79.67 193.725L37.9356 169.158C37.6685 169.022 37.2684 169.022 37.0012 169.158C36.7345 169.294 36.7345 169.566 37.0012 169.703L78.736 194.315C79.0027 194.451 79.4032 194.451 79.67 194.315C79.9371 194.179 79.9371 193.906 79.67 193.725Z" fill="#305EED"/>
<path d="M35.6283 64.4259C33.8139 64.4259 32.067 64.0141 30.7232 63.1914L2.77129 46.7328C1.36024 45.91 0.621094 44.8129 0.621094 43.6469C0.621094 42.4812 1.36024 41.3837 2.77129 40.561L30.5216 24.1025C33.2093 22.5252 37.644 22.5252 40.3317 24.1025L68.2834 40.561C69.6948 41.3837 70.4338 42.4812 70.4338 43.6469C70.4338 44.8129 69.6948 45.91 68.2834 46.7328L40.5334 63.1914C39.1892 64.0141 37.3752 64.4259 35.6283 64.4259ZM35.3595 23.5539C33.6797 23.5539 32.067 23.8968 30.7904 24.6511L3.04005 41.1097C1.89776 41.7955 1.22585 42.6867 1.22585 43.5784C1.22585 44.5385 1.89776 45.4297 3.04005 46.1155L30.9919 62.5741C33.5451 64.083 37.644 64.083 40.1299 62.5741L67.8804 46.1155C69.0224 45.4297 69.6948 44.5385 69.6948 43.6469C69.6948 42.6867 69.0224 41.7955 67.8804 41.1097L39.9286 24.6511C38.719 23.9653 37.0392 23.5539 35.3595 23.5539Z" fill="#96C9FE"/>
<path d="M62.5827 44.5471L39.4192 30.3773C37.2477 29.0194 33.7396 29.0194 31.5682 30.3773L8.57202 44.5471C6.40047 45.9052 6.40047 48.0306 8.57202 49.3887L31.7353 63.5587C33.9067 64.9165 37.4706 64.9165 39.5863 63.5587L62.5827 49.3887C64.7542 48.0896 64.7542 45.9052 62.5827 44.5471Z" fill="#18204D" fill-opacity="0.04"/>
<path d="M90.5037 166.527C90.4235 166.527 90.3834 166.486 90.3433 166.446C90.3032 166.364 90.3032 166.241 90.4235 166.159L92.3481 164.931L89.7423 166.446C89.6621 166.486 89.5418 166.486 89.4616 166.364C89.4215 166.282 89.4215 166.159 89.5418 166.077L96.3166 161.74L88.78 166.241C88.6998 166.282 88.5795 166.282 88.4994 166.159C88.4192 166.036 88.4593 165.954 88.5795 165.873L94.9939 161.822L88.0583 165.914C87.9781 165.954 87.8578 165.954 87.7776 165.832C87.7376 165.75 87.7376 165.627 87.8578 165.545L95.2746 160.799L87.3366 165.463C87.2564 165.504 87.1361 165.504 87.0559 165.382C87.0158 165.3 87.0158 165.177 87.1361 165.095L92.7089 161.576L86.7757 165.095C86.6955 165.136 86.5752 165.136 86.495 165.013C86.4148 164.891 86.4549 164.809 86.5752 164.727L90.8244 162.067L86.2545 164.768C86.1743 164.809 86.054 164.809 85.9738 164.686C85.9337 164.604 85.9337 164.481 86.054 164.399L92.2278 160.513L85.653 164.399C85.5728 164.44 85.4526 164.44 85.3724 164.318C85.3323 164.236 85.3323 164.113 85.4526 164.031L90.7443 160.717L85.0917 164.031C85.0115 164.072 84.8912 164.072 84.811 163.949C84.7709 163.867 84.7709 163.745 84.8912 163.663L86.7356 162.518L84.6507 163.745C84.5705 163.786 84.4502 163.786 84.37 163.663C84.3299 163.581 84.3299 163.459 84.4502 163.377L91.9872 158.549L83.9289 163.295C83.8488 163.336 83.7285 163.336 83.6487 163.213C83.6086 163.131 83.6086 163.009 83.7285 162.927L91.2655 158.098L83.2077 162.845C83.1275 162.886 83.0072 162.886 82.927 162.763C82.8869 162.681 82.8869 162.558 83.0072 162.477L90.0626 157.976L82.526 162.436C82.4458 162.477 82.3256 162.477 82.2454 162.354C82.2053 162.272 82.2053 162.149 82.3256 162.067L84.0492 161.003L82.085 162.149C82.0048 162.19 81.8845 162.19 81.8043 162.067C81.7642 161.986 81.7642 161.863 81.8845 161.781L89.4616 156.953L81.3633 161.699C81.2831 161.74 81.1628 161.74 81.0826 161.617C81.0425 161.535 81.0425 161.413 81.1628 161.331L88.9805 156.339L80.6416 161.249C80.5618 161.29 80.4415 161.29 80.3613 161.167C80.3212 161.085 80.3212 160.962 80.4415 160.881L82.6463 159.49L80.1608 160.962C80.0807 161.003 79.9604 161.003 79.8802 160.881C79.8401 160.799 79.8401 160.676 79.9604 160.594L85.0516 157.403L79.5995 160.635C79.5193 160.676 79.399 160.676 79.3189 160.554C79.2788 160.472 79.2788 160.349 79.399 160.267L82.9671 158.057L79.1184 160.308C79.0382 160.349 78.9179 160.349 78.8377 160.226C78.7976 160.144 78.7976 160.022 78.9179 159.94L81.8845 158.098L78.6372 160.022C78.5571 160.063 78.4368 160.063 78.3566 159.94C78.3165 159.858 78.3165 159.735 78.4368 159.653L83.8888 156.216L78.0358 159.653C77.9556 159.694 77.8353 159.694 77.7551 159.572C77.675 159.449 77.7151 159.367 77.8353 159.285L82.1652 156.585L77.5146 159.326C77.4348 159.367 77.3145 159.367 77.2343 159.244C77.1942 159.162 77.1942 159.04 77.3145 158.958L82.526 155.684L76.9537 158.958C76.8735 158.999 76.7532 158.999 76.673 158.876C76.6329 158.794 76.6329 158.671 76.7532 158.589L78.2764 157.648L76.5126 158.671C76.4324 158.712 76.3121 158.712 76.232 158.589C76.1919 158.508 76.1919 158.385 76.3122 158.303L82.6062 154.334L75.9112 158.303C75.831 158.344 75.7107 158.344 75.6305 158.221C75.5904 158.139 75.5904 158.017 75.7107 157.935L81.4435 154.293L75.2697 157.935C75.1895 157.976 75.0692 157.976 74.989 157.853C74.9489 157.771 74.9489 157.648 75.0692 157.566L79.8 154.621L74.7885 157.566C74.7083 157.607 74.5881 157.607 74.5079 157.485C74.4678 157.403 74.4678 157.28 74.5881 157.199L75.6706 156.544L74.5079 157.24C74.4277 157.28 74.3078 157.28 74.2276 157.158C74.1875 157.076 74.1875 156.953 74.3078 156.871L78.3967 154.293L74.3078 156.708C74.2276 156.748 74.1073 156.748 74.0272 156.626C73.9871 156.544 73.9871 156.421 74.1073 156.339L80.7218 152.043L74.7885 155.562C74.7083 155.603 74.5881 155.603 74.5079 155.48C74.4678 155.398 74.4678 155.275 74.5881 155.193L88.8602 146.806C88.9404 146.765 89.0607 146.765 89.1409 146.888C89.2211 147.01 89.181 147.092 89.0607 147.174L82.4458 151.47L90.6641 146.642C90.7443 146.601 90.8645 146.601 90.9447 146.724C90.9848 146.806 90.9848 146.929 90.8645 147.01L86.7757 149.588L91.5061 146.806C91.5863 146.765 91.7065 146.765 91.7867 146.888C91.8268 146.97 91.8268 147.092 91.7065 147.174L90.624 147.828L92.0273 147.01C92.1075 146.97 92.2278 146.97 92.308 147.092C92.3481 147.174 92.3481 147.297 92.2278 147.379L87.497 150.325L92.6287 147.297C92.7089 147.256 92.8292 147.256 92.9094 147.379C92.9495 147.461 92.9495 147.583 92.8292 147.665L87.096 151.306L93.2297 147.665C93.3099 147.624 93.4302 147.624 93.5104 147.747C93.5505 147.829 93.5505 147.951 93.4302 148.033L87.1361 152.002L93.8312 148.033C93.9114 147.992 94.0316 147.992 94.1118 148.115C94.1519 148.197 94.1519 148.319 94.0316 148.401L92.5084 149.343L94.2722 148.319C94.3524 148.279 94.4727 148.279 94.5529 148.401C94.593 148.483 94.593 148.606 94.4727 148.688L89.2612 151.961L94.8335 148.688C94.9137 148.647 95.034 148.647 95.1142 148.77C95.1543 148.851 95.1543 148.974 95.034 149.056L90.7443 151.756L95.3949 149.015C95.4751 148.974 95.5953 148.974 95.6755 149.097C95.7156 149.179 95.7156 149.302 95.5953 149.383L90.1428 152.82L95.9963 149.383C96.0765 149.343 96.1963 149.343 96.2765 149.465C96.3567 149.588 96.3166 149.67 96.1968 149.752L93.1896 151.634L96.477 149.711C96.5572 149.67 96.6775 149.67 96.7577 149.793C96.7978 149.875 96.7978 149.997 96.6775 150.079L93.1495 152.288L96.9982 150.038C97.0784 149.997 97.1987 149.997 97.2789 150.12C97.319 150.202 97.319 150.325 97.1987 150.406L92.1075 153.639L97.5997 150.406C97.6799 150.366 97.8001 150.366 97.8803 150.488C97.9605 150.611 97.9204 150.693 97.8001 150.775L95.5953 152.125L98.0407 150.693C98.1209 150.652 98.2412 150.652 98.3214 150.775C98.3615 150.857 98.3615 150.979 98.2412 151.061L90.223 156.094L98.562 151.184C98.6421 151.143 98.7624 151.143 98.8426 151.265C98.9228 151.388 98.8827 151.47 98.7624 151.552L91.1853 156.38L99.2837 151.634C99.3634 151.593 99.4837 151.593 99.5639 151.716C99.604 151.797 99.604 151.92 99.4837 152.002L97.7601 153.066L99.7243 151.92C99.8045 151.879 99.9248 151.879 100.005 152.002C100.045 152.084 100.045 152.207 99.9248 152.288L92.8693 156.789L100.406 152.329C100.486 152.288 100.606 152.288 100.687 152.411C100.727 152.493 100.727 152.616 100.606 152.698L93.0698 157.526L101.128 152.779C101.208 152.739 101.328 152.739 101.408 152.861C101.448 152.943 101.448 153.066 101.328 153.148L93.7911 157.976L101.849 153.23C101.93 153.189 102.05 153.189 102.13 153.311C102.17 153.393 102.17 153.516 102.05 153.598L100.205 154.743L102.29 153.516C102.371 153.475 102.49 153.475 102.571 153.598C102.611 153.68 102.611 153.803 102.49 153.884L97.1987 157.199L102.851 153.884C102.931 153.843 103.052 153.843 103.132 153.966C103.172 154.048 103.172 154.171 103.052 154.252L96.878 158.139L103.453 154.252C103.533 154.211 103.653 154.212 103.733 154.334C103.773 154.416 103.773 154.539 103.653 154.621L99.4035 157.28L103.974 154.58C104.054 154.539 104.174 154.539 104.255 154.661C104.295 154.743 104.295 154.866 104.174 154.948L98.602 158.467L104.535 154.948C104.615 154.907 104.736 154.907 104.816 155.03C104.856 155.112 104.856 155.234 104.736 155.316L97.319 160.063L105.257 155.398C105.337 155.357 105.457 155.357 105.538 155.48C105.577 155.562 105.577 155.684 105.457 155.766L99.0431 159.817L105.818 155.848C105.898 155.807 106.018 155.807 106.099 155.93C106.139 156.012 106.139 156.135 106.018 156.216L99.2436 160.554L106.179 156.462C106.259 156.421 106.379 156.421 106.459 156.544C106.54 156.667 106.5 156.748 106.379 156.83L104.415 158.057L106.179 157.035C106.259 156.994 106.379 156.994 106.459 157.117C106.5 157.199 106.5 157.321 106.379 157.403L105.457 157.976L105.698 157.812C105.778 157.771 105.898 157.771 105.978 157.894C106.018 157.976 106.018 158.098 105.898 158.18L91.6263 166.568C91.5462 166.609 91.4259 166.609 91.3457 166.486C91.3056 166.405 91.3056 166.282 91.4259 166.2L92.3481 165.627L90.4235 166.773C90.5839 166.527 90.5438 166.527 90.5037 166.527Z" fill="#96C9FE"/>
<path d="M220.237 162.873H182.031V165.696H220.237V162.873Z" fill="#305EED"/>
<path d="M222.242 168.766C223.004 167.661 223.605 166.27 223.605 164.265C223.605 162.301 223.044 160.91 222.242 159.805H222.963C223.645 160.705 224.367 162.097 224.367 164.265C224.367 166.433 223.645 167.825 222.963 168.725H222.242V168.766Z" fill="#305EED"/>
<path d="M180.028 168.766C179.266 167.661 178.665 166.27 178.665 164.265C178.665 162.301 179.226 160.91 180.028 159.805H179.306C178.624 160.705 177.903 162.097 177.903 164.265C177.903 166.433 178.624 167.825 179.306 168.725H180.028V168.766Z" fill="#305EED"/>
<path d="M276.432 109.7C268.493 105.035 255.643 105.035 247.766 109.7C239.859 114.366 239.921 121.964 247.859 126.662C255.798 131.328 268.648 131.328 276.525 126.662C284.402 121.964 284.371 114.398 276.432 109.7Z" fill="#18204D"/>
<path d="M124.676 66.6256L111.526 58.8928C110.283 58.1562 108.279 58.1562 107.036 58.8928L93.9667 66.6256C92.7242 67.3622 92.7643 68.5489 93.9667 69.2855L107.116 77.0184C108.359 77.755 110.363 77.755 111.606 77.0184L124.676 69.2855C125.918 68.5489 125.918 67.3622 124.676 66.6256Z" fill="#96C9FE"/>
<path d="M144.217 77.6866L131.068 69.9537C129.825 69.2171 127.82 69.2171 126.618 69.9537L113.549 77.6866C112.306 78.4231 112.306 79.6099 113.549 80.346L126.698 88.0793C127.941 88.8159 129.945 88.8159 131.148 88.0793L144.217 80.346C145.46 79.6099 145.46 78.4231 144.217 77.6866Z" fill="#96C9FE"/>
<path d="M124.454 89.3883L111.304 81.6555C110.062 80.9189 108.057 80.9189 106.855 81.6555L93.7852 89.3883C92.5423 90.1249 92.5423 91.3116 93.7852 92.0478L106.935 99.7811C108.177 100.518 110.182 100.518 111.384 99.7811L124.454 92.0478C125.697 91.3116 125.697 90.1249 124.454 89.3883Z" fill="#96C9FE"/>
<path d="M68.6474 100.149C68.5672 100.149 68.5271 100.108 68.487 100.067C68.4469 99.9853 68.4469 99.8625 68.5672 99.7807L75.1019 95.6071L67.7252 99.9443C67.645 99.9853 67.5247 99.9853 67.4446 99.8625C67.3648 99.7397 67.4045 99.6579 67.5248 99.576L75.7835 94.2571L66.7634 99.576C66.6832 99.617 66.5629 99.617 66.4827 99.4942C66.4426 99.4124 66.4426 99.2896 66.5629 99.2078L74.1797 94.298L66.0016 99.1259C65.9214 99.1668 65.8011 99.1668 65.7209 99.0441C65.6808 98.9622 65.6808 98.8395 65.8011 98.7576L71.2933 95.3206L65.4402 98.7576C65.36 98.7985 65.2398 98.7985 65.1596 98.6758C65.1195 98.5939 65.1195 98.4712 65.2398 98.3893L65.8412 98.021L65.0393 98.5121C64.9591 98.553 64.8388 98.553 64.7586 98.4302C64.7185 98.3484 64.7185 98.2256 64.8388 98.1438L69.3691 95.2797L64.4779 98.1438C64.3978 98.1847 64.2779 98.1847 64.1977 98.0619C64.1576 97.9801 64.1576 97.8573 64.2779 97.7755L68.6875 94.9933L63.9571 97.7755C63.8769 97.8164 63.7567 97.8164 63.6765 97.6941C63.6364 97.6122 63.6364 97.4895 63.7567 97.4076L67.4446 95.116L63.4359 97.4895C63.3557 97.5304 63.2354 97.5304 63.1552 97.4076C63.1151 97.3258 63.1151 97.203 63.2354 97.1212L68.7677 93.6433L62.8746 97.1212C62.7944 97.1621 62.6741 97.1621 62.5939 97.0393C62.5538 96.9575 62.5538 96.8347 62.6741 96.7529L69.0484 92.7021L62.233 96.712C62.1529 96.7529 62.0326 96.7529 61.9524 96.6301C61.9123 96.5483 61.9123 96.4255 62.0326 96.3437L63.7567 95.2797L61.792 96.4255C61.7118 96.4664 61.5915 96.4664 61.5113 96.3437C61.4712 96.2618 61.4712 96.1391 61.5915 96.0572L65.1195 93.8479L61.3109 96.0982C61.2307 96.1391 61.1108 96.1391 61.0306 96.0163C60.9905 95.9345 60.9905 95.8117 61.1108 95.7299L67.8054 91.4745L60.6297 95.6889C60.5495 95.7299 60.4292 95.7299 60.349 95.6071C60.3089 95.5253 60.3089 95.4025 60.4292 95.3206L67.8054 90.6155L59.9079 95.2797C59.8278 95.3206 59.7075 95.3206 59.6273 95.1979C59.5872 95.116 59.5872 94.9933 59.7075 94.9114L67.4049 89.9608L59.1862 94.8296C59.1061 94.8705 58.9858 94.8705 58.9056 94.7477C58.8655 94.6659 58.8655 94.5436 58.9858 94.4617L66.3624 89.9608L58.4244 94.625C58.3442 94.6659 58.224 94.6659 58.1438 94.5431C58.1037 94.4617 58.1037 94.339 58.224 94.2571L63.4359 90.9838L57.8635 94.2571C57.7833 94.298 57.6631 94.298 57.5829 94.1753C57.5027 94.0525 57.5428 93.9707 57.663 93.8888L61.5113 91.4745L57.3423 93.9297C57.2621 93.9707 57.1418 93.9707 57.0616 93.8479C57.0215 93.7661 57.0215 93.6433 57.1418 93.5615L64.5581 88.815L56.6206 93.4796C56.5404 93.5205 56.4201 93.5205 56.3399 93.3978C56.2998 93.3159 56.2998 93.1932 56.4201 93.1113L58.1839 92.0064L56.1394 93.1932C56.0592 93.2341 55.939 93.2341 55.8588 93.1113C55.8187 93.0295 55.8187 92.9067 55.939 92.8249L64.0774 87.5878L55.3776 92.7021C55.2974 92.743 55.1772 92.743 55.097 92.6203C55.0569 92.5384 55.0569 92.4157 55.1772 92.3338L56.0593 91.8018L54.9767 92.4566C54.8965 92.4975 54.7766 92.4975 54.6964 92.3747C54.6563 92.2929 54.6563 92.1701 54.7766 92.0883L59.9079 88.8559L54.4158 92.0883C54.3356 92.1292 54.2153 92.1292 54.1351 92.0064C54.095 91.9246 54.095 91.8018 54.2153 91.72L60.9905 87.3832L53.7342 91.6381C53.654 91.6791 53.5337 91.6791 53.4535 91.5563C53.4134 91.4745 53.4134 91.3517 53.5337 91.2703L60.0282 87.1376L53.1728 91.1884C53.0926 91.2294 52.9723 91.2294 52.8922 91.1066C52.8521 91.0248 52.8521 90.902 52.9723 90.8201L57.9036 87.7105L52.8922 90.6565C52.812 90.6974 52.6917 90.6974 52.6115 90.5746C52.5714 90.4928 52.5714 90.37 52.6917 90.2882L56.5805 87.8333L52.812 90.0426C52.7318 90.0836 52.6115 90.0836 52.5313 89.9608C52.4912 89.879 52.4912 89.7562 52.6115 89.6743L53.7342 88.9787L53.2931 89.2651C53.2129 89.3061 53.0926 89.3061 53.0124 89.1833C52.9723 89.1014 52.9724 88.9787 53.0926 88.8968L67.3648 80.5092C67.4446 80.4683 67.5648 80.4683 67.645 80.5911C67.7252 80.7138 67.6851 80.7957 67.5648 80.8775L66.4426 81.5732L68.5672 80.3046C68.6474 80.2637 68.7677 80.2637 68.8479 80.3865C68.888 80.4683 68.888 80.5911 68.7677 80.6729L64.8789 83.1278L69.5696 80.3865C69.6498 80.3455 69.7701 80.3455 69.8503 80.4683C69.8904 80.5502 69.8904 80.6729 69.7701 80.7548L64.8388 83.8644L70.3715 80.5911C70.4517 80.5502 70.5716 80.5502 70.6517 80.6729C70.6918 80.7548 70.6918 80.8775 70.5716 80.9594L64.0774 85.0916L71.0928 80.9594C71.173 80.9184 71.2933 80.9184 71.3735 81.0412C71.4135 81.1231 71.4136 81.2458 71.2933 81.3277L64.518 85.6645L71.7744 81.3686C71.8546 81.3277 71.9749 81.3277 72.0551 81.4504C72.0952 81.5323 72.0952 81.655 71.9749 81.7369L66.8436 84.9692L72.3357 81.7369C72.4159 81.696 72.5362 81.696 72.6164 81.8183C72.6565 81.9001 72.6565 82.0229 72.5362 82.1047L71.6541 82.6367L72.7367 81.982C72.8169 81.9411 72.9372 81.9411 73.0173 82.0638C73.0975 82.1866 73.0574 82.2684 72.9372 82.3503L64.7987 87.5878L73.4985 82.473C73.5787 82.4321 73.6985 82.4321 73.7787 82.5549C73.8188 82.6367 73.8188 82.7595 73.6985 82.8413L71.9348 83.9462L73.9391 82.7595C74.0193 82.7186 74.1396 82.7186 74.2198 82.8413C74.2599 82.9232 74.2599 83.0459 74.1396 83.1278L66.7233 87.8742L74.6608 83.2096C74.741 83.1687 74.8613 83.1687 74.9415 83.2915C74.9816 83.3733 74.9816 83.4961 74.8613 83.5779L71.0126 85.9918L75.1821 83.537C75.2623 83.4961 75.3825 83.4961 75.4627 83.6188C75.5028 83.7007 75.5028 83.8234 75.3825 83.9053L70.171 87.1786L75.7434 83.9053C75.8236 83.8644 75.9439 83.8644 76.0241 83.9871C76.1043 84.1099 76.0642 84.1917 75.9439 84.2736L68.5271 89.0196L76.4651 84.3554C76.5453 84.3145 76.6656 84.3145 76.7453 84.4373C76.8255 84.56 76.7854 84.6419 76.6656 84.7237L68.9682 89.6743L77.1864 84.8056C77.2666 84.7646 77.3869 84.7646 77.4671 84.8874C77.5072 84.9692 77.5072 85.0916 77.3869 85.1734L70.0106 89.879L77.9081 85.2143C77.9883 85.1734 78.1086 85.1734 78.1888 85.2962C78.2289 85.378 78.2289 85.5008 78.1086 85.5826L71.4135 89.838L78.5897 85.6236C78.6699 85.5826 78.7902 85.5826 78.8704 85.7054C78.9105 85.7872 78.9105 85.91 78.7902 85.9918L75.2623 88.2012L79.0709 85.9509C79.1511 85.91 79.2713 85.91 79.3515 86.0328C79.3916 86.1146 79.3916 86.2374 79.2713 86.3192L77.5472 87.3832L79.5119 86.2374C79.5921 86.1965 79.7124 86.1965 79.7926 86.3192C79.8327 86.4011 79.8327 86.5238 79.7124 86.6057L73.3381 90.6565L80.153 86.6466C80.2332 86.6057 80.3535 86.6057 80.4337 86.7284C80.4738 86.8103 80.4738 86.933 80.3535 87.0149L74.8212 90.4928L80.7143 87.0149C80.7945 86.974 80.9148 86.974 80.995 87.0967C81.0351 87.1786 81.0351 87.3013 80.9148 87.3832L77.2265 89.6743L81.2356 87.3013C81.3158 87.2604 81.4361 87.2604 81.5162 87.3832C81.5563 87.465 81.5563 87.5878 81.4361 87.6696L77.026 90.4519L81.7568 87.6696C81.837 87.6287 81.9573 87.6287 82.0375 87.7515C82.0776 87.8333 82.0776 87.9561 81.9573 88.0379L77.427 90.902L82.3181 88.0379C82.3983 87.997 82.5186 87.997 82.5988 88.1198C82.6389 88.2012 82.6389 88.3239 82.5186 88.4058L81.9172 88.7741L82.7191 88.3239C82.7993 88.283 82.9196 88.283 82.9998 88.4058C83.0394 88.4876 83.0394 88.6104 82.9196 88.6922L77.427 92.1292L83.28 88.6922C83.3602 88.6513 83.4805 88.6513 83.5607 88.7741C83.6008 88.8559 83.6008 88.9787 83.4805 89.0605L75.8637 93.9707L84.0418 89.1424C84.122 89.1014 84.2423 89.1014 84.3225 89.2242C84.3626 89.3061 84.3626 89.4288 84.2423 89.5107L75.984 94.8296L84.6833 89.7153C84.7635 89.6743 84.8838 89.6743 84.964 89.7971C85.0041 89.879 85.0041 90.0017 84.8838 90.0836L78.3091 94.2571L84.9239 90.37C85.0041 90.3291 85.1244 90.3291 85.2046 90.4519C85.2447 90.5337 85.2447 90.6565 85.1244 90.7383L82.5186 92.3747L84.8437 91.0248C84.9239 90.9838 85.0442 90.9838 85.1244 91.1066C85.1645 91.1884 85.1645 91.3112 85.0442 91.3926L69.6498 100.476C69.5696 100.517 69.4493 100.517 69.3691 100.394C69.2889 100.272 69.329 100.19 69.4493 100.108L72.0551 98.4712L68.6073 100.517C68.6875 100.149 68.6474 100.149 68.6474 100.149Z" fill="#96C9FE"/>
<path d="M103.726 123.88L90.5769 116.148C89.3344 115.411 87.3296 115.411 86.0871 116.148L73.0178 123.88C71.7749 124.617 71.815 125.804 73.0178 126.54L86.1673 134.273C87.4098 135.01 89.4146 135.01 90.6571 134.273L103.726 126.54C104.969 125.804 104.969 124.617 103.726 123.88Z" fill="#305EED"/>
<path d="M64.4784 100.763L51.3289 93.03C50.0864 92.2934 48.0816 92.2934 46.8391 93.03L33.7698 100.763C32.527 101.499 32.5671 102.686 33.7698 103.423L46.9193 111.156C48.1618 111.892 50.1666 111.892 51.4091 111.156L64.4784 103.423C65.7213 102.686 65.7213 101.499 64.4784 100.763Z" fill="#96C9FE"/>
<path d="M145.78 148.676L132.63 140.942C131.387 140.206 129.383 140.206 128.18 140.942L115.111 148.676C113.868 149.412 113.868 150.599 115.111 151.335L128.26 159.069C129.503 159.805 131.508 159.805 132.711 159.069L145.78 151.335C147.022 150.599 147.022 149.412 145.78 148.676Z" fill="#305EED"/>
<path d="M154.921 122.048L141.772 114.315C140.529 113.579 138.524 113.579 137.282 114.315L124.212 122.048C122.97 122.785 122.97 123.971 124.212 124.708L137.362 132.441C138.604 133.177 140.609 133.177 141.852 132.441L154.921 124.708C156.164 123.93 156.164 122.744 154.921 122.048Z" fill="#305EED"/>
<path d="M175.407 131.081L162.258 123.348C161.015 122.612 159.011 122.612 157.768 123.348L144.698 131.081C143.456 131.818 143.456 133.004 144.698 133.741L157.848 141.474C159.091 142.211 161.095 142.211 162.338 141.474L175.407 133.741C176.65 133.004 176.65 131.818 175.407 131.081Z" fill="#96C9FE"/>
<path d="M282.785 105.918C272.482 99.863 255.805 99.863 245.582 105.918C235.319 111.974 235.399 121.835 245.702 127.931C256.006 133.987 272.683 133.987 282.906 127.931C293.129 121.835 293.089 112.015 282.785 105.918Z" fill="#072D57"/>
<path d="M264.164 56.9015L251.095 64.6344C249.852 65.3709 247.847 65.3709 246.605 64.6344L238.667 59.9702L233.455 56.9015C232.212 56.1649 232.212 54.9782 233.455 54.2416L246.525 46.5087C247.767 45.7722 249.772 45.7722 251.014 46.5087L256.266 49.6183L264.164 54.2825C265.367 54.9782 265.367 56.1649 264.164 56.9015Z" fill="#96C9FE"/>
<path d="M214.053 62.4246L200.984 70.1574C199.741 70.894 197.737 70.894 196.494 70.1574L188.556 65.4932L183.344 62.4246C182.102 61.688 182.102 60.5013 183.344 59.7651L196.414 52.0318C197.657 51.2952 199.661 51.2952 200.904 52.0318L206.156 55.1414L214.053 59.806C215.296 60.5013 215.296 61.688 214.053 62.4246Z" fill="#072D57"/>
<path d="M214.776 83.537L201.626 75.8041C200.384 75.0676 198.379 75.0676 197.136 75.8041L184.067 83.537C182.824 84.2736 182.864 85.4603 184.067 86.1965L197.217 93.9298C198.459 94.6663 200.464 94.6663 201.706 93.9298L214.776 86.1965C216.019 85.4603 216.019 84.2736 214.776 83.537Z" fill="#305EED"/>
<path d="M284.61 68.9716L271.541 76.7049C270.298 77.441 268.294 77.441 267.051 76.7049L260.957 73.1042L253.941 68.9716C252.699 68.235 252.699 67.0487 253.941 66.3121L267.011 58.5788C268.253 57.8427 270.258 57.8427 271.501 58.5788L278.476 62.7115L284.65 66.3531C285.853 67.0487 285.853 68.235 284.61 68.9716Z" fill="#072D57"/>
<path d="M152.414 67.6414C151.332 67.6414 150.29 67.3959 149.488 66.9049L132.81 57.085C131.969 56.5944 131.528 55.9396 131.528 55.244C131.528 54.5483 131.969 53.8936 132.81 53.4029L149.367 43.5831C150.971 42.6419 153.617 42.6419 155.221 43.5831L171.898 53.4029C172.74 53.8936 173.181 54.5483 173.181 55.244C173.181 55.9396 172.74 56.5944 171.898 57.085L155.341 66.9049C154.539 67.3959 153.457 67.6414 152.414 67.6414ZM152.254 43.2557C151.252 43.2557 150.29 43.4603 149.528 43.9105L132.971 53.7299C132.29 54.1391 131.889 54.6711 131.889 55.2031C131.889 55.776 132.29 56.3079 132.971 56.7171L149.648 66.5366C151.171 67.4368 153.617 67.4368 155.1 66.5366L171.657 56.7171C172.339 56.3079 172.74 55.776 172.74 55.244C172.74 54.6711 172.339 54.1391 171.657 53.7299L154.98 43.9105C154.258 43.5012 153.256 43.2557 152.254 43.2557Z" fill="#18204D"/>
<path d="M103.577 64.8389C102.495 64.8389 101.453 64.5934 100.651 64.1024L83.9735 54.2829C83.132 53.7919 82.6909 53.1371 82.6909 52.4415C82.6909 51.7458 83.132 51.0915 83.9735 50.6004L100.531 40.7806C102.134 39.8394 104.78 39.8394 106.384 40.7806L123.061 50.6004C123.903 51.0915 124.344 51.7458 124.344 52.4415C124.344 53.1371 123.903 53.7919 123.061 54.2829L106.504 64.1024C105.702 64.5934 104.62 64.8389 103.577 64.8389ZM103.417 40.4532C102.415 40.4532 101.453 40.6578 100.691 41.108L84.1339 50.9278C83.4523 51.3366 83.0518 51.8686 83.0518 52.4006C83.0518 52.9735 83.4523 53.5054 84.1339 53.9146L100.811 63.7345C102.335 64.6343 104.78 64.6343 106.263 63.7345L122.821 53.9146C123.502 53.5054 123.903 52.9735 123.903 52.4415C123.903 51.8686 123.502 51.3366 122.821 50.9278L106.143 41.108C105.421 40.6988 104.419 40.4532 103.417 40.4532Z" fill="#305EED"/>
<path d="M125.014 126.663C123.932 126.663 122.889 126.417 122.088 125.926L105.41 116.107C104.568 115.616 104.127 114.961 104.127 114.266C104.127 113.57 104.568 112.915 105.41 112.424L121.967 102.604C123.571 101.663 126.217 101.663 127.82 102.604L144.498 112.424C145.34 112.915 145.781 113.57 145.781 114.266C145.781 114.961 145.34 115.616 144.498 116.107L127.941 125.926C127.139 126.417 126.097 126.663 125.014 126.663ZM124.894 102.277C123.892 102.277 122.93 102.481 122.168 102.932L105.611 112.751C104.929 113.161 104.528 113.693 104.528 114.225C104.528 114.797 104.929 115.329 105.611 115.738L122.288 125.558C123.812 126.458 126.257 126.458 127.74 125.558L144.297 115.738C144.979 115.329 145.38 114.797 145.38 114.266C145.38 113.693 144.979 113.161 144.297 112.751L127.62 102.932C126.858 102.481 125.896 102.277 124.894 102.277Z" fill="#96C9FE"/>
<path d="M125.174 156.327C124.091 156.327 123.049 156.081 122.247 155.59L105.57 145.77C104.728 145.279 104.287 144.625 104.287 143.929C104.287 143.234 104.728 142.579 105.57 142.088L122.127 132.268C123.731 131.327 126.377 131.327 127.98 132.268L144.657 142.088C145.499 142.579 145.94 143.234 145.94 143.929C145.94 144.625 145.499 145.279 144.657 145.77L128.1 155.59C127.298 156.081 126.256 156.327 125.174 156.327ZM125.054 131.982C124.051 131.982 123.089 132.186 122.327 132.636L105.77 142.456C105.089 142.865 104.688 143.397 104.688 143.929C104.688 144.502 105.089 145.034 105.77 145.443L122.448 155.263C123.971 156.163 126.417 156.163 127.9 155.263L144.457 145.443C145.139 145.034 145.54 144.502 145.54 143.97C145.54 143.397 145.139 142.865 144.457 142.456L127.78 132.636C127.058 132.186 126.056 131.982 125.054 131.982Z" fill="#96C9FE"/>
<path d="M171.778 50.9067L155.1 41.0869C153.537 40.1457 151.011 40.1457 149.448 41.0869L132.891 50.9067C131.327 51.8475 131.327 53.3207 132.891 54.2619L149.568 64.0817C151.131 65.0225 153.697 65.0225 155.221 64.0817L171.778 54.2619C173.341 53.3616 173.341 51.8475 171.778 50.9067Z" fill="#96C9FE"/>
<path d="M68.7253 32.2093L40.7735 15.7508C38.153 14.1736 33.9198 14.1736 31.2993 15.7508L3.54898 32.2093C0.928496 33.7865 0.928496 36.2552 3.54898 37.8326L31.5009 54.2912C34.1215 55.8682 38.4218 55.8682 40.9748 54.2912L68.7253 37.8326C71.3458 36.3241 71.3458 33.7865 68.7253 32.2093Z" fill="#072D57"/>
<path d="M144.377 109.928L127.7 100.108C126.137 99.1673 123.571 99.1673 122.047 100.108L105.49 109.928C103.927 110.869 103.927 112.342 105.49 113.283L122.168 123.103C123.731 124.044 126.257 124.044 127.82 123.103L144.377 113.283C145.981 112.342 145.981 110.869 144.377 109.928Z" fill="#96C9FE"/>
<path opacity="0.6" d="M104.607 86.9331L87.9297 77.1133C86.3664 76.1725 83.8408 76.1725 82.2771 77.1133L65.7204 86.9331C64.1567 87.8743 64.1567 89.3475 65.7204 90.2883L82.3974 100.108C83.9611 101.049 86.5268 101.049 88.05 100.108L104.607 90.2883C106.171 89.3884 106.171 87.8743 104.607 86.9331Z" fill="#072D57"/>
<path opacity="0.9" d="M122.791 44.5958L106.403 34.9465C104.866 34.0217 102.385 34.0217 100.848 34.9465L84.5782 44.5958C83.042 45.5206 83.042 46.968 84.5782 47.8928L100.966 57.5425C102.503 58.4669 105.024 58.4669 106.521 57.5425L122.791 47.8928C124.327 47.0085 124.327 45.5206 122.791 44.5958Z" fill="#96C9FE"/>
<path d="M241.195 79.0821L224.517 69.2623C222.954 68.3211 220.429 68.3211 218.865 69.2623L202.308 79.0821C200.744 80.0233 200.744 81.4961 202.308 82.4373L218.985 92.2571C220.549 93.1979 223.115 93.1979 224.638 92.2571L241.195 82.4373C242.799 81.4961 242.799 79.9824 241.195 79.0821Z" fill="#96C9FE"/>
<path opacity="0.06" fill-rule="evenodd" clip-rule="evenodd" d="M251.095 64.6344L264.164 56.9011C265.367 56.1649 265.367 54.9782 264.124 54.2416L260.175 51.9095L242.636 62.3023L246.605 64.6344C247.848 65.371 249.852 65.371 251.095 64.6344Z" fill="#18204D"/>
<path opacity="0.06" d="M278.437 62.711C278.277 62.8747 278.116 62.9975 277.916 63.1203L261.359 72.9401C261.239 73.022 261.119 73.0629 260.998 73.1447L253.983 69.0121C252.74 68.2755 252.74 67.0888 253.983 66.3526L267.052 58.6193C268.294 57.8827 270.299 57.8827 271.542 58.6193L278.437 62.711Z" fill="#18204D"/>
<path opacity="0.6" d="M143.71 103.515L127.032 93.695C125.469 92.7538 122.903 92.7538 121.38 93.695L104.823 103.515C103.259 104.456 103.259 105.929 104.823 106.87L121.5 116.689C123.063 117.631 125.589 117.631 127.153 116.689L143.71 106.87C145.273 105.97 145.273 104.456 143.71 103.515Z" fill="#072D57"/>
<path fill-rule="evenodd" clip-rule="evenodd" d="M103.204 45.5253C112.626 45.5253 120.241 37.7532 120.241 28.1368C120.241 18.5204 112.626 10.7482 103.204 10.7482C93.7819 10.7482 86.1664 18.5204 86.1664 28.1368C86.1664 37.7532 93.7819 45.5253 103.204 45.5253Z" fill="#305EED"/>
<g opacity="0.38">
<path opacity="0.38" d="M104.317 49.9172C112.301 49.9172 118.773 49.0523 118.773 47.9849C118.773 46.9179 112.301 46.053 104.317 46.053C96.3331 46.053 89.861 46.9179 89.861 47.9849C89.861 49.0523 96.3331 49.9172 104.317 49.9172Z" fill="#18204D"/>
</g>
<path fill-rule="evenodd" clip-rule="evenodd" d="M212.12 29.692H196.726V31.4514H212.12V29.692ZM212.12 32.3515H196.726V34.1108H212.12V32.3515ZM196.726 35.0519H212.12V36.8116H196.726V35.0519Z" fill="#072D57"/>
<path fill-rule="evenodd" clip-rule="evenodd" d="M220.527 19.1361H205.133V20.8955H220.527V19.1361ZM220.527 21.7957H205.133V23.555H220.527V21.7957ZM205.133 24.4961H220.527V26.2555H205.133V24.4961Z" fill="#072D57"/>
<path d="M158.688 221.956H120.483V224.779H158.688V221.956Z" fill="#305EED"/>
<path d="M162.377 227.316H124.171V230.14H162.377V227.316Z" fill="#305EED"/>
<path d="M132.333 200.139C134.162 200.139 134.495 199.12 134.495 198.187C134.495 197.423 134.412 196.659 134.245 195.895C134.162 195.131 133.996 194.452 133.996 193.688C133.996 191.227 135.576 190.124 137.821 190.124H138.403V191.567H137.905C136.324 191.567 135.826 192.415 135.826 193.858C135.826 194.452 135.909 195.131 135.992 195.725C136.075 196.404 136.158 197.083 136.158 197.762C136.158 199.46 135.41 200.309 134.245 200.648V200.733C135.41 200.988 136.158 201.921 136.158 203.704C136.158 204.468 136.075 205.062 135.992 205.741C135.909 206.42 135.826 207.014 135.826 207.693C135.826 209.22 136.408 210.07 137.905 210.07H138.403V211.513H137.821C135.659 211.513 133.996 210.579 133.996 207.863C133.996 207.099 134.079 206.42 134.245 205.656C134.329 204.892 134.495 204.213 134.495 203.449C134.495 202.6 134.245 201.497 132.333 201.497V200.139Z" fill="#305EED"/>
<path d="M184.667 220.483C183.786 220.483 183.625 220.974 183.625 221.424C183.625 221.792 183.665 222.161 183.745 222.529C183.786 222.897 183.866 223.224 183.866 223.592C183.866 224.779 183.104 225.311 182.021 225.311H181.741V224.615H181.981C182.743 224.615 182.984 224.206 182.984 223.511C182.984 223.224 182.944 222.897 182.903 222.611C182.863 222.283 182.823 221.956 182.823 221.629C182.823 220.81 183.184 220.401 183.745 220.237V220.196C183.184 220.074 182.823 219.624 182.823 218.765C182.823 218.396 182.863 218.11 182.903 217.782C182.944 217.455 182.984 217.169 182.984 216.841C182.984 216.105 182.703 215.696 181.981 215.696H181.741V215H182.021C183.064 215 183.866 215.45 183.866 216.759C183.866 217.128 183.826 217.455 183.745 217.823C183.705 218.192 183.625 218.519 183.625 218.887C183.625 219.297 183.745 219.829 184.667 219.829V220.483Z" fill="#305EED"/>
<path d="M166.987 229.178C166.105 229.178 165.944 229.669 165.944 230.119C165.944 230.487 165.984 230.856 166.065 231.224C166.105 231.592 166.185 231.919 166.185 232.288C166.185 233.474 165.424 234.006 164.341 234.006H164.06V233.311H164.301C165.063 233.311 165.303 232.902 165.303 232.206C165.303 231.919 165.263 231.592 165.223 231.306C165.183 230.978 165.143 230.651 165.143 230.324C165.143 229.506 165.504 229.096 166.065 228.933V228.892C165.504 228.769 165.143 228.319 165.143 227.459C165.143 227.092 165.183 226.805 165.223 226.478C165.263 226.15 165.303 225.864 165.303 225.537C165.303 224.8 165.023 224.391 164.301 224.391H164.06V223.696H164.341C165.383 223.696 166.185 224.145 166.185 225.455C166.185 225.823 166.145 226.15 166.065 226.519C166.025 226.887 165.944 227.214 165.944 227.582C165.944 227.991 166.065 228.523 166.987 228.523V229.178Z" fill="#305EED"/>
<path d="M231.152 216.637C228.466 216.637 228.065 218.315 228.065 219.501C228.065 220.565 228.225 221.588 228.386 222.652C228.546 223.716 228.706 224.78 228.706 225.843C228.706 229.771 226.301 231.163 223.174 231.163H222.372V229.035H223.014C225.138 228.994 226.061 227.848 226.061 225.639C226.061 224.698 225.9 223.798 225.78 222.856C225.62 221.915 225.459 220.974 225.459 219.91C225.459 217.415 226.542 216.105 228.185 215.655V215.573C226.502 215.124 225.459 213.855 225.459 211.359C225.459 210.295 225.62 209.395 225.78 208.413C225.9 207.472 226.061 206.531 226.061 205.672C226.061 203.585 225.259 202.358 223.054 202.317H222.332V200.189H223.094C226.341 200.189 228.666 201.703 228.666 205.263C228.666 206.367 228.506 207.39 228.346 208.495C228.185 209.6 228.025 210.664 228.025 211.768C228.025 213.118 228.426 214.633 231.112 214.633V216.637H231.152Z" fill="#305EED"/>
<path d="M103.277 209.294C107.897 209.294 108.587 206.409 108.587 204.368C108.587 202.538 108.311 200.779 108.035 198.949C107.76 197.12 107.484 195.29 107.484 193.46C107.484 186.705 111.621 184.312 116.999 184.312H118.378V187.971H117.275C113.62 188.042 112.035 190.012 112.035 193.812C112.035 195.431 112.31 196.979 112.517 198.598C112.793 200.216 113.069 201.835 113.069 203.664C113.069 207.957 111.207 210.209 108.38 210.983V211.124C111.276 211.898 113.069 214.08 113.069 218.372C113.069 220.202 112.793 221.75 112.517 223.439C112.31 225.058 112.035 226.676 112.035 228.154C112.035 231.743 113.414 233.854 117.206 233.925H118.378V237.584H117.068C111.483 237.584 107.484 234.98 107.484 228.858C107.484 226.958 107.76 225.198 108.035 223.298C108.311 221.398 108.587 219.569 108.587 217.669C108.587 215.346 107.897 212.742 103.277 212.742V209.294Z" fill="#305EED"/>
<path d="M119.321 220.155C118.76 220.933 118.359 221.955 118.359 223.388C118.359 224.779 118.8 225.802 119.321 226.579H118.8C118.319 225.924 117.798 224.901 117.798 223.388C117.798 221.833 118.319 220.81 118.8 220.155H119.321Z" fill="#305EED"/>
<path d="M113.319 1.54203C114.642 1.54203 114.802 0.805526 114.802 0.15087C114.802 -0.381022 114.722 -0.912915 114.642 -1.44485C114.562 -1.97674 114.482 -2.46771 114.482 -2.99965C114.482 -4.71809 115.604 -5.45459 117.168 -5.45459H117.568V-4.43168H117.248C116.165 -4.43168 115.804 -3.81795 115.804 -2.79504C115.804 -2.34499 115.844 -1.8949 115.925 -1.44485C116.005 -0.953836 116.045 -0.503787 116.045 -0.0127726C116.045 1.2147 115.564 1.78751 114.722 2.03304V2.07392C115.564 2.27852 116.085 2.93318 116.045 4.11973C116.045 4.6107 116.005 5.10171 115.925 5.55176C115.844 6.04278 115.804 6.45195 115.804 6.902C115.804 7.96583 116.245 8.53864 117.248 8.53864H117.568V9.56155H117.168C115.644 9.56155 114.482 8.86597 114.482 6.98384C114.482 6.49287 114.562 5.96094 114.642 5.42904C114.722 4.93803 114.802 4.40614 114.802 3.91517C114.802 3.34231 114.602 2.52401 113.319 2.52401V1.54203Z" fill="#96C9FE"/>
<path d="M140.219 26.132C139.417 26.132 139.297 26.623 139.297 26.9913C139.297 27.3186 139.337 27.605 139.377 27.9323C139.417 28.2597 139.457 28.587 139.457 28.8734C139.457 30.06 138.736 30.4691 137.814 30.4691H137.573V29.8145H137.774C138.415 29.8145 138.696 29.4462 138.696 28.7916C138.696 28.5051 138.656 28.2597 138.616 27.9323C138.576 27.6459 138.536 27.3595 138.536 27.0322C138.536 26.2957 138.856 25.8866 139.377 25.7638V25.7229C138.856 25.6002 138.536 25.191 138.536 24.4545C138.536 24.1272 138.576 23.8407 138.616 23.5543C138.656 23.2679 138.696 22.9815 138.696 22.736C138.696 22.1223 138.455 21.7541 137.774 21.7131H137.573V21.0585H137.814C138.776 21.0585 139.498 21.5085 139.498 22.5724C139.498 22.8997 139.457 23.227 139.417 23.5543C139.377 23.8817 139.337 24.209 139.337 24.5363C139.337 24.9455 139.457 25.3955 140.259 25.3955V26.132H140.219Z" fill="#96C9FE"/>
<path d="M133.793 237.667C134.154 237.176 134.394 236.562 134.394 235.662C134.394 234.803 134.154 234.148 133.793 233.657H134.113C134.434 234.066 134.755 234.68 134.755 235.662C134.755 236.644 134.434 237.258 134.113 237.667H133.793Z" fill="#305EED"/>
<path d="M166.987 173.838H128.781V176.662H166.987V173.838Z" fill="#305EED"/>
<path d="M212.449 173.838H194.649V176.662H212.449V173.838Z" fill="#305EED"/>
<path d="M183.905 173.838H174.083V176.662H183.905V173.838Z" fill="#305EED"/>
<path d="M215.254 172.775C215.254 172.243 215.615 171.875 216.096 171.875C216.578 171.875 216.898 172.243 216.898 172.775C216.898 173.266 216.577 173.634 216.056 173.634C215.575 173.634 215.254 173.266 215.254 172.775ZM215.254 177.726C215.254 177.194 215.615 176.825 216.096 176.825C216.578 176.825 216.898 177.194 216.898 177.726C216.898 178.217 216.577 178.585 216.056 178.585C215.575 178.585 215.254 178.217 215.254 177.726Z" fill="#305EED"/>
<path d="M186.871 174.534V173.92H192.163V174.534H186.871ZM186.871 176.579V175.966H192.163V176.579H186.871Z" fill="#305EED"/>
<path d="M168.992 179.731C169.754 178.626 170.355 177.235 170.355 175.23C170.355 173.266 169.794 171.875 168.992 170.77H169.714C170.395 171.67 171.117 173.061 171.117 175.23C171.117 177.398 170.395 178.79 169.714 179.69H168.992V179.731Z" fill="#305EED"/>
<path d="M126.777 179.731C126.016 178.626 125.414 177.235 125.414 175.23C125.414 173.266 125.976 171.875 126.777 170.77H126.056C125.374 171.67 124.652 173.061 124.652 175.23C124.652 177.398 125.374 178.79 126.056 179.69H126.777V179.731Z" fill="#305EED"/>
<path d="M41.8316 144.583L28.6822 136.849C27.4394 136.113 25.4349 136.113 24.1922 136.849L11.1229 144.583C9.88016 145.319 9.92021 146.506 11.1229 147.242L24.2723 154.976C25.5151 155.712 27.5196 155.712 28.7624 154.976L41.8316 147.242C43.1147 146.506 43.0746 145.319 41.8316 144.583Z" fill="#305EED"/>
<path d="M46.8941 217.873L33.745 210.14C32.502 209.403 30.4975 209.403 29.2548 210.14L16.1855 217.873C14.9428 218.609 14.9829 219.796 16.1855 220.533L29.335 228.265C30.5777 229.002 32.5822 229.002 33.8252 228.265L46.8941 220.533C48.1771 219.796 48.137 218.609 46.8941 217.873Z" fill="#305EED"/>
<path d="M143.345 12.4662H115.443V13.9392H143.345V12.4662Z" fill="#96C9FE"/>
<path d="M147.074 6.73853H119.172V8.21152H147.074V6.73853Z" fill="#96C9FE"/>
<path d="M147.074 4.07837H119.172V5.55133H147.074V4.07837Z" fill="#96C9FE"/>
<path d="M135.569 15.0852H121.617V16.5582H135.569V15.0852Z" fill="#96C9FE"/>
<path d="M144.548 17.663H125.546V19.1359H144.548V17.663Z" fill="#96C9FE"/>
<path d="M151.002 15.0852H137.051V16.5582H151.002V15.0852Z" fill="#96C9FE"/>
<path d="M129.394 20.2811H122.82V21.7541H129.394V20.2811Z" fill="#96C9FE"/>
<path d="M175.367 19.2993C174.525 20.4449 173.924 21.9589 173.924 24.0865C173.924 26.1732 174.565 27.6462 175.367 28.8327H174.565C173.844 27.8507 173.082 26.3778 173.082 24.0865C173.082 21.7952 173.844 20.2813 174.565 19.2993H175.367Z" fill="#96C9FE"/>
<path opacity="0.7" d="M154.189 25.4671H112.055C110.852 25.4671 109.85 24.2419 109.85 22.7718V1.16039C109.85 -0.309768 110.852 -1.53491 112.055 -1.53491H154.189C155.392 -1.53491 156.394 -0.309768 156.394 1.16039V22.7718C156.394 24.2419 155.392 25.4671 154.189 25.4671Z" fill="#96C9FE"/>
<path d="M44.9738 206.58C44.9738 214.027 39.0005 220.083 31.7441 220.083C24.4879 220.083 18.5145 213.986 18.5145 206.58C18.5145 199.175 24.4879 193.078 31.7441 193.078C39.0005 193.078 44.9738 199.134 44.9738 206.58Z" fill="#96C9FE"/>
<path opacity="0.63" d="M194.93 80.0595C194.73 80.1005 194.529 80.1414 194.329 80.1823C190.119 81.0826 185.309 80.9189 181.38 79.7731C171.117 76.7453 171.839 69.053 182.623 66.5163C182.823 66.4753 183.024 66.4344 183.184 66.3935C186.952 65.5755 198.498 66.2298 198.498 66.2298C208.12 69.053 208.32 76.1724 198.779 79.0774C197.576 79.4048 196.293 79.7322 194.93 80.0595Z" fill="#18204D"/>
<path d="M200.864 62.9152C193.568 58.6193 181.702 58.6193 174.486 62.9152C167.269 67.2115 167.309 74.2082 174.566 78.5045C181.862 82.8004 193.729 82.8004 200.945 78.5045C208.161 74.2082 208.121 67.2115 200.864 62.9152Z" fill="#96C9FE"/>
<path d="M100.193 27.4556C102.044 27.4556 102.301 26.4018 102.301 25.4797C102.301 24.7332 102.215 23.9867 102.086 23.2402C102 22.4937 101.871 21.7912 101.871 21.0008C101.871 18.5418 103.463 17.4879 105.657 17.4879H106.217V18.9809H105.743C104.195 18.9809 103.678 19.8152 103.678 21.2642C103.678 21.879 103.764 22.5376 103.85 23.1524C103.936 23.8111 104.023 24.4697 104.023 25.1723C104.066 26.8848 103.334 27.7191 102.129 28.0704V28.1143C103.291 28.4216 104.023 29.2999 104.023 31.0124C104.023 31.7149 103.936 32.4175 103.85 33.0322C103.764 33.6908 103.678 34.3055 103.678 34.9645C103.678 36.4571 104.28 37.2914 105.743 37.2914H106.217V38.7844H105.657C103.463 38.7844 101.871 37.8187 101.871 35.1398C101.871 34.4373 101.957 33.6468 102.086 32.9444C102.172 32.2419 102.301 31.4954 102.301 30.7928C102.301 29.9585 102.044 28.8168 100.193 28.8168V27.4556Z" fill="#96C9FE"/>
<path d="M34.8321 206.785C33.4291 206.785 33.2286 207.644 33.2286 208.299C33.2286 208.831 33.3088 209.404 33.389 209.936C33.4691 210.468 33.5495 211.04 33.5495 211.613C33.5495 213.659 32.3066 214.395 30.6629 214.395H30.262V213.291H30.5827C31.7052 213.291 32.1863 212.677 32.1863 211.531C32.1863 211.04 32.1061 210.59 32.066 210.058C31.9858 209.567 31.9057 209.076 31.9057 208.503C31.9057 207.194 32.4669 206.499 33.3489 206.294V206.253C32.4669 206.008 31.9057 205.353 31.9057 204.044C31.9057 203.512 31.9858 203.021 32.066 202.489C32.1061 201.998 32.1863 201.507 32.1863 201.057C32.1863 199.952 31.7854 199.338 30.6228 199.297H30.262V198.192H30.6629C32.3467 198.192 33.5896 198.97 33.5896 200.852C33.5896 201.425 33.5092 201.957 33.4291 202.53C33.3489 203.103 33.2687 203.675 33.2687 204.248C33.2687 204.944 33.4691 205.762 34.8722 205.762V206.785H34.8321Z" fill="#072D57"/>
<path d="M179.647 68.8536C177.429 67.5605 177.429 65.4054 179.647 64.1123C181.864 62.8192 185.454 62.8192 187.671 64.1123L195.855 68.9074C198.072 70.201 198.072 72.356 195.907 73.6491C193.69 74.9422 190.1 74.9422 187.882 73.6491L179.647 68.8536ZM196.541 68.4767L188.358 63.6811C185.718 62.1183 181.442 62.1183 178.855 63.6811C176.215 65.2434 176.268 67.7763 178.907 69.2848L187.091 74.0803C189.73 75.6426 194.006 75.6426 196.594 74.0803C199.18 72.5714 199.18 70.039 196.541 68.4767Z" fill="#072D57"/>
<path d="M195.221 69.1223C193.215 67.9369 189.995 67.9369 188.041 69.1223C186.088 70.3078 186.088 72.1936 188.041 73.379C190.047 74.5645 193.268 74.5645 195.221 73.379C197.227 72.1936 197.227 70.2539 195.221 69.1223Z" fill="#305EED"/>
<path d="M166.2 147.536L148.33 137.013C146.654 136.005 143.905 136.005 142.273 137.013L124.532 147.536C122.856 148.544 122.856 150.122 124.575 151.131L142.445 161.653C144.12 162.661 146.869 162.661 148.502 161.653L166.243 151.131C167.918 150.122 167.918 148.5 166.2 147.536Z" fill="#18204D" fill-opacity="0.07"/>
<path opacity="0.6" d="M165.464 140.414L146.091 129.007C144.274 127.914 141.294 127.914 139.524 129.007L120.291 140.414C118.475 141.507 118.475 143.218 120.338 144.311L139.711 155.719C141.527 156.812 144.507 156.812 146.277 155.719L165.51 144.311C167.326 143.218 167.326 141.46 165.464 140.414Z" fill="#305EED"/>
<g style="mix-blend-mode:multiply" opacity="0.08">
<g style="mix-blend-mode:multiply" opacity="0.08">
<path d="M26.8109 148.899C32.6722 148.899 37.4238 148.264 37.4238 147.481C37.4238 146.697 32.6722 146.062 26.8109 146.062C20.9497 146.062 16.1982 146.697 16.1982 147.481C16.1982 148.264 20.9497 148.899 26.8109 148.899Z" fill="#18204D"/>
</g>
</g>
<path d="M32.2865 134.812C33.5031 134.812 34.4945 133.8 34.4945 132.558C34.4945 131.317 33.5031 130.305 32.2865 130.305H21.337C20.1203 130.305 19.129 131.317 19.129 132.558C19.129 133.8 20.1203 134.812 21.337 134.812C20.1203 134.812 19.129 135.823 19.129 137.065C19.129 138.307 20.1203 139.319 21.337 139.319H22.9591C21.9227 139.319 21.0666 140.192 21.0666 141.25V141.848C21.0666 142.905 21.9227 143.779 22.9591 143.779H30.6643C31.7007 143.779 32.5569 142.905 32.5569 141.848V141.25C32.5569 140.192 31.7007 139.319 30.6643 139.319H32.2865C33.5031 139.319 34.4945 138.307 34.4945 137.065C34.4494 135.823 33.5031 134.812 32.2865 134.812Z" fill="#96C9FE"/>
<path d="M33.2777 112.46H18.3179L24.5362 122.532C25.1219 123.497 26.4737 123.497 27.0595 122.532L33.2777 112.46Z" fill="#96C9FE"/>
<path d="M24.1306 143.549C22.7788 143.549 22.148 143.365 21.7424 142.813C21.2467 142.169 21.0665 140.974 21.6523 140.284C22.1029 139.732 22.8239 139.778 24.8966 139.962C25.4824 140.008 26.2484 140.1 27.1046 140.146C28.9069 140.284 29.7631 140.284 30.0785 139.824C30.3038 139.502 30.3488 138.858 30.0334 138.49C29.5378 137.801 28.1409 138.076 26.7441 138.352C25.212 138.674 23.6349 138.996 22.914 138.076C22.3733 137.387 22.5535 136.145 23.0492 135.501C23.4547 134.995 24.0855 134.903 26.3385 134.903C27.6903 134.903 28.3662 134.949 28.7717 134.995C29.0421 134.995 29.1773 135.041 29.3125 134.995C29.4476 134.995 29.4927 134.995 29.4927 134.995C29.5828 134.857 29.4476 133.892 29.3125 133.248C29.1773 132.42 28.997 131.5 29.0871 130.81C29.2674 128.878 31.0248 127.913 32.8722 126.901C34.1338 126.211 35.4405 125.476 36.3867 124.464C38.4594 122.21 39.5412 117.841 39.0005 113.564C38.6848 111.035 37.5583 106.344 33.3679 103.631C28.4563 100.458 21.4721 101.24 17.4617 105.378C14.0372 108.92 12.7755 114.668 14.5779 118.439C15.2538 119.865 16.3352 120.922 17.4617 121.98C18.9487 123.406 20.5258 124.924 21.1116 127.407V127.499C21.2017 128.005 21.427 128.878 22.148 129.338C23.4096 130.12 25.3472 129.155 26.2033 128.695C27.3749 128.097 33.2777 124.786 33.7734 118.209C33.8637 116.784 34.179 113.013 31.5654 110.621C28.7717 108.046 23.9503 108.092 21.4721 110.667C20.3906 111.771 19.174 113.932 19.895 115.266C20.8863 117.106 25.3923 117.059 31.4303 115.174C31.5654 115.128 31.6556 115.22 31.7006 115.312C31.7457 115.45 31.6556 115.542 31.5654 115.588C25.212 117.611 20.6159 117.566 19.4894 115.496C18.6333 113.887 20.0301 111.495 21.1566 110.391C23.8152 107.632 28.9069 107.586 31.8809 110.299C34.6745 112.829 34.3592 116.784 34.2241 118.255C33.7282 125.062 27.6452 128.511 26.4286 129.108C25.5274 129.569 23.3646 130.672 21.9227 129.706C21.0665 129.155 20.7962 128.097 20.7061 127.545V127.453C20.1653 125.108 18.6333 123.636 17.1914 122.257C16.0649 121.199 14.9384 120.049 14.2175 118.577C12.3249 114.622 13.6317 108.69 17.1914 105.01C21.3369 100.688 28.5915 99.9061 33.6383 103.171C36.8375 105.241 38.9553 108.92 39.496 113.427C40.0366 117.887 38.9553 122.348 36.7472 124.694C35.711 125.797 34.4043 126.533 33.0975 127.223C31.25 128.235 29.673 129.108 29.5378 130.764C29.4927 131.408 29.6279 132.328 29.7631 133.11C29.9884 134.351 30.1235 135.133 29.6279 135.363C29.5828 135.409 29.4927 135.409 29.3125 135.409C29.1322 135.409 28.997 135.409 28.7267 135.409C28.3212 135.363 27.6903 135.317 26.3385 135.317C24.1757 135.317 23.68 135.409 23.4096 135.777C23.0041 136.237 22.8689 137.203 23.2745 137.755C23.8152 138.444 25.2571 138.168 26.6539 137.892C28.1409 137.571 29.718 137.294 30.3488 138.168C30.7093 138.674 30.7544 139.502 30.3939 140.054C29.9433 140.744 28.9069 140.698 27.0144 140.56C26.1132 140.514 25.3923 140.422 24.7614 140.376C22.8239 140.192 22.193 140.146 21.8776 140.514C21.5171 140.974 21.5622 141.939 21.9677 142.491C22.4634 143.135 23.5448 143.089 26.6539 142.951H26.7441C28.6366 142.859 30.1686 142.767 31.205 142.721C31.3402 142.721 31.4303 142.813 31.4303 142.951C31.4303 143.089 31.3402 143.181 31.205 143.181C30.1686 143.227 28.6366 143.319 26.7441 143.411H26.6539C25.7077 143.503 24.8515 143.549 24.1306 143.549Z" fill="#305EED"/>
<path d="M280.842 53.2186L264.165 43.3988C262.601 42.4576 260.036 42.4576 258.512 43.3988L241.955 53.2186C240.392 54.1598 240.392 55.6325 241.955 56.5737L258.633 66.3936C260.196 67.3343 262.722 67.3343 264.285 66.3936L280.842 56.5737C282.406 55.6325 282.406 54.1189 280.842 53.2186Z" fill="#305EED"/>
<path d="M262.287 56.9661C269.971 56.9661 276.2 56.3462 276.2 55.5821C276.2 54.8175 269.971 54.1976 262.287 54.1976C254.604 54.1976 248.375 54.8175 248.375 55.5821C248.375 56.3462 254.604 56.9661 262.287 56.9661Z" fill="#18204D" fill-opacity="0.08"/>
<path d="M247.82 46.4299V35.4384C247.82 34.6837 248.421 34.0703 249.16 34.0703H274.397C275.137 34.0703 275.737 34.6837 275.737 35.4384V46.4299C275.691 49.1186 247.82 49.0243 247.82 46.4299Z" fill="#072D57"/>
<path opacity="0.22" d="M275.414 36.6656V42.2323L262.472 46.3365L255.77 41.5245L275.414 36.6656Z" fill="#18204D"/>
<path d="M261.871 46.8073C255.817 46.8073 249.761 46.2887 248.005 45.2506C247.543 44.9676 247.312 44.6376 247.312 44.2603C247.312 43.9773 247.543 43.7412 247.82 43.7412C248.098 43.7412 248.329 43.9299 248.329 44.2129C248.883 44.9676 255.031 45.9113 264.044 45.7227C271.578 45.581 274.86 44.7319 275.183 44.2129C275.183 43.9299 275.414 43.7412 275.692 43.7412C275.969 43.7412 276.2 43.9773 276.2 44.2603C276.2 44.6376 275.969 45.0149 275.507 45.2979C273.797 46.2887 267.834 46.8073 261.871 46.8073Z" fill="#18204D"/>
<path d="M261.871 49.1195C255.817 49.1195 249.761 48.6004 248.005 47.5628C247.543 47.2798 247.312 46.9494 247.312 46.572C247.312 46.289 247.543 46.053 247.82 46.053C248.098 46.053 248.329 46.2416 248.329 46.5247C248.883 47.2798 255.031 48.2231 264.044 48.0344C271.578 47.8927 274.86 47.0437 275.183 46.5247C275.183 46.2416 275.414 46.053 275.692 46.053C275.969 46.053 276.2 46.289 276.2 46.572C276.2 46.9494 275.969 47.3267 275.507 47.6097C273.797 48.6004 267.834 49.1195 261.871 49.1195Z" fill="#18204D"/>
<path d="M287.016 34.0708L272.826 39.8261L261.548 44.5906L250.593 39.6844L237.559 34.0708L261.548 25.2491L287.016 34.0708Z" fill="#96C9FE"/>
<path d="M239.409 44.0241C239.271 44.0241 239.132 43.9298 239.132 43.7411V36.193C239.132 36.0518 239.225 35.91 239.409 35.91C239.594 35.91 239.687 36.0044 239.687 36.193V43.7881C239.64 43.9298 239.548 44.0241 239.409 44.0241Z" fill="#96C9FE"/>
<path d="M239.409 47.2793L239.27 47.185C239.224 47.1376 237.93 46.1469 237.93 44.8262C237.93 43.5524 239.224 42.5148 239.27 42.4674L239.409 42.373L239.548 42.4674C239.594 42.5148 240.888 43.5055 240.888 44.8262C240.888 46.0999 239.594 47.1376 239.548 47.185L239.409 47.2793ZM239.409 42.9391C239.085 43.2221 238.346 43.9772 238.346 44.8736C238.346 45.7695 239.131 46.5246 239.409 46.8076C239.732 46.5246 240.472 45.7695 240.472 44.8736C240.472 43.9772 239.686 43.1751 239.409 42.9391Z" fill="#96C9FE"/>
<path d="M187.755 119.216C186.673 119.216 185.63 118.97 184.828 118.479L168.151 108.659C167.309 108.168 166.868 107.513 166.868 106.818C166.868 106.123 167.309 105.468 168.151 104.977L184.708 95.1569C186.312 94.2158 188.958 94.2158 190.601 95.1569L207.279 104.977C208.121 105.468 208.562 106.123 208.562 106.818C208.562 107.513 208.121 108.168 207.279 108.659L190.721 118.479C189.88 118.97 188.837 119.216 187.755 119.216ZM187.634 94.8296C186.633 94.8296 185.67 95.0342 184.908 95.4843L168.351 105.304C167.67 105.713 167.269 106.245 167.269 106.818C167.269 107.391 167.67 107.923 168.351 108.332L185.029 118.152C186.552 119.052 188.998 119.052 190.481 118.152L207.038 108.332C207.72 107.923 208.121 107.391 208.121 106.818C208.121 106.245 207.72 105.713 207.038 105.304L190.361 95.4843C189.639 95.0751 188.637 94.8296 187.634 94.8296Z" fill="#96C9FE"/>
<g opacity="0.6">
<path opacity="0.6" d="M214.905 111.029L198.72 101.499C197.203 100.586 194.712 100.586 193.234 101.499L177.166 111.029C175.649 111.942 175.649 113.371 177.205 114.285L193.39 123.815C194.907 124.728 197.397 124.728 198.876 123.815L214.944 114.285C216.461 113.371 216.461 111.902 214.905 111.029Z" fill="#072D57"/>
</g>
<path opacity="0.6" d="M218.481 105.191L199.107 93.7838C197.291 92.6906 194.311 92.6906 192.541 93.7838L173.307 105.191C171.491 106.284 171.491 107.995 173.354 109.088L192.727 120.496C194.543 121.589 197.524 121.589 199.294 120.496L218.527 109.088C220.343 107.995 220.343 106.236 218.481 105.191Z" fill="#305EED"/>
<path d="M83.1169 83.4113C82.4391 83.0094 82.4391 82.3624 83.1169 81.9829C83.7947 81.5815 84.8659 81.5815 85.5437 81.9829C86.2215 82.3848 86.2215 83.0318 85.5437 83.4113C84.8878 83.8128 83.7947 83.8128 83.1169 83.4113ZM85.6969 81.8938C84.9317 81.4475 83.7073 81.4475 82.9637 81.8938C82.2204 82.34 82.2204 83.0766 82.9637 83.5229C83.7289 83.9691 84.9537 83.9691 85.6969 83.5229C86.4621 83.0542 86.4621 82.34 85.6969 81.8938Z" fill="#96C9FE"/>
<path d="M78.3936 86.2227C77.7158 85.8212 77.7158 85.1738 78.3936 84.7948C79.0714 84.3929 80.1426 84.3929 80.8204 84.7948C81.4982 85.1962 81.4982 85.8432 80.8204 86.2227C80.1426 86.6242 79.0495 86.6242 78.3936 86.2227ZM80.9517 84.7052C80.1865 84.2589 78.9621 84.2589 78.2184 84.7052C77.4752 85.1514 77.4752 85.888 78.2184 86.3343C78.9836 86.7805 80.208 86.7805 80.9517 86.3343C81.7168 85.8656 81.7168 85.1514 80.9517 84.7052Z" fill="#96C9FE"/>
<path d="M73.6489 89.0343C72.971 88.6328 72.971 87.9858 73.6489 87.6064C74.3267 87.2045 75.3979 87.2045 76.0757 87.6064C76.7535 88.0078 76.7535 88.6552 76.0757 89.0343C75.3979 89.4362 74.3047 89.4362 73.6489 89.0343ZM76.2289 87.5172C75.4637 87.0709 74.2393 87.0709 73.4957 87.5172C72.7524 87.9634 72.7524 88.6996 73.4957 89.1459C74.2608 89.5921 75.4852 89.5921 76.2289 89.1459C76.9721 88.6772 76.9721 87.9634 76.2289 87.5172Z" fill="#96C9FE"/>
<path d="M90.1344 84.9511L87.6198 83.456C87.5763 83.4336 87.5105 83.4336 87.467 83.456C87.4231 83.4784 87.4231 83.5228 87.467 83.5452L89.9812 85.0403C90.0251 85.0627 90.0905 85.0627 90.1344 85.0403C90.1783 85.0179 90.1783 84.9955 90.1344 84.9511Z" fill="#96C9FE"/>
<path d="M89.2374 85.4862L86.7228 83.991C86.6793 83.9686 86.6135 83.9686 86.57 83.991C86.5261 84.0134 86.5261 84.0582 86.57 84.0802L89.0842 85.5754C89.1281 85.5978 89.1935 85.5978 89.2374 85.5754C89.2809 85.553 89.2809 85.531 89.2374 85.4862Z" fill="#96C9FE"/>
<path d="M95.3598 90.1724L85.8053 84.5489C85.7614 84.5265 85.696 84.5265 85.6521 84.5489C85.6086 84.5713 85.6086 84.6161 85.6521 84.6381L95.207 90.2615C95.2504 90.2839 95.3163 90.2839 95.3598 90.2615C95.4037 90.2391 95.4037 90.1948 95.3598 90.1724Z" fill="#96C9FE"/>
<path d="M87.4227 88.9675L82.8747 86.2895C82.8312 86.2671 82.7654 86.2671 82.7219 86.2895C82.678 86.3119 82.678 86.3567 82.7219 86.3787L87.2695 89.0566C87.3134 89.079 87.3788 89.079 87.4227 89.0566C87.4662 89.0343 87.4662 88.9895 87.4227 88.9675Z" fill="#96C9FE"/>
<path d="M89.785 91.4224L81.9795 86.8254C81.9361 86.803 81.8702 86.803 81.8267 86.8254C81.7828 86.8478 81.7828 86.8926 81.8267 86.9146L89.6322 91.5116C89.6757 91.534 89.7415 91.534 89.785 91.5116C89.8289 91.4892 89.8289 91.4672 89.785 91.4224Z" fill="#96C9FE"/>
<path d="M90.6146 92.9838L81.0602 87.3603C81.0163 87.3384 80.9509 87.3384 80.907 87.3603C80.8635 87.3827 80.8635 87.4275 80.907 87.4499L90.4619 93.073C90.5053 93.0954 90.5712 93.0954 90.6146 93.073C90.6585 93.0506 90.6585 93.0062 90.6146 92.9838Z" fill="#96C9FE"/>
<path d="M88.0796 94.5017L78.5247 88.8782C78.4812 88.8559 78.4154 88.8559 78.3719 88.8782C78.328 88.9006 78.328 88.945 78.3719 88.9674L87.9044 94.5909C87.9483 94.6133 88.0137 94.6133 88.0576 94.5909C88.123 94.5685 88.1015 94.5237 88.0796 94.5017Z" fill="#96C9FE"/>
<path d="M85.4331 94.0103L77.6276 89.4133C77.5841 89.3909 77.5183 89.3909 77.4748 89.4133C77.4309 89.4357 77.4309 89.4801 77.4748 89.5024L85.3022 94.1218C85.3457 94.1442 85.4115 94.1442 85.455 94.1218C85.4769 94.077 85.4769 94.0327 85.4331 94.0103Z" fill="#96C9FE"/>
<path d="M82.1762 93.1402L76.7102 89.9492C76.6663 89.9268 76.6009 89.9268 76.557 89.9492C76.5135 89.9716 76.5135 90.0164 76.557 90.0383L82.023 93.2517C82.0669 93.2741 82.1323 93.2741 82.1762 93.2517C82.2201 93.2074 82.2201 93.185 82.1762 93.1402Z" fill="#96C9FE"/>
<path d="M35.3078 18.4958C35.0271 18.3321 34.5865 18.3321 34.3459 18.4958L20.3143 26.8017C20.0337 26.9654 20.0337 27.2109 20.3143 27.3746C20.595 27.5382 21.036 27.5382 21.2765 27.3746L35.3078 19.0686C35.5884 18.9049 35.5884 18.6595 35.3078 18.4958Z" fill="#96C9FE"/>
<path d="M38.0336 21.4416C37.2718 20.9915 36.0689 20.9915 35.3075 21.4416C34.5457 21.8917 34.5858 22.5872 35.3075 23.0373C36.0288 23.4874 37.2718 23.4874 38.0336 23.0373C38.7949 22.5872 38.7949 21.8917 38.0336 21.4416Z" fill="#96C9FE"/>
<path d="M32.0206 25.002C31.2589 24.5519 30.0562 24.5519 29.2945 25.002C28.5328 25.4521 28.5729 26.1476 29.2945 26.5977C30.0161 27.0478 31.2589 27.0478 32.0206 26.5977C32.7823 26.1476 32.7823 25.4521 32.0206 25.002Z" fill="#96C9FE"/>
<path d="M26.0077 28.5616C25.2459 28.1115 24.0433 28.1115 23.2816 28.5616C22.5199 29.0117 22.56 29.7072 23.2816 30.1573C24.0433 30.6073 25.2459 30.6073 26.0077 30.1573C26.7693 29.7072 26.7693 29.0117 26.0077 28.5616Z" fill="#96C9FE"/>
<path d="M19.9947 32.1211C19.233 31.671 18.0303 31.671 17.2686 32.1211C16.5069 32.5712 16.547 33.2668 17.2686 33.7167C17.9902 34.1668 19.233 34.1668 19.9947 33.7167C20.7564 33.3077 20.7564 32.5712 19.9947 32.1211Z" fill="#96C9FE"/>
<path d="M14.0212 35.6809C13.2595 35.2307 12.0569 35.2307 11.2951 35.6809C10.5335 36.1306 10.5335 36.8262 11.2951 37.2764C12.0569 37.7265 13.2595 37.7265 14.0212 37.2764C14.7428 36.8671 14.7428 36.1306 14.0212 35.6809Z" fill="#96C9FE"/>
<path d="M60.5653 35.1899L41.5628 24.0199C41.2821 23.8562 40.8812 23.8562 40.6005 24.0199L39.4382 24.7154C39.1575 24.8791 39.1976 25.1246 39.4382 25.2883L58.4407 36.4584C58.721 36.6221 59.1219 36.6221 59.4026 36.4584L60.5653 35.7628C60.846 35.5991 60.846 35.3535 60.5653 35.1899Z" fill="#96C9FE"/>
<path d="M54.5906 38.7492L35.548 27.5383C35.2673 27.3746 34.8664 27.3746 34.5857 27.5383L33.4231 28.2338C33.1425 28.3975 33.1826 28.643 33.4231 28.8067L52.4255 40.0178C52.7062 40.1815 53.1071 40.1815 53.3878 40.0178L54.5505 39.3221C54.8312 39.1584 54.8312 38.9129 54.5906 38.7492Z" fill="#96C9FE"/>
<path d="M48.5783 42.3089L29.5759 31.0978C29.2953 30.9342 28.8943 30.9342 28.6137 31.0978L27.4511 31.7934C27.1705 31.9571 27.2106 32.2026 27.4511 32.3662L46.4537 43.5771C46.7343 43.7408 47.1353 43.7408 47.4159 43.5771L48.5783 42.8818C48.8589 42.7181 48.8589 42.4726 48.5783 42.3089Z" fill="#96C9FE"/>
<path d="M42.6045 45.8682L23.6019 34.6574C23.3212 34.4937 22.9203 34.4937 22.6397 34.6574L21.4771 35.3531C21.1965 35.5168 21.2366 35.7623 21.4771 35.926L40.4795 47.1367C40.7602 47.3004 41.1611 47.3004 41.4418 47.1367L42.6045 46.4411C42.8451 46.2774 42.8451 46.0319 42.6045 45.8682Z" fill="#96C9FE"/>
<path d="M36.5913 49.428L17.5889 38.2172C17.3083 38.0536 16.9074 38.0536 16.6268 38.2172L15.4642 38.9125C15.1835 39.0762 15.2236 39.3217 15.4642 39.4854L34.4667 50.6966C34.7473 50.8602 35.1483 50.8602 35.4289 50.6966L36.5913 50.0009C36.8719 49.8372 36.8719 49.5917 36.5913 49.428Z" fill="#96C9FE"/>
<path fill-rule="evenodd" clip-rule="evenodd" d="M191.942 218.937C191.942 218.812 192.042 218.71 192.164 218.71H220.866C220.99 218.71 221.089 218.812 221.089 218.937C221.089 219.063 220.99 219.165 220.866 219.165H192.164C192.042 219.165 191.942 219.063 191.942 218.937Z" fill="#072D57"/>
<path fill-rule="evenodd" clip-rule="evenodd" d="M191.942 221.881C191.942 221.756 192.042 221.654 192.164 221.654H220.866C220.99 221.654 221.089 221.756 221.089 221.881C221.089 222.006 220.99 222.108 220.866 222.108H192.164C192.042 222.108 191.942 222.006 191.942 221.881Z" fill="#072D57"/>
<path fill-rule="evenodd" clip-rule="evenodd" d="M191.942 224.825C191.942 224.7 192.042 224.598 192.164 224.598H220.866C220.99 224.598 221.089 224.7 221.089 224.825C221.089 224.95 220.99 225.052 220.866 225.052H192.164C192.042 225.052 191.942 224.95 191.942 224.825Z" fill="#072D57"/>
<path d="M285.274 145.485C287.679 145.485 289.639 147.484 289.639 149.939V236.61C289.639 239.064 287.679 241.064 285.274 241.064H250.807C248.402 241.064 246.443 239.064 246.443 236.61V149.939C246.443 147.484 248.402 145.485 250.807 145.485H285.274ZM285.274 144.803H250.807C248.002 144.803 245.731 147.121 245.731 149.984V236.656C245.731 239.519 248.002 241.837 250.807 241.837H285.274C288.08 241.837 290.351 239.519 290.351 236.656V149.939C290.351 147.121 288.08 144.803 285.274 144.803Z" fill="#305EED"/>
<path opacity="0.9" d="M282.155 244.381H247.688C244.883 244.381 242.612 242.064 242.612 239.2V152.529C242.612 149.666 244.883 147.348 247.688 147.348H282.155C284.961 147.348 287.232 149.666 287.232 152.529V239.2C287.232 242.064 284.961 244.381 282.155 244.381Z" fill="#96C9FE"/>
<path d="M255.171 163.846H249.204C248.536 163.846 247.957 163.301 247.957 162.574V156.484C247.957 155.802 248.491 155.211 249.204 155.211H255.171C255.839 155.211 256.418 155.756 256.418 156.484V162.574C256.418 163.301 255.839 163.846 255.171 163.846Z" fill="#072D57"/>
<path d="M261.757 157.574H258.154V158.528H261.757V157.574Z" fill="#305EED"/>
<path d="M266.571 159.074H258.154V160.029H266.571V159.074Z" fill="#072D57"/>
<path d="M266.571 160.529H258.154V161.483H266.571V160.529Z" fill="#072D57"/>
<path d="M255.171 176.209H249.204C248.536 176.209 247.957 175.663 247.957 174.936V168.846C247.957 168.164 248.491 167.573 249.204 167.573H255.171C255.839 167.573 256.418 168.119 256.418 168.846V174.936C256.418 175.663 255.839 176.209 255.171 176.209Z" fill="#072D57"/>
<path d="M261.757 169.982H258.154V170.936H261.757V169.982Z" fill="#305EED"/>
<path d="M266.571 171.436H258.154V172.391H266.571V171.436Z" fill="#072D57"/>
<path d="M266.571 172.936H258.154V173.89H266.571V172.936Z" fill="#072D57"/>
<path d="M255.171 188.616H249.204C248.536 188.616 247.957 188.071 247.957 187.344V181.253C247.957 180.572 248.491 179.981 249.204 179.981H255.171C255.839 179.981 256.418 180.526 256.418 181.253V187.344C256.418 188.025 255.839 188.616 255.171 188.616Z" fill="#072D57"/>
<path d="M261.757 182.344H258.154V183.298H261.757V182.344Z" fill="#305EED"/>
<path d="M266.571 183.844H258.154V184.799H266.571V183.844Z" fill="#072D57"/>
<path d="M266.571 185.298H258.154V186.252H266.571V185.298Z" fill="#072D57"/>
<path d="M271.112 204.114H265.145C264.477 204.114 263.899 203.569 263.899 202.841V196.751C263.899 196.069 264.433 195.479 265.145 195.479H271.112C271.781 195.479 272.36 196.024 272.36 196.751V202.841C272.36 203.523 271.781 204.114 271.112 204.114Z" fill="#072D57"/>
<path d="M278.659 197.842H274.096V198.796H278.659V197.842Z" fill="#305EED"/>
<path d="M282.512 199.296H274.096V200.251H282.512V199.296Z" fill="#072D57"/>
<path d="M282.512 200.796H274.096V201.751H282.512V200.796Z" fill="#072D57"/>
<path d="M271.112 216.476H265.145C264.477 216.476 263.899 215.931 263.899 215.204V209.113C263.899 208.432 264.433 207.841 265.145 207.841H271.112C271.781 207.841 272.36 208.386 272.36 209.113V215.204C272.36 215.931 271.781 216.476 271.112 216.476Z" fill="#072D57"/>
<path d="M278.659 210.204H274.096V211.158H278.659V210.204Z" fill="#305EED"/>
<path d="M282.512 211.704H274.096V212.658H282.512V211.704Z" fill="#072D57"/>
<path d="M282.512 213.159H274.096V214.113H282.512V213.159Z" fill="#072D57"/>
<path d="M271.112 228.838H265.145C264.477 228.838 263.899 228.293 263.899 227.566V221.476C263.899 220.794 264.433 220.203 265.145 220.203H271.112C271.781 220.203 272.36 220.748 272.36 221.476V227.566C272.36 228.293 271.781 228.838 271.112 228.838Z" fill="#072D57"/>
<path d="M278.659 222.612H274.096V223.566H278.659V222.612Z" fill="#305EED"/>
<path d="M282.512 224.066H274.096V225.021H282.512V224.066Z" fill="#072D57"/>
<path d="M282.512 225.566H274.096V226.521H282.512V225.566Z" fill="#072D57"/>
<path d="M277.036 148.348H259.045C257.887 148.348 256.997 147.393 256.997 146.258V144.803H279.085V146.258C279.085 147.439 278.194 148.348 277.036 148.348Z" fill="#305EED"/>
<path d="M314.903 185.891H275.453C272.722 185.891 270.356 183.782 270.356 180.968V160.134C270.356 157.496 272.54 155.211 275.453 155.211H314.903C317.634 155.211 320 157.321 320 160.134V180.968C320 183.605 317.634 185.891 314.903 185.891Z" fill="#96C9FE"/>
<path d="M293.525 166.437H276.873V167.668H293.525V166.437Z" fill="#072D57"/>
<path d="M313.342 166.437H305.584V167.668H313.342V166.437Z" fill="#072D57"/>
<path d="M295.516 171.128H287.758V172.359H295.516V171.128Z" fill="#072D57"/>
<path d="M298.961 176.657H291.203V177.888H298.961V176.657Z" fill="#072D57"/>
<path d="M300.901 166.437H296.62V167.668H300.901V166.437Z" fill="#072D57"/>
<path d="M283.075 171.128H278.794V172.359H283.075V171.128Z" fill="#072D57"/>
<path d="M286.52 176.657H282.239V177.888H286.52V176.657Z" fill="#072D57"/>
<path d="M314.564 165.973C314.564 165.741 314.721 165.581 314.931 165.581C315.141 165.581 315.281 165.741 315.281 165.973C315.281 166.187 315.141 166.348 314.914 166.348C314.704 166.348 314.564 166.187 314.564 165.973ZM314.564 168.131C314.564 167.899 314.721 167.739 314.931 167.739C315.141 167.739 315.281 167.899 315.281 168.131C315.281 168.345 315.141 168.505 314.914 168.505C314.704 168.505 314.564 168.345 314.564 168.131Z" fill="#072D57"/>
<path d="M296.74 170.665C296.74 170.434 296.897 170.273 297.107 170.273C297.317 170.273 297.457 170.434 297.457 170.665C297.457 170.879 297.317 171.04 297.09 171.04C296.88 171.04 296.74 170.879 296.74 170.665ZM296.74 172.823C296.74 172.591 296.897 172.431 297.107 172.431C297.317 172.431 297.457 172.591 297.457 172.823C297.457 173.037 297.317 173.198 297.09 173.198C296.88 173.198 296.74 173.037 296.74 172.823Z" fill="#072D57"/>
<path d="M300.183 176.194C300.183 175.963 300.34 175.802 300.55 175.802C300.76 175.802 300.899 175.963 300.899 176.194C300.899 176.408 300.76 176.569 300.533 176.569C300.323 176.569 300.183 176.408 300.183 176.194ZM300.183 178.352C300.183 178.12 300.34 177.96 300.55 177.96C300.76 177.96 300.899 178.12 300.899 178.352C300.899 178.566 300.76 178.727 300.533 178.727C300.323 178.727 300.183 178.566 300.183 178.352Z" fill="#072D57"/>
<path d="M302.192 166.74V166.473H304.499V166.74H302.192ZM302.192 167.632V167.364H304.499V167.632H302.192Z" fill="#072D57"/>
<path d="M284.369 171.432V171.164H286.675V171.432H284.369ZM284.369 172.324V172.057H286.675V172.324H284.369Z" fill="#072D57"/>
<path d="M287.811 176.961V176.694H290.118V176.961H287.811ZM287.811 177.853V177.585H290.118V177.853H287.811Z" fill="#072D57"/>
<path d="M294.4 169.005C294.732 168.524 294.994 167.917 294.994 167.043C294.994 166.188 294.749 165.581 294.4 165.099H294.714C295.011 165.492 295.326 166.098 295.326 167.043C295.326 167.989 295.011 168.595 294.714 168.987H294.4V169.005Z" fill="#072D57"/>
<path d="M275.999 169.005C275.667 168.524 275.405 167.917 275.405 167.043C275.405 166.188 275.649 165.581 275.999 165.099H275.684C275.387 165.492 275.073 166.098 275.073 167.043C275.073 167.989 275.387 168.595 275.684 168.987H275.999V169.005Z" fill="#072D57"/>
<path fill-rule="evenodd" clip-rule="evenodd" d="M235.059 196.402C235.059 196.277 235.158 196.175 235.281 196.175H253.97C254.093 196.175 254.193 196.277 254.193 196.402C254.193 196.527 254.093 196.629 253.97 196.629H235.281C235.158 196.629 235.059 196.527 235.059 196.402Z" fill="#072D57"/>
<path fill-rule="evenodd" clip-rule="evenodd" d="M238.825 208.288C238.825 208.162 238.924 208.061 239.047 208.061H257.737C257.859 208.061 257.959 208.162 257.959 208.288C257.959 208.413 257.859 208.515 257.737 208.515H239.047C238.924 208.515 238.825 208.413 238.825 208.288Z" fill="#072D57"/>
<path fill-rule="evenodd" clip-rule="evenodd" d="M235.059 198.319C235.059 198.193 235.158 198.092 235.281 198.092H253.97C254.093 198.092 254.193 198.193 254.193 198.319C254.193 198.444 254.093 198.546 253.97 198.546H235.281C235.158 198.546 235.059 198.444 235.059 198.319Z" fill="#072D57"/>
<path fill-rule="evenodd" clip-rule="evenodd" d="M238.825 210.204C238.825 210.078 238.924 209.977 239.047 209.977H257.737C257.859 209.977 257.959 210.078 257.959 210.204C257.959 210.329 257.859 210.431 257.737 210.431H239.047C238.924 210.431 238.825 210.329 238.825 210.204Z" fill="#072D57"/>
<path fill-rule="evenodd" clip-rule="evenodd" d="M235.059 200.236C235.059 200.11 235.158 200.009 235.281 200.009H253.97C254.093 200.009 254.193 200.11 254.193 200.236C254.193 200.361 254.093 200.463 253.97 200.463H235.281C235.158 200.463 235.059 200.361 235.059 200.236Z" fill="#072D57"/>
<path fill-rule="evenodd" clip-rule="evenodd" d="M238.825 212.121C238.825 211.996 238.924 211.894 239.047 211.894H257.737C257.859 211.894 257.959 211.996 257.959 212.121C257.959 212.247 257.859 212.348 257.737 212.348H239.047C238.924 212.348 238.825 212.247 238.825 212.121Z" fill="#072D57"/>
<path opacity="0.4" d="M274.18 160.696C274.18 159.8 274.891 159.074 275.769 159.074H313.957C314.835 159.074 315.547 159.8 315.547 160.696C315.547 161.592 314.835 162.319 313.957 162.319H275.769C274.891 162.319 274.18 161.592 274.18 160.696Z" fill="#305EED"/>
<path d="M190.939 41.107H178.353C176.913 41.107 175.752 39.922 175.752 38.4527V25.6067C175.752 24.1373 176.913 22.9523 178.353 22.9523H190.939C192.379 22.9523 193.541 24.1373 193.541 25.6067V38.4527C193.541 39.922 192.379 41.107 190.939 41.107Z" fill="#305EED"/>
<path d="M179.697 28.8327C180.499 27.6871 181.14 26.1732 181.14 24.0456C181.14 21.9589 180.539 20.4449 179.697 19.2993H180.459C181.18 20.2404 181.942 21.7543 181.942 24.0456C181.942 26.3369 181.18 27.8098 180.459 28.8327H179.697Z" fill="#96C9FE"/>
<path d="M246.311 101.992L258.318 104.192L261.91 111.157L246.311 101.992ZM246.209 101.311L254.367 96.441L257.959 103.458L246.209 101.311ZM263.244 111.733L259.498 104.401L271.915 106.653L271.864 106.705L263.552 111.628C263.5 111.68 263.346 111.68 263.244 111.733ZM259.139 103.668L255.496 96.4931L271.505 105.92L259.139 103.668ZM272.634 105.762L256.06 95.9698C255.444 95.6032 254.367 95.6032 253.751 95.9698L245.388 100.945C244.772 101.311 244.772 101.94 245.388 102.306L261.961 112.047C262.628 112.413 263.655 112.413 264.27 112.047L272.634 107.124C273.249 106.757 273.249 106.129 272.634 105.762Z" fill="#96C9FE"/>
<path d="M231.431 110.79L243.437 112.99L247.029 119.955L231.431 110.79ZM231.328 110.162L239.486 105.292L243.078 112.309L231.328 110.162ZM248.363 120.531L244.618 113.2L257.035 115.451L256.983 115.504L248.671 120.426C248.569 120.531 248.466 120.531 248.363 120.531ZM244.259 112.518L240.615 105.344L256.624 114.77L244.259 112.518ZM257.702 114.561L241.18 104.82C240.564 104.454 239.486 104.454 238.871 104.82L230.507 109.743C229.891 110.11 229.891 110.738 230.507 111.105L247.08 120.845C247.748 121.212 248.774 121.212 249.389 120.845L257.702 115.923C258.369 115.556 258.369 114.98 257.702 114.561Z" fill="#96C9FE"/>
<path d="M268.786 115.189L280.793 117.388L284.385 124.353L268.786 115.189ZM268.683 114.56L276.842 109.69L280.434 116.707L268.683 114.56ZM285.719 124.929L281.973 117.598L294.39 119.849L294.339 119.902L286.027 124.825C285.924 124.929 285.821 124.929 285.719 124.929ZM281.614 116.917L277.919 109.742L293.929 119.169L281.614 116.917ZM295.057 118.959L278.535 109.218C277.868 108.852 276.842 108.852 276.226 109.218L267.914 114.141C267.298 114.508 267.298 115.136 267.914 115.503L284.436 125.296C285.103 125.662 286.129 125.662 286.745 125.296L295.057 120.373C295.725 119.954 295.725 119.378 295.057 118.959Z" fill="#96C9FE"/>
<path d="M253.905 124.039L265.912 126.239L269.504 133.204L253.905 124.039ZM253.751 123.411L261.91 118.54L265.502 125.558L253.751 123.411ZM270.838 133.78L267.092 126.448L279.51 128.7L279.458 128.753L271.146 133.675C271.043 133.727 270.941 133.78 270.838 133.78ZM266.733 125.768L263.039 118.593L279.048 128.019L266.733 125.768ZM280.177 127.81L263.603 118.069C262.936 117.703 261.91 117.703 261.294 118.069L252.982 122.992C252.366 123.358 252.366 123.987 252.982 124.353L269.555 134.094C270.222 134.461 271.248 134.461 271.864 134.094L280.177 129.171C280.844 128.805 280.844 128.176 280.177 127.81Z" fill="#96C9FE"/>
</g>
<defs>
<clipPath id="clip0">
<rect width="320" height="240" fill="white"/>
</clipPath>
</defs>
</svg>
