<svg viewBox="0 0 320 240" fill="none" xmlns="http://www.w3.org/2000/svg">
<g clip-path="url(#clip0)">
<path opacity="0.4" d="M302.663 216.615C296.294 223.899 145.95 220.506 120.871 220.823C56.9555 180.562 51.7804 118.044 65.0058 83.5732C70.977 68.0116 87.9178 51.4547 108.132 47.9716C132.946 43.6739 154.796 61.6333 164.704 69.8212C195.313 95.0636 195.091 121.346 212.165 122.794C230.919 124.377 237.377 90.3587 264.27 88.5945C280.901 87.5088 292.755 99.4512 294.215 100.944C308.104 115.375 309.608 139.758 300.363 153.917C291.296 167.804 273.514 169.388 274.178 174.726C274.753 179.792 293.419 176.535 302.265 188.071C308.148 195.897 308.723 209.739 302.663 216.615Z" fill="#072D57"/>
<path opacity="0.5" d="M240.25 121.301L210.792 111.484L211.19 139.169L240.648 148.986L240.25 121.301Z" fill="#FEEFF0"/>
<path d="M299.655 208.02L297.09 30.4191C297.09 29.9668 296.78 29.4692 296.426 29.3335L228.132 6.6697C227.779 6.53399 227.469 6.80541 227.469 7.303L228 45.7998L273.868 61.4068C274.222 61.5425 274.487 61.9945 274.487 62.4471L276.61 208.699L299.08 216.253C299.434 216.389 299.743 216.117 299.743 215.62L299.655 208.02Z" fill="#96C9FE"/>
<path d="M227.071 81.8082V82.2153L227.116 82.2607C227.204 82.3964 227.204 82.6225 227.116 82.7132L226.275 83.5724C226.452 83.8438 226.673 84.0249 226.939 84.1153C227.469 84.2964 227.867 83.8892 227.867 83.2561C227.912 82.6225 227.558 82.0347 227.071 81.8082ZM226.85 81.7179C226.408 81.6275 226.054 82.0347 226.054 82.6225C226.054 82.7132 226.054 82.8035 226.098 82.9393L226.806 82.1704L226.85 82.125V81.7179Z" fill="#305EED"/>
<path d="M226.673 63.7139C226.54 63.6685 226.452 63.7588 226.452 63.9399L226.496 66.2923C226.496 66.4734 226.629 66.6091 226.762 66.6541C226.895 66.6995 226.983 66.6091 226.983 66.4281L226.938 64.0756C226.938 63.9399 226.85 63.7588 226.673 63.7139Z" fill="#305EED"/>
<path d="M227.203 99.1789C227.07 99.1339 226.981 99.2243 226.981 99.4054L227.026 101.757C227.026 101.938 227.158 102.074 227.291 102.12C227.424 102.165 227.512 102.074 227.512 101.893L227.468 99.5411C227.468 99.4054 227.335 99.2243 227.203 99.1789Z" fill="#305EED"/>
<path d="M237.375 72.9425C237.331 72.9425 237.331 72.9425 237.287 72.9425L236.004 74.1639C235.96 74.2093 235.96 74.2996 236.004 74.3904C236.048 74.4353 236.048 74.4353 236.092 74.4807C236.137 74.4807 236.137 74.4807 236.181 74.4807L237.464 73.2593C237.508 73.2139 237.508 73.1236 237.464 73.0328C237.419 72.9879 237.419 72.9425 237.375 72.9425Z" fill="#305EED"/>
<path d="M217.871 91.3994C217.827 91.3994 217.827 91.3994 217.783 91.3994L216.5 92.6208C216.456 92.6662 216.456 92.7565 216.5 92.8468C216.544 92.8922 216.544 92.8922 216.588 92.9376C216.633 92.9376 216.633 92.9376 216.677 92.9376L217.96 91.7162C218.004 91.6708 218.004 91.5805 217.96 91.4897C217.915 91.4448 217.871 91.3994 217.871 91.3994Z" fill="#305EED"/>
<path d="M236.405 97.5508C236.361 97.5508 236.361 97.5508 236.317 97.5508C236.272 97.5957 236.272 97.6865 236.317 97.7768L237.644 99.8578C237.687 99.9028 237.688 99.9028 237.732 99.9482C237.776 99.9482 237.776 99.9482 237.82 99.9482C237.865 99.9028 237.865 99.8125 237.82 99.7221L236.493 97.6411C236.493 97.5957 236.449 97.5957 236.405 97.5508Z" fill="#305EED"/>
<path d="M216.188 65.8848C216.144 65.8848 216.144 65.8848 216.1 65.8848C216.056 65.9301 216.056 66.0205 216.1 66.1112L217.427 68.1918C217.471 68.2372 217.471 68.2372 217.515 68.2826C217.56 68.2826 217.56 68.2826 217.604 68.2826C217.648 68.2372 217.648 68.1469 217.604 68.0561L216.277 65.9755C216.233 65.9302 216.188 65.8848 216.188 65.8848Z" fill="#305EED"/>
<path d="M241.933 87.5982L240.076 86.9651C239.943 86.9197 239.854 87.0104 239.854 87.1911C239.854 87.3722 239.987 87.5533 240.12 87.5982L241.977 88.2318C242.11 88.2768 242.199 88.1864 242.199 88.0054C242.199 87.8247 242.066 87.6436 241.933 87.5982Z" fill="#305EED"/>
<path d="M213.758 78.2806L212.077 77.7378C211.945 77.6924 211.856 77.7831 211.856 77.9188C211.856 78.0546 211.945 78.2352 212.077 78.2806L213.758 78.8234C213.891 78.8688 213.979 78.7781 213.979 78.6423C213.979 78.4617 213.847 78.2806 213.758 78.2806Z" fill="#305EED"/>
<path d="M226.76 69.4137C226.671 69.4137 226.627 69.4591 226.627 69.5045L226.804 81.6729V82.08C226.848 82.08 226.892 82.08 226.937 82.08C226.981 82.08 227.025 82.1254 227.07 82.1708V81.7637L226.892 69.5948C226.892 69.5045 226.848 69.4137 226.76 69.4137Z" fill="#305EED"/>
<path d="M226.936 82.1259C226.892 82.1259 226.848 82.1259 226.804 82.1259C226.804 82.1259 226.759 82.1259 226.759 82.1712L226.051 82.9401L219.947 89.2735C219.859 89.3638 219.859 89.5449 219.947 89.7256C219.992 89.8163 220.036 89.8613 220.125 89.8613C220.169 89.8613 220.257 89.8613 220.302 89.8163L226.317 83.5733L227.157 82.7141C227.246 82.6233 227.246 82.4427 227.157 82.2616L227.113 82.2162C227.025 82.1712 226.981 82.1259 226.936 82.1259Z" fill="#305EED"/>
<path d="M271.569 192.685L211.679 172.78L211.901 188.342V187.754L271.791 207.658L271.569 192.685Z" fill="#305EED"/>
<path d="M260.554 73.1678L248.921 69.2776L248.965 72.58L260.598 76.4702L260.554 73.1678Z" fill="#305EED"/>
<path d="M270.195 96.7824L259.713 93.2993L259.89 104.066L270.372 107.549L270.195 96.7824Z" fill="#305EED"/>
<path d="M223.133 121.076C218.887 119.673 215.525 122.84 215.569 128.223C215.658 133.561 219.152 139.08 223.398 140.482C227.645 141.885 231.006 138.718 230.962 133.335C230.918 127.997 227.379 122.523 223.133 121.076Z" fill="#072D57"/>
<path d="M161.076 191.102C158.069 192.821 154.53 193.364 151.169 196.213C149.709 197.48 148.249 199.2 146.922 201.687C146.922 201.687 143.472 206.256 138.651 212.273C138.651 212.273 138.651 212.273 138.651 212.318C130.114 223.039 117.42 238.33 112.82 240.727C109.591 242.401 101.939 240.048 94.5075 236.927C85.396 233.127 76.5495 228.151 76.5495 228.151C71.8609 226.115 68.8533 224.125 68.8089 221.275C68.7646 218.697 71.2418 215.485 77.213 210.916C85.7941 204.447 95.2597 197.299 102.823 191.645C102.868 191.645 102.868 191.599 102.868 191.599C109.547 186.668 114.722 182.824 116.579 181.647C121.224 178.662 125.912 171.017 130.512 166.131C131.574 165 132.591 164.05 133.653 163.281C134.935 162.377 136.218 161.788 137.501 161.743C137.589 161.743 137.678 161.743 137.766 161.743C138.607 161.788 139.624 162.24 140.818 162.919C140.818 162.919 140.818 162.919 140.863 162.919C141.747 163.462 142.676 164.141 143.649 164.955C143.649 164.955 143.694 165 143.826 165.091C146.391 167.217 149.222 170.202 151.876 173.369C151.921 173.414 151.965 173.459 152.009 173.505C154.088 175.993 156.034 178.616 157.671 181.059C157.847 181.331 157.98 181.511 158.025 181.602C158.821 182.869 159.573 184.09 160.148 185.176C161.652 188.252 162.182 190.469 161.076 191.102Z" fill="#305EED"/>
<path d="M84.2017 60.3661H27.8062V63.9399H84.2017V60.3661Z" fill="#305EED"/>
<path d="M225.92 161.426L211.456 156.586L211.633 171.559L226.141 176.4L225.92 161.426Z" fill="#FAECC1"/>
<path d="M84.2017 67.0616H27.8062V70.635H84.2017V67.0616Z" fill="#305EED"/>
<path d="M22.762 60.3661H16.3042V67.5133H22.762V60.3661Z" fill="#305EED"/>
<path d="M52.0447 100.99H25.7708V103.433H52.0447V100.99Z" fill="#305EED"/>
<path d="M75.3109 114.561H53.6375V132.52H75.3109V114.561Z" fill="#305EED"/>
<path d="M171.161 32.5013H143.649C143.383 32.5013 143.206 32.2751 143.206 32.0037V16.035C143.206 15.7636 143.427 15.5374 143.649 15.5374H182.617C182.882 15.5374 183.059 15.7636 183.059 16.035V32.0489C183.059 32.3203 182.838 32.5465 182.617 32.5465H176.867" fill="#305EED"/>
<path d="M310.314 227.653H295.585V231.724H310.314V227.653Z" fill="#305EED"/>
<path d="M277.097 238.782L274.531 62.0854C274.531 61.6329 274.222 61.1354 273.868 61.0451L221.896 43.7642L205.574 38.3358C205.22 38.2001 204.91 38.4715 204.91 38.9694L206.459 145.322L206.591 155.364L207.564 223.356C207.564 223.808 207.874 224.306 208.228 224.441L276.522 247.15C276.876 247.286 277.185 247.014 277.185 246.517L277.097 238.782ZM270.374 107.549L270.507 118.315L260.023 114.832L249.541 111.349L249.408 100.582L249.275 89.8158L259.758 93.2989L270.241 96.7824L270.374 107.549ZM270.152 93.2539L249.186 86.2874L249.142 82.985L270.108 89.9515L270.152 93.2539ZM249.098 79.4566L249.054 76.1542L254.716 78.0541L254.76 81.3565L249.098 79.4566ZM260.554 73.1686L260.599 76.471L248.965 72.6257L248.921 69.3233L260.554 73.1686ZM241.004 52.8571C241.313 52.9475 241.579 53.3546 241.579 53.7163C241.579 54.0785 241.358 54.3046 241.048 54.2142C240.738 54.1235 240.473 53.7163 240.473 53.3546C240.473 52.9929 240.694 52.7664 241.004 52.8571ZM238.527 52.0429C238.836 52.1332 239.102 52.5403 239.102 52.9021C239.102 53.3092 238.881 53.5357 238.571 53.4C238.261 53.3092 237.996 52.9021 237.996 52.5403C237.952 52.1786 238.217 51.9521 238.527 52.0429ZM226.673 61.2711C236.138 64.4378 243.967 76.697 244.144 88.5945C244.321 100.537 236.758 107.684 227.292 104.518C217.826 101.351 209.997 89.0919 209.82 77.1945C209.643 65.2974 217.207 58.1498 226.673 61.2711ZM219.728 208.563L217.517 207.839C217.074 207.703 216.721 207.116 216.676 206.573L216.632 203.813C216.632 203.27 216.986 202.909 217.428 203.044L219.64 203.768C220.082 203.904 220.436 204.492 220.48 205.035L220.524 207.794C220.524 208.337 220.171 208.699 219.728 208.563ZM231.449 212.454L229.238 211.73C228.796 211.594 228.442 211.006 228.398 210.463L228.354 207.703C228.354 207.161 228.707 206.799 229.15 206.935L231.361 207.658C231.804 207.794 232.157 208.382 232.202 208.925L232.246 211.684C232.29 212.273 231.892 212.589 231.449 212.454ZM243.215 216.344L241.004 215.62C240.561 215.484 240.208 214.896 240.163 214.354L240.119 211.594C240.119 211.051 240.473 210.689 240.915 210.825L243.127 211.549C243.569 211.684 243.923 212.273 243.967 212.815L244.011 215.575C244.011 216.163 243.658 216.48 243.215 216.344ZM254.937 220.234L252.725 219.51C252.283 219.375 251.929 218.787 251.885 218.244L251.841 215.484C251.841 214.941 252.194 214.58 252.637 214.715L254.848 215.439C255.291 215.575 255.644 216.163 255.689 216.706L255.733 219.465C255.733 220.053 255.379 220.415 254.937 220.234ZM266.702 224.17L264.491 223.446C264.049 223.31 263.695 222.722 263.65 222.179L263.606 219.42C263.606 218.877 263.96 218.515 264.402 218.651L266.614 219.375C267.056 219.511 267.41 220.099 267.41 220.642L267.454 223.401C267.499 223.944 267.145 224.306 266.702 224.17ZM271.568 191.463L272.674 191.825V193.047L271.568 192.685L271.789 207.658L272.895 208.02V209.242L271.789 208.88L271.833 210.689C271.833 211.141 271.568 211.413 271.214 211.277L212.563 191.78C212.209 191.644 211.899 191.192 211.899 190.74L211.634 172.735L210.174 172.237V171.016L211.634 171.514L211.413 156.541L209.953 156.043V154.821L211.413 155.319L211.324 149.8L211.191 140.345L211.015 140.3L209.732 139.893V138.672L211.191 139.169L210.793 111.484L209.334 110.987V109.766L210.793 110.263L210.749 108.227C210.749 107.775 211.015 107.503 211.368 107.639L270.02 127.136C270.374 127.272 270.683 127.724 270.683 128.177L270.728 130.213L271.833 130.574V131.796L270.728 131.434L271.126 159.119L273.824 160.024V161.245L271.126 160.34L271.568 191.463Z" fill="#96C9FE"/>
<path fill-rule="evenodd" clip-rule="evenodd" d="M71.1078 41.8647H27.8048V45.4386H71.1078V41.8647ZM226.672 61.9047C217.472 58.8288 210.129 65.75 210.307 77.376C210.484 89.0021 218.047 100.9 227.292 103.93C236.492 107.006 243.834 100.085 243.657 88.4592C243.48 76.8786 235.872 64.9811 226.672 61.9047ZM209.82 77.1949C209.643 65.2979 217.207 58.1503 226.672 61.2716C236.138 64.4383 243.967 76.6975 244.144 88.5949C244.321 100.492 236.757 107.685 227.292 104.518C217.826 101.397 209.997 89.1378 209.82 77.1949ZM202.742 158.983C202.744 158.995 202.747 159.008 202.749 159.021C202.753 159.037 202.756 159.053 202.759 159.069C202.798 159.059 202.836 159.048 202.875 159.028C203.406 158.847 203.804 158.621 204.026 158.349C206.104 155.952 212.474 155.544 211.899 159.299C211.766 160.068 211.501 160.837 211.103 161.516C209.51 164.23 205.972 166.447 202.123 167.578C199.992 168.217 197.412 169.662 194.665 171.199C191.197 173.14 187.463 175.229 184.033 176.037C181.158 176.716 177 176.67 173.063 175.766L173.061 175.765L173.018 175.766C171.514 175.766 169.966 175.856 168.374 176.037C166.472 176.218 164.526 176.625 162.668 177.258C160.854 177.892 159.218 179.249 157.669 181.058C157.653 181.076 157.642 181.093 157.633 181.108C157.619 181.132 157.608 181.149 157.581 181.149C156.743 178.135 148.002 169.217 143.737 165.135L143.737 165.134C144.577 164.366 145.418 163.597 146.258 162.782C147.895 161.245 149.443 159.661 150.858 158.078C151.477 157.399 152.052 156.676 152.583 155.952C154.618 153.192 156.254 150.071 157.227 148.036C157.935 146.633 159.041 145.502 160.412 144.778C162.251 143.848 164.036 141.717 165.921 139.467C168.16 136.793 170.542 133.949 173.328 132.745C174.743 132.61 176.645 132.79 178.724 133.107C179.011 133.152 179.133 133.322 179.255 133.492C179.376 133.661 179.498 133.831 179.785 133.876C180.163 133.941 180.698 133.903 181.242 133.865C181.847 133.824 182.463 133.781 182.882 133.876C186.066 134.555 189.428 135.414 192.215 136.183L192.245 136.192C192.93 135.977 193.695 135.734 194.516 135.474L194.516 135.474C199.614 133.859 206.848 131.568 210.174 131.026C211.768 130.767 213.28 129.718 214.654 128.766C216.634 127.394 218.323 126.222 219.551 127.905C221.63 130.755 215.172 136.455 211.368 135.55C209.599 137.405 207.785 138.219 205.441 138.626C204.874 139.151 204.257 139.764 203.599 140.417C202.923 141.088 202.205 141.802 201.455 142.505C202.711 146.434 202.718 151.718 202.723 156.111C202.724 157.125 202.725 158.092 202.742 158.983ZM196.151 147.945C196.151 147.945 196.903 154.64 197.699 159.616C196.563 159.615 195.384 159.569 194.162 159.48H194.116H194.072C194.111 158.907 194.145 158.338 194.179 157.776L194.179 157.772V157.77V157.77C194.263 156.384 194.344 155.048 194.47 153.826C194.824 149.98 196.151 147.945 196.151 147.945ZM27.8048 48.5603H71.1078V52.1341H27.8048V48.5603ZM47.4449 114.561H25.7712V154.053H47.4449V114.561ZM6.48541 201.778H38.3321V219.737H6.48541V201.778ZM123.112 74.7517H138.593V64.1664H123.112V74.7517ZM119.173 74.7517H103.692V64.1664H119.173V74.7517ZM103.714 62.1421H138.612V60.0611H103.714V62.1421ZM138.593 82.6277H123.112V80.5471H138.593V82.6277ZM103.692 82.6277H119.173V80.5471H103.692V82.6277ZM138.614 99.1959H103.715V88.6102H138.614V99.1959ZM103.715 86.5859H138.614V84.5053H103.715V86.5859ZM138.593 79.0176H123.112V77.9773H138.593V79.0176ZM103.692 79.0176H119.173V77.9773H103.692V79.0176ZM119.173 58.3623H103.692V57.3221H119.173V58.3623Z" fill="#96C9FE"/>
<path fill-rule="evenodd" clip-rule="evenodd" d="M6.86249 165.792H38.7095V198.363H6.86249V165.792ZM7.526 166.47V197.684H38.0461V166.47H7.526Z" fill="#305EED"/>
<path fill-rule="evenodd" clip-rule="evenodd" d="M10.5562 85.7219H89.9967V86.4005H10.5562V85.7219Z" fill="#305EED"/>
<path d="M3.96457 72.8971V27.4339C3.96457 23.7244 6.88386 20.7388 10.5109 20.7388H89.9953C93.6224 20.7388 96.5416 23.7244 96.5416 27.4339V72.8971" stroke="#161616" stroke-width="1.125" stroke-miterlimit="10" stroke-linecap="round"/>
<path opacity="0.36" d="M287.978 223.627L285.457 46.0263C285.457 45.5742 285.147 45.0763 284.794 44.986L216.455 22.277C216.101 22.1413 215.792 22.4127 215.792 22.9103L216.057 41.8647L274.311 61.8593L276.876 227.156C276.876 227.608 287.403 231.951 287.403 231.951C287.757 232.087 288.066 231.815 288.066 231.318L287.978 223.627Z" fill="#305EED"/>
<path d="M227.246 102.12C227.113 102.075 227.025 101.894 226.981 101.758L226.937 99.4058C226.937 99.2252 227.025 99.1344 227.158 99.1798C227.29 99.2252 227.423 99.4058 227.423 99.5415L227.467 101.894C227.467 102.075 227.379 102.165 227.246 102.12ZM216.586 92.9372C216.542 92.9372 216.542 92.8918 216.498 92.8468C216.453 92.7561 216.453 92.6657 216.498 92.6204L217.78 91.399C217.825 91.399 217.825 91.354 217.869 91.399C217.913 91.399 217.913 91.4444 217.957 91.4897C218.002 91.5801 218.002 91.6704 217.957 91.7158L216.675 92.9372C216.631 92.9372 216.586 92.9372 216.586 92.9372ZM237.773 99.9487C237.729 99.9487 237.729 99.9037 237.685 99.8583L236.358 97.7773C236.314 97.687 236.314 97.5967 236.358 97.5513C236.402 97.5513 236.402 97.5059 236.446 97.5513C236.491 97.5513 236.491 97.5967 236.535 97.6416L237.862 99.7226C237.906 99.8129 237.906 99.9037 237.862 99.9487C237.818 99.9487 237.773 99.994 237.773 99.9487ZM211.986 78.2352C211.854 78.1898 211.765 78.0087 211.721 77.8281C211.721 77.647 211.809 77.5567 211.942 77.6016L213.8 78.2352C213.932 78.2801 214.021 78.4612 214.065 78.5969C214.065 78.778 213.977 78.8684 213.844 78.823L211.986 78.2352ZM240.118 87.5991C239.985 87.5537 239.897 87.3731 239.852 87.192C239.852 87.0109 239.941 86.9206 240.073 86.966L241.931 87.5991C242.064 87.6445 242.152 87.8252 242.196 87.9609C242.196 88.142 242.108 88.2323 241.975 88.1873L240.118 87.5991ZM229.546 84.9753C229.281 84.8849 229.104 84.5681 229.06 84.2518V83.0304C229.06 82.7136 229.236 82.5325 229.502 82.6233L234.323 84.2064C234.589 84.2967 234.766 84.6135 234.81 84.9303V86.1517C234.81 86.4681 234.633 86.6492 234.367 86.5588L229.546 84.9753ZM217.515 68.2831C217.471 68.2831 217.471 68.2377 217.427 68.1923L216.1 66.1117C216.055 66.021 216.055 65.9306 216.1 65.8852C216.144 65.8852 216.144 65.8403 216.188 65.8852C216.232 65.8852 216.232 65.9306 216.277 65.976L217.604 68.0566C217.648 68.1474 217.648 68.2377 217.604 68.2831C217.559 68.2831 217.559 68.2831 217.515 68.2831ZM226.848 81.7183L226.671 69.5494C226.671 69.4591 226.715 69.4137 226.804 69.4591C226.892 69.4591 226.937 69.5494 226.937 69.6401L227.113 81.809C227.556 82.0351 227.954 82.6682 227.954 83.2564C227.954 83.8896 227.556 84.2967 227.025 84.1161C226.76 84.0253 226.539 83.8447 226.362 83.5732L220.346 89.8159C220.302 89.8608 220.213 89.8608 220.169 89.8608C220.125 89.8608 220.036 89.8159 219.992 89.7251C219.904 89.5894 219.904 89.3633 219.992 89.273L226.096 82.9396C226.096 82.8493 226.052 82.759 226.052 82.6233C226.008 81.9897 226.362 81.6279 226.848 81.7183ZM236.092 74.4353C236.048 74.4353 236.048 74.39 236.004 74.3446C235.96 74.2543 235.96 74.1639 236.004 74.1185L237.287 72.8972C237.331 72.8972 237.331 72.8518 237.375 72.8972C237.419 72.8972 237.419 72.9426 237.464 72.9875C237.508 73.0783 237.508 73.1686 237.464 73.214L236.181 74.4353C236.137 74.4803 236.137 74.4803 236.092 74.4353ZM226.715 66.6546C226.583 66.6092 226.494 66.4281 226.45 66.2924L226.406 63.9404C226.406 63.7593 226.494 63.669 226.627 63.7139C226.76 63.7593 226.892 63.9404 226.892 64.0761L226.937 66.4281C226.981 66.6092 226.848 66.6995 226.715 66.6546ZM226.671 61.9043C217.471 58.8284 210.129 65.7949 210.305 77.3756C210.482 89.0016 218.09 100.899 227.29 103.93C236.491 107.006 243.833 100.039 243.656 88.4588C243.479 76.8327 235.871 64.9807 226.671 61.9043Z" fill="#FEEFF0"/>
<path d="M234.368 84.2069L229.547 82.6233C229.281 82.533 229.104 82.7141 229.104 83.0304V84.2518C229.104 84.5686 229.326 84.8854 229.591 84.9757L234.412 86.5593C234.677 86.6496 234.854 86.4685 234.854 86.1517V84.9304C234.81 84.614 234.633 84.2972 234.368 84.2069Z" fill="#FBD8CB"/>
<path d="M211.679 172.781L211.944 190.785C211.944 191.237 212.254 191.69 212.608 191.826L271.259 211.323C271.613 211.458 271.878 211.187 271.878 210.734L271.834 208.925L211.9 189.021V188.433L211.679 172.781ZM270.02 127.091L211.369 107.594C211.015 107.459 210.75 107.73 210.75 108.182L210.794 110.218L270.728 130.122L270.684 128.086C270.64 127.679 270.375 127.227 270.02 127.091Z" fill="#FBEFCB"/>
<path d="M238.483 52.0429C238.173 51.9525 237.952 52.1786 237.952 52.5407C237.952 52.9025 238.217 53.3096 238.527 53.3999C238.837 53.4907 239.058 53.2642 239.058 52.9025C239.058 52.5407 238.793 52.1336 238.483 52.0429Z" fill="#FAE9B8"/>
<path d="M241.004 52.8572C240.694 52.7664 240.473 52.9929 240.473 53.3547C240.473 53.7164 240.738 54.1235 241.048 54.2143C241.357 54.3046 241.579 54.0786 241.579 53.7164C241.579 53.3547 241.313 52.9929 241.004 52.8572Z" fill="#FAE9B8"/>
<path d="M271.125 160.296L241.667 150.524L242.109 181.693L271.568 191.464L271.125 160.296Z" fill="#072D57"/>
<path d="M240.915 166.402L226.894 161.743L227.115 176.716L241.136 181.375L240.915 166.402Z" fill="#FEEFF0"/>
<path d="M225.7 145.231L211.192 140.391L211.413 155.365L225.921 160.205L225.7 145.231Z" fill="#072D57"/>
<path d="M219.641 203.723L217.43 202.999C216.987 202.863 216.633 203.18 216.633 203.768L216.677 206.527C216.677 207.07 217.075 207.658 217.518 207.794L219.729 208.518C220.172 208.654 220.525 208.337 220.525 207.749L220.481 204.99C220.481 204.447 220.127 203.859 219.641 203.723Z" fill="#1F818C"/>
<path d="M231.406 207.613L229.194 206.89C228.752 206.754 228.398 207.071 228.398 207.659L228.442 210.418C228.442 210.961 228.84 211.549 229.282 211.685L231.494 212.409C231.936 212.544 232.29 212.228 232.29 211.639L232.246 208.88C232.202 208.337 231.848 207.795 231.406 207.613Z" fill="#1F818C"/>
<path d="M243.126 211.549L240.915 210.825C240.472 210.689 240.119 211.006 240.119 211.594L240.163 214.354C240.163 214.896 240.561 215.485 241.003 215.62L243.215 216.344C243.657 216.48 244.011 216.163 244.011 215.575L243.967 212.815C243.967 212.273 243.569 211.684 243.126 211.549Z" fill="#1F818C"/>
<path d="M254.893 215.439L252.682 214.716C252.24 214.58 251.885 214.896 251.885 215.485L251.93 218.244C251.93 218.787 252.283 219.375 252.77 219.511L254.982 220.234C255.424 220.37 255.778 220.054 255.778 219.466L255.734 216.706C255.69 216.163 255.335 215.575 254.893 215.439Z" fill="#1F818C"/>
<path d="M266.614 219.33L264.402 218.606C263.96 218.47 263.606 218.787 263.606 219.375L263.651 222.134C263.651 222.677 264.004 223.265 264.491 223.401L266.703 224.125C267.145 224.26 267.499 223.944 267.499 223.356L267.455 220.596C267.455 220.053 267.057 219.466 266.614 219.33Z" fill="#1F818C"/>
<path d="M254.672 78.0092L249.054 76.1547L249.099 79.4566L254.76 81.3116L254.672 78.0092Z" fill="#072D57"/>
<path d="M270.11 89.952L249.144 82.9855L249.188 86.2879L270.154 93.2544L270.11 89.952Z" fill="#FEEFF0"/>
<path d="M270.372 107.549L259.89 104.065L260.022 114.832L270.505 118.315L270.372 107.549Z" fill="#FBEFCB"/>
<path d="M259.715 93.2994L249.231 89.8159L249.408 100.582L249.541 111.349L260.024 114.832L259.891 104.066L259.715 93.2994Z" fill="#072D57"/>
<path d="M241.667 150.524L240.694 150.207L240.916 165.181L241.402 165.362V166.583L240.916 166.402L241.137 181.376L242.11 181.693L241.667 150.524ZM241.225 121.618L240.252 121.301L240.65 148.986L241.623 149.303L241.225 121.618Z" fill="#161616"/>
<path d="M273.78 159.979L271.126 159.074L241.623 149.303L240.65 148.986L211.191 139.169L209.688 138.672L209.732 139.893L211.191 140.391L225.699 145.231V144.236L226.673 144.553V145.548L240.694 150.207L241.667 150.524L271.126 160.296L273.78 161.2V159.979Z" fill="#161616"/>
<path d="M225.92 160.205L211.412 155.365L209.952 154.867V156.088L211.412 156.586L225.92 161.381V160.205ZM241.356 165.317L240.87 165.136L226.893 160.522V161.743L240.914 166.402L241.401 166.583L241.356 165.317Z" fill="#161616"/>
<path d="M226.673 144.553L225.7 144.236V145.231L225.921 160.205V161.426L226.142 176.4L227.115 176.716L226.894 161.743V160.522L226.673 145.548V144.553Z" fill="#161616"/>
<path d="M272.893 208.02L271.788 207.658L211.898 187.754V188.342V188.976L271.832 208.88L272.893 209.242V208.02Z" fill="#161616"/>
<path d="M272.673 191.825L271.567 191.464L242.109 181.693L241.135 181.376L227.114 176.716L226.141 176.399L211.633 171.559L210.173 171.062V172.283L211.677 172.781L271.567 192.685L272.673 193.047V191.825Z" fill="#161616"/>
<path d="M271.789 130.529L270.684 130.167L210.749 110.263L209.29 109.766V110.987L210.794 111.484L240.252 121.301L241.225 121.618L270.727 131.389L271.789 131.751V130.529Z" fill="#161616"/>
<path d="M223.222 124.513C220.48 123.608 218.313 125.644 218.357 129.127C218.401 132.565 220.657 136.093 223.399 136.999C226.141 137.903 228.309 135.867 228.265 132.384C228.176 128.991 225.92 125.463 223.222 124.513Z" fill="#96C9FE"/>
<path opacity="0.1" d="M221.497 137.677C221.275 139.441 216.012 145.864 211.368 151.338C209.598 153.419 207.917 155.319 206.635 156.767L206.502 146.724L211.058 141.748L218.489 133.651C219.683 132.384 221.762 133.244 221.762 135.008C221.718 135.822 221.63 136.682 221.497 137.677Z" fill="#161616"/>
<path d="M192.127 136.229C197.036 134.691 206.281 131.66 210.173 131.027C214.066 130.394 217.471 125.056 219.551 127.906C221.629 130.755 215.171 136.455 211.323 135.551C209.598 137.36 207.697 138.265 205.44 138.582C201.504 141.341 199.381 143.376 195.267 146.679C192.746 148.714 187.925 154.912 191.375 158.124C194.78 161.29 198.983 160.341 202.919 159.029" stroke="#161616" stroke-width="1.125" stroke-miterlimit="10" stroke-linecap="round"/>
<path opacity="0.1" d="M161.077 191.102C158.069 192.82 154.531 193.363 151.169 196.213C149.71 197.48 148.25 199.199 146.923 201.687C146.923 201.687 143.473 206.256 138.652 212.273C138.652 212.273 138.652 212.273 138.652 212.318C130.115 223.039 117.42 238.329 112.82 240.727C109.591 242.4 101.939 240.048 94.5083 236.927C102.249 235.434 114.059 230.865 116.447 228.106C119.632 224.486 131.088 210.056 139.138 202.954C141.836 200.601 143.606 198.792 144.756 197.208C147.1 194.042 147.011 191.735 147.011 187.709C147.011 181.692 150.196 184.406 147.011 176.354C145.684 172.961 143.119 170.112 140.598 167.985C137.103 165 133.698 163.281 133.698 163.281C134.98 162.376 136.263 161.788 137.546 161.743C137.634 161.743 137.723 161.743 137.811 161.743C138.652 161.788 139.669 162.24 140.863 162.919C140.863 162.919 140.863 162.919 140.907 162.919C141.792 163.462 142.721 164.14 143.694 164.955C143.694 164.955 143.738 165 143.871 165.09C146.436 167.216 149.267 170.202 151.921 173.369C151.965 173.414 152.01 173.459 152.054 173.504C154.133 175.992 156.079 178.616 157.716 181.059C157.892 181.33 158.025 181.511 158.069 181.602C158.865 182.868 159.617 184.09 160.192 185.175C161.652 188.252 162.183 190.468 161.077 191.102Z" fill="#161616"/>
<path d="M122.286 233.263C128.523 226.025 134.273 218.47 138.652 212.273C142.632 206.618 145.463 202.094 146.481 199.968C146.525 199.833 146.613 199.742 146.658 199.607C147.719 197.435 148.913 195.807 150.196 194.585C153.469 191.328 157.14 190.649 160.148 188.705C160.9 188.207 160.812 186.985 160.104 185.311C159.617 184.09 158.777 182.643 157.716 181.059C156.212 178.752 154.177 176.129 151.965 173.595C151.921 173.55 151.877 173.505 151.833 173.459C150.329 171.74 148.781 170.067 147.188 168.529C147.188 168.529 147.188 168.529 147.144 168.483C145.95 167.307 144.8 166.221 143.65 165.271C142.676 164.412 141.704 163.688 140.775 163.01C140.775 163.01 140.775 163.01 140.73 163.01C138.475 161.381 136.484 160.431 135.157 160.567C134.405 160.612 133.653 160.884 132.901 161.291C126.93 164.457 121.268 177.169 115.208 181.467C113.307 182.824 108.574 186.714 102.824 191.645L102.78 191.69C90.9695 201.778 74.6922 216.073 68.721 221.32C67.2614 222.632 66.4208 223.356 66.4208 223.356" stroke="#161616" stroke-width="1.125" stroke-miterlimit="10" stroke-linecap="round"/>
<path opacity="0.1" d="M211.103 161.562C209.51 164.276 205.971 166.493 202.123 167.623C197.302 169.071 190.181 174.635 184.033 176.083C181.157 176.761 177 176.716 173.063 175.811C171.559 175.811 170.011 175.902 168.419 176.083C166.517 176.264 164.571 176.671 162.713 177.304C160.899 177.938 159.263 179.295 157.715 181.104C157.67 181.149 157.67 181.195 157.626 181.195C157.803 181.466 157.936 181.647 157.98 181.738C158.113 181.964 157.98 181.783 157.582 181.24C156.476 179.747 153.557 175.766 150.549 172.193C149.399 170.836 148.249 169.614 147.188 168.528C147.188 168.528 147.188 168.528 147.143 168.483C145.507 166.809 144.18 165.588 143.737 165.181C143.649 165.09 143.605 165.045 143.56 165.045C143.56 165.045 143.605 165.09 143.737 165.181C144.578 164.412 145.418 163.643 146.259 162.828C148.116 167.262 152.319 173.911 160.59 172.826C162.094 172.645 163.509 172.373 164.836 172.057C164.924 172.012 165.057 172.012 165.145 171.966C174.478 169.75 180.273 165.316 191.773 165.181C192.437 165.181 193.056 165.135 193.675 165.09C195.444 165 197.081 164.728 198.585 164.457C199.249 164.321 199.912 164.185 200.531 164.005C205.75 162.738 209.2 160.974 211.103 161.562Z" fill="#161616"/>
<path d="M22.7641 41.7739H16.3062V48.9216H22.7641V41.7739Z" fill="#072D57"/>
<path d="M-3.20001 32.5006H103.001" stroke="#161616" stroke-width="1.125" stroke-miterlimit="10" stroke-linecap="round"/>
<path opacity="0.1" d="M90.0406 25.3982H10.5562V29.3338H90.0406V25.3982Z" fill="#161616"/>
<path d="M38.5539 104.835H25.7708V107.277H38.5539V104.835Z" fill="#072D57"/>
<path d="M73.1873 108.635H25.7708V111.077H73.1873V108.635Z" fill="#072D57"/>
<path opacity="0.1" d="M47.4444 157.536H25.7708V175.495H47.4444V157.536Z" fill="#161616"/>
<path opacity="0.3" d="M144.976 114.561H111.581V132.52H144.976V114.561Z" fill="#305EED"/>
<path opacity="0.1" d="M75.3109 136.094H53.6375V154.052H75.3109V136.094Z" fill="#161616"/>
<path opacity="0.1" d="M81.5919 91.3989H17.3229V97.8226H81.5919V91.3989Z" fill="#161616"/>
<path opacity="0.1" d="M114.236 26.1674H110.785V29.6958H114.236V26.1674Z" fill="#161616"/>
<path opacity="0.1" d="M121.135 26.1674H117.685V29.6958H121.135V26.1674Z" fill="#161616"/>
<path opacity="0.1" d="M117.686 29.6957H114.235V33.2242H117.686V29.6957Z" fill="#161616"/>
<path opacity="0.1" d="M117.686 22.5938H114.235V26.1223H117.686V22.5938Z" fill="#161616"/>
<path opacity="0.1" d="M174.575 101.074V110.619H183.908V101.074H174.575Z" fill="#161616"/>
<path opacity="0.1" d="M183.906 110.65V120.195H193.239V110.65H183.906Z" fill="#161616"/>
<path opacity="0.1" d="M165.256 110.62V120.165H174.589V110.62H165.256Z" fill="#161616"/>
<path opacity="0.1" d="M325.575 28.4745H316.242V38.0195H325.575V28.4745Z" fill="#161616"/>
<path opacity="0.1" d="M316.285 38.0194H306.952V47.5645H316.285V38.0194Z" fill="#161616"/>
<path opacity="0.1" d="M316.285 18.9294H306.952V28.4745H316.285V18.9294Z" fill="#161616"/>
<path opacity="0.19" d="M17.8105 182.416H14.3604V185.945H17.8105V182.416Z" fill="#1A1A1A"/>
<path opacity="0.19" d="M24.7105 182.416H21.2604V185.945H24.7105V182.416Z" fill="#1A1A1A"/>
<path opacity="0.19" d="M21.2605 185.945H17.8104V189.473H21.2605V185.945Z" fill="#1A1A1A"/>
<path opacity="0.19" d="M21.2605 178.888H17.8104V182.416H21.2605V178.888Z" fill="#1A1A1A"/>
<path fill-rule="evenodd" clip-rule="evenodd" d="M213.329 20.7784L249.511 32.902L249.305 33.5468L213.123 21.4233L213.329 20.7784Z" fill="#305EED"/>
<path fill-rule="evenodd" clip-rule="evenodd" d="M219.699 3.724L264.904 18.9236L264.697 19.5683L219.492 4.3686L219.699 3.724Z" fill="#305EED"/>
<path fill-rule="evenodd" clip-rule="evenodd" d="M139.889 13.7498H138.562V13.0713H139.889V13.7498Z" fill="#305EED"/>
<path fill-rule="evenodd" clip-rule="evenodd" d="M143.901 13.7498H142.587V13.0713H143.901V13.7498ZM149.153 13.7498H146.527V13.0713H149.153V13.7498ZM154.406 13.7498H151.78V13.0713H154.406V13.7498ZM159.658 13.7498H157.032V13.0713H159.658V13.7498ZM164.911 13.7498H162.285V13.0713H164.911V13.7498ZM170.163 13.7498H167.537V13.0713H170.163V13.7498ZM175.416 13.7498H172.79V13.0713H175.416V13.7498ZM180.668 13.7498H178.042V13.0713H180.668V13.7498ZM184.608 13.7498H183.295V13.0713H184.608V13.7498Z" fill="#305EED"/>
<path fill-rule="evenodd" clip-rule="evenodd" d="M187.262 13.7498H185.935V13.0713H187.262V13.7498Z" fill="#305EED"/>
<path fill-rule="evenodd" clip-rule="evenodd" d="M187.262 10.1307H138.562V9.45215H187.262V10.1307Z" fill="#305EED"/>
<path fill-rule="evenodd" clip-rule="evenodd" d="M187.262 6.46639H138.562V5.78784H187.262V6.46639Z" fill="#305EED"/>
<path fill-rule="evenodd" clip-rule="evenodd" d="M290.307 28.3894L268.633 21.0157L268.843 20.3718L290.516 27.7455L290.307 28.3894Z" fill="#305EED"/>
<path fill-rule="evenodd" clip-rule="evenodd" d="M286.368 46.0312L255.052 35.3101L255.263 34.6666L286.579 45.388L286.368 46.0312Z" fill="#305EED"/>
<path fill-rule="evenodd" clip-rule="evenodd" d="M41.5854 182.833V181.376H42.2489V182.833H41.5854ZM41.5854 188.661V185.747H42.2489V188.661H41.5854ZM41.5854 194.489V191.575H42.2489V194.489H41.5854ZM41.5854 200.317V197.403H42.2489V200.317H41.5854ZM41.5854 206.145V203.231H42.2489V206.145H41.5854ZM41.5854 211.973V209.059H42.2489V211.973H41.5854ZM41.5854 216.344V214.887H42.2489V216.344H41.5854Z" fill="#305EED"/>
<path fill-rule="evenodd" clip-rule="evenodd" d="M141.371 114.163V112.706H142.035V114.163H141.371ZM141.371 119.991V117.077H142.035V119.991H141.371ZM141.371 125.819V122.905H142.035V125.819H141.371ZM141.371 131.647V128.733H142.035V131.647H141.371ZM141.371 137.475V134.561H142.035V137.475H141.371ZM141.371 143.303V140.389H142.035V143.303H141.371ZM141.371 147.674V146.217H142.035V147.674H141.371Z" fill="#96C9FE"/>
<path opacity="0.77" d="M97.7371 114.561H81.5042V116.642H97.7371V114.561Z" fill="#96C9FE"/>
<path opacity="0.77" d="M105.433 119.175H81.5042V121.256H105.433V119.175Z" fill="#96C9FE"/>
<path opacity="0.77" d="M105.433 123.744H81.5042V125.825H105.433V123.744Z" fill="#96C9FE"/>
<path opacity="0.77" d="M105.433 128.313H81.5042V130.394H105.433V128.313Z" fill="#96C9FE"/>
<path opacity="0.77" d="M105.433 132.927H81.5042V135.008H105.433V132.927Z" fill="#96C9FE"/>
<path opacity="0.77" d="M105.433 141.206H81.5042V143.286H105.433V141.206Z" fill="#96C9FE"/>
<path opacity="0.77" d="M105.433 145.774H81.5042V147.855H105.433V145.774Z" fill="#96C9FE"/>
<path d="M27.2747 204.809H11.0417V206.889H27.2747V204.809Z" fill="#305EED"/>
<path d="M34.971 209.377H11.0417V211.458H34.971V209.377Z" fill="#305EED"/>
<path d="M34.971 213.947H11.0417V216.028H34.971V213.947Z" fill="#305EED"/>
<path d="M27.2747 223.536H11.0417V225.617H27.2747V223.536Z" fill="#305EED"/>
<path d="M34.971 228.105H11.0417V230.186H34.971V228.105Z" fill="#305EED"/>
<path d="M34.971 232.675H11.0417V234.756H34.971V232.675Z" fill="#305EED"/>
<path d="M138.562 24.3579H187.262" stroke="#161616" stroke-width="1.125" stroke-miterlimit="10" stroke-linecap="round"/>
<path d="M138.562 20.7388H187.262" stroke="#161616" stroke-width="1.125" stroke-miterlimit="10" stroke-linecap="round"/>
<path d="M138.562 17.0748H187.262" stroke="#161616" stroke-width="1.125" stroke-miterlimit="10" stroke-linecap="round"/>
<path d="M103.708 104.156H141.704V61.0001" stroke="#161616" stroke-width="1.125" stroke-miterlimit="10" stroke-linecap="round"/>
<path opacity="0.77" d="M144.844 135.37H111.581V137.45H144.844V135.37Z" fill="#96C9FE"/>
<path opacity="0.77" d="M144.844 139.938H111.581V142.019H144.844V139.938Z" fill="#96C9FE"/>
<path d="M195.179 79.2301H161.696" stroke="#161616" stroke-width="1.125" stroke-miterlimit="10" stroke-linecap="round"/>
<path d="M184.829 89.1827H151.39" stroke="#161616" stroke-width="1.125" stroke-miterlimit="10" stroke-linecap="round"/>
<path d="M184.829 87.0568H151.39" stroke="#161616" stroke-width="1.125" stroke-miterlimit="10" stroke-linecap="round"/>
<path d="M189.12 76.4709H161.696" stroke="#161616" stroke-width="1.125" stroke-miterlimit="10" stroke-linecap="round"/>
<path fill-rule="evenodd" clip-rule="evenodd" d="M299.429 72.6515L299.41 71.3188L300.074 71.3092L300.092 72.6419L299.429 72.6515ZM299.503 77.9816L299.466 75.3168L300.129 75.3072L300.166 77.972L299.503 77.9816ZM299.576 83.3123L299.539 80.6469L300.203 80.6374L300.24 83.3027L299.576 83.3123ZM299.65 88.6429L299.613 85.9776L300.277 85.968L300.314 88.6333L299.65 88.6429ZM299.724 93.9731L299.687 91.3077L300.35 91.2982L300.387 93.9635L299.724 93.9731ZM299.797 99.3037L299.761 96.6384L300.424 96.6288L300.461 99.2941L299.797 99.3037ZM299.871 104.634L299.835 101.969L300.498 101.959L300.535 104.624L299.871 104.634ZM299.945 109.964L299.908 107.299L300.571 107.29L300.608 109.955L299.945 109.964ZM300.019 115.295L299.982 112.63L300.645 112.62L300.682 115.286L300.019 115.295ZM300.092 120.625L300.056 117.96L300.719 117.95L300.756 120.616L300.092 120.625ZM300.166 125.956L300.129 123.291L300.793 123.281L300.829 125.946L300.166 125.956ZM300.24 131.286L300.203 128.621L300.866 128.612L300.903 131.276L300.24 131.286ZM300.295 135.284L300.277 133.951L300.94 133.942L300.958 135.274L300.295 135.284Z" fill="#305EED"/>
<path fill-rule="evenodd" clip-rule="evenodd" d="M304.031 85.9972L304.013 84.6637L304.676 84.6541L304.694 85.9876L304.031 85.9972ZM304.105 91.3313L304.068 88.6642L304.731 88.6546L304.768 91.3217L304.105 91.3313ZM304.179 96.6654L304.141 93.9983L304.805 93.9887L304.842 96.6562L304.179 96.6654ZM304.252 102L304.215 99.3329L304.879 99.3233L304.916 101.99L304.252 102ZM304.326 107.334L304.289 104.667L304.952 104.657L304.989 107.324L304.326 107.334ZM304.4 112.668L304.363 110.001L305.026 109.992L305.063 112.659L304.4 112.668ZM304.473 118.002L304.437 115.335L305.1 115.326L305.137 117.993L304.473 118.002ZM304.547 123.337L304.51 120.67L305.173 120.66L305.211 123.327L304.547 123.337ZM304.621 128.671L304.584 126.004L305.247 125.994L305.284 128.661L304.621 128.671ZM304.694 134.005L304.658 131.338L305.321 131.328L305.358 133.995L304.694 134.005ZM304.768 139.339L304.731 136.672L305.395 136.662L305.432 139.33L304.768 139.339ZM304.842 144.674L304.805 142.006L305.468 141.997L305.505 144.664L304.842 144.674ZM304.897 148.674L304.879 147.341L305.542 147.331L305.56 148.665L304.897 148.674Z" fill="#305EED"/>
<path opacity="0.36" d="M329.6 227.11H314.871V231.182H329.6V227.11Z" fill="#96C9FE"/>
<path d="M270.725 131.39L241.223 121.619L241.621 149.304L271.123 159.075L270.725 131.39Z" fill="#305EED"/>
<path d="M240.694 150.208L226.673 145.548L226.894 160.522L240.916 165.181L240.694 150.208Z" fill="#305EED"/>
<path opacity="0.35" d="M210.042 205.035L210.263 221.003C210.263 221.456 210.572 221.953 210.926 222.089L221.188 225.482L269.577 65.4332C269.577 64.9807 269.268 64.4832 268.914 64.3925L255.202 59.8237L210.042 205.035ZM210.042 205.035L255.158 59.8237L210.042 205.035Z" fill="#FEEFF0"/>
</g>
<defs>
<clipPath id="clip0">
<rect width="320" height="240" fill="white"/>
</clipPath>
</defs>
</svg>
