<svg viewBox="0 0 300 220" fill="none" xmlns="http://www.w3.org/2000/svg">
<g clip-path="url(#clip0)">
<path opacity="0.3" d="M150.144 167.481H68.744C63.7595 167.481 59.7207 163.446 59.7207 158.465V123.774C59.7207 118.793 63.7595 114.757 68.744 114.757H150.144C155.129 114.757 159.167 118.793 159.167 123.774V158.465C159.167 163.446 155.129 167.481 150.144 167.481Z" fill="#8BB9EB"/>
<path opacity="0.3" d="M282.449 125.427H201.049C196.064 125.427 192.025 121.392 192.025 116.411V81.7198C192.025 76.7394 196.064 72.7039 201.049 72.7039H282.449C287.433 72.7039 291.472 76.7394 291.472 81.7198V116.411C291.472 121.392 287.433 125.427 282.449 125.427Z" fill="#8BB9EB"/>
<path d="M245.322 69.5903H274.375" stroke="#005B9D" stroke-width="0.847817" stroke-miterlimit="10" stroke-linecap="round"/>
<path opacity="0.1" d="M169.361 115.774H69.7912C68.2469 115.774 66.9941 114.522 66.9941 112.98C66.9941 111.437 68.2469 110.185 69.7912 110.185H169.361C170.905 110.185 172.158 111.437 172.158 112.98C172.158 114.522 170.908 115.774 169.361 115.774Z" stroke="#005B9D" stroke-width="0.847817" stroke-miterlimit="10" stroke-linecap="round"/>
<path opacity="0.1" d="M68.3457 112.98H167.915" stroke="#005B9D" stroke-width="0.847817" stroke-miterlimit="10" stroke-linecap="round"/>
<path d="M123.283 162.831H152.337" stroke="#005B9D" stroke-width="0.847817" stroke-miterlimit="10" stroke-linecap="round"/>
<path d="M114.137 169.262H143.19" stroke="#005B9D" stroke-width="0.847817" stroke-miterlimit="10" stroke-linecap="round"/>
<path opacity="0.3" d="M253.328 97.111H135.884C129.997 97.111 125.225 92.3429 125.225 86.4597V55.0378C125.225 49.1546 129.997 44.387 135.884 44.387H253.33C259.218 44.387 263.99 49.1546 263.99 55.0378V86.4624C263.987 92.3429 259.216 97.111 253.328 97.111Z" fill="#8BB9EB"/>
<path d="M220.925 196.164H152.556C147.924 196.164 144.168 192.411 144.168 187.783V26.5593C144.168 21.931 147.924 18.1775 152.556 18.1775H220.925C225.557 18.1775 229.314 21.931 229.314 26.5593V187.783C229.314 192.411 225.557 196.164 220.925 196.164Z" fill="#133254"/>
<path d="M170.488 189.415H202.993" stroke="#FFE458" stroke-width="0.758272" stroke-miterlimit="10" stroke-linecap="round"/>
<path d="M215.363 131.174H146.799C142.656 131.174 139.297 127.817 139.297 123.678V55.1666C139.297 51.0274 142.656 47.6709 146.799 47.6709H215.363C219.506 47.6709 222.865 51.0274 222.865 55.1666V123.675C222.865 127.817 219.506 131.174 215.363 131.174Z" fill="#2143AB" fill-opacity="0.78"/>
<path d="M215.363 130.849H146.799C142.835 130.849 139.621 127.638 139.621 123.678V55.1666C139.621 51.2069 142.835 47.9955 146.799 47.9955H215.363C219.327 47.9955 222.54 51.2069 222.54 55.1666V123.675C222.54 127.638 219.326 130.849 215.363 130.849Z" stroke="#305EED" stroke-opacity="0.3" stroke-width="0.649147"/>
<path d="M209.636 125.24H138.826C135.301 125.24 132.445 122.387 132.445 118.866V48.1126C132.445 44.5913 135.301 41.7375 138.826 41.7375H209.636C213.16 41.7375 216.016 44.5913 216.016 48.1126V118.866C216.013 122.387 213.158 125.24 209.636 125.24Z" stroke="#78D2EE" stroke-width="0.758272" stroke-miterlimit="10"/>
<path d="M126.324 24.2458L115.396 26.6475L117.8 37.5659L128.727 35.1647L126.324 24.2458Z" stroke="#005B9D" stroke-width="0.916663" stroke-miterlimit="10"/>
<path d="M284.514 76.3877C288.403 76.3877 291.557 73.2367 291.557 69.35C291.557 65.4637 288.403 62.3127 284.514 62.3127C280.624 62.3127 277.471 65.4637 277.471 69.35C277.471 73.2367 280.624 76.3877 284.514 76.3877Z" stroke="#005B9D" stroke-width="0.916663" stroke-miterlimit="10"/>
<path d="M180.215 68.4586C180.215 68.4586 162.686 61.0556 167.559 56.4944C172.431 51.9332 180.215 68.4586 180.215 68.4586Z" stroke="#005B9D" stroke-width="1.35" stroke-miterlimit="10"/>
<path d="M180.217 68.4583C180.217 68.4583 190.527 52.475 194.188 58.0536C197.85 63.6318 180.217 68.4583 180.217 68.4583Z" stroke="#005B9D" stroke-width="1.35" stroke-miterlimit="10"/>
<path d="M194.453 101.007H165.974C164.606 101.007 163.498 99.8999 163.498 98.5335V70.0768C163.498 68.71 164.606 67.6035 165.974 67.6035H194.453C195.821 67.6035 196.929 68.71 196.929 70.0768V98.5335C196.932 99.8999 195.821 101.007 194.453 101.007Z" fill="#133254"/>
<path d="M182.883 66.0413H177.549V102.016H182.883V66.0413Z" fill="#8BB9EB"/>
<path d="M198.218 87.0087V81.6008H162.215V87.0087H198.218Z" fill="#8BB9EB"/>
<path d="M201.133 117.843H159.303C157.804 117.843 156.59 116.427 156.59 114.678V109.02C156.59 107.271 157.804 105.854 159.303 105.854H201.133C202.632 105.854 203.847 107.271 203.847 109.02V114.678C203.847 116.427 202.629 117.843 201.133 117.843Z" fill="#133254"/>
<path d="M65.2598 2.85913V8.49065" stroke="#005B9D" stroke-width="2.69968" stroke-miterlimit="10" stroke-linecap="round"/>
<path d="M65.2598 40.1333V45.7649" stroke="#005B9D" stroke-width="2.69968" stroke-miterlimit="10" stroke-linecap="round"/>
<path d="M54.5293 5.73486L57.3456 10.609" stroke="#005B9D" stroke-width="2.69968" stroke-miterlimit="10" stroke-linecap="round"/>
<path d="M73.1816 38.012L75.9984 42.8887" stroke="#005B9D" stroke-width="2.69968" stroke-miterlimit="10" stroke-linecap="round"/>
<path d="M46.668 13.5854L51.5487 16.3998" stroke="#005B9D" stroke-width="2.69968" stroke-miterlimit="10" stroke-linecap="round"/>
<path d="M78.9766 32.2209L83.8577 35.0381" stroke="#005B9D" stroke-width="2.69968" stroke-miterlimit="10" stroke-linecap="round"/>
<path d="M43.791 24.3123H49.4272" stroke="#005B9D" stroke-width="2.69968" stroke-miterlimit="10" stroke-linecap="round"/>
<path d="M81.0938 24.3123H86.7295" stroke="#005B9D" stroke-width="2.69968" stroke-miterlimit="10" stroke-linecap="round"/>
<path d="M46.668 35.0384L51.5487 32.2212" stroke="#005B9D" stroke-width="2.69968" stroke-miterlimit="10" stroke-linecap="round"/>
<path d="M78.9766 16.4001L83.8573 13.5857" stroke="#005B9D" stroke-width="2.69968" stroke-miterlimit="10" stroke-linecap="round"/>
<path d="M54.5293 42.8887L57.346 38.012" stroke="#005B9D" stroke-width="2.69968" stroke-miterlimit="10" stroke-linecap="round"/>
<path d="M73.1816 10.609L75.9984 5.73486" stroke="#005B9D" stroke-width="2.69968" stroke-miterlimit="10" stroke-linecap="round"/>
<path opacity="0.6" fill-rule="evenodd" clip-rule="evenodd" d="M198.215 101.655C196.783 101.655 195.622 100.495 195.622 99.0645V91.172C195.622 89.7408 196.783 88.5813 198.215 88.5813C199.647 88.5813 200.808 89.7408 200.808 91.172V99.0645C200.808 100.495 199.647 101.655 198.215 101.655ZM195.622 151.308C195.622 152.738 196.782 153.898 198.215 153.898C199.647 153.898 200.808 152.738 200.808 151.308V143.415C200.808 141.984 199.647 140.824 198.215 140.824C196.782 140.824 195.622 141.984 195.622 143.415V151.308ZM178.993 112.742C178.553 112.742 178.106 112.63 177.7 112.396L170.859 108.449C169.619 107.734 169.194 106.149 169.91 104.911C170.627 103.673 172.213 103.249 173.452 103.964L180.293 107.91C181.532 108.625 181.957 110.21 181.241 111.448C180.76 112.278 179.888 112.742 178.993 112.742ZM222.98 138.519C223.386 138.753 223.833 138.865 224.272 138.865C225.17 138.865 226.04 138.399 226.521 137.571C227.237 136.333 226.812 134.748 225.573 134.033L218.731 130.087C217.492 129.371 215.906 129.796 215.19 131.034C214.474 132.272 214.899 133.857 216.138 134.572L222.98 138.519ZM172.156 138.865C171.261 138.865 170.388 138.401 169.91 137.568C169.194 136.33 169.619 134.746 170.859 134.03L177.7 130.084C178.939 129.368 180.525 129.793 181.241 131.031C181.957 132.27 181.532 133.854 180.293 134.569L173.452 138.516C173.043 138.753 172.596 138.865 172.156 138.865ZM215.19 111.445C215.669 112.278 216.541 112.742 217.436 112.742C217.876 112.742 218.323 112.63 218.731 112.393L225.573 108.447C226.812 107.731 227.237 106.147 226.521 104.909C225.805 103.67 224.219 103.245 222.98 103.961L216.138 107.907C214.899 108.623 214.474 110.207 215.19 111.445Z" fill="#8BB9EB"/>
<path d="M162.729 177.257H155.432C153.977 177.257 152.797 176.078 152.797 174.624V167.333C152.797 165.88 153.977 164.7 155.432 164.7H162.729C164.183 164.7 165.364 165.88 165.364 167.333V174.624C165.361 176.078 164.183 177.257 162.729 177.257Z" fill="#305EED"/>
<path d="M179.228 177.257H171.93C170.475 177.257 169.295 176.078 169.295 174.624V167.333C169.295 165.88 170.475 164.7 171.93 164.7H179.228C180.682 164.7 181.863 165.88 181.863 167.333V174.624C181.863 176.078 180.682 177.257 179.228 177.257Z" fill="#305EED"/>
<path d="M195.725 177.257H188.428C186.974 177.257 185.793 176.078 185.793 174.624V167.333C185.793 165.88 186.974 164.7 188.428 164.7H195.725C197.18 164.7 198.36 165.88 198.36 167.333V174.624C198.36 176.078 197.18 177.257 195.725 177.257Z" fill="#305EED"/>
<path d="M212.221 177.257H204.924C203.47 177.257 202.289 176.078 202.289 174.624V167.333C202.289 165.88 203.47 164.7 204.924 164.7H212.221C213.676 164.7 214.856 165.88 214.856 167.333V174.624C214.856 176.078 213.676 177.257 212.221 177.257Z" fill="#305EED"/>
<path opacity="0.2" d="M241.609 219.034C239.31 219.034 237.167 217.799 236.017 215.809L232.365 209.487C231.503 207.995 231.274 206.256 231.719 204.594C232.021 203.47 232.605 202.472 233.414 201.676C232.141 200.262 230.899 199.482 229.85 199.465C229.761 199.465 229.663 199.462 229.559 199.462L228.835 199.465C225.28 199.465 214.517 199.465 205.269 186.914L186.988 170.642C185.008 168.828 183.911 166.31 183.902 163.546C183.894 160.877 184.91 158.289 186.767 156.266C188.82 154.024 191.687 152.741 194.632 152.741C196.794 152.741 198.856 153.44 200.517 154.72L185.17 124.74C182.689 119.894 184.616 113.933 189.466 111.454C190.853 110.744 192.408 110.37 193.961 110.37C197.692 110.37 211.091 146.994 214.479 149.172C245.079 168.84 244.67 114.502 269.02 181.193C269.518 181.073 270.03 181.008 270.545 181.008C272.844 181.008 274.986 182.243 276.136 184.234L279.789 190.555C280.65 192.048 280.88 193.786 280.435 195.449C279.988 197.112 278.922 198.504 277.428 199.364L244.831 218.168C243.852 218.735 242.736 219.034 241.609 219.034Z" fill="black"/>
<path d="M268.068 177.408C264.709 168.752 264.521 159.164 264.571 155.86C264.582 155.041 264.423 154.228 264.104 153.473L253.71 128.899C252.256 126.059 248.774 124.933 245.932 126.386C243.359 127.703 242.198 130.679 243.082 133.34L241.96 131.146C240.237 127.781 236.109 126.448 232.741 128.169C229.661 129.743 228.29 133.323 229.393 136.498L228.204 134.175C226.481 130.81 222.352 129.477 218.985 131.199C216.342 132.551 214.957 135.383 215.315 138.166L201.69 111.554C199.967 108.189 195.839 106.856 192.472 108.578C189.104 110.299 187.77 114.425 189.493 117.789L212.177 162.101L200.701 151.886C197.909 149.332 193.4 149.714 190.628 152.738C187.856 155.762 187.87 160.284 190.662 162.839L209.153 179.295C218.123 191.676 228.419 190.82 231.521 190.865C238.206 190.96 242.687 203.484 242.687 203.484L271.377 184.946C271.368 184.943 269.606 181.368 268.068 177.408Z" fill="#EED3AB" stroke="#FFE458" stroke-width="0.758272" stroke-miterlimit="10"/>
<path d="M233.705 18.2415C232.337 15.5054 229.009 14.3987 226.273 15.7653L225.263 16.2684L224.76 15.2595C223.392 12.5234 220.064 11.4166 217.328 12.7833C214.59 14.15 213.482 17.4758 214.85 20.2093L215.353 21.2181L220.307 31.1227L230.217 26.1734L231.227 25.6701C233.962 24.3033 235.073 20.9779 233.705 18.2415Z" fill="#305EED"/>
<path d="M106.661 77.0442C105.688 75.0961 103.316 74.3079 101.369 75.2806L100.65 75.6382L100.292 74.9203C99.319 72.9721 96.9469 72.1839 95 73.1566C93.0507 74.1293 92.2619 76.499 93.2353 78.4444L93.5932 79.1627L97.1202 86.2141L104.177 82.6895L104.896 82.332C106.846 81.3593 107.637 78.9919 106.661 77.0442Z" fill="#305EED"/>
<path d="M94.2228 176.346H36.3039C33.143 176.346 30.5781 173.786 30.5781 170.626V126.496C30.5781 123.337 33.1403 120.774 36.3039 120.774H94.2228C97.3833 120.774 99.9482 123.334 99.9482 126.496V170.626C99.9482 173.786 97.3833 176.346 94.2228 176.346Z" stroke="#005B9D" stroke-width="0.270009" stroke-miterlimit="10"/>
<path d="M56.8435 164.834C55.1904 164.834 53.8535 163.496 53.8535 161.847V158.266C53.8535 156.615 55.1931 155.279 56.8435 155.279C58.4966 155.279 59.8339 156.617 59.8339 158.266V161.847C59.8339 163.496 58.4938 164.834 56.8435 164.834Z" fill="#133254"/>
<path d="M56.8435 164.834C55.1904 164.834 53.8535 163.495 53.8535 161.846V158.267C53.8535 156.615 55.1931 155.279 56.8435 155.279C58.4966 155.279 59.8339 156.618 59.8339 158.267V161.846C59.8339 163.495 58.4938 164.834 56.8435 164.834Z" fill="black" fill-opacity="0.58"/>
<path d="M54.7946 164.834C53.1415 164.834 51.8047 163.495 51.8047 161.846V158.267C51.8047 156.615 53.1443 155.279 54.7946 155.279C56.4477 155.279 57.7846 156.618 57.7846 158.267V161.846C57.7846 163.495 56.445 164.834 54.7946 164.834Z" fill="#133254"/>
<path d="M62.8828 125.031C64.8988 125.031 66.5327 123.398 66.5327 121.384C66.5327 119.369 64.8988 117.736 62.8828 117.736C60.8668 117.736 59.2324 119.369 59.2324 121.384C59.2324 123.398 60.8668 125.031 62.8828 125.031Z" fill="#305EED"/>
<path d="M70.0473 102.388C70.7228 100.474 68.3403 97.89 64.7256 96.6169C61.1114 95.3432 57.6338 95.8629 56.9583 97.7772C56.2827 99.6916 58.6653 102.275 62.28 103.549C65.8942 104.822 69.3718 104.303 70.0473 102.388Z" fill="#305EED"/>
<path d="M64.8048 79.3539C65.68 79.106 65.8062 76.85 65.0863 74.3155C64.3665 71.7806 63.0731 69.927 62.1979 70.1754C61.3227 70.4234 61.1965 72.6793 61.9163 75.2143C62.6366 77.7487 63.9296 79.6024 64.8048 79.3539Z" fill="#305EED"/>
<path d="M70.1345 164.834C68.4814 164.834 67.1445 163.496 67.1445 161.847V158.266C67.1445 156.615 68.4841 155.279 70.1345 155.279C71.7876 155.279 73.1249 156.617 73.1249 158.266V161.847C73.1276 163.496 71.7876 164.834 70.1345 164.834Z" fill="#133254"/>
<path d="M70.1345 164.834C68.4814 164.834 67.1445 163.495 67.1445 161.846V158.267C67.1445 156.615 68.4841 155.279 70.1345 155.279C71.7876 155.279 73.1249 156.618 73.1249 158.267V161.846C73.1276 163.495 71.7876 164.834 70.1345 164.834Z" fill="black" fill-opacity="0.58"/>
<path d="M48.2963 147.773C52.2712 146.179 54.3548 142.049 52.9481 138.547C51.5409 135.045 47.1803 133.499 43.2031 135.095L48.2963 147.773Z" fill="#133254"/>
<path d="M48.2968 147.772C52.2712 146.179 54.3553 142.048 52.9481 138.546C51.5413 135.044 47.1807 133.499 43.2031 135.095L48.2968 147.772Z" fill="black" fill-opacity="0.58"/>
<path d="M72.197 164.834C70.5439 164.834 69.207 163.495 69.207 161.846V158.267C69.207 156.615 70.5466 155.279 72.197 155.279C73.8501 155.279 75.1869 156.618 75.1869 158.267V161.846C75.1869 163.495 73.8501 164.834 72.197 164.834Z" fill="#133254"/>
<path d="M79.0372 147.75C79.0372 154.714 77.2218 160.609 70.2515 160.609H54.6858C47.7155 160.609 44.3535 155.796 44.3535 148.831C44.3535 141.017 50.2246 135.863 59.2424 135.036C61.656 134.812 64.1314 134.841 66.5285 135.123C75.2136 136.137 79.0372 140.179 79.0372 147.75Z" fill="#133254"/>
<path d="M49.1386 152.92L41.9193 153.966C40.6747 153.943 39.8493 145.83 41.7822 145.746C41.8635 145.743 41.9444 145.741 42.0257 145.743L49.267 145.875L49.1386 152.92Z" fill="#133254"/>
<path d="M76.5 142.023C79.8176 142.912 82.7628 141.428 83.3949 139.391C85.308 133.22 78.0187 133.566 79.3391 137.974C80.1334 140.629 84.6366 142.582 87.2463 140.606" stroke="#005B9D" stroke-width="0.682567" stroke-miterlimit="10" stroke-linecap="round"/>
<path d="M51.8046 145.674C55.779 144.081 59.1917 139.195 57.7845 135.696C56.3777 132.195 50.6858 131.404 46.7109 132.996L51.8046 145.674Z" fill="#133254"/>
<path d="M49.2598 146.433C50.1002 146.433 50.7817 145.753 50.7817 144.913C50.7817 144.073 50.1002 143.393 49.2598 143.393C48.4197 143.393 47.7383 144.073 47.7383 144.913C47.7383 145.753 48.4197 146.433 49.2598 146.433Z" fill="#292929"/>
<path d="M46.2207 154.298C46.2207 154.298 47.5438 156.394 48.2737 156.008C48.7966 155.734 48.9954 154.89 48.7966 153.264L46.2207 154.298Z" fill="white"/>
<path d="M96.8733 187.427H68.3377C66.6398 187.427 65.2637 186.052 65.2637 184.356C65.2637 182.66 66.6398 181.285 68.3377 181.285H96.8733C98.5712 181.285 99.9473 182.66 99.9473 184.356C99.9473 186.052 98.5712 187.427 96.8733 187.427Z" fill="#133254"/>
<path d="M41.8729 187.427H33.6522C31.9543 187.427 30.5781 186.052 30.5781 184.356C30.5781 182.66 31.9543 181.285 33.6522 181.285H41.8701C43.568 181.285 44.9442 182.66 44.9442 184.356C44.9469 186.052 43.5708 187.427 41.8729 187.427Z" fill="#133254"/>
<path d="M98.1497 194.498H32.3766C31.3839 194.498 30.5781 193.693 30.5781 192.701C30.5781 191.709 31.3839 190.904 32.3766 190.904H98.1525C99.1456 190.904 99.9509 191.709 99.9509 192.701C99.9482 193.696 99.1429 194.498 98.1497 194.498Z" fill="#133254"/>
<path d="M229.312 73.2576V33.3618C230.949 33.3618 232.275 34.6866 232.275 36.3215V70.2979C232.275 71.9328 230.949 73.2576 229.312 73.2576Z" fill="#305EED"/>
<path d="M277.524 191.172L244.936 209.97C243.297 210.915 241.205 210.353 240.257 208.718L236.604 202.396C235.658 200.759 236.22 198.668 237.857 197.721L270.445 178.923C272.084 177.978 274.177 178.54 275.125 180.175L278.778 186.497C279.723 188.135 279.161 190.228 277.524 191.172Z" fill="#133254"/>
<path d="M199.489 108.589C201.282 109.696 201.799 112.133 202.414 114.145C202.725 115.159 202.94 116.222 202.831 117.278C202.725 118.335 202.261 119.385 201.422 120.034C200.171 120.995 198.331 120.861 196.955 120.092C195.578 119.324 194.572 118.038 193.673 116.741C193.433 116.395 193.198 116.043 192.955 115.696C191.204 113.164 191.978 109.606 194.722 108.209C196.02 107.544 197.617 107.435 199.489 108.589Z" fill="white" fill-opacity="0.4" stroke="#FFE458" stroke-width="0.758272" stroke-miterlimit="10"/>
<path opacity="0.1" d="M249.706 184.256C249.706 183.627 249.194 183.115 248.565 183.115C247.936 183.115 247.424 183.627 247.424 184.256C247.424 184.884 247.933 185.396 248.565 185.396C249.194 185.396 249.706 184.887 249.706 184.256Z" fill="white"/>
<path opacity="0.1" d="M261.111 172.861C261.111 172.232 260.599 171.721 259.969 171.721C259.34 171.721 258.828 172.232 258.828 172.861C258.828 173.49 259.337 174.001 259.969 174.001C260.599 174.001 261.111 173.493 261.111 172.861Z" fill="white"/>
<path opacity="0.1" d="M252.556 175.712C252.556 175.083 252.044 174.571 251.415 174.571C250.785 174.571 250.273 175.083 250.273 175.712C250.273 176.34 250.783 176.852 251.415 176.852C252.044 176.849 252.556 176.34 252.556 175.712Z" fill="white"/>
<path opacity="0.1" d="M252.56 181.408C252.56 181.329 252.551 181.251 252.537 181.179C252.507 181.03 252.448 180.894 252.367 180.77C252.163 180.469 251.816 180.268 251.421 180.268C251.027 180.268 250.68 180.466 250.476 180.77C250.395 180.89 250.336 181.03 250.306 181.179C250.291 181.254 250.283 181.329 250.283 181.408C250.283 182.037 250.792 182.548 251.424 182.548C252.048 182.548 252.56 182.037 252.56 181.408Z" fill="white"/>
<path opacity="0.1" d="M249.706 178.56C249.706 177.931 249.194 177.42 248.565 177.42C247.936 177.42 247.424 177.931 247.424 178.56C247.424 179.189 247.933 179.7 248.565 179.7C249.194 179.7 249.706 179.189 249.706 178.56Z" fill="white"/>
<path opacity="0.1" d="M255.406 178.56C255.406 177.931 254.894 177.42 254.264 177.42C253.635 177.42 253.123 177.931 253.123 178.56C253.123 179.189 253.632 179.7 254.264 179.7C254.896 179.7 255.406 179.189 255.406 178.56Z" fill="white"/>
<path opacity="0.1" d="M255.406 172.861C255.406 172.232 254.894 171.721 254.264 171.721C253.635 171.721 253.123 172.232 253.123 172.861C253.123 173.49 253.632 174.001 254.264 174.001C254.896 174.001 255.406 173.493 255.406 172.861Z" fill="white"/>
<path opacity="0.1" d="M258.259 175.712C258.259 175.083 257.747 174.571 257.118 174.571C256.488 174.571 255.977 175.083 255.977 175.712C255.977 176.34 256.485 176.852 257.118 176.852C257.75 176.849 258.259 176.34 258.259 175.712Z" fill="white"/>
<path opacity="0.1" d="M246.853 181.408C246.853 181.329 246.845 181.251 246.831 181.179C246.8 181.03 246.741 180.894 246.66 180.77C246.456 180.469 246.109 180.268 245.715 180.268C245.32 180.268 244.973 180.466 244.769 180.77C244.688 180.89 244.629 181.03 244.599 181.179C244.585 181.254 244.576 181.329 244.576 181.408C244.576 182.037 245.085 182.548 245.717 182.548C246.344 182.548 246.853 182.037 246.853 181.408Z" fill="white"/>
<path opacity="0.1" d="M261.111 167.165C261.111 166.536 260.599 166.025 259.969 166.025C259.34 166.025 258.828 166.536 258.828 167.165C258.828 167.794 259.337 168.305 259.969 168.305C260.599 168.305 261.111 167.794 261.111 167.165Z" fill="white"/>
<path opacity="0.1" d="M261.111 161.467C261.111 160.838 260.599 160.326 259.969 160.326C259.34 160.326 258.828 160.838 258.828 161.467C258.828 162.096 259.337 162.607 259.969 162.607C260.599 162.607 261.111 162.098 261.111 161.467Z" fill="white"/>
<path opacity="0.1" d="M255.406 167.165C255.406 166.536 254.894 166.025 254.264 166.025C253.635 166.025 253.123 166.536 253.123 167.165C253.123 167.794 253.632 168.305 254.264 168.305C254.896 168.305 255.406 167.794 255.406 167.165Z" fill="white"/>
<path opacity="0.1" d="M255.406 161.467C255.406 160.838 254.894 160.326 254.264 160.326C253.635 160.326 253.123 160.838 253.123 161.467C253.123 162.096 253.632 162.607 254.264 162.607C254.896 162.607 255.406 162.098 255.406 161.467Z" fill="white"/>
<path opacity="0.1" d="M258.259 164.317C258.259 163.688 257.747 163.177 257.118 163.177C256.488 163.177 255.977 163.688 255.977 164.317C255.977 164.946 256.485 165.457 257.118 165.457C257.75 165.455 258.259 164.946 258.259 164.317Z" fill="white"/>
<path opacity="0.1" d="M258.257 170.013C258.257 169.935 258.249 169.857 258.235 169.784C258.204 169.636 258.145 169.499 258.065 169.376C257.86 169.074 257.513 168.873 257.119 168.873C256.725 168.873 256.378 169.071 256.174 169.376C256.092 169.496 256.034 169.636 256.003 169.784C255.989 169.859 255.98 169.935 255.98 170.013C255.98 170.642 256.49 171.153 257.122 171.153C257.748 171.153 258.257 170.642 258.257 170.013Z" fill="white"/>
<path opacity="0.1" d="M261.831 152.367C261.739 152.532 261.68 152.719 261.68 152.92C261.68 153.118 261.735 153.303 261.825 153.468C261.809 153.101 261.809 152.736 261.831 152.367Z" fill="white"/>
<path opacity="0.1" d="M261.111 155.771C261.111 155.142 260.599 154.631 259.969 154.631C259.34 154.631 258.828 155.142 258.828 155.771C258.828 156.4 259.337 156.911 259.969 156.911C260.599 156.911 261.111 156.4 261.111 155.771Z" fill="white"/>
<path opacity="0.1" d="M252.556 152.923C252.556 152.294 252.044 151.783 251.415 151.783C250.785 151.783 250.273 152.294 250.273 152.923C250.273 153.552 250.783 154.063 251.415 154.063C252.044 154.06 252.556 153.552 252.556 152.923Z" fill="white"/>
<path opacity="0.1" d="M252.56 158.619C252.56 158.541 252.551 158.463 252.537 158.39C252.507 158.242 252.448 158.105 252.367 157.982C252.163 157.68 251.816 157.479 251.421 157.479C251.027 157.479 250.68 157.677 250.476 157.982C250.395 158.102 250.336 158.242 250.306 158.39C250.291 158.465 250.283 158.541 250.283 158.619C250.283 159.248 250.792 159.759 251.424 159.759C252.048 159.759 252.56 159.248 252.56 158.619Z" fill="white"/>
<path opacity="0.1" d="M249.706 150.072C249.706 149.443 249.194 148.932 248.565 148.932C247.936 148.932 247.424 149.443 247.424 150.072C247.424 150.701 247.933 151.212 248.565 151.212C249.194 151.212 249.706 150.701 249.706 150.072Z" fill="white"/>
<path opacity="0.1" d="M255.406 155.771C255.406 155.142 254.894 154.631 254.264 154.631C253.635 154.631 253.123 155.142 253.123 155.771C253.123 156.4 253.632 156.911 254.264 156.911C254.896 156.911 255.406 156.4 255.406 155.771Z" fill="white"/>
<path opacity="0.1" d="M255.406 150.072C255.406 149.443 254.894 148.932 254.264 148.932C253.635 148.932 253.123 149.443 253.123 150.072C253.123 150.701 253.632 151.212 254.264 151.212C254.896 151.212 255.406 150.701 255.406 150.072Z" fill="white"/>
<path opacity="0.1" d="M258.259 152.923C258.259 152.294 257.747 151.783 257.118 151.783C256.488 151.783 255.977 152.294 255.977 152.923C255.977 153.552 256.485 154.063 257.118 154.063C257.75 154.06 258.259 153.552 258.259 152.923Z" fill="white"/>
<path opacity="0.1" d="M258.257 158.619C258.257 158.541 258.249 158.463 258.235 158.39C258.204 158.242 258.145 158.105 258.065 157.982C257.86 157.68 257.513 157.479 257.119 157.479C256.725 157.479 256.378 157.677 256.174 157.982C256.092 158.102 256.034 158.242 256.003 158.39C255.989 158.465 255.98 158.541 255.98 158.619C255.98 159.248 256.49 159.759 257.122 159.759C257.748 159.759 258.257 159.248 258.257 158.619Z" fill="white"/>
<path opacity="0.1" d="M238.304 132.982C238.304 132.353 237.792 131.842 237.163 131.842C236.533 131.842 236.021 132.35 236.021 132.982C236.021 133.611 236.533 134.122 237.163 134.122C237.792 134.119 238.304 133.611 238.304 132.982Z" fill="white"/>
<path opacity="0.1" d="M241.155 135.83C241.155 135.201 240.643 134.689 240.013 134.689C239.778 134.689 239.557 134.762 239.375 134.885C239.325 134.919 239.28 134.961 239.236 135C239.227 135.008 239.216 135.014 239.208 135.022C239.104 135.126 239.023 135.246 238.965 135.383V135.385C238.906 135.522 238.875 135.67 238.875 135.83C238.875 136.459 239.384 136.97 240.016 136.97C240.643 136.97 241.155 136.459 241.155 135.83Z" fill="white"/>
<path opacity="0.1" d="M249.706 132.982C249.706 132.353 249.194 131.842 248.565 131.842C247.936 131.842 247.424 132.35 247.424 132.982C247.424 133.611 247.936 134.122 248.565 134.122C249.194 134.119 249.706 133.611 249.706 132.982Z" fill="white"/>
<path opacity="0.1" d="M252.559 135.83C252.559 135.201 252.047 134.689 251.418 134.689C251.183 134.689 250.962 134.762 250.78 134.885C250.729 134.919 250.685 134.961 250.64 135C250.632 135.008 250.62 135.014 250.612 135.022C250.509 135.126 250.427 135.246 250.369 135.383V135.385C250.31 135.522 250.279 135.67 250.279 135.83C250.279 136.459 250.788 136.97 251.421 136.97C252.047 136.97 252.559 136.459 252.559 135.83Z" fill="white"/>
<path opacity="0.1" d="M246.633 136.501C246.641 136.489 246.652 136.478 246.661 136.467C246.666 136.459 246.669 136.45 246.675 136.442C246.787 136.266 246.857 136.056 246.857 135.83C246.857 135.752 246.848 135.673 246.834 135.6C246.728 135.081 246.269 134.689 245.718 134.689C245.483 134.689 245.262 134.762 245.081 134.885C245.03 134.919 244.985 134.961 244.941 135C244.932 135.008 244.921 135.014 244.913 135.022C244.809 135.126 244.728 135.246 244.669 135.383V135.385C244.611 135.522 244.58 135.67 244.58 135.83C244.58 136.459 245.089 136.97 245.721 136.97C246.093 136.97 246.423 136.783 246.633 136.501Z" fill="white"/>
<path opacity="0.1" d="M252.556 141.528C252.556 140.899 252.044 140.388 251.415 140.388C250.785 140.388 250.273 140.899 250.273 141.528C250.273 142.157 250.783 142.668 251.415 142.668C252.044 142.666 252.556 142.157 252.556 141.528Z" fill="white"/>
<path opacity="0.1" d="M252.56 147.224C252.56 147.146 252.551 147.068 252.537 146.995C252.507 146.847 252.448 146.71 252.367 146.587C252.163 146.285 251.816 146.084 251.421 146.084C251.027 146.084 250.68 146.283 250.476 146.587C250.395 146.707 250.336 146.847 250.306 146.995C250.291 147.07 250.283 147.146 250.283 147.224C250.283 147.853 250.792 148.365 251.424 148.365C252.048 148.365 252.56 147.853 252.56 147.224Z" fill="white"/>
<path opacity="0.1" d="M249.706 144.377C249.706 143.748 249.194 143.236 248.565 143.236C247.936 143.236 247.424 143.748 247.424 144.377C247.424 145.005 247.933 145.517 248.565 145.517C249.194 145.517 249.706 145.005 249.706 144.377Z" fill="white"/>
<path opacity="0.1" d="M249.706 138.678C249.706 138.049 249.194 137.537 248.565 137.537C247.936 137.537 247.424 138.049 247.424 138.678C247.424 139.306 247.933 139.818 248.565 139.818C249.194 139.818 249.706 139.306 249.706 138.678Z" fill="white"/>
<path opacity="0.1" d="M255.406 144.377C255.406 143.748 254.894 143.236 254.264 143.236C253.635 143.236 253.123 143.748 253.123 144.377C253.123 145.005 253.632 145.517 254.264 145.517C254.896 145.517 255.406 145.005 255.406 144.377Z" fill="white"/>
<path opacity="0.1" d="M255.406 138.678C255.406 138.049 254.894 137.537 254.264 137.537C253.635 137.537 253.123 138.049 253.123 138.678C253.123 139.306 253.632 139.818 254.264 139.818C254.896 139.818 255.406 139.306 255.406 138.678Z" fill="white"/>
<path opacity="0.1" d="M258.257 147.224C258.257 147.146 258.249 147.068 258.235 146.995C258.204 146.847 258.145 146.71 258.065 146.587C257.86 146.285 257.513 146.084 257.119 146.084C256.725 146.084 256.378 146.283 256.174 146.587C256.092 146.707 256.034 146.847 256.003 146.995C255.989 147.07 255.98 147.146 255.98 147.224C255.98 147.853 256.49 148.365 257.122 148.365C257.748 148.365 258.257 147.853 258.257 147.224Z" fill="white"/>
<path opacity="0.1" d="M244.003 138.678C244.003 138.049 243.491 137.537 242.862 137.537C242.233 137.537 241.721 138.049 241.721 138.678C241.721 139.306 242.23 139.818 242.862 139.818C243.491 139.818 244.003 139.306 244.003 138.678Z" fill="white"/>
<path opacity="0.1" d="M246.855 141.528C246.855 140.899 246.343 140.388 245.713 140.388C245.084 140.388 244.572 140.899 244.572 141.528C244.572 142.157 245.081 142.668 245.713 142.668C246.346 142.666 246.855 142.157 246.855 141.528Z" fill="white"/>
<path opacity="0.1" d="M246.853 147.224C246.853 147.146 246.845 147.068 246.831 146.995C246.8 146.847 246.741 146.71 246.66 146.587C246.456 146.285 246.109 146.084 245.715 146.084C245.32 146.084 244.973 146.283 244.769 146.587C244.688 146.707 244.629 146.847 244.599 146.995C244.585 147.07 244.576 147.146 244.576 147.224C244.576 147.853 245.085 148.365 245.717 148.365C246.344 148.365 246.853 147.853 246.853 147.224Z" fill="white"/>
<path d="M57.7285 138.496C57.7285 138.496 62.1531 136.517 68.346 138.496" stroke="#292929" stroke-width="0.408331" stroke-miterlimit="10" stroke-linecap="round"/>
<path d="M66.5327 137.686C66.5327 137.764 66.5299 137.842 66.5244 137.921C64.13 137.638 61.6547 137.611 59.2379 137.834C59.2324 137.786 59.2324 137.736 59.2324 137.686C59.2324 137.437 59.2576 137.2 59.3051 136.965C59.641 135.296 61.115 134.039 62.8828 134.039C64.6506 134.039 66.1245 135.296 66.46 136.965C66.5075 137.197 66.5327 137.437 66.5327 137.686Z" fill="#305EED"/>
<path opacity="0.2" d="M66.5327 137.686C66.5327 137.764 66.5299 137.842 66.5244 137.921C64.13 137.639 61.6547 137.611 59.2379 137.834C59.2324 137.787 59.2324 137.736 59.2324 137.686C59.2324 137.437 59.2576 137.2 59.3051 136.965C60.3791 136.736 61.593 136.604 62.8828 136.604C64.1721 136.604 65.386 136.736 66.46 136.965C66.5075 137.197 66.5327 137.437 66.5327 137.686Z" fill="#292929"/>
<path d="M197.63 16.3997H204.002V20.3208C204.002 22.1876 202.489 23.6997 200.62 23.6997H170.085C168.216 23.6997 166.703 22.1876 166.703 20.3208V16.3997H190.022" stroke="#FFE458" stroke-width="0.758272" stroke-miterlimit="10" stroke-linecap="round"/>
</g>
<defs>
<filter id="filter0_b" x="100.348" y="8.72206" width="161.466" height="161.401" filterUnits="userSpaceOnUse" color-interpolation-filters="sRGB">
<feFlood flood-opacity="0" result="BackgroundImageFix"/>
<feGaussianBlur in="BackgroundImage" stdDeviation="19.4744"/>
<feComposite in2="SourceAlpha" operator="in" result="effect1_backgroundBlur"/>
<feBlend mode="normal" in="SourceGraphic" in2="effect1_backgroundBlur" result="shape"/>
</filter>
<clipPath id="clip0">
<rect width="300" height="220" fill="white"/>
</clipPath>
</defs>
</svg>
