<svg width="80" height="26" viewBox="0 0 80 26" fill="none" xmlns="http://www.w3.org/2000/svg">
<path fill-rule="evenodd" clip-rule="evenodd" d="M11.0386 9.23591V11.9923L17.6265 11.9894C17.4244 13.5097 16.9118 14.6228 16.1326 15.402C15.1718 16.3628 13.672 17.4202 11.0386 17.4202C6.97868 17.4202 3.80338 14.1483 3.80338 10.0883C3.80338 6.02839 6.97868 2.75642 11.0386 2.75642C13.2297 2.75642 14.8291 3.61762 16.0096 4.72487L17.9546 2.77985C16.3083 1.20685 14.1173 0 11.0415 0C5.48184 0 0.806763 4.52861 0.806763 10.0883C0.806763 15.648 5.48184 20.1766 11.0415 20.1766C14.0411 20.1766 16.3054 19.1924 18.0776 17.347C19.8996 15.525 20.4649 12.9678 20.4649 10.8997C20.4649 10.2846 20.4181 9.71631 20.3273 9.23591H11.0386ZM66.6094 19.7812V0.741094H63.8266V19.7812H66.6094ZM28.0898 20.1796C31.681 20.1796 34.6073 17.4232 34.6073 13.6825C34.6073 9.9155 31.681 7.18545 28.0898 7.18545C24.4985 7.18545 21.5722 9.9155 21.5722 13.6825C21.5722 17.4232 24.4985 20.1796 28.0898 20.1796ZM28.0898 9.74561C30.0582 9.74561 31.7543 11.345 31.7543 13.6825C31.7543 15.9937 30.0582 17.6194 28.0898 17.6194C26.1213 17.6194 24.4253 15.9966 24.4253 13.6825C24.4253 11.345 26.1213 9.74561 28.0898 9.74561ZM42.1502 20.1796C45.7414 20.1796 48.6677 17.4232 48.6677 13.6825C48.6677 9.9155 45.7414 7.18545 42.1502 7.18545C38.5589 7.18545 35.6326 9.91843 35.6326 13.6825C35.6326 17.4232 38.5589 20.1796 42.1502 20.1796ZM42.1502 9.74561C44.1186 9.74561 45.8146 11.345 45.8146 13.6825C45.8146 15.9937 44.1186 17.6194 42.1502 17.6194C40.1817 17.6194 38.4857 15.9966 38.4857 13.6825C38.4857 11.345 40.1817 9.74561 42.1502 9.74561ZM62.1423 7.58089V19.2422C62.1423 24.0403 59.3126 26 55.9674 26C52.8185 26 50.9232 23.8939 50.2085 22.1715L52.6925 21.1374C53.1348 22.1949 54.2187 23.4428 55.9645 23.4428C58.1058 23.4428 59.4327 22.1217 59.4327 19.6347V18.7003H59.3331C58.6945 19.4883 57.4643 20.1767 55.9118 20.1767C52.6632 20.1767 49.6871 17.347 49.6871 13.7059C49.6871 10.0385 52.6632 7.18545 55.9118 7.18545C57.4613 7.18545 58.6916 7.87382 59.3331 8.63835H59.4327V7.58089H62.1423ZM59.6348 13.7059C59.6348 11.4182 58.1087 9.74561 56.1666 9.74561C54.1981 9.74561 52.549 11.4182 52.549 13.7059C52.549 15.9703 54.1981 17.6194 56.1666 17.6194C58.1087 17.6194 59.6348 15.9703 59.6348 13.7059ZM77.4534 15.8209L79.6679 17.2972C78.9532 18.3547 77.2308 20.1766 74.2547 20.1766C70.5638 20.1766 67.8074 17.3236 67.8074 13.6796C67.8074 9.8159 70.5873 7.18251 73.9354 7.18251C77.307 7.18251 78.9561 9.8657 79.4951 11.3157L79.791 12.0538L71.1058 15.651C71.7707 16.9545 72.8047 17.6194 74.2547 17.6194C75.7076 17.6194 76.7153 16.9047 77.4534 15.8209ZM70.6371 13.4833L76.4428 11.0726C76.1236 10.2612 75.1628 9.69581 74.0321 9.69581C72.5821 9.69581 70.5638 10.9759 70.6371 13.4833Z" fill="white"/>
</svg>
