<svg viewBox="0 0 612 450" fill="none" xmlns="http://www.w3.org/2000/svg">
<g clip-path="url(#clip0)">
<path d="M571.074 158.548C589.636 253.847 607.545 342.006 461.884 370.363C316.222 398.721 62.1496 356.539 43.5878 261.239C25.0264 165.939 128.061 65.695 273.722 37.3376C419.383 8.98011 552.513 63.2473 571.074 158.548Z" fill="#072D57"/>
<path d="M3.27979 91.5413V118.491C3.27979 125.193 8.71664 130.619 15.4115 130.619H76.73L124.176 158.824L117.982 130.619H129.251C135.955 130.619 141.383 125.193 141.383 118.491V91.5413C141.383 84.848 135.955 79.4211 129.251 79.4211H15.4115C8.71664 79.4211 3.27979 84.848 3.27979 91.5413Z" fill="#96C9FE"/>
<path d="M28.1383 119.615C29.875 119.615 31.2829 118.207 31.2829 116.471C31.2829 114.735 29.875 113.327 28.1383 113.327C26.4015 113.327 24.9937 114.735 24.9937 116.471C24.9937 118.207 26.4015 119.615 28.1383 119.615Z" fill="#072D57"/>
<path d="M18.971 119.615C20.7078 119.615 22.1156 118.207 22.1156 116.471C22.1156 114.735 20.7078 113.327 18.971 113.327C17.2343 113.327 15.8264 114.735 15.8264 116.471C15.8264 118.207 17.2343 119.615 18.971 119.615Z" fill="#305EED"/>
<path d="M483.785 268.551C495.879 268.551 505.682 258.749 505.682 246.658C505.682 234.568 495.879 224.766 483.785 224.766C471.692 224.766 461.888 234.568 461.888 246.658C461.888 258.749 471.692 268.551 483.785 268.551Z" fill="#96C9FE"/>
<path d="M477.165 242.566C478.284 242.566 479.191 241.659 479.191 240.541C479.191 239.422 478.284 238.515 477.165 238.515C476.046 238.515 475.138 239.422 475.138 240.541C475.138 241.659 476.046 242.566 477.165 242.566Z" fill="#305EED"/>
<path d="M492.578 245.213C493.697 245.213 494.604 244.306 494.604 243.187C494.604 242.068 493.697 241.162 492.578 241.162C491.459 241.162 490.552 242.068 490.552 243.187C490.552 244.306 491.459 245.213 492.578 245.213Z" fill="#305EED"/>
<path d="M473.268 251.266C473.579 252.434 474.168 253.492 474.898 254.431C478.473 259.032 485.16 260.17 489.896 256.778C490.756 256.163 491.541 255.416 492.161 254.51" fill="#305EED"/>
<path d="M498.99 131.405H546.638" stroke="#005B9D" stroke-width="1.5" stroke-miterlimit="10"/>
<path d="M486.708 122.923H518.452" stroke="#005B9D" stroke-width="1.5" stroke-miterlimit="10"/>
<path d="M73.0464 337.31V384.947" stroke="#005B9D" stroke-width="1.5" stroke-miterlimit="10"/>
<path d="M81.5322 325.032V356.77" stroke="#005B9D" stroke-width="1.5" stroke-miterlimit="10"/>
<path d="M392.795 401.744H221.869C213.272 401.744 206.302 394.776 206.302 386.18V33.6066C206.302 25.0106 213.272 18.0422 221.869 18.0422H392.795C401.393 18.0422 408.363 25.0106 408.363 33.6066V386.179C408.363 394.776 401.393 401.744 392.795 401.744Z" fill="#96C9FE"/>
<path d="M220.745 102.168C212.775 102.168 206.314 95.7085 206.314 87.7407V36.2155H235.176V87.7407C235.176 95.7085 228.715 102.168 220.745 102.168Z" fill="#072D57"/>
<path d="M278.469 102.168C270.499 102.168 264.037 95.7085 264.037 87.7407V36.2155H292.9V87.7407C292.9 95.7085 286.439 102.168 278.469 102.168Z" fill="#072D57"/>
<path d="M336.193 102.168C328.223 102.168 321.762 95.7085 321.762 87.7407V36.2155H350.624V87.7407C350.624 95.7085 344.163 102.168 336.193 102.168Z" fill="#072D57"/>
<path d="M393.916 102.168C385.946 102.168 379.485 95.7085 379.485 87.7407V36.2155H408.347V87.7407C408.347 95.7085 401.887 102.168 393.916 102.168Z" fill="#072D57"/>
<path d="M191.883 102.168C183.913 102.168 177.452 95.7085 177.452 87.7407V36.2155H206.314V87.7407C206.314 95.7085 199.853 102.168 191.883 102.168Z" fill="#305EED"/>
<path d="M249.605 102.168C241.635 102.168 235.174 95.7085 235.174 87.7407V36.2155H264.036V87.7407C264.036 95.7085 257.575 102.168 249.605 102.168Z" fill="#305EED"/>
<path d="M307.331 102.168C299.361 102.168 292.9 95.7085 292.9 87.7407V36.2155H321.762V87.7407C321.762 95.7085 315.301 102.168 307.331 102.168Z" fill="#305EED"/>
<path d="M365.055 102.168C357.086 102.168 350.625 95.7085 350.625 87.7407V36.2155H379.487V87.7407C379.487 95.7085 373.026 102.168 365.055 102.168Z" fill="#305EED"/>
<path d="M422.778 102.168C414.808 102.168 408.347 95.7085 408.347 87.7407V36.2155H437.209V87.7407C437.209 95.7085 430.748 102.168 422.778 102.168Z" fill="#305EED"/>
<path d="M437.212 69.1921H177.452V28.9307C177.452 20.4267 184.347 13.533 192.853 13.533H421.81C430.316 13.533 437.212 20.4267 437.212 28.9307V69.1921Z" fill="#305EED"/>
<path d="M334.285 385.691H280.378C278.888 385.691 277.682 384.484 277.682 382.996C277.682 381.508 278.888 380.301 280.378 380.301H334.285C335.774 380.301 336.981 381.508 336.981 382.996C336.981 384.484 335.774 385.691 334.285 385.691Z" fill="white" stroke="#E6E7E8" stroke-width="0.75" stroke-miterlimit="10"/>
<path d="M377.841 202.164H233.038C228.179 202.164 224.24 198.226 224.24 193.369V143.642C224.24 138.784 228.179 134.846 233.038 134.846H377.841C382.7 134.846 386.639 138.784 386.639 143.642V193.369C386.639 198.226 382.7 202.164 377.841 202.164Z" fill="#305EED"/>
<path d="M377.841 302.162H233.038C228.179 302.162 224.24 298.224 224.24 293.366V243.638C224.24 238.782 228.179 234.843 233.038 234.843H377.841C382.7 234.843 386.639 238.782 386.639 243.638V293.366C386.639 298.224 382.7 302.162 377.841 302.162Z" fill="#305EED"/>
<path d="M224.24 210.1H283.876" stroke="#E6E7E8" stroke-width="5.25" stroke-miterlimit="10"/>
<path d="M224.24 218.504H299.291" stroke="#E6E7E8" stroke-width="0.75" stroke-miterlimit="10"/>
<path d="M224.24 222.471H299.291" stroke="#E6E7E8" stroke-width="0.75" stroke-miterlimit="10"/>
<path d="M386.641 208.079H356.485V224.493H386.641V208.079Z" fill="#E6E7E8"/>
<path d="M224.24 314.533H283.876" stroke="#E6E7E8" stroke-width="5.25" stroke-miterlimit="10"/>
<path d="M224.24 322.938H299.291" stroke="#E6E7E8" stroke-width="0.75" stroke-miterlimit="10"/>
<path d="M224.24 326.905H299.291" stroke="#E6E7E8" stroke-width="0.75" stroke-miterlimit="10"/>
<path d="M386.641 312.511H356.485V328.925H386.641V312.511Z" fill="#E6E7E8"/>
<path d="M262.11 141.004H230.4V147.026H262.11V141.004Z" fill="white"/>
<path d="M262.11 241H230.4V247.022H262.11V241Z" fill="white"/>
<path d="M226.133 114.626H388.531" stroke="#E6E7E8" stroke-width="0.75" stroke-miterlimit="10" stroke-linecap="round"/>
<path d="M243.913 361.775H230.997C228.749 361.775 226.926 359.953 226.926 357.705V344.791C226.926 342.544 228.749 340.722 230.997 340.722H243.913C246.161 340.722 247.984 342.544 247.984 344.791V357.705C247.984 359.953 246.161 361.775 243.913 361.775Z" fill="#E6E7E8"/>
<path d="M278.852 361.775H265.936C263.687 361.775 261.865 359.953 261.865 357.705V344.791C261.865 342.544 263.687 340.722 265.936 340.722H278.852C281.1 340.722 282.923 342.544 282.923 344.791V357.705C282.923 359.953 281.1 361.775 278.852 361.775Z" fill="#E6E7E8"/>
<path d="M313.788 361.775H300.871C298.622 361.775 296.801 359.953 296.801 357.705V344.791C296.801 342.544 298.622 340.722 300.871 340.722H313.788C316.035 340.722 317.858 342.544 317.858 344.791V357.705C317.858 359.953 316.035 361.775 313.788 361.775Z" fill="#E6E7E8"/>
<path d="M382.569 361.775H369.652C367.404 361.775 365.582 359.953 365.582 357.705V344.791C365.582 342.544 367.404 340.722 369.652 340.722H382.569C384.817 340.722 386.64 342.544 386.64 344.791V357.705C386.64 359.953 384.817 361.775 382.569 361.775Z" fill="#E6E7E8"/>
<path d="M381.551 298.214L377.206 295.423L372.862 298.214V289.528H381.551V298.214Z" fill="#072D57"/>
<path d="M381.551 198.58L377.206 195.788L372.862 198.58V189.894H381.551V198.58Z" stroke="#005B9D" stroke-width="0.75" stroke-miterlimit="10"/>
<path d="M239.876 190.815L239.616 190.554C238.689 189.628 237.188 189.628 236.261 190.554L235.41 191.406L234.558 190.554C233.632 189.628 232.13 189.628 231.204 190.554L230.943 190.815C230.017 191.741 230.017 193.242 230.943 194.168L231.795 195.02L235.41 198.634L239.876 194.168C240.803 193.242 240.803 191.741 239.876 190.815Z" stroke="#005B9D" stroke-width="0.75" stroke-miterlimit="10"/>
<path d="M239.642 290.44L239.382 290.18C238.455 289.253 236.954 289.253 236.027 290.18L235.176 291.031L234.324 290.18C233.398 289.253 231.896 289.253 230.97 290.18L230.709 290.44C229.783 291.366 229.783 292.867 230.709 293.794L231.561 294.645L235.176 298.259L239.642 293.794C240.568 292.867 240.568 291.366 239.642 290.44Z" fill="#072D57"/>
<path d="M318.037 289.64H292.843C291.043 289.64 289.584 288.18 289.584 286.381V250.624C289.584 248.823 291.043 247.365 292.843 247.365H318.037C319.837 247.365 321.297 248.823 321.297 250.624V286.381C321.297 288.18 319.837 289.64 318.037 289.64Z" fill="#96C9FE"/>
<path d="M316.638 287.291H294.243C292.642 287.291 291.345 285.994 291.345 284.394V252.61C291.345 251.011 292.642 249.713 294.243 249.713H316.638C318.238 249.713 319.535 251.011 319.535 252.61V284.394C319.535 285.994 318.238 287.291 316.638 287.291Z" stroke="#FFE458" stroke-width="0.375" stroke-miterlimit="10"/>
<path d="M333.025 265.061H315.808C313.064 265.061 310.839 267.285 310.839 270.029V282.156C310.839 284.9 308.614 287.124 305.869 287.124H273.44" stroke="white" stroke-width="0.75" stroke-miterlimit="10" stroke-linecap="round"/>
<path d="M24.9927 215.519C34.3203 215.519 41.8816 207.96 41.8816 198.635C41.8816 189.309 34.3203 181.749 24.9927 181.749C15.665 181.749 8.10352 189.309 8.10352 198.635C8.10352 207.96 15.665 215.519 24.9927 215.519Z" stroke="#E6E7E8" stroke-width="0.75" stroke-miterlimit="10"/>
<path d="M479.629 32.9193C484.293 32.9193 488.074 29.1394 488.074 24.4766C488.074 19.814 484.293 16.0341 479.629 16.0341C474.966 16.0341 471.185 19.814 471.185 24.4766C471.185 29.1394 474.966 32.9193 479.629 32.9193Z" fill="#305EED"/>
<path d="M110.808 247.566H130.283V284.914H89.47" stroke="#005B9D" stroke-width="0.75" stroke-miterlimit="10"/>
<path d="M114.304 273.46V236.113H40.2773V273.46H114.304Z" fill="#305EED"/>
<path d="M532.655 321.185H516.674V283.837H590.699V295.29" stroke="#005B9D" stroke-width="0.75" stroke-miterlimit="10"/>
<path d="M433.472 69.1919H463.458" stroke="#005B9D" stroke-width="2.25" stroke-miterlimit="10" stroke-linecap="round"/>
<path d="M300.216 69.1919H420.498" stroke="#005B9D" stroke-width="2.25" stroke-miterlimit="10" stroke-linecap="round"/>
<path d="M226.133 69.1919H286.406" stroke="#005B9D" stroke-width="2.25" stroke-miterlimit="10" stroke-linecap="round"/>
<path d="M206.302 69.1919H217.167" stroke="#005B9D" stroke-width="2.25" stroke-miterlimit="10" stroke-linecap="round"/>
<path d="M379.485 36.2155H410.779" stroke="#005B9D" stroke-width="2.25" stroke-miterlimit="10" stroke-linecap="round"/>
<path d="M354.745 36.2155H366.65" stroke="#005B9D" stroke-width="2.25" stroke-miterlimit="10" stroke-linecap="round"/>
<path d="M130.457 36.2155H341.49" stroke="#005B9D" stroke-width="2.25" stroke-miterlimit="10" stroke-linecap="round"/>
<path d="M324.808 179.754V154.36C324.808 153.561 324.16 152.912 323.359 152.912H287.523C286.723 152.912 286.074 153.561 286.074 154.36V179.754C286.074 180.555 285.425 181.203 284.625 181.203H276.091C275.291 181.203 274.642 181.852 274.642 182.652C274.642 183.452 275.291 184.101 276.091 184.101H286.074H324.808H334.791C335.591 184.101 336.24 183.452 336.24 182.652C336.24 181.852 335.591 181.203 334.791 181.203H326.258C325.457 181.203 324.808 180.555 324.808 179.754Z" fill="#96C9FE"/>
<path d="M266.519 169.09H283.736C286.481 169.09 288.706 166.866 288.706 164.121V151.995C288.706 149.251 290.931 147.027 293.675 147.027H326.104" stroke="white" stroke-width="0.75" stroke-miterlimit="10" stroke-linecap="round"/>
<path d="M412.508 128.69V203.155C412.508 203.863 411.933 204.437 411.225 204.437H407.609C406.9 204.437 406.326 203.863 406.326 203.155V128.69C406.326 127.981 406.9 127.406 407.609 127.406H411.225C411.933 127.406 412.508 127.981 412.508 128.69Z" stroke="#333333" stroke-width="0.75" stroke-miterlimit="10"/>
<path d="M209.381 227.825V311.885C209.381 313.91 207.997 315.551 206.29 315.551C204.583 315.551 203.199 313.91 203.199 311.885V227.825C203.199 225.799 204.583 224.158 206.29 224.158C207.997 224.158 209.381 225.799 209.381 227.825Z" stroke="#333333" stroke-width="0.75" stroke-miterlimit="10"/>
<path d="M431.9 180.396H355.935C349.367 180.396 344.042 175.072 344.042 168.505C344.042 161.938 349.367 156.615 355.935 156.615H431.9C438.468 156.615 443.793 161.938 443.793 168.505C443.793 175.072 438.468 180.396 431.9 180.396Z" stroke="white" stroke-width="0.75" stroke-miterlimit="10"/>
<path d="M258.728 280.392H182.763C176.194 280.392 170.87 275.069 170.87 268.502C170.87 261.936 176.194 256.612 182.763 256.612H258.728C265.296 256.612 270.621 261.936 270.621 268.502C270.621 275.069 265.296 280.392 258.728 280.392Z" fill="#333333" fill-opacity="0.28"/>
<path d="M451.559 424.116C445.708 426.704 436.515 429.983 425.057 430.604C403.057 431.796 397.481 421.842 375.297 418.709C347.781 414.822 344.845 428.511 312.016 425.197C293.694 423.347 290.599 418.68 275.237 419.249C255.189 419.993 247.001 429.329 231.968 433.849C217.452 438.213 195.437 438.887 163.104 421.678" stroke="#005B9D" stroke-width="1.5" stroke-miterlimit="10"/>
<path d="M77.2288 292.328V303.754L569.625 302.554V308.806" stroke="#FFE458" stroke-width="0.685223" stroke-miterlimit="10" stroke-dasharray="5.48 5.48"/>
<path d="M77.2288 254.786V276.72" stroke="#005B9D" stroke-width="0.685223" stroke-miterlimit="10" stroke-dasharray="5.48 5.48"/>
<path d="M77.2879 257.526C78.801 257.526 80.0283 256.3 80.0283 254.787C80.0283 253.274 78.801 252.048 77.2879 252.048C75.7747 252.048 74.5483 253.274 74.5483 254.787C74.5483 256.3 75.7747 257.526 77.2879 257.526Z" fill="#96C9FE"/>
<path d="M569.67 317.815C571.799 317.815 573.524 316.09 573.524 313.963C573.524 311.835 571.799 310.11 569.67 310.11C567.542 310.11 565.816 311.835 565.816 313.963C565.816 316.09 567.542 317.815 569.67 317.815Z" fill="#96C9FE"/>
<path d="M40.2773 280.393H85.4286" stroke="#005B9D" stroke-width="1.5" stroke-miterlimit="10"/>
<path d="M40.2773 284.914H85.4286" stroke="#005B9D" stroke-width="1.5" stroke-miterlimit="10"/>
<path d="M40.2773 289.434H85.4286" stroke="#005B9D" stroke-width="1.5" stroke-miterlimit="10"/>
<path d="M532.695 339.101H577.847" stroke="#005B9D" stroke-width="0.75" stroke-miterlimit="10"/>
<path d="M532.695 343.622H577.847" stroke="#005B9D" stroke-width="0.75" stroke-miterlimit="10"/>
<path d="M532.695 348.143H577.847" stroke="#005B9D" stroke-width="0.75" stroke-miterlimit="10"/>
<path d="M532.655 295.288V332.636H606.682V295.288H532.655Z" stroke="#005B9D" stroke-width="0.75" stroke-miterlimit="10"/>
</g>
<defs>
<clipPath id="clip0">
<rect width="612" height="450" fill="white"/>
</clipPath>
</defs>
</svg>
