<svg viewBox="0 0 320 240" fill="none" xmlns="http://www.w3.org/2000/svg">
<g clip-path="url(#clip0)">
<path d="M292.364 164.331C292.45 164.463 292.364 164.595 292.235 164.595C290.432 164.419 282.274 163.495 284.507 160.195C286.739 156.895 291.333 162.923 292.364 164.331Z" stroke="#FFE458" stroke-width="0.75" stroke-miterlimit="10"/>
<path d="M292.321 164.55C292.235 164.506 292.149 164.55 292.149 164.682C292.364 165.914 293.394 171.458 295.412 169.742C297.473 167.982 293.308 165.166 292.321 164.55Z" stroke="#FFE458" stroke-width="0.75" stroke-miterlimit="10"/>
<path d="M5.09644 240.186C104.916 241.198 209.287 241.858 209.33 240.186C209.373 238.866 145.574 236.798 145.402 230.594C145.274 226.458 173.567 222.674 173.266 219.594C172.88 216.03 134.412 219.154 133.381 213.082C132.78 209.43 146.089 205.206 145.445 202.742C144.243 198.122 95.8145 208.682 94.3548 203.402C93.6249 200.762 105.56 196.758 104.873 193.062C104.144 189.014 88.6876 189.102 63.2281 188.794C26.7778 188.354 10.4631 187.606 10.1626 190.158C9.8191 193.194 32.7454 197.418 32.3161 200.938C31.8868 204.194 12.0946 203.314 11.9228 205.426C11.7082 208.418 51.5932 212.994 51.3785 216.426C51.2497 218.538 36.0942 218.802 36.0513 220.694C36.0084 222.938 57.475 223.642 57.7756 226.766C57.9473 229.318 43.994 233.498 5.09644 240.186Z" fill="#53D084"/>
<path d="M238.697 63.7897L240.071 74.5697L244.751 79.1457H249.216L258.876 75.7137L253.423 62.2937L251.62 58.5977L247.928 59.3017L238.697 63.7897Z" fill="#EFD8C3"/>
<path d="M294.682 53.7144C294.682 53.7144 294.725 53.0104 294.596 52.2184C293.866 47.9504 291.805 46.8944 292.235 45.1344C292.621 43.5944 294.854 42.3624 296.485 42.3184C298.074 42.3184 300.435 43.8144 300.735 45.3544C301.122 47.3344 298.718 48.5664 298.46 52.2624C298.374 53.1864 298.245 53.7144 298.245 53.7144H294.682Z" fill="#305EED"/>
<path d="M296.915 55.5181H295.97C295.755 55.5181 295.627 55.3421 295.627 55.0781L295.412 53.5381H297.43L297.258 55.0781C297.258 55.2981 297.129 55.5181 296.915 55.5181Z" fill="#B6D9FF"/>
<path d="M297.516 54.9898H295.369C294.94 54.9898 294.553 54.7258 294.553 54.3738L294.596 52.1738L298.331 52.2618L298.289 54.3738C298.331 54.7258 297.945 54.9898 297.516 54.9898Z" fill="#305EED"/>
<path d="M272.185 53.2305L265.444 65.9025L278.753 59.9185C278.796 59.9185 274.503 59.0385 272.185 53.2305Z" fill="#305EED"/>
<path d="M240.672 125.434C240.672 125.434 237.237 124.51 236.507 124.862C235.777 125.214 233.803 127.458 233.803 127.458L236.894 128.338L240.672 125.434Z" fill="#53D084"/>
<path d="M206.926 126.886L204.908 119.979L227.062 114.391L234.575 90.8945L241.616 95.8225L233.588 120.022C233.416 120.638 232.944 121.123 232.3 121.299L206.926 126.886Z" fill="#E5C9AF"/>
<path d="M241.144 102.026L240.5 105.546C240.457 105.722 240.285 105.854 240.114 105.81L229.166 103.742C228.994 103.698 228.865 103.522 228.908 103.302L233.76 88.3857C233.845 88.1217 235.262 87.3737 235.391 87.5937L241.659 100.97C242.132 100.178 241.144 101.982 241.144 102.026Z" fill="#305EED"/>
<path d="M238.568 126.622C238.568 126.622 233.244 125.082 233.029 127.986C232.901 129.702 238.224 127.59 238.224 127.59L238.568 126.622Z" fill="#305EED"/>
<path d="M278.324 230.461L274.589 230.153L273.688 222.629L277.294 222.277L278.324 230.461Z" fill="#EFD8C3"/>
<path d="M274.417 228.483C274.417 228.483 275.147 229.979 276.435 229.935C277.723 229.891 278.024 228.263 278.024 228.263C278.024 228.263 279.312 230.111 279.355 231.387C279.355 231.827 279.312 232.619 279.312 232.927C279.269 233.499 277.981 233.411 277.465 233.411L260.335 233.631C259.777 233.631 259.391 233.103 259.519 232.575C259.648 232.003 259.949 231.387 260.593 231.299C261.795 231.123 274.417 228.483 274.417 228.483Z" fill="#305EED"/>
<path d="M260.121 234.245L278.968 234.157C279.183 234.157 279.355 234.333 279.312 234.553L279.269 235.169C279.269 235.389 279.097 235.521 278.883 235.521L260.078 234.993C259.863 234.993 259.734 234.817 259.734 234.597C259.734 234.377 259.906 234.201 260.121 234.245Z" fill="#B6D9FF"/>
<path d="M272.829 229.098C272.915 229.186 272.829 229.318 272.744 229.318C271.627 229.274 267.892 229.054 268.15 228.086C268.45 226.986 271.198 227.426 272.829 229.098Z" stroke="#005B9D" stroke-width="0.75" stroke-miterlimit="10"/>
<path d="M273.172 228.746C273.087 228.966 272.829 229.01 272.7 228.834C272.013 227.91 270.425 225.622 271.326 225.534C272.4 225.446 273.902 226.81 273.172 228.746Z" stroke="#005B9D" stroke-width="0.75" stroke-miterlimit="10"/>
<path d="M258.486 218.194L254.896 218.547L255.556 225.599L259.146 225.246L258.486 218.194Z" fill="#E5C9AF"/>
<path d="M255.699 78.75L275.706 85.35L277.466 86.758C277.466 86.758 279.226 114.434 271.369 117.118C266.99 118.658 260.937 119.406 256.429 119.846C252.779 120.154 249.302 118.218 247.627 114.874L234.189 88.034L255.699 78.75Z" fill="#305EED"/>
<path d="M254.625 119.89L272.528 117.162C272.528 117.162 283.691 127.854 283.862 134.234C284.034 140.658 275.319 177.354 275.319 177.354L280.514 224.962H270.982L264.8 175.814L264.542 141.45L258.017 177.75L260.936 220.474L252.435 220.958L248.056 171.238C248.056 171.238 246.425 137.05 248.056 133.002C249.688 128.998 254.625 119.89 254.625 119.89Z" fill="#B6D9FF"/>
<path d="M250.417 77.7824C250.417 77.7824 251.405 82.5344 250.331 84.3824C249.473 85.8784 252.607 88.9144 255.269 87.4624C259.09 85.4384 258.574 82.6664 258.574 82.6664L255.87 76.0664L250.417 77.7824Z" fill="#E6C9AF"/>
<path d="M245.18 131.462L243.591 126.402L266.346 116.546L267.977 96.7021L277.723 97.0541L273.73 119.89C272.786 122.618 245.18 131.462 245.18 131.462Z" fill="#EFD8C3"/>
<path d="M266.861 91.7745L266.604 99.9145L278.239 100.794C278.239 100.794 279.913 91.9065 278.153 87.6825C277.552 86.2745 275.663 85.1305 274.16 85.3505L272.056 85.7025C269.137 86.1865 266.947 88.7385 266.861 91.7745Z" fill="#B6D9FF" stroke="#78D2EE" stroke-width="0.75" stroke-miterlimit="10" stroke-linecap="round"/>
<path d="M255.399 224.083C255.399 224.083 256.214 225.535 257.502 225.403C258.79 225.271 258.962 223.643 258.962 223.643C258.962 223.643 260.379 225.403 260.508 226.679C260.551 227.075 260.551 227.911 260.551 228.219C260.551 228.791 259.263 228.791 258.747 228.835L242.647 229.099C242.089 229.143 241.66 228.615 241.746 228.087C241.832 227.515 242.089 226.855 242.733 226.723C243.935 226.459 255.399 224.083 255.399 224.083Z" fill="#305EED"/>
<path d="M242.475 229.67L260.336 229.45C260.55 229.45 260.722 229.626 260.722 229.802V230.418C260.722 230.638 260.55 230.77 260.378 230.77L242.518 230.374C242.304 230.374 242.175 230.198 242.175 230.022C242.132 229.846 242.261 229.67 242.475 229.67Z" fill="#B6D9FF"/>
<path d="M254.325 224.258C254.411 224.39 254.325 224.566 254.196 224.566C252.951 224.478 249.001 224.17 249.387 223.246C249.774 222.19 252.865 222.498 254.325 224.258Z" stroke="#005B9D" stroke-width="0.75" stroke-miterlimit="10"/>
<path d="M254.797 224.126C254.797 224.346 254.539 224.434 254.367 224.302C253.466 223.598 251.319 221.838 252.178 221.486C253.165 221.134 254.969 222.014 254.797 224.126Z" stroke="#005B9D" stroke-width="0.75" stroke-miterlimit="10"/>
<path d="M205.467 120.242C205.467 120.242 200.272 119.626 198.898 119.89C197.524 120.154 195.377 122.53 195.377 122.53C195.377 122.53 195.377 128.866 197.266 129.702C199.155 130.538 206.969 126.93 206.969 126.93L205.467 120.242Z" fill="#E5C9AF"/>
<path d="M238.096 62.8223L239.298 83.9423L250.718 79.6743C250.718 79.6743 250.589 78.2223 250.418 77.7383C248.7 78.3543 248.185 78.7063 246.682 77.8263C245.18 76.9463 243.119 74.8783 241.788 72.7223C237.924 66.3423 240.414 62.7783 240.414 62.7783H238.096V62.8223Z" fill="#B6D9FF"/>
<path d="M243.076 68.8936C243.076 68.8936 242.99 73.4696 243.677 73.4696C244.321 73.4696 245.394 73.2496 245.394 73.2496" stroke="#231F20" stroke-width="0.75" stroke-miterlimit="10" stroke-linecap="round"/>
<path d="M245.051 75.4056C245.051 75.4056 245.952 76.2856 246.811 75.1416" stroke="#231F20" stroke-width="0.75" stroke-miterlimit="10" stroke-linecap="round"/>
<path d="M249.344 65.2418L236.335 67.1338C236.335 67.1338 235.906 52.9218 244.321 51.5138C250.546 50.4578 253.552 52.1298 253.552 52.1298C253.552 52.1298 258.403 48.5658 262.181 55.6498C266.002 62.7778 262.739 75.3178 266.861 77.8698L256.815 79.2338C253.723 79.6738 250.89 77.4298 250.46 74.2618L249.344 65.2418Z" fill="#B6D9FF"/>
<path d="M273.258 125.83C273.258 125.83 273.043 133.398 276.177 134.542C279.312 135.73 282.188 132.958 282.188 132.958" stroke="#FFE458" stroke-width="0.75" stroke-miterlimit="10"/>
<path d="M277.68 134.85L271.712 174.626L276.435 222.366" stroke="#FFE458" stroke-width="0.75" stroke-miterlimit="10"/>
<path d="M260.078 81.3018C260.078 81.3018 261.409 82.0498 261.065 84.9978C260.636 88.6937 255.312 92.1697 255.312 92.1697L253.552 88.2097C253.552 88.2537 261.108 85.8778 260.078 81.3018Z" fill="#B6D9FF"/>
<path d="M250.804 80.7744C250.804 80.7744 249.516 81.9624 249.344 82.2704C247.112 86.2304 250.461 90.5864 250.461 90.5864L251.233 86.4504C251.233 86.4504 250.718 85.3504 250.804 80.7744Z" fill="#B6D9FF"/>
<path d="M260.893 83.6783L260.378 81.6543C260.335 81.5223 260.249 81.3903 260.163 81.3023L257.587 80.0703C257.587 80.0703 258.918 82.6223 258.575 83.7663C257.544 87.3303 253.423 87.6823 253.466 87.9903C253.509 88.2983 255.269 90.5423 255.269 90.5423C255.269 90.5423 255.913 90.6743 257.888 88.9143C259.906 87.1543 260.464 84.6463 260.464 84.6463L260.893 83.6783Z" fill="#B6D9FF"/>
<path d="M252.478 87.5498C252.693 87.5938 252.478 88.3858 252.435 88.4738C252.006 89.3098 250.632 91.6418 250.632 91.6418C249.731 90.3218 249.258 88.2538 248.915 86.5378L250.632 84.3818C250.503 84.7778 251.405 87.3738 252.478 87.5498Z" fill="#B6D9FF"/>
<path d="M294.252 114.522C295.319 114.522 296.184 113.635 296.184 112.542C296.184 111.448 295.319 110.562 294.252 110.562C293.186 110.562 292.32 111.448 292.32 112.542C292.32 113.635 293.186 114.522 294.252 114.522Z" fill="#B6D9FF"/>
<path d="M174.984 37.17C176.051 37.17 176.916 36.2834 176.916 35.19C176.916 34.0966 176.051 33.21 174.984 33.21C173.917 33.21 173.052 34.0966 173.052 35.19C173.052 36.2834 173.917 37.17 174.984 37.17Z" fill="#B6D9FF"/>
<path d="M274.718 2.71781C275.785 2.71781 276.65 1.8313 276.65 0.737813C276.65 -0.35572 275.785 -1.24219 274.718 -1.24219C273.651 -1.24219 272.786 -0.35572 272.786 0.737813C272.786 1.8313 273.651 2.71781 274.718 2.71781Z" fill="#B6D9FF"/>
<path d="M21.4969 76.5059C22.5639 76.5059 23.4289 75.6193 23.4289 74.5259C23.4289 73.4325 22.5639 72.5459 21.4969 72.5459C20.4299 72.5459 19.5649 73.4325 19.5649 74.5259C19.5649 75.6193 20.4299 76.5059 21.4969 76.5059Z" stroke="#414042" stroke-width="0.75" stroke-miterlimit="10"/>
<path d="M102.212 50.7657C103.279 50.7657 104.144 49.8791 104.144 48.7857C104.144 47.6923 103.279 46.8057 102.212 46.8057C101.145 46.8057 100.28 47.6923 100.28 48.7857C100.28 49.8791 101.145 50.7657 102.212 50.7657Z" stroke="#414042" stroke-width="0.75" stroke-miterlimit="10"/>
<path d="M90.3189 31.4502L85.8109 39.9422L95.2133 34.8382C95.2133 34.8382 92.2079 34.2222 90.3189 31.4502Z" fill="#305EED"/>
<path d="M294.252 46.0137C294.252 46.0137 295.884 50.6777 295.927 51.7777H297.043C297.043 51.7777 297.043 47.5537 298.503 46.0137" stroke="#005B9D" stroke-width="0.5625" stroke-miterlimit="10" stroke-linecap="round"/>
<path d="M104.187 26.7418C104.187 26.7418 104.831 24.4098 106.505 24.7618C108.18 25.1138 108.695 26.3458 108.137 27.2258C107.707 27.8858 106.248 28.6338 106.505 30.1738" stroke="#FFE458" stroke-width="2.25" stroke-miterlimit="10" stroke-linecap="round"/>
<path d="M106.805 33.6495C107.256 33.6495 107.621 33.2751 107.621 32.8135C107.621 32.352 107.256 31.9775 106.805 31.9775C106.355 31.9775 105.99 32.352 105.99 32.8135C105.99 33.2751 106.355 33.6495 106.805 33.6495Z" fill="#305EED"/>
<path d="M309.58 53.0098C309.58 62.6458 273.301 66.9138 272.185 52.5698C271.455 42.9778 280.342 34.8818 291.591 34.8818C302.839 34.8818 309.58 43.3738 309.58 53.0098Z" stroke="#414042" stroke-width="0.75" stroke-miterlimit="10"/>
<path d="M279.183 45.178C281.372 32.154 318.724 40.822 317.136 50.326C315.547 59.83 307.433 67.838 296.356 65.902C285.279 63.966 277.594 54.682 279.183 45.178Z" stroke="#414042" stroke-width="0.75" stroke-miterlimit="10"/>
<path d="M293.437 46.7617C293.437 46.7617 294.467 47.7737 295.154 47.2457C295.841 46.7177 295.97 45.7497 295.541 45.6617C295.154 45.5737 294.811 47.0697 296.356 47.2457C297.902 47.4217 297.773 44.8257 297.172 44.6497C296.571 44.4737 296.357 46.2777 298.589 47.1137" stroke="#005B9D" stroke-width="0.5625" stroke-miterlimit="10" stroke-linecap="round"/>
<path d="M134.927 86.7578L136.945 102.466L146.648 101.014L134.927 86.7578Z" fill="#B6D9FF"/>
<path d="M197.309 191.478L180.222 189.982L179.449 201.07L197.309 191.478Z" fill="#53D084"/>
<path d="M19.522 8.52637L2.60623 11.3864L4.4953 22.3424L19.522 8.52637Z" fill="#414042"/>
<path d="M62.2406 4.52246H57.2174V9.67047H62.2406V4.52246Z" fill="#305EED"/>
<path d="M213.796 162.13H206.926V169.17H213.796V162.13Z" stroke="#FFE458" stroke-width="0.75" stroke-miterlimit="10"/>
<path d="M309.244 186.333L300.359 191.591L305.489 200.698L314.375 195.44L309.244 186.333Z" fill="#F0F1F1"/>
<path d="M102.727 83.5463C103.285 82.5343 103.886 81.3903 104.788 80.6423C105.99 79.6743 108.351 78.1783 109.725 79.1023C110.798 79.8503 108.008 81.9184 107.578 82.4024C106.805 84.2064 107.535 86.4064 108.695 87.4624C109.553 88.2544 110.068 88.5184 110.927 88.6504C108.823 89.7064 106.848 90.4984 104.487 90.6304C103.843 88.2984 103.285 85.9223 102.727 83.5463Z" fill="#E5C9AF"/>
<path d="M83.7505 199.398C84.4374 199.354 89.0313 200.322 88.7307 198.738C88.4302 197.11 84.3945 198.166 83.7505 199.398Z" stroke="#005B9D" stroke-width="0.75" stroke-miterlimit="10"/>
<path d="M84.1804 199.75C84.3521 199.354 87.1857 196.494 85.7689 196.186C84.3521 195.878 83.2359 198.386 84.1804 199.75Z" stroke="#005B9D" stroke-width="0.75" stroke-miterlimit="10"/>
<path d="M44.1657 207.45C45.3678 207.582 46.57 207.714 47.7721 207.846C48.0297 205.47 48.2873 203.094 48.5449 200.718C47.3428 200.586 46.1406 200.454 44.9385 200.322C44.6809 202.698 44.4233 205.074 44.1657 207.45Z" fill="#EFD8C3"/>
<path d="M47.9443 206.35C47.3861 207.054 46.6992 207.714 45.7976 207.582C44.8531 207.45 44.4667 206.658 44.3379 205.822C43.6509 206.746 42.964 207.67 42.7923 208.902C42.7493 209.298 42.6205 210.002 42.7493 210.398C42.964 211.102 43.8656 211.014 44.5525 211.058C50.0909 211.498 56.0157 212.202 61.4683 212.642C62.1552 212.686 62.6704 212.29 62.3269 211.63C61.9835 210.97 62.9709 210.706 61.1677 210.222C57.7331 209.254 51.8941 207.538 47.9443 206.35Z" fill="#305EED"/>
<path d="M61.683 213.302C55.4576 212.818 49.1893 212.158 42.964 211.674C42.7064 211.674 42.6205 211.85 42.5776 212.026C42.5347 212.246 42.5347 212.466 42.5776 212.686C42.5776 212.906 42.6635 213.038 42.9211 213.082C49.1464 213.346 55.4576 213.786 61.64 214.05C61.8976 214.05 62.0264 213.874 62.0264 213.698C62.0694 213.698 62.0264 213.698 62.0264 213.698C62.0264 213.478 61.9406 213.346 61.683 213.302Z" fill="#B6D9FF"/>
<path d="M48.8028 206.878C48.7598 206.922 48.8028 207.054 48.8457 207.054C49.5756 207.054 54.0836 207.89 53.7401 206.306C53.4396 204.766 49.6185 205.778 48.8028 206.878Z" stroke="#005B9D" stroke-width="0.75" stroke-miterlimit="10"/>
<path d="M48.5025 206.878C48.5454 206.966 48.7172 206.966 48.7601 206.922C49.0177 206.526 52.023 203.578 50.6062 203.314C49.2324 203.05 47.8156 205.338 48.5025 206.878Z" stroke="#005B9D" stroke-width="0.75" stroke-miterlimit="10"/>
<path d="M79.1563 199.794C80.3584 199.926 81.5606 200.058 82.7627 200.19C83.0633 197.77 83.4067 195.35 83.7502 192.93C82.5481 192.798 81.3889 192.622 80.1867 192.49C79.8862 194.954 79.4998 197.374 79.1563 199.794Z" fill="#EFD8C3"/>
<path d="M82.9776 198.694C82.4195 199.398 81.7325 200.058 80.788 199.926C79.8435 199.794 79.4571 199.002 79.3283 198.122C78.5984 199.046 77.9115 199.97 77.6968 201.202C77.6539 201.598 77.5251 202.302 77.6539 202.698C77.8685 203.402 78.7701 203.314 79.4571 203.358C85.0384 203.842 91.0061 204.546 96.5445 204.986C97.2314 205.03 97.7466 204.634 97.4032 203.974C97.0597 203.314 98.0042 203.05 96.201 202.566C92.7664 201.686 86.9274 199.97 82.9776 198.694Z" fill="#B6D9FF"/>
<path d="M96.8019 205.734C90.5336 205.206 84.1795 204.59 77.9112 204.062C77.6536 204.018 77.5677 204.194 77.5248 204.414C77.4819 204.634 77.4819 204.854 77.5248 205.074C77.5248 205.294 77.6107 205.426 77.8683 205.47C84.1365 205.734 90.5336 206.218 96.8019 206.482C97.0595 206.482 97.1883 206.306 97.1883 206.13C97.2312 206.13 97.1883 206.13 97.1883 206.13C97.1453 205.866 97.0595 205.734 96.8019 205.734Z" fill="#B6D9FF"/>
<path d="M45.5395 109.858C45.2819 112.41 44.3803 122.134 44.6379 123.542C47.0851 136.39 49.0171 146.598 50.8633 158.698C47.3857 173.086 44.9384 187.958 42.019 202.522C45.0672 202.522 47.8579 202.698 51.0779 202.566C54.9419 189.41 61.0385 173.746 64.7307 161.338C68.423 148.93 68.0795 140.702 69.8398 128.822C71.2995 129.482 72.9739 130.318 74.6912 130.45C75.6358 140.35 78.1688 142.594 78.5553 154.21C78.9417 165.826 78.2547 182.766 77.3102 195.702C79.8432 196.054 82.591 195.482 85.2099 195.482C88.9881 179.202 92.0793 162.966 94.0112 146.334C87.9576 134.586 80.1867 124.158 74.3048 111.926C74.0902 109.902 73.8755 107.878 73.6608 105.81C64.3014 107.218 55.0278 108.626 45.5395 109.858Z" fill="#305EED"/>
<path d="M79.7148 153.374C75.9366 147.258 71.6004 142.462 68.1228 136.258C66.7918 127.854 65.5897 119.45 64.4305 111.046C66.062 111.002 67.6934 110.914 69.3249 110.826C73.1031 119.89 77.4393 128.734 82.7631 136.918C82.4196 142.022 80.3588 148.358 79.7148 153.374Z" fill="#305EED"/>
<path d="M79.7145 153.374C75.9363 147.258 68.7227 137.483 68.7227 137.483V124.215C68.7227 124.215 80.7801 129.703 82.7627 136.918C83.7541 140.526 83.4196 143.593 82.7627 146.516C82.1389 149.29 80.0279 150.932 79.7145 153.374Z" fill="black" fill-opacity="0.1"/>
<path d="M73.704 83.1943C72.6307 77.1223 71.6003 67.3983 69.2389 60.4463C72.8883 62.2943 76.4947 61.4143 79.3283 65.2423C83.3211 70.6103 81.3032 80.1143 84.3085 84.9543C90.1904 83.9423 96.1581 83.1943 102.04 82.0943C102.813 85.3943 103.757 88.3863 104.487 91.8623C97.7037 94.6783 88.6448 98.2863 82.3765 98.2423C76.1082 98.1543 74.7773 89.2663 73.704 83.1943Z" stroke="#231F20" stroke-width="0.75" stroke-miterlimit="10" stroke-linecap="round"/>
<path d="M80.2299 105.502C79.3283 104.842 79.543 103.214 80.7881 103.742C82.4195 104.446 84.695 104.842 86.1547 106.338C87.0134 107.218 84.6091 107.526 83.8363 107.218C82.8918 106.822 81.0027 106.118 80.2299 105.502Z" fill="#B6D9FF"/>
<path d="M79.6716 65.3738C79.5858 64.3178 79.0276 63.3498 78.169 62.7778C74.906 60.5338 69.3677 59.1698 66.3623 58.6858C61.2103 57.8938 60.5663 57.6738 55.629 58.8178C53.5682 59.3018 50.5199 60.9298 48.2445 62.0738C46.7847 62.8218 45.0674 63.6578 43.7365 64.9778C43.7365 64.8458 43.7365 64.9778 43.7365 64.9778C39.8725 68.8938 39.529 73.8658 39.8725 79.2338C40.3447 86.9778 40.6453 94.7658 41.0317 102.422C41.0746 103.302 41.2893 103.566 41.6327 104.358C41.6757 106.294 41.5898 109.99 41.6757 111.574C41.7186 113.158 42.7919 114.258 44.2946 113.994C52.3231 112.542 69.6253 116.018 75.4642 113.51C82.3765 110.474 80.4874 74.7018 79.6716 65.3738Z" fill="#B6D9FF"/>
<path d="M77.1815 102.378C78.6412 101.85 80.4873 100.75 82.0329 100.97C83.1063 101.146 83.7074 102.246 84.566 102.818C84.8236 102.994 84.0508 103.654 83.7074 103.61C83.1492 103.522 82.4623 103.17 81.99 102.73C81.4319 103.126 80.8737 103.522 80.3585 103.918C79.3281 103.434 78.2548 102.95 77.1815 102.378Z" fill="#305EED"/>
<path d="M81.0886 103.874C80.0582 103.126 80.7452 102.334 81.6897 102.466C83.45 102.73 85.2102 102.906 86.67 104.402C87.5286 105.282 85.7254 105.986 84.7809 105.634C83.6217 105.194 81.9902 104.534 81.0886 103.874Z" fill="#53D084"/>
<path d="M58.5915 117.162C58.5486 119.01 57.3465 122.354 55.8009 122.97C53.0961 124.07 51.7222 122.882 49.8331 121.43" stroke="#78D2EE" stroke-width="0.75" stroke-miterlimit="10"/>
<path d="M55.3717 123.454C56.488 135.51 56.8315 147.566 57.5184 159.71C53.6973 173.042 50.7349 186.682 47.429 200.19" stroke="#78D2EE" stroke-width="0.75" stroke-miterlimit="10"/>
<path d="M58.291 49.5781C58.334 53.4061 57.7329 55.2541 57.9046 59.4781C58.0764 63.7021 64.4734 69.2021 68.9385 65.4621C70.57 64.0981 69.5396 59.7861 69.7972 57.9381" fill="#EFD8C3"/>
<path d="M58.291 49.5781C58.334 53.4061 57.7329 55.2541 57.9046 59.4781C58.0764 63.7021 64.4734 69.2021 68.9385 65.4621C70.57 64.0981 69.5396 59.7861 69.7972 57.9381" stroke="#414042" stroke-width="0.75" stroke-miterlimit="10" stroke-linecap="round"/>
<path d="M61.2535 54.4176C62.2409 55.2536 63.2284 56.1776 64.2159 56.9696L64.4305 57.1016C64.4305 57.1016 69.926 59.2576 72.0727 56.4856C74.2193 53.7576 74.6487 46.2776 74.3052 42.6256C74.1335 41.0856 73.7471 40.3816 73.5324 39.0176L62.7561 39.4576L58.0335 40.5136L55.8439 41.5256L57.7621 44.5532L57.3465 45.8376L57.6041 47.5096L58.0335 48.9616" fill="#EFD8C3"/>
<path d="M61.2535 54.4176C62.2409 55.2536 63.2284 56.1776 64.2159 56.9696L64.4305 57.1016C64.4305 57.1016 69.926 59.2576 72.0727 56.4856C74.2193 53.7576 74.6487 46.2776 74.3052 42.6256C74.1335 41.0856 73.7471 40.3816 73.5324 39.0176L62.7561 39.4576L58.0335 40.5136L55.8439 41.5256L57.7621 44.5532L57.3465 45.8376L57.6041 47.5096L58.0335 48.9616" stroke="#414042" stroke-width="0.75" stroke-miterlimit="10" stroke-linecap="round"/>
<path d="M60.6091 52.0419C60.652 52.1299 60.7808 52.1299 60.8667 52.0859C60.9526 52.0419 60.9526 51.9099 60.9096 51.8219C60.8667 51.7339 60.7379 51.7339 60.652 51.7779C60.5661 51.8219 60.5661 51.9539 60.6091 52.0419Z" fill="#231F20"/>
<path d="M60.7813 51.7344C60.7383 51.7344 60.6954 51.7344 60.6954 51.7784C60.6095 51.8224 60.6095 51.9544 60.6525 52.0424C60.6954 52.0864 60.7383 52.1304 60.7813 52.1304C60.8242 52.1304 60.8671 52.1304 60.8671 52.0864C60.953 52.0424 60.953 51.9104 60.9101 51.8224C60.8671 51.7784 60.8242 51.7344 60.7813 51.7344Z" fill="#414042"/>
<path d="M71.5145 55.2104C71.5574 55.2984 71.6862 55.3424 71.7721 55.2544C71.858 55.2104 71.858 55.0784 71.815 54.9904C71.7721 54.9024 71.6433 54.8584 71.5574 54.9464C71.5145 54.9904 71.4716 55.1224 71.5145 55.2104Z" fill="#231F20"/>
<path d="M71.6859 54.9463C71.643 54.9463 71.6001 54.9463 71.6001 54.9903C71.5142 55.0343 71.5142 55.1663 71.5571 55.2543C71.6001 55.2983 71.643 55.3423 71.7289 55.3423C71.7718 55.3423 71.8147 55.3423 71.8147 55.2983C71.9006 55.2543 71.9006 55.1223 71.8577 55.0343C71.8147 54.9463 71.7289 54.9463 71.6859 54.9463Z" fill="#414042"/>
<path d="M62.1117 50.8984C62.1547 50.9864 62.2835 50.9864 62.3693 50.9424C62.4552 50.8984 62.4552 50.7664 62.4123 50.6784C62.3694 50.5904 62.2405 50.5904 62.1547 50.6344C62.1117 50.6784 62.0688 50.8104 62.1117 50.8984Z" fill="#231F20"/>
<path d="M62.284 50.5898C62.2411 50.5898 62.1981 50.5898 62.1981 50.6338C62.1123 50.6778 62.1123 50.8098 62.1552 50.8978C62.1981 50.9418 62.2411 50.9858 62.284 50.9858C62.3269 50.9858 62.3699 50.9858 62.3699 50.9418C62.4557 50.8978 62.4557 50.7658 62.4128 50.6778C62.3699 50.6338 62.3269 50.5898 62.284 50.5898Z" fill="#414042"/>
<path d="M59.8364 49.8857C59.8794 49.9737 60.0082 49.9737 60.0941 49.9297C60.1799 49.8857 60.1799 49.7537 60.137 49.6657C60.0941 49.5777 59.9653 49.5777 59.8794 49.6217C59.7935 49.7097 59.7506 49.8417 59.8364 49.8857Z" fill="#231F20"/>
<path d="M59.9651 49.6221C59.9222 49.6221 59.8793 49.6221 59.8793 49.6661C59.7934 49.7101 59.7934 49.8421 59.8363 49.9301C59.8793 49.9741 59.9222 50.0181 59.9651 50.0181C60.0081 50.0181 60.051 50.0181 60.051 49.9741C60.1369 49.9301 60.1369 49.7981 60.0939 49.7101C60.0939 49.6661 60.051 49.6221 59.9651 49.6221Z" fill="#414042"/>
<path d="M61.6401 53.6259C61.683 53.7139 61.8118 53.7139 61.8977 53.6699C61.9835 53.6259 61.9835 53.4939 61.9406 53.4059C61.8977 53.3179 61.7689 53.3179 61.683 53.3619C61.5971 53.4059 61.5542 53.5379 61.6401 53.6259Z" fill="#231F20"/>
<path d="M61.7684 53.3184C61.7254 53.3184 61.6825 53.3184 61.6825 53.3624C61.5966 53.4064 61.5966 53.5384 61.6396 53.6264C61.6825 53.6704 61.7254 53.7144 61.7684 53.7144C61.8113 53.7144 61.8542 53.7144 61.8542 53.6704C61.9401 53.6264 61.9401 53.4944 61.8972 53.4064C61.8972 53.3624 61.8113 53.3184 61.7684 53.3184Z" fill="#414042"/>
<path d="M62.9276 53.3622C62.9705 53.4502 63.0993 53.4502 63.1852 53.4062C63.2711 53.3622 63.2711 53.2302 63.2281 53.1422C63.1852 53.0542 63.0564 53.0542 62.9705 53.0982C62.8847 53.1422 62.8847 53.2742 62.9276 53.3622Z" fill="#231F20"/>
<path d="M63.0989 53.0537C63.056 53.0537 63.0131 53.0537 63.0131 53.0977C62.9272 53.1417 62.9272 53.2737 62.9701 53.3617C63.0131 53.4057 63.056 53.4497 63.0989 53.4497C63.1419 53.4497 63.1848 53.4497 63.1848 53.4057C63.2707 53.3617 63.2707 53.2297 63.2277 53.1417C63.1848 53.0977 63.1419 53.0537 63.0989 53.0537Z" fill="#414042"/>
<path d="M64.5592 53.538C64.6021 53.626 64.7309 53.626 64.8168 53.582C64.9026 53.538 64.9026 53.406 64.8597 53.318C64.8168 53.23 64.688 53.23 64.6021 53.274C64.5162 53.318 64.4733 53.45 64.5592 53.538Z" fill="#231F20"/>
<path d="M64.6878 53.2744C64.6449 53.2744 64.602 53.2744 64.602 53.3184C64.5161 53.3624 64.5161 53.4944 64.559 53.5824C64.602 53.6264 64.6449 53.6704 64.6878 53.6704C64.7308 53.6704 64.7737 53.6704 64.7737 53.6264C64.8596 53.5824 64.8596 53.4504 64.8166 53.3624C64.8166 53.2744 64.7308 53.2744 64.6878 53.2744Z" fill="#414042"/>
<path d="M63.6578 55.2539C63.7007 55.3419 63.8295 55.3418 63.9154 55.2978C64.0013 55.2538 64.0013 55.1218 63.9584 55.0338C63.9154 54.9458 63.7866 54.9458 63.7007 54.9898C63.6149 55.0778 63.6149 55.2098 63.6578 55.2539Z" fill="#231F20"/>
<path d="M63.8292 54.9902C63.7862 54.9902 63.7433 54.9902 63.7433 55.0342C63.6574 55.0782 63.6574 55.2102 63.7004 55.2982C63.7433 55.3422 63.7862 55.3862 63.8292 55.3862C63.8721 55.3862 63.915 55.3862 63.915 55.3422C64.0009 55.2982 64.0009 55.1662 63.958 55.0782C63.915 55.0342 63.8721 54.9902 63.8292 54.9902Z" fill="#414042"/>
<path d="M70.1831 55.9585C70.2261 56.0465 70.3549 56.0465 70.4407 56.0025C70.5266 55.9585 70.5266 55.8265 70.4837 55.7385C70.4407 55.6504 70.3119 55.6065 70.2261 55.6945C70.1831 55.7385 70.1402 55.8705 70.1831 55.9585Z" fill="#231F20"/>
<path d="M70.3553 55.6504C70.3123 55.6504 70.2694 55.6504 70.2694 55.6944C70.1835 55.7384 70.1835 55.8704 70.2265 55.9584C70.2694 56.0024 70.3123 56.0464 70.3982 56.0464C70.4411 56.0464 70.4841 56.0464 70.4841 56.0024C70.5699 55.9584 70.5699 55.8264 70.527 55.7384C70.4841 55.6944 70.3982 55.6504 70.3553 55.6504Z" fill="#414042"/>
<path d="M67.2637 56.8378C67.3067 56.9258 67.4355 56.9258 67.5213 56.8818C67.6072 56.8378 67.6072 56.7058 67.5643 56.6178C67.5213 56.5298 67.3925 56.5298 67.3067 56.5738C67.2208 56.6618 67.2208 56.7498 67.2637 56.8378Z" fill="#231F20"/>
<path d="M67.3925 56.5742C67.3496 56.5742 67.3067 56.5742 67.3067 56.6182C67.2208 56.6622 67.2208 56.7942 67.2637 56.8822C67.3067 56.9262 67.3496 56.9702 67.3925 56.9702C67.4355 56.9702 67.4784 56.9702 67.4784 56.9262C67.5643 56.8822 67.5643 56.7502 67.5214 56.6622C67.5214 56.5742 67.4784 56.5742 67.3925 56.5742Z" fill="#414042"/>
<path d="M66.792 52.3495C66.8349 52.4375 66.9638 52.4375 67.0496 52.3935C67.1355 52.3495 67.1355 52.2175 67.0926 52.1295C67.0496 52.0415 66.9208 52.0415 66.835 52.0855C66.7491 52.1735 66.7061 52.2615 66.792 52.3495Z" fill="#231F20"/>
<path d="M66.9203 52.0859C66.8774 52.0859 66.8345 52.0859 66.8345 52.1299C66.7486 52.1739 66.7486 52.3059 66.7915 52.3939C66.8345 52.4379 66.8774 52.4819 66.9203 52.4819C66.9633 52.4819 67.0062 52.4819 67.0062 52.4379C67.0921 52.3939 67.0921 52.2619 67.0491 52.1739C67.0491 52.0859 66.9633 52.0859 66.9203 52.0859Z" fill="#414042"/>
<path d="M66.0191 54.6376C66.0621 54.7256 66.1909 54.7256 66.2767 54.6816C66.3626 54.6376 66.3626 54.5056 66.3197 54.4176C66.2767 54.3296 66.1479 54.3296 66.0621 54.3736C65.9762 54.4176 65.9762 54.5496 66.0191 54.6376Z" fill="#231F20"/>
<path d="M66.1479 54.3301C66.105 54.3301 66.0621 54.3301 66.0621 54.3741C65.9762 54.4181 65.9762 54.5501 66.0191 54.6381C66.0621 54.6821 66.105 54.7261 66.1909 54.7261C66.2338 54.7261 66.2767 54.7261 66.2767 54.6821C66.3626 54.6381 66.3626 54.5061 66.3197 54.4181C66.2767 54.3741 66.2338 54.3301 66.1479 54.3301Z" fill="#414042"/>
<path d="M72.9311 51.8657C72.974 51.9537 73.1028 51.9977 73.1887 51.9097C73.2745 51.8657 73.2745 51.7337 73.2316 51.6457C73.1887 51.5577 73.0599 51.5137 72.974 51.6017C72.8882 51.6897 72.8452 51.7777 72.9311 51.8657Z" fill="#231F20"/>
<path d="M73.0597 51.6016C73.0168 51.6016 72.9739 51.6016 72.9739 51.6456C72.888 51.6896 72.888 51.8216 72.9309 51.9096C72.9739 51.9536 73.0168 51.9976 73.1027 51.9976C73.1456 51.9976 73.1885 51.9976 73.1885 51.9536C73.2744 51.9096 73.2744 51.7776 73.2315 51.6896C73.1885 51.6016 73.1027 51.6016 73.0597 51.6016Z" fill="#414042"/>
<path d="M70.3976 52.5703C70.4405 52.6583 70.5693 52.6583 70.6552 52.6143C70.741 52.5703 70.741 52.4383 70.6981 52.3502C70.6552 52.2622 70.5264 52.2622 70.4405 52.3062C70.3546 52.3942 70.3117 52.4823 70.3976 52.5703Z" fill="#231F20"/>
<path d="M70.5266 52.3057C70.4837 52.3057 70.4407 52.3057 70.4407 52.3497C70.3549 52.3937 70.3549 52.5257 70.3978 52.6137C70.4407 52.6577 70.4837 52.7017 70.5266 52.7017C70.5695 52.7017 70.6125 52.7017 70.6125 52.6577C70.6983 52.6137 70.6983 52.4817 70.6554 52.3937C70.6554 52.3057 70.5695 52.3057 70.5266 52.3057Z" fill="#414042"/>
<path d="M68.8098 55.8696C68.8527 55.9576 68.9815 56.0016 69.0674 55.9136C69.1532 55.8696 69.1532 55.7376 69.1103 55.6496C69.0674 55.5616 68.9386 55.5176 68.8527 55.6056C68.7668 55.6936 68.7668 55.7816 68.8098 55.8696Z" fill="#231F20"/>
<path d="M68.9812 55.6064C68.9383 55.6064 68.8954 55.6064 68.8954 55.6504C68.8095 55.6944 68.8095 55.8264 68.8524 55.9144C68.8954 55.9584 68.9383 56.0024 69.0242 56.0024C69.0671 56.0024 69.11 56.0024 69.11 55.9584C69.1959 55.9144 69.1959 55.7824 69.153 55.6944C69.0671 55.6504 69.0241 55.6064 68.9812 55.6064Z" fill="#414042"/>
<path d="M72.287 53.2739C72.33 53.3619 72.4588 53.4059 72.5446 53.3179C72.6305 53.2299 72.6305 53.1419 72.5876 53.0539C72.5446 52.9659 72.4158 52.9219 72.33 53.0099C72.2441 53.0979 72.2012 53.1859 72.287 53.2739Z" fill="#231F20"/>
<path d="M72.4158 53.0098C72.3729 53.0098 72.3299 53.0098 72.3299 53.0538C72.2441 53.0978 72.2441 53.2298 72.287 53.3178C72.3299 53.3618 72.3729 53.4058 72.4587 53.4058C72.5017 53.4058 72.5446 53.4058 72.5446 53.3618C72.6305 53.3178 72.6305 53.1858 72.5875 53.0978C72.5446 53.0098 72.4587 53.0098 72.4158 53.0098Z" fill="#414042"/>
<path d="M65.0309 56.3105C65.0738 56.3985 65.2026 56.3985 65.2885 56.3545C65.3744 56.3105 65.3744 56.1785 65.3314 56.0905C65.2885 56.0025 65.1597 56.0025 65.0738 56.0465C64.988 56.1345 64.945 56.2225 65.0309 56.3105Z" fill="#231F20"/>
<path d="M65.1599 56.0459C65.117 56.0459 65.0741 56.0459 65.0741 56.0899C64.9882 56.1339 64.9882 56.2659 65.0311 56.3539C65.0741 56.3979 65.117 56.4419 65.1599 56.4419C65.2029 56.4419 65.2458 56.4419 65.2458 56.3979C65.3317 56.3539 65.3317 56.2219 65.2887 56.1339C65.2887 56.0459 65.2029 56.0459 65.1599 56.0459Z" fill="#414042"/>
<path d="M69.9689 59.9178C68.1227 60.4018 64.1729 60.3138 62.9278 59.1258C61.2963 57.5858 61.9833 56.2218 61.2534 54.5498C61.7686 55.0338 62.4126 55.3418 62.8419 55.8698C63.2713 56.3978 63.9582 57.1458 64.5593 57.2778C65.6755 57.4978 66.1908 57.4538 67.307 57.5858C68.0798 57.6738 69.0243 57.9378 69.8401 57.7178C69.883 58.4658 69.9689 59.2138 69.9689 59.9178Z" fill="#414042"/>
<path d="M52.1087 35.6736C52.8815 37.7856 53.0961 37.1256 53.7831 38.7096C53.3537 40.3816 53.7831 41.7896 55.5004 42.4496C56.3161 42.8456 57.1319 43.2416 57.9476 43.6376C58.2481 44.6056 58.5916 45.6616 58.978 46.5856C59.1497 47.0256 59.622 46.8496 59.7508 46.5856C60.266 45.4856 61.3823 42.6696 61.6399 42.0096C61.8975 41.3496 61.7257 41.8336 61.7257 41.7896C62.3268 41.0416 64.6452 41.1736 65.2033 41.2176C67.7793 41.3936 70.6988 41.9216 72.9743 40.9536C73.1889 40.8656 73.1031 40.8216 73.1889 40.7776C73.6183 40.6896 74.0047 40.3816 74.2193 41.1736C74.434 41.9656 74.4769 43.5056 74.6487 44.3856C74.4769 44.8696 75.0351 44.4296 75.0351 44.2536C75.722 42.6696 76.366 35.4096 74.9063 35.0576C73.4465 34.7056 73.4895 35.0136 73.4465 34.3096C73.146 30.9656 71.1281 30.1736 68.2945 29.9096C67.9081 29.8656 67.2212 29.9536 66.6631 29.8656C63.2284 29.4256 58.5057 28.8536 56.1873 25.9056C56.0585 27.4016 55.9727 28.8536 55.8439 30.3496C53.7831 29.4256 52.8385 27.5336 51.8511 25.6416C51.5076 28.3256 51.3359 33.6056 52.1087 35.6736Z" fill="#B6D9FF"/>
<path d="M55.5864 41.1738C52.5382 42.8898 54.9854 47.2898 55.9728 48.5218C57.2179 50.1498 56.5739 51.8658 57.9478 51.6458C58.3771 51.5578 58.5918 50.2818 58.5918 49.7538C58.5918 49.0058 58.463 48.0378 58.463 47.2458C58.2912 47.4218 58.0766 47.5978 57.9048 47.7738C57.819 46.5858 57.7331 45.3538 57.6472 44.1658C57.9048 43.8578 58.2054 43.5498 58.463 43.2418C57.4755 42.5818 56.4451 41.7898 55.5864 41.1738Z" fill="#B6D9FF"/>
<path d="M58.1199 46.6742C58.3346 46.9382 58.1199 47.6861 57.8623 47.7301C55.501 48.3021 54.6852 45.1781 55.8015 43.5502C55.8444 43.5062 55.8874 43.4622 55.9303 43.4622C57.0895 42.9782 57.9911 43.6821 57.9482 44.9581C57.9482 45.0021 57.9052 45.0902 57.9052 45.1342" fill="#EFD8C3"/>
<path d="M58.1199 46.6742C58.3346 46.9382 58.1199 47.6861 57.8623 47.7301C55.501 48.3021 54.6852 45.1781 55.8015 43.5502C55.8444 43.5062 55.8874 43.4622 55.9303 43.4622C57.0895 42.9782 57.9911 43.6821 57.9482 44.9581C57.9482 45.0021 57.9052 45.0902 57.9052 45.1342" stroke="#414042" stroke-width="0.75" stroke-miterlimit="10" stroke-linecap="round"/>
<path d="M56.7457 43.9023C56.4452 44.0783 56.1876 44.2103 55.887 44.3863L56.7457 43.9023Z" fill="white"/>
<path d="M56.7457 43.9023C56.4452 44.0783 56.1876 44.2103 55.887 44.3863" stroke="#414042" stroke-width="0.5625" stroke-miterlimit="10" stroke-linecap="round"/>
<path d="M57.3467 44.7383C57.1321 44.8703 56.9174 44.9583 56.7457 45.0903L57.3467 44.7383Z" fill="white"/>
<path d="M57.3467 44.7383C57.1321 44.8703 56.9174 44.9583 56.7457 45.0903" stroke="#414042" stroke-width="0.5625" stroke-miterlimit="10" stroke-linecap="round"/>
<path d="M61.7258 41.7462C61.7258 41.7022 61.8546 41.6582 61.8975 41.6142C62.5845 41.2182 64.7032 41.3502 65.1755 41.3942C67.451 41.6582 70.9135 42.1422 72.6738 41.3942C73.3607 41.0862 73.4037 40.4262 73.7042 40.9542C74.1765 41.7902 74.0047 43.1542 74.3053 44.1222C74.477 44.2542 74.9493 44.3862 75.0781 44.2102C76.2802 42.6262 76.7095 35.0582 75.0351 34.7942C73.4037 34.5302 73.7471 34.8822 73.6613 34.1342C73.3178 30.8343 71.1282 30.0423 68.3805 29.8223C67.9941 29.7783 67.1783 29.8663 66.7919 29.8223C67.9941 30.8783 70.1407 32.8582 69.1103 34.5742C67.5647 37.0382 61.5541 38.6222 61.7258 41.7462Z" fill="#305EED"/>
<path d="M67.393 45.4856C66.1479 45.6176 64.6882 45.7056 63.4431 45.8376C63.1855 45.8816 63.0138 45.7496 63.0138 45.4856C63.0138 45.3976 63.0997 45.3536 63.1426 45.2656C63.2285 44.9576 63.9154 44.7816 64.1301 44.7376C65.0317 44.5176 67.5218 44.0776 68.0799 44.3416C68.5952 44.6056 68.1658 44.6496 68.2517 44.9136C68.3375 45.1776 67.6506 45.4416 67.393 45.4856Z" fill="#414042"/>
<path d="M72.8453 46.9819C72.8453 47.2019 73.0171 47.3339 73.2317 47.3339C73.4464 47.3339 73.5752 47.1579 73.5752 46.9819C73.5752 46.7619 73.4035 46.6299 73.1888 46.6299C72.9741 46.6299 72.8453 46.7619 72.8453 46.9819Z" fill="#414042"/>
<path d="M65.3749 47.1576C65.3749 47.3776 65.5466 47.5096 65.7613 47.5096C65.976 47.5096 66.1048 47.3336 66.1048 47.1576C66.1048 46.9376 65.933 46.8056 65.7184 46.8056C65.5037 46.7616 65.332 46.9376 65.3749 47.1576Z" fill="#414042"/>
<path d="M71.686 45.2223C73.1028 45.3103 74.6914 45.3983 76.1511 45.4863C76.4087 45.4863 76.5804 45.3543 76.5804 45.0903C76.5804 45.0023 76.4516 44.9583 76.4516 44.8703C76.3658 44.5623 75.6359 44.4303 75.4212 44.3863C74.5196 44.2103 71.9866 43.9463 71.4714 44.2103C70.9562 44.5183 71.4284 44.5183 71.3426 44.7823C71.2138 45.0463 71.4284 45.2223 71.686 45.2223Z" fill="#414042"/>
<path d="M70.1407 45.6182C70.5271 46.6742 71.4287 49.4462 70.9994 50.3262C70.5701 51.2062 70.0549 50.4582 69.5826 50.8102" stroke="#414042" stroke-width="0.75" stroke-miterlimit="10" stroke-linecap="round"/>
<path d="M71.4712 53.3623C71.1277 53.7143 70.5267 53.9783 70.0973 54.0223C69.1957 54.1103 68.5088 53.8903 67.7789 53.4063" stroke="#414042" stroke-width="0.75" stroke-miterlimit="10" stroke-linecap="round"/>
<path d="M52.7093 79.4541C53.0957 84.5141 53.4392 89.5741 53.6538 94.6781C61.0813 97.0541 68.4229 99.6061 75.8504 102.026C75.7216 103.478 75.6786 103.742 75.5069 105.458C75.3352 107.174 74.9488 110.342 74.82 112.366C64.2584 110.298 53.7826 107.834 43.3069 105.282" stroke="#FFE458" stroke-width="0.75" stroke-miterlimit="10"/>
<path d="M241.316 70.5217C241.577 70.5217 241.788 70.3048 241.788 70.0377C241.788 69.7702 241.577 69.5537 241.316 69.5537C241.055 69.5537 240.844 69.7702 240.844 70.0377C240.844 70.3048 241.055 70.5217 241.316 70.5217Z" fill="#231F20"/>
<path d="M246.339 69.9944C246.6 69.9944 246.811 69.7779 246.811 69.5104C246.811 69.2433 246.6 69.0264 246.339 69.0264C246.078 69.0264 245.867 69.2433 245.867 69.5104C245.867 69.7779 246.078 69.9944 246.339 69.9944Z" fill="#231F20"/>
<path d="M245.223 67.0463C245.223 67.0463 247.327 66.6943 247.713 67.0023C248.143 67.3103 247.756 67.4423 247.756 67.4423C247.756 67.4423 244.665 67.7943 244.751 67.4423C244.837 67.0903 244.708 67.1343 245.223 67.0463Z" fill="#231F20"/>
<path d="M241.058 67.2661C241.058 67.2661 238.955 67.4421 238.611 67.8821C238.311 68.3221 238.697 68.3221 238.697 68.3221C238.697 68.3221 241.745 67.8821 241.617 67.5741C241.445 67.2221 241.574 67.2221 241.058 67.2661Z" fill="#231F20"/>
<path d="M298.374 52.6576H294.467C294.209 52.6576 293.995 52.4376 293.995 52.1736V52.0856C293.995 51.8216 294.209 51.6016 294.467 51.6016H298.374C298.632 51.6016 298.846 51.8216 298.846 52.0856V52.1736C298.889 52.4376 298.674 52.6576 298.374 52.6576Z" fill="#B6D9FF"/>
<path d="M298.374 53.4496H294.467C294.209 53.4496 293.995 53.2296 293.995 52.9656V52.8776C293.995 52.6136 294.209 52.3936 294.467 52.3936H298.374C298.632 52.3936 298.846 52.6136 298.846 52.8776V52.9656C298.889 53.2296 298.674 53.4496 298.374 53.4496Z" fill="#B6D9FF"/>
<path d="M298.374 54.2415H294.467C294.209 54.2415 293.995 54.0215 293.995 53.7575V53.6695C293.995 53.4055 294.209 53.1855 294.467 53.1855H298.374C298.632 53.1855 298.846 53.4055 298.846 53.6695V53.7575C298.889 54.0215 298.674 54.2415 298.374 54.2415Z" fill="#B6D9FF"/>
<path d="M18.3198 162.526C16.6883 155.266 14.7992 141.626 20.2947 127.15C30.384 100.574 61.21 81.7863 82.9342 89.2223C92.5084 92.5223 103.113 102.026 102.812 112.014C102.641 118.614 97.7033 126.886 92.2937 126.974C88.859 127.018 86.3689 123.674 85.8108 122.926C81.6033 117.294 79.9289 107.042 84.6086 102.026C89.2884 97.0103 96.3724 101.234 108.651 97.0543C121.531 92.6543 127.885 84.6023 129.388 82.5783C131.921 79.1463 135.57 74.2183 134.669 68.1903C133.896 63.2623 130.118 57.4983 125.481 57.4103C121.531 57.3223 113.288 66.1663 112.558 67.1783C107.621 74.1743 108.265 81.3463 108.823 84.2063C114.233 111.046 161.588 133.662 158.497 154.914C155.062 178.586 106.548 197.858 95.342 186.242C85.3385 175.858 99.4206 134.278 123.936 125.566C141.109 119.494 159.398 130.978 188.55 149.326C223.756 171.458 229.723 185.582 249.73 186.242C273.172 186.99 294.381 168.686 292.664 160.986C290.345 150.602 245.737 156.366 238.911 136.742C237.194 131.814 238.696 127.766 235.519 125.522C227.92 120.11 211.52 137.93 203.62 132.518C199.069 129.394 202.461 122.002 196.793 116.942C191.77 112.454 185.76 115.182 179.191 113.994C162.404 110.914 146.776 82.9743 153.044 69.9943C158.797 58.1583 180.908 68.4103 205.809 51.7783C217.187 44.2103 231.698 29.2944 228.521 18.9104C224.657 6.4584 196.321 4.0384 176.228 8.7904C171.248 9.9784 143.513 16.5784 141.195 31.5384C138.061 51.8223 181.939 86.9343 211.219 77.5623C239.684 68.4543 235.219 20.0104 266.947 8.3064C283.862 2.0584 301.765 9.4944 312.67 15.3904" stroke="#005B9D" stroke-width="0.75" stroke-miterlimit="10" stroke-linecap="round"/>
<path d="M18.3198 162.526C16.6883 155.266 14.7992 141.626 20.2947 127.15C30.384 100.574 61.21 81.7863 82.9342 89.2223C92.5084 92.5223 103.113 102.026 102.812 112.014C102.641 118.614 97.7033 126.886 92.2937 126.974C88.859 127.018 86.3689 123.674 85.8108 122.926C81.6033 117.294 79.9289 107.042 84.6086 102.026C89.2884 97.0103 96.3724 101.234 108.651 97.0543C121.531 92.6543 127.885 84.6023 129.388 82.5783C131.921 79.1463 135.57 74.2183 134.669 68.1903C133.896 63.2623 130.118 57.4983 125.481 57.4103C121.531 57.3223 113.288 66.1663 112.558 67.1783C107.621 74.1743 108.265 81.3463 108.823 84.2063C114.233 111.046 161.588 133.662 158.497 154.914C155.062 178.586 106.548 197.858 95.342 186.242C85.3385 175.858 99.4206 134.278 123.936 125.566C141.109 119.494 159.398 130.978 188.55 149.326C223.756 171.458 229.723 185.582 249.73 186.242C273.172 186.99 294.381 168.686 292.664 160.986C290.345 150.602 245.737 156.366 238.911 136.742C237.194 131.814 238.696 127.766 235.519 125.522C227.92 120.11 211.52 137.93 203.62 132.518C199.069 129.394 202.461 122.002 196.793 116.942C191.77 112.454 185.76 115.182 179.191 113.994C162.404 110.914 146.776 82.9743 153.044 69.9943C158.797 58.1583 180.908 68.4103 205.809 51.7783C217.187 44.2103 231.698 29.2944 228.521 18.9104C224.657 6.4584 196.321 4.0384 176.228 8.7904C171.248 9.9784 143.513 16.5784 141.195 31.5384C138.061 51.8223 181.939 86.9343 211.219 77.5623C239.684 68.4543 235.219 20.0104 266.947 8.3064C283.862 2.0584 301.765 9.4944 312.67 15.3904" stroke="black" stroke-opacity="0.29" stroke-width="0.75" stroke-miterlimit="10" stroke-linecap="round"/>
<path d="M106.505 83.2819C106.462 82.5339 107.535 80.1579 108.695 79.9819C110.069 79.8059 110.67 78.2219 112.215 79.6739C113.761 81.1259 113.975 86.4939 112.645 88.6059C112.43 88.9579 111.743 89.1779 111.314 89.2659C110.884 89.3539 111.185 89.5299 110.498 89.3979C107.793 88.7819 106.677 86.4499 106.505 83.2819Z" fill="#53D084"/>
<path d="M75.8936 102.95C76.9669 102.29 79.1994 101.674 80.101 102.422C81.0026 103.17 80.9597 103.742 81.6466 104.446C83.321 103.918 85.2101 103.258 86.8416 104.534C87.228 104.842 87.0992 106.03 86.8845 106.778C86.6699 107.526 86.3693 108.758 85.9829 109.682C85.7683 110.21 85.8112 110.782 85.3818 111.574C84.9954 112.366 83.0634 113.686 81.9472 113.686C79.3282 113.686 76.881 113.202 75.0349 111.178C75.2496 108.406 75.5072 105.634 75.8936 102.95Z" fill="#305EED"/>
<path d="M67.393 87.6377C67.4789 87.7697 67.393 87.9017 67.2642 87.9017C65.461 87.7257 57.3037 86.8017 59.5362 83.5017C61.7688 80.2457 66.3626 86.2297 67.393 87.6377Z" stroke="#FFE458" stroke-width="0.75" stroke-miterlimit="10"/>
<path d="M67.3501 87.8583C67.2642 87.8143 67.1784 87.8583 67.1784 87.9903C67.393 89.2223 68.4234 94.7663 70.4413 93.0503C72.5021 91.2903 68.3376 88.4743 67.3501 87.8583Z" stroke="#FFE458" stroke-width="0.75" stroke-miterlimit="10"/>
<path d="M125.138 57.278C125.224 57.41 125.138 57.542 125.01 57.542C123.206 57.366 115.049 56.442 117.282 53.142C119.514 49.8421 124.108 55.87 125.138 57.278Z" stroke="#005B9D" stroke-width="0.75" stroke-miterlimit="10"/>
<path d="M125.095 57.454C125.01 57.41 124.924 57.454 124.924 57.586C125.138 58.818 126.169 64.362 128.187 62.646C130.247 60.886 126.083 58.07 125.095 57.454Z" stroke="#005B9D" stroke-width="0.75" stroke-miterlimit="10"/>
<path d="M136.187 165.649L134.53 180.203L149.883 182.039L151.539 167.485L136.187 165.649Z" fill="white" stroke="#231F20" stroke-width="0.75" stroke-miterlimit="10"/>
<path d="M148.625 170.279L138.347 169.05L138.278 169.662L148.555 170.891L148.625 170.279Z" fill="#414042"/>
<path d="M148.194 174.197L137.916 172.968L137.847 173.579L148.125 174.808L148.194 174.197Z" fill="#414042"/>
<path d="M147.726 178.066L137.448 176.837L137.379 177.449L147.656 178.678L147.726 178.066Z" fill="#414042"/>
<path d="M143.962 175.63L137.693 174.88L137.623 175.492L143.892 176.242L143.962 175.63Z" fill="#414042"/>
<path d="M170.475 2.94238L169.246 13.7376L180.632 15.0992L181.861 4.30401L170.475 2.94238Z" fill="white" stroke="#231F20" stroke-width="0.75" stroke-miterlimit="10"/>
<path d="M179.715 6.34451L172.082 5.43164L172.032 5.86869L179.666 6.78156L179.715 6.34451Z" fill="#414042"/>
<path d="M179.414 9.25169L171.78 8.33887L171.731 8.77592L179.365 9.68875L179.414 9.25169Z" fill="#414042"/>
<path d="M179.07 12.154L171.437 11.2412L171.387 11.6783L179.021 12.5911L179.07 12.154Z" fill="#414042"/>
<path d="M176.247 10.3478L171.599 9.79199L171.549 10.229L176.197 10.7849L176.247 10.3478Z" fill="#414042"/>
<path d="M230.134 31.9907L223.35 27.5098L218.977 34.4633L225.762 38.9443L230.134 31.9907Z" fill="#305EED"/>
<path d="M20.8961 147.742H14.0267V154.782H20.8961V147.742Z" fill="#8ADFFF"/>
<path d="M243.591 126.402C243.591 126.402 239.47 124.642 238.74 125.566C238.01 126.49 237.237 127.282 237.237 127.282C237.237 127.282 233.588 126.226 233.115 127.458C232.643 128.69 233.588 129.79 233.588 129.79C233.588 129.79 234.146 132.21 234.446 132.606C234.618 132.826 234.704 133.046 234.747 133.266C234.833 133.574 235.004 134.102 235.262 134.278C235.477 134.454 235.82 134.674 236.078 134.806C236.378 134.938 240.371 135.246 240.371 135.246C240.371 135.246 243.591 132.914 245.609 131.242L243.591 126.402Z" fill="#EFD8C3"/>
<path d="M200.915 118.658C200.744 118.702 200.615 118.79 200.486 118.878C199.713 119.494 196.794 121.87 198.168 121.914C199.198 121.914 199.842 121.87 200.744 121.782C202.032 121.694 203.234 121.254 204.264 120.462L205.251 120.147C205.251 120.147 204.049 117.91 200.915 118.658Z" fill="#305EED"/>
<path d="M195.334 122.53C195.334 122.53 201.946 120.814 203.32 122.09C204.694 123.366 202.762 128.954 201.86 129.35C200.916 129.746 197.137 130.714 196.493 129.482C195.849 128.25 194.862 124.026 195.334 122.53Z" fill="#53D084"/>
<path d="M116.981 30.8339C116.981 37.3019 90.319 37.4779 90.319 31.0099C90.319 24.5419 95.8144 19.1299 103.328 19.1299C110.841 19.1299 116.981 24.3659 116.981 30.8339Z" stroke="#005B9D" stroke-width="0.75" stroke-miterlimit="10"/>
<path d="M95.2134 27.6215C95.2134 21.1535 121.875 20.9775 121.875 27.4455C121.875 33.9135 116.38 39.3255 108.866 39.3255C101.353 39.3255 95.2134 34.0895 95.2134 27.6215Z" stroke="#005B9D" stroke-width="0.75" stroke-miterlimit="10"/>
<path d="M25.361 118.702C26.428 118.702 27.2929 117.816 27.2929 116.722C27.2929 115.629 26.428 114.742 25.361 114.742C24.2939 114.742 23.429 115.629 23.429 116.722C23.429 117.816 24.2939 118.702 25.361 118.702Z" fill="#305EED"/>
</g>
<defs>
<clipPath id="clip0">
<rect width="320" height="240" fill="white"/>
</clipPath>
</defs>
</svg>
