<svg viewBox="0 0 648 476" fill="none" xmlns="http://www.w3.org/2000/svg">
<g clip-path="url(#clip0)">
<path d="M612.79 229.637V300.986C612.79 305.154 609.43 308.532 605.285 308.532V222.09C609.43 222.09 612.79 225.469 612.79 229.637Z" fill="#0E4B8D"/>
<path d="M555.617 429.809C539.447 429.809 526.34 416.629 526.34 400.369V233.245C526.34 216.985 539.447 203.804 555.617 203.804C571.785 203.804 584.893 216.985 584.893 233.245V400.369C584.893 416.629 571.785 429.809 555.617 429.809Z" fill="#0E4B8D"/>
<path d="M595.065 474.48H52.7677C50.2331 474.48 48.1777 472.414 48.1777 469.864C48.1777 467.315 50.2331 465.249 52.7677 465.249H595.065C597.601 465.249 599.655 467.315 599.655 469.864C599.655 472.414 597.601 474.48 595.065 474.48Z" fill="#0E4B8D"/>
<path d="M408.027 438.483H239.804C225.288 438.483 213.521 426.651 213.521 412.054V77.089C213.521 62.4912 225.288 50.6584 239.804 50.6584H408.027C422.543 50.6584 434.309 62.4912 434.309 77.089V412.054C434.309 426.651 422.543 438.483 408.027 438.483Z" fill="#F8FAFD"/>
<path d="M277.294 39.5803V62.0426C277.294 69.1795 283.068 74.9861 290.165 74.9861H357.668C364.765 74.9861 370.539 69.1795 370.539 62.0426V39.5803H277.294ZM279.13 41.4266H368.703V62.0426C368.703 68.1622 363.753 73.1398 357.668 73.1398H290.165C284.081 73.1398 279.13 68.1622 279.13 62.0426V41.4266Z" fill="#305EED"/>
<path d="M250.799 415.904H243.981C241.916 415.904 240.241 414.22 240.241 412.143V408.352C240.241 406.274 241.916 404.591 243.981 404.591H250.799C252.865 404.591 254.539 406.274 254.539 408.352V412.143C254.539 414.22 252.865 415.904 250.799 415.904Z" fill="#64ACFA"/>
<path d="M403.85 415.904H397.033C394.967 415.904 393.293 414.22 393.293 412.143V408.352C393.293 406.274 394.967 404.591 397.033 404.591H403.85C405.915 404.591 407.59 406.274 407.59 408.352V412.143C407.59 414.22 405.915 415.904 403.85 415.904Z" fill="#64ACFA"/>
<path d="M323.917 426.299C332.734 426.299 339.88 419.113 339.88 410.248C339.88 401.383 332.734 394.195 323.917 394.195C315.102 394.195 307.955 401.383 307.955 410.248C307.955 419.113 315.102 426.299 323.917 426.299Z" fill="#305EED"/>
<path d="M413.647 92.0701H389.124C386.795 92.0701 384.905 90.1702 384.905 87.8273C384.905 85.4843 386.795 83.5845 389.124 83.5845H413.647C415.977 83.5845 417.865 85.4843 417.865 87.8273C417.865 90.1702 415.977 92.0701 413.647 92.0701Z" fill="#305EED"/>
<path d="M233.602 91.4801C235.608 91.4801 237.235 89.8442 237.235 87.8272C237.235 85.8092 235.608 84.1733 233.602 84.1733C231.595 84.1733 229.969 85.8092 229.969 87.8272C229.969 89.8442 231.595 91.4801 233.602 91.4801Z" fill="#305EED"/>
<path d="M250.009 91.4801C252.015 91.4801 253.642 89.8442 253.642 87.8272C253.642 85.8092 252.015 84.1733 250.009 84.1733C248.003 84.1733 246.376 85.8092 246.376 87.8272C246.376 89.8442 248.003 91.4801 250.009 91.4801Z" fill="#305EED"/>
<path d="M266.415 91.4801C268.422 91.4801 270.048 89.8442 270.048 87.8272C270.048 85.8092 268.422 84.1733 266.415 84.1733C264.409 84.1733 262.782 85.8092 262.782 87.8272C262.782 89.8442 264.409 91.4801 266.415 91.4801Z" fill="#305EED"/>
<path d="M165.869 25.9802H127.938V32.5798H165.869V25.9802Z" fill="#0E4B8D"/>
<path d="M165.869 58.1858H127.938V64.7845H165.869V58.1858Z" fill="#0E4B8D"/>
<path d="M198.214 42.0828H127.938V48.6823H198.214V42.0828Z" fill="#0E4B8D"/>
<path d="M605.787 325.91H564V98.8955H605.787V325.91ZM565.004 324.9H604.783V99.9045H565.004V324.9Z" fill="#305EED"/>
<path d="M271.077 373.337C270.545 373.337 270.112 372.789 270.112 372.116V177.707C270.112 177.033 270.545 176.486 271.077 176.486C271.61 176.486 272.041 177.033 272.041 177.707V372.116C272.041 372.789 271.61 373.337 271.077 373.337Z" fill="black" fill-opacity="0.39"/>
<path d="M104.332 434.407H62.6318V221.948H104.332V434.407ZM63.5498 433.373H103.414V222.981H63.5498V433.373Z" fill="#0E4B8D"/>
<path d="M100.512 66.0797H80.1264C78.8026 66.0797 77.7295 65.0005 77.7295 63.6693C77.7295 57.2414 82.9116 52.0308 89.3027 52.0308H91.3361C97.7281 52.0308 102.909 57.2414 102.909 63.6693C102.909 65.0005 101.836 66.0797 100.512 66.0797Z" fill="#305EED"/>
<path d="M90.3206 48.9281C94.0798 48.9281 97.1276 45.8634 97.1276 42.0828C97.1276 38.3023 94.0798 35.2375 90.3206 35.2375C86.5614 35.2375 83.5137 38.3023 83.5137 42.0828C83.5137 45.8634 86.5614 48.9281 90.3206 48.9281Z" fill="#305EED"/>
<path d="M494.158 348.488H480.493C479.606 348.488 478.887 347.765 478.887 346.873C478.887 342.564 482.36 339.072 486.645 339.072H488.007C492.291 339.072 495.764 342.564 495.764 346.873C495.764 347.765 495.045 348.488 494.158 348.488Z" fill="#64ACFA"/>
<path d="M487.324 336.993C489.844 336.993 491.887 334.938 491.887 332.404C491.887 329.87 489.844 327.816 487.324 327.816C484.804 327.816 482.761 329.87 482.761 332.404C482.761 334.938 484.804 336.993 487.324 336.993Z" fill="#64ACFA"/>
<path d="M519.942 348.488H506.277C505.39 348.488 504.671 347.765 504.671 346.873C504.671 342.564 508.144 339.072 512.428 339.072H513.79C518.075 339.072 521.548 342.564 521.548 346.873C521.548 347.765 520.829 348.488 519.942 348.488Z" fill="#305EED"/>
<path d="M513.107 336.993C515.627 336.993 517.67 334.938 517.67 332.404C517.67 329.87 515.627 327.816 513.107 327.816C510.587 327.816 508.545 329.87 508.545 332.404C508.545 334.938 510.587 336.993 513.107 336.993Z" fill="#305EED"/>
<path d="M123.718 119.203H56.9193C54.5894 119.203 52.7002 117.303 52.7002 114.96C52.7002 112.617 54.5894 110.718 56.9193 110.718H123.718C126.048 110.718 127.938 112.617 127.938 114.96C127.938 117.303 126.048 119.203 123.718 119.203Z" fill="#305EED"/>
<g filter="url(#filter0_b)">
<path d="M251.435 386.839H102.098C92.2629 386.839 84.29 378.821 84.29 368.93V162.446C84.29 160.237 86.0809 158.446 88.29 158.446H265.243C267.452 158.446 269.243 160.237 269.243 162.446V368.93C269.243 378.821 261.27 386.839 251.435 386.839Z" fill="#0774F4"/>
<path d="M251.435 386.109H102.098C92.6697 386.109 85.0197 378.422 85.0197 368.93V162.446C85.0197 160.64 86.4839 159.176 88.29 159.176H265.243C267.049 159.176 268.513 160.64 268.513 162.446V368.93C268.513 378.422 260.863 386.109 251.435 386.109Z" stroke="#3087ED" stroke-opacity="0.3" stroke-width="1.4594"/>
</g>
<g filter="url(#filter1_b)">
<path d="M253.172 387.834H100.36C91.0541 387.834 83.4834 378.485 83.4834 366.995V161.451C83.4834 159.242 85.2743 157.451 87.4834 157.451H266.049C268.258 157.451 270.049 159.242 270.049 161.451V366.995C270.049 378.485 262.478 387.834 253.172 387.834ZM89.0963 159.442C86.8872 159.442 85.0963 161.233 85.0963 163.442V366.995C85.0963 377.386 91.9437 385.843 100.36 385.843H253.172C261.588 385.843 268.436 377.386 268.436 366.995V163.442C268.436 161.233 266.645 159.442 264.436 159.442H89.0963Z" fill="#0774F4"/>
<path d="M253.172 387.104H100.36C91.5934 387.104 84.2131 378.233 84.2131 366.995V161.451C84.2131 159.645 85.6773 158.181 87.4834 158.181H266.049C267.855 158.181 269.319 159.645 269.319 161.451V366.995C269.319 378.233 261.939 387.104 253.172 387.104ZM89.0963 158.713C86.4842 158.713 84.3666 160.83 84.3666 163.442V366.995C84.3666 377.638 91.4044 386.573 100.36 386.573H253.172C262.128 386.573 269.165 377.638 269.165 366.995V163.442C269.165 160.83 267.048 158.713 264.436 158.713H89.0963Z" stroke="#3087ED" stroke-opacity="0.3" stroke-width="1.4594"/>
</g>
<path d="M244.778 215.718H108.756C107.905 215.718 107.216 215.024 107.216 214.169V201.041C107.216 200.186 107.905 199.492 108.756 199.492H244.778C245.629 199.492 246.319 200.186 246.319 201.041V214.169C246.319 215.024 245.629 215.718 244.778 215.718Z" fill="white"/>
<path d="M244.778 244.571H108.756C107.905 244.571 107.216 243.878 107.216 243.022V229.895C107.216 229.04 107.905 228.345 108.756 228.345H244.778C245.629 228.345 246.319 229.04 246.319 229.895V243.022C246.319 243.878 245.629 244.571 244.778 244.571Z" fill="white"/>
<path d="M339.598 276.098H13.936C12.7998 276.098 11.8789 275.172 11.8789 274.03V256.594C11.8789 255.451 12.7998 254.525 13.936 254.525H339.598C340.735 254.525 341.656 255.451 341.656 256.594V274.03C341.656 275.172 340.735 276.098 339.598 276.098Z" fill="#64ACFA"/>
<path d="M244.778 302.278H108.756C107.905 302.278 107.216 301.584 107.216 300.728V287.602C107.216 286.746 107.905 286.052 108.756 286.052H244.778C245.629 286.052 246.319 286.746 246.319 287.602V300.728C246.319 301.584 245.629 302.278 244.778 302.278Z" fill="black" fill-opacity="0.15"/>
<path d="M244.778 331.131H108.756C107.905 331.131 107.216 330.438 107.216 329.582V316.455C107.216 315.599 107.905 314.906 108.756 314.906H244.778C245.629 314.906 246.319 315.599 246.319 316.455V329.582C246.319 330.438 245.629 331.131 244.778 331.131Z" fill="black" fill-opacity="0.15"/>
<path d="M244.778 359.984H108.756C107.905 359.984 107.216 359.291 107.216 358.435V345.308C107.216 344.453 107.905 343.759 108.756 343.759H244.778C245.629 343.759 246.319 344.453 246.319 345.308V358.435C246.319 359.291 245.629 359.984 244.778 359.984Z" fill="black" fill-opacity="0.15"/>
<path d="M248.373 119.203H145.166C142.837 119.203 140.948 117.303 140.948 114.96C140.948 112.617 142.837 110.718 145.166 110.718H248.373C250.703 110.718 252.593 112.617 252.593 114.96C252.593 117.303 250.703 119.203 248.373 119.203Z" fill="#64ACFA"/>
<path d="M571.292 183.735H73.3846C61.961 183.735 52.7002 174.422 52.7002 162.934C52.7002 151.446 61.961 142.133 73.3846 142.133H571.292C582.716 142.133 591.976 151.446 591.976 162.934C591.976 174.422 582.716 183.735 571.292 183.735Z" fill="#64ACFA"/>
<path d="M571.291 184.704H73.3845C61.4478 184.704 51.7354 174.938 51.7354 162.934C51.7354 150.929 61.4478 141.163 73.3845 141.163H571.291C583.229 141.163 592.94 150.929 592.94 162.934C592.94 174.938 583.229 184.704 571.291 184.704ZM73.3845 143.103C62.5108 143.103 53.665 151.999 53.665 162.934C53.665 173.869 62.5108 182.764 73.3845 182.764H571.291C582.166 182.764 591.012 173.869 591.012 162.934C591.012 151.999 582.166 143.103 571.291 143.103H73.3845Z" fill="#0E4B8D"/>
<path d="M121.923 172.801H99.4219C98.9152 172.801 98.5039 172.388 98.5039 171.878C98.5039 171.368 98.9152 170.954 99.4219 170.954H121.923C122.43 170.954 122.841 171.368 122.841 171.878C122.841 172.388 122.43 172.801 121.923 172.801Z" fill="#0E4B8D"/>
<path d="M566.837 172.801H427.966C427.459 172.801 427.048 172.388 427.048 171.878C427.048 171.368 427.459 170.954 427.966 170.954H566.837C567.345 170.954 567.755 171.368 567.755 171.878C567.755 172.388 567.345 172.801 566.837 172.801Z" fill="#0E4B8D"/>
<path d="M411.62 172.801H128.603C128.096 172.801 127.685 172.388 127.685 171.878C127.685 171.368 128.096 170.954 128.603 170.954H411.62C412.128 170.954 412.538 171.368 412.538 171.878C412.538 172.388 412.128 172.801 411.62 172.801Z" fill="#0E4B8D"/>
<path d="M459.328 220.795C494.368 220.795 522.772 192.23 522.772 156.994C522.772 121.758 494.368 93.1934 459.328 93.1934C424.289 93.1934 395.884 121.758 395.884 156.994C395.884 192.23 424.289 220.795 459.328 220.795Z" fill="#AEAEAE" fill-opacity="0.37"/>
<path d="M558.388 264.04L505.3 200.961C527.378 177.67 528.902 140.901 507.751 115.773C495.202 100.864 477.31 93.1924 459.299 93.1924C452.056 93.1924 444.794 94.4294 437.854 96.9404C430.914 99.4421 424.295 103.227 418.338 108.295C391.596 131.06 388.264 171.319 410.902 198.21C423.451 213.119 441.343 220.8 459.363 220.8C471.692 220.8 484.085 217.181 494.853 209.842L547.95 272.93C550.383 275.829 554.707 276.189 557.589 273.733C559.186 272.376 560.013 270.438 560.013 268.48C560.013 266.911 559.48 265.332 558.388 264.04ZM494.385 198.644C484.599 206.98 472.16 211.568 459.363 211.568C443.344 211.568 428.243 204.524 417.906 192.247C408.543 181.123 404.044 166.998 405.247 152.468C406.45 137.947 413.206 124.755 424.268 115.339C434.054 107.012 446.493 102.424 459.299 102.424C475.309 102.424 490.419 109.468 500.747 121.736C520.08 144.704 517.225 179.212 494.385 198.644Z" fill="#305EED"/>
<path d="M470.972 152.012C480.915 152.012 488.976 143.906 488.976 133.906C488.976 123.907 480.915 115.801 470.972 115.801C461.028 115.801 452.967 123.907 452.967 133.906C452.967 143.906 461.028 152.012 470.972 152.012Z" fill="#64ACFA"/>
<path d="M465.845 379.319H390.086V303.135H465.845V379.319ZM391.922 377.472H464.009V304.981H391.922V377.472Z" fill="#64ACFA"/>
<path d="M116.776 88.7501H63.8612C57.5527 88.7501 52.4395 83.6081 52.4395 77.2642V24.0521C52.4395 17.7086 57.5527 12.5662 63.8612 12.5662H116.776C123.084 12.5662 128.197 17.7086 128.197 24.0521V77.2642C128.197 83.6081 123.084 88.7501 116.776 88.7501ZM65.6972 86.9038H114.94C121.248 86.9038 126.361 81.7618 126.361 75.4179V25.8984C126.361 19.5549 121.248 14.4125 114.94 14.4125H65.6972C59.3887 14.4125 54.2755 19.5549 54.2755 25.8984V75.4179C54.2755 81.7618 59.3887 86.9038 65.6972 86.9038Z" fill="#64ACFA"/>
<path d="M464.927 283.108H391.004C390.497 283.108 390.086 282.694 390.086 282.185C390.086 281.674 390.497 281.262 391.004 281.262H464.927C465.434 281.262 465.845 281.674 465.845 282.185C465.845 282.694 465.434 283.108 464.927 283.108Z" fill="#64ACFA"/>
<path d="M464.927 271.087H391.004C390.497 271.087 390.086 270.674 390.086 270.163C390.086 269.653 390.497 269.24 391.004 269.24H464.927C465.434 269.24 465.845 269.653 465.845 270.163C465.845 270.674 465.434 271.087 464.927 271.087Z" fill="#64ACFA"/>
<path d="M452.966 259.067H391.004C390.497 259.067 390.086 258.654 390.086 258.144C390.086 257.634 390.497 257.221 391.004 257.221H452.966C453.473 257.221 453.884 257.634 453.884 258.144C453.884 258.654 453.473 259.067 452.966 259.067Z" fill="#64ACFA"/>
<path d="M464.927 247.046H391.004C390.497 247.046 390.086 246.633 390.086 246.123C390.086 245.612 390.497 245.199 391.004 245.199H464.927C465.434 245.199 465.845 245.612 465.845 246.123C465.845 246.633 465.434 247.046 464.927 247.046Z" fill="#64ACFA"/>
<path d="M605.331 367.788C603.153 367.788 602.097 366.003 601.076 364.278C600.119 362.659 599.215 361.13 597.456 361.13C595.696 361.13 594.791 362.66 593.833 364.278C592.812 366.003 591.757 367.788 589.577 367.788C587.398 367.788 586.342 366.003 585.322 364.278C584.363 362.66 583.459 361.13 581.698 361.13C579.938 361.13 579.034 362.659 578.076 364.278C577.055 366.003 575.999 367.788 573.82 367.788C571.641 367.788 570.586 366.003 569.565 364.278C568.607 362.66 567.702 361.13 565.943 361.13C564.182 361.13 563.278 362.66 562.319 364.278C561.298 366.003 560.243 367.788 558.063 367.788C555.883 367.788 554.827 366.003 553.807 364.278C552.848 362.66 551.943 361.13 550.182 361.13C548.422 361.13 547.518 362.659 546.56 364.278C545.539 366.003 544.483 367.788 542.304 367.788C540.125 367.788 539.068 366.003 538.047 364.278C537.089 362.66 536.185 361.13 534.424 361.13C532.664 361.13 531.76 362.66 530.802 364.278C529.782 366.003 528.726 367.788 526.547 367.788C524.367 367.788 523.312 366.003 522.291 364.278C521.333 362.66 520.429 361.13 518.668 361.13C516.908 361.13 516.003 362.659 515.046 364.278C514.025 366.003 512.968 367.788 510.789 367.788C508.609 367.788 507.552 366.003 506.53 364.278C505.572 362.66 504.667 361.13 502.906 361.13C501.146 361.13 500.241 362.66 499.283 364.278C498.262 366.003 497.205 367.788 495.026 367.788C492.845 367.788 491.788 366.003 490.767 364.278C489.808 362.66 488.902 361.13 487.14 361.13C485.379 361.13 484.473 362.66 483.514 364.279C482.493 366.003 481.436 367.788 479.256 367.788C479.052 367.788 478.887 367.622 478.887 367.417C478.887 367.212 479.052 367.046 479.256 367.046C481.017 367.046 481.923 365.517 482.881 363.898C483.903 362.173 484.959 360.389 487.14 360.389C489.322 360.389 490.378 362.173 491.4 363.898C492.359 365.517 493.264 367.046 495.026 367.046C496.787 367.046 497.691 365.517 498.649 363.898C499.67 362.173 500.727 360.389 502.906 360.389C505.086 360.389 506.143 362.173 507.164 363.898C508.122 365.517 509.027 367.046 510.789 367.046C512.55 367.046 513.454 365.517 514.412 363.898C515.433 362.173 516.489 360.389 518.668 360.389C520.848 360.389 521.903 362.173 522.924 363.898C523.883 365.518 524.787 367.046 526.547 367.046C528.306 367.046 529.211 365.517 530.168 363.898C531.19 362.173 532.245 360.389 534.424 360.389C536.603 360.389 537.66 362.173 538.681 363.898C539.639 365.517 540.543 367.046 542.304 367.046C544.064 367.046 544.969 365.517 545.926 363.898C546.948 362.173 548.004 360.389 550.182 360.389C552.363 360.389 553.419 362.173 554.44 363.898C555.397 365.518 556.303 367.046 558.063 367.046C559.823 367.046 560.727 365.517 561.686 363.898C562.707 362.173 563.762 360.389 565.943 360.389C568.121 360.389 569.177 362.173 570.198 363.898C571.156 365.518 572.06 367.046 573.82 367.046C575.581 367.046 576.485 365.517 577.442 363.898C578.463 362.173 579.519 360.389 581.698 360.389C583.877 360.389 584.934 362.173 585.955 363.898C586.912 365.518 587.818 367.046 589.577 367.046C591.337 367.046 592.242 365.518 593.2 363.898C594.221 362.173 595.276 360.389 597.456 360.389C599.634 360.389 600.689 362.173 601.71 363.898C602.667 365.517 603.571 367.046 605.331 367.046C605.535 367.046 605.699 367.212 605.699 367.417C605.699 367.622 605.535 367.788 605.331 367.788Z" fill="#305EED"/>
<path d="M522.364 21.0834C520.186 21.0834 519.13 19.2997 518.11 17.5736C517.152 15.9548 516.248 14.4262 514.489 14.4262C512.729 14.4262 511.825 15.9555 510.866 17.5736C509.846 19.2997 508.791 21.0834 506.612 21.0834C504.432 21.0834 503.376 19.2997 502.355 17.5736C501.397 15.9555 500.492 14.4262 498.731 14.4262C496.973 14.4262 496.067 15.9548 495.11 17.5736C494.089 19.2997 493.033 21.0834 490.854 21.0834C488.675 21.0834 487.619 19.2997 486.598 17.5736C485.641 15.9555 484.736 14.4262 482.976 14.4262C481.216 14.4262 480.311 15.9555 479.353 17.5736C478.333 19.2997 477.276 21.0834 475.097 21.0834C472.917 21.0834 471.861 19.2997 470.84 17.5736C469.882 15.9555 468.977 14.4262 467.216 14.4262C465.457 14.4262 464.552 15.9548 463.594 17.5736C462.573 19.2997 461.518 21.0834 459.337 21.0834C457.158 21.0834 456.102 19.2997 455.08 17.5736C454.123 15.9555 453.218 14.4262 451.458 14.4262C449.698 14.4262 448.793 15.9555 447.836 17.5736C446.815 19.2997 445.759 21.0834 443.58 21.0834C441.401 21.0834 440.346 19.2997 439.325 17.5736C438.367 15.9555 437.462 14.4262 435.702 14.4262C433.943 14.4262 433.037 15.9548 432.079 17.5736C431.058 19.2997 430.003 21.0834 427.822 21.0834C425.642 21.0834 424.585 19.2997 423.565 17.5736C422.606 15.9555 421.701 14.4262 419.939 14.4262C418.18 14.4262 417.274 15.9555 416.317 17.5736C415.295 19.2997 414.24 21.0834 412.06 21.0834C409.879 21.0834 408.822 19.2997 407.801 17.5736C406.841 15.9555 405.936 14.4262 404.175 14.4262C402.412 14.4262 401.507 15.9555 400.549 17.5744C399.527 19.2997 398.47 21.0834 396.289 21.0834C396.085 21.0834 395.921 20.9177 395.921 20.7128C395.921 20.5081 396.085 20.3423 396.289 20.3423C398.051 20.3423 398.957 18.8129 399.915 17.1949C400.937 15.4688 401.993 13.6851 404.175 13.6851C406.356 13.6851 407.412 15.4688 408.434 17.1949C409.393 18.8129 410.299 20.3423 412.06 20.3423C413.82 20.3423 414.725 18.8129 415.684 17.1949C416.704 15.4688 417.76 13.6851 419.939 13.6851C422.121 13.6851 423.176 15.4688 424.198 17.194C425.156 18.8129 426.062 20.3423 427.822 20.3423C429.583 20.3423 430.488 18.8129 431.446 17.1949C432.467 15.4688 433.523 13.6851 435.702 13.6851C437.882 13.6851 438.937 15.4688 439.958 17.1949C440.916 18.8137 441.821 20.3423 443.58 20.3423C445.34 20.3423 446.245 18.8129 447.202 17.1949C448.223 15.4688 449.279 13.6851 451.458 13.6851C453.637 13.6851 454.693 15.4688 455.715 17.1949C456.672 18.8129 457.577 20.3423 459.337 20.3423C461.098 20.3423 462.002 18.8129 462.961 17.1949C463.981 15.4688 465.037 13.6851 467.216 13.6851C469.397 13.6851 470.452 15.4688 471.473 17.1949C472.432 18.8137 473.336 20.3423 475.097 20.3423C476.857 20.3423 477.762 18.8129 478.72 17.1949C479.741 15.4688 480.796 13.6851 482.976 13.6851C485.155 13.6851 486.211 15.4688 487.232 17.1949C488.189 18.8137 489.094 20.3423 490.854 20.3423C492.614 20.3423 493.519 18.8129 494.476 17.1949C495.497 15.4688 496.553 13.6851 498.731 13.6851C500.912 13.6851 501.967 15.4688 502.988 17.1949C503.947 18.8137 504.852 20.3423 506.612 20.3423C508.371 20.3423 509.276 18.8137 510.233 17.1949C511.255 15.4688 512.31 13.6851 514.489 13.6851C516.667 13.6851 517.723 15.4688 518.744 17.1949C519.701 18.8129 520.605 20.3423 522.364 20.3423C522.568 20.3423 522.733 20.5081 522.733 20.7128C522.733 20.9177 522.568 21.0834 522.364 21.0834Z" fill="#64ACFA"/>
<path d="M590.214 12.0347H579.575V22.7328H590.214V12.0347Z" fill="#64ACFA"/>
<path d="M182.084 80.0737H171.445V90.7712H182.084V80.0737Z" fill="#64ACFA"/>
<path d="M23.6072 203.253C23.0747 203.253 22.6426 202.819 22.6426 202.283V39.0618C22.6426 38.5263 23.0747 38.0918 23.6072 38.0918C24.1396 38.0918 24.5718 38.5263 24.5718 39.0618V202.283C24.5718 202.819 24.1396 203.253 23.6072 203.253Z" fill="#0E4B8D"/>
<path d="M32.8846 152.695C32.352 152.695 31.9199 152.26 31.9199 151.725V19.2628C31.9199 18.7273 32.352 18.2927 32.8846 18.2927C33.4171 18.2927 33.8492 18.7273 33.8492 19.2628V151.725C33.8492 152.26 33.4171 152.695 32.8846 152.695Z" fill="#0E4B8D"/>
<path d="M616.267 77.0621H453.956C453.424 77.0621 452.992 76.6282 452.992 76.0928C452.992 75.5564 453.424 75.1226 453.956 75.1226H616.267C616.799 75.1226 617.232 75.5564 617.232 76.0928C617.232 76.6282 616.799 77.0621 616.267 77.0621Z" fill="#0E4B8D"/>
<path d="M635.954 86.3926H504.231C503.699 86.3926 503.267 85.9578 503.267 85.4224C503.267 84.8869 503.699 84.4521 504.231 84.4521H635.954C636.487 84.4521 636.919 84.8869 636.919 85.4224C636.919 85.9578 636.487 86.3926 635.954 86.3926Z" fill="#0E4B8D"/>
<path d="M519.661 434.407H460.036C459.713 434.407 459.451 434.144 459.451 433.819C459.451 433.495 459.713 433.232 460.036 433.232H519.661C519.984 433.232 520.246 433.495 520.246 433.819C520.246 434.144 519.984 434.407 519.661 434.407Z" fill="#0E4B8D"/>
<path d="M526.895 443.736H478.506C478.183 443.736 477.921 443.472 477.921 443.148C477.921 442.823 478.183 442.56 478.506 442.56H526.895C527.217 442.56 527.479 442.823 527.479 443.148C527.479 443.472 527.217 443.736 526.895 443.736Z" fill="#0E4B8D"/>
<path d="M187.797 434.407H128.172C127.849 434.407 127.587 434.144 127.587 433.819C127.587 433.495 127.849 433.232 128.172 433.232H187.797C188.12 433.232 188.381 433.495 188.381 433.819C188.381 434.144 188.12 434.407 187.797 434.407Z" fill="#0E4B8D"/>
<path d="M169.33 443.736H120.94C120.617 443.736 120.355 443.472 120.355 443.148C120.355 442.823 120.617 442.56 120.94 442.56H169.33C169.652 442.56 169.914 442.823 169.914 443.148C169.914 443.472 169.652 443.736 169.33 443.736Z" fill="#0E4B8D"/>
<path d="M374.585 379.319V303.135H358.59V379.319H374.585Z" fill="#305EED"/>
</g>
<defs>
<filter id="filter0_b" x="-3.27377" y="70.8825" width="360.081" height="403.52" filterUnits="userSpaceOnUse" color-interpolation-filters="sRGB">
<feFlood flood-opacity="0" result="BackgroundImageFix"/>
<feGaussianBlur in="BackgroundImage" stdDeviation="43.7819"/>
<feComposite in2="SourceAlpha" operator="in" result="effect1_backgroundBlur"/>
<feBlend mode="normal" in="SourceGraphic" in2="effect1_backgroundBlur" result="shape"/>
</filter>
<filter id="filter1_b" x="-4.08041" y="69.8874" width="361.693" height="405.51" filterUnits="userSpaceOnUse" color-interpolation-filters="sRGB">
<feFlood flood-opacity="0" result="BackgroundImageFix"/>
<feGaussianBlur in="BackgroundImage" stdDeviation="43.7819"/>
<feComposite in2="SourceAlpha" operator="in" result="effect1_backgroundBlur"/>
<feBlend mode="normal" in="SourceGraphic" in2="effect1_backgroundBlur" result="shape"/>
</filter>
<clipPath id="clip0">
<rect width="648" height="476" fill="white"/>
</clipPath>
</defs>
</svg>
