<svg viewBox="0 0 300 220" fill="none" xmlns="http://www.w3.org/2000/svg">
<g clip-path="url(#clip0)">
<path d="M99.7855 24.7966L98.4046 72.3729C98.3521 74.1849 99.669 94.3308 98.7102 95.7235C97.8043 94.2221 96.3034 92.0488 93.9891 89.9179C90.2566 86.4804 86.6978 85.2606 82.1126 83.4173C70.7215 78.8378 65.0261 76.5478 65.0646 74.1186C65.1215 70.5157 77.0191 69.7609 77.8522 64.0921C78.3491 60.7117 74.4146 58.9616 75.2724 56.0652C76.5886 51.6213 86.9621 52.0735 87.197 49.2667C87.4161 46.6538 79.567 45.1215 79.6398 42.0561C79.7173 38.705 85.6277 37.4587 85.7664 34.1969C85.927 30.4356 77.058 28.2589 77.3963 24.8162C77.5978 22.7982 95.2854 15.6411 98.7102 11.363C99.7584 10.0479 99.9314 19.7691 99.7855 24.7966Z" fill="#0774F4"/>
<path d="M188.275 196.35C190.199 184.865 192.124 173.38 194.047 161.895C194.1 160.083 192.783 139.937 193.742 138.544C194.648 140.045 196.149 142.219 198.463 144.35C202.196 147.787 205.754 149.007 210.339 150.85C221.731 155.43 227.426 157.72 227.387 160.149C227.331 163.752 215.433 164.507 214.6 170.175C214.103 173.556 218.037 175.306 217.18 178.202C215.863 182.646 205.49 182.194 205.255 185.001C205.036 187.614 212.885 189.146 212.812 192.211C212.735 195.562 206.824 196.809 206.686 200.071C206.498 204.495 215.322 206.669 215.056 209.451C214.498 215.268 174.407 215.843 174.27 214.175C174.204 213.379 183.368 213.852 187.26 207.896C189.614 204.294 189.121 199.748 188.275 196.35Z" fill="#305EED"/>
<path d="M201.65 46.6114H200.928V26.9146H201.65C202.734 26.9146 203.612 27.7915 203.612 28.8732V44.6531C203.612 45.7348 202.734 46.6114 201.65 46.6114Z" fill="#0774F4"/>
<path d="M124.975 6.44519V7.1655H105.236V6.44519C105.236 5.36348 106.115 4.48657 107.199 4.48657H123.012C124.096 4.48657 124.975 5.36348 124.975 6.44519Z" fill="#305EED"/>
<path d="M124.975 6.44519V7.1655H105.236V6.44519C105.236 5.36348 106.115 4.48657 107.199 4.48657H123.012C124.096 4.48657 124.975 5.36348 124.975 6.44519Z" fill="black" fill-opacity="0.12"/>
<path d="M201.65 67.8303H200.928V48.1331H201.65C202.734 48.1331 203.612 49.0101 203.612 50.0918V65.8716C203.612 66.9533 202.734 67.8303 201.65 67.8303Z" fill="#0774F4"/>
<path d="M72.4268 114.247L57.6748 114.118L57.6406 118.025L72.3926 118.154L72.4268 114.247Z" fill="#B6D9FF"/>
<path d="M72.3556 122.386L43.4951 122.133L43.4609 126.04L72.321 126.293L72.3556 122.386Z" fill="#B6D9FF"/>
<path d="M72.3559 106.458L65.0225 106.394L64.9883 110.301L72.3218 110.365L72.3559 106.458Z" fill="#B6D9FF"/>
<path d="M94.6179 184.106H53.0234V190.05H94.6179V184.106Z" fill="#0774F4"/>
<path d="M94.6175 195.356H76.2812V201.3H94.6175V195.356Z" fill="#0774F4"/>
<path d="M200.927 17.4436V204.504C200.927 210.406 196.133 215.186 190.222 215.186H105.324C99.413 215.186 94.6191 210.406 94.6191 204.504V17.4436C94.6191 11.5412 99.413 6.76147 105.324 6.76147H190.222C196.133 6.76147 200.927 11.5412 200.927 17.4436Z" fill="#F8FAFD"/>
<path d="M223.122 79.8434V147.169C223.122 148.743 222.202 150.182 220.742 150.771C212.557 154.073 205.253 155.054 198.902 154.829C172.369 153.885 163.354 131.858 139.226 134.472C119.923 136.567 116.874 151.624 96.6018 154.528C89.0634 155.607 81.7982 154.624 75.0558 152.475C73.4606 151.967 72.4219 150.457 72.4219 148.783V79.8434C72.4219 74.9327 76.4088 70.9541 81.3299 70.9541H214.214C219.135 70.9541 223.122 74.9327 223.122 79.8434Z" fill="#64ACFA"/>
<path d="M139.147 133.747L139.147 133.747C129.28 134.817 123.552 139.221 117.837 143.615L117.833 143.618L117.832 143.619C112.133 148 106.432 152.383 96.4983 153.805C89.0895 154.867 81.9367 153.902 75.2774 151.78C74.0035 151.374 73.1516 150.159 73.1516 148.783V79.8434C73.1516 75.3371 76.8104 71.6838 81.3299 71.6838H214.214C218.734 71.6838 222.392 75.3371 222.392 79.8434V147.169C222.392 148.462 221.638 149.623 220.469 150.095C212.382 153.357 205.18 154.321 198.928 154.1C186.275 153.65 177.679 148.339 169.328 143.179C169.067 143.017 168.806 142.856 168.545 142.696C159.956 137.396 151.48 132.411 139.147 133.747Z" stroke="#305EED" stroke-opacity="0.3" stroke-width="1.4594"/>
<path d="M200.927 157.558V172.977H94.6191V157.554C95.6129 157.483 96.6146 157.376 97.6203 157.233C117.893 154.329 120.942 139.272 140.244 137.178C164.372 134.563 173.388 156.59 199.921 157.534C200.255 157.546 200.589 157.554 200.927 157.558Z" fill="#231F20" fill-opacity="0.5"/>
<path d="M223.122 149.756V161.382C223.122 166.293 219.135 170.272 214.214 170.272H81.3299C76.4088 170.272 72.4219 166.293 72.4219 161.382V151.569C79.8909 154.33 88.0714 155.75 96.6018 154.528C116.874 151.624 119.923 136.567 139.226 134.472C163.354 131.858 172.369 153.885 198.902 154.829C205.863 155.075 213.968 153.873 223.122 149.756Z" fill="#0774F4"/>
<path d="M232.062 102.1V137.182" stroke="#133540" stroke-width="1.5" stroke-miterlimit="10"/>
<path d="M232.062 102.099V137.181" stroke="black" stroke-opacity="0.15" stroke-width="1.5" stroke-miterlimit="10"/>
<path d="M108.738 65.0637H189.29" stroke="#133540" stroke-width="1.5" stroke-miterlimit="10"/>
<path d="M232.061 137.182V163.097C232.061 170.313 226.2 176.162 218.969 176.162H76.5745C69.344 176.162 63.4824 170.313 63.4824 163.097V78.1287C63.4824 70.913 69.344 65.0637 76.5745 65.0637H108.738" stroke="#133540" stroke-width="1.5" stroke-miterlimit="10"/>
<path d="M232.061 137.182V163.097C232.061 170.313 226.2 176.162 218.969 176.162H76.5745C69.344 176.162 63.4824 170.313 63.4824 163.097V78.1283C63.4824 70.913 69.344 65.0637 76.5745 65.0637H108.738" stroke="white" stroke-opacity="0.65" stroke-width="1.5" stroke-miterlimit="10"/>
<path d="M159.144 124.353C154.303 122.619 153.458 116.616 153.395 116.112C153.194 114.504 153.23 111.695 154.44 111.21C155.532 110.772 156.465 112.672 158.099 112.461C160.406 112.165 161.03 108.062 162.489 108.185C163.845 108.3 163.782 109.44 165.26 109.579C166.61 109.706 167.427 106.79 168.71 106.971C169.954 107.148 169.935 110.788 171.49 111.21C172.668 111.53 173.464 111.791 175.241 111.627C177.314 111.435 179.861 113.047 180.028 114.696C180.152 115.908 178.911 116.369 176.008 120.109C174.362 122.232 174.819 122.128 174.168 122.62C171.028 124.991 165.993 124.162 163.848 124.561C162.907 124.736 161.135 125.065 159.144 124.353Z" fill="#36D13E"/>
<path d="M293.51 148.034L290.934 157.258L288.358 166.481L281.642 159.642L274.926 152.805L284.218 150.42L293.51 148.034Z" stroke="#005B9D" stroke-width="1.5" stroke-miterlimit="10" stroke-linecap="round"/>
<path d="M167.776 16.3987H127.718C124.508 16.3987 121.906 13.8021 121.906 10.599V6.70142H173.588V10.599C173.588 13.8021 170.986 16.3987 167.776 16.3987Z" fill="#305EED"/>
<path d="M234.497 40.328L219.1 45.587C217.142 39.8798 216.943 35.8834 222.029 34.0305L222.052 34.0226C227.208 32.4189 232.737 35.1971 234.497 40.328Z" fill="#305EED"/>
<path d="M290.881 74.4108C292.671 79.6309 289.882 85.3112 284.651 87.0978L263.586 94.2925C258.355 96.0791 252.663 93.2957 250.872 88.0756L234.495 40.328C232.736 35.1967 227.206 32.4189 222.051 34.0226C222.098 34.0028 222.153 33.9841 222.202 33.9675L256.704 22.1837C259.505 21.227 262.554 22.7179 263.512 25.5132L270.953 47.2066L270.95 47.2078L281.392 77.652L290.881 74.4108Z" fill="#0E4B8D"/>
<path d="M268.644 82.0063C270.367 87.0293 267.848 92.4771 262.994 94.4728C263.192 94.4184 263.39 94.3597 263.588 94.2923L291.432 84.7822C296.663 82.9952 299.453 77.3153 297.662 72.0952L268.644 82.0063Z" fill="#305EED"/>
<path d="M263.822 35.1626L246.83 40.9662L247.182 41.9932L264.175 36.1896L263.822 35.1626Z" fill="#305EED"/>
<path d="M265.598 40.3337L248.605 46.1374L248.958 47.1644L265.95 41.3607L265.598 40.3337Z" fill="#305EED"/>
<path d="M267.37 45.5049L250.377 51.3089L250.73 52.3355L267.722 46.5319L267.37 45.5049Z" fill="#305EED"/>
<path d="M269.143 50.676L252.15 56.4797L252.503 57.5066L269.495 51.703L269.143 50.676Z" fill="#305EED"/>
<path d="M243.411 42.1335L239.607 43.433L239.96 44.4596L243.763 43.1605L243.411 42.1335Z" fill="#305EED"/>
<path d="M245.185 47.3047L241.381 48.6038L241.733 49.6307L245.537 48.3317L245.185 47.3047Z" fill="#305EED"/>
<path d="M246.96 52.4761L243.156 53.7752L243.508 54.8021L247.312 53.5027L246.96 52.4761Z" fill="#305EED"/>
<path d="M248.734 57.6472L244.93 58.9463L245.282 59.9733L249.086 58.6742L248.734 57.6472Z" fill="#305EED"/>
<path d="M250.507 62.8184L246.703 64.1174L247.055 65.1444L250.859 63.8453L250.507 62.8184Z" fill="#305EED"/>
<path d="M160.314 122.62L163.56 112.634C164.164 110.777 165.897 109.519 167.854 109.519H169.586C172.652 109.519 174.826 112.503 173.88 115.413L171.537 122.62" fill="#FFAA00"/>
<path d="M136.549 124.09L137.741 112.545C138.305 110.627 140.304 109.178 142.693 108.955L144.808 108.758C148.551 108.41 151.482 111.134 150.599 114.139L150.251 122.814" stroke="#3B2551" stroke-width="0.75" stroke-miterlimit="10"/>
<path d="M123.916 120.613L121.481 116.029C120.626 114.42 121.392 112.428 123.106 111.804L132.304 108.453C133.701 107.944 135.26 108.529 135.974 109.831L141.885 120.613" stroke="white" stroke-width="0.75" stroke-miterlimit="10"/>
<path d="M147.969 122.681H142.664C140.957 122.681 139.574 121.301 139.574 119.598V112.602C139.574 110.899 140.957 109.519 142.664 109.519H147.969C149.675 109.519 151.058 110.899 151.058 112.602V119.598C151.058 121.301 149.675 122.681 147.969 122.681Z" fill="#E5E6E7"/>
<path d="M150.5 122.681H143.351C142.296 122.681 141.441 121.828 141.441 120.776V111.424C141.441 110.372 142.296 109.519 143.351 109.519H150.5C151.555 109.519 152.41 110.372 152.41 111.424V120.776C152.41 121.828 151.555 122.681 150.5 122.681Z" fill="white"/>
<path d="M130.829 123.499C129.233 123.843 127.685 122.951 127.373 121.506L122.993 102.659C121.129 96.5419 127.98 98.8251 129.391 102.874L133.153 120.261C133.465 121.705 132.425 123.155 130.829 123.499Z" fill="#FFAA00"/>
<path d="M135.375 124.346C133.633 124.453 132.133 123.131 132.025 121.393L131.703 116.191C131.596 114.452 132.921 112.956 134.663 112.848C136.405 112.741 137.905 114.063 138.012 115.802L138.335 121.003C138.443 122.742 137.117 124.238 135.375 124.346Z" fill="#36D13E"/>
<path d="M127.177 112.261L120.908 114.497L124.646 124.933L130.915 122.697L127.177 112.261Z" fill="white"/>
<path d="M130.08 106.057L127.941 108.27L130.723 109.028L130.08 106.057Z" fill="#F2522E"/>
<path d="M131.185 111.172L129.047 113.384L131.828 114.143L131.185 111.172Z" fill="#F2522E"/>
<path d="M160.095 119.641C160.095 121.382 158.68 122.795 156.935 122.795H154.927C153.181 122.795 151.766 121.382 151.766 119.641C151.766 117.899 153.181 116.487 154.927 116.487H156.935C158.68 116.487 160.095 117.899 160.095 119.641Z" fill="#F2522E"/>
<path d="M129.996 124.137V106.585C129.996 104.624 131.318 103.034 132.95 103.034H161.62C163.251 103.034 164.573 104.624 164.573 106.585V124.137" stroke="#3B2551" stroke-width="0.75" stroke-miterlimit="10"/>
<path d="M167.155 154.468H127.414C126.702 154.468 126.084 153.851 125.925 152.98L120.4 122.62H174.168L168.643 152.98C168.485 153.851 167.867 154.468 167.155 154.468Z" fill="#B6D9FF"/>
<path d="M167.929 132.271L165 134.394C164.29 134.908 164.022 135.838 164.349 136.651L165.141 138.621C165.469 139.433 165.2 140.363 164.49 140.878L162.77 142.125C162.06 142.64 161.791 143.57 162.118 144.382L162.911 146.352C163.238 147.164 162.97 148.095 162.26 148.609L160.538 149.857C159.828 150.371 159.56 151.301 159.887 152.114L160.68 154.084C161.007 154.897 160.738 155.827 160.029 156.341L157.1 158.465" stroke="white" stroke-width="0.75" stroke-miterlimit="10"/>
<path d="M158.849 132.662L156.21 134.377C155.414 134.894 155.118 135.917 155.517 136.778L156.144 138.132C156.542 138.993 156.247 140.015 155.451 140.533L154.199 141.347C153.402 141.865 153.107 142.887 153.506 143.748L154.133 145.102C154.531 145.963 154.236 146.985 153.44 147.503L152.188 148.317C151.391 148.835 151.096 149.857 151.494 150.718L152.121 152.073C152.52 152.934 152.225 153.956 151.428 154.474L148.789 156.19" stroke="white" stroke-width="0.75" stroke-miterlimit="10"/>
<path d="M155.704 103.967H138.862C138.345 103.967 137.926 103.549 137.926 103.033C137.926 102.518 138.345 102.1 138.862 102.1H155.704C156.221 102.1 156.64 102.518 156.64 103.033C156.64 103.549 156.221 103.967 155.704 103.967Z" fill="#B6D9FF"/>
<path d="M181.109 123.089C181.109 124.458 179.996 125.565 178.626 125.565H115.939C114.566 125.565 113.457 124.458 113.457 123.089C113.457 121.721 114.566 120.613 115.939 120.613H178.626C179.996 120.613 181.109 121.721 181.109 123.089Z" fill="#0774F4"/>
<path d="M206.113 157.257H89.4336V158.465H206.113V157.257Z" fill="#B6D9FF"/>
<path d="M147.144 109.901L144.449 109.923L144.42 107.906L147.115 107.885L147.144 109.901Z" fill="white"/>
<path d="M147.61 108.067L143.931 108.096C143.725 108.097 143.556 107.974 143.554 107.819L143.535 106.513C143.533 106.359 143.699 106.232 143.904 106.231L147.584 106.201C147.79 106.2 147.959 106.324 147.961 106.478L147.98 107.784C147.982 107.938 147.816 108.065 147.61 108.067Z" fill="white"/>
<path d="M152.41 117.003L141.441 120.506V115.759L152.41 112.256V117.003Z" fill="#E5E6E7"/>
<path d="M42.2704 32.0399C46.6381 32.0399 50.179 28.5063 50.179 24.1474C50.179 19.7886 46.6381 16.2551 42.2704 16.2551C37.9023 16.2551 34.3613 19.7886 34.3613 24.1474C34.3613 28.5063 37.9023 32.0399 42.2704 32.0399Z" stroke="#005B9D" stroke-width="1.5" stroke-miterlimit="10"/>
<path d="M40.2857 92.8346C41.764 92.8346 42.9621 91.6386 42.9621 90.1634C42.9621 88.6886 41.764 87.4927 40.2857 87.4927C38.8074 87.4927 37.6094 88.6886 37.6094 90.1634C37.6094 91.6386 38.8074 92.8346 40.2857 92.8346Z" fill="#B6D9FF"/>
<path d="M246.323 201.395C250.051 201.395 253.074 198.379 253.074 194.658C253.074 190.938 250.051 187.922 246.323 187.922C242.594 187.922 239.572 190.938 239.572 194.658C239.572 198.379 242.594 201.395 246.323 201.395Z" fill="#B6D9FF"/>
<path d="M218.495 65.0637C223.341 67.6801 225.144 73.7206 222.523 78.5563C219.901 83.3917 213.847 85.191 209.002 82.575" stroke="#133540" stroke-width="1.5" stroke-miterlimit="10"/>
<path d="M199.981 161.174H188.707C184.045 161.174 180.266 157.402 180.266 152.75V148.532C180.266 143.879 184.045 140.108 188.707 140.108H199.981C204.643 140.108 208.423 143.879 208.423 148.532V152.75C208.423 157.402 204.643 161.174 199.981 161.174Z" fill="white"/>
<path d="M214.796 133.076L197.197 150.966L188.858 146.155L188.645 146.394L195.74 155.935L197.13 157.803L200.059 154.314L215.694 134.089C215.899 133.884 215.951 133.572 215.823 133.312C215.633 132.926 215.136 132.812 214.796 133.076Z" fill="#B6D9FF"/>
<path d="M285.518 12.8498L287.143 13.3222L288.216 14.6279L289.439 13.4597L291.109 13.1847L290.706 11.5441L291.302 9.9634L289.677 9.49101L288.604 8.1853L287.381 9.35349L285.711 9.6285L286.114 11.2691L285.518 12.8498Z" fill="#B6D9FF"/>
<path d="M160.073 203.06H135.47C134.496 203.06 133.707 202.272 133.707 201.3C133.707 200.328 134.496 199.54 135.47 199.54H160.073C161.047 199.54 161.837 200.328 161.837 201.3C161.837 202.272 161.047 203.06 160.073 203.06Z" fill="#0774F4"/>
<path d="M184.228 46.9997H111.317C107.011 46.9997 103.52 43.5158 103.52 39.2183C103.52 34.9212 107.011 31.4373 111.317 31.4373H184.228C188.534 31.4373 192.026 34.9212 192.026 39.2183C192.026 43.5158 188.534 46.9997 184.228 46.9997Z" fill="#0774F4"/>
<path d="M117.907 13.141H103.292C102.535 13.141 101.922 12.5289 101.922 11.7737C101.922 11.0186 102.535 10.4065 103.292 10.4065H117.907C118.663 10.4065 119.276 11.0186 119.276 11.7737C119.276 12.5289 118.663 13.141 117.907 13.141Z" fill="#0774F4"/>
<path d="M192.252 13.141H177.638C176.881 13.141 176.268 12.5289 176.268 11.7737C176.268 11.0186 176.881 10.4065 177.638 10.4065H192.252C193.009 10.4065 193.622 11.0186 193.622 11.7737C193.622 12.5289 193.009 13.141 192.252 13.141Z" fill="#0774F4"/>
<path d="M12.1172 43.606V100.036" stroke="#005B9D" stroke-width="1.5" stroke-miterlimit="10"/>
<path d="M18.5117 56.8538V113.284" stroke="#005B9D" stroke-width="1.5" stroke-miterlimit="10"/>
<path d="M24.9062 70.1021V126.532" stroke="#005B9D" stroke-width="1.5" stroke-miterlimit="10"/>
<path d="M182.236 86.0598H200.047" stroke="#133540" stroke-width="1.5" stroke-miterlimit="10" stroke-linecap="round"/>
<path d="M182.236 88.5664H200.047" stroke="#133540" stroke-width="1.5" stroke-miterlimit="10" stroke-linecap="round"/>
<path d="M182.236 91.0732H200.047" stroke="#133540" stroke-width="1.5" stroke-miterlimit="10" stroke-linecap="round"/>
<path d="M182.236 93.5796H200.047" stroke="#133540" stroke-width="1.5" stroke-miterlimit="10" stroke-linecap="round"/>
<path d="M98.1656 96.9446L89.6992 102.534L95.3004 110.983L103.767 105.393L98.1656 96.9446Z" stroke="#005B9D" stroke-width="1.5" stroke-miterlimit="10" stroke-linecap="round"/>
<path d="M37.6324 194.047L29.2633 188.314L23.5176 196.665L31.8869 202.399L37.6324 194.047Z" stroke="#005B9D" stroke-width="1.5" stroke-miterlimit="10" stroke-linecap="round"/>
<path d="M183.446 49.8815H108.067C103.76 49.8815 100.27 46.3976 100.27 42.1001C100.27 37.8026 103.76 34.3191 108.067 34.3191H183.446C187.753 34.3191 191.244 37.8026 191.244 42.1001C191.244 46.3976 187.753 49.8815 183.446 49.8815Z" stroke="#FFE458" stroke-width="1.5" stroke-miterlimit="10"/>
<path d="M108.738 65.0637H189.29" stroke="black" stroke-opacity="0.15" stroke-width="1.5" stroke-miterlimit="10"/>
</g>
<defs>
<filter id="filter0_b" x="-15.1419" y="-16.6097" width="325.828" height="259.143" filterUnits="userSpaceOnUse" color-interpolation-filters="sRGB">
<feFlood flood-opacity="0" result="BackgroundImageFix"/>
<feGaussianBlur in="BackgroundImage" stdDeviation="43.7819"/>
<feComposite in2="SourceAlpha" operator="in" result="effect1_backgroundBlur"/>
<feBlend mode="normal" in="SourceGraphic" in2="effect1_backgroundBlur" result="shape"/>
</filter>
<clipPath id="clip0">
<rect width="300" height="220" fill="white"/>
</clipPath>
</defs>
</svg>
