<svg viewBox="0 0 300 220" fill="none" xmlns="http://www.w3.org/2000/svg">
<g clip-path="url(#clip0)">
<path opacity="0.8" d="M257.789 12.5653H252.566C252.164 12.5653 251.803 12.2435 251.803 11.801V1.74569C251.803 1.34345 252.124 0.981476 252.566 0.981476H257.789C258.191 0.981476 258.552 1.30326 258.552 1.74569V11.801C258.552 12.2435 258.231 12.5653 257.789 12.5653Z" fill="#3F6AF7"/>
<g opacity="0.2" >
<path d="M26.7701 152.082C61.484 110.1 -2.06314 32.9197 49.1968 14.5657C82.2639 2.72594 145.357 58.4213 179.288 67.4835C225.849 79.9184 282.161 56.2972 293.649 88.0951C302.129 111.567 286.361 148.714 245.432 141.979C213.746 136.765 188.112 246.848 155.163 205.405C133.297 177.901 67.5356 225.174 33.3589 220.446C2.09246 216.12 -13.1423 200.352 26.7701 152.082Z" fill="#3F6AF7"/>
</g>
<path d="M59.7997 208.773L46.4609 201.091C45.2956 200.407 43.367 200.407 42.2021 201.091L29.6668 208.371C28.5017 209.055 28.5017 210.141 29.6668 210.825L43.0054 218.507C44.1707 219.19 46.0993 219.19 47.2642 218.507L59.8396 211.187C60.9646 210.543 60.9646 209.457 59.7997 208.773Z" fill="#B6D3FF"/>
<path d="M39.2017 196.686L25.8631 189.004C24.698 188.32 22.7695 188.32 21.6044 189.004L9.06916 196.284C7.90403 196.967 7.90403 198.053 9.06916 198.737L22.4079 206.419C23.573 207.103 25.5015 207.103 26.6667 206.419L39.242 199.099C40.367 198.456 40.367 197.37 39.2017 196.686Z" fill="#B6D3FF"/>
<path opacity="0.9" d="M135.775 52.312H130.552C130.151 52.312 129.789 51.99 129.789 51.5478V46.3189C129.789 45.9166 130.11 45.5546 130.552 45.5546H135.775C136.177 45.5546 136.539 45.8767 136.539 46.3189V51.5478C136.539 51.95 136.177 52.312 135.775 52.312Z" fill="#B6D3FF"/>
<path opacity="0.9" d="M242.967 61.1196H237.744C237.342 61.1196 236.98 60.7979 236.98 60.3554V57.1379C236.98 56.7356 237.302 56.3736 237.744 56.3736H242.967C243.369 56.3736 243.73 56.6953 243.73 57.1379V60.3554C243.73 60.7979 243.409 61.1196 242.967 61.1196Z" fill="#B6D3FF"/>
<path opacity="0.8" d="M228.621 12.5653H223.398C222.996 12.5653 222.635 12.2435 222.635 11.801V1.74569C222.635 1.34345 222.956 0.981476 223.398 0.981476H228.621C229.023 0.981476 229.385 1.30326 229.385 1.74569V11.801C229.385 12.2435 229.063 12.5653 228.621 12.5653Z" fill="#3F6AF7"/>
<path opacity="0.9" d="M209.176 5.72763H203.953C203.551 5.72763 203.189 5.40584 203.189 4.96341V1.74569C203.189 1.34345 203.511 0.981476 203.953 0.981476H209.176C209.577 0.981476 209.939 1.30326 209.939 1.74569V4.96341C209.939 5.40584 209.618 5.72763 209.176 5.72763Z" fill="#B6D3FF"/>
<path opacity="0.9" d="M238.344 12.6459H233.121C232.719 12.6459 232.357 12.3242 232.357 11.8817V8.66401C232.357 8.26176 232.679 7.89979 233.121 7.89979H238.344C238.746 7.89979 239.107 8.22157 239.107 8.66401V11.8817C239.107 12.3242 238.786 12.6459 238.344 12.6459Z" fill="#B6D3FF"/>
<path opacity="0.8" d="M218.898 5.72763H213.675C213.274 5.72763 212.912 5.40584 212.912 4.96341V1.74569C212.912 1.34345 213.233 0.981476 213.675 0.981476H218.898C219.3 0.981476 219.662 1.30326 219.662 1.74569V4.96341C219.662 5.40584 219.34 5.72763 218.898 5.72763Z" fill="#3F6AF7"/>
<path opacity="0.8" d="M248.067 12.6459H242.843C242.442 12.6459 242.08 12.3242 242.08 11.8817V8.66401C242.08 8.26176 242.401 7.89979 242.843 7.89979H248.067C248.468 7.89979 248.83 8.22157 248.83 8.66401V11.8817C248.83 12.3242 248.508 12.6459 248.067 12.6459Z" fill="#3F6AF7"/>
<path opacity="0.9" d="M257.789 12.6459H252.566C252.164 12.6459 251.803 12.3242 251.803 11.8817V8.66401C251.803 8.26176 252.124 7.89979 252.566 7.89979H257.789C258.191 7.89979 258.552 8.22157 258.552 8.66401V11.8817C258.552 12.3242 258.231 12.6459 257.789 12.6459Z" fill="#305EED"/>
<path opacity="0.9" d="M228.621 5.72763H223.398C222.996 5.72763 222.635 5.40584 222.635 4.96341V1.74569C222.635 1.34345 222.956 0.981476 223.398 0.981476H228.621C229.023 0.981476 229.385 1.30326 229.385 1.74569V4.96341C229.385 5.40584 229.063 5.72763 228.621 5.72763Z" fill="#B6D3FF"/>
<path opacity="0.8" d="M238.344 5.72763H233.121C232.719 5.72763 232.357 5.40584 232.357 4.96341V1.74569C232.357 1.34345 232.679 0.981476 233.121 0.981476H238.344C238.746 0.981476 239.107 1.30326 239.107 1.74569V4.96341C239.107 5.40584 238.786 5.72763 238.344 5.72763Z" fill="#3F6AF7"/>
<path opacity="0.8" d="M248.067 5.72763H242.843C242.442 5.72763 242.08 5.40584 242.08 4.96341V1.74569C242.08 1.34345 242.401 0.981476 242.843 0.981476H248.067C248.468 0.981476 248.83 1.30326 248.83 1.74569V4.96341C248.83 5.40584 248.508 5.72763 248.067 5.72763Z" fill="#3F6AF7"/>
<path opacity="0.8" d="M267.512 12.5653H262.288C261.887 12.5653 261.525 12.2435 261.525 11.801V1.74569C261.525 1.34345 261.847 0.981476 262.288 0.981476H267.512C267.913 0.981476 268.275 1.30326 268.275 1.74569V11.801C268.275 12.2435 267.954 12.5653 267.512 12.5653Z" fill="#3F6AF7"/>
<path opacity="0.9" d="M242.967 74.5135H237.744C237.342 74.5135 236.98 74.1918 236.98 73.7492V70.5314C236.98 70.1295 237.302 69.7675 237.744 69.7675H242.967C243.369 69.7675 243.73 70.0892 243.73 70.5314V73.7492C243.73 74.1918 243.409 74.5135 242.967 74.5135Z" fill="#B6D3FF"/>
<path opacity="0.87" d="M220.631 125.354L231.559 131.669C234.331 133.277 234.331 135.851 231.599 137.46L105.082 211.025C102.35 212.634 97.8498 212.634 95.1179 211.025L32.2811 174.705C29.5089 173.097 29.5089 170.522 32.2409 168.914L158.718 95.3484C161.45 93.7397 165.95 93.7397 168.682 95.3484L179.61 101.663L220.631 125.354ZM232.563 131.065L169.726 94.745C166.392 92.8146 161.008 92.8146 157.714 94.745L137.103 106.731L108.698 123.262L108.175 123.544L79.8105 140.075L31.1964 168.351C27.9018 170.281 27.9018 173.378 31.2365 175.309L94.0734 211.629C97.4081 213.559 102.792 213.559 106.086 211.629L186.641 164.771L215.046 148.24L232.563 138.024C235.898 136.133 235.858 132.996 232.563 131.065Z" fill="#B6D3FF"/>
<path d="M236.981 114.493C236.981 114.541 236.981 114.589 236.973 114.637C236.961 114.704 236.942 114.771 236.921 114.835C236.899 114.9 236.884 114.967 236.867 115.033C236.854 115.081 236.845 115.129 236.82 115.177C236.781 115.258 236.78 115.298 236.74 115.378C236.715 115.429 236.69 115.479 236.665 115.529C236.635 115.589 236.596 115.644 236.559 115.7C236.522 115.755 236.485 115.812 236.449 115.868C236.407 115.934 236.353 116.007 236.298 116.062C236.258 116.102 236.218 116.183 236.178 116.223C236.057 116.343 235.977 116.464 235.856 116.585C235.816 116.625 235.776 116.666 235.736 116.705C235.692 116.749 235.649 116.781 235.606 116.813C235.529 116.871 235.451 116.93 235.374 116.987C235.297 117.045 235.219 117.104 235.137 117.154C235.079 117.189 235.019 117.222 234.972 117.269C234.892 117.349 234.771 117.389 234.651 117.47L232.9 118.494C232.091 118.967 231.075 118.383 231.075 117.446V114.212C231.075 113.89 230.874 113.608 230.473 113.367L165.989 76.0819C165.914 76.0446 165.805 75.9727 165.725 75.9301C165.713 75.9241 165.701 75.9211 165.687 75.9211C165.674 75.9211 165.661 75.9177 165.649 75.9124C165.595 75.8872 165.559 75.88 165.51 75.8605C165.481 75.8484 165.45 75.8427 165.419 75.8382C165.405 75.836 165.391 75.8318 165.378 75.8247C165.355 75.8122 165.305 75.8002 165.305 75.8002H165.265C165.185 75.8002 165.145 75.7603 165.065 75.7603C165.024 75.7603 165.024 75.7603 164.984 75.7603H164.944C164.904 75.7603 164.904 75.7603 164.864 75.7603C164.783 75.7603 164.743 75.7603 164.663 75.7603C164.623 75.7603 164.623 75.7603 164.582 75.7603H164.542C164.502 75.7603 164.462 75.7603 164.462 75.7603C164.381 75.7603 164.301 75.7603 164.221 75.7603C164.221 75.7603 164.221 75.7603 164.18 75.7603H164.14C164.089 75.7603 164.054 75.7603 164.014 75.7708C163.963 75.7844 163.912 75.8002 163.859 75.8002C163.779 75.8002 163.739 75.8405 163.658 75.8405C163.624 75.8405 163.589 75.8405 163.554 75.8665C163.543 75.8748 163.54 75.8789 163.527 75.8823C163.503 75.8887 163.481 75.9249 163.457 75.932C163.337 75.9686 163.238 76.0254 163.143 76.0642C163.112 76.077 163.081 76.0902 163.052 76.1072L33.3555 151.56C33.3469 151.564 33.3049 151.578 33.295 151.578C33.2924 151.578 33.283 151.579 33.2812 151.58C33.242 151.618 33.2028 151.619 33.1636 151.658C33.1234 151.698 33.043 151.738 33.0028 151.779C32.967 151.815 32.9313 151.85 32.8955 151.886C32.887 151.895 32.8837 151.896 32.8813 151.908C32.8762 151.932 32.8471 151.955 32.8279 151.972C32.8187 151.979 32.7972 151.984 32.7887 151.993L32.7618 152.02C32.7216 152.06 32.7216 152.1 32.7216 152.141C32.7216 152.141 32.7216 152.141 32.7216 152.181C32.7216 152.241 32.6814 152.295 32.6814 152.356C32.6814 152.364 32.6814 152.373 32.6814 152.382V155.584C32.6814 156.52 31.6689 157.104 30.8603 156.635L29.1458 155.64C27.5789 154.715 26.7754 153.548 26.7754 152.342V162.035C26.7754 163.242 27.5388 164.408 29.1458 165.333L93.6299 202.619C93.8308 202.739 94.0317 202.82 94.2326 202.94C94.2819 202.965 94.3161 202.975 94.3538 202.988C94.4083 203.007 94.461 203.029 94.5137 203.052C94.6017 203.092 94.6901 203.144 94.7782 203.176C94.7895 203.18 94.8011 203.182 94.8128 203.182C94.8275 203.182 94.8421 203.185 94.8557 203.19C95.1224 203.303 95.3892 203.38 95.656 203.457C95.671 203.461 95.6872 203.462 95.703 203.464C95.7478 203.468 95.7854 203.502 95.8287 203.514C95.8573 203.522 95.8828 203.533 95.9133 203.539C95.9438 203.545 95.9754 203.547 96.0059 203.555C96.1097 203.581 96.214 203.607 96.3178 203.633C96.4006 203.654 96.4777 203.705 96.5627 203.705C96.5657 203.705 96.5687 203.705 96.5718 203.705C96.7023 203.71 96.8272 203.766 96.9563 203.784C96.9721 203.786 96.9875 203.788 97.0029 203.791C97.1121 203.807 97.2159 203.865 97.3261 203.865C97.4627 203.865 97.5982 203.907 97.7332 203.927C97.8017 203.937 97.8702 203.946 97.9289 203.946C97.9458 203.946 97.9613 203.946 97.9756 203.946C98.0813 203.949 98.1847 203.986 98.2905 203.986C98.3529 203.986 98.4259 203.986 98.4989 203.992C98.6287 204.002 98.7585 204.026 98.8891 204.026C98.8902 204.026 98.8917 204.026 98.8932 204.026C98.9331 204.026 99.0136 204.026 99.0539 204.026C99.2145 204.026 99.3349 204.026 99.4956 204.026C99.5761 204.026 99.6562 204.026 99.6965 204.026C99.7368 204.026 99.777 204.026 99.8173 204.026C99.978 204.026 100.179 203.986 100.34 203.986C100.42 203.986 100.5 203.986 100.54 203.986C100.58 203.986 100.58 203.986 100.621 203.986C100.942 203.946 101.223 203.906 101.545 203.865H101.585C101.617 203.865 101.648 203.859 101.679 203.852C101.776 203.829 101.874 203.811 101.972 203.796C102.069 203.781 102.159 203.772 102.268 203.745C102.389 203.705 102.469 203.705 102.59 203.664C102.702 203.627 102.849 203.589 102.966 203.552C102.983 203.547 103 203.545 103.017 203.543C103.06 203.537 103.096 203.5 103.136 203.484C103.149 203.479 103.163 203.473 103.179 203.469C103.214 203.461 103.249 203.457 103.281 203.444C103.471 203.37 103.69 203.296 103.875 203.222C104.026 203.146 104.194 203.102 104.347 203.03C104.526 202.947 104.712 202.863 104.879 202.779L234.601 127.313C234.634 127.294 234.687 127.279 234.716 127.256C234.735 127.242 234.742 127.239 234.762 127.227C234.788 127.213 234.81 127.198 234.832 127.183C234.896 127.14 234.96 127.093 235.025 127.052C235.049 127.037 235.073 127.022 235.097 127.008C235.179 126.958 235.257 126.899 235.334 126.842C235.411 126.784 235.489 126.726 235.566 126.668C235.609 126.635 235.652 126.603 235.695 126.56L235.736 126.519C235.776 126.48 235.776 126.48 235.816 126.439C235.906 126.349 235.996 126.259 236.07 126.168C236.118 126.11 236.165 126.05 236.218 125.997C236.261 125.954 236.283 125.893 236.317 125.843C236.364 125.773 236.401 125.693 236.459 125.635C236.493 125.601 236.498 125.567 236.523 125.533C236.532 125.52 236.537 125.515 236.542 125.5C236.549 125.478 236.586 125.461 236.597 125.44C236.623 125.387 236.649 125.335 236.675 125.283C236.691 125.249 236.716 125.22 236.732 125.187C236.744 125.161 236.752 125.131 236.772 125.09C236.777 125.078 236.781 125.065 236.781 125.052C236.781 125.038 236.784 125.025 236.789 125.013C236.804 124.979 236.812 124.945 236.82 124.911C236.841 124.829 236.872 124.748 236.894 124.667C236.898 124.653 236.901 124.64 236.901 124.629V124.589C236.901 124.508 236.941 124.428 236.941 124.348C236.941 124.307 236.941 124.227 236.941 124.187C236.941 124.146 236.941 124.146 236.941 124.106L236.981 114.493C236.981 114.332 236.981 114.413 236.981 114.493ZM104.156 193.368C104.149 193.371 104.143 193.374 104.136 193.378C103.997 193.446 103.842 193.478 103.698 193.534C103.589 193.577 103.477 193.619 103.354 193.662C103.3 193.68 103.247 193.704 103.191 193.719C103.165 193.727 103.138 193.733 103.112 193.74C103.057 193.755 103.004 193.779 102.949 193.796C102.844 193.827 102.724 193.859 102.629 193.89C102.509 193.931 102.428 193.931 102.308 193.971C102.218 193.994 102.141 194.016 102.062 194.031C101.934 194.057 101.803 194.071 101.675 194.098C101.667 194.1 101.659 194.101 101.65 194.103C101.579 194.119 101.509 194.137 101.436 194.147C101.182 194.182 100.902 194.217 100.621 194.252C100.432 194.252 100.241 194.295 100.054 194.316C99.9719 194.325 99.8903 194.333 99.8173 194.333C99.6965 194.333 99.5761 194.333 99.4553 194.333C99.2947 194.333 99.1743 194.333 99.0136 194.333C98.8932 194.333 98.7724 194.333 98.652 194.333C98.5854 194.333 98.5068 194.333 98.4293 194.326C98.3089 194.316 98.19 194.298 98.0692 194.288C97.9488 194.278 97.8266 194.252 97.7069 194.235C97.6301 194.224 97.5526 194.212 97.4868 194.212C97.4157 194.212 97.3446 194.198 97.2738 194.187C97.1756 194.171 97.0767 194.158 96.9789 194.143C96.8822 194.128 96.7919 194.119 96.6831 194.092C96.5627 194.051 96.4826 194.051 96.3618 194.011C96.2444 193.982 96.1267 193.952 96.0089 193.923C95.9231 193.901 95.8392 193.87 95.7523 193.853C95.7369 193.85 95.7214 193.847 95.706 193.843C95.6326 193.828 95.5623 193.8 95.4908 193.777C95.2455 193.7 95.0002 193.599 94.7548 193.528C94.6597 193.497 94.5396 193.44 94.4339 193.398C94.3805 193.376 94.3278 193.353 94.2736 193.335C94.2356 193.321 94.2018 193.312 94.1521 193.287C93.9512 193.207 93.7503 193.086 93.5493 192.965L37.7492 160.71C36.9418 160.244 36.9403 159.078 37.7462 158.609L163.016 85.7351C163.088 85.6866 163.175 85.653 163.259 85.6248C163.363 85.5901 163.468 85.534 163.578 85.534C163.658 85.534 163.699 85.4937 163.779 85.4937C163.859 85.4937 163.94 85.4534 164.02 85.4534H164.06C164.18 85.4534 164.301 85.4534 164.422 85.4534H164.462C164.582 85.4534 164.703 85.4534 164.824 85.4534H164.864C164.984 85.4534 165.105 85.4937 165.185 85.4937C165.238 85.4937 165.29 85.5073 165.341 85.5201C165.402 85.5351 165.47 85.543 165.525 85.5645C165.54 85.5702 165.555 85.5743 165.57 85.5743C165.581 85.5743 165.592 85.5758 165.602 85.5796C165.714 85.618 165.793 85.6579 165.908 85.7351L225.968 120.444C226.775 120.911 226.776 122.076 225.971 122.545L104.92 193.006C104.678 193.126 104.438 193.247 104.156 193.368Z" fill="#305EED"/>
<path opacity="0.94" d="M234.652 110.954L170.168 73.6686C167.034 71.8587 161.971 71.8587 158.878 73.6686L29.1062 149.205C26.0126 151.014 26.0126 153.951 29.1464 155.761L93.6305 193.046C96.7642 194.856 101.786 194.856 104.92 193.046L234.692 117.55C237.785 115.7 237.745 112.764 234.652 110.954ZM230.513 115.097L100.742 190.592C99.9383 191.075 98.6124 191.075 97.8087 190.592L33.3248 153.307C32.5213 152.825 32.4811 152.06 33.3248 151.578L163.096 76.0819C163.9 75.5994 165.226 75.5994 166.029 76.0819L230.473 113.367C231.317 113.85 231.317 114.614 230.513 115.097Z" fill="#3F6AF7"/>
<path d="M231.92 111.196L169.083 74.8758C165.748 72.9454 160.364 72.9454 157.07 74.8758L136.499 86.8218L108.094 103.353L107.572 103.634L79.1669 120.165L30.5928 148.441C27.2983 150.371 27.2983 153.469 30.633 155.399L93.4697 191.76C96.8044 193.69 102.188 193.69 105.483 191.76L186.037 144.902L214.443 128.37L231.96 118.154C235.294 116.224 235.254 113.127 231.92 111.196Z" fill="white"/>
<path fill-rule="evenodd" clip-rule="evenodd" d="M269.645 59.1496C268.957 59.1496 268.399 59.7079 268.399 60.3964C268.399 61.085 268.957 61.6432 269.645 61.6432C270.333 61.6432 270.89 61.085 270.89 60.3964C270.89 59.7079 270.333 59.1496 269.645 59.1496ZM267.596 60.3964C267.596 59.2638 268.513 58.3451 269.645 58.3451C270.776 58.3451 271.694 59.2638 271.694 60.3964C271.694 61.5294 270.776 62.4477 269.645 62.4477C268.513 62.4477 267.596 61.5294 267.596 60.3964Z" fill="#5A516F"/>
<path fill-rule="evenodd" clip-rule="evenodd" d="M269.645 72.5435C268.957 72.5435 268.399 73.1017 268.399 73.7903C268.399 74.4788 268.957 75.037 269.645 75.037C270.333 75.037 270.89 74.4788 270.89 73.7903C270.89 73.1017 270.333 72.5435 269.645 72.5435ZM267.596 73.7903C267.596 72.6573 268.513 71.7389 269.645 71.7389C270.776 71.7389 271.694 72.6573 271.694 73.7903C271.694 74.9229 270.776 75.8416 269.645 75.8416C268.513 75.8416 267.596 74.9229 267.596 73.7903Z" fill="#B6D3FF"/>
<path fill-rule="evenodd" clip-rule="evenodd" d="M248.029 70.8139C248.029 70.592 248.21 70.4116 248.431 70.4116H254.458C254.679 70.4116 254.859 70.592 254.859 70.8139C254.859 71.0361 254.679 71.2161 254.458 71.2161H248.431C248.21 71.2161 248.029 71.0361 248.029 70.8139Z" fill="#5A516F"/>
<path fill-rule="evenodd" clip-rule="evenodd" d="M248.029 73.7891C248.029 73.5669 248.21 73.3869 248.431 73.3869H264.542C264.764 73.3869 264.944 73.5669 264.944 73.7891C264.944 74.011 264.764 74.1914 264.542 74.1914H248.431C248.21 74.1914 248.029 74.011 248.029 73.7891Z" fill="#B6D3FF"/>
<path fill-rule="evenodd" clip-rule="evenodd" d="M248.029 57.4189C248.029 57.1966 248.21 57.0166 248.431 57.0166H254.458C254.679 57.0166 254.859 57.1966 254.859 57.4189C254.859 57.6411 254.679 57.8211 254.458 57.8211H248.431C248.21 57.8211 248.029 57.6411 248.029 57.4189Z" fill="#5A516F"/>
<path fill-rule="evenodd" clip-rule="evenodd" d="M248.029 60.3953C248.029 60.1731 248.21 59.993 248.431 59.993H264.542C264.764 59.993 264.944 60.1731 264.944 60.3953C264.944 60.6175 264.764 60.7976 264.542 60.7976H248.431C248.21 60.7976 248.029 60.6175 248.029 60.3953Z" fill="#B6D3FF"/>
<path fill-rule="evenodd" clip-rule="evenodd" d="M241.402 40.8079C239.696 40.8079 238.349 42.1559 238.349 43.8645C238.349 45.57 239.732 46.9215 241.402 46.9215C242.856 46.9215 244.099 45.8917 244.383 44.4694C244.427 44.2517 244.638 44.1105 244.856 44.1538C245.073 44.1975 245.214 44.4095 245.171 44.6273C244.812 46.4224 243.242 47.7257 241.402 47.7257C239.295 47.7257 237.545 46.0202 237.545 43.8645C237.545 41.7119 239.252 40.0033 241.402 40.0033C241.795 40.0033 242.168 40.047 242.548 40.1897C242.755 40.2677 242.861 40.4997 242.783 40.7077C242.705 40.9156 242.473 41.021 242.265 40.9431C242.003 40.8444 241.733 40.8079 241.402 40.8079Z" fill="#305EED"/>
<path fill-rule="evenodd" clip-rule="evenodd" d="M248.029 42.377C248.029 42.1548 248.21 41.9747 248.431 41.9747H254.458C254.679 41.9747 254.859 42.1548 254.859 42.377C254.859 42.5993 254.679 42.7793 254.458 42.7793H248.431C248.21 42.7793 248.029 42.5993 248.029 42.377Z" fill="#5A516F"/>
<path fill-rule="evenodd" clip-rule="evenodd" d="M248.029 45.3538C248.029 45.1316 248.21 44.9515 248.431 44.9515H264.542C264.764 44.9515 264.944 45.1316 264.944 45.3538C264.944 45.5757 264.764 45.7557 264.542 45.7557H248.431C248.21 45.7557 248.029 45.5757 248.029 45.3538Z" fill="#B6D3FF"/>
<path fill-rule="evenodd" clip-rule="evenodd" d="M246.127 39.8624C246.293 40.0093 246.309 40.2636 246.163 40.4301L242.814 44.2314C242.364 44.7425 241.582 44.7828 241.082 44.3206L240.647 43.9187C240.484 43.7681 240.474 43.5138 240.624 43.3503C240.775 43.1872 241.029 43.1771 241.192 43.3277C241.599 43.704 242.236 43.6713 242.603 43.255L245.56 39.8982C245.707 39.7317 245.961 39.7155 246.127 39.8624Z" fill="#305EED"/>
<path fill-rule="evenodd" clip-rule="evenodd" d="M241.402 26.8916C239.696 26.8916 238.349 28.24 238.349 29.9485C238.349 31.6539 239.732 33.0053 241.402 33.0053C242.856 33.0053 244.099 31.9757 244.383 30.5534C244.427 30.3355 244.638 30.1943 244.856 30.2378C245.073 30.2814 245.214 30.4933 245.171 30.7111C244.812 32.5065 243.242 33.8097 241.402 33.8097C239.295 33.8097 237.545 32.1043 237.545 29.9485C237.545 27.7957 239.252 26.0872 241.402 26.0872C241.795 26.0872 242.168 26.131 242.548 26.2737C242.755 26.3517 242.861 26.5836 242.783 26.7916C242.705 26.9995 242.473 27.1049 242.265 27.0269C242.003 26.9283 241.733 26.8916 241.402 26.8916Z" fill="#305EED"/>
<path fill-rule="evenodd" clip-rule="evenodd" d="M248.029 28.5007C248.029 28.2786 248.21 28.0985 248.431 28.0985H254.458C254.679 28.0985 254.859 28.2786 254.859 28.5007C254.859 28.7229 254.679 28.903 254.458 28.903H248.431C248.21 28.903 248.029 28.7229 248.029 28.5007Z" fill="#5A516F"/>
<path fill-rule="evenodd" clip-rule="evenodd" d="M248.029 31.4758C248.029 31.2537 248.21 31.0736 248.431 31.0736H264.542C264.764 31.0736 264.944 31.2537 264.944 31.4758C264.944 31.698 264.764 31.878 264.542 31.878H248.431C248.21 31.878 248.029 31.698 248.029 31.4758Z" fill="#B6D3FF"/>
<path fill-rule="evenodd" clip-rule="evenodd" d="M246.127 25.9862C246.293 26.1331 246.309 26.3873 246.163 26.5539L242.814 30.3551C242.364 30.8663 241.582 30.9065 241.082 30.4443L240.647 30.0424C240.484 29.8918 240.474 29.6373 240.624 29.4741C240.775 29.3108 241.029 29.3007 241.192 29.4513C241.599 29.8278 242.236 29.795 242.603 29.3788L245.56 26.0218C245.707 25.8552 245.961 25.8393 246.127 25.9862Z" fill="#305EED"/>
<path d="M214.763 128.531L214.442 128.33L186.037 144.861L186.358 145.062C187.202 145.545 188.608 145.545 189.452 145.062L214.763 130.341C215.648 129.859 215.607 129.054 214.763 128.531Z" fill="#3F6AF7"/>
<path d="M136.499 86.8218L136.298 86.7013C135.454 86.2184 134.048 86.2184 133.204 86.7013L107.893 101.422C107.049 101.905 107.049 102.709 107.893 103.232L108.094 103.353L136.499 86.8218Z" fill="#305EED"/>
<path d="M107.573 103.675L107.372 103.554C106.528 103.071 105.122 103.071 104.278 103.554L78.9669 118.275C78.123 118.758 78.123 119.562 78.9669 120.085L79.1678 120.206L107.573 103.675Z" fill="#305EED"/>
<path d="M218.982 106.127C219.454 105.837 219.445 105.147 218.965 104.87L180.051 82.3964C179.405 82.0231 178.608 82.0231 177.962 82.3964C176.797 83.08 176.797 84.2063 177.962 84.8903L214.684 106.127C215.889 106.811 217.818 106.811 218.982 106.127Z" fill="#3F6AF7"/>
<path d="M220.027 105.485L230.955 111.799C233.727 113.408 233.727 115.982 230.995 117.591L104.478 191.156C101.746 192.765 97.2465 192.765 94.5145 191.156L31.6374 154.836C28.8652 153.227 28.8652 150.653 31.5972 149.045L158.074 75.4793C160.806 73.8705 165.306 73.8705 168.038 75.4793L178.966 81.7941L220.027 105.485ZM231.92 111.196L169.083 74.8758C165.748 72.9454 160.364 72.9454 157.07 74.8758L136.499 86.8218L108.094 103.353L107.572 103.634L79.1669 120.165L30.5928 148.441C27.2983 150.371 27.2983 153.469 30.633 155.399L93.4697 191.76C96.8044 193.69 102.188 193.69 105.483 191.76L186.037 144.902L214.443 128.37L231.96 118.154C235.294 116.224 235.254 113.127 231.92 111.196Z" fill="#B6D3FF"/>
<path opacity="0.8" d="M165.627 89.2747L154.377 82.7587C153.573 82.3161 152.288 82.3161 151.525 82.7587L150.118 83.5629C149.315 84.0055 149.315 84.7697 150.118 85.2123L161.368 91.7279C162.172 92.1705 163.457 92.1705 164.261 91.7279L165.667 90.9237C166.43 90.4811 166.43 89.7169 165.627 89.2747Z" fill="#305EED"/>
<path opacity="0.8" d="M200.844 109.584L189.595 103.068C188.791 102.625 187.506 102.625 186.702 103.068L185.296 103.872C184.493 104.315 184.493 105.079 185.296 105.521L196.545 112.037C197.349 112.48 198.635 112.48 199.438 112.037L200.844 111.233C201.648 110.79 201.648 110.026 200.844 109.584Z" fill="#305EED"/>
<path opacity="0.8" d="M183.226 99.4108L171.977 92.8948C171.173 92.4522 169.887 92.4522 169.124 92.8948L167.718 93.6994C166.914 94.1416 166.914 94.9058 167.718 95.3484L178.967 101.864C179.771 102.307 181.056 102.307 181.86 101.864L183.266 101.06C184.03 100.617 184.03 99.8933 183.226 99.4108Z" fill="#305EED"/>
<path opacity="0.8" d="M218.38 119.762L207.131 113.246C206.327 112.804 205.041 112.804 204.278 113.246L202.872 114.051C202.069 114.493 202.069 115.258 202.872 115.7L214.122 122.216C214.925 122.658 216.211 122.658 217.014 122.216L218.421 121.412C219.184 120.969 219.184 120.205 218.38 119.762Z" fill="#305EED"/>
<path d="M212.474 124.871L145.54 86.2184C145.258 86.0576 144.816 86.0576 144.535 86.2184C144.254 86.3792 144.254 86.661 144.535 86.8218L211.43 125.475C211.711 125.635 212.153 125.635 212.434 125.475C212.756 125.314 212.756 125.032 212.474 124.871Z" fill="#3F6AF7"/>
<path d="M196.368 133.502C196.703 133.314 196.706 132.833 196.374 132.641L163.96 113.881C163.799 113.787 163.6 113.787 163.439 113.881C163.091 114.082 163.091 114.585 163.439 114.786L195.879 133.499C196.03 133.586 196.215 133.587 196.368 133.502Z" fill="#305EED"/>
<path d="M194.373 134.69C194.708 134.489 194.704 134.002 194.366 133.806L161.913 115.046C161.751 114.953 161.552 114.955 161.393 115.051C161.058 115.252 161.063 115.739 161.4 115.934L193.854 134.694C194.015 134.787 194.214 134.786 194.373 134.69Z" fill="#305EED"/>
<path d="M192.323 135.857C192.657 135.656 192.653 135.169 192.315 134.973L159.885 116.243C159.734 116.156 159.548 116.155 159.396 116.24C159.061 116.428 159.058 116.909 159.39 117.101L191.803 135.861C191.964 135.954 192.163 135.952 192.323 135.857Z" fill="#305EED"/>
<g opacity="0.8">
<path opacity="0.8" fill-rule="evenodd" clip-rule="evenodd" d="M138.708 93.1099C138.709 93.1099 138.709 93.1103 138.709 93.1103L152.043 100.83C152.703 101.196 153.12 101.751 153.12 102.386C153.12 103.022 152.704 103.577 152.043 103.943L139.473 111.261C139.472 111.261 139.472 111.261 139.472 111.261C138.812 111.648 137.965 111.829 137.14 111.829C136.316 111.829 135.468 111.648 134.809 111.261C134.809 111.261 134.808 111.261 134.808 111.261L121.469 103.578C120.815 103.194 120.396 102.641 120.396 102.004C120.396 101.368 120.815 100.815 121.469 100.431L121.47 100.43L134.044 93.1103C134.045 93.1103 134.045 93.1103 134.045 93.1103C134.704 92.7234 135.552 92.5422 136.377 92.5422C137.201 92.5422 138.049 92.723 138.708 93.1099ZM136.377 93.3468C135.655 93.3468 134.956 93.5076 134.451 93.8045L134.449 93.8052L121.875 101.125C121.875 101.125 121.875 101.125 121.875 101.125C121.364 101.425 121.2 101.756 121.2 102.004C121.2 102.253 121.364 102.584 121.874 102.884C121.874 102.884 121.875 102.884 121.875 102.884L135.214 110.566C135.72 110.863 136.418 111.024 137.14 111.024C137.862 111.024 138.561 110.863 139.066 110.566L139.068 110.566L151.647 103.243L151.651 103.241C152.153 102.963 152.317 102.635 152.317 102.386C152.317 102.138 152.153 101.809 151.651 101.532L151.647 101.53L138.305 93.8056L138.303 93.8045C137.797 93.5076 137.099 93.3468 136.377 93.3468Z" fill="#305EED"/>
</g>
<path d="M200.782 129.457L185.796 120.769C185.073 120.367 183.908 120.367 183.225 120.769L182.863 120.97C182.14 121.372 182.14 122.056 182.863 122.458L197.849 131.146C198.572 131.548 199.737 131.548 200.42 131.146L200.782 130.945C201.505 130.543 201.505 129.859 200.782 129.457Z" fill="#305EED"/>
<path d="M186.921 137.501L181.778 134.524C181.055 134.122 179.89 134.122 179.207 134.524L178.845 134.726C178.122 135.128 178.122 135.811 178.845 136.214L183.988 139.19C184.711 139.592 185.876 139.592 186.559 139.19L186.921 138.989C187.603 138.587 187.603 137.943 186.921 137.501Z" fill="#305EED"/>
<path d="M171.822 147.785C172.17 147.597 172.177 147.1 171.835 146.902L139.395 128.149C139.244 128.062 139.058 128.061 138.906 128.146C138.571 128.334 138.567 128.815 138.9 129.007L171.33 147.777C171.482 147.865 171.668 147.867 171.822 147.785Z" fill="#305EED"/>
<path d="M169.825 148.969C170.16 148.768 170.155 148.281 169.818 148.085L137.404 129.326C137.243 129.232 137.044 129.232 136.882 129.326C136.534 129.527 136.534 130.03 136.882 130.231L169.305 148.974C169.466 149.067 169.665 149.065 169.825 148.969Z" fill="#305EED"/>
<path d="M167.777 150.139C168.125 149.938 168.125 149.435 167.777 149.234L135.354 130.491C135.193 130.398 134.994 130.399 134.835 130.496C134.5 130.697 134.504 131.184 134.842 131.379L167.255 150.139C167.416 150.232 167.615 150.232 167.777 150.139Z" fill="#305EED"/>
<path opacity="0.87" d="M127.299 115.419L113.96 107.736C112.795 107.053 110.866 107.053 109.701 107.736L97.1256 115.057C95.9607 115.74 95.9607 116.826 97.1256 117.51L110.464 125.192C111.63 125.876 113.558 125.876 114.723 125.192L127.299 117.872C128.464 117.229 128.464 116.102 127.299 115.419Z" fill="#305EED"/>
<path d="M176.235 143.735L161.249 135.047C160.526 134.645 159.361 134.645 158.677 135.047L158.316 135.248C157.593 135.65 157.593 136.334 158.316 136.736L173.302 145.424C174.025 145.826 175.19 145.826 175.873 145.424L176.235 145.223C176.958 144.821 176.958 144.137 176.235 143.735Z" fill="#305EED"/>
<path d="M162.374 151.779L157.231 148.803C156.508 148.4 155.343 148.4 154.66 148.803L154.299 149.004C153.575 149.406 153.575 150.09 154.299 150.492L159.441 153.468C160.164 153.87 161.329 153.87 162.012 153.468L162.374 153.267C163.097 152.865 163.097 152.221 162.374 151.779Z" fill="#305EED"/>
<path d="M147.311 162.058C147.645 161.871 147.648 161.39 147.316 161.198L114.845 142.427C114.695 142.34 114.509 142.339 114.357 142.424C114.022 142.612 114.018 143.093 114.351 143.285L146.821 162.055C146.972 162.143 147.158 162.144 147.311 162.058Z" fill="#305EED"/>
<path d="M145.275 163.247C145.609 163.046 145.606 162.559 145.268 162.363L112.855 143.604C112.693 143.51 112.494 143.512 112.335 143.608C112 143.809 112.004 144.296 112.342 144.492L144.755 163.252C144.916 163.345 145.115 163.343 145.275 163.247Z" fill="#305EED"/>
<path d="M143.266 164.414C143.6 164.213 143.596 163.726 143.258 163.531L110.805 144.77C110.644 144.677 110.445 144.679 110.286 144.775C109.951 144.976 109.955 145.463 110.293 145.659L142.746 164.419C142.907 164.512 143.106 164.51 143.266 164.414Z" fill="#305EED"/>
<path opacity="0.87" d="M102.751 129.697L89.4523 122.015C88.287 121.331 86.3584 121.331 85.1935 122.015L72.6181 129.335C71.4528 130.018 71.4528 131.104 72.6181 131.788L85.9569 139.47C87.1218 140.154 89.0504 140.154 90.2157 139.47L102.791 132.15C103.956 131.507 103.956 130.38 102.751 129.697Z" fill="#305EED"/>
<path d="M151.686 158.013L136.7 149.325C135.977 148.923 134.812 148.923 134.129 149.325L133.767 149.526C133.044 149.928 133.044 150.612 133.767 151.014L148.753 159.702C149.476 160.104 150.641 160.104 151.324 159.702L151.686 159.501C152.409 159.099 152.409 158.415 151.686 158.013Z" fill="#305EED"/>
<path d="M137.825 166.057L132.683 163.081C131.959 162.678 130.794 162.678 130.111 163.081L129.749 163.282C129.026 163.684 129.026 164.368 129.749 164.77L134.892 167.746C135.616 168.149 136.78 168.149 137.464 167.746L137.825 167.545C138.548 167.143 138.548 166.499 137.825 166.057Z" fill="#305EED"/>
<path d="M122.774 176.319C123.109 176.118 123.104 175.631 122.767 175.436L90.2966 156.705C90.1453 156.618 89.9598 156.617 89.8078 156.702C89.473 156.89 89.4696 157.371 89.8022 157.563L122.255 176.323C122.416 176.417 122.615 176.415 122.774 176.319Z" fill="#305EED"/>
<path d="M120.714 177.507C121.063 177.319 121.07 176.822 120.728 176.624L88.3051 157.882C88.144 157.789 87.945 157.79 87.7855 157.886C87.451 158.087 87.4551 158.574 87.7934 158.77L120.223 177.5C120.375 177.587 120.561 177.59 120.714 177.507Z" fill="#305EED"/>
<path d="M118.717 178.692C119.052 178.491 119.048 178.004 118.71 177.808L86.2969 159.049C86.1355 158.955 85.9365 158.955 85.7747 159.048C85.4267 159.25 85.4267 159.752 85.7747 159.954L118.198 178.696C118.359 178.79 118.558 178.788 118.717 178.692Z" fill="#305EED"/>
<path opacity="0.87" d="M78.2419 143.976L64.9034 136.294C63.7382 135.61 61.8095 135.61 60.6447 136.294L48.0692 143.614C46.904 144.298 46.904 145.384 48.0692 146.068L61.4081 153.75C62.5729 154.434 64.5016 154.434 65.6668 153.75L78.2419 146.43C79.4071 145.786 79.4071 144.66 78.2419 143.976Z" fill="#305EED"/>
<path d="M127.178 172.292L112.192 163.605C111.469 163.202 110.304 163.202 109.621 163.605L109.259 163.806C108.536 164.208 108.536 164.892 109.259 165.294L124.245 173.982C124.968 174.384 126.134 174.384 126.816 173.982L127.178 173.781C127.861 173.338 127.861 172.694 127.178 172.292Z" fill="#305EED"/>
<path d="M113.276 180.337L108.133 177.36C107.41 176.958 106.245 176.958 105.562 177.36L105.201 177.561C104.477 177.963 104.477 178.647 105.201 179.049L110.343 182.026C111.067 182.428 112.232 182.428 112.915 182.026L113.276 181.825C114 181.422 114 180.739 113.276 180.337Z" fill="#305EED"/>
<path opacity="0.8" d="M82.3011 177.158L55.8244 161.874C55.2619 161.552 54.3781 161.552 53.8555 161.874C53.293 162.196 53.293 162.719 53.8555 163.041L80.3322 178.325C80.8947 178.646 81.7785 178.646 82.3011 178.325C82.8233 178.003 82.8233 177.48 82.3011 177.158Z" fill="#3F6AF7"/>
<path d="M133.888 96.9975C132.08 97.1587 130.352 97.6412 128.946 98.4458C125.491 100.457 125.491 103.755 128.986 105.766C130.352 106.53 131.999 107.013 133.767 107.214C132.522 106.932 131.357 106.53 130.392 105.967C126.736 103.835 126.736 100.416 130.352 98.2849C131.397 97.7218 132.602 97.2792 133.888 96.9975ZM130.634 102.749C130.111 102.468 130.111 101.985 130.634 101.704C131.718 101.1 133.446 101.1 134.53 101.704L137.825 103.594C138.91 104.197 138.91 105.243 137.825 105.847C137.343 106.128 136.499 106.128 136.017 105.847L130.634 102.749ZM136.901 102.186C135.856 101.583 135.856 100.618 136.901 100.014C137.946 99.4108 139.633 99.4108 140.677 100.014C141.722 100.618 141.722 101.583 140.677 102.186C139.633 102.789 137.946 102.789 136.901 102.186ZM141.561 98.4857C140.236 97.7218 138.588 97.2389 136.861 97.0378C134.651 97.0378 132.401 97.5606 130.714 98.526C127.299 100.497 127.299 103.755 130.754 105.726C132.401 106.691 134.571 107.174 136.74 107.214C138.508 107.053 140.236 106.57 141.602 105.766C145.097 103.755 145.057 100.497 141.561 98.4857Z" fill="#3F6AF7"/>
<path opacity="0.8" d="M136.9 97.037C139.19 97.037 141.44 97.5195 143.208 98.5248C146.663 100.496 146.663 103.754 143.248 105.725C141.48 106.77 139.15 107.253 136.82 107.213C134.65 107.173 132.481 106.69 130.833 105.725C127.378 103.754 127.378 100.496 130.793 98.5248C132.441 97.5598 134.65 97.037 136.9 97.037ZM143.57 98.2838C140.958 96.7552 137.181 96.353 133.887 96.9967C132.601 97.2378 131.396 97.6803 130.351 98.2838C126.736 100.415 126.736 103.834 130.392 105.966C131.396 106.529 132.561 106.972 133.767 107.213C137.101 107.937 140.958 107.494 143.61 105.966C147.226 103.834 147.226 100.415 143.57 98.2838Z" fill="#305EED"/>
<path d="M137.786 103.553L134.491 101.662C133.406 101.059 131.679 101.059 130.594 101.662C130.112 101.944 130.112 102.427 130.594 102.708L135.938 105.805C136.46 106.087 137.263 106.087 137.746 105.805C138.871 105.202 138.871 104.197 137.786 103.553Z" fill="#B6D3FF"/>
<path d="M140.677 100.013C139.633 99.41 137.945 99.41 136.901 100.013C135.856 100.617 135.856 101.582 136.901 102.185C137.945 102.788 139.633 102.788 140.677 102.185C141.722 101.582 141.722 100.576 140.677 100.013Z" fill="#B6D3FF"/>
<path d="M113.317 117.591L110.022 115.701C108.938 115.097 107.21 115.097 106.125 115.701C105.643 115.982 105.643 116.465 106.125 116.746L111.469 119.844C111.991 120.125 112.795 120.125 113.277 119.844C114.402 119.24 114.402 118.235 113.317 117.591Z" fill="#3F6AF7"/>
<path d="M116.211 114.012C115.166 113.408 113.478 113.408 112.434 114.012C111.389 114.615 111.389 115.58 112.434 116.184C113.478 116.787 115.166 116.787 116.211 116.184C117.255 115.621 117.255 114.615 116.211 114.012Z" fill="#3F6AF7"/>
<path d="M88.7304 131.307L85.1142 129.215C83.9494 128.532 82.0207 128.532 80.8555 129.215C80.293 129.537 80.293 130.06 80.8555 130.382L86.7216 133.76C87.2837 134.082 88.1679 134.082 88.7304 133.76C89.9355 133.117 89.9355 131.991 88.7304 131.307Z" fill="#3F6AF7"/>
<path d="M91.9036 127.405C90.7388 126.761 88.8906 126.761 87.7656 127.405C86.6406 128.048 86.6406 129.134 87.7656 129.818C88.8906 130.462 90.7786 130.462 91.9036 129.818C93.0689 129.134 93.0689 128.048 91.9036 127.405Z" fill="#3F6AF7"/>
<path d="M64.3827 145.545L60.7666 143.454C59.6017 142.77 57.6731 142.77 56.5078 143.454C55.9453 143.775 55.9453 144.298 56.5078 144.62L62.3739 147.999C62.9364 148.32 63.8202 148.32 64.3827 147.999C65.5879 147.355 65.5476 146.229 64.3827 145.545Z" fill="#3F6AF7"/>
<path d="M67.556 141.643C66.3911 140.999 64.5429 140.999 63.418 141.643C62.293 142.286 62.293 143.373 63.418 144.056C64.5429 144.7 66.431 144.7 67.556 144.056C68.6809 143.373 68.6809 142.286 67.556 141.643Z" fill="#3F6AF7"/>
<path fill-rule="evenodd" clip-rule="evenodd" d="M132.522 44.5478C132.222 44.5478 131.96 44.8103 131.96 45.1109V49.9375C131.96 50.2385 132.222 50.5006 132.522 50.5006H137.303C137.622 50.5006 137.866 50.2603 137.866 49.8972V45.1109C137.866 44.8103 137.604 44.5478 137.303 44.5478H132.522ZM131.156 45.1109C131.156 44.3658 131.778 43.7436 132.522 43.7436H137.303C138.047 43.7436 138.669 44.3658 138.669 45.1109V49.8972C138.669 50.6607 138.109 51.3052 137.303 51.3052H132.522C131.778 51.3052 131.156 50.6825 131.156 49.9375V45.1109Z" fill="#305EED"/>
<path fill-rule="evenodd" clip-rule="evenodd" d="M88.4916 13.966C88.5007 14.2652 88.7693 14.5186 89.0681 14.5097L93.8871 14.3664C94.1862 14.3575 94.439 14.0887 94.4304 13.7894L94.2881 9.00522C94.2787 8.68727 94.033 8.45201 93.6718 8.46274L88.8927 8.60482C88.594 8.61371 88.3408 8.88254 88.3498 9.18176L88.4916 13.966ZM89.0921 15.3188C88.3468 15.341 87.7057 14.7361 87.6835 13.99L87.5416 9.20579C87.5194 8.45969 88.1237 7.81781 88.869 7.79563L93.6478 7.65355C94.4112 7.63087 95.0726 8.17339 95.0967 8.98118L95.2386 13.7654C95.2607 14.5115 94.6565 15.1534 93.9111 15.1756L89.0921 15.3188Z" fill="#5A516F"/>
<path fill-rule="evenodd" clip-rule="evenodd" d="M35.4325 116.053C35.132 116.053 34.87 116.315 34.87 116.616V121.442C34.87 121.743 35.132 122.006 35.4325 122.006H40.2134C40.5328 122.006 40.7758 121.765 40.7758 121.402V116.616C40.7758 116.315 40.514 116.053 40.2134 116.053H35.4325ZM34.0664 116.616C34.0664 115.871 34.6883 115.248 35.4325 115.248H40.2134C40.9576 115.248 41.5795 115.871 41.5795 116.616V121.402C41.5795 122.166 41.0193 122.81 40.2134 122.81H35.4325C34.6883 122.81 34.0664 122.187 34.0664 121.442V116.616Z" fill="#305EED"/>
<path opacity="0.87" fill-rule="evenodd" clip-rule="evenodd" d="M22.034 192.12C21.7336 192.12 21.4715 192.383 21.4715 192.683V197.51C21.4715 197.811 21.7336 198.073 22.034 198.073H26.8151C27.1343 198.073 27.3776 197.833 27.3776 197.47V192.683C27.3776 192.383 27.1155 192.12 26.8151 192.12H22.034ZM20.668 192.683C20.668 191.938 21.2898 191.316 22.034 191.316H26.8151C27.5592 191.316 28.1811 191.939 28.1811 192.683V197.47C28.1811 198.233 27.6208 198.878 26.8151 198.878H22.034C21.2898 198.878 20.668 198.255 20.668 197.51V192.683Z" fill="#3F6AF7"/>
<path d="M17.7156 188.903C17.7156 188.603 17.9777 188.34 18.2781 188.34H23.0592C23.3596 188.34 23.6217 188.603 23.6217 188.903V190.914H24.4252V188.903C24.4252 188.158 23.8034 187.536 23.0592 187.536H18.2781C17.5339 187.536 16.9121 188.158 16.9121 188.903V193.73C16.9121 194.475 17.5339 195.098 18.2781 195.098H20.2669V194.293H18.2781C17.9777 194.293 17.7156 194.031 17.7156 193.73V188.903Z" fill="#305EED"/>
<path d="M21.875 194.293V195.098H23.0602C23.8659 195.098 24.4262 194.453 24.4262 193.69V192.523H23.6227V193.69C23.6227 194.053 23.3795 194.293 23.0602 194.293H21.875Z" fill="#305EED"/>
<path opacity="0.87" fill-rule="evenodd" clip-rule="evenodd" d="M88.9027 78.9039C88.9118 79.2045 89.1815 79.4591 89.4818 79.4501L94.3008 79.307C94.601 79.2979 94.8554 79.0279 94.8464 78.7273L94.7045 73.9432C94.6951 73.6238 94.4479 73.3873 94.0856 73.3982L89.3065 73.5402C89.0062 73.5492 88.7519 73.8193 88.7609 74.1199L88.9027 78.9039ZM89.5055 80.2543C88.7617 80.2765 88.1216 79.6727 88.0998 78.928L87.9576 74.1436C87.9358 73.3989 88.5389 72.7582 89.2828 72.736L94.0615 72.594C94.8238 72.5714 95.4837 73.1131 95.5078 73.9191L95.6497 78.7035C95.6719 79.4482 95.0687 80.0889 94.3249 80.1111L89.5055 80.2543Z" fill="#B6D3FF"/>
<path fill-rule="evenodd" clip-rule="evenodd" d="M141.197 47.8474C141.197 47.6236 141.378 47.4425 141.602 47.4425H167.034C167.257 47.4425 167.438 47.6236 167.438 47.8474C167.438 48.0707 167.257 48.2519 167.034 48.2519H141.602C141.378 48.2519 141.197 48.0707 141.197 47.8474Z" fill="#B6D3FF"/>
<path opacity="0.9" d="M172.859 45.7961H169.404V49.255H172.859V45.7961Z" fill="#B6D3FF"/>
<path fill-rule="evenodd" clip-rule="evenodd" d="M174.785 47.8474C174.785 47.6236 174.966 47.4425 175.189 47.4425H188.459C188.682 47.4425 188.863 47.6236 188.863 47.8474C188.863 48.0707 188.682 48.2519 188.459 48.2519H175.189C174.966 48.2519 174.785 48.0707 174.785 47.8474Z" fill="#B6D3FF"/>
<path fill-rule="evenodd" clip-rule="evenodd" d="M237.097 143.342C236.194 143.342 235.45 144.087 235.45 144.991V163.774C235.45 164.678 236.194 165.423 237.097 165.423H286.515C287.418 165.423 288.162 164.678 288.162 163.774V160.758C288.162 160.536 288.342 160.356 288.564 160.356C288.786 160.356 288.966 160.536 288.966 160.758V163.774C288.966 165.123 287.862 166.228 286.515 166.228H237.097C235.75 166.228 234.646 165.123 234.646 163.774V144.991C234.646 143.643 235.75 142.538 237.097 142.538H286.515C287.862 142.538 288.966 143.643 288.966 144.991V148.812C288.966 149.034 288.786 149.214 288.564 149.214C288.342 149.214 288.162 149.034 288.162 148.812V144.991C288.162 144.087 287.418 143.342 286.515 143.342H237.097Z" fill="#5A516F"/>
<path fill-rule="evenodd" clip-rule="evenodd" d="M238.904 150.341C238.904 150.118 239.084 149.938 239.306 149.938H252.323C252.545 149.938 252.725 150.118 252.725 150.341C252.725 150.563 252.545 150.743 252.323 150.743H239.306C239.084 150.743 238.904 150.563 238.904 150.341Z" fill="#3F6AF7"/>
<path fill-rule="evenodd" clip-rule="evenodd" d="M238.904 154.403C238.904 154.181 239.084 154.001 239.306 154.001H275.987C276.209 154.001 276.389 154.181 276.389 154.403C276.389 154.625 276.209 154.805 275.987 154.805H239.306C239.084 154.805 238.904 154.625 238.904 154.403Z" fill="#5A516F"/>
<path fill-rule="evenodd" clip-rule="evenodd" d="M238.904 157.259C238.904 157.037 239.084 156.857 239.306 156.857H269.639C269.861 156.857 270.041 157.037 270.041 157.259C270.041 157.481 269.861 157.661 269.639 157.661H239.306C239.084 157.661 238.904 157.481 238.904 157.259Z" fill="#5A516F"/>
<path fill-rule="evenodd" clip-rule="evenodd" d="M238.904 160.075C238.904 159.853 239.084 159.673 239.306 159.673H281.451C281.673 159.673 281.853 159.853 281.853 160.075C281.853 160.297 281.673 160.477 281.451 160.477H239.306C239.084 160.477 238.904 160.297 238.904 160.075Z" fill="#5A516F"/>
</g>
<defs>
<filter id="filter0_d" x="-117.238" y="-103.078" width="533.107" height="447.859" filterUnits="userSpaceOnUse" color-interpolation-filters="sRGB">
<feFlood flood-opacity="0" result="BackgroundImageFix"/>
<feColorMatrix in="SourceAlpha" type="matrix" values="0 0 0 0 0 0 0 0 0 0 0 0 0 0 0 0 0 0 127 0"/>
<feOffset dy="4"/>
<feGaussianBlur stdDeviation="60"/>
<feColorMatrix type="matrix" values="0 0 0 0 0.32549 0 0 0 0 0.521569 0 0 0 0 0.815686 0 0 0 1 0"/>
<feBlend mode="normal" in2="BackgroundImageFix" result="effect1_dropShadow"/>
<feBlend mode="normal" in="SourceGraphic" in2="effect1_dropShadow" result="shape"/>
</filter>
<clipPath id="clip0">
<rect width="300" height="220" fill="white"/>
</clipPath>
</defs>
</svg>
