<svg viewBox="0 0 648 476" fill="none" xmlns="http://www.w3.org/2000/svg">
<g clip-path="url(#clip0)">
<path d="M593.464 441.366C520.459 504.37 394.627 486.279 381.672 445.154C372.506 416.049 423.68 387.629 413.045 362.8C400.574 333.704 310.144 325.763 261.663 371.38C231.054 400.185 231.054 437.26 193.083 452.494C188.103 454.495 161.691 465.096 145.497 451.93C121.837 432.673 144.425 382.517 127.58 370.065C101.159 350.526 20 455.125 -0.265364 440.699C-16.256 429.328 9.02292 346.288 56.924 258.747C65.0345 243.935 73.7862 229.002 83.0921 214.257C98.8892 189.24 116.322 164.739 134.204 142.034C195.493 64.2101 262.014 7.48432 285.762 23.4701C310.33 40.0104 272.517 124 297.497 139.196C339.285 164.617 471.194 -19.9763 500.158 1.02797C521.875 16.7694 460.675 129.892 492.744 158.142C518.822 181.12 580.93 125.419 604.581 149.562C625.532 170.942 591.202 216.221 614.467 283.576C626.359 318.01 640.828 321.431 642.271 348.28C644.891 396.971 599.98 435.737 593.464 441.366Z" fill="#3F6AF7"/>
<path d="M169.897 237.742L61.0412 273.172L56.9248 258.747C65.0345 243.936 73.7862 229.002 83.0921 214.257C98.8892 189.24 116.322 164.74 134.204 142.034L144.609 149.045L169.897 237.742Z" fill="black" fill-opacity="0.11"/>
<path d="M343.303 449.326C337.002 455.666 294.69 465.144 288.755 458.412C282.821 451.679 283.119 441.081 289.419 434.741C295.721 428.4 339.822 423.804 345.755 430.537C351.69 437.269 349.604 442.985 343.303 449.326Z" fill="#305EED"/>
<path d="M390.637 122.143L384.117 63.0159C387.443 62.5968 390.456 65.138 390.849 68.6913L395.95 114.951C396.341 118.504 393.963 121.724 390.637 122.143Z" fill="#879EEA"/>
<path d="M129.613 151.211L30.5908 183.438L53.5922 264.12L152.614 231.892L129.613 151.211Z" fill="#305EED"/>
<path d="M30.5908 183.437L62.639 106.07L129.613 151.21L30.5908 183.437Z" fill="#305EED"/>
<path d="M129.613 151.212L119.836 165.739L91.608 207.669L49.5741 190.98L30.5908 183.44L129.613 151.212Z" fill="#305EED"/>
<path d="M129.613 151.212L119.836 165.739L91.608 207.669L49.5741 190.98L30.5908 183.44L129.613 151.212Z" fill="black" fill-opacity="0.18"/>
<path d="M109.395 129.118L119.835 165.739L91.6071 207.669L49.5731 190.98L38.5137 152.187L109.395 129.118Z" fill="#879EEA"/>
<path d="M51.9424 163.777L78.927 154.995" stroke="#FFE458" stroke-width="2" stroke-miterlimit="10"/>
<path d="M56.5312 179.864L92.6658 168.104" stroke="#FFE458" stroke-width="2" stroke-miterlimit="10"/>
<path d="M58.3633 186.298L107.932 170.166" stroke="#FFE458" stroke-width="2" stroke-miterlimit="10"/>
<path d="M60.1982 192.733L109.767 176.601" stroke="#FFE458" stroke-width="2" stroke-miterlimit="10"/>
<path d="M608.466 49.4601V78.2556C608.466 85.4168 603.03 91.2153 596.336 91.2153H535.03L483.83 104.175L493.787 91.2153H473.724C467.022 91.2153 461.595 85.4168 461.595 78.2556V49.4601C461.595 42.3083 467.022 36.5098 473.724 36.5098H596.336C603.03 36.5098 608.466 42.3083 608.466 49.4601Z" fill="#879EEA"/>
<path d="M477.762 79.4559C479.499 79.4559 480.906 77.9522 480.906 76.0971C480.906 74.2419 479.499 72.7373 477.762 72.7373C476.025 72.7373 474.618 74.2419 474.618 76.0971C474.618 77.9522 476.025 79.4559 477.762 79.4559Z" fill="#305EED"/>
<path d="M487.644 79.4559C489.38 79.4559 490.787 77.9522 490.787 76.0971C490.787 74.2419 489.38 72.7373 487.644 72.7373C485.906 72.7373 484.499 74.2419 484.499 76.0971C484.499 77.9522 485.906 79.4559 487.644 79.4559Z" fill="#305EED"/>
<path d="M497.523 79.4559C499.261 79.4559 500.668 77.9522 500.668 76.0971C500.668 74.2419 499.261 72.7373 497.523 72.7373C495.787 72.7373 494.38 74.2419 494.38 76.0971C494.38 77.9522 495.787 79.4559 497.523 79.4559Z" fill="#B5CDFB"/>
<path d="M49.9385 384.649H96.0879" stroke="#005B9D" stroke-width="2" stroke-miterlimit="10" stroke-linecap="round"/>
<path d="M108.216 384.649H154.365" stroke="#005B9D" stroke-width="2" stroke-miterlimit="10" stroke-linecap="round"/>
<path d="M49.9385 397.607H121.24" stroke="#005B9D" stroke-width="2" stroke-miterlimit="10" stroke-linecap="round"/>
<path d="M133.367 397.607H154.364" stroke="#005B9D" stroke-width="2" stroke-miterlimit="10" stroke-linecap="round"/>
<path d="M101.731 386.416C102.644 386.416 103.384 385.625 103.384 384.65C103.384 383.674 102.644 382.883 101.731 382.883C100.818 382.883 100.077 383.674 100.077 384.65C100.077 385.625 100.818 386.416 101.731 386.416Z" fill="#879EEA"/>
<path d="M126.812 49.6507C136.61 49.6507 144.553 41.164 144.553 30.695C144.553 20.226 136.61 11.7393 126.812 11.7393C117.014 11.7393 109.071 20.226 109.071 30.695C109.071 41.164 117.014 49.6507 126.812 49.6507Z" fill="#305EED"/>
<path d="M119.868 30.0335C120.775 30.0335 121.509 29.2482 121.509 28.2794C121.509 27.3107 120.775 26.5254 119.868 26.5254C118.961 26.5254 118.227 27.3107 118.227 28.2794C118.227 29.2482 118.961 30.0335 119.868 30.0335Z" fill="#879EEA"/>
<path d="M132.103 26.5354C133.01 26.5354 133.745 25.7501 133.745 24.7814C133.745 23.8127 133.01 23.0273 132.103 23.0273C131.196 23.0273 130.462 23.8127 130.462 24.7814C130.462 25.7501 131.196 26.5354 132.103 26.5354Z" fill="#879EEA"/>
<path d="M120.632 38.1269C121.256 38.9335 122.048 39.5523 122.904 40.0269C127.094 42.351 132.401 40.8259 134.738 36.4426C135.161 35.6474 135.486 34.7756 135.636 33.8389" stroke="#005B9D" stroke-width="2" stroke-miterlimit="10" stroke-linecap="round"/>
<path d="M602.124 17.9457C608.39 17.9457 613.47 12.5176 613.47 5.8219C613.47 -0.873815 608.39 -6.30176 602.124 -6.30176C595.857 -6.30176 590.776 -0.873815 590.776 5.8219C590.776 12.5176 595.857 17.9457 602.124 17.9457Z" fill="#879EEA"/>
<path d="M598.691 3.55908C599.27 3.55908 599.741 3.05686 599.741 2.43725C599.741 1.81775 599.27 1.31543 598.691 1.31543C598.111 1.31543 597.641 1.81775 597.641 2.43725C597.641 3.05686 598.111 3.55908 598.691 3.55908Z" fill="#305EED"/>
<path d="M606.678 5.01709C607.258 5.01709 607.728 4.51478 607.728 3.89527C607.728 3.27566 607.258 2.77344 606.678 2.77344C606.098 2.77344 605.628 3.27566 605.628 3.89527C605.628 4.51478 606.098 5.01709 606.678 5.01709Z" fill="#305EED"/>
<path d="M596.676 8.37793C596.838 9.02478 597.143 9.61036 597.522 10.1303C599.376 12.6765 602.842 13.3042 605.295 11.4234C605.74 11.0822 606.147 10.6681 606.467 10.1662" stroke="#FFE458" stroke-miterlimit="10" stroke-linecap="round"/>
<path d="M269.557 44.0434L269.661 44.9857L229.459 50.0469L229.354 49.1045C229.02 46.0715 231.05 43.3231 233.889 42.9657L263.812 39.1987C266.65 38.8414 269.222 41.0104 269.557 44.0434Z" fill="#879EEA"/>
<path d="M226.298 157.506L226.718 157.453L232.761 212.246L232.34 212.298C230.41 212.542 228.659 211.065 228.431 209.002L223.213 161.682C222.986 159.619 224.367 157.749 226.298 157.506Z" fill="#879EEA"/>
<path d="M551.171 351.097L499.545 309.048C500.252 304.553 481.502 248.319 474.239 226.501C472.792 222.155 470.907 232.01 468.913 236.102C468.088 237.796 467.179 239.662 466.195 241.682L336.466 185.575L285.635 339.834C285.635 339.834 321.629 358.339 343.811 371.17C391.15 398.553 426.822 402.966 426.841 402.957C426.841 402.957 430.856 404.458 432.097 405.48C444.874 416.024 459.666 428.517 480.908 442.791C498.935 454.905 540.391 370.348 551.171 351.097Z" fill="#879EEA"/>
<path fill-rule="evenodd" clip-rule="evenodd" d="M379.69 388.923L418.429 384.003C425.903 383.054 431.316 375.929 430.651 367.919L430.085 361.128L411.988 218.079L336.466 185.575L285.635 339.834C285.635 339.834 321.629 358.339 343.811 371.17C356.817 378.693 368.943 384.483 379.69 388.923Z" fill="black" fill-opacity="0.21"/>
<path d="M245.8 170.291L197.419 129.491C189.881 123.135 188.593 111.454 194.542 103.4C200.491 95.3471 211.423 93.9713 218.961 100.327L267.343 141.127C274.881 147.483 276.168 159.165 270.219 167.218C264.27 175.271 253.338 176.646 245.8 170.291Z" fill="#879EEA"/>
<path d="M409.419 375.476L264.393 393.728C258.127 394.516 252.448 389.728 251.71 383.033L216.371 62.467C215.632 55.772 220.113 49.7048 226.38 48.9162L371.407 30.6641C377.673 29.8755 383.35 34.6636 384.088 41.3589L419.429 361.925C420.167 368.62 415.685 374.687 409.419 375.476Z" fill="#305EED"/>
<path d="M310.255 60.2384L292.286 62.4995C290.104 62.7749 288.126 61.1068 287.87 58.7752C287.612 56.4436 289.173 54.3309 291.355 54.0565L309.324 51.7954C311.506 51.52 313.484 53.1881 313.741 55.5197C313.997 57.8513 312.437 59.964 310.255 60.2384Z" fill="#879EEA"/>
<path d="M360.888 93.4544L250.265 107.376C244.968 108.043 240.168 103.996 239.545 98.3366C238.921 92.6772 242.709 87.5497 248.005 86.8825L358.628 72.9605C363.925 72.2941 368.724 76.3409 369.348 82.0003C369.972 87.6597 366.184 92.7872 360.888 93.4544Z" fill="#879EEA"/>
<path d="M382.393 319.422L278.487 332.498C271.335 333.398 264.855 327.934 264.013 320.293L244.476 143.068C243.633 135.428 248.748 128.503 255.899 127.604L359.805 114.527C366.956 113.626 373.437 119.091 374.278 126.732L393.816 303.956C394.659 311.598 389.544 318.521 382.393 319.422Z" fill="#879EEA"/>
<path d="M365.966 258.828L280.848 269.541C275.787 270.177 271.201 266.311 270.606 260.904L258.594 151.954C257.999 146.547 261.617 141.648 266.678 141.011L351.797 130.298C356.858 129.662 361.443 133.528 362.039 138.935L374.05 247.885C374.646 253.292 371.027 258.191 365.966 258.828Z" fill="white"/>
<path d="M337.779 352.411L328.616 353.564L329.695 363.354L338.858 362.201L337.779 352.411Z" stroke="#005B9D" stroke-width="2" stroke-miterlimit="10" stroke-linecap="round"/>
<path d="M278.182 369.838C275.652 370.157 273.359 368.223 273.061 365.52C272.763 362.816 274.573 360.366 277.103 360.048C279.633 359.729 281.926 361.663 282.224 364.366C282.522 367.069 280.712 369.519 278.182 369.838Z" fill="#879EEA"/>
<path d="M392.223 345.56L383.06 346.713L384.14 356.503L393.302 355.35L392.223 345.56Z" fill="#879EEA"/>
<path d="M273.948 282.288L366.729 270.611" stroke="#FFE458" stroke-width="2" stroke-miterlimit="10"/>
<path d="M275.207 293.726L350.145 284.295" stroke="#FFE458" stroke-width="2" stroke-miterlimit="10"/>
<path d="M276.468 305.164L369.249 293.488" stroke="#FFE458" stroke-width="2" stroke-miterlimit="10"/>
<path d="M277.729 316.604L370.51 304.927" stroke="#FFE458" stroke-width="2" stroke-miterlimit="10"/>
<path d="M240.154 351.049L230.246 346.273C222.698 342.346 219.558 332.625 223.234 324.561C226.909 316.496 236.007 313.141 243.556 317.069L253.463 321.845C261.011 325.772 264.15 335.493 260.475 343.557C256.799 351.622 247.701 354.977 240.154 351.049Z" fill="#879EEA"/>
<path d="M235.878 303.704L203.985 291.585C195.352 287.093 191.762 275.975 195.966 266.751C200.17 257.527 210.576 253.69 219.209 258.182L251.101 270.301C259.734 274.792 263.325 285.911 259.121 295.135C254.917 304.359 244.511 308.195 235.878 303.704Z" fill="#879EEA"/>
<path d="M398.525 172.381L394.74 137.61C391.896 126.793 402.95 119.049 416.061 118.861C422.908 118.763 433.996 175.691 445.676 189.83C452.066 197.562 426.437 232.538 426.437 232.538C417.143 232.582 398.566 182.31 398.525 172.381Z" fill="#879EEA"/>
<path d="M423.876 235.833L407.979 203.902C404.441 194.365 408.808 183.568 417.735 179.787C426.661 176.007 430.195 165.364 433.733 174.901L472.141 222.892C473.81 224.977 474.87 227.528 475.222 230.245C476.83 242.698 473.733 266.285 466.001 269.561C457.074 273.341 427.414 245.37 423.876 235.833Z" fill="#879EEA"/>
<path d="M228.273 245.458L193.267 232.155C183.791 227.225 179.849 215.021 184.464 204.896C189.078 194.771 200.5 190.56 209.976 195.49L244.982 208.793C254.458 213.723 258.399 225.927 253.785 236.052V236.053C249.171 246.177 237.749 250.388 228.273 245.458Z" fill="#879EEA"/>
<path d="M549.261 121.684H596.899" stroke="#005B9D" stroke-width="2" stroke-miterlimit="10" stroke-linecap="round"/>
<path d="M536.984 112.62H568.723" stroke="#005B9D" stroke-width="2" stroke-miterlimit="10" stroke-linecap="round"/>
<path d="M296.861 447.6H344.5" stroke="#005B9D" stroke-width="2" stroke-miterlimit="10" stroke-linecap="round"/>
<path d="M284.585 438.536H316.323" stroke="#005B9D" stroke-width="2" stroke-miterlimit="10" stroke-linecap="round"/>
<path d="M645.131 318.886L613.673 314.384" stroke="#005B9D" stroke-width="2" stroke-miterlimit="10" stroke-linecap="round"/>
<path d="M644.047 327.537L612.589 323.034" stroke="#005B9D" stroke-width="2" stroke-miterlimit="10" stroke-linecap="round"/>
<path d="M654.299 337.81L611.504 331.685" stroke="#005B9D" stroke-width="2" stroke-miterlimit="10" stroke-linecap="round"/>
<path d="M650.544 346.08L610.42 340.337" stroke="#005B9D" stroke-width="2" stroke-miterlimit="10" stroke-linecap="round"/>
<path d="M631.965 359.113L570.478 350.312L565.651 388.806L627.139 397.607L631.965 359.113Z" fill="#879EEA"/>
<path d="M643.912 263.834L582.426 255.033L577.599 293.528L639.086 302.329L643.912 263.834Z" fill="#879EEA"/>
<path d="M96.0866 423.31C100.089 423.31 103.333 419.843 103.333 415.567C103.333 411.29 100.089 407.824 96.0866 407.824C92.0846 407.824 88.8398 411.29 88.8398 415.567C88.8398 419.843 92.0846 423.31 96.0866 423.31Z" fill="#879EEA"/>
<path d="M313.997 220.871L337.452 173.585C337.896 172.348 337.411 170.952 336.32 170.324C335.14 169.643 333.667 170.097 333.006 171.344L309.629 202.875L293.834 196.813C292.319 196.231 291.151 198.294 292.338 199.457L313.997 220.871Z" fill="#879EEA"/>
</g>
<defs>
<filter id="filter0_d" x="-125.058" y="-116.642" width="887.439" height="723.132" filterUnits="userSpaceOnUse" color-interpolation-filters="sRGB">
<feFlood flood-opacity="0" result="BackgroundImageFix"/>
<feColorMatrix in="SourceAlpha" type="matrix" values="0 0 0 0 0 0 0 0 0 0 0 0 0 0 0 0 0 0 127 0"/>
<feOffset dy="4"/>
<feGaussianBlur stdDeviation="60"/>
<feColorMatrix type="matrix" values="0 0 0 0 0.32549 0 0 0 0 0.521569 0 0 0 0 0.815686 0 0 0 1 0"/>
<feBlend mode="normal" in2="BackgroundImageFix" result="effect1_dropShadow"/>
<feBlend mode="normal" in="SourceGraphic" in2="effect1_dropShadow" result="shape"/>
</filter>
<clipPath id="clip0">
<rect width="648" height="476" fill="white"/>
</clipPath>
</defs>
</svg>
