<svg viewBox="0 0 648 476" fill="none" xmlns="http://www.w3.org/2000/svg">
<g clip-path="url(#clip0)">
<path opacity="0.1" d="M637.158 440.999C620.414 459.524 227.041 450.914 161.377 451.697C-5.87896 348.896 -19.4826 189.389 15.0498 101.374C30.6592 61.6276 75.0453 19.4462 127.891 10.4882C192.857 -0.470274 249.975 45.4509 275.874 66.2371C356.015 130.596 355.317 197.739 400.052 201.479C449.06 205.566 465.978 118.681 536.438 114.245C579.952 111.463 610.909 141.902 614.746 145.729C651.11 182.519 655.121 244.877 630.878 280.971C607.072 316.455 560.681 320.543 562.25 334.11C563.82 347.07 612.567 338.633 635.763 368.203C651.459 388.12 653.028 423.431 637.158 440.999Z" fill="#51A3FD"/>
<path opacity="0.19" d="M423.044 301.864H393.855C393.107 301.864 392.524 301.283 392.524 300.536V282.456C392.524 281.709 393.107 281.129 393.855 281.129H423.044C423.793 281.129 424.375 281.709 424.375 282.456V300.536C424.375 301.2 423.793 301.864 423.044 301.864Z" fill="#96C9FE"/>
<path opacity="0.19" d="M423.044 253.759H393.855C393.107 253.759 392.524 253.178 392.524 252.432V234.351C392.524 233.604 393.107 233.024 393.855 233.024H423.044C423.793 233.024 424.375 233.604 424.375 234.351V252.432C424.375 253.178 423.793 253.759 423.044 253.759Z" fill="#96C9FE"/>
<path d="M323.835 274.535H26.9959C24.3798 274.535 22.1997 272.36 22.1997 269.751V138.337C22.1997 135.728 24.3798 133.553 26.9959 133.553H224.685C224.947 133.553 225.122 133.727 225.122 133.988C225.122 134.249 224.947 134.423 224.685 134.423H26.9959C24.8158 134.423 23.0718 136.162 23.0718 138.337V269.751C23.0718 271.926 24.8158 273.665 26.9959 273.665H323.835C324.097 273.665 324.272 273.839 324.272 274.1C324.272 274.361 324.01 274.535 323.835 274.535Z" fill="#699DCF"/>
<path d="M573.149 266.011H393.336C390.459 266.011 388.104 263.663 388.104 260.793V225.569C388.104 222.699 390.459 220.351 393.336 220.351H573.149C576.027 220.351 578.382 222.699 578.382 225.569V260.793C578.382 263.663 576.027 266.011 573.149 266.011ZM393.336 222.091C391.418 222.091 389.849 223.656 389.849 225.569V260.793C389.849 262.706 391.418 264.272 393.336 264.272H573.149C575.068 264.272 576.638 262.706 576.638 260.793V225.569C576.638 223.656 575.068 222.091 573.149 222.091H393.336Z" fill="#51A3FD"/>
<path d="M572.887 316.802H393.074C390.196 316.802 387.842 314.454 387.842 311.585V276.361C387.842 273.491 390.196 271.143 393.074 271.143H572.887C575.765 271.143 578.119 273.491 578.119 276.361V311.585C578.119 314.454 575.765 316.802 572.887 316.802ZM393.074 272.882C391.156 272.882 389.586 274.448 389.586 276.361V311.585C389.586 313.498 391.156 315.063 393.074 315.063H572.887C574.806 315.063 576.376 313.498 576.376 311.585V276.361C576.376 274.448 574.806 272.882 572.887 272.882H393.074Z" fill="#51A3FD"/>
<path d="M526.843 244.356H433.1C432.49 244.356 431.967 243.834 431.967 243.225V232.441C431.967 231.832 432.49 231.31 433.1 231.31H526.843C527.454 231.31 527.978 231.832 527.978 232.441V243.225C528.064 243.834 527.541 244.356 526.843 244.356Z" fill="#51A3FD"/>
<path d="M527.193 255.139H432.751C432.315 255.139 431.967 254.792 431.967 254.357V249.66C431.967 249.226 432.315 248.877 432.751 248.877H527.193C527.628 248.877 527.978 249.226 527.978 249.66V254.357C528.064 254.792 527.628 255.139 527.193 255.139Z" fill="#51A3FD"/>
<path d="M526.843 295.147H433.1C432.49 295.147 431.967 294.625 431.967 294.017V283.232C431.967 282.623 432.49 282.102 433.1 282.102H526.843C527.454 282.102 527.978 282.623 527.978 283.232V294.017C528.064 294.625 527.541 295.147 526.843 295.147Z" fill="#51A3FD"/>
<path d="M527.193 305.844H432.751C432.315 305.844 431.967 305.497 431.967 305.062V300.365C431.967 299.93 432.315 299.583 432.751 299.583H527.193C527.628 299.583 527.978 299.93 527.978 300.365V305.062C528.064 305.497 527.628 305.844 527.193 305.844Z" fill="#51A3FD"/>
<path d="M566.869 255.14H538.353C537.83 255.14 537.482 254.792 537.482 254.27V232.179C537.482 231.658 537.83 231.31 538.353 231.31H566.869C567.392 231.31 567.741 231.658 567.741 232.179V254.27C567.741 254.705 567.392 255.14 566.869 255.14Z" fill="#51A3FD"/>
<path d="M566.869 305.845H538.353C537.83 305.845 537.482 305.497 537.482 304.975V282.884C537.482 282.363 537.83 282.014 538.353 282.014H566.869C567.392 282.014 567.741 282.363 567.741 282.884V304.975C567.741 305.497 567.392 305.845 566.869 305.845Z" fill="#51A3FD"/>
<path fill-rule="evenodd" clip-rule="evenodd" d="M386.884 45.7988H576.812C579.166 45.7988 581.172 47.7122 581.172 50.1474V181.04C581.172 183.475 579.254 185.389 576.812 185.389H386.884C384.441 185.389 382.523 183.475 382.523 181.04V50.1474C382.523 47.7122 384.441 45.7988 386.884 45.7988ZM108.27 147.295C108.008 155.122 102.078 161.733 94.1431 162.776C86.1207 163.82 78.7951 158.776 76.702 151.295L90.4807 149.556L108.27 147.295ZM370.576 232.44H357.757C355.315 232.44 353.397 234.353 353.397 236.789V249.574C353.397 252.009 355.315 253.922 357.757 253.922H370.576C373.018 253.922 374.936 252.009 374.936 249.574V236.789C374.936 234.353 373.018 232.44 370.576 232.44ZM317.993 162.254H274.13C271.601 162.254 269.508 160.168 269.508 157.645V100.765C269.508 98.2433 271.514 96.1557 274.13 96.1557H317.993C320.522 96.1557 322.615 98.1562 322.615 100.765V157.645C322.615 160.168 320.609 162.254 317.993 162.254ZM329.242 208.001H262.968V217.134H329.242V208.001ZM329.766 197.912H262.445V187.737H329.766V197.912ZM328.719 188.781H263.492V196.869H328.719V188.781ZM263.142 182.432H330.462V172.256H263.142V182.432ZM264.101 173.3H329.329V181.388H264.101V173.3ZM235.674 391.686H246.661C248.492 391.686 249.975 393.165 249.975 394.991V405.949C249.975 407.776 248.492 409.254 246.661 409.254H235.674C233.843 409.254 232.36 407.776 232.36 405.949V394.991C232.36 393.165 233.843 391.686 235.674 391.686ZM246.661 358.115H235.674C233.843 358.115 232.36 359.593 232.36 361.419V372.378C232.36 374.204 233.843 375.683 235.674 375.683H246.661C248.492 375.683 249.975 374.204 249.975 372.378V361.419C249.975 359.593 248.492 358.115 246.661 358.115ZM235.674 324.631H246.661C248.492 324.631 249.975 326.108 249.975 327.935V338.894C249.975 340.72 248.492 342.199 246.661 342.199H235.674C233.843 342.199 232.36 340.72 232.36 338.894V327.935C232.36 326.108 233.843 324.631 235.674 324.631ZM183.439 330.632H127.716C118.123 330.632 110.363 338.372 110.363 347.939V392.468C110.363 402.035 118.123 409.776 127.716 409.776H183.439C193.031 409.776 200.792 402.035 200.792 392.468V347.939C200.792 338.372 193.031 330.632 183.439 330.632ZM115.333 416.473H195.821C198.612 416.473 200.792 418.734 200.792 421.431C200.792 424.126 198.612 426.388 195.821 426.388H115.333C112.63 426.388 110.363 424.126 110.363 421.431C110.363 418.734 112.542 416.473 115.333 416.473ZM541.407 352.809H499.549V361.593H541.407V352.809ZM427.346 352.723H449.147V361.768H427.346V352.723ZM492.225 263.75H468.855C466.413 263.75 464.495 265.663 464.495 268.098V291.407C464.495 293.843 466.413 295.756 468.855 295.756H492.225C494.667 295.756 496.585 293.843 496.585 291.407V268.098C496.585 265.663 494.667 263.75 492.225 263.75ZM117.599 205.74V216.177C117.599 217.134 116.815 217.917 115.855 217.917H45.1338C44.1745 217.917 43.3896 217.134 43.3896 216.177V205.74C43.3896 204.784 44.1745 204.001 45.1338 204.001H115.855C116.815 204.001 117.599 204.784 117.599 205.74ZM54.8129 241.225C58.3883 241.225 61.3532 238.267 61.3532 234.702C61.3532 231.136 58.3883 228.179 54.8129 228.179C51.2376 228.179 48.2727 231.136 48.2727 234.702C48.2727 238.267 51.1504 241.225 54.8129 241.225ZM61.8013 251.135C62.38 254.69 59.9586 258.041 56.3931 258.618C52.8276 259.195 49.4682 256.78 48.8895 253.224C48.3109 249.668 50.7322 246.317 54.2977 245.74C57.8631 245.163 61.2226 247.578 61.8013 251.135Z" fill="#96C9FE"/>
<path d="M416.269 284.014C416.269 284.014 413.653 294.016 413.653 295.321C413.653 296.712 419.845 296.625 419.845 296.625L417.839 285.754L416.269 284.014Z" fill="#699DCF"/>
<path d="M162.859 344.547C162.859 344.547 157.365 365.247 157.453 368.116C157.539 370.987 170.271 370.726 170.271 370.726L166.086 348.113L162.859 344.547Z" fill="#51A3FD"/>
<path d="M181.344 394.295H129.808V390.034C129.808 379.423 138.005 376.292 148.993 370.899L161.113 371.944C172.973 378.293 181.344 379.423 181.344 390.034V394.295Z" fill="#699DCF"/>
<path fill-rule="evenodd" clip-rule="evenodd" d="M311.365 55.1914H280.843C276.744 55.1914 273.431 51.8864 273.519 47.7988V40.928H318.777V47.7988C318.777 51.8864 315.463 55.1914 311.365 55.1914ZM32.8374 130.422C32.8374 99.5466 57.9519 74.4989 88.9092 74.4989C119.866 74.4989 144.981 99.5466 144.981 130.422C144.981 161.297 119.866 186.344 88.9092 186.344C57.9519 186.344 32.8374 161.297 32.8374 130.422ZM76.6132 151.295C78.7937 158.774 86.1184 163.819 94.1417 162.775C102.077 161.731 108.007 155.122 108.181 147.294L90.3912 149.556L76.6132 151.295ZM573.323 200.521H398.393C391.853 200.521 386.533 195.215 386.533 188.692V165.993C386.533 159.47 391.853 154.165 398.393 154.165H573.323C579.863 154.165 585.182 159.47 585.182 165.993V188.692C585.182 195.215 579.863 200.521 573.323 200.521ZM425.165 255.836C425.165 251.395 422.487 250.015 418.093 247.752C417.41 247.399 416.684 247.026 415.922 246.616H415.573V243.747C416.619 243.225 417.316 242.268 417.316 240.789L417.386 237.751C417.404 237.476 417.404 237.219 417.404 236.962L417.386 237.751C417.374 237.942 417.352 238.141 417.316 238.354C417.316 238.354 417.143 236.702 417.143 235.31C417.143 234.875 417.055 234.614 416.968 234.44C416.924 234.44 416.902 234.462 416.881 234.484C416.859 234.506 416.837 234.527 416.793 234.527C415.049 235.223 410.166 234.527 410.166 234.527C409.73 234.44 410.427 236.18 410.427 236.18C410.427 236.18 409.556 238.354 409.119 238.963C409.086 238.996 409.066 239.029 409.048 239.058C409.02 239.104 408.999 239.137 408.945 239.137C408.596 239.137 408.073 237.485 408.073 237.485L407.986 237.398L407.375 237.049C407.375 237.035 407.373 237.02 407.369 237.006L407.367 236.999L407.365 236.991L407.363 236.987C407.36 236.98 407.358 236.974 407.355 236.967C407.352 236.961 407.35 236.956 407.348 236.951C407.342 236.941 407.337 236.93 407.332 236.919C407.318 236.891 407.304 236.864 407.296 236.835C407.293 236.827 407.291 236.82 407.291 236.812C407.289 236.804 407.288 236.796 407.288 236.789C407.201 236.789 407.201 236.789 407.114 236.876C406.417 237.136 406.067 238.094 406.417 238.963C406.678 239.746 407.375 240.267 407.986 240.18C408.16 241.485 408.858 242.702 409.904 243.398V246.529H409.556C409.4 246.606 409.245 246.681 409.092 246.756C408.871 246.864 408.651 246.97 408.435 247.074L408.425 247.079L408.412 247.086L408.391 247.096L408.377 247.102L408.374 247.104L408.371 247.106C403.664 249.384 400.312 251.006 400.312 255.749V257.836H425.165V255.836ZM408.374 297.2C408.759 297.014 409.153 296.823 409.556 296.626H409.992V293.495C408.858 292.625 408.073 291.233 408.073 289.668V286.971C408.073 284.362 410.166 282.275 412.783 282.275C414.09 282.275 415.224 282.536 416.096 283.145C416.968 283.753 417.491 284.71 417.491 286.015V289.668C417.491 291.233 416.706 292.537 415.573 293.407V296.626H415.922C416.684 297.035 417.41 297.408 418.093 297.761C422.487 300.024 425.165 301.404 425.165 305.844V307.932H400.312V305.844C400.312 301.102 403.664 299.479 408.371 297.201L408.374 297.2ZM480.54 251.921C484.199 251.921 487.167 248.962 487.167 245.312C487.167 241.661 484.199 238.701 480.54 238.701C476.879 238.701 473.912 241.661 473.912 245.312C473.912 248.962 476.879 251.921 480.54 251.921ZM317.382 150.947C317.382 143.334 312.704 140.919 304.986 136.935L304.986 136.934H304.985C303.886 136.367 302.727 135.768 301.511 135.118H290.611C289.968 135.433 289.336 135.738 288.718 136.037L288.714 136.038L288.714 136.039L288.699 136.046L288.697 136.047C280.601 139.96 274.739 142.793 274.739 150.947V154.426H317.382V150.947ZM296.017 182.257C293.051 182.257 290.61 179.909 290.61 176.864C290.61 173.908 293.051 171.472 296.017 171.472C298.981 171.472 301.423 173.82 301.423 176.864C301.423 179.822 299.069 182.257 296.017 182.257ZM622.766 433.953H25.25C16.0065 433.953 8.59424 441.433 8.59424 450.565C8.59424 459.784 16.0937 467.177 25.25 467.177H622.766C632.01 467.177 639.423 459.697 639.423 450.565C639.423 441.346 632.01 433.953 622.766 433.953ZM68.9395 324.63C70.7708 324.63 72.2532 326.108 72.2532 327.934V338.893C72.2532 340.719 70.7708 342.198 68.9395 342.198H57.9519C56.1207 342.198 54.6382 340.719 54.6382 338.893V327.934C54.6382 326.108 56.1207 324.63 57.9519 324.63H68.9395ZM72.2532 361.507C72.2532 359.68 70.7708 358.201 68.9395 358.201H57.9519C56.1207 358.201 54.6382 359.68 54.6382 361.507V372.464C54.6382 374.291 56.1207 375.77 57.9519 375.77H68.9395C70.7708 375.77 72.2532 374.291 72.2532 372.464V361.507ZM57.9519 391.686H68.9395C70.7708 391.686 72.2532 393.164 72.2532 394.99V405.949C72.2532 407.775 70.7708 409.254 68.9395 409.254H57.9519C56.1207 409.254 54.6382 407.775 54.6382 405.949V394.99C54.6382 393.164 56.1207 391.686 57.9519 391.686ZM365.172 377.258C368.01 370.423 364.757 362.588 357.904 359.757C351.052 356.927 343.196 360.172 340.358 367.006C337.519 373.84 340.773 381.675 347.625 384.506C354.477 387.337 362.333 384.092 365.172 377.258ZM149.777 373.421V364.289C147.336 362.55 145.766 359.679 145.678 356.461V350.808C145.678 345.416 150.038 341.068 155.446 341.068C158.149 341.068 160.591 341.589 162.335 342.894C164.078 344.199 165.212 346.112 165.212 348.808V356.375C165.212 359.592 163.643 362.463 161.288 364.202V373.421C161.288 376.553 158.759 379.161 155.533 379.161C152.394 379.161 149.777 376.639 149.777 373.421Z" fill="#305EED"/>
<path d="M621.026 394.73H583.965C583.703 394.73 583.529 394.557 583.529 394.295C583.529 394.034 583.703 393.861 583.965 393.861H621.026C623.206 393.861 624.95 392.121 624.95 389.947V247.574C624.95 245.399 623.206 243.66 621.026 243.66H596.87C596.609 243.66 596.434 243.486 596.434 243.225C596.434 242.964 596.609 242.79 596.87 242.79H621.026C623.642 242.79 625.822 244.965 625.822 247.574V389.947C625.822 392.556 623.729 394.73 621.026 394.73Z" fill="#699DCF"/>
<path d="M88.9121 166.081C80.715 166.081 73.5643 159.993 72.5178 151.644L72.4307 151.209L105.394 147.034V147.556C105.917 151.905 104.783 156.253 102.08 159.732C99.3761 163.211 95.4526 165.472 91.0925 165.994C90.3075 165.994 89.6098 166.081 88.9121 166.081ZM73.3899 151.905C74.6975 160.254 82.4588 166.081 90.8306 165.038C95.016 164.516 98.6792 162.428 101.295 159.123C103.737 155.905 104.87 151.991 104.521 147.991L73.3899 151.905Z" fill="#699DCF"/>
<path opacity="0.37" d="M115.332 146.425L108.182 147.295L90.3925 149.556L76.6146 151.295L65.5395 152.687C61.7898 153.122 59.4352 149.295 61.7898 146.599L66.0628 141.642C70.4229 136.51 72.4286 130.074 71.6437 123.725L70.6845 115.898C69.9868 110.506 73.039 106.766 77.8354 104.591L77.3988 101.026C77.1377 99.1122 78.5331 97.373 80.3643 97.1988L87.1659 96.3288C89.0844 96.0683 90.8283 97.4601 91.0029 99.2864L91.4387 102.852C96.6711 103.722 100.508 106.592 101.206 111.984L102.165 119.811C102.95 126.16 106.525 131.901 112.019 135.727L117.425 139.467C120.39 141.642 119.082 145.99 115.332 146.425Z" fill="#51A3FD"/>
<path d="M62.9244 153.209C61.1803 153.209 59.6107 152.339 58.8259 150.861C58.041 149.383 58.2154 147.643 59.349 146.252L63.7092 141.207C68.1566 136.076 70.0751 129.727 69.2902 123.291L68.2438 115.289C67.5462 110.071 70.1622 105.897 75.4816 103.461L75.0458 100.156C74.8712 99.113 75.2204 98.0688 75.8308 97.1996C76.4412 96.3295 77.4001 95.8078 78.4462 95.7207L85.3352 94.8515C86.3822 94.6774 87.4283 95.0249 88.3007 95.6337C89.1722 96.2424 89.6961 97.1996 89.7826 98.2429L90.2192 101.548C95.9747 102.591 99.5497 105.984 100.16 111.202L101.206 119.203C101.991 125.552 105.566 131.206 111.061 135.119L116.554 138.946C118.037 139.99 118.647 141.642 118.211 143.295C117.775 145.121 116.206 146.426 114.2 146.686L63.4476 153.122C63.3604 153.209 63.186 153.209 62.9244 153.209ZM86.0329 95.7207C85.8591 95.7207 85.7718 95.7207 85.5972 95.7207L78.7082 96.5908C77.9232 96.6779 77.1381 97.1125 76.615 97.7212C76.092 98.33 75.9173 99.2001 76.0047 99.9822L76.5277 103.983L76.2666 104.07C72.604 105.635 68.4182 108.853 69.203 115.115L70.2495 123.117C71.1215 129.727 69.0286 136.337 64.4068 141.642L60.0467 146.686C59.0874 147.73 58.913 149.121 59.6107 150.339C60.3083 151.643 61.8779 152.426 63.5348 152.166L114.287 145.73C115.944 145.556 117.252 144.425 117.6 142.946C117.95 141.642 117.427 140.337 116.292 139.555L110.799 135.728C105.043 131.727 101.381 125.813 100.509 119.203L99.4624 111.202C98.6774 104.94 93.7942 102.94 89.8699 102.244L89.5215 102.157L88.9984 98.1559C88.9111 97.3737 88.4753 96.5908 87.8641 96.0691C87.341 95.8949 86.6433 95.7207 86.0329 95.7207Z" fill="#699DCF"/>
<path opacity="0.86" d="M572.889 416.212H353.399C350.956 416.212 349.038 414.298 349.038 411.863V376.64C349.038 374.205 350.956 372.291 353.399 372.291H572.889C575.33 372.291 577.249 374.205 577.249 376.64V411.863C577.249 414.298 575.33 416.212 572.889 416.212Z" fill="#51A3FD"/>
<path opacity="0.86" d="M574.459 442.564H351.828C350.258 442.564 349.038 441.347 349.038 439.782V427.258C349.038 425.692 350.258 424.474 351.828 424.474H574.459C576.028 424.474 577.249 425.692 577.249 427.258V439.782C577.249 441.347 576.028 442.564 574.459 442.564Z" fill="#51A3FD"/>
<path d="M585.97 146.773C585.708 146.773 585.533 146.599 585.533 146.338V54.3217C585.533 47.19 579.691 41.3629 572.54 41.3629H400.75C393.599 41.3629 387.757 47.19 387.757 54.3217V99.6338C387.757 99.895 387.582 100.069 387.321 100.069C387.059 100.069 386.885 99.895 386.885 99.6338V54.3217C386.885 46.7552 393.076 40.4932 400.75 40.4932H572.54C580.127 40.4932 586.406 46.6682 586.406 54.3217V146.338C586.406 146.599 586.144 146.773 585.97 146.773Z" fill="#699DCF"/>
<path d="M574.109 197.129H399.092C392.291 197.129 386.796 191.65 386.796 184.867V162.167C386.796 155.383 392.291 149.904 399.092 149.904H574.022C580.824 149.904 586.318 155.383 586.318 162.167V184.867C586.405 191.65 580.824 197.129 574.109 197.129ZM399.092 150.861C392.814 150.861 387.669 155.992 387.669 162.254V184.954C387.669 191.216 392.814 196.347 399.092 196.347H574.022C580.301 196.347 585.446 191.216 585.446 184.954V162.254C585.446 155.992 580.301 150.861 574.022 150.861H399.092Z" fill="#699DCF"/>
<path opacity="0.19" d="M410.167 189.041C416.62 189.041 421.852 183.823 421.852 177.387C421.852 170.95 416.62 165.733 410.167 165.733C403.714 165.733 398.481 170.95 398.481 177.387C398.481 183.823 403.714 189.041 410.167 189.041Z" fill="#699DCF"/>
<path opacity="0.19" d="M568.442 188.085H436.677C433.015 188.085 429.963 185.127 429.963 181.387V171.038C429.963 167.386 432.928 164.341 436.677 164.341H568.442C572.104 164.341 575.156 167.298 575.156 171.038V181.387C575.069 185.041 572.104 188.085 568.442 188.085Z" fill="#699DCF"/>
<path opacity="0.19" d="M492.05 101.374C492.574 101.722 492.487 102.505 492.05 102.765L485.423 107.113C484.813 107.462 484.115 107.027 484.115 106.418V97.4602C484.115 96.7643 484.9 96.3297 485.511 96.7643L492.05 101.374Z" fill="#699DCF"/>
<path opacity="0.19" d="M397.262 74.2388V140.163H571.058V74.2388H397.262ZM503.214 109.723C503.214 112.159 501.295 114.072 498.854 114.072H475.483C473.042 114.072 471.123 112.159 471.123 109.723V93.4591C471.123 91.024 473.042 89.1106 475.483 89.1106H498.854C501.295 89.1106 503.214 91.024 503.214 93.4591V109.723Z" fill="#699DCF"/>
<path d="M256.514 449.087H247.794C247.533 449.087 247.358 448.913 247.358 448.652C247.358 448.392 247.533 448.217 247.794 448.217H256.514C256.776 448.217 256.951 448.392 256.951 448.652C256.951 448.913 256.776 449.087 256.514 449.087ZM239.074 449.087H230.354C230.092 449.087 229.917 448.913 229.917 448.652C229.917 448.392 230.092 448.217 230.354 448.217H239.074C239.336 448.217 239.509 448.392 239.509 448.652C239.509 448.913 239.336 449.087 239.074 449.087ZM221.633 449.087H212.912C212.651 449.087 212.477 448.913 212.477 448.652C212.477 448.392 212.651 448.217 212.912 448.217H221.633C221.895 448.217 222.069 448.392 222.069 448.652C222.069 448.913 221.895 449.087 221.633 449.087ZM204.192 449.087H195.472C195.21 449.087 195.036 448.913 195.036 448.652C195.036 448.392 195.21 448.217 195.472 448.217H204.192C204.454 448.217 204.629 448.392 204.629 448.652C204.629 448.913 204.454 449.087 204.192 449.087ZM186.752 449.087H178.032C177.77 449.087 177.595 448.913 177.595 448.652C177.595 448.392 177.77 448.217 178.032 448.217H186.752C187.013 448.217 187.188 448.392 187.188 448.652C187.188 448.913 187.013 449.087 186.752 449.087ZM169.311 449.087H160.591C160.33 449.087 160.155 448.913 160.155 448.652C160.155 448.392 160.33 448.217 160.591 448.217H169.311C169.573 448.217 169.747 448.392 169.747 448.652C169.747 448.913 169.573 449.087 169.311 449.087ZM151.87 449.087H143.15C142.888 449.087 142.715 448.913 142.715 448.652C142.715 448.392 142.888 448.217 143.15 448.217H151.87C152.132 448.217 152.306 448.392 152.306 448.652C152.306 448.913 152.132 449.087 151.87 449.087ZM134.43 449.087H125.709C125.448 449.087 125.273 448.913 125.273 448.652C125.273 448.392 125.448 448.217 125.709 448.217H134.43C134.691 448.217 134.866 448.392 134.866 448.652C134.866 448.913 134.691 449.087 134.43 449.087ZM116.989 449.087H108.269C108.007 449.087 107.833 448.913 107.833 448.652C107.833 448.392 108.007 448.217 108.269 448.217H116.989C117.251 448.217 117.426 448.392 117.426 448.652C117.426 448.913 117.251 449.087 116.989 449.087ZM99.5487 449.087H90.8286C90.5666 449.087 90.392 448.913 90.392 448.652C90.392 448.392 90.5666 448.217 90.8286 448.217H99.5487C99.8098 448.217 99.9845 448.392 99.9845 448.652C99.9845 448.913 99.8098 449.087 99.5487 449.087ZM82.1076 449.087H73.3877C73.126 449.087 72.9516 448.913 72.9516 448.652C72.9516 448.392 73.126 448.217 73.3877 448.217H82.1076C82.3695 448.217 82.5442 448.392 82.5442 448.652C82.5442 448.913 82.3695 449.087 82.1076 449.087ZM64.6673 449.087H55.947C55.6854 449.087 55.511 448.913 55.511 448.652C55.511 448.392 55.6854 448.217 55.947 448.217H64.6673C64.929 448.217 65.1033 448.392 65.1033 448.652C65.1033 448.913 64.929 449.087 64.6673 449.087ZM47.2267 449.087H46.093C43.4769 449.087 41.2969 446.913 41.2969 444.303V443.521C41.2969 443.26 41.4713 443.086 41.7329 443.086C41.9945 443.086 42.1689 443.26 42.1689 443.521V444.303C42.1689 446.478 43.9129 448.217 46.093 448.217H47.2267C47.4883 448.217 47.6627 448.392 47.6627 448.652C47.6627 448.913 47.4883 449.087 47.2267 449.087ZM264.711 447.434C264.625 447.434 264.537 447.434 264.45 447.347C264.275 447.173 264.275 446.913 264.363 446.739C264.886 446.043 265.235 445.174 265.235 444.303V438.563C265.235 438.303 265.409 438.129 265.671 438.129C265.932 438.129 266.107 438.303 266.107 438.563V444.303C266.107 445.434 265.758 446.478 265.06 447.26C264.973 447.347 264.886 447.434 264.711 447.434ZM41.7329 435.258C41.4713 435.258 41.2969 435.085 41.2969 434.824V426.126C41.2969 425.865 41.4713 425.692 41.7329 425.692C41.9945 425.692 42.1689 425.865 42.1689 426.126V434.824C42.1689 435.085 41.9945 435.258 41.7329 435.258ZM265.671 430.301C265.409 430.301 265.235 430.127 265.235 429.866V421.169C265.235 420.908 265.409 420.734 265.671 420.734C265.932 420.734 266.107 420.908 266.107 421.169V429.866C266.107 430.04 265.932 430.301 265.671 430.301ZM41.7329 417.864C41.4713 417.864 41.2969 417.69 41.2969 417.429V408.732C41.2969 408.471 41.4713 408.297 41.7329 408.297C41.9945 408.297 42.1689 408.471 42.1689 408.732V417.429C42.1689 417.69 41.9945 417.864 41.7329 417.864ZM265.671 412.907C265.409 412.907 265.235 412.733 265.235 412.472V403.774C265.235 403.514 265.409 403.34 265.671 403.34C265.932 403.34 266.107 403.514 266.107 403.774V412.472C266.107 412.646 265.932 412.907 265.671 412.907ZM41.7329 400.47C41.4713 400.47 41.2969 400.296 41.2969 400.035V391.338C41.2969 391.077 41.4713 390.903 41.7329 390.903C41.9945 390.903 42.1689 391.077 42.1689 391.338V400.035C42.1689 400.296 41.9945 400.47 41.7329 400.47ZM265.671 395.512C265.409 395.512 265.235 395.339 265.235 395.077V386.38C265.235 386.119 265.409 385.946 265.671 385.946C265.932 385.946 266.107 386.119 266.107 386.38V395.077C266.107 395.251 265.932 395.512 265.671 395.512ZM41.7329 383.075C41.4713 383.075 41.2969 382.901 41.2969 382.641V373.944C41.2969 373.682 41.4713 373.508 41.7329 373.508C41.9945 373.508 42.1689 373.682 42.1689 373.944V382.641C42.1689 382.901 41.9945 383.075 41.7329 383.075ZM265.671 378.118C265.409 378.118 265.235 377.944 265.235 377.683V368.986C265.235 368.725 265.409 368.551 265.671 368.551C265.932 368.551 266.107 368.725 266.107 368.986V377.683C266.107 377.857 265.932 378.118 265.671 378.118Z" fill="#699DCF"/>
<path d="M265.671 359.942C265.409 359.942 265.235 359.768 265.235 359.506V299.235C265.235 297.06 263.49 295.321 261.311 295.321H46.093C43.9129 295.321 42.1689 297.06 42.1689 299.235V359.506C42.1689 359.768 41.9945 359.942 41.7329 359.942C41.4713 359.942 41.2969 359.768 41.2969 359.506V299.235C41.2969 296.626 43.4769 294.451 46.093 294.451H261.311C263.927 294.451 266.107 296.626 266.107 299.235V359.506C266.107 359.768 265.932 359.942 265.671 359.942Z" fill="#699DCF"/>
<path opacity="0.2" d="M83.9413 384.12H54.5537C54.2921 384.12 54.1177 383.945 54.1177 383.684C54.1177 383.424 54.2921 383.25 54.5537 383.25H83.9413C84.2024 383.25 84.377 383.424 84.377 383.684C84.377 383.945 84.2024 384.12 83.9413 384.12Z" fill="#699DCF"/>
<path opacity="0.2" d="M83.9413 350.548H54.5537C54.2921 350.548 54.1177 350.374 54.1177 350.114C54.1177 349.852 54.2921 349.678 54.5537 349.678H83.9413C84.2024 349.678 84.377 349.852 84.377 350.114C84.377 350.374 84.2024 350.548 83.9413 350.548Z" fill="#699DCF"/>
<path opacity="0.2" d="M196.956 310.28H54.5537C54.2921 310.28 54.1177 310.107 54.1177 309.845C54.1177 309.584 54.2921 309.411 54.5537 309.411H196.956C197.218 309.411 197.392 309.584 197.392 309.845C197.392 310.107 197.218 310.28 196.956 310.28Z" fill="#699DCF"/>
<path opacity="0.2" d="M249.974 310.28H220.587C220.325 310.28 220.151 310.107 220.151 309.845C220.151 309.584 220.325 309.411 220.587 309.411H249.974C250.236 309.411 250.411 309.584 250.411 309.845C250.411 310.107 250.236 310.28 249.974 310.28Z" fill="#699DCF"/>
<path opacity="0.2" d="M249.974 350.548H220.587C220.325 350.548 220.151 350.374 220.151 350.114C220.151 349.852 220.325 349.678 220.587 349.678H249.974C250.236 349.678 250.411 349.852 250.411 350.114C250.411 350.374 250.236 350.548 249.974 350.548Z" fill="#699DCF"/>
<path opacity="0.2" d="M249.974 384.12H220.587C220.325 384.12 220.151 383.945 220.151 383.684C220.151 383.424 220.325 383.25 220.587 383.25H249.974C250.236 383.25 250.411 383.424 250.411 383.684C250.411 383.945 250.236 384.12 249.974 384.12Z" fill="#699DCF"/>
<path d="M315.377 386.12H311.017C310.755 386.12 310.581 385.946 310.581 385.685C310.581 385.424 310.755 385.25 311.017 385.25H315.377C315.639 385.25 315.813 385.424 315.813 385.685C315.813 385.946 315.639 386.12 315.377 386.12ZM306.657 386.12H302.297C302.035 386.12 301.861 385.946 301.861 385.685C301.861 385.424 302.035 385.25 302.297 385.25H306.657C306.919 385.25 307.093 385.424 307.093 385.685C307.093 385.946 306.919 386.12 306.657 386.12ZM297.937 386.12H293.577C293.315 386.12 293.14 385.946 293.14 385.685C293.14 385.424 293.315 385.25 293.577 385.25H297.937C298.198 385.25 298.372 385.424 298.372 385.685C298.372 385.946 298.198 386.12 297.937 386.12ZM289.217 386.12H284.856C284.594 386.12 284.42 385.946 284.42 385.685C284.42 385.424 284.594 385.25 284.856 385.25H289.217C289.478 385.25 289.652 385.424 289.652 385.685C289.652 385.946 289.478 386.12 289.217 386.12ZM280.496 386.12H276.135C275.874 386.12 275.7 385.946 275.7 385.685C275.7 385.424 275.874 385.25 276.135 385.25H280.496C280.757 385.25 280.932 385.424 280.932 385.685C280.932 385.946 280.757 386.12 280.496 386.12ZM319.65 385.424C319.476 385.424 319.389 385.337 319.301 385.25C319.214 385.077 319.214 384.815 319.476 384.641C320.609 383.946 321.307 382.728 321.307 381.337C321.307 381.076 321.481 380.901 321.743 380.901C322.005 380.901 322.179 381.076 322.179 381.337C322.179 382.989 321.307 384.468 319.999 385.337C319.824 385.424 319.737 385.424 319.65 385.424ZM321.656 377.423C321.394 377.423 321.22 377.249 321.22 376.988V372.639C321.22 372.379 321.394 372.204 321.656 372.204C321.918 372.204 322.092 372.379 322.092 372.639V376.988C322.092 377.249 321.918 377.423 321.656 377.423ZM321.656 368.726C321.394 368.726 321.22 368.552 321.22 368.291V363.942C321.22 363.682 321.394 363.507 321.656 363.507C321.918 363.507 322.092 363.682 322.092 363.942V368.291C322.092 368.552 321.918 368.726 321.656 368.726ZM321.656 360.028C321.394 360.028 321.22 359.855 321.22 359.593V355.245C321.22 354.984 321.394 354.81 321.656 354.81C321.918 354.81 322.092 354.984 322.092 355.245V359.593C322.092 359.855 321.918 360.028 321.656 360.028ZM321.656 351.331C321.394 351.331 321.22 351.158 321.22 350.896V346.548C321.22 346.287 321.394 346.113 321.656 346.113C321.918 346.113 322.092 346.287 322.092 346.548V350.896C322.092 351.158 321.918 351.331 321.656 351.331ZM321.656 342.634C321.394 342.634 321.22 342.46 321.22 342.199V337.851C321.22 337.59 321.394 337.415 321.656 337.415C321.918 337.415 322.092 337.59 322.092 337.851V342.199C322.092 342.46 321.918 342.634 321.656 342.634ZM321.656 333.937C321.394 333.937 321.22 333.676 321.22 333.502C321.307 332.024 321.83 330.458 322.615 329.24C322.703 329.067 323.051 328.98 323.226 329.067C323.399 329.153 323.487 329.501 323.399 329.676C322.703 330.893 322.266 332.198 322.179 333.589C322.091 333.763 321.918 333.937 321.656 333.937ZM326.103 326.805C325.928 326.805 325.842 326.718 325.755 326.631C325.667 326.458 325.667 326.196 325.928 326.022C327.236 325.24 328.719 324.805 330.289 324.718C330.55 324.718 330.725 324.892 330.725 325.153C330.725 325.413 330.55 325.587 330.289 325.587C328.894 325.675 327.586 326.109 326.365 326.805C326.19 326.805 326.103 326.805 326.103 326.805ZM356.362 325.587H352.002C351.741 325.587 351.567 325.413 351.567 325.153C351.567 324.892 351.741 324.718 352.002 324.718H356.362C356.624 324.718 356.799 324.892 356.799 325.153C356.799 325.413 356.624 325.587 356.362 325.587ZM347.642 325.587H343.282C343.02 325.587 342.846 325.413 342.846 325.153C342.846 324.892 343.02 324.718 343.282 324.718H347.642C347.904 324.718 348.078 324.892 348.078 325.153C348.078 325.413 347.904 325.587 347.642 325.587ZM338.922 325.587H334.562C334.3 325.587 334.125 325.413 334.125 325.153C334.125 324.892 334.3 324.718 334.562 324.718H338.922C339.183 324.718 339.358 324.892 339.358 325.153C339.358 325.413 339.183 325.587 338.922 325.587ZM360.722 325.5C360.549 325.5 360.374 325.327 360.287 325.153C360.199 324.892 360.374 324.718 360.635 324.631C361.943 324.37 362.99 323.414 363.513 322.196C363.601 321.935 363.862 321.848 364.036 321.935C364.298 322.022 364.386 322.282 364.298 322.457C363.688 324.022 362.38 325.066 360.81 325.413C360.722 325.413 360.722 325.5 360.722 325.5ZM364.211 318.456C363.949 318.456 363.775 318.282 363.775 318.021V313.672C363.775 313.411 363.949 313.238 364.211 313.238C364.472 313.238 364.647 313.411 364.647 313.672V318.021C364.647 318.282 364.386 318.456 364.211 318.456ZM364.211 309.759C363.949 309.759 363.775 309.585 363.775 309.324V304.975C363.775 304.714 363.949 304.541 364.211 304.541C364.472 304.541 364.647 304.714 364.647 304.975V309.324C364.647 309.585 364.386 309.759 364.211 309.759Z" fill="#699DCF"/>
<path d="M574.982 425.257H572.279C572.017 425.257 571.843 425.083 571.843 424.823C571.843 424.562 572.017 424.387 572.279 424.387H574.982C575.505 424.387 576.029 424.3 576.552 424.214C576.814 424.127 576.987 424.3 577.075 424.562C577.162 424.823 576.987 424.996 576.726 425.083C576.203 425.17 575.593 425.257 574.982 425.257ZM567.919 425.257H563.559C563.297 425.257 563.122 425.083 563.122 424.823C563.122 424.562 563.297 424.387 563.559 424.387H567.919C568.18 424.387 568.355 424.562 568.355 424.823C568.355 425.083 568.18 425.257 567.919 425.257ZM559.199 425.257H554.838C554.576 425.257 554.402 425.083 554.402 424.823C554.402 424.562 554.576 424.387 554.838 424.387H559.199C559.46 424.387 559.634 424.562 559.634 424.823C559.634 425.083 559.46 425.257 559.199 425.257ZM580.563 423.257C580.476 423.257 580.301 423.17 580.214 423.083C580.04 422.909 580.127 422.648 580.301 422.474C581.347 421.605 582.22 420.473 582.83 419.256C582.918 418.996 583.18 418.908 583.441 418.996C583.703 419.083 583.79 419.343 583.703 419.604C583.092 420.996 582.133 422.214 580.912 423.17C580.737 423.257 580.651 423.257 580.563 423.257ZM583.964 415.603C583.703 415.603 583.528 415.429 583.528 415.169V410.82C583.528 410.559 583.703 410.385 583.964 410.385C584.226 410.385 584.4 410.559 584.4 410.82V415.169C584.4 415.429 584.226 415.603 583.964 415.603ZM583.964 406.906C583.703 406.906 583.528 406.732 583.528 406.472V402.123C583.528 401.862 583.703 401.688 583.964 401.688C584.226 401.688 584.4 401.862 584.4 402.123V406.472C584.4 406.732 584.226 406.906 583.964 406.906ZM583.964 398.209C583.703 398.209 583.528 398.035 583.528 397.774V393.425C583.528 393.165 583.703 392.991 583.964 392.991C584.226 392.991 584.4 393.165 584.4 393.425V397.774C584.4 398.035 584.226 398.209 583.964 398.209Z" fill="#699DCF"/>
<path d="M583.964 393.86C583.703 393.86 583.528 393.686 583.528 393.425V389.077C583.528 388.815 583.703 388.641 583.964 388.641C584.226 388.641 584.4 388.815 584.4 389.077V393.425C584.4 393.686 584.226 393.86 583.964 393.86ZM583.964 385.163C583.703 385.163 583.528 384.989 583.528 384.728V380.379C583.528 380.118 583.703 379.944 583.964 379.944C584.226 379.944 584.4 380.118 584.4 380.379V384.728C584.4 384.989 584.226 385.163 583.964 385.163ZM583.964 376.466C583.703 376.466 583.528 376.292 583.528 376.03V371.682C583.528 371.421 583.703 371.247 583.964 371.247C584.226 371.247 584.4 371.421 584.4 371.682V376.03C584.4 376.292 584.226 376.466 583.964 376.466ZM583.18 367.942C583.005 367.942 582.83 367.855 582.743 367.682C582.22 366.463 581.348 365.333 580.214 364.464C580.04 364.289 579.953 364.028 580.127 363.855C580.301 363.681 580.563 363.594 580.737 363.768C581.959 364.724 582.918 365.942 583.528 367.333C583.615 367.595 583.528 367.768 583.266 367.942C583.353 367.942 583.266 367.942 583.18 367.942ZM576.639 362.724C576.029 362.637 575.505 362.55 574.982 362.55H572.279C572.017 362.55 571.843 362.376 571.843 362.115C571.843 361.854 572.017 361.68 572.279 361.68H574.982C575.593 361.68 576.203 361.767 576.726 361.854C576.987 361.941 577.075 362.115 577.075 362.376C577.075 362.55 576.901 362.724 576.639 362.724ZM567.919 362.55H563.559C563.297 362.55 563.122 362.376 563.122 362.115C563.122 361.854 563.297 361.68 563.559 361.68H567.919C568.18 361.68 568.355 361.854 568.355 362.115C568.355 362.376 568.18 362.55 567.919 362.55ZM559.199 362.55H554.838C554.576 362.55 554.402 362.376 554.402 362.115C554.402 361.854 554.576 361.68 554.838 361.68H559.199C559.46 361.68 559.634 361.854 559.634 362.115C559.634 362.376 559.46 362.55 559.199 362.55Z" fill="#699DCF"/>
<path d="M583.788 276.187H581.085C580.823 276.187 580.648 276.014 580.648 275.752C580.648 275.492 580.823 275.318 581.085 275.318H583.788C584.312 275.318 584.835 275.231 585.358 275.144C585.619 275.057 585.794 275.231 585.881 275.492C585.968 275.752 585.794 275.927 585.532 276.014C584.922 276.101 584.312 276.187 583.788 276.187ZM589.369 274.187C589.282 274.187 589.108 274.1 589.02 274.013C588.846 273.839 588.933 273.579 589.108 273.404C590.154 272.534 591.026 271.404 591.636 270.186C591.724 269.925 591.985 269.839 592.247 269.925C592.509 270.012 592.595 270.273 592.509 270.534C591.898 271.926 590.939 273.143 589.718 274.1C589.543 274.187 589.456 274.187 589.369 274.187ZM592.77 266.534C592.509 266.534 592.334 266.36 592.334 266.098V261.75C592.334 261.489 592.509 261.315 592.77 261.315C593.032 261.315 593.206 261.489 593.206 261.75V266.098C593.206 266.36 593.032 266.534 592.77 266.534ZM592.77 257.837C592.509 257.837 592.334 257.663 592.334 257.401V253.053C592.334 252.792 592.509 252.618 592.77 252.618C593.032 252.618 593.206 252.792 593.206 253.053V257.401C593.206 257.663 593.032 257.837 592.77 257.837ZM592.77 249.139C592.509 249.139 592.334 248.966 592.334 248.704V244.356C592.334 244.094 592.509 243.921 592.77 243.921C593.032 243.921 593.206 244.094 593.206 244.356V248.704C593.206 248.966 593.032 249.139 592.77 249.139Z" fill="#699DCF"/>
<path d="M592.769 244.79C592.508 244.79 592.334 244.616 592.334 244.355V240.006C592.334 239.746 592.508 239.572 592.769 239.572C593.031 239.572 593.205 239.746 593.205 240.006V244.355C593.205 244.616 593.031 244.79 592.769 244.79ZM592.769 236.092C592.508 236.092 592.334 235.919 592.334 235.658V231.309C592.334 231.048 592.508 230.875 592.769 230.875C593.031 230.875 593.205 231.048 593.205 231.309V235.658C593.205 235.919 593.031 236.092 592.769 236.092ZM592.769 227.395C592.508 227.395 592.334 227.222 592.334 226.961V222.612C592.334 222.351 592.508 222.178 592.769 222.178C593.031 222.178 593.205 222.351 593.205 222.612V226.961C593.205 227.222 593.031 227.395 592.769 227.395ZM591.984 218.873C591.811 218.873 591.636 218.785 591.549 218.611C591.025 217.394 590.153 216.263 589.02 215.393C588.845 215.22 588.758 214.959 588.932 214.784C589.107 214.611 589.369 214.611 589.543 214.697C590.763 215.654 591.723 216.872 592.334 218.264C592.421 218.524 592.334 218.698 592.072 218.873C592.072 218.873 592.072 218.873 591.984 218.873ZM585.445 213.654C585.357 213.654 585.357 213.654 585.445 213.654C584.834 213.567 584.311 213.48 583.787 213.48H581.085C580.823 213.48 580.648 213.306 580.648 213.045C580.648 212.784 580.823 212.611 581.085 212.611H583.787C584.398 212.611 585.008 212.698 585.532 212.784C585.793 212.871 585.88 213.045 585.88 213.306C585.793 213.48 585.618 213.654 585.445 213.654ZM576.724 213.48H572.363C572.102 213.48 571.928 213.306 571.928 213.045C571.928 212.784 572.102 212.611 572.363 212.611H576.724C576.985 212.611 577.16 212.784 577.16 213.045C577.16 213.306 576.985 213.48 576.724 213.48ZM568.003 213.48H563.643C563.382 213.48 563.208 213.306 563.208 213.045C563.208 212.784 563.382 212.611 563.643 212.611H568.003C568.265 212.611 568.44 212.784 568.44 213.045C568.44 213.306 568.265 213.48 568.003 213.48Z" fill="#699DCF"/>
<path d="M364.211 300.366C363.949 300.366 363.774 300.191 363.774 299.93V257.749C363.774 257.488 363.949 257.314 364.211 257.314C364.472 257.314 364.647 257.488 364.647 257.749V299.93C364.647 300.191 364.385 300.366 364.211 300.366Z" fill="#699DCF"/>
<path d="M220.936 240.268H69.2024C68.4175 240.268 67.8071 239.659 67.8071 238.876V232.614C67.8071 231.831 68.4175 231.222 69.2024 231.222H220.936C221.721 231.222 222.331 231.831 222.331 232.614V238.876C222.244 239.659 221.634 240.268 220.936 240.268Z" fill="#96C9FE"/>
<path d="M236.198 256.531H69.4651C68.6803 256.531 68.0698 255.922 68.0698 255.139V248.877C68.0698 248.095 68.6803 247.487 69.4651 247.487H236.198C236.983 247.487 237.593 248.095 237.593 248.877V255.139C237.593 255.922 236.983 256.531 236.198 256.531Z" fill="#96C9FE"/>
<path d="M307.704 376.901H294.885C292.443 376.901 290.524 374.987 290.524 372.552V359.767C290.524 357.332 292.443 355.418 294.885 355.418H307.704C310.145 355.418 312.064 357.332 312.064 359.767V372.552C312.064 374.9 310.058 376.901 307.704 376.901Z" fill="#699DCF"/>
<path d="M347.642 312.02H334.823C332.381 312.02 330.463 310.107 330.463 307.672V294.887C330.463 292.452 332.381 290.538 334.823 290.538H347.642C350.084 290.538 352.002 292.452 352.002 294.887V307.672C352.002 310.02 350.084 312.02 347.642 312.02Z" fill="#699DCF"/>
<path d="M548.036 449.087H420.458V347.939H548.036V449.087ZM421.329 448.217H547.163V348.808H421.329V448.217Z" fill="#699DCF"/>
<path d="M547.599 365.159H420.893C420.631 365.159 420.458 364.985 420.458 364.725C420.458 364.464 420.631 364.29 420.893 364.29H547.599C547.861 364.29 548.036 364.464 548.036 364.725C548.036 364.985 547.861 365.159 547.599 365.159Z" fill="#699DCF"/>
<path d="M452.374 378.466H437.113C436.852 378.466 436.678 378.292 436.678 378.031C436.678 377.77 436.852 377.597 437.113 377.597H452.374C452.635 377.597 452.81 377.77 452.81 378.031C452.81 378.292 452.635 378.466 452.374 378.466Z" fill="#699DCF"/>
<path d="M531.38 378.466H456.647C456.386 378.466 456.211 378.292 456.211 378.031C456.211 377.77 456.386 377.597 456.647 377.597H531.38C531.642 377.597 531.816 377.77 531.816 378.031C531.816 378.292 531.642 378.466 531.38 378.466Z" fill="#699DCF"/>
<path d="M482.981 386.033H437.198C436.937 386.033 436.763 385.858 436.763 385.598C436.763 385.337 436.937 385.163 437.198 385.163H482.981C483.242 385.163 483.416 385.337 483.416 385.598C483.416 385.858 483.242 386.033 482.981 386.033Z" fill="#699DCF"/>
<path d="M531.379 386.033H489.085C488.824 386.033 488.649 385.858 488.649 385.598C488.649 385.337 488.824 385.163 489.085 385.163H531.379C531.641 385.163 531.815 385.337 531.815 385.598C531.815 385.858 531.641 386.033 531.379 386.033Z" fill="#699DCF"/>
<path d="M452.374 393.512H437.113C436.852 393.512 436.678 393.338 436.678 393.077C436.678 392.816 436.852 392.642 437.113 392.642H452.374C452.635 392.642 452.81 392.816 452.81 393.077C452.81 393.338 452.635 393.512 452.374 393.512Z" fill="#699DCF"/>
<path d="M531.38 393.512H456.647C456.386 393.512 456.211 393.338 456.211 393.077C456.211 392.816 456.386 392.642 456.647 392.642H531.38C531.642 392.642 531.816 392.816 531.816 393.077C531.816 393.338 531.642 393.512 531.38 393.512Z" fill="#699DCF"/>
<path d="M509.752 401.079H437.198C436.937 401.079 436.763 400.905 436.763 400.644C436.763 400.383 436.937 400.209 437.198 400.209H509.752C510.013 400.209 510.188 400.383 510.188 400.644C510.188 400.905 510.013 401.079 509.752 401.079Z" fill="#699DCF"/>
<path d="M531.379 401.079H515.247C514.985 401.079 514.81 400.905 514.81 400.644C514.81 400.383 514.985 400.209 515.247 400.209H531.379C531.641 400.209 531.815 400.383 531.815 400.644C531.815 400.905 531.641 401.079 531.379 401.079Z" fill="#699DCF"/>
<path d="M397.435 94.1548C397.174 94.1548 396.912 93.8936 396.912 93.6331V61.4535C396.912 61.1926 397.174 60.9316 397.435 60.9316C397.697 60.9316 397.958 61.1926 397.958 61.4535V93.6331C397.958 93.9807 397.697 94.1548 397.435 94.1548Z" fill="#699DCF"/>
<path d="M571.144 135.467C570.883 135.467 570.621 135.206 570.621 134.945V58.3231H397.958V61.541C397.958 61.802 397.697 62.0629 397.435 62.0629C397.174 62.0629 396.912 61.802 396.912 61.541V57.3665H571.667V134.945C571.667 135.206 571.406 135.467 571.144 135.467Z" fill="#699DCF"/>
<path d="M571.144 74.7602H397.435C397.174 74.7602 396.912 74.4997 396.912 74.2385C396.912 73.9772 397.174 73.7168 397.435 73.7168H571.144C571.406 73.7168 571.667 73.9772 571.667 74.2385C571.667 74.4997 571.406 74.7602 571.144 74.7602Z" fill="#699DCF"/>
<path d="M518.3 134.423H402.582C402.321 134.423 402.059 134.161 402.059 133.901C402.059 133.64 402.321 133.378 402.582 133.378H518.3C518.562 133.378 518.823 133.64 518.823 133.901C518.823 134.161 518.562 134.423 518.3 134.423Z" fill="#699DCF"/>
<path d="M563.994 134.423H525.798C525.537 134.423 525.275 134.161 525.275 133.901C525.275 133.64 525.537 133.378 525.798 133.378H563.994C564.255 133.378 564.517 133.64 564.517 133.901C564.517 134.161 564.255 134.423 563.994 134.423Z" fill="#699DCF"/>
<path d="M592.77 247.313C595.034 247.313 596.869 245.483 596.869 243.225C596.869 240.968 595.034 239.137 592.77 239.137C590.506 239.137 588.672 240.968 588.672 243.225C588.672 245.483 590.506 247.313 592.77 247.313Z" fill="#699DCF"/>
<path d="M583.963 397.513C586.226 397.513 588.061 395.683 588.061 393.425C588.061 391.168 586.226 389.338 583.963 389.338C581.699 389.338 579.864 391.168 579.864 393.425C579.864 395.683 581.699 397.513 583.963 397.513Z" fill="#699DCF"/>
<path d="M412.782 251.139C410.603 251.139 408.771 249.661 408.771 247.834C408.771 247.573 409.033 247.313 409.295 247.313C409.557 247.313 409.818 247.573 409.818 247.834C409.818 249.052 411.126 250.095 412.782 250.095C414.44 250.095 415.748 249.052 415.748 247.834C415.748 247.573 416.009 247.313 416.271 247.313C416.532 247.313 416.794 247.573 416.794 247.834C416.794 249.661 414.963 251.139 412.782 251.139Z" fill="#699DCF"/>
<path opacity="0.34" d="M415.574 243.834V244.007C414.789 244.616 413.83 245.312 412.783 245.312C411.737 245.312 410.778 244.616 410.08 244.007V243.486C410.864 244.094 411.824 244.356 412.783 244.356C413.83 244.356 414.789 244.181 415.574 243.834Z" fill="#699DCF"/>
<path d="M413.654 242.355C413.481 242.355 413.219 242.355 413.044 242.268C412.608 242.007 412.434 241.572 412.434 241.572C412.434 241.485 412.434 241.311 412.608 241.311C412.696 241.311 412.87 241.311 412.87 241.485C412.87 241.485 412.957 241.746 413.219 241.92C413.481 242.007 413.829 242.007 414.178 241.833C414.265 241.833 414.439 241.833 414.439 241.92C414.439 242.007 414.439 242.181 414.352 242.181C414.091 242.355 413.829 242.355 413.654 242.355Z" fill="#699DCF"/>
<path d="M413.831 240.268C413.569 240.268 413.482 240.181 413.482 240.094L413.395 239.92L413.569 239.833C413.656 239.833 413.744 239.833 413.831 239.833C413.918 239.833 414.092 239.833 414.354 239.746C414.441 239.746 414.441 239.746 414.529 239.659C414.703 239.311 414.441 238.181 414.18 237.572C414.18 237.485 414.18 237.311 414.267 237.311C414.354 237.311 414.529 237.311 414.529 237.398C414.615 237.572 415.226 239.224 414.79 239.92C414.703 240.094 414.529 240.181 414.354 240.181C414.18 240.268 413.918 240.268 413.831 240.268Z" fill="#699DCF"/>
<path d="M417.402 233.744L417.315 236.962C417.315 237.397 417.315 237.832 417.229 238.354C417.229 238.354 417.054 236.702 417.054 235.31C417.054 234.875 416.967 234.614 416.879 234.44C416.792 234.44 416.792 234.527 416.705 234.527C414.961 235.223 410.078 234.527 410.078 234.527C409.642 234.44 410.339 236.179 410.339 236.179C410.339 236.179 409.467 238.354 409.031 238.963C408.944 239.05 408.944 239.137 408.857 239.137C408.508 239.137 407.985 237.484 407.985 237.484L407.897 237.397L407.287 237.049C407.287 236.962 407.2 236.875 407.2 236.788C406.676 234.875 407.287 232.788 407.636 232.788C407.636 232.788 407.723 232.788 407.723 232.875C408.159 230.875 409.816 229.309 411.909 229.135L417.577 228.439C417.752 228.439 418.187 232.092 417.402 233.744Z" fill="#699DCF"/>
<path d="M417.406 236.963L417.493 233.745C417.493 234.702 417.406 235.833 417.406 236.963Z" fill="#699DCF"/>
<path d="M412.782 301.147C410.603 301.147 408.771 299.669 408.771 297.843C408.771 297.582 409.033 297.321 409.295 297.321C409.557 297.321 409.818 297.582 409.818 297.843C409.818 299.061 411.126 300.104 412.782 300.104C414.44 300.104 415.748 299.061 415.748 297.843C415.748 297.582 416.009 297.321 416.271 297.321C416.532 297.321 416.794 297.582 416.794 297.843C416.794 299.669 414.963 301.147 412.782 301.147Z" fill="#699DCF"/>
<path opacity="0.34" d="M415.575 293.408V293.929C415.575 293.929 415.314 295.407 413.918 295.756C412.96 296.017 410.779 294.538 409.994 294.016V293.495C410.779 294.104 411.738 294.364 412.698 294.364C413.744 294.364 414.791 294.016 415.575 293.408Z" fill="#699DCF"/>
<path d="M413.916 292.277C413.916 292.277 413.829 292.277 413.916 292.277C413.393 292.277 413.044 291.842 413.044 291.754C412.956 291.668 412.956 291.494 413.044 291.407C413.131 291.32 413.305 291.32 413.393 291.407C413.393 291.407 413.654 291.754 414.003 291.754C414.177 291.754 414.439 291.407 414.526 291.059C414.526 290.972 414.701 290.885 414.787 290.972C414.875 290.972 414.962 291.146 414.875 291.233C414.787 291.494 414.439 292.277 413.916 292.277Z" fill="#699DCF"/>
<path d="M414.352 290.277C414.178 290.277 413.916 290.277 413.655 290.19C413.568 290.19 413.48 290.016 413.48 289.929C413.48 289.842 413.655 289.755 413.742 289.755C414.091 289.842 414.439 289.842 414.614 289.842C414.614 289.494 414.439 288.451 414.265 287.58C414.265 287.494 414.352 287.32 414.439 287.32C414.527 287.32 414.701 287.407 414.701 287.494C415.224 289.929 415.05 290.103 414.962 290.19C414.789 290.277 414.614 290.277 414.352 290.277Z" fill="#699DCF"/>
<path d="M410.343 286.972L411.826 286.798L412.436 284.537L413.22 286.623L418.453 286.45C418.453 286.45 418.453 282.362 417.232 281.406C414.267 279.057 407.378 280.014 406.768 281.753C402.931 284.275 403.279 296.625 404.064 298.8L411.651 297.843C411.564 297.843 409.907 286.885 410.343 286.972Z" fill="#699DCF"/>
<path d="M334.3 242.095H257.91C250.324 242.095 244.22 236.006 244.22 228.44V57.9749C244.22 50.4083 250.324 44.3203 257.91 44.3203H334.3C341.887 44.3203 347.992 50.4083 347.992 57.9749V228.44C347.992 236.006 341.801 242.095 334.3 242.095ZM257.91 45.3639C250.934 45.3639 245.266 51.0171 245.266 57.9749V228.44C245.266 235.397 250.934 241.051 257.91 241.051H334.3C341.277 241.051 346.945 235.397 346.945 228.44V57.9749C346.945 51.0171 341.277 45.3639 334.3 45.3639H257.91Z" fill="#699DCF"/>
<path d="M327.326 233.919H264.887C257.301 233.919 251.197 227.831 251.197 220.264V65.5414C251.197 65.2805 251.459 65.0195 251.72 65.0195C251.982 65.0195 252.243 65.2805 252.243 65.5414V220.264C252.243 227.222 257.912 232.875 264.887 232.875H327.326C334.302 232.875 339.97 227.222 339.97 220.264V65.5414C339.97 65.2805 340.231 65.0195 340.493 65.0195C340.754 65.0195 341.016 65.2805 341.016 65.5414V220.264C341.016 227.831 334.912 233.919 327.326 233.919Z" fill="#699DCF"/>
<path d="M296.105 142.077C293.489 142.077 291.309 139.902 291.309 137.293V127.117C291.309 124.508 293.489 122.334 296.105 122.334C298.721 122.334 300.901 124.508 300.901 127.117V137.293C300.901 139.902 298.721 142.077 296.105 142.077Z" fill="#51A3FD"/>
<path d="M296.105 142.859C292.356 142.859 289.304 140.337 289.304 137.293C289.304 136.859 289.652 136.423 290.175 136.423C290.699 136.423 291.048 136.772 291.048 137.293C291.048 139.467 293.402 141.207 296.193 141.207C298.984 141.207 301.338 139.467 301.338 137.293C301.338 136.859 301.686 136.423 302.209 136.423C302.733 136.423 303.082 136.772 303.082 137.293C302.907 140.337 299.855 142.859 296.105 142.859Z" fill="#699DCF"/>
<path opacity="0.34" d="M300.902 129.205V130.596C299.594 131.64 297.85 132.858 296.105 132.858C294.362 132.858 292.705 131.64 291.397 130.683V129.205C291.397 127.813 292.53 126.769 293.839 126.769H298.461C299.769 126.683 300.902 127.813 300.902 129.205Z" fill="black"/>
<path d="M296.018 131.205C291.571 131.205 287.908 127.639 287.908 123.116V118.507C287.908 114.071 291.483 110.418 296.018 110.418C300.465 110.418 304.128 108.418 304.128 112.854V123.116C304.128 127.639 300.465 131.205 296.018 131.205Z" fill="#51A3FD"/>
<path d="M288.454 124.089C289.683 123.669 290.25 122.076 289.719 120.53C289.188 118.986 287.76 118.075 286.53 118.495C285.3 118.916 284.733 120.509 285.264 122.054C285.795 123.599 287.223 124.511 288.454 124.089Z" fill="#51A3FD"/>
<path d="M297.586 127.813C297.237 127.813 296.888 127.726 296.627 127.552C295.842 127.205 295.58 126.422 295.58 126.422C295.494 126.247 295.667 125.987 295.842 125.987C296.017 125.9 296.278 126.074 296.278 126.247C296.278 126.247 296.452 126.77 296.975 126.943C297.412 127.117 298.022 127.118 298.633 126.856C298.807 126.77 299.069 126.856 299.156 127.118C299.243 127.379 299.156 127.552 298.894 127.639C298.371 127.726 297.935 127.813 297.586 127.813Z" fill="#699DCF"/>
<path d="M297.937 124.161C297.501 124.161 297.414 124.074 297.327 123.813L297.24 123.552L297.588 123.378C297.763 123.291 297.85 123.291 298.025 123.378C298.199 123.378 298.461 123.378 298.984 123.291C299.071 123.291 299.158 123.205 299.246 123.118C299.594 122.509 299.071 120.595 298.722 119.464C298.635 119.291 298.722 119.029 298.896 118.942C299.071 118.855 299.333 118.942 299.419 119.117C299.507 119.464 300.554 122.247 299.943 123.378C299.769 123.639 299.507 123.813 299.158 123.9C298.461 124.161 298.111 124.161 297.937 124.161Z" fill="#699DCF"/>
<path d="M294.798 120.943C295.231 120.943 295.582 120.593 295.582 120.16C295.582 119.728 295.231 119.378 294.798 119.378C294.364 119.378 294.013 119.728 294.013 120.16C294.013 120.593 294.364 120.943 294.798 120.943Z" fill="#699DCF"/>
<path d="M301.337 120.943C301.77 120.943 302.122 120.593 302.122 120.16C302.122 119.728 301.77 119.378 301.337 119.378C300.904 119.378 300.552 119.728 300.552 120.16C300.552 120.593 300.904 120.943 301.337 120.943Z" fill="#699DCF"/>
<path d="M291.57 114.419C291.57 114.419 299.941 115.55 302.907 114.332C305.872 113.115 306.744 109.897 304.128 109.201C301.511 108.505 288.78 108.592 287.733 111.636C287.21 110.854 285.64 115.115 286.948 118.855L288.169 119.551C288.169 119.551 289.042 122.421 289.565 122.421C290.088 122.421 292.094 117.289 292.094 117.289C292.094 117.289 290.785 114.245 291.57 114.419Z" fill="#699DCF"/>
<path d="M302.122 113.375C302.122 113.375 303.43 115.81 303.518 118.245C303.605 120.594 304.128 121.376 304.128 121.376V112.941L302.122 113.375Z" fill="#699DCF"/>
<path opacity="0.86" d="M329.853 77.1082H263.578V86.2398H329.853V77.1082Z" fill="#E6E6E6"/>
<path d="M409.295 177.822H404.935C404.674 177.822 404.499 177.647 404.499 177.387C404.499 177.126 404.674 176.952 404.935 176.952H409.295C409.557 176.952 409.732 177.126 409.732 177.387C409.732 177.647 409.47 177.822 409.295 177.822ZM400.575 177.822H396.215C395.954 177.822 395.779 177.647 395.779 177.387C395.779 177.126 395.954 176.952 396.215 176.952H400.575C400.837 176.952 401.011 177.126 401.011 177.387C401.011 177.647 400.749 177.822 400.575 177.822ZM391.855 177.822H387.495C387.233 177.822 387.059 177.647 387.059 177.387C387.059 177.126 387.233 176.952 387.495 176.952H391.855C392.117 176.952 392.29 177.126 392.29 177.387C392.29 177.647 392.029 177.822 391.855 177.822ZM383.134 177.822H378.774C378.512 177.822 378.338 177.647 378.338 177.387C378.338 177.126 378.512 176.952 378.774 176.952H383.134C383.396 176.952 383.57 177.126 383.57 177.387C383.57 177.647 383.309 177.822 383.134 177.822ZM374.414 177.822H370.054C369.792 177.822 369.618 177.647 369.618 177.387C369.618 177.126 369.792 176.952 370.054 176.952H374.414C374.675 176.952 374.85 177.126 374.85 177.387C374.85 177.647 374.588 177.822 374.414 177.822ZM365.694 177.822H361.333C361.072 177.822 360.897 177.647 360.897 177.387C360.897 177.126 361.072 176.952 361.333 176.952H365.694C365.955 176.952 366.13 177.126 366.13 177.387C366.13 177.647 365.868 177.822 365.694 177.822ZM356.973 177.822H352.613C352.352 177.822 352.177 177.647 352.177 177.387C352.177 177.126 352.352 176.952 352.613 176.952H356.973C357.235 176.952 357.41 177.126 357.41 177.387C357.41 177.647 357.148 177.822 356.973 177.822ZM348.253 177.822H343.893C343.631 177.822 343.457 177.647 343.457 177.387C343.457 177.126 343.631 176.952 343.893 176.952H348.253C348.515 176.952 348.689 177.126 348.689 177.387C348.689 177.647 348.428 177.822 348.253 177.822ZM339.533 177.822H335.173C334.911 177.822 334.737 177.647 334.737 177.387C334.737 177.126 334.911 176.952 335.173 176.952H339.533C339.795 176.952 339.969 177.126 339.969 177.387C339.969 177.647 339.707 177.822 339.533 177.822ZM330.813 177.822H326.453C326.191 177.822 326.016 177.647 326.016 177.387C326.016 177.126 326.191 176.952 326.453 176.952H330.813C331.074 176.952 331.248 177.126 331.248 177.387C331.248 177.647 330.986 177.822 330.813 177.822ZM322.093 177.822H317.732C317.47 177.822 317.296 177.647 317.296 177.387C317.296 177.126 317.47 176.952 317.732 176.952H322.093C322.354 176.952 322.528 177.126 322.528 177.387C322.528 177.647 322.266 177.822 322.093 177.822ZM313.372 177.822H309.011C308.75 177.822 308.576 177.647 308.576 177.387C308.576 177.126 308.75 176.952 309.011 176.952H313.372C313.633 176.952 313.808 177.126 313.808 177.387C313.808 177.647 313.546 177.822 313.372 177.822Z" fill="#699DCF"/>
<path d="M239.686 149.383C238.204 149.383 236.722 149.208 235.239 148.774C234.977 148.687 234.89 148.426 234.977 148.252C235.064 147.991 235.326 147.904 235.5 147.991C236.808 148.425 238.291 148.6 239.686 148.6C239.947 148.6 240.122 148.774 240.122 149.034C240.122 149.296 239.947 149.383 239.686 149.383ZM231.489 146.948C231.402 146.948 231.315 146.948 231.227 146.86C230.006 146.077 228.873 145.034 227.914 143.903C227.74 143.729 227.74 143.468 228.001 143.294C228.175 143.121 228.437 143.121 228.611 143.381C229.483 144.425 230.617 145.382 231.75 146.165C231.925 146.339 232.012 146.599 231.838 146.773C231.75 146.86 231.664 146.948 231.489 146.948ZM225.908 140.424C225.734 140.424 225.559 140.337 225.472 140.163C224.861 138.772 224.513 137.38 224.251 135.902C224.251 135.641 224.426 135.467 224.6 135.38C224.861 135.38 225.036 135.554 225.123 135.727C225.298 137.119 225.646 138.511 226.257 139.816C226.344 140.077 226.257 140.25 225.996 140.424C226.082 140.424 225.996 140.424 225.908 140.424ZM224.861 131.901C224.861 131.901 224.774 131.901 224.861 131.901C224.513 131.814 224.426 131.64 224.426 131.379C224.688 129.901 225.123 128.509 225.821 127.118C225.908 126.943 226.169 126.856 226.431 126.943C226.606 127.03 226.78 127.292 226.606 127.552C225.996 128.857 225.559 130.161 225.298 131.553C225.298 131.727 225.036 131.901 224.861 131.901ZM228.611 124.248C228.525 124.248 228.437 124.248 228.35 124.161C228.175 123.987 228.175 123.725 228.35 123.552C229.396 122.421 230.53 121.464 231.838 120.769C232.012 120.681 232.274 120.681 232.448 120.943C232.535 121.117 232.535 121.377 232.274 121.551C231.053 122.247 229.919 123.204 228.96 124.248C228.873 124.161 228.786 124.248 228.611 124.248ZM236.024 119.812C235.849 119.812 235.675 119.638 235.587 119.464C235.5 119.203 235.675 119.029 235.937 118.942C237.157 118.595 238.465 118.508 239.774 118.508C240.035 118.508 240.209 118.681 240.209 118.942C240.209 119.203 240.035 119.377 239.774 119.377C238.553 119.377 237.332 119.551 236.198 119.812C236.111 119.812 236.024 119.812 236.024 119.812Z" fill="#699DCF"/>
<path d="M498.852 89.1106H475.481C473.04 89.1106 471.121 91.024 471.121 93.4591V109.724C471.121 112.159 473.04 114.072 475.481 114.072H498.852C501.293 114.072 503.212 112.159 503.212 109.724V93.4591C503.212 91.1111 501.293 89.1106 498.852 89.1106ZM492.05 102.853L485.422 107.114C484.812 107.462 484.115 107.027 484.115 106.418V97.4601C484.115 96.7642 484.899 96.3296 485.509 96.7642L492.05 101.461C492.573 101.722 492.573 102.504 492.05 102.853Z" fill="#305EED"/>
<path d="M492.05 102.852L485.423 107.113C484.813 107.462 484.115 107.027 484.115 106.418V97.4602C484.115 96.7643 484.9 96.3297 485.511 96.7643L492.05 101.46C492.574 101.722 492.574 102.505 492.05 102.852Z" fill="#96C9FE"/>
<path d="M502.165 304.54H458.825C458.563 304.54 458.389 304.366 458.389 304.105C458.389 303.844 458.563 303.67 458.825 303.67H502.165C502.427 303.67 502.602 303.844 502.602 304.105C502.602 304.366 502.427 304.54 502.165 304.54Z" fill="#699DCF"/>
<path d="M480.539 262.707C480.278 262.707 480.103 262.62 480.103 262.62V253.227C480.103 253.14 480.278 253.14 480.539 253.14C480.801 253.14 480.975 253.227 480.975 253.227V262.533C480.975 262.62 480.713 262.707 480.539 262.707Z" fill="#699DCF"/>
<path d="M481.673 288.624C481.499 288.624 481.237 288.45 481.237 288.276C481.237 288.016 481.411 287.841 481.586 287.754C482.981 287.58 484.289 287.058 485.336 286.189C485.51 286.015 485.771 286.102 485.946 286.275C486.121 286.45 486.033 286.711 485.859 286.884C484.638 287.841 483.242 288.45 481.673 288.624ZM477.313 288.103C477.226 288.103 477.226 288.103 477.138 288.103C475.743 287.58 474.435 286.624 473.476 285.406C473.301 285.232 473.389 284.971 473.563 284.798C473.737 284.623 473.999 284.71 474.174 284.885C475.045 285.928 476.18 286.798 477.487 287.32C477.749 287.407 477.836 287.667 477.749 287.841C477.661 288.016 477.487 288.103 477.313 288.103ZM488.3 283.667C488.213 283.667 488.213 283.667 488.126 283.667C487.864 283.58 487.777 283.319 487.864 283.058C488.3 282.014 488.562 280.884 488.562 279.753C488.562 279.492 488.562 279.318 488.562 279.057C488.562 278.796 488.737 278.623 488.998 278.623C489.26 278.623 489.434 278.796 489.434 279.057C489.434 279.318 489.434 279.579 489.434 279.84C489.434 281.145 489.172 282.362 488.649 283.493C488.649 283.58 488.475 283.667 488.3 283.667ZM472.081 281.667C471.906 281.667 471.732 281.492 471.645 281.318C471.558 280.797 471.47 280.275 471.47 279.753C471.47 278.187 471.906 276.709 472.604 275.405C472.691 275.231 472.953 275.143 473.214 275.231C473.389 275.318 473.476 275.578 473.389 275.839C472.691 277.057 472.343 278.361 472.343 279.753C472.343 280.188 472.343 280.709 472.429 281.145C472.516 281.405 472.429 281.579 472.081 281.667C472.168 281.667 472.081 281.667 472.081 281.667ZM487.602 275.405C487.429 275.405 487.341 275.318 487.254 275.231C486.469 274.1 485.423 273.143 484.202 272.534C484.027 272.447 483.94 272.187 484.027 271.925C484.115 271.751 484.377 271.665 484.638 271.751C486.033 272.447 487.167 273.491 488.039 274.709C488.213 274.883 488.126 275.143 487.952 275.318C487.777 275.405 487.69 275.405 487.602 275.405ZM476.005 272.883C475.83 272.883 475.743 272.795 475.656 272.708C475.568 272.534 475.568 272.274 475.83 272.1C477.138 271.317 478.621 270.795 480.19 270.795C480.452 270.795 480.626 270.969 480.626 271.23C480.626 271.491 480.452 271.665 480.19 271.665C478.795 271.751 477.487 272.1 476.266 272.883C476.18 272.883 476.092 272.883 476.005 272.883Z" fill="#699DCF"/>
<path opacity="0.34" d="M161.376 364.203V365.247C161.376 365.247 160.765 368.291 157.888 369.073C155.795 369.596 151.435 366.551 149.778 365.421V364.29C151.348 365.421 153.353 366.117 155.447 366.117C157.713 366.117 159.719 365.421 161.376 364.203Z" fill="#699DCF"/>
<path d="M158.063 361.941C157.192 361.941 156.232 361.333 156.145 361.246C155.971 361.071 155.883 360.81 156.058 360.637C156.232 360.463 156.494 360.376 156.669 360.55C156.93 360.724 157.715 361.158 158.238 361.071C158.935 360.897 159.023 359.593 159.023 359.593C159.023 359.332 159.197 359.158 159.459 359.158C159.721 359.158 159.895 359.332 159.895 359.593C159.895 359.68 159.895 361.593 158.5 361.941C158.325 361.941 158.15 361.941 158.063 361.941Z" fill="#699DCF"/>
<path d="M158.934 357.593C158.499 357.593 158.063 357.506 157.453 357.419C157.191 357.419 157.016 357.158 157.103 356.897C157.103 356.636 157.365 356.549 157.626 356.549C158.324 356.636 159.109 356.723 159.371 356.636C159.371 356.027 159.022 353.766 158.586 351.853C158.499 351.591 158.673 351.417 158.934 351.331C159.196 351.244 159.371 351.417 159.458 351.679C160.592 356.81 160.243 357.07 160.069 357.245C159.807 357.506 159.458 357.593 158.934 357.593Z" fill="#699DCF"/>
<path d="M150.563 350.722L153.702 350.287L154.923 345.678L156.579 350.113L167.393 349.679C167.393 349.679 167.305 341.242 164.777 339.155C158.673 334.197 144.284 336.198 142.976 339.937C135.127 345.156 135.738 370.812 137.308 375.335L153.004 373.422C153.004 373.335 149.603 350.548 150.563 350.722Z" fill="#51A3FD"/>
<path d="M136.263 377.249L136.176 377.075C134.606 372.553 134.17 351.679 139.403 343.069C139.49 342.982 139.577 342.895 139.664 342.982C139.751 343.069 139.838 343.156 139.751 343.243C134.781 351.505 135.13 372.03 136.524 376.727L151.872 374.814C151.087 369.248 148.733 352.201 149.518 351.505L149.605 351.418H149.692L152.657 350.984L153.966 345.678L155.797 350.722L168.441 350.288C168.441 348.896 168.179 340.808 165.912 338.981C164.865 338.111 163.471 337.329 161.813 336.894C161.726 336.894 161.64 336.72 161.64 336.633C161.64 336.546 161.813 336.459 161.901 336.459C163.645 336.981 165.04 337.764 166.173 338.633C168.79 340.808 168.877 350.114 168.877 350.462V350.635L155.447 351.071L154.053 347.07L153.006 351.244L149.779 351.679C149.431 352.897 151.087 366.464 152.308 374.814V375.075L136.263 377.249Z" fill="#699DCF"/>
<path d="M182.741 404.558H113.154C107.136 404.558 102.253 399.687 102.253 393.686V335.328C102.253 329.327 107.136 324.456 113.154 324.456H182.741C188.758 324.456 193.642 329.327 193.642 335.328V393.686C193.642 399.687 188.758 404.558 182.741 404.558ZM113.154 325.326C107.572 325.326 103.125 329.849 103.125 335.328V393.686C103.125 399.253 107.659 403.688 113.154 403.688H182.741C188.323 403.688 192.77 399.166 192.77 393.686V335.328C192.77 329.762 188.235 325.326 182.741 325.326H113.154Z" fill="#699DCF"/>
<path opacity="0.2" d="M554.401 333.849H411.563C411.301 333.849 411.126 333.675 411.126 333.414C411.126 333.153 411.301 332.98 411.563 332.98H554.488C554.75 332.98 554.925 333.153 554.925 333.414C554.925 333.675 554.663 333.849 554.401 333.849Z" fill="#699DCF"/>
<path d="M296.106 184.78C291.745 184.78 288.17 181.214 288.17 176.865C288.17 172.516 291.745 168.951 296.106 168.951C300.466 168.951 304.041 172.516 304.041 176.865C304.041 181.214 300.466 184.78 296.106 184.78ZM296.106 169.821C292.182 169.821 289.043 172.952 289.043 176.865C289.043 180.779 292.182 183.91 296.106 183.91C300.03 183.91 303.169 180.779 303.169 176.865C303.169 172.952 300.03 169.821 296.106 169.821Z" fill="#699DCF"/>
<path opacity="0.1" d="M244.831 71.1946H166.522V83.284H244.831V71.1946Z" fill="#699DCF"/>
<path opacity="0.1" d="M244.83 89.4583H184.747V112.68H244.83V89.4583Z" fill="#699DCF"/>
<path opacity="0.1" d="M244.83 155.036H184.747V178.257H244.83V155.036Z" fill="#699DCF"/>
<path opacity="0.1" d="M244.83 187.91H184.747V211.133H244.83V187.91Z" fill="#699DCF"/>
<path opacity="0.1" d="M179.865 89.4583H167.396V112.68H179.865V89.4583Z" fill="#699DCF"/>
<path opacity="0.1" d="M179.865 155.036H167.396V178.257H179.865V155.036Z" fill="#699DCF"/>
<path opacity="0.1" d="M179.865 187.91H167.396V211.133H179.865V187.91Z" fill="#699DCF"/>
<path d="M172.276 372.117H166.259C166.172 372.117 166.084 372.03 166.084 371.943C166.084 371.856 166.172 371.769 166.259 371.769H171.753L170.532 366.29C170.532 366.203 170.619 366.029 170.707 366.029C170.794 366.029 170.968 366.116 170.968 366.203L172.276 372.117Z" fill="#699DCF"/>
</g>
<defs>
<clipPath id="clip0">
<rect width="648" height="476" fill="white"/>
</clipPath>
</defs>
</svg>
