<svg id="Layer_1" data-name="Layer 1" xmlns="http://www.w3.org/2000/svg" viewBox="0 0 202 127">
<defs>
<style>.cls-1,.cls-2,.cls-3{fill:none;}.cls-1,.cls-2{stroke:#53d084;}.cls-1{stroke-dasharray:2 5;}.cls-2,.cls-3{stroke-miterlimit:10;}.cls-3{stroke:#63bf81;}
</style>
</defs>
<path class="cls-1" d="M118.69,106.5V106h-5v.5h-2V106h-5v.5h-2V106h-5v.5h-2V106h-5v.5h-2V106h-5v.5h-2V106h-5v.5h-2V106h-5v.5h-2V106h-5v.5h-2V106h-5v.5h-2V106h-5v.5h-2V106h-5v.5h-2V106h-5v.5h-2V106h-5v.5h-2V106h-5v.5h-2V106h-5v.5h-2V106h-5v.5H6V106H1v.5H.5V107H0v4.76H.5v1.91H0v4.76H.5v1.91H0v4.76H.5v.45H1v.5h5.1v-.5h2v.5h5.1v-.5h2v.5h5.1v-.5h2v.5h5.1v-.5h2v.5h5.1v-.5h2v.5h5.09v-.5h2v.5H49v-.5h2v.5h5.1v-.5h2v.5h5.1v-.5h2v.5h5.1v-.5h2v.5h5.1v-.5h2v.5h5.1v-.5h2v.5h5.1v-.5h2v.5h5.1v-.5h2v.5h5.1v-.5h2v.5h5.1v-.5h2v.5h5.1v-.5h2v.5h5.1v-.5h2v.5h5.1v-.5h1a7.58,7.58,0,0,0,.84,0l.06.5a7.92,7.92,0,0,0,4.09-1.7l-.31-.39a7.81,7.81,0,0,0,1.19-1.18l.39.31a8,8,0,0,0,1.69-4.09l-.49-.06a7.75,7.75,0,0,0,0-.84v-1h.5V111.8h-.5v-2.06h.5v-5.17h-.5V102.5h.5V97.34h-.5V95.27h.5V90.11h-.5V88h.5V82.88h-.5V80.81h.5V75.65h-.5V73.58h.5V68.42h-.5V66.35h.5V61.19h-.5V59.12h.5V54h-.5V51.89h.5V46.73h-.5V44.66h.5V39.49h-.5V37.43h.5V32.26h-.5V30.2h.5V25h-.5V24a4.15,4.15,0,0,1,.12-1l.48.11a4,4,0,0,1,3-3l-.11-.49a4.71,4.71,0,0,1,1-.11h1V20h4.76v-.5h1.9V20H160v-.5h1.9V20h4.77v-.5h1.9V20h4.77v-.5h1.9V20H180v-.5h1.9V20h4.77v-.5h1.9V20h4.77v-.5h1.9V20h4.77v-.5h.45v-.45h.5V14.29h-.5V12.38h.5V7.62h-.5V5.71h.5V1h-.5V.5H200V0h-4.95V.5h-2V0h-5V.5h-2V0h-5V.5h-2V0h-4.95V.5h-2V0h-4.95V.5h-2V0h-5V.5h-2V0h-5V.5h-2V0h-5V.5h-2V0h-4.95V.5h-2V0h-4.95V.5h-1a7.89,7.89,0,0,0-.84.05l0-.5a8,8,0,0,0-4.1,1.7l.32.39a7.81,7.81,0,0,0-1.19,1.18L125.44,3a8,8,0,0,0-1.7,4.09l.5.06a7.89,7.89,0,0,0,0,.84V9h-.5V14.2h.5v2.06h-.5v5.17h.5v2.06h-.5v5.17h.5v2.07h-.5v5.16h.5V38h-.5v5.16h.5v2.07h-.5v5.16h.5v2.07h-.5v5.16h.5v2.07h-.5v5.16h.5v2.07h-.5V72h.5v2.07h-.5v5.16h.5v2.07h-.5v5.17h.5v2.06h-.5v5.17h.5V95.8h-.5V101h.5v1a4.71,4.71,0,0,1-.11,1l-.49-.11a4,4,0,0,1-3,3l.11.49a4.64,4.64,0,0,1-1,.11Z" transform="translate(0.5 0.5)"/>
<path class="cls-2" d="M0,105.83l115.54.17s8.15.37,8.15-7.9l.55-90.94S123.63,0,135.5,0H201" transform="translate(0.5 0.5)"/>
<path class="cls-3" d="M0,116H122.81s11.07-.19,11.07-8.62V19.5s-1.69-10,10.31-10H201" transform="translate(0.5 0.5)"/>
<path class="cls-2" d="M.5,125.5H131.19s12.25,1.09,12.45-11.39v-87s-.86-7.63,11.62-7.63H200.5" transform="translate(0.5 0.5)"/>
</svg>