<svg width="201" height="126" viewBox="0 0 201 126" fill="none" xmlns="http://www.w3.org/2000/svg">
<path d="M118.686 106.5V106H113.657V106.5H111.646V106H106.617V106.5H104.605V106H99.576V106.5H97.5643V106H92.5352V106.5H90.5236V106H85.4945V106.5H83.4829V106H78.4538V106.5H76.4421V106H71.413V106.5H69.4014V106H64.3723V106.5H62.3607V106H57.3316V106.5H55.32V106H50.2909V106.5H48.2792V106H43.2502V106.5H41.2385V106H36.2094V106.5H34.1978V106H29.1687V106.5H27.1571V106H22.128V106.5H20.1164V106H15.0873V106.5H13.0756V106H8.04654V106.5H6.03491V106H1.00582V106.5H0.5V106.952H0V111.714H0.5V113.619H0V118.381H0.5V120.286H0V125.048H0.5V125.5H1.01983V126H6.11919V125.5H8.15893V126H13.2583V125.5H15.298V126H20.3974V125.5H22.4371V126H27.5365V125.5H29.5762V126H34.6756V125.5H36.7153V126H41.8146V125.5H43.8544V126H48.9537V125.5H50.9935V126H56.0928V125.5H58.1326V126H63.2319V125.5H65.2717V126H70.371V125.5H72.4107V126H77.5101V125.5H79.5498V126H84.6492V125.5H86.6889V126H91.7883V125.5H93.828V126H98.9274V125.5H100.967V126H106.066V125.5H108.106V126H113.206V125.5H115.245V126H120.345V125.5H122.384V126H127.484V125.5H129.523V126H134.623V125.5H135.643C135.927 125.5 136.208 125.484 136.483 125.453L136.539 125.95C138.077 125.779 139.483 125.172 140.631 124.255L140.319 123.864C140.758 123.514 141.156 123.115 141.507 122.676L141.898 122.988C142.814 121.84 143.422 120.434 143.593 118.896L143.096 118.841C143.127 118.565 143.143 118.284 143.143 118V116.967H143.643V111.802H143.143V109.736H143.643V104.571H143.143V102.505H143.643V97.3406H143.143V95.2747H143.643V90.1099H143.143V88.0439H143.643V82.8791H143.143V80.8132H143.643V75.6483H143.143V73.5824H143.643V68.4176H143.143V66.3516H143.643V61.1868H143.143V59.1209H143.643V53.956H143.143V51.8901H143.643V46.7253H143.143V44.6593H143.643V39.4945H143.143V37.4286H143.643V32.2637H143.143V30.1978H143.643V25.033H143.143V24C143.143 23.6564 143.181 23.3212 143.255 22.9987L143.742 23.1095C144.082 21.6154 145.258 20.4392 146.752 20.0995L146.641 19.6119C146.964 19.5386 147.299 19.5 147.643 19.5H148.595V20H153.36V19.5H155.265V20H160.029V19.5H161.935V20H166.699V19.5H168.604V20H173.369V19.5H175.274V20H180.038V19.5H181.944V20H186.708V19.5H188.613V20H193.378V19.5H195.283V20H200.047V19.5H200.5V19.0476H201V14.2857H200.5V12.381H201V7.61905H200.5V5.71429H201V0.952377H200.5V0.5H200.01V0H195.059V0.5H193.079V0H188.129V0.5H186.148V0H181.198V0.5H179.218V0H174.267V0.5H172.287V0H167.336V0.5H165.356V0H160.405V0.5H158.425V0H153.475V0.5H151.495V0H146.544V0.5H144.564V0H139.613V0.5H137.633V0H132.682V0.5H131.692C131.408 0.5 131.127 0.515808 130.852 0.546555L130.796 0.0496368C129.258 0.221046 127.852 0.828308 126.704 1.74507L127.016 2.13579C126.577 2.48627 126.179 2.88501 125.828 3.32394L125.437 3.01195C124.521 4.16004 123.913 5.56612 123.742 7.10382L124.239 7.15921C124.208 7.43506 124.192 7.71559 124.192 8V9.03299H123.692V14.1978H124.192V16.2638H123.692V21.4286H124.192V23.4945H123.692V28.6594H124.192V30.7253H123.692V35.8901H124.192V37.9561H123.692V43.1209H124.192V45.1868H123.692V50.3517H124.192V52.4176H123.692V57.5824H124.192V59.6484H123.692V64.8132H124.192V66.8791H123.692V72.044H124.192V74.1099H123.692V79.2747H124.192V81.3407H123.692V86.5055H124.192V88.5714H123.692V93.7363H124.192V95.8022H123.692V100.967H124.192V102C124.192 102.344 124.154 102.679 124.08 103.001L123.593 102.89C123.253 104.385 122.077 105.561 120.583 105.901L120.694 106.388C120.371 106.461 120.036 106.5 119.692 106.5H118.686Z" stroke="#53D084" stroke-dasharray="2 5"/>
</svg>
