<svg id="Layer_1" data-name="Layer 1" xmlns="http://www.w3.org/2000/svg" viewBox="0 0 221 131">
<defs>
<style>
.cls-1,.cls-2,.cls-3,.cls-4{fill:none;}.cls-1,.cls-2,.cls-3{stroke:#53d084;}.cls-1{stroke-dasharray:2 5;}.cls-2,.cls-3,.cls-4{stroke-miterlimit:10;}.cls-3{stroke-width:1.01px;}.cls-4{stroke:#63bf81;}
</style>
</defs>
<path class="cls-1" d="M19.5,79.06H20v5.31h-.5v2.12H20V91.8h-.5v2.12H20v5.3h-.5v2.13H20v5.3h-.5v2.13H20v5.3h-.5v2.12H20v5.31h-.5v2.12H20v5.31h-.5v.56h-.45v.5H14.29v-.5H12.38v.5H7.62v-.5H5.71v.5H1v-.5H.5V129H0v-4.88H.5v-2H0v-4.89H.5v-2H0v-4.89H.5v-2H0v-4.89H.5v-2H0V96.77H.5v-2H0V89.92H.5V88H0V83.08H.5v-2H0V76.24H.5V74.29H0V69.4H.5v-2H0V62.56H.5v-2H0V55.71H.5v-2H0V48.87H.5V46.92H0V42H.5v-2H0V35.19H.5v-2H0V28.35H.5v-2H0V21.5H.5V19.55H0V14.66H.5V12.71H0V7.82H.5v-2H0V1H.5V.5H1V0H5.71V.5H7.62V0h4.76V.5h1.91V0h4.76V.5h.45V1H20v5.1h-.5v2H20v5.11h-.5v2H20v5.1h-.5v2H20v5.1h-.5v2H20v5.1h-.5v2H20v5.11h-.5v2H20V49h-.5v1a4.71,4.71,0,0,0,.11,1l.49-.11a4,4,0,0,0,3,3l-.11.49a4.71,4.71,0,0,0,1,.11h1V54h5v.5h2V54h5v.5h2V54h5v.5h2V54h5v.5h2V54h5v.5h2V54h5v.5h2V54h5v.5h2V54h5v.5h2V54h5v.5h2V54h5v.5h2V54h5v.5h2V54h5v.5h2V54h5v.5h2V54h5v.5h2V54h5v.5h2V54h5v.5h2V54h5v.5h2V54h5v.5h2V54h5v.5h2V54h5v.5h2V54h5v.5h2V54h5v.5h2V54h5v.5h2V54h5v.5h2V54h5v.5h2V54h5v.5h2V54h5v.5h2V54h5v.5h.5V55h.5v4.76h-.5v1.91h.5v4.76h-.5v1.91h.5v4.76h-.5v.45H219V74h-5v-.5h-2V74h-5v-.5h-2V74h-5v-.5h-2V74h-5v-.5h-2V74h-5v-.5h-2V74h-5v-.5h-2V74h-5v-.5h-2V74h-5v-.5h-2V74h-5v-.5h-2V74h-5v-.5h-2V74h-5v-.5h-2V74h-5v-.5h-2V74h-5v-.5h-2V74h-5v-.5h-2V74h-5v-.5h-2V74h-5v-.5h-2V74h-5v-.5h-2V74H95v-.5H93V74H88v-.5H86V74H81v-.5H79V74H74v-.5H72V74H67v-.5H65V74H60v-.5H58V74H53v-.5H51V74H46v-.5H44V74H39v-.5H37V74H32v-.5H30V74H25v-.5H24a4.71,4.71,0,0,0-1,.11l.11.49a4,4,0,0,0-3,3L19.61,77a4.71,4.71,0,0,0-.11,1Z" transform="translate(0.5 0.5)"/>
<path class="cls-2" d="M20,0l.27,48.25S20.2,54,28,54H220" transform="translate(0.5 0.5)"/>
<polyline class="cls-4" points="0.5 0.5 0.5 64.5 220.5 64.5 0.5 64.5 0.5 130.5"/>
<path class="cls-3" d="M20.06,130l.27-50.09S20.26,74,28.06,74h192" transform="translate(0.5 0.5)"/>
</svg>