<svg id="Layer_1" data-name="Layer 1" xmlns="http://www.w3.org/2000/svg" viewBox="0 0 203.25 248">
<defs>
<style>
.cls-1,.cls-2{fill:none;}.cls-1{stroke:#53d084;stroke-dasharray:2 5;}.cls-2{stroke:#63bf81;stroke-miterlimit:10;}
</style>
</defs>
<path class="cls-1" d="M119,19.5V20h-5v-.5h-2V20h-5v-.5h-2V20h-5v-.5h-2V20h-5v-.5h-2V20H85.71v-.5h-2V20h-5v-.5h-2V20h-5v-.5h-2V20h-5v-.5h-2V20h-5v-.5h-2V20h-5v-.5h-2V20h-5v-.5h-2V20h-5v-.5h-2V20H29.24v-.5h-2V20H22.18v-.5h-2V20h-5v-.5h-2V20h-5v-.5h-2V20H1v-.5H.5v-.45H0V14.29H.5V12.38H0V7.62H.5V5.71H0V1H.5V.5H1V0H6.14V.5h2V0h5.11V.5h2.05V0h5.11V.5H22.5V0h5.11V.5h2V0h5.12V.5h2V0h5.11V.5h2V0h5.11V.5h2.05V0h5.11V.5h2V0H63.4V.5h2V0h5.12V.5h2V0h5.11V.5h2.05V0h5.11V.5h2V0H92V.5h2V0h5.11V.5h2V0h5.12V.5h2V0h5.11V.5h2V0h5.11V.5h2V0h5.11V.5h2.05V0H135V.5h1a7.73,7.73,0,0,1,.84.05l.06-.5A8,8,0,0,1,141,1.75l-.31.39a7.74,7.74,0,0,1,1.18,1.18l.4-.31A8,8,0,0,1,144,7.1l-.5.06a7.89,7.89,0,0,1,.05.84V9h.5v4.95h-.5v2h.5v4.95h-.5v2h.5v5h-.5v2h.5v4.95h-.5v2h.5v5h-.5v2h.5v4.95h-.5v2h.5v5h-.5v2h.5v5h-.5v2h.5v5h-.5v2h.5v5h-.5v2h.5v5h-.5v2h.5v5h-.5v2h.5v5h-.5v2h.5v5h-.5v2h.5v5h-.5v2h.5v5h-.5v2h.5v5h-.5v2h.5v5h-.5v2h.5v4.95h-.5v2h.5v5h-.5v2h.5v5h-.5v2h.5v5h-.5v2h.5v5h-.5v2h.5v5h-.5v2h.5v5h-.5v2h.5v5h-.5v2h.5v5h-.5v2h.5v4.95h-.5v2h.5v5h-.5v2h.5v4.95h-.5v2h.5v5h-.5v1a4.71,4.71,0,0,0,.11,1l.49-.11a4,4,0,0,0,3,3l-.11.49a4.71,4.71,0,0,0,1,.11h1V227h4.77v.5h1.91V227h4.78v.5h1.91V227h4.78v.5H169V227h4.77v.5h1.92V227h4.77v.5h1.91V227h4.78v.5h1.91V227h4.78v.5h1.91V227h4.77v.5H201V228h.5v4.76H201v1.91h.5v4.76H201v1.91h.5v4.76H201v.45h-.49v.5h-5v-.5h-2v.5h-5v-.5h-2v.5h-5v-.5h-2v.5h-5v-.5h-2v.5h-5v-.5h-2v.5h-5v-.5h-2v.5h-5v-.5h-2v.5h-5v-.5h-2v.5h-5v-.5h-2v.5h-5v-.5h-1a7.73,7.73,0,0,1-.84-.05l-.06.5a8,8,0,0,1-4.09-1.69l.31-.4a7.74,7.74,0,0,1-1.18-1.18l-.39.31a8,8,0,0,1-1.7-4.09l.5-.06a7.73,7.73,0,0,1,0-.84v-1H124v-5h.5v-2H124v-4.95h.5v-2H124v-5h.5v-2H124v-4.95h.5v-2H124v-5h.5v-2H124v-5h.5v-2H124v-5h.5v-2H124v-5h.5v-2H124v-5h.5v-2H124v-5h.5v-2H124v-5h.5v-2H124v-5h.5v-2H124v-4.95h.5v-2H124v-5h.5v-2H124V136h.5v-2H124v-5h.5v-2H124v-5h.5v-2H124v-5h.5v-2H124v-5h.5v-2H124v-5h.5v-2H124v-5h.5v-2H124v-5h.5v-2H124v-5h.5v-2H124V73.54h.5v-2H124v-5h.5v-2H124v-5h.5v-2H124v-5h.5v-2H124v-5h.5v-2H124v-5h.5v-2H124v-5h.5v-2H124V25h.5V24a4.71,4.71,0,0,0-.11-1l-.49.11a4,4,0,0,0-3-3l.11-.49a4.71,4.71,0,0,0-1-.11Z" transform="translate(0.5 0.5)"/>
<path class="cls-2" d="M.5.5H133.38S144.06,0,144,11.56V218.38s-.78,9.56,9.73,9.12l48.27,0" transform="translate(0.5 0.5)"/>
<path class="cls-2" d="M.5,9.77l128.7,0s5.3,0,5.39,6V229.72s.12,7.5,7.74,7.5h60.42" transform="translate(0.5 0.5)"/>
<path class="cls-2" d="M.5,19.5,119,20s5.51,0,5.51,5L124,238s-.52,8.94,7.1,8.94H202" transform="translate(0.5 0.5)"/>
</svg>