<svg id="Layer_1" data-name="Layer 1" xmlns="http://www.w3.org/2000/svg" viewBox="0 0 262.5 129.02">
<defs>
<style>.cls-1,.cls-2{fill:none;}.cls-1{stroke:#53d084;stroke-dasharray:2 5;}.cls-2{stroke:#63bf81;stroke-miterlimit:10;}
</style>
</defs>
<path class="cls-1" d="M179,19.5V20h-4.94v-.5h-2V20h-5v-.5h-2V20h-4.94v-.5h-2V20H153.3v-.5h-2V20h-4.95v-.5h-2V20h-5v-.5h-2V20h-4.94v-.5h-2V20h-5v-.5h-2V20h-4.95v-.5h-2V20h-4.94v-.5h-2V20h-5v-.5h-2V20h-5v-.5h-2V20H91v-.5H89V20H84.07v-.5h-2V20h-5v-.5h-2V20H70.22v-.5h-2V20H63.3v-.5h-2V20h-5v-.5h-2V20H49.45v-.5h-2V20H42.53v-.5h-2V20H35.6v-.5h-2V20h-5v-.5h-2V20H21.76v-.5h-2V20H14.84v-.5h-2V20H7.91v-.5h-2V20H1v-.5H.5v-.45H0V14.29H.5V12.38H0V7.62H.5V5.71H0V1H.5V.5H1V0H6V.5H8V0h5V.5h2V0h5V.5h2V0h5V.5h2V0h5V.5h2V0h5V.5h2V0h5V.5h2V0h5V.5h2V0h5V.5h2V0h5V.5h2V0h5V.5h2V0h5V.5h2V0h5V.5h2V0h5V.5h2V0h5V.5h2V0h5V.5h2V0h5V.5h2V0h5V.5h2V0h5V.5h2V0h5V.5h2V0h5V.5h2V0h5V.5h2V0h5V.5h2V0h5V.5h2V0h5V.5h2V0h5V.5h2V0h5V.5h2V0h5V.5h1a7.73,7.73,0,0,1,.84.05l.06-.5A8,8,0,0,1,201,1.75l-.31.39a7.74,7.74,0,0,1,1.18,1.18l.4-.31A8,8,0,0,1,204,7.1l-.5.06a7.89,7.89,0,0,1,.05.84V9h.5v4.9h-.5v2h.5v4.89h-.5v2h.5v4.9h-.5v2h.5v4.9h-.5v2h.5v4.9h-.5v2h.5v4.89h-.5v2h.5V55h-.5v2h.5v4.9h-.5v2h.5v4.89h-.5v2h.5v4.9h-.5v2h.5v4.9h-.5v2h.5v4.9h-.5v2h.5v4.89h-.5v2h.5V103h-.5v1a4.71,4.71,0,0,0,.11,1l.49-.11a4,4,0,0,0,3,3l-.11.49a4.71,4.71,0,0,0,1,.11h1V108h4.77v.5h1.91V108h4.78v.5h1.91V108h4.78v.5H229V108h4.77v.5h1.92V108h4.77v.5h1.91V108h4.78v.5h1.91V108h4.78v.5h1.91V108h4.78v.5H261V109h.5v4.76H261v1.91h.5v4.76H261v1.91h.5v4.76H261v.45h-.49v.5h-5v-.5h-2v.5h-5v-.5h-2v.5h-5v-.5h-2v.5h-5v-.5h-2v.5h-5v-.5h-2v.5h-5v-.5h-2v.5h-5v-.5h-2v.5h-5v-.5h-2v.5h-5v-.5h-2v.5h-5v-.5h-1a7.73,7.73,0,0,1-.84,0l-.06.5a8,8,0,0,1-4.09-1.7l.31-.39a7.74,7.74,0,0,1-1.18-1.18l-.4.31a8,8,0,0,1-1.69-4.09l.5-.06a7.73,7.73,0,0,1-.05-.84v-1H184v-4.9h.5v-2H184v-4.9h.5v-2H184v-4.9h.5v-2H184v-4.9h.5v-2H184v-4.9h.5v-2H184V79.84h.5v-2H184V73h.5V71H184v-4.9h.5v-2H184V59.27h.5v-2H184v-4.9h.5v-2H184v-4.9h.5v-2H184v-4.9h.5v-2H184V31.84h.5v-2H184V25h.5V24a4.71,4.71,0,0,0-.11-1l-.49.11a4,4,0,0,0-3-3l.11-.49a4.71,4.71,0,0,0-1-.11Z" transform="translate(0.5 0.51)"/>
<path class="cls-2" d="M.5.5,192.44,0S204-.91,204,12l-.5,91s-.59,5.33,7.13,5L262,108" transform="translate(0.5 0.51)"/>
<path class="cls-2" d="M.5,9.94l188,.94s5.46-.12,5.49,5.47l-.45,94.83s.49,6,7.56,6H262" transform="translate(0.5 0.51)"/>
<path class="cls-2" d="M.5,19.5H179s5.46-.11,5.49,5.48l-.45,95.92s0,6.6,7.95,6.6h70" transform="translate(0.5 0.51)"/>
</svg>