<svg width="32" height="32" viewBox="0 0 32 32" fill="none" xmlns="http://www.w3.org/2000/svg">
<path d="M12.1971 24.1158L10.0544 21.9744C9.90208 21.8208 9.90208 21.5738 10.0544 21.4221L21.6806 9.79648C21.833 9.64352 22.0806 9.64352 22.233 9.79648L24.3757 11.9386C24.528 12.0909 24.528 12.3379 24.3757 12.4909L12.7488 24.1158C12.5971 24.2688 12.3494 24.2688 12.1971 24.1158ZM14.4506 11.6666L12.3078 9.5232C12.1549 9.37152 11.9078 9.37152 11.7555 9.5232L8.39104 12.8883C8.23872 13.0413 8.23872 13.2877 8.39104 13.44L10.5338 15.5827C10.6854 15.735 10.9331 15.735 11.0861 15.5827L14.4506 12.2182C14.6029 12.0666 14.6029 11.8195 14.4506 11.6666ZM24.8851 6.59136L26.8096 4.6656C26.937 4.53888 26.935 4.33472 26.8026 4.21376C23.9539 1.60064 20.1619 0 16 0C7.1776 0 0 7.17696 0 16C0 20.1613 1.60064 23.9533 4.21376 26.8026C4.33536 26.935 4.53888 26.937 4.66624 26.8102L6.59136 24.8851C6.69248 24.7834 6.69504 24.6157 6.5984 24.5088C4.5568 22.2573 3.30944 19.2723 3.30944 16C3.30944 9.00224 9.00288 3.31008 16.0006 3.31008C19.273 3.31008 22.2586 4.5568 24.5107 6.5984C24.6176 6.69504 24.784 6.69248 24.8851 6.59136ZM28.6906 16C28.6906 22.9978 22.9978 28.6906 16 28.6906C13.8413 28.6906 11.8086 28.1466 10.0269 27.191C9.90016 27.1232 9.71648 27.1494 9.61472 27.2499L7.61984 29.2448C7.49312 29.3715 7.51232 29.5552 7.66592 29.648C10.0947 31.1373 12.9478 32 16 32C24.8224 32 32 24.8218 32 16C32 12.9485 31.1373 10.0954 29.6486 7.66592C29.5546 7.5136 29.3728 7.49312 29.2461 7.61984L27.2506 9.61472C27.1494 9.71584 27.1238 9.9008 27.1917 10.0262C28.1466 11.8086 28.6906 13.8413 28.6906 16Z" fill="#53D084"/>
</svg>
