<svg viewBox="0 0 32 20" fill="none" xmlns="http://www.w3.org/2000/svg">
<path d="M29.0362 20H2.97019C1.36987 20 0 18.6683 0 17.1126V2.88737C0 1.33167 1.36987 0 2.97019 0H29.0298C30.6301 0 32 1.33167 32 2.88737V17.1126C32.0064 18.6683 30.6365 20 29.0362 20Z" fill="white"/>
<path d="M10.6261 20V0H2.97019C1.36987 0 0 1.33167 0 2.88737V17.1126C0 18.6683 1.36987 20 2.97019 20H10.6261Z" fill="#0A7743"/>
<path d="M21.3739 0V20H29.0298C30.6301 20 32 18.6683 32 17.1126V2.88737C32 1.33167 30.6301 0 29.0298 0L21.3739 0Z" fill="#E86C0A"/>
</svg>
