<svg viewBox="0 0 32 20" fill="none" xmlns="http://www.w3.org/2000/svg">
<path d="M29.0286 20H2.97143C1.37143 20 0 18.6667 0 17.1111V2.88889C0 1.33333 1.37143 0 2.97143 0H29.0286C30.6286 0 32 1.33333 32 2.88889V17.1111C32 18.6667 30.6286 20 29.0286 20Z" fill="#F5F7FA"/>
<path d="M32 6.66667H0V2.66667C0 1.11111 1.14286 0 2.74286 0H29.2571C30.8571 0 32 1.11111 32 2.66667V6.66667Z" fill="#ED5565"/>
<path d="M29.2571 20H2.74286C1.14286 20 0 18.8889 0 17.3333V13.3333H32V17.3333C32 18.8889 30.8571 20 29.2571 20Z" fill="#4A89DC"/>
</svg>
