<svg viewBox="0 0 32 20" fill="none" xmlns="http://www.w3.org/2000/svg">
<path d="M29.0286 20H2.97143C1.37143 20 0 18.6667 0 17.1111V2.88889C0 1.33333 1.37143 0 2.97143 0H29.0286C30.6286 0 32 1.33333 32 2.88889V17.1111C32 18.6667 30.6286 20 29.0286 20Z" fill="#4A89DC"/>
<path d="M18.7429 10L29.0286 0H23.5429L16 7.33333L8.45714 0H2.97143L13.2571 10L2.97143 20H8.45714L16 12.6667L23.5429 20H29.0286L18.7429 10Z" fill="white"/>
<path d="M27.8857 0H24.6857L16 8.44444L7.31429 0H4.11429L14.4 10L4.11429 20H7.31429L16 11.5556L24.6857 20H27.8857L17.6 10L27.8857 0Z" fill="#ED5565"/>
<path d="M0 6.66663H32V13.3333H0V6.66663Z" fill="white"/>
<path d="M12.5714 0H19.4286V20H12.5714V0Z" fill="white"/>
<path d="M0 8.22223H32V11.7778H0V8.22223Z" fill="#ED5565"/>
<path d="M14.4 0H17.6V20H14.4V0Z" fill="#ED5565"/>
</svg>
