<svg width="2013" height="1542" viewBox="0 0 2013 1542" fill="none" xmlns="http://www.w3.org/2000/svg">
<path d="M835.536 984.464L829.172 990.828C828.421 991.579 828 992.596 828 993.657V1186C828 1188.21 829.791 1190 832 1190H985.343C986.404 1190 987.421 1189.58 988.172 1188.83L993.828 1183.17C994.579 1182.42 995 1181.4 995 1180.34V987C995 984.791 993.209 983 991 983H839.071C837.745 983 836.473 983.527 835.536 984.464Z" fill="#D5DFE9"/>
<path d="M835 987C835 984.791 836.791 983 839 983H991C993.209 983 995 984.791 995 987V1181C995 1182.1 994.105 1183 993 1183H839C836.791 1183 835 1181.21 835 1179V987Z" fill="white"/>

<path d="M892.306 850.424L894.898 850.984C894.653 852.307 894.04 853.347 893.058 854.104C892.077 854.861 890.888 855.24 889.49 855.24C887.901 855.24 886.552 854.701 885.442 853.624C884.344 852.547 883.794 851.219 883.794 849.64C883.794 848.072 884.344 846.749 885.442 845.672C886.552 844.584 887.901 844.04 889.49 844.04C890.834 844.04 892.002 844.413 892.994 845.16C893.997 845.907 894.626 846.904 894.882 848.152L892.29 848.808C892.13 848.029 891.8 847.443 891.298 847.048C890.808 846.653 890.205 846.456 889.49 846.456C888.637 846.456 887.912 846.76 887.314 847.368C886.728 847.976 886.434 848.733 886.434 849.64C886.434 850.547 886.728 851.309 887.314 851.928C887.912 852.536 888.637 852.84 889.49 852.84C890.194 852.84 890.792 852.637 891.282 852.232C891.784 851.827 892.125 851.224 892.306 850.424ZM900.301 846.76C901.528 846.76 902.568 847.155 903.421 847.944C904.274 848.733 904.701 849.747 904.701 850.984C904.701 852.232 904.274 853.251 903.421 854.04C902.568 854.829 901.528 855.224 900.301 855.224C899.053 855.224 897.997 854.829 897.133 854.04C896.28 853.251 895.853 852.232 895.853 850.984C895.853 849.747 896.28 848.733 897.133 847.944C897.997 847.155 899.053 846.76 900.301 846.76ZM900.301 853.064C900.824 853.064 901.277 852.872 901.661 852.488C902.045 852.093 902.237 851.592 902.237 850.984C902.237 850.376 902.04 849.88 901.645 849.496C901.261 849.101 900.813 848.904 900.301 848.904C899.768 848.904 899.304 849.101 898.909 849.496C898.514 849.88 898.317 850.376 898.317 850.984C898.317 851.592 898.509 852.093 898.893 852.488C899.288 852.872 899.757 853.064 900.301 853.064ZM911.046 846.728C911.984 846.728 912.736 847.037 913.302 847.656C913.878 848.264 914.166 849.069 914.166 850.072V855H911.622V850.616C911.622 850.147 911.494 849.768 911.238 849.48C910.982 849.181 910.651 849.032 910.246 849.032C909.723 849.032 909.312 849.219 909.014 849.592C908.726 849.955 908.582 850.515 908.582 851.272V855H906.022V846.968H908.582V847.736C909.222 847.064 910.043 846.728 911.046 846.728ZM921.272 852.632L921.864 854.648C921.128 855.043 920.398 855.24 919.672 855.24C918.659 855.24 917.87 854.968 917.304 854.424C916.75 853.88 916.472 853.085 916.472 852.04V849H915.016V846.968H916.472V844.28H919.032V846.968H921.4V849H919.032V851.784C919.032 852.563 919.39 852.952 920.104 852.952C920.51 852.952 920.899 852.845 921.272 852.632ZM930.55 850.984V851.64H924.662C924.769 852.12 924.977 852.499 925.286 852.776C925.595 853.053 925.963 853.192 926.39 853.192C927.19 853.192 927.761 852.883 928.102 852.264L930.374 852.728C930.033 853.56 929.515 854.189 928.822 854.616C928.139 855.032 927.329 855.24 926.39 855.24C925.206 855.24 924.203 854.845 923.382 854.056C922.561 853.256 922.15 852.232 922.15 850.984C922.15 849.747 922.561 848.728 923.382 847.928C924.203 847.128 925.211 846.728 926.406 846.728C927.569 846.728 928.545 847.117 929.334 847.896C930.123 848.675 930.529 849.704 930.55 850.984ZM926.406 848.808C926.033 848.808 925.686 848.92 925.366 849.144C925.046 849.368 924.827 849.677 924.71 850.072H928.022C927.905 849.656 927.702 849.341 927.414 849.128C927.126 848.915 926.79 848.808 926.406 848.808ZM936.905 846.728C937.844 846.728 938.596 847.037 939.161 847.656C939.737 848.264 940.025 849.069 940.025 850.072V855H937.481V850.616C937.481 850.147 937.353 849.768 937.097 849.48C936.841 849.181 936.51 849.032 936.105 849.032C935.582 849.032 935.172 849.219 934.873 849.592C934.585 849.955 934.441 850.515 934.441 851.272V855H931.881V846.968H934.441V847.736C935.081 847.064 935.902 846.728 936.905 846.728ZM947.132 852.632L947.724 854.648C946.988 855.043 946.257 855.24 945.532 855.24C944.518 855.24 943.729 854.968 943.164 854.424C942.609 853.88 942.332 853.085 942.332 852.04V849H940.876V846.968H942.332V844.28H944.892V846.968H947.26V849H944.892V851.784C944.892 852.563 945.249 852.952 945.964 852.952C946.369 852.952 946.758 852.845 947.132 852.632Z" fill="white"/>
<path opacity="0.5" d="M860.053 880L858.853 877.216H853.141L851.941 880H850.277L855.301 868.72H856.677L861.701 880H860.053ZM853.701 875.904H858.293L856.005 870.56L853.701 875.904ZM870.187 868.72V880H868.587V878.656C868.353 879.125 868.011 879.488 867.563 879.744C867.115 879.989 866.598 880.112 866.011 880.112C865.339 880.112 864.737 879.941 864.203 879.6C863.681 879.259 863.27 878.779 862.971 878.16C862.683 877.541 862.539 876.832 862.539 876.032C862.539 875.221 862.683 874.512 862.971 873.904C863.27 873.296 863.681 872.827 864.203 872.496C864.726 872.165 865.329 872 866.011 872C866.598 872 867.11 872.128 867.547 872.384C867.995 872.629 868.337 872.981 868.571 873.44V868.72H870.187ZM866.395 878.832C867.099 878.832 867.638 878.592 868.011 878.112C868.395 877.632 868.587 876.949 868.587 876.064C868.587 875.179 868.395 874.496 868.011 874.016C867.638 873.536 867.099 873.296 866.395 873.296C865.691 873.296 865.142 873.536 864.747 874.016C864.363 874.485 864.171 875.157 864.171 876.032C864.171 876.907 864.369 877.595 864.763 878.096C865.158 878.587 865.702 878.832 866.395 878.832ZM875.704 872C876.75 872 877.523 872.261 878.024 872.784C878.536 873.307 878.792 874.101 878.792 875.168V880H877.24V878.704C877.038 879.163 876.734 879.515 876.328 879.76C875.934 879.995 875.47 880.112 874.936 880.112C874.424 880.112 873.955 880.011 873.528 879.808C873.102 879.595 872.766 879.301 872.52 878.928C872.286 878.555 872.168 878.139 872.168 877.68C872.168 877.115 872.312 876.672 872.6 876.352C872.899 876.021 873.384 875.787 874.056 875.648C874.739 875.509 875.672 875.44 876.856 875.44H877.224V874.976C877.224 874.379 877.096 873.947 876.84 873.68C876.595 873.413 876.19 873.28 875.624 873.28C874.739 873.28 873.854 873.552 872.968 874.096L872.488 872.96C872.904 872.672 873.406 872.443 873.992 872.272C874.59 872.091 875.16 872 875.704 872ZM875.224 878.912C875.811 878.912 876.291 878.715 876.664 878.32C877.038 877.915 877.224 877.397 877.224 876.768V876.352H876.936C876.104 876.352 875.464 876.389 875.016 876.464C874.568 876.539 874.248 876.667 874.056 876.848C873.864 877.019 873.768 877.269 873.768 877.6C873.768 877.973 873.902 878.288 874.168 878.544C874.446 878.789 874.798 878.912 875.224 878.912ZM885.195 872C885.867 872 886.464 872.171 886.987 872.512C887.52 872.853 887.931 873.333 888.219 873.952C888.517 874.571 888.667 875.285 888.667 876.096C888.667 876.896 888.523 877.6 888.235 878.208C887.947 878.816 887.536 879.285 887.003 879.616C886.48 879.947 885.877 880.112 885.195 880.112C884.608 880.112 884.091 879.989 883.643 879.744C883.195 879.488 882.853 879.125 882.619 878.656V882.88H881.003V872.192H882.619V873.472C882.853 873.003 883.195 872.64 883.643 872.384C884.091 872.128 884.608 872 885.195 872ZM884.811 878.832C885.515 878.832 886.059 878.597 886.443 878.128C886.827 877.648 887.019 876.971 887.019 876.096C887.019 875.211 886.821 874.523 886.427 874.032C886.043 873.541 885.504 873.296 884.811 873.296C884.107 873.296 883.563 873.536 883.179 874.016C882.805 874.496 882.619 875.179 882.619 876.064C882.619 876.949 882.805 877.632 883.179 878.112C883.563 878.592 884.107 878.832 884.811 878.832ZM894.121 878.864C894.366 878.864 894.606 878.848 894.841 878.816L894.761 880.048C894.494 880.091 894.217 880.112 893.929 880.112C892.915 880.112 892.158 879.867 891.657 879.376C891.166 878.875 890.921 878.155 890.921 877.216V873.44H889.401V872.192H890.921V869.84H892.537V872.192H894.681V873.44H892.537V877.152C892.537 878.293 893.065 878.864 894.121 878.864ZM896.065 880V872.192H897.681V880H896.065ZM895.953 868.704H897.809V870.384H895.953V868.704ZM905.476 872.208H907.092L903.7 880H902.244L898.884 872.208H900.58L903.012 878.176L905.476 872.208ZM914.831 876.368H909.311C909.429 878.021 910.25 878.848 911.775 878.848C912.671 878.848 913.482 878.555 914.207 877.968L914.703 879.104C914.341 879.413 913.893 879.659 913.359 879.84C912.826 880.021 912.282 880.112 911.727 880.112C910.479 880.112 909.493 879.755 908.767 879.04C908.053 878.325 907.695 877.339 907.695 876.08C907.695 875.28 907.85 874.571 908.159 873.952C908.479 873.333 908.922 872.853 909.487 872.512C910.063 872.171 910.714 872 911.439 872C912.495 872 913.322 872.341 913.919 873.024C914.527 873.707 914.831 874.651 914.831 875.856V876.368ZM911.471 873.184C910.853 873.184 910.357 873.381 909.983 873.776C909.621 874.16 909.402 874.715 909.327 875.44H913.439C913.407 874.715 913.221 874.16 912.879 873.776C912.549 873.381 912.079 873.184 911.471 873.184ZM924.255 880.112C923.466 880.112 922.778 879.947 922.191 879.616C921.615 879.285 921.167 878.821 920.847 878.224C920.538 877.616 920.383 876.907 920.383 876.096C920.383 875.285 920.543 874.571 920.863 873.952C921.194 873.333 921.652 872.853 922.239 872.512C922.836 872.171 923.53 872 924.319 872C924.863 872 925.386 872.091 925.887 872.272C926.399 872.453 926.815 872.699 927.135 873.008L926.639 874.16C925.935 873.584 925.204 873.296 924.447 873.296C923.7 873.296 923.114 873.541 922.687 874.032C922.271 874.512 922.063 875.195 922.063 876.08C922.063 876.955 922.271 877.632 922.687 878.112C923.103 878.581 923.69 878.816 924.447 878.816C925.204 878.816 925.935 878.528 926.639 877.952L927.135 879.12C926.794 879.429 926.367 879.675 925.855 879.856C925.343 880.027 924.81 880.112 924.255 880.112ZM931.957 880.112C931.189 880.112 930.512 879.947 929.925 879.616C929.349 879.285 928.901 878.816 928.581 878.208C928.272 877.589 928.117 876.875 928.117 876.064C928.117 875.243 928.272 874.528 928.581 873.92C928.901 873.301 929.349 872.827 929.925 872.496C930.512 872.165 931.189 872 931.957 872C932.725 872 933.397 872.165 933.973 872.496C934.56 872.827 935.008 873.301 935.317 873.92C935.637 874.528 935.797 875.243 935.797 876.064C935.797 876.875 935.637 877.589 935.317 878.208C935.008 878.816 934.56 879.285 933.973 879.616C933.397 879.947 932.725 880.112 931.957 880.112ZM931.957 878.832C932.672 878.832 933.216 878.597 933.589 878.128C933.973 877.659 934.165 876.971 934.165 876.064C934.165 875.168 933.973 874.485 933.589 874.016C933.205 873.536 932.661 873.296 931.957 873.296C931.253 873.296 930.709 873.536 930.325 874.016C929.941 874.485 929.749 875.168 929.749 876.064C929.749 876.971 929.936 877.659 930.309 878.128C930.693 878.597 931.243 878.832 931.957 878.832ZM941.805 872C943.671 872 944.605 873.051 944.605 875.152V880H942.989V875.232C942.989 874.571 942.855 874.085 942.589 873.776C942.333 873.467 941.927 873.312 941.373 873.312C940.722 873.312 940.199 873.515 939.805 873.92C939.41 874.325 939.213 874.869 939.213 875.552V880H937.597V872.192H939.181V873.44C939.437 872.971 939.794 872.613 940.253 872.368C940.711 872.123 941.229 872 941.805 872ZM950.511 878.864C950.757 878.864 950.997 878.848 951.231 878.816L951.151 880.048C950.885 880.091 950.607 880.112 950.319 880.112C949.306 880.112 948.549 879.867 948.047 879.376C947.557 878.875 947.311 878.155 947.311 877.216V873.44H945.791V872.192H947.311V869.84H948.927V872.192H951.071V873.44H948.927V877.152C948.927 878.293 949.455 878.864 950.511 878.864ZM959.144 876.368H953.624C953.741 878.021 954.563 878.848 956.088 878.848C956.984 878.848 957.795 878.555 958.52 877.968L959.016 879.104C958.653 879.413 958.205 879.659 957.672 879.84C957.139 880.021 956.595 880.112 956.04 880.112C954.792 880.112 953.805 879.755 953.08 879.04C952.365 878.325 952.008 877.339 952.008 876.08C952.008 875.28 952.163 874.571 952.472 873.952C952.792 873.333 953.235 872.853 953.8 872.512C954.376 872.171 955.027 872 955.752 872C956.808 872 957.635 872.341 958.232 873.024C958.84 873.707 959.144 874.651 959.144 875.856V876.368ZM955.784 873.184C955.165 873.184 954.669 873.381 954.296 873.776C953.933 874.16 953.715 874.715 953.64 875.44H957.752C957.72 874.715 957.533 874.16 957.192 873.776C956.861 873.381 956.392 873.184 955.784 873.184ZM965.133 872C966.999 872 967.933 873.051 967.933 875.152V880H966.317V875.232C966.317 874.571 966.183 874.085 965.917 873.776C965.661 873.467 965.255 873.312 964.701 873.312C964.05 873.312 963.527 873.515 963.133 873.92C962.738 874.325 962.541 874.869 962.541 875.552V880H960.925V872.192H962.509V873.44C962.765 872.971 963.122 872.613 963.581 872.368C964.039 872.123 964.557 872 965.133 872ZM973.839 878.864C974.085 878.864 974.325 878.848 974.559 878.816L974.479 880.048C974.213 880.091 973.935 880.112 973.647 880.112C972.634 880.112 971.877 879.867 971.375 879.376C970.885 878.875 970.639 878.155 970.639 877.216V873.44H969.119V872.192H970.639V869.84H972.255V872.192H974.399V873.44H972.255V877.152C972.255 878.293 972.783 878.864 973.839 878.864ZM890.234 892C890.906 892 891.503 892.171 892.026 892.512C892.559 892.853 892.97 893.333 893.258 893.952C893.557 894.571 893.706 895.285 893.706 896.096C893.706 896.896 893.562 897.6 893.274 898.208C892.986 898.816 892.575 899.285 892.042 899.616C891.519 899.947 890.917 900.112 890.234 900.112C889.647 900.112 889.13 899.989 888.682 899.744C888.234 899.488 887.893 899.125 887.658 898.656V902.88H886.042V892.192H887.658V893.472C887.893 893.003 888.234 892.64 888.682 892.384C889.13 892.128 889.647 892 890.234 892ZM889.85 898.832C890.554 898.832 891.098 898.597 891.482 898.128C891.866 897.648 892.058 896.971 892.058 896.096C892.058 895.211 891.861 894.523 891.466 894.032C891.082 893.541 890.543 893.296 889.85 893.296C889.146 893.296 888.602 893.536 888.218 894.016C887.845 894.496 887.658 895.179 887.658 896.064C887.658 896.949 887.845 897.632 888.218 898.112C888.602 898.592 889.146 898.832 889.85 898.832ZM902.183 896.368H896.663C896.78 898.021 897.602 898.848 899.127 898.848C900.023 898.848 900.834 898.555 901.559 897.968L902.055 899.104C901.692 899.413 901.244 899.659 900.711 899.84C900.178 900.021 899.634 900.112 899.079 900.112C897.831 900.112 896.844 899.755 896.119 899.04C895.404 898.325 895.047 897.339 895.047 896.08C895.047 895.28 895.202 894.571 895.511 893.952C895.831 893.333 896.274 892.853 896.839 892.512C897.415 892.171 898.066 892 898.791 892C899.847 892 900.674 892.341 901.271 893.024C901.879 893.707 902.183 894.651 902.183 895.856V896.368ZM898.823 893.184C898.204 893.184 897.708 893.381 897.335 893.776C896.972 894.16 896.754 894.715 896.679 895.44H900.791C900.759 894.715 900.572 894.16 900.231 893.776C899.9 893.381 899.431 893.184 898.823 893.184ZM908.716 893.36L907.74 893.456C906.972 893.531 906.417 893.765 906.076 894.16C905.745 894.555 905.58 895.056 905.58 895.664V900H903.964V892.192H905.532V893.552C905.948 892.635 906.796 892.128 908.076 892.032L908.604 892L908.716 893.36ZM920.89 892.192V900H919.322V898.736C919.077 899.184 918.735 899.525 918.298 899.76C917.871 899.995 917.391 900.112 916.858 900.112C914.959 900.112 914.01 899.067 914.01 896.976V892.192H915.626V896.96C915.626 897.589 915.754 898.053 916.01 898.352C916.266 898.651 916.661 898.8 917.194 898.8C917.823 898.8 918.325 898.597 918.698 898.192C919.082 897.787 919.274 897.248 919.274 896.576V892.192H920.89ZM925.903 900.112C924.549 900.112 923.466 899.781 922.655 899.12L923.151 897.952C923.951 898.571 924.885 898.88 925.951 898.88C926.474 898.88 926.874 898.795 927.151 898.624C927.429 898.443 927.567 898.192 927.567 897.872C927.567 897.595 927.471 897.376 927.279 897.216C927.098 897.056 926.778 896.923 926.319 896.816L925.023 896.528C924.33 896.368 923.807 896.107 923.455 895.744C923.103 895.381 922.927 894.923 922.927 894.368C922.927 893.664 923.21 893.093 923.775 892.656C924.351 892.219 925.103 892 926.031 892C926.586 892 927.114 892.091 927.615 892.272C928.117 892.443 928.549 892.688 928.911 893.008L928.415 894.144C927.647 893.536 926.853 893.232 926.031 893.232C925.541 893.232 925.151 893.328 924.863 893.52C924.586 893.712 924.447 893.973 924.447 894.304C924.447 894.571 924.533 894.789 924.703 894.96C924.885 895.12 925.167 895.243 925.551 895.328L926.879 895.632C927.637 895.803 928.191 896.069 928.543 896.432C928.895 896.784 929.071 897.248 929.071 897.824C929.071 898.528 928.783 899.088 928.207 899.504C927.642 899.909 926.874 900.112 925.903 900.112ZM937.558 896.368H932.038C932.155 898.021 932.977 898.848 934.502 898.848C935.398 898.848 936.209 898.555 936.934 897.968L937.43 899.104C937.067 899.413 936.619 899.659 936.086 899.84C935.553 900.021 935.009 900.112 934.454 900.112C933.206 900.112 932.219 899.755 931.494 899.04C930.779 898.325 930.422 897.339 930.422 896.08C930.422 895.28 930.577 894.571 930.886 893.952C931.206 893.333 931.649 892.853 932.214 892.512C932.79 892.171 933.441 892 934.166 892C935.222 892 936.049 892.341 936.646 893.024C937.254 893.707 937.558 894.651 937.558 895.856V896.368ZM934.198 893.184C933.579 893.184 933.083 893.381 932.71 893.776C932.347 894.16 932.129 894.715 932.054 895.44H936.166C936.134 894.715 935.947 894.16 935.606 893.776C935.275 893.381 934.806 893.184 934.198 893.184ZM944.091 893.36L943.115 893.456C942.347 893.531 941.792 893.765 941.451 894.16C941.12 894.555 940.955 895.056 940.955 895.664V900H939.339V892.192H940.907V893.552C941.323 892.635 942.171 892.128 943.451 892.032L943.979 892L944.091 893.36Z" fill="white"/>
<rect x="807" y="142" width="1" height="1400" fill="url(#paint0_linear)"/>
<rect x="397" y="717" width="0.999956" height="1400" transform="rotate(-90 397 717)" fill="url(#paint1_linear)"/>
<rect x="397" y="469" width="0.999956" height="1400" transform="rotate(-90 397 469)" fill="url(#paint2_linear)"/>
<rect x="613" y="221" width="0.999956" height="1400" transform="rotate(-90 613 221)" fill="url(#paint3_linear)"/>
<rect x="397" y="964" width="0.999956" height="1400" transform="rotate(-90 397 964)" fill="url(#paint4_linear)"/>
<rect x="397" y="1210" width="0.999956" height="1400" transform="rotate(-90 397 1210)" fill="url(#paint5_linear)"/>
<rect x="397" y="1458" width="0.999956" height="1400" transform="rotate(-90 397 1458)" fill="url(#paint6_linear)"/>
<rect x="1014" y="142" width="1" height="1400" fill="url(#paint7_linear)"/>
<rect x="1222" y="142" width="1" height="1400" fill="url(#paint8_linear)"/>
<rect x="1429" y="142" width="1" height="1400" fill="url(#paint9_linear)"/>
<rect x="1636" y="142" width="1" height="1400" fill="url(#paint10_linear)"/>
<defs>
<linearGradient id="paint0_linear" x1="807.5" y1="142" x2="807.5" y2="1542" gradientUnits="userSpaceOnUse">
<stop stop-color="#305EED" stop-opacity="0"/>
<stop offset="0.515625" stop-color="#305EED"/>
<stop offset="0.9999" stop-color="#305EED" stop-opacity="0"/>
<stop offset="1" stop-color="white" stop-opacity="0"/>
</linearGradient>
<linearGradient id="paint1_linear" x1="397.5" y1="717" x2="397.5" y2="2117" gradientUnits="userSpaceOnUse">
<stop stop-color="#305EED" stop-opacity="0"/>
<stop offset="0.515625" stop-color="#305EED"/>
<stop offset="0.9999" stop-color="#305EED" stop-opacity="0"/>
<stop offset="1" stop-color="white" stop-opacity="0"/>
</linearGradient>
<linearGradient id="paint2_linear" x1="397.5" y1="469" x2="397.5" y2="1869" gradientUnits="userSpaceOnUse">
<stop stop-color="#305EED" stop-opacity="0"/>
<stop offset="0.515625" stop-color="#305EED"/>
<stop offset="0.9999" stop-color="#305EED" stop-opacity="0"/>
<stop offset="1" stop-color="white" stop-opacity="0"/>
</linearGradient>
<linearGradient id="paint3_linear" x1="613.5" y1="221" x2="613.5" y2="1621" gradientUnits="userSpaceOnUse">
<stop stop-color="#305EED" stop-opacity="0"/>
<stop offset="0.515625" stop-color="#305EED"/>
<stop offset="0.9999" stop-color="#305EED" stop-opacity="0"/>
<stop offset="1" stop-color="white" stop-opacity="0"/>
</linearGradient>
<linearGradient id="paint4_linear" x1="397.5" y1="964" x2="397.5" y2="2364" gradientUnits="userSpaceOnUse">
<stop stop-color="#305EED" stop-opacity="0"/>
<stop offset="0.515625" stop-color="#305EED"/>
<stop offset="0.9999" stop-color="#305EED" stop-opacity="0"/>
<stop offset="1" stop-color="white" stop-opacity="0"/>
</linearGradient>
<linearGradient id="paint5_linear" x1="397.5" y1="1210" x2="397.5" y2="2610" gradientUnits="userSpaceOnUse">
<stop stop-color="#305EED" stop-opacity="0"/>
<stop offset="0.515625" stop-color="#305EED"/>
<stop offset="0.9999" stop-color="#305EED" stop-opacity="0"/>
<stop offset="1" stop-color="white" stop-opacity="0"/>
</linearGradient>
<linearGradient id="paint6_linear" x1="397.5" y1="1458" x2="397.5" y2="2858" gradientUnits="userSpaceOnUse">
<stop stop-color="#305EED" stop-opacity="0"/>
<stop offset="0.515625" stop-color="#305EED"/>
<stop offset="0.9999" stop-color="#305EED" stop-opacity="0"/>
<stop offset="1" stop-color="white" stop-opacity="0"/>
</linearGradient>
<linearGradient id="paint7_linear" x1="1014.5" y1="142" x2="1014.5" y2="1542" gradientUnits="userSpaceOnUse">
<stop stop-color="#305EED" stop-opacity="0"/>
<stop offset="0.515625" stop-color="#305EED"/>
<stop offset="0.9999" stop-color="#305EED" stop-opacity="0"/>
<stop offset="1" stop-color="white" stop-opacity="0"/>
</linearGradient>
<linearGradient id="paint8_linear" x1="1222.5" y1="142" x2="1222.5" y2="1542" gradientUnits="userSpaceOnUse">
<stop stop-color="#305EED" stop-opacity="0"/>
<stop offset="0.515625" stop-color="#305EED"/>
<stop offset="0.9999" stop-color="#305EED" stop-opacity="0"/>
<stop offset="1" stop-color="white" stop-opacity="0"/>
</linearGradient>
<linearGradient id="paint9_linear" x1="1429.5" y1="142" x2="1429.5" y2="1542" gradientUnits="userSpaceOnUse">
<stop stop-color="#305EED" stop-opacity="0"/>
<stop offset="0.515625" stop-color="#305EED"/>
<stop offset="0.9999" stop-color="#305EED" stop-opacity="0"/>
<stop offset="1" stop-color="white" stop-opacity="0"/>
</linearGradient>
<linearGradient id="paint10_linear" x1="1636.5" y1="142" x2="1636.5" y2="1542" gradientUnits="userSpaceOnUse">
<stop stop-color="#305EED" stop-opacity="0"/>
<stop offset="0.515625" stop-color="#305EED"/>
<stop offset="0.9999" stop-color="#305EED" stop-opacity="0"/>
<stop offset="1" stop-color="white" stop-opacity="0"/>
</linearGradient>
</defs>
</svg>
