<svg viewBox="0 0 633 312" fill="none" xmlns="http://www.w3.org/2000/svg">
<path d="M1 267C1 267.397 1.02583 267.789 1.07602 268.174L2.06762 268.045C2.53494 271.627 5.37254 274.465 8.95513 274.932L8.82578 275.924C9.21053 275.974 9.6025 276 10 276H11.0556V275H21.6111V276H23.7222V275H34.2778V276H36.3889V275H46.9444V276H48C48.3108 276 48.6163 276.02 48.9155 276.059L49.0449 275.068C52.6275 275.535 55.4651 278.373 55.9324 281.955L54.9408 282.084C54.9798 282.384 55 282.689 55 283V283.787H56V291.661H55V293.236H56V301.109H55V301.897C55 302.202 55.0141 302.503 55.0417 302.797L56.0373 302.704C56.3144 305.665 58.1041 307.906 60.4246 309.055L59.981 309.951C60.5215 310.219 61.0876 310.433 61.6696 310.591L61.9316 309.626C64.4304 310.305 67.2559 309.813 69.4264 307.78L70.11 308.51C70.3261 308.307 70.5358 308.092 70.7383 307.863L71.4639 307.043L70.7152 306.38L77.9715 298.185L78.7202 298.848L80.1715 297.209L79.4228 296.546L86.6791 288.351L87.4278 289.014L88.8791 287.375L88.1304 286.712L95.3867 278.516L96.1354 279.179L96.861 278.36C96.9705 278.236 97.084 278.117 97.201 278.002L96.5009 277.288C97.8571 275.958 99.6435 275.154 101.538 275.02L101.609 276.017C101.772 276.006 101.937 276 102.102 276H103.111V275H113.206V276H115.225V275H125.32V276H127.339V275H137.434V276H139.453V275H149.548V276H151.567V275H161.662V276H163.681V275H173.776V276H175.795V275H185.89V276H187.909V275H198.004V276H200.023V275H210.118V276H212.137V275H222.232V276H224.251V275H234.345V276H236.364V275H246.459V276H248.478V275H258.573V276H260.592V275H270.687V276H272.706V275H282.801V276H284.82V275H294.915V276H296.934V275H307.029V276H309.048V275H319.143V276H321.162V275H331.257V276H333.276V275H343.371V276H345.39V275H355.484V276H357.503V275H367.598V276H369.617V275H379.712V276H381.731V275H391.826V276H393.845V275H403.94V276H405.959V275H416.054V276H418.073V275H428.168V276H430.187V275H440.282V276H442.301V275H452.396V276H454.415V275H464.51V276H466.529V275H476.623V276H478.642V275H488.737V276H490.756V275H500.851V276H502.87V275H512.965V276H514.984V275H525.079V276H527.098V275H537.193V276H539.212V275H549.307V276H551.326V275H561.421V276H563.44V275H573.535V276H575.554V275H585.648V276H587.667V275H597.762V276H599.781V275H609.876V276H611.895V275H621.99V276H623C623.398 276 623.789 275.974 624.174 275.924L624.045 274.932C627.627 274.465 630.465 271.627 630.932 268.045L631.924 268.174C631.974 267.789 632 267.397 632 267V265.98H631V255.782H632V253.742H631V243.544H632V241.504H631V231.306H632V229.266H631V219.067H632V217.028H631V206.829H632V204.79H631V194.591H632V192.552H631V182.353H632V180.313H631V170.115H632V168.075H631V157.877H632V155.837H631V145.639H632V143.599H631V133.401H632V131.361H631V121.163H632V119.123H631V108.925H632V106.885H631V96.6865H632V94.6468H631V84.4484H632V82.4087H631V72.2103H632V70.1706H631V59.9722H632V57.9325H631V47.7341H632V45.6944H631V35.496H632V33.4563H631V23.2579H632V21.2182H631V11.0198H632V10C632 9.6025 631.974 9.21053 631.924 8.82578L630.932 8.95513C630.465 5.37254 627.627 2.53493 624.045 2.06762L624.174 1.07602C623.789 1.02583 623.398 1 623 1H621.998V2H611.982V1H609.979V2H599.962V1H597.959V2H587.943V1H585.94V2H575.923V1H573.92V2H563.904V1H561.9V2H551.884V1H549.881V2H539.864V1H537.861V2H527.845V1H525.841V2H515.825V1H513.822V2H503.806V1H501.802V2H491.786V1H489.783V2H479.766V1H477.763V2H467.747V1H465.743V2H455.727V1H453.724V2H443.708V1H441.704V2H431.688V1H429.685V2H419.668V1H417.665V2H407.649V1H405.645V2H395.629V1H393.626V2H383.609V1H381.606V2H371.59V1H369.587V2H359.57V1H357.567V2H347.551V1H345.547V2H335.531V1H333.528V2H323.512V1H321.508V2H311.492V1H309.489V2H299.472V1H297.469V2H287.453V1H285.449V2H275.433V1H273.43V2H263.414V1H261.41V2H251.394V1H249.391V2H239.374V1H237.371V2H227.355V1H225.352V2H215.335V1H213.332V2H203.316V1H201.312V2H191.296V1H189.293V2H179.276V1H177.273V2H167.257V1H165.254V2H155.237V1H153.234V2H143.218V1H141.214V2H131.198V1H129.195V2H119.178V1H117.175V2H107.159V1H105.156V2H95.1391V1H93.1359V2H83.1195V1H81.1162V2H71.0999V1H69.0966V2H59.0802V1H57.0769V2H47.0605V1H45.0573V2H35.0409V1H33.0376V2H23.0212V1H21.0179V2H11.0016V1H10C9.6025 1 9.21053 1.02583 8.82578 1.07602L8.95513 2.06762C5.37254 2.53494 2.53494 5.37254 2.06762 8.95513L1.07602 8.82578C1.02583 9.21053 1 9.6025 1 10V11.0198H2V21.2183H1V23.2579H2V33.4563H1V35.496H2V45.6944H1V47.7341H2V57.9325H1V59.9722H2V70.1706H1V72.2103H2V82.4087H1V84.4484H2V94.6468H1V96.6865H2V106.885H1V108.925H2V119.123H1V121.163H2V131.361H1V133.401H2V143.599H1V145.639H2V155.837H1V157.877H2V168.075H1V170.115H2V180.313H1V182.353H2V192.552H1V194.591H2V204.79H1V206.829H2V217.028H1V219.067H2V229.266H1V231.306H2V241.504H1V243.544H2V253.742H1V255.782H2V265.98H1V267Z" stroke="#53D084" stroke-width="2" stroke-linejoin="round" stroke-dasharray="2 10"/>
</svg>
