<svg width="145" height="90" viewBox="0 0 145 90" fill="none" xmlns="http://www.w3.org/2000/svg">
<g clip-path="url(#clip0)">
<path d="M30.4165 58.1474L30.5937 59.9869C30.6139 60.1963 30.7671 60.3941 31.024 60.5424L71.441 83.8772C72.3061 84.3767 73.7086 84.3767 74.5736 83.8772L97.0997 70.8718C97.5068 70.6367 97.7394 70.3194 97.7482 69.987L97.792 68.326C97.795 68.2107 97.717 68.0996 97.5758 68.0181L55.7525 43.8714C55.4642 43.7049 54.9967 43.7049 54.7083 43.8714L30.6854 57.7411C30.4997 57.8483 30.4019 57.9961 30.4165 58.1474Z" fill="#D5DFE9"/>
<path d="M30.8626 58.5431C30.2859 58.2102 30.2859 57.6703 30.8626 57.3374L53.9645 43.9995C54.5412 43.6665 55.4762 43.6665 56.0529 43.9995L97.0808 67.6869C97.6575 68.0199 97.6575 68.5597 97.0808 68.8926L73.9788 82.2306C73.4021 82.5635 72.4671 82.5635 71.8904 82.2306L30.8626 58.5431Z" fill="#F8FAFD"/>
<rect width="12.0572" height="3.16502" rx="0.30143" transform="matrix(0.866025 -0.5 -0.866025 -0.5 56.5756 71.8814)" fill="#E6EFFA"/>
<rect width="20.648" height="1.9593" rx="0.30143" transform="matrix(0.866025 -0.5 -0.866025 -0.5 60.7523 74.2928)" fill="#E6EFFA"/>
<rect width="18.538" height="1.9593" rx="0.30143" transform="matrix(0.866025 -0.5 -0.866025 -0.5 63.3627 75.8)" fill="#E6EFFA"/>
<rect width="12.9615" height="1.9593" rx="0.30143" transform="matrix(0.866025 -0.5 -0.866025 -0.5 65.9732 77.3071)" fill="#E6EFFA"/>
<rect width="25.9822" height="5.71422" rx="1.50715" transform="matrix(0.866025 -0.5 0.866025 0.5 68.1922 78.7389)" fill="#305EED"/>
<path d="M81.0222 74.4535L81.03 74.458C81.1096 74.4151 81.201 74.3925 81.3041 74.3902C81.4072 74.3865 81.5084 74.4132 81.6076 74.4705C81.7198 74.5353 81.7701 74.6103 81.7583 74.6954C81.7453 74.7798 81.6702 74.8616 81.5332 74.9407L80.8205 75.3522L79.5088 74.5948L80.2214 74.1834C80.3441 74.1125 80.474 74.0745 80.611 74.0692C80.7494 74.0632 80.8714 74.0907 80.9772 74.1517C81.0659 74.203 81.1096 74.2576 81.1083 74.3156C81.107 74.3721 81.0783 74.4181 81.0222 74.4535ZM80.1764 74.5462L80.4192 74.6864L80.6521 74.5519C80.6939 74.5278 80.7168 74.5018 80.7207 74.4739C80.7233 74.4452 80.7063 74.4204 80.6698 74.3993C80.6345 74.3789 80.5928 74.3699 80.5445 74.3721C80.4975 74.3736 80.4544 74.3857 80.4153 74.4083L80.1764 74.5462ZM80.9047 74.9667L81.1573 74.8209C81.2017 74.7953 81.2245 74.7685 81.2258 74.7406C81.2271 74.7112 81.2082 74.6853 81.169 74.6626C81.1325 74.6415 81.0901 74.6321 81.0418 74.6344C80.9948 74.6359 80.9504 74.6487 80.9086 74.6728L80.6521 74.8209L80.9047 74.9667ZM82.0638 73.1197L82.7824 73.5345C82.9716 73.6438 83.0682 73.7628 83.0721 73.8917C83.076 74.019 82.9879 74.1347 82.8078 74.2387C82.6225 74.3457 82.4176 74.3992 82.1931 74.3992C81.9686 74.3992 81.761 74.3442 81.5705 74.2342L80.8519 73.8193L81.2298 73.6012L81.9483 74.016C82.0371 74.0673 82.1278 74.0948 82.2205 74.0985C82.3131 74.1023 82.3954 74.0835 82.4672 74.042C82.5337 74.0036 82.5618 73.9588 82.5513 73.9075C82.5409 73.8548 82.4919 73.8031 82.4045 73.7527L81.686 73.3378L82.0638 73.1197ZM83.6024 72.2314L83.9998 73.0531L84.4012 73.2849L84.0096 73.5109L83.6083 73.2792L82.2025 73.0396L82.6156 72.8011L83.434 72.9435L83.1854 72.4721L83.6024 72.2314Z" fill="white"/>
<path d="M30.8626 58.5431C30.2859 58.2102 30.2859 57.6703 30.8626 57.3374L53.9652 43.9991C54.5418 43.6662 55.4768 43.6662 56.0535 43.9991L75.3709 55.152L50.18 69.696L30.8626 58.5431Z" fill="#E7F0FF"/>
<rect width="12.3694" height="17.4815" transform="matrix(0.866025 -0.5 0.866025 0.5 33.7581 58.8696)" fill="#C7E2FF"/>
<rect width="9.4115" height="2.68946" transform="matrix(0.866025 -0.5 0.866025 0.5 48.6626 53.4919)" fill="#C7E2FF"/>
<rect width="12.1005" height="1.34473" transform="matrix(0.866025 -0.5 0.866025 0.5 51.9234 55.3745)" fill="#C7E2FF"/>
<path d="M56.841 56.5309L58.7649 57.6417L58.2222 57.955L56.9358 57.2123L56.7175 57.6002L56.2093 57.3068L56.4849 56.7365L56.841 56.5309ZM58.3893 56.4095L58.6305 56.2703C58.8545 56.141 59.0823 56.0735 59.314 56.068C59.5456 56.0625 59.7581 56.1155 59.9514 56.2272C60.1524 56.3432 60.2462 56.4769 60.2328 56.6284C60.2194 56.7798 60.1007 56.9202 59.8768 57.0495C59.6624 57.1733 59.425 57.244 59.1646 57.2617C58.9024 57.2782 58.6621 57.2302 58.4439 57.1174L58.8689 56.7593C58.9742 56.8179 59.0756 56.8467 59.1732 56.8455C59.2709 56.8444 59.3551 56.8234 59.4259 56.7825C59.4949 56.7428 59.5312 56.6997 59.5351 56.6532C59.5389 56.6068 59.5083 56.5648 59.4432 56.5272C59.3838 56.493 59.314 56.4781 59.2335 56.4825C59.1512 56.4858 59.0737 56.5084 59.001 56.5504L58.3204 56.9434L57.2637 56.2835L58.576 55.5259L59.0469 55.7978L58.1969 56.2885L58.3893 56.4095ZM61.4102 55.1661L62.0506 54.9191C62.2439 55.0683 62.333 55.228 62.3176 55.3982C62.3042 55.5673 62.1836 55.7176 61.9558 55.8491C61.7491 55.9685 61.5127 56.0365 61.2466 56.053C60.9824 56.0685 60.7192 56.0326 60.4569 55.9453L60.21 56.0878L59.9343 55.9287L60.141 55.8093L60.0779 55.7729L60.0147 55.7364L59.8079 55.8557L59.5351 55.6983L59.7821 55.5557C59.6289 55.4054 59.5667 55.2534 59.5954 55.0998C59.6222 54.945 59.739 54.808 59.9458 54.6886C60.1717 54.5582 60.4291 54.4891 60.7182 54.4814C61.0073 54.4736 61.2829 54.5234 61.5452 54.6306L61.1145 54.9953C60.8139 54.8726 60.5794 54.8599 60.411 54.9572C60.2904 55.0268 60.2683 55.118 60.3449 55.2307L60.767 54.987L60.9853 55.176L60.5631 55.4197L60.6234 55.4579C60.6522 55.4744 60.6742 55.486 60.6895 55.4927L61.0915 55.2606L61.3126 55.4512L61.0197 55.6203C61.2131 55.6634 61.37 55.6502 61.4906 55.5805C61.6553 55.4855 61.6285 55.3473 61.4102 55.1661Z" fill="#305EED"/>
<circle r="1.58251" transform="matrix(0.866025 -0.5 0.866025 0.5 55.1398 45.7323)" stroke="#305EED" stroke-opacity="0.2" stroke-width="0.150715"/>
<line x1="55.1781" y1="45.8076" x2="55.1781" y2="33.2983" stroke="url(#paint0_linear)" stroke-width="0.150715"/>
<line x1="55.1781" y1="45.8076" x2="55.1781" y2="33.2983" stroke="white" stroke-width="0.150715"/>
<line x1="92.6382" y1="67.4353" x2="92.6382" y2="54.9259" stroke="url(#paint1_linear)" stroke-width="0.150715"/>
<line x1="92.6382" y1="67.4353" x2="92.6382" y2="54.9259" stroke="white" stroke-width="0.150715"/>
<rect width="25.9822" height="5.71422" rx="1.50715" transform="matrix(0.866025 -0.5 0.866025 0.5 71.3247 63.5167)" fill="#53D084"/>
<path d="M84.1547 59.2313L84.1625 59.2358C84.2421 59.1929 84.3335 59.1703 84.4366 59.168C84.5397 59.1643 84.6409 59.191 84.7401 59.2483C84.8523 59.3131 84.9026 59.3881 84.8908 59.4732C84.8778 59.5576 84.8027 59.6394 84.6657 59.7185L83.953 60.13L82.6413 59.3726L83.3539 58.9612C83.4766 58.8903 83.6065 58.8523 83.7435 58.847C83.8819 58.841 84.0039 58.8685 84.1097 58.9295C84.1984 58.9808 84.2421 59.0354 84.2408 59.0934C84.2395 59.1499 84.2108 59.1959 84.1547 59.2313ZM83.3089 59.324L83.5517 59.4642L83.7847 59.3297C83.8264 59.3056 83.8493 59.2796 83.8532 59.2517C83.8558 59.223 83.8388 59.1982 83.8023 59.1771C83.767 59.1567 83.7253 59.1477 83.677 59.1499C83.63 59.1514 83.5869 59.1635 83.5478 59.1861L83.3089 59.324ZM84.0372 59.7445L84.2898 59.5987C84.3342 59.5731 84.357 59.5463 84.3583 59.5184C84.3596 59.4891 84.3407 59.4631 84.3015 59.4404C84.265 59.4193 84.2226 59.4099 84.1743 59.4122C84.1273 59.4137 84.0829 59.4265 84.0411 59.4506L83.7847 59.5987L84.0372 59.7445ZM85.1963 57.8975L85.9149 58.3123C86.1041 58.4216 86.2007 58.5406 86.2046 58.6695C86.2085 58.7968 86.1204 58.9125 85.9403 59.0165C85.755 59.1235 85.5501 59.177 85.3256 59.177C85.1011 59.177 84.8935 59.122 84.703 59.012L83.9844 58.5971L84.3623 58.379L85.0808 58.7938C85.1696 58.8451 85.2603 58.8726 85.353 58.8763C85.4456 58.8801 85.5279 58.8613 85.5997 58.8198C85.6662 58.7814 85.6943 58.7366 85.6838 58.6853C85.6734 58.6326 85.6245 58.5809 85.537 58.5305L84.8185 58.1156L85.1963 57.8975ZM86.7349 57.0092L87.1323 57.8309L87.5337 58.0627L87.1421 58.2887L86.7408 58.057L85.335 57.8174L85.7481 57.5789L86.5665 57.7213L86.3179 57.2499L86.7349 57.0092Z" fill="white"/>
<path d="M111.732 42.9L111.74 42.9046C111.819 42.8616 111.911 42.839 112.014 42.8367C112.117 42.833 112.218 42.8597 112.317 42.917C112.43 42.9818 112.48 43.0568 112.468 43.1419C112.455 43.2263 112.38 43.3081 112.243 43.3872L111.53 43.7987L110.219 43.0413L110.931 42.6299C111.054 42.559 111.184 42.521 111.321 42.5157C111.459 42.5097 111.581 42.5372 111.687 42.5982C111.776 42.6495 111.819 42.7041 111.818 42.7621C111.817 42.8186 111.788 42.8646 111.732 42.9ZM110.886 42.9927L111.129 43.1329L111.362 42.9984C111.404 42.9743 111.427 42.9483 111.43 42.9204C111.433 42.8917 111.416 42.8669 111.38 42.8458C111.344 42.8254 111.303 42.8164 111.254 42.8186C111.207 42.8201 111.164 42.8322 111.125 42.8548L110.886 42.9927ZM111.615 43.4132L111.867 43.2674C111.911 43.2418 111.934 43.215 111.936 43.1871C111.937 43.1578 111.918 43.1318 111.879 43.1091C111.842 43.088 111.8 43.0786 111.752 43.0809C111.705 43.0824 111.66 43.0952 111.618 43.1193L111.362 43.2674L111.615 43.4132ZM112.774 41.5662L113.492 41.981C113.681 42.0903 113.778 42.2093 113.782 42.3382C113.786 42.4655 113.698 42.5812 113.518 42.6852C113.332 42.7922 113.127 42.8457 112.903 42.8457C112.678 42.8457 112.471 42.7907 112.28 42.6807L111.562 42.2659L111.94 42.0477L112.658 42.4625C112.747 42.5138 112.838 42.5413 112.93 42.5451C113.023 42.5488 113.105 42.53 113.177 42.4885C113.244 42.4501 113.272 42.4053 113.261 42.354C113.251 42.3013 113.202 42.2496 113.114 42.1992L112.396 41.7843L112.774 41.5662ZM114.312 40.6779L114.71 41.4996L115.111 41.7314L114.719 41.9574L114.318 41.7257L112.912 41.4861L113.325 41.2476L114.144 41.39L113.895 40.9186L114.312 40.6779Z" fill="#305EED"/>
<rect x="0.130523" width="25.8314" height="5.56351" rx="1.43179" transform="matrix(0.866025 -0.5 0.866025 0.5 98.9195 47.2506)" stroke="#305EED" stroke-width="0.150715"/>
<rect width="29.088" height="23.5116" rx="1.20572" transform="matrix(0.866025 -0.5 0.866025 0.5 19.805 35.1281)" fill="white"/>
<rect width="26.2244" height="12.9615" transform="matrix(0.866025 -0.5 0.866025 0.5 22.2849 35.2035)" fill="#C7E1FF"/>
<rect width="9.4115" height="2.68946" transform="matrix(0.866025 -0.5 0.866025 0.5 35.0769 42.589)" fill="#C7E1FF"/>
<rect width="12.1005" height="1.34473" transform="matrix(0.866025 -0.5 0.866025 0.5 38.337 44.4712)" fill="#C7E1FF"/>
<path d="M54.0063 32.287L55.9302 33.3978L55.3875 33.7111L54.101 32.9684L53.8828 33.3563L53.3746 33.0629L53.6502 32.4926L54.0063 32.287ZM55.5546 32.1656L55.7958 32.0264C56.0198 31.8971 56.2476 31.8296 56.4792 31.8241C56.7109 31.8186 56.9234 31.8716 57.1167 31.9833C57.3177 32.0993 57.4115 32.2331 57.3981 32.3845C57.3847 32.5359 57.266 32.6763 57.042 32.8056C56.8276 32.9294 56.5903 33.0001 56.3299 33.0178C56.0677 33.0344 55.8274 32.9863 55.6092 32.8735L56.0342 32.5154C56.1394 32.574 56.2409 32.6028 56.3385 32.6016C56.4362 32.6005 56.5204 32.5795 56.5912 32.5387C56.6601 32.4989 56.6965 32.4558 56.7003 32.4093C56.7042 32.3629 56.6735 32.3209 56.6085 32.2833C56.5491 32.2491 56.4792 32.2342 56.3988 32.2386C56.3165 32.2419 56.239 32.2646 56.1662 32.3065L55.4857 32.6995L54.429 32.0396L55.7413 31.282L56.2122 31.5539L55.3622 32.0446L55.5546 32.1656ZM58.5755 30.9222L59.2159 30.6752C59.4092 30.8244 59.4982 30.9841 59.4829 31.1543C59.4695 31.3234 59.3489 31.4737 59.1211 31.6052C58.9144 31.7246 58.6779 31.7926 58.4118 31.8091C58.1477 31.8246 57.8844 31.7887 57.6222 31.7014L57.3752 31.844L57.0996 31.6848L57.3063 31.5654L57.2431 31.529L57.18 31.4925L56.9732 31.6119L56.7004 31.4544L56.9474 31.3118C56.7942 31.1615 56.732 31.0095 56.7607 30.8559C56.7875 30.7011 56.9043 30.5641 57.1111 30.4447C57.3369 30.3143 57.5944 30.2452 57.8835 30.2375C58.1726 30.2297 58.4482 30.2795 58.7105 30.3867L58.2798 30.7514C57.9792 30.6287 57.7447 30.616 57.5762 30.7133C57.4556 30.7829 57.4336 30.8741 57.5102 30.9868L57.9323 30.7431L58.1505 30.9321L57.7284 31.1758L57.7887 31.214C57.8174 31.2305 57.8395 31.2421 57.8548 31.2488L58.2568 31.0167L58.4779 31.2073L58.185 31.3764C58.3783 31.4195 58.5353 31.4063 58.6559 31.3366C58.8206 31.2416 58.7938 31.1034 58.5755 30.9222Z" fill="#305EED"/>
<g filter="url(#filter0_b)">
<rect x="0.130523" width="28.9373" height="23.3608" rx="1.13036" transform="matrix(0.866025 -0.5 0.866025 0.5 47.6238 19.1423)" stroke="#305EED" stroke-width="0.150715"/>
</g>
<rect width="12.3694" height="17.4815" transform="matrix(0.866025 -0.5 0.866025 0.5 62.5235 13.0268)" fill="#305EED"/>
<rect width="7.90435" height="2.68946" transform="matrix(0.866025 -0.5 0.866025 0.5 54.4476 20.9167)" fill="#305EED"/>
<rect width="10.5933" height="1.34473" transform="matrix(0.866025 -0.5 0.866025 0.5 57.7084 22.7993)" fill="#305EED"/>
<path d="M62.626 23.9557L64.5499 25.0665L64.0072 25.3798L62.7208 24.6371L62.5025 25.025L61.9943 24.7316L62.2699 24.1613L62.626 23.9557ZM64.1743 23.8344L64.4155 23.6951C64.6395 23.5658 64.8673 23.4984 65.099 23.4928C65.3306 23.4873 65.5431 23.5404 65.7364 23.652C65.9374 23.768 66.0312 23.9018 66.0178 24.0532C66.0044 24.2046 65.8857 24.345 65.6618 24.4743C65.4474 24.5981 65.21 24.6688 64.9496 24.6865C64.6874 24.7031 64.4471 24.655 64.2289 24.5423L64.6539 24.1842C64.7592 24.2428 64.8606 24.2715 64.9583 24.2704C65.0559 24.2693 65.1401 24.2483 65.2109 24.2074C65.2799 24.1676 65.3162 24.1245 65.3201 24.0781C65.3239 24.0316 65.2933 23.9896 65.2282 23.9521C65.1688 23.9178 65.099 23.9029 65.0186 23.9073C64.9362 23.9106 64.8587 23.9333 64.786 23.9753L64.1054 24.3682L63.0487 23.7084L64.361 22.9507L64.8319 23.2226L63.9819 23.7133L64.1743 23.8344ZM67.1952 22.5909L67.8356 22.3439C68.0289 22.4931 68.118 22.6528 68.1026 22.823C68.0892 22.9921 67.9686 23.1424 67.7408 23.274C67.5341 23.3933 67.2977 23.4613 67.0316 23.4779C66.7674 23.4933 66.5042 23.4574 66.2419 23.3701L65.995 23.5127L65.7193 23.3535L65.926 23.2342L65.8629 23.1977L65.7997 23.1612L65.5929 23.2806L65.3202 23.1231L65.5671 22.9805C65.414 22.8302 65.3517 22.6782 65.3805 22.5246C65.4073 22.3699 65.524 22.2328 65.7308 22.1134C65.9567 21.983 66.2141 21.9139 66.5032 21.9062C66.7923 21.8985 67.0679 21.9482 67.3302 22.0554L66.8995 22.4202C66.5989 22.2975 66.3644 22.2848 66.196 22.382C66.0754 22.4517 66.0533 22.5428 66.1299 22.6556L66.552 22.4119L66.7703 22.6009L66.3482 22.8446L66.4085 22.8827C66.4372 22.8993 66.4592 22.9109 66.4745 22.9175L66.8765 22.6854L67.0976 22.8761L66.8047 23.0452C66.9981 23.0883 67.155 23.075 67.2756 23.0054C67.4403 22.9103 67.4135 22.7722 67.1952 22.5909Z" fill="white"/>
</g>
<defs>
<filter id="filter0_b" x="39.1751" y="-4.15674" width="62.415" height="43.6793" filterUnits="userSpaceOnUse" color-interpolation-filters="sRGB">
<feFlood flood-opacity="0" result="BackgroundImageFix"/>
<feGaussianBlur in="BackgroundImage" stdDeviation="4.52145"/>
<feComposite in2="SourceAlpha" operator="in" result="effect1_backgroundBlur"/>
<feBlend mode="normal" in="SourceGraphic" in2="effect1_backgroundBlur" result="shape"/>
</filter>
<linearGradient id="paint0_linear" x1="56.4953" y1="45.6716" x2="56.4953" y2="33.4344" gradientUnits="userSpaceOnUse">
<stop stop-color="#305EED"/>
<stop offset="0.357071" stop-color="white"/>
</linearGradient>
<linearGradient id="paint1_linear" x1="93.9554" y1="67.2992" x2="93.9554" y2="55.062" gradientUnits="userSpaceOnUse">
<stop stop-color="#305EED"/>
<stop offset="0.357071" stop-color="white"/>
</linearGradient>
<clipPath id="clip0">
<rect width="80.934" height="81.0421" fill="white" transform="matrix(0.866025 -0.5 0.866025 0.5 2.70642 45)"/>
</clipPath>
</defs>
</svg>
