<svg width="145" height="92" viewBox="0 0 145 92" fill="none" xmlns="http://www.w3.org/2000/svg">
<g filter="url(#filter0_d)">
<rect x="0.231461" width="35.6802" height="66.1487" rx="3.87538" transform="matrix(0.866025 -0.5 0.866025 0.5 28.8692 36.0241)" stroke="white" stroke-width="0.267268"/>
<rect x="0.231461" width="35.6802" height="66.1487" rx="3.87538" transform="matrix(0.866025 -0.5 0.866025 0.5 28.8692 36.0241)" stroke="#305EED" stroke-width="0.267268"/>
</g>
<rect width="35.9475" height="66.416" rx="4.00901" transform="matrix(0.866025 -0.5 0.866025 0.5 28.8382 38.5811)" fill="#1A2A5C"/>
<rect width="14.0646" height="13.6149" rx="1.33634" transform="matrix(0.866025 -0.5 0.866025 0.5 57.6232 51.8993)" fill="#0B264E"/>
<rect width="14.0646" height="13.6149" rx="1.33634" transform="matrix(0.866025 -0.5 0.866025 0.5 70.8265 59.5222)" fill="#0B264E"/>
<rect width="13.2832" height="13.6149" rx="1.33634" transform="matrix(0.866025 -0.5 0.866025 0.5 71.9689 43.6169)" fill="#0B264E"/>
<rect width="13.2832" height="13.6149" rx="1.33634" transform="matrix(0.866025 -0.5 0.866025 0.5 85.1722 51.2398)" fill="#0B264E"/>
<rect width="14.3771" height="17.8842" rx="1.33634" transform="matrix(0.866025 -0.5 0.866025 0.5 39.0221 41.2935)" fill="#0B264E"/>
<rect width="10.9391" height="2.75142" transform="matrix(0.866025 -0.5 0.866025 0.5 55.9564 34.8182)" fill="#0B264E"/>
<rect width="21.6298" height="1.41508" rx="0.707541" transform="matrix(0.866025 -0.5 0.866025 0.5 35.8977 35.4407)" fill="#0B264E"/>
<rect width="14.0646" height="1.37571" transform="matrix(0.866025 -0.5 0.866025 0.5 59.2923 36.7442)" fill="#0B264E"/>
<g filter="url(#filter1_d)">
<path d="M64.7146 36.4429C63.6919 35.8525 63.6919 34.8952 64.7146 34.3048L74.6674 28.5585C75.69 27.9681 77.3481 27.9681 78.3707 28.5585L88.3235 34.3048C89.3462 34.8952 89.3462 35.8525 88.3235 36.4429L78.3707 42.1892C77.3481 42.7796 75.69 42.7796 74.6674 42.1892L64.7146 36.4429Z" fill="#3E6AEF"/>
<g clip-path="url(#clip0)">
<path d="M75.586 32.9955L75.1877 32.7655C74.968 32.6387 74.6107 32.6387 74.3911 32.7655L71.8021 34.2603C71.4727 34.4504 71.4727 34.76 71.8021 34.9501L74.1919 36.3299C74.6303 36.583 75.1467 36.4686 75.3868 36.3299L78.3741 34.6052C78.5938 34.4784 78.5938 34.2721 78.3741 34.1453L76.3826 32.9955C76.1629 32.8686 75.8057 32.8686 75.586 32.9955ZM76.9801 34.2603L76.5818 34.4902L75.7852 34.0303L76.1835 33.8003L76.9801 34.2603ZM72.5987 34.7202C72.4888 34.7836 72.3101 34.7835 72.2004 34.7202C72.0907 34.6568 72.0905 34.5537 72.2004 34.4902L74.7894 32.9955L75.1877 33.2254L72.5987 34.7202Z" fill="white"/>
</g>
<path d="M74.7447 38.925L74.3743 39.1388L75.2722 39.6572L74.9923 39.8189L74.0944 39.3005L73.7239 39.5143L73.4781 39.3724L74.4989 38.783L74.7447 38.925ZM75.4415 38.5562C75.4642 38.5431 75.487 38.5326 75.5098 38.5247L75.7709 38.6893L75.7214 38.7178C75.5246 38.8315 75.5331 38.9501 75.747 39.0736L76.015 39.2284L75.7419 39.386L74.885 38.8913L75.1581 38.7336L75.322 38.8282C75.2753 38.7198 75.3152 38.6291 75.4415 38.5562ZM75.9703 38.2351C76.0921 38.1648 76.2173 38.1267 76.3459 38.1208C76.4756 38.1142 76.5945 38.1421 76.7026 38.2046L77.2455 38.518L76.9826 38.6697L76.9194 38.6333C76.9092 38.7075 76.8534 38.7739 76.7521 38.8324C76.6566 38.8875 76.5536 38.9174 76.4432 38.922C76.3339 38.926 76.2372 38.9036 76.153 38.855C76.0676 38.8057 76.0318 38.7489 76.0454 38.6845C76.058 38.6195 76.1205 38.5544 76.2332 38.4894L76.4517 38.3632L76.4346 38.3534C76.3994 38.333 76.3595 38.3232 76.3151 38.3238C76.2708 38.3232 76.2304 38.3333 76.1939 38.3544C76.1109 38.4023 76.0989 38.4506 76.1581 38.4992L75.8474 38.6175C75.7837 38.5584 75.7626 38.495 75.7843 38.4273C75.8059 38.3583 75.8679 38.2942 75.9703 38.2351ZM76.6241 38.6697C76.6731 38.6415 76.7004 38.6086 76.7061 38.5712C76.7117 38.5337 76.6913 38.5015 76.6446 38.4746L76.6258 38.4638L76.4381 38.5722C76.4039 38.5919 76.3851 38.6126 76.3817 38.6343C76.3783 38.6546 76.3897 38.6724 76.4159 38.6875C76.4432 38.7032 76.4756 38.7095 76.5132 38.7062C76.5507 38.7029 76.5877 38.6908 76.6241 38.6697ZM77.0691 37.6007C77.1692 37.5429 77.2825 37.5157 77.4088 37.5189C77.5351 37.5209 77.6517 37.5528 77.7587 37.6145L78.2845 37.9181L78.0131 38.0748L77.5453 37.8048C77.4953 37.7758 77.4412 37.7604 77.3832 37.7584C77.324 37.7558 77.2728 37.767 77.2295 37.7919C77.1738 37.8241 77.1499 37.8609 77.1578 37.9023C77.1658 37.9424 77.2102 37.9858 77.291 38.0324L77.6887 38.2621L77.4156 38.4197L76.5587 37.925L76.8318 37.7673L76.9137 37.8146C76.9103 37.7338 76.9621 37.6625 77.0691 37.6007ZM78.1892 37.7149L78.4008 37.5296C78.4794 37.5618 78.5636 37.552 78.6535 37.5001C78.6876 37.4803 78.7081 37.4613 78.7149 37.4429C78.7218 37.4232 78.7155 37.4077 78.6961 37.3966C78.6643 37.3782 78.6148 37.3825 78.5476 37.4094L78.3394 37.4902C78.1425 37.5684 77.9764 37.5684 77.8409 37.4902C77.7533 37.4396 77.7175 37.3795 77.7334 37.3098C77.7482 37.2395 77.8102 37.1729 77.9195 37.1098C78.0242 37.0493 78.1328 37.0122 78.2455 36.9984C78.3593 36.984 78.4623 36.9935 78.5545 37.027L78.3547 37.1995C78.3217 37.1857 78.2825 37.1807 78.237 37.1847C78.1926 37.188 78.1505 37.2011 78.1106 37.2241C78.0765 37.2438 78.0583 37.2622 78.056 37.2793C78.0537 37.2951 78.0617 37.3082 78.0799 37.3187C78.1106 37.3365 78.1522 37.3355 78.2045 37.3158L78.4469 37.2231C78.5425 37.1876 78.633 37.1715 78.7183 37.1748C78.8026 37.1775 78.8771 37.1975 78.942 37.2349C79.0341 37.2882 79.0694 37.3499 79.0478 37.4202C79.0262 37.4905 78.9573 37.5592 78.8412 37.6262C78.7331 37.6886 78.6216 37.7294 78.5067 37.7484C78.3917 37.7662 78.2859 37.755 78.1892 37.7149ZM78.8526 36.571C78.9744 36.5007 79.0995 36.4626 79.2281 36.4567C79.3579 36.4501 79.4768 36.4781 79.5849 36.5405L80.1277 36.8539L79.8649 37.0057L79.8017 36.9692C79.7915 37.0434 79.7357 37.1098 79.6344 37.1683C79.5388 37.2235 79.4358 37.2534 79.3254 37.258C79.2162 37.2619 79.1195 37.2396 79.0352 37.1909C78.9499 37.1417 78.914 37.0848 78.9277 37.0204C78.9402 36.9554 79.0028 36.8904 79.1155 36.8253L79.334 36.6992L79.3169 36.6893C79.2816 36.6689 79.2418 36.6591 79.1974 36.6597C79.153 36.6591 79.1126 36.6693 79.0762 36.6903C78.9931 36.7382 78.9812 36.7865 79.0404 36.8352L78.7297 36.9534C78.666 36.8943 78.6449 36.8309 78.6665 36.7632C78.6882 36.6942 78.7502 36.6302 78.8526 36.571ZM79.5064 37.0057C79.5553 36.9774 79.5826 36.9446 79.5883 36.9071C79.594 36.8697 79.5735 36.8375 79.5269 36.8105L79.5081 36.7997L79.3203 36.9081C79.2862 36.9278 79.2674 36.9485 79.264 36.9702C79.2606 36.9905 79.272 37.0083 79.2981 37.0234C79.3254 37.0392 79.3579 37.0454 79.3954 37.0421C79.433 37.0388 79.47 37.0267 79.5064 37.0057ZM80.4959 36.395C80.5915 36.3398 80.6034 36.275 80.5317 36.2008L80.8373 36.0875C80.9158 36.1578 80.9454 36.234 80.9261 36.3161C80.9067 36.3982 80.843 36.4705 80.7349 36.5329C80.604 36.6085 80.4509 36.6482 80.2757 36.6522C80.1004 36.6548 79.9462 36.6177 79.8131 36.5408C79.6811 36.4646 79.6173 36.3759 79.6219 36.2747C79.6276 36.1729 79.6959 36.0842 79.8267 36.0086C79.9326 35.9475 80.056 35.911 80.1972 35.8992C80.3383 35.8874 80.4703 35.9032 80.5932 35.9465L80.3986 36.1298C80.3371 36.1075 80.278 36.0983 80.2211 36.1022C80.163 36.1055 80.1112 36.1203 80.0657 36.1466C80.0043 36.1821 79.9752 36.2225 79.9787 36.2678C79.9809 36.3125 80.0134 36.3529 80.076 36.389C80.1397 36.4258 80.2102 36.4449 80.2876 36.4462C80.365 36.4475 80.4344 36.4304 80.4959 36.395ZM81.6073 35.7079L81.8855 35.7957C81.8491 35.8653 81.7922 35.9225 81.7148 35.9671C81.6067 36.0296 81.4935 36.0614 81.3751 36.0627C81.2579 36.0634 81.1435 36.0315 81.032 35.9671L80.7077 35.7799L80.5523 35.8696L80.3356 35.7444L80.4909 35.6547L80.2041 35.4892L80.4772 35.3315L80.764 35.497L81.0167 35.3512L81.2334 35.4763L80.9808 35.6222L81.2778 35.7937C81.3609 35.8417 81.4406 35.8436 81.5168 35.7996C81.5601 35.7746 81.5902 35.7441 81.6073 35.7079ZM80.8453 35.0322C80.8442 34.9974 80.8664 34.9669 80.9119 34.9406C80.9574 34.9143 81.0103 34.9015 81.0706 34.9021C81.1321 34.9021 81.1839 34.9143 81.226 34.9386C81.2692 34.9636 81.2903 34.9935 81.2891 35.0283C81.288 35.0618 81.2647 35.0917 81.2191 35.118C81.1736 35.1443 81.1218 35.1577 81.0638 35.1584C81.0046 35.1584 80.9534 35.1459 80.9102 35.1209C80.8669 35.096 80.8453 35.0664 80.8453 35.0322ZM82.3133 35.592L82.0402 35.7497L81.1833 35.255L81.4564 35.0973L82.3133 35.592ZM82.0641 34.7208C82.195 34.6453 82.348 34.6055 82.5233 34.6016C82.6985 34.5976 82.8522 34.6338 82.9842 34.71C83.1173 34.7868 83.1805 34.8759 83.1737 34.9771C83.1668 35.0782 83.098 35.1666 82.9671 35.2422C82.834 35.319 82.6792 35.3598 82.5028 35.3644C82.3276 35.3683 82.1734 35.3319 82.0402 35.255C81.9082 35.1788 81.8456 35.0901 81.8524 34.9889C81.8604 34.887 81.931 34.7977 82.0641 34.7208ZM82.7367 35.1091C82.7924 35.0769 82.8203 35.0372 82.8203 34.9899C82.8192 34.9419 82.7862 34.8992 82.7213 34.8617C82.6564 34.8243 82.5825 34.8059 82.4994 34.8066C82.4163 34.8059 82.3475 34.8213 82.2928 34.8529C82.2359 34.8857 82.2075 34.9265 82.2075 34.9751C82.2064 35.023 82.2382 35.0658 82.3031 35.1032C82.368 35.1407 82.4419 35.1597 82.525 35.1604C82.6081 35.1597 82.6786 35.1426 82.7367 35.1091ZM83.207 34.057C83.3072 33.9992 83.4204 33.9719 83.5467 33.9752C83.673 33.9772 83.7897 34.009 83.8967 34.0708L84.4224 34.3744L84.151 34.5311L83.6833 34.261C83.6332 34.2321 83.5791 34.2167 83.5211 34.2147C83.4619 34.2121 83.4107 34.2232 83.3675 34.2482C83.3117 34.2804 83.2878 34.3172 83.2958 34.3586C83.3038 34.3987 83.3481 34.442 83.4289 34.4887L83.8267 34.7183L83.5535 34.876L82.6966 34.3813L82.9697 34.2236L83.0517 34.2709C83.0483 34.1901 83.1 34.1188 83.207 34.057Z" fill="white"/>
</g>
<g filter="url(#filter2_d)">
<path d="M65.1775 72.3904C64.794 72.169 64.794 71.81 65.1775 71.5886L69.228 69.25C69.6115 69.0286 70.2333 69.0286 70.6168 69.25L74.6674 71.5886C75.0509 71.81 75.0509 72.169 74.6674 72.3904L70.6168 74.729C70.2333 74.9504 69.6115 74.9504 69.228 74.729L65.1775 72.3904Z" fill="white"/>
</g>
<g clip-path="url(#clip1)">
<path d="M68.5834 71.2531C68.0208 71.5779 68.0208 72.1065 68.5828 72.4309C69.4011 72.9077 71.068 72.7323 71.1343 72.7258C71.1343 72.7258 71.4492 71.7252 70.6241 71.2531C70.0615 70.9283 69.146 70.9283 68.5834 71.2531ZM70.1139 72.1367C69.832 72.2995 69.3754 72.2995 69.0936 72.1367C68.8117 71.974 68.8117 71.7104 69.0936 71.5476C69.3754 71.3849 69.832 71.3849 70.1139 71.5476C70.3958 71.7104 70.3958 71.974 70.1139 72.1367Z" fill="#305EED"/>
</g>
<path d="M69.1123 55.4189C68.4731 55.0499 68.4731 54.4516 69.1123 54.0826L77.4449 49.2717C78.084 48.9027 79.1203 48.9027 79.7595 49.2717L88.0921 54.0826C88.7312 54.4516 88.7312 55.0499 88.0921 55.4189L79.7595 60.2297C79.1203 60.5987 78.084 60.5987 77.4449 60.2297L69.1123 55.4189Z" fill="#2E56A4"/>
<g clip-path="url(#clip2)">
<path d="M76.5171 53.5469L77.2935 53.9952L78.0698 53.5469L77.7593 53.3676L77.2935 53.6366L76.8277 53.3676L76.5171 53.5469Z" fill="white"/>
<path d="M78.0371 52.7585C77.9189 52.7308 77.7956 52.7097 77.671 52.6958C77.5467 52.6818 77.4199 52.6747 77.2933 52.6748C77.1668 52.6749 77.0404 52.6819 76.916 52.6958C76.7906 52.7097 76.6674 52.731 76.5501 52.7584C76.4297 52.7867 76.3139 52.8218 76.2061 52.8629C75.985 52.9469 75.7888 53.0601 75.6431 53.1879C75.5715 53.2504 75.5108 53.3172 75.4621 53.3864C75.4146 53.4542 75.3779 53.5252 75.3535 53.5979C75.3295 53.6695 75.3172 53.7429 75.3172 53.8159C75.3172 53.8889 75.3295 53.9623 75.3534 54.0338C75.3779 54.1064 75.4144 54.1775 75.4619 54.2451C75.5107 54.3145 75.5715 54.3814 75.6428 54.4437C75.7159 54.5076 75.801 54.5678 75.8961 54.6227C75.8973 54.6234 75.8989 54.6241 75.9001 54.6248L75.5894 54.8042L76.6724 54.8916L76.521 54.2664L76.2106 54.4456C76.2094 54.4448 76.2078 54.4441 76.2066 54.4434C76.1325 54.4006 76.0662 54.3538 76.0094 54.3041C75.954 54.2556 75.9068 54.2038 75.8689 54.1498C75.8319 54.0973 75.8034 54.0419 75.7846 53.9855C75.7658 53.9298 75.7565 53.8728 75.7563 53.8159C75.7562 53.759 75.7658 53.7019 75.7844 53.6464C75.8034 53.5899 75.8319 53.5345 75.8689 53.4818C75.9065 53.428 75.9538 53.3761 76.0094 53.3275C76.1228 53.2282 76.2758 53.14 76.4477 53.0744C76.5314 53.0426 76.6215 53.0152 76.715 52.9933C76.8061 52.9719 76.9021 52.9556 76.9994 52.9445C77.0958 52.9339 77.1949 52.9283 77.2933 52.9283C77.3916 52.9282 77.4904 52.9338 77.5871 52.9446C77.684 52.9554 77.7798 52.9718 77.8719 52.9934C77.9643 53.0148 78.0539 53.0421 78.1388 53.0743C78.2253 53.1074 78.3065 53.1457 78.3804 53.1884C78.4543 53.231 78.5206 53.2779 78.5773 53.3275C78.6333 53.3767 78.6807 53.4284 78.718 53.4819C78.7552 53.5349 78.7835 53.5902 78.8023 53.6464C78.8211 53.702 78.8307 53.759 78.8305 53.8158C78.8305 53.8726 78.8209 53.9298 78.8024 53.9853C78.7833 54.0417 78.7552 54.097 78.7181 54.1498C78.6802 54.2038 78.6329 54.2557 78.5776 54.3041C78.4642 54.4032 78.3116 54.4915 78.1393 54.5572C78.0553 54.5892 77.9655 54.6164 77.872 54.6383C77.7811 54.6596 77.6851 54.6761 77.5874 54.687C77.491 54.6978 77.3923 54.7032 77.2937 54.7033L77.2937 54.9568C77.4202 54.9569 77.5471 54.9498 77.6711 54.9359C77.7967 54.9218 77.92 54.9007 78.0371 54.8733C78.1573 54.8451 78.2731 54.81 78.381 54.7688C78.4916 54.7267 78.5959 54.6776 78.6909 54.6227C78.786 54.5678 78.8712 54.5075 78.944 54.4438C79.0153 54.3815 79.0763 54.3147 79.1251 54.2453C79.1727 54.1774 79.2094 54.1062 79.2338 54.0335C79.2577 53.962 79.2698 53.8889 79.2698 53.8159C79.2698 53.7429 79.2575 53.6697 79.2336 53.5981C79.2095 53.526 79.1729 53.4548 79.1251 53.3867C79.0769 53.318 79.0162 53.2512 78.9439 53.1879C78.8707 53.124 78.7857 53.0638 78.6909 53.0091C78.5962 52.9544 78.4919 52.9053 78.3809 52.8629C78.2716 52.8213 78.1559 52.7862 78.0371 52.7585Z" fill="white"/>
</g>
<path d="M79.6596 57.3162L79.3846 57.475L79.1206 57.4073L78.68 57.6617L78.7972 57.8141L78.5206 57.9738L77.9113 57.1169L78.1753 56.9644L79.6596 57.3162ZM78.8128 57.3289L78.3347 57.208L78.5456 57.4831L78.8128 57.3289ZM79.9154 56.943C80.0029 56.8925 80.0138 56.8333 79.9482 56.7653L80.2279 56.6616C80.2998 56.7259 80.3268 56.7957 80.3091 56.8709C80.2914 56.946 80.2331 57.0122 80.1341 57.0693C80.0144 57.1385 79.8743 57.1748 79.7139 57.1784C79.5535 57.1808 79.4123 57.1469 79.2905 57.0765C79.1696 57.0068 79.1113 56.9256 79.1155 56.833C79.1207 56.7398 79.1832 56.6586 79.303 56.5894C79.3998 56.5335 79.5128 56.5001 79.642 56.4893C79.7712 56.4785 79.892 56.4929 80.0045 56.5326L79.8264 56.7004C79.7701 56.6799 79.7159 56.6715 79.6639 56.6751C79.6108 56.6781 79.5634 56.6916 79.5217 56.7157C79.4655 56.7482 79.4389 56.7852 79.442 56.8267C79.4441 56.8675 79.4738 56.9045 79.5311 56.9376C79.5894 56.9713 79.654 56.9887 79.7248 56.9899C79.7956 56.9911 79.8592 56.9755 79.9154 56.943ZM80.9326 56.3142L81.1873 56.3945C81.154 56.4583 81.1019 56.5106 81.0311 56.5515C80.9321 56.6086 80.8285 56.6378 80.7201 56.639C80.6129 56.6396 80.5082 56.6104 80.4061 56.5515L80.1093 56.3801L79.9671 56.4622L79.7687 56.3476L79.9108 56.2655L79.6484 56.114L79.8983 55.9697L80.1608 56.1212L80.3921 55.9877L80.5905 56.1023L80.3592 56.2358L80.6311 56.3927C80.7071 56.4366 80.78 56.4384 80.8498 56.3981C80.8894 56.3753 80.917 56.3473 80.9326 56.3142ZM80.2352 55.6958C80.2342 55.6639 80.2545 55.636 80.2962 55.6119C80.3378 55.5878 80.3862 55.5761 80.4414 55.5767C80.4977 55.5767 80.5451 55.5878 80.5836 55.6101C80.6232 55.6329 80.6425 55.6603 80.6414 55.6922C80.6404 55.7228 80.619 55.7502 80.5774 55.7743C80.5357 55.7983 80.4883 55.8106 80.4352 55.8112C80.381 55.8112 80.3342 55.7998 80.2946 55.777C80.255 55.7541 80.2352 55.7271 80.2352 55.6958ZM81.5788 56.2081L81.3289 56.3525L80.5446 55.8996L80.7945 55.7553L81.5788 56.2081ZM81.8116 55.1663L82.2725 55.8076L82.0179 55.9547L80.907 55.6886L81.1711 55.5361L81.8444 55.7066L81.5476 55.3187L81.8116 55.1663ZM81.6175 54.8977C81.6165 54.8658 81.6368 54.8379 81.6785 54.8138C81.7201 54.7898 81.7686 54.778 81.8238 54.7786C81.88 54.7786 81.9274 54.7898 81.9659 54.812C82.0055 54.8349 82.0248 54.8622 82.0238 54.8941C82.0227 54.9248 82.0014 54.9521 81.9597 54.9762C81.918 55.0002 81.8706 55.0126 81.8175 55.0132C81.7634 55.0132 81.7165 55.0017 81.6769 54.9789C81.6373 54.956 81.6175 54.929 81.6175 54.8977ZM82.9612 55.4101L82.7112 55.5544L81.9269 55.1016L82.1769 54.9572L82.9612 55.4101ZM83.447 54.8625L83.7017 54.9428C83.6684 55.0066 83.6163 55.0589 83.5455 55.0998C83.4465 55.1569 83.3429 55.1861 83.2346 55.1873C83.1273 55.1879 83.0226 55.1587 82.9205 55.0998L82.6237 54.9284L82.4815 55.0105L82.2831 54.8959L82.4253 54.8138L82.1628 54.6623L82.4128 54.518L82.6752 54.6695L82.9065 54.536L83.1049 54.6506L82.8737 54.7841L83.1455 54.941C83.2215 54.9849 83.2945 54.9867 83.3642 54.9464C83.4038 54.9236 83.4314 54.8956 83.447 54.8625ZM83.887 53.9681L84.5479 54.9269L84.2776 55.083L84.0495 54.751L82.9652 54.5003L83.234 54.3451L83.8792 54.503L83.6183 54.1232L83.887 53.9681Z" fill="white"/>
<g filter="url(#filter3_d)">
<path d="M100.128 61.8333C99.6806 61.575 99.6806 61.1562 100.128 60.8979L104.989 58.0916C105.436 57.8333 106.162 57.8333 106.609 58.0916L111.47 60.8979C111.917 61.1562 111.917 61.575 111.47 61.8333L106.609 64.6397C106.162 64.898 105.436 64.898 104.989 64.6397L100.128 61.8333Z" fill="#3E6AEF"/>
<g clip-path="url(#clip3)">
<path d="M105.681 60.2531L105.157 60.1524C105.085 60.1384 105.005 60.1492 104.951 60.1805L103.7 60.9027C103.646 60.9339 103.627 60.98 103.651 61.0219L103.826 61.3244L103.469 61.5305L103.754 61.6953L106.323 60.2119L106.038 60.0471L105.681 60.2531ZM106.306 62.553C106.386 62.5877 106.499 62.583 106.57 62.542L107.79 61.8373C107.861 61.7963 107.869 61.7314 107.809 61.6851L106.323 60.5416L104.325 61.6953L106.306 62.553ZM106.323 61.036L106.935 61.5069L105.997 62.0485L105.182 61.6953L106.323 61.036Z" fill="white"/>
</g>
</g>
<g filter="url(#filter4_d)">
<g filter="url(#filter5_d)">
<path d="M65.4095 20.5402C65.026 20.3188 65.026 19.9598 65.4095 19.7384L71.3117 16.3307C71.6952 16.1093 72.317 16.1093 72.7005 16.3307L78.6028 19.7384C78.9863 19.9598 78.9862 20.3188 78.6028 20.5402L72.7005 23.9478C72.317 24.1693 71.6952 24.1693 71.3117 23.9478L65.4095 20.5402Z" fill="white"/>
</g>
<g clip-path="url(#clip4)">
<path d="M70.1816 19.0137C70.1019 19.0137 70.0253 19.032 69.969 19.0646L69.2064 19.5048C69.089 19.5726 69.089 19.6826 69.2064 19.7504L69.969 20.1907C70.0253 20.2232 70.1019 20.2415 70.1816 20.2415L71.8828 20.2415C72.0489 20.2415 72.1835 20.1638 72.1835 20.0679L72.1835 19.1873C72.1835 19.0915 72.0489 19.0137 71.8828 19.0137L70.1816 19.0137ZM70.2696 19.7504C70.1523 19.8182 69.9617 19.8182 69.8443 19.7504C69.727 19.6826 69.727 19.5726 69.8443 19.5048C69.9617 19.4371 70.1523 19.4371 70.2696 19.5048C70.387 19.5726 70.387 19.6826 70.2696 19.7504Z" fill="#305EED"/>
</g>
<path d="M70.4779 22.6782L70.6801 22.6029C70.7492 22.661 70.7766 22.7222 70.7622 22.7866C70.7479 22.851 70.6959 22.9091 70.6062 22.9609C70.5042 23.0197 70.3831 23.0498 70.2428 23.0509C70.1032 23.0517 69.9828 23.0229 69.8815 22.9644C69.7809 22.9063 69.7313 22.837 69.7326 22.7564C69.734 22.675 69.7857 22.6049 69.8876 22.546C69.9739 22.4962 70.0728 22.4668 70.1843 22.4577C70.2965 22.4482 70.4009 22.4618 70.4974 22.4986L70.3732 22.6189C70.313 22.596 70.2541 22.5865 70.1966 22.5904C70.1398 22.594 70.0885 22.609 70.0426 22.6355C69.9879 22.6671 69.9609 22.7052 69.9616 22.7499C69.9629 22.7941 69.9927 22.833 70.0509 22.8666C70.109 22.9002 70.1768 22.9176 70.2541 22.9188C70.3314 22.9192 70.3975 22.9036 70.4522 22.872C70.4974 22.8459 70.5227 22.8162 70.5282 22.7831C70.5344 22.7495 70.5176 22.7145 70.4779 22.6782ZM70.7342 22.2564C70.8074 22.2141 70.8827 22.1912 70.96 22.1876C71.038 22.1837 71.1096 22.2005 71.1746 22.238L71.501 22.4265L71.3429 22.5177L71.3049 22.4958C71.2988 22.5405 71.2652 22.5804 71.2043 22.6155C71.1469 22.6487 71.0849 22.6667 71.0185 22.6695C70.9528 22.6718 70.8947 22.6584 70.844 22.6292C70.7927 22.5995 70.7711 22.5653 70.7794 22.5266C70.7869 22.4875 70.8245 22.4484 70.8923 22.4093L71.0237 22.3334L71.0134 22.3275C70.9922 22.3152 70.9682 22.3093 70.9415 22.3097C70.9149 22.3093 70.8906 22.3154 70.8687 22.3281C70.8187 22.3569 70.8115 22.386 70.8471 22.4152L70.6603 22.4863C70.622 22.4508 70.6093 22.4126 70.6223 22.3719C70.6353 22.3305 70.6726 22.2919 70.7342 22.2564ZM71.1273 22.5177C71.1568 22.5007 71.1732 22.481 71.1766 22.4585C71.18 22.4359 71.1677 22.4166 71.1397 22.4004L71.1284 22.3939L71.0155 22.4591C70.9949 22.4709 70.9836 22.4834 70.9816 22.4964C70.9795 22.5086 70.9864 22.5193 71.0021 22.5284C71.0185 22.5379 71.038 22.5416 71.0606 22.5397C71.0832 22.5377 71.1054 22.5304 71.1273 22.5177ZM71.7398 21.6758C71.796 21.6434 71.8623 21.6276 71.939 21.6283C72.015 21.6287 72.0837 21.6467 72.1453 21.6823L72.4676 21.8684L72.3044 21.9626L72.017 21.7967C71.9883 21.7801 71.9571 21.7716 71.9236 21.7712C71.8894 21.7704 71.8599 21.7771 71.8353 21.7913C71.8045 21.8091 71.7912 21.8298 71.7953 21.8536C71.7994 21.8765 71.8226 21.9002 71.8651 21.9247L72.1176 22.0705L71.9534 22.1653L71.6659 21.9994C71.6372 21.9828 71.6061 21.9743 71.5725 21.9739C71.5383 21.9731 71.5085 21.98 71.4832 21.9946C71.4524 22.0124 71.4394 22.0329 71.4442 22.0562C71.449 22.0788 71.4726 22.1023 71.515 22.1268L71.7676 22.2726L71.6033 22.3674L71.088 22.0699L71.2522 21.9751L71.2995 22.0023C71.2954 21.9565 71.3251 21.9152 71.3888 21.8784C71.4647 21.8346 71.5499 21.819 71.6444 21.8316C71.6307 21.7724 71.6625 21.7204 71.7398 21.6758ZM72.3734 21.31C72.4432 21.2697 72.528 21.2503 72.628 21.2519C72.7286 21.2531 72.8186 21.2766 72.8979 21.3224C72.978 21.3687 73.0191 21.4208 73.0211 21.4789C73.0232 21.5362 72.9893 21.585 72.9195 21.6253C72.8538 21.6632 72.7806 21.6826 72.6998 21.6834L72.9903 21.8511L72.8261 21.9459L72.0644 21.5062L72.2286 21.4113L72.2728 21.4368C72.2742 21.3902 72.3077 21.3479 72.3734 21.31ZM72.746 21.5642C72.7823 21.5433 72.7997 21.519 72.7984 21.4913C72.797 21.4637 72.7765 21.4384 72.7368 21.4155C72.6978 21.393 72.6543 21.3813 72.6064 21.3805C72.5578 21.3793 72.5154 21.3892 72.4791 21.4101C72.4449 21.4299 72.4278 21.4544 72.4278 21.4836C72.4285 21.5125 72.448 21.538 72.4863 21.5601C72.5253 21.5826 72.5698 21.5941 72.6198 21.5945C72.6697 21.5941 72.7118 21.584 72.746 21.5642ZM72.9416 20.9819C73.0149 20.9396 73.0901 20.9167 73.1675 20.9132C73.2455 20.9092 73.317 20.926 73.382 20.9635L73.7084 21.152L73.5504 21.2433L73.5124 21.2213C73.5062 21.266 73.4727 21.3059 73.4118 21.3411C73.3543 21.3743 73.2924 21.3922 73.226 21.395C73.1603 21.3974 73.1021 21.3839 73.0515 21.3547C73.0001 21.3251 72.9786 21.2909 72.9868 21.2522C72.9943 21.213 73.032 21.1739 73.0997 21.1348L73.2311 21.059L73.2208 21.053C73.1996 21.0408 73.1757 21.0349 73.149 21.0352C73.1223 21.0349 73.098 21.041 73.0761 21.0536C73.0261 21.0825 73.019 21.1115 73.0545 21.1407L72.8677 21.2119C72.8294 21.1763 72.8167 21.1382 72.8297 21.0975C72.8427 21.056 72.88 21.0175 72.9416 20.9819ZM73.3348 21.2433C73.3642 21.2263 73.3806 21.2065 73.3841 21.184C73.3875 21.1615 73.3752 21.1421 73.3471 21.1259L73.3358 21.1194L73.2229 21.1846C73.2024 21.1965 73.1911 21.2089 73.189 21.2219C73.187 21.2342 73.1938 21.2449 73.2095 21.2539C73.226 21.2634 73.2455 21.2672 73.2681 21.2652C73.2906 21.2632 73.3129 21.2559 73.3348 21.2433ZM73.1004 20.6567C73.0997 20.6358 73.1131 20.6174 73.1404 20.6016C73.1678 20.5858 73.1996 20.5781 73.2359 20.5785C73.2728 20.5785 73.304 20.5858 73.3293 20.6004C73.3553 20.6154 73.368 20.6334 73.3673 20.6544C73.3666 20.6745 73.3526 20.6925 73.3252 20.7083C73.2978 20.7241 73.2667 20.7322 73.2318 20.7326C73.1962 20.7326 73.1654 20.7251 73.1394 20.7101C73.1134 20.6951 73.1004 20.6773 73.1004 20.6567ZM73.9832 20.9934L73.819 21.0882L73.3036 20.7907L73.4679 20.6958L73.9832 20.9934ZM74.1372 20.3094L74.6628 20.6129C74.7394 20.6571 74.7709 20.7085 74.7572 20.767C74.7435 20.8254 74.6932 20.8798 74.6063 20.93C74.4845 21.0003 74.3572 21.026 74.2244 21.007L74.2768 20.8796C74.3192 20.882 74.3541 20.8808 74.3815 20.876C74.4089 20.8713 74.4356 20.8614 74.4616 20.8464C74.5013 20.8235 74.5238 20.7986 74.5293 20.7717C74.5362 20.7448 74.5204 20.7203 74.4821 20.6982L74.4441 20.6763C74.4427 20.7229 74.4092 20.7652 74.3435 20.8031C74.2737 20.8434 74.1888 20.8632 74.0889 20.8624C73.989 20.8608 73.899 20.8369 73.819 20.7907C73.7396 20.7448 73.6985 20.6931 73.6958 20.6354C73.6937 20.5773 73.7276 20.5281 73.7974 20.4878C73.8631 20.4499 73.9363 20.4305 74.0171 20.4297L73.9729 20.4043L74.1372 20.3094ZM74.2378 20.703C74.272 20.6832 74.2891 20.6591 74.2891 20.6307C74.2891 20.6014 74.2696 20.5755 74.2306 20.553C74.1923 20.5309 74.1478 20.5198 74.0971 20.5198C74.0472 20.5194 74.0051 20.5291 73.9709 20.5489C73.9346 20.5698 73.9175 20.5943 73.9196 20.6224C73.9209 20.65 73.9411 20.6751 73.9801 20.6976C74.0198 20.7205 74.0636 20.7324 74.1115 20.7332C74.1594 20.734 74.2015 20.7239 74.2378 20.703ZM74.5627 20.046C74.623 20.0112 74.691 19.9948 74.767 19.9968C74.843 19.998 74.9131 20.0171 74.9774 20.0543L75.2936 20.2368L75.1304 20.331L74.8491 20.1686C74.819 20.1513 74.7865 20.142 74.7516 20.1408C74.716 20.1392 74.6852 20.1459 74.6592 20.1609C74.6257 20.1803 74.6113 20.2024 74.6161 20.2273C74.6209 20.2514 74.6476 20.2775 74.6962 20.3056L74.9354 20.4436L74.7711 20.5385L74.2558 20.2409L74.42 20.1461L74.4693 20.1746C74.4673 20.126 74.4984 20.0831 74.5627 20.046ZM75.2363 20.1146L75.3636 20.0032C75.4108 20.0226 75.4614 20.0166 75.5155 19.9854C75.536 19.9736 75.5484 19.9621 75.5525 19.951C75.5566 19.9392 75.5528 19.9299 75.5412 19.9232C75.522 19.9121 75.4922 19.9147 75.4519 19.9309L75.3266 19.9795C75.2082 20.0265 75.1083 20.0265 75.0269 19.9795C74.9742 19.9491 74.9526 19.9129 74.9622 19.871C74.9711 19.8288 75.0084 19.7886 75.0741 19.7507C75.1371 19.7144 75.2024 19.692 75.2702 19.6837C75.3386 19.6751 75.4005 19.6808 75.456 19.7009L75.3359 19.8047C75.316 19.7964 75.2924 19.7934 75.265 19.7958C75.2384 19.7977 75.213 19.8056 75.1891 19.8195C75.1685 19.8313 75.1576 19.8424 75.1562 19.8527C75.1549 19.8621 75.1597 19.87 75.1706 19.8764C75.1891 19.887 75.2141 19.8864 75.2455 19.8746L75.3913 19.8189C75.4488 19.7975 75.5032 19.7879 75.5545 19.7898C75.6052 19.7914 75.65 19.8035 75.689 19.826C75.7444 19.858 75.7656 19.8951 75.7526 19.9374C75.7396 19.9797 75.6982 20.021 75.6284 20.0613C75.5634 20.0988 75.4964 20.1233 75.4272 20.1348C75.3581 20.1454 75.2945 20.1387 75.2363 20.1146Z" fill="#305EED"/>
</g>
<g filter="url(#filter6_d)">
<path d="M36.8512 62.686C36.3552 62.3996 36.3552 61.9353 36.8512 61.6489L43.2164 57.9739C43.7125 57.6875 44.5167 57.6875 45.0128 57.9739L51.3779 61.6489C51.874 61.9353 51.874 62.3996 51.3779 62.686L45.0128 66.3609C44.5167 66.6473 43.7125 66.6473 43.2164 66.3609L36.8512 62.686Z" stroke="url(#paint0_linear)" stroke-width="0.0638848"/>
</g>
<g opacity="0.5" clip-path="url(#clip5)">
<path d="M43.6997 61.9278L43.5798 61.7203L42.9637 61.3645C43.1163 61.2145 43.0835 61.0186 42.8609 60.8901C42.5965 60.7375 42.1666 60.7375 41.9022 60.8901C41.6379 61.0427 41.6379 61.2909 41.9022 61.4435C42.1249 61.5721 42.4642 61.591 42.724 61.5029L43.3402 61.8586L43.6997 61.9278Z" fill="white"/>
<path d="M43.4396 61.1873L43.6068 61.3576C44.0031 61.2279 44.3688 61.2072 44.5385 61.3052C44.7652 61.4361 44.6241 61.8092 44.0591 62.1354C43.4941 62.4616 42.8479 62.543 42.6212 62.4121C42.4515 62.3142 42.4872 62.103 42.7119 61.8741L42.417 61.7776C42.1104 62.09 42.0967 62.3861 42.3815 62.5505C42.7846 62.7832 43.6269 62.6617 44.2988 62.2738C44.9707 61.8859 45.1812 61.3996 44.7781 61.1668C44.4933 61.0024 43.9804 61.0103 43.4396 61.1873Z" fill="white"/>
</g>
<path opacity="0.5" d="M43.2234 64.4949L43.4047 64.5996L42.7814 64.9594L41.9378 64.4724L42.1455 64.3524L42.8078 64.7348L43.2234 64.4949ZM43.1804 63.9803C43.277 63.9245 43.3899 63.8952 43.5192 63.8923C43.6484 63.8894 43.7618 63.9161 43.8591 63.9723C43.9573 64.029 44.0039 64.0946 43.9989 64.1693C43.9939 64.2439 43.9431 64.3091 43.8465 64.3648C43.7483 64.4215 43.6342 64.4516 43.504 64.455C43.3748 64.4579 43.261 64.431 43.1628 64.3743C43.0654 64.3181 43.0193 64.2526 43.0243 64.178C43.0302 64.1029 43.0822 64.037 43.1804 63.9803ZM43.6766 64.2667C43.7177 64.2429 43.7382 64.2136 43.7382 64.1787C43.7374 64.1434 43.7131 64.1119 43.6652 64.0842C43.6174 64.0566 43.5628 64.043 43.5015 64.0435C43.4403 64.043 43.3895 64.0544 43.3492 64.0777C43.3072 64.1019 43.2862 64.132 43.2862 64.1678C43.2854 64.2032 43.3089 64.2347 43.3567 64.2623C43.4046 64.29 43.4591 64.304 43.5204 64.3045C43.5817 64.304 43.6337 64.2914 43.6766 64.2667ZM44.4252 63.8287C44.4957 63.788 44.5045 63.7402 44.4516 63.6855L44.677 63.6019C44.7349 63.6537 44.7567 63.7099 44.7425 63.7705C44.7282 63.8311 44.6812 63.8844 44.6014 63.9304C44.5049 63.9862 44.392 64.0155 44.2627 64.0184C44.1335 64.0203 44.0197 63.993 43.9215 63.9363C43.8241 63.88 43.7771 63.8146 43.7805 63.74C43.7847 63.6649 43.835 63.5994 43.9316 63.5437C44.0096 63.4986 44.1007 63.4717 44.2048 63.463C44.3089 63.4543 44.4063 63.4659 44.4969 63.4979L44.3534 63.6331C44.3081 63.6166 44.2644 63.6099 44.2224 63.6128C44.1796 63.6152 44.1414 63.6261 44.1079 63.6455C44.0625 63.6716 44.0411 63.7014 44.0436 63.7349C44.0453 63.7678 44.0692 63.7977 44.1154 63.8243C44.1624 63.8514 44.2145 63.8655 44.2715 63.8665C44.3286 63.8674 44.3798 63.8548 44.4252 63.8287ZM44.6345 63.1379C44.7243 63.086 44.8166 63.0579 44.9115 63.0535C45.0072 63.0487 45.0949 63.0693 45.1747 63.1153L45.5751 63.3465L45.3812 63.4585L45.3346 63.4316C45.327 63.4863 45.2859 63.5353 45.2112 63.5784C45.1407 63.6191 45.0647 63.6412 44.9833 63.6446C44.9027 63.6475 44.8313 63.631 44.7692 63.5951C44.7063 63.5588 44.6798 63.5169 44.6899 63.4694C44.6991 63.4214 44.7453 63.3734 44.8284 63.3254L44.9896 63.2324L44.977 63.2251C44.951 63.2101 44.9216 63.2028 44.8888 63.2033C44.8561 63.2028 44.8263 63.2103 44.7994 63.2258C44.7382 63.2612 44.7293 63.2968 44.773 63.3327L44.5438 63.4199C44.4968 63.3763 44.4813 63.3296 44.4972 63.2796C44.5132 63.2287 44.5589 63.1815 44.6345 63.1379ZM45.1167 63.4585C45.1528 63.4376 45.173 63.4134 45.1772 63.3858C45.1814 63.3581 45.1663 63.3344 45.1318 63.3145L45.118 63.3065L44.9795 63.3865C44.9543 63.401 44.9405 63.4163 44.9379 63.4323C44.9354 63.4473 44.9438 63.4604 44.9631 63.4716C44.9833 63.4832 45.0072 63.4878 45.0349 63.4854C45.0626 63.4829 45.0899 63.474 45.1167 63.4585ZM45.936 62.9229L46.1413 62.9876C46.1144 63.039 46.0724 63.0812 46.0153 63.1141C45.9356 63.1602 45.8521 63.1837 45.7648 63.1846C45.6783 63.1851 45.594 63.1616 45.5117 63.1141L45.2724 62.976L45.1579 63.0422L44.998 62.9498L45.1125 62.8837L44.901 62.7615L45.1025 62.6452L45.314 62.7674L45.5004 62.6598L45.6603 62.7521L45.4739 62.8597L45.693 62.9862C45.7543 63.0216 45.813 63.023 45.8693 62.9905C45.9012 62.9721 45.9234 62.9496 45.936 62.9229ZM45.374 62.4245C45.3731 62.3988 45.3895 62.3763 45.4231 62.3569C45.4566 62.3375 45.4957 62.3281 45.5402 62.3286C45.5855 62.3286 45.6237 62.3375 45.6547 62.3555C45.6866 62.3739 45.7022 62.3959 45.7013 62.4216C45.7005 62.4463 45.6833 62.4684 45.6497 62.4878C45.6161 62.5071 45.5779 62.5171 45.5351 62.5176C45.4915 62.5176 45.4537 62.5084 45.4218 62.4899C45.3899 62.4715 45.374 62.4497 45.374 62.4245ZM46.4568 62.8374L46.2554 62.9537L45.6233 62.5888L45.8247 62.4725L46.4568 62.8374ZM46.273 62.1948C46.3695 62.1391 46.4824 62.1097 46.6117 62.1068C46.741 62.1039 46.8543 62.1306 46.9517 62.1868C47.0499 62.2435 47.0965 62.3092 47.0914 62.3838C47.0864 62.4584 47.0356 62.5236 46.9391 62.5794C46.8409 62.6361 46.7267 62.6661 46.5966 62.6695C46.4673 62.6724 46.3536 62.6455 46.2553 62.5888C46.158 62.5326 46.1118 62.4672 46.1168 62.3925C46.1227 62.3174 46.1748 62.2515 46.273 62.1948ZM46.7691 62.4812C46.8102 62.4575 46.8308 62.4282 46.8308 62.3933C46.8299 62.3579 46.8056 62.3264 46.7577 62.2988C46.7099 62.2711 46.6553 62.2576 46.5941 62.258C46.5328 62.2576 46.482 62.2689 46.4417 62.2922C46.3997 62.3164 46.3787 62.3465 46.3787 62.3824C46.3779 62.4177 46.4014 62.4492 46.4493 62.4769C46.4971 62.5045 46.5517 62.5185 46.6129 62.519C46.6742 62.5185 46.7263 62.5059 46.7691 62.4812ZM47.116 61.7052C47.1899 61.6625 47.2734 61.6424 47.3666 61.6448C47.4598 61.6463 47.5458 61.6698 47.6247 61.7153L48.0125 61.9392L47.8123 62.0548L47.4673 61.8556C47.4304 61.8343 47.3905 61.8229 47.3477 61.8215C47.3041 61.8195 47.2663 61.8278 47.2344 61.8462C47.1933 61.8699 47.1756 61.8971 47.1815 61.9276C47.1874 61.9572 47.2201 61.9892 47.2797 62.0236L47.5731 62.193L47.3716 62.3093L46.7395 61.9443L46.941 61.828L47.0014 61.8629C46.9989 61.8033 47.0371 61.7507 47.116 61.7052Z" fill="white"/>
<g filter="url(#filter7_d)">
<path d="M104.468 40.3517C104.052 40.1119 104.052 39.723 104.468 39.4831L112.106 35.0732C112.522 34.8333 113.195 34.8333 113.611 35.0732L121.249 39.4831C121.664 39.723 121.664 40.1119 121.249 40.3517L113.611 44.7616C113.195 45.0015 112.522 45.0015 112.106 44.7616L104.468 40.3517Z" stroke="url(#paint1_linear)" stroke-width="0.133634"/>
</g>
<g opacity="0.4" clip-path="url(#clip6)">
<path d="M111.701 38.002L109.541 39.2492C109.392 39.3352 109.392 39.4751 109.541 39.5611L111.161 40.4965C111.31 40.5825 111.552 40.5825 111.701 40.4965L113.861 39.2492C114.01 39.1633 114.01 39.0234 113.861 38.9374L112.241 38.002C112.092 37.916 111.85 37.916 111.701 38.002ZM110.717 39.1935C110.873 39.1038 111.102 39.1038 111.258 39.1935C111.413 39.2832 111.413 39.4156 111.258 39.5053C111.102 39.595 110.873 39.595 110.717 39.5053C110.562 39.4156 110.562 39.2833 110.717 39.1935ZM112.299 39.5275L111.296 40.1067L111.233 40.0705C111.048 39.9635 111.084 39.7227 111.359 39.5638C111.634 39.4048 112.051 39.3843 112.236 39.4913L112.299 39.5275ZM113.051 38.9374L112.511 39.2492L112.241 39.0933L112.781 38.7815L113.051 38.9374ZM112.511 38.6256L111.836 39.0154L111.566 38.8595L112.241 38.4697L112.511 38.6256Z" fill="white"/>
</g>
<path opacity="0.4" d="M113.232 41.9638L114.162 42.501L113.973 42.61L112.964 42.5707L113.503 42.8818L113.273 43.0141L112.343 42.4769L112.533 42.3671L113.559 42.416L113.004 42.0953L113.232 41.9638ZM113.92 41.8116C114.019 41.7544 114.121 41.7234 114.226 41.7186C114.331 41.7132 114.428 41.7359 114.516 41.7867L114.958 42.0417L114.744 42.1652L114.692 42.1355C114.684 42.1959 114.639 42.2499 114.556 42.2975C114.479 42.3424 114.395 42.3667 114.305 42.3704C114.216 42.3736 114.137 42.3555 114.069 42.3159C113.999 42.2758 113.97 42.2296 113.981 42.1772C113.992 42.1243 114.043 42.0713 114.134 42.0184L114.312 41.9158L114.298 41.9078C114.269 41.8912 114.237 41.8832 114.201 41.8837C114.165 41.8832 114.132 41.8915 114.102 41.9086C114.035 41.9476 114.025 41.9869 114.073 42.0264L113.82 42.1227C113.768 42.0746 113.751 42.023 113.769 41.9679C113.787 41.9118 113.837 41.8597 113.92 41.8116ZM114.452 42.1652C114.492 42.1422 114.514 42.1154 114.519 42.085C114.524 42.0545 114.507 42.0283 114.469 42.0064L114.454 41.9976L114.301 42.0858C114.273 42.1018 114.258 42.1187 114.255 42.1363C114.252 42.1529 114.261 42.1673 114.283 42.1796C114.305 42.1924 114.331 42.1975 114.362 42.1948C114.392 42.1922 114.423 42.1823 114.452 42.1652ZM115.281 41.0261C115.357 40.9822 115.447 40.9609 115.55 40.9619C115.653 40.9625 115.746 40.9868 115.829 41.0349L116.265 41.2867L116.045 41.4141L115.656 41.1896C115.617 41.1672 115.575 41.1557 115.529 41.1552C115.483 41.1541 115.443 41.1632 115.41 41.1824C115.368 41.2065 115.35 41.2345 115.356 41.2666C115.361 41.2976 115.393 41.3297 115.45 41.3628L115.792 41.5601L115.57 41.6884L115.181 41.4639C115.142 41.4414 115.1 41.4299 115.054 41.4294C115.008 41.4283 114.968 41.4377 114.934 41.4574C114.892 41.4815 114.874 41.5093 114.881 41.5408C114.887 41.5713 114.919 41.6031 114.977 41.6362L115.318 41.8335L115.096 41.9618L114.399 41.5593L114.621 41.431L114.685 41.4679C114.68 41.4059 114.72 41.35 114.806 41.3003C114.909 41.241 115.024 41.2198 115.152 41.2369C115.133 41.1568 115.176 41.0865 115.281 41.0261ZM116.752 40.6034L116.809 40.6363L116.298 40.9313C116.349 40.95 116.399 40.9586 116.45 40.957C116.501 40.9554 116.545 40.9439 116.582 40.9225C116.652 40.8824 116.674 40.8383 116.65 40.7902L116.888 40.6996C116.93 40.7584 116.94 40.8159 116.917 40.872C116.894 40.927 116.842 40.9781 116.76 41.0251C116.657 41.0845 116.536 41.1149 116.396 41.1165C116.256 41.1176 116.131 41.0869 116.023 41.0243C115.915 40.9623 115.863 40.8907 115.864 40.8094C115.866 40.7282 115.919 40.6576 116.023 40.5978C116.124 40.5395 116.242 40.5101 116.378 40.5096C116.514 40.509 116.639 40.5403 116.752 40.6034ZM116.203 40.702C116.171 40.7207 116.15 40.7437 116.142 40.771C116.134 40.7982 116.142 40.8247 116.166 40.8503L116.453 40.6844C116.407 40.6694 116.362 40.6638 116.318 40.6675C116.275 40.6713 116.237 40.6828 116.203 40.702Z" fill="white"/>
<g filter="url(#filter8_d)">
<path d="M27.9124 45.9309C27.2732 45.5619 27.2732 44.9636 27.9124 44.5946L37.1708 39.2492C37.8099 38.8802 38.8462 38.8802 39.4854 39.2492L48.7438 44.5946C49.383 44.9636 49.383 45.5619 48.7438 45.9309L39.4854 51.2763C38.8462 51.6453 37.8099 51.6453 37.1708 51.2763L27.9124 45.9309Z" fill="#53D084"/>
<g clip-path="url(#clip7)">
<path d="M39.1838 43.1778C39.1473 43.1385 39.1096 43.0997 39.0674 43.0626C39.064 43.0599 39.0605 43.0575 39.0574 43.0546C39.039 43.0384 39.0172 43.0233 38.9976 43.0075C38.9663 42.9824 38.9366 42.9568 38.9027 42.933C38.8472 42.8937 38.7877 42.8554 38.724 42.8187C38.1993 42.5157 37.5064 42.3671 36.8108 42.3716C36.1151 42.3763 35.4162 42.534 34.8794 42.844L36.7798 43.9412L34.9611 44.9912L34.2775 44.8373L33.3883 45.3507L33.8634 45.625L34.4323 45.2965L35.89 45.6251C35.7058 45.8754 35.7847 46.173 36.1311 46.373C36.5895 46.6377 37.3441 46.6327 37.8131 46.3619C38.2406 46.1151 38.2808 45.7328 37.9387 45.4665L38.4495 45.1716C38.9108 45.3691 39.5729 45.3459 40.0004 45.0991C40.4695 44.8282 40.4781 44.3926 40.0196 44.1279C39.8699 44.0415 39.6875 43.987 39.4949 43.9577C39.4953 43.9462 39.4982 43.9347 39.4984 43.923C39.5002 43.823 39.4853 43.7224 39.4546 43.6235C39.4225 43.5241 39.3744 43.4268 39.3107 43.3339C39.3058 43.3266 39.2989 43.3198 39.2938 43.3126L39.294 43.3125C39.2922 43.3097 39.2896 43.3074 39.2877 43.3046C39.2568 43.2621 39.2238 43.2206 39.1861 43.18C39.1854 43.1793 39.1847 43.1786 39.1838 43.1778ZM37.338 46.0876C37.137 46.2036 36.8136 46.2058 36.6171 46.0923C36.4207 45.9789 36.4244 45.7922 36.6254 45.6761C36.8263 45.5601 37.1498 45.558 37.3462 45.6714C37.5427 45.7848 37.539 45.9716 37.338 46.0876ZM39.5253 44.8248C39.3243 44.9408 39.0009 44.9429 38.8044 44.8295C38.608 44.7161 38.6117 44.5293 38.8127 44.4133C39.0136 44.2973 39.3371 44.2951 39.5335 44.4086C39.73 44.522 39.7263 44.7087 39.5253 44.8248Z" fill="white"/>
</g>
<path d="M41.214 47.2002L40.9186 47.3707L40.635 47.298L40.1618 47.5712L40.2877 47.735L39.9906 47.9065L39.3362 46.9861L39.6198 46.8223L41.214 47.2002ZM40.3044 47.2137L39.7909 47.0839L40.0175 47.3794L40.3044 47.2137ZM41.3377 46.156L42.1969 46.652C42.3222 46.7244 42.3737 46.8084 42.3513 46.9039C42.3289 46.9995 42.2467 47.0884 42.1046 47.1704C41.9055 47.2854 41.6974 47.3273 41.4804 47.2963L41.5659 47.088C41.6353 47.0919 41.6924 47.09 41.7371 47.0822C41.7819 47.0745 41.8255 47.0583 41.868 47.0338C41.9329 46.9963 41.9698 46.9556 41.9788 46.9117C41.9899 46.8678 41.9642 46.8277 41.9016 46.7916L41.8395 46.7557C41.8372 46.8319 41.7824 46.901 41.675 46.963C41.5609 47.0289 41.4222 47.0612 41.2589 47.0599C41.0955 47.0573 40.9484 47.0183 40.8175 46.9427C40.6877 46.8678 40.6206 46.7832 40.6161 46.6889C40.6128 46.5939 40.6682 46.5135 40.7823 46.4476C40.8897 46.3856 41.0094 46.354 41.1414 46.3527L41.0692 46.311L41.3377 46.156ZM41.5022 46.7993C41.5581 46.767 41.5861 46.7276 41.5861 46.6811C41.5861 46.6333 41.5542 46.591 41.4904 46.5542C41.4278 46.518 41.3551 46.4999 41.2723 46.4999C41.1906 46.4993 41.1218 46.5151 41.0659 46.5474C41.0066 46.5816 40.9786 46.6217 40.982 46.6676C40.9842 46.7128 41.0172 46.7538 41.081 46.7906C41.1459 46.8281 41.2175 46.8474 41.2958 46.8487C41.3741 46.85 41.4429 46.8335 41.5022 46.7993ZM42.7785 45.8106L42.8473 45.8503L42.2297 46.2068C42.2912 46.2294 42.3528 46.2398 42.4143 46.2378C42.4758 46.2359 42.529 46.222 42.5737 46.1962C42.6576 46.1477 42.685 46.0944 42.656 46.0363L42.9429 45.9268C42.9944 45.9979 43.0061 46.0673 42.9781 46.1351C42.9502 46.2016 42.887 46.2633 42.7885 46.3202C42.6643 46.3919 42.5178 46.4287 42.3489 46.4306C42.1788 46.4319 42.0283 46.3948 41.8975 46.3192C41.7677 46.2443 41.7039 46.1577 41.7062 46.0595C41.7084 45.9614 41.7722 45.8761 41.8975 45.8038C42.0194 45.7334 42.1626 45.6978 42.327 45.6972C42.4915 45.6966 42.642 45.7343 42.7785 45.8106ZM42.1156 45.9297C42.0765 45.9523 42.0518 45.9801 42.0418 46.013C42.0317 46.046 42.0412 46.078 42.0703 46.109L42.4177 45.9084C42.3617 45.8903 42.3075 45.8835 42.2549 45.8881C42.2023 45.8926 42.1559 45.9065 42.1156 45.9297Z" fill="white"/>
</g>
<defs>
<filter id="filter0_d" x="29.9435" y="18.1804" width="86.4386" height="50.6901" filterUnits="userSpaceOnUse" color-interpolation-filters="sRGB">
<feFlood flood-opacity="0" result="BackgroundImageFix"/>
<feColorMatrix in="SourceAlpha" type="matrix" values="0 0 0 0 0 0 0 0 0 0 0 0 0 0 0 0 0 0 127 0"/>
<feOffset/>
<feGaussianBlur stdDeviation="0.46421"/>
<feColorMatrix type="matrix" values="0 0 0 0 0.188235 0 0 0 0 0.368627 0 0 0 0 0.929412 0 0 0 1 0"/>
<feBlend mode="normal" in2="BackgroundImageFix" result="effect1_dropShadow"/>
<feBlend mode="normal" in="SourceGraphic" in2="effect1_dropShadow" result="shape"/>
</filter>
<filter id="filter1_d" x="47.9115" y="12.6142" width="57.2151" height="46.5884" filterUnits="userSpaceOnUse" color-interpolation-filters="sRGB">
<feFlood flood-opacity="0" result="BackgroundImageFix"/>
<feColorMatrix in="SourceAlpha" type="matrix" values="0 0 0 0 0 0 0 0 0 0 0 0 0 0 0 0 0 0 127 0"/>
<feOffset dy="0.534535"/>
<feGaussianBlur stdDeviation="8.01803"/>
<feColorMatrix type="matrix" values="0 0 0 0 0.188235 0 0 0 0 0.368627 0 0 0 0 0.929412 0 0 0 0.52 0"/>
<feBlend mode="normal" in2="BackgroundImageFix" result="effect1_dropShadow"/>
<feBlend mode="normal" in="SourceGraphic" in2="effect1_dropShadow" result="shape"/>
</filter>
<filter id="filter2_d" x="48.8538" y="53.5824" width="42.1372" height="37.8832" filterUnits="userSpaceOnUse" color-interpolation-filters="sRGB">
<feFlood flood-opacity="0" result="BackgroundImageFix"/>
<feColorMatrix in="SourceAlpha" type="matrix" values="0 0 0 0 0 0 0 0 0 0 0 0 0 0 0 0 0 0 127 0"/>
<feOffset dy="0.534535"/>
<feGaussianBlur stdDeviation="8.01803"/>
<feColorMatrix type="matrix" values="0 0 0 0 0.32549 0 0 0 0 0.815686 0 0 0 0 0.517647 0 0 0 1 0"/>
<feBlend mode="normal" in2="BackgroundImageFix" result="effect1_dropShadow"/>
<feBlend mode="normal" in="SourceGraphic" in2="effect1_dropShadow" result="shape"/>
</filter>
<filter id="filter3_d" x="80.2703" y="39.0264" width="51.057" height="45.9798" filterUnits="userSpaceOnUse" color-interpolation-filters="sRGB">
<feFlood flood-opacity="0" result="BackgroundImageFix"/>
<feColorMatrix in="SourceAlpha" type="matrix" values="0 0 0 0 0 0 0 0 0 0 0 0 0 0 0 0 0 0 127 0"/>
<feOffset dy="0.650738"/>
<feGaussianBlur stdDeviation="9.76108"/>
<feColorMatrix type="matrix" values="0 0 0 0 0 0 0 0 0 0 0 0 0 0 0 0 0 0 1 0"/>
<feBlend mode="normal" in2="BackgroundImageFix" result="effect1_dropShadow"/>
<feBlend mode="normal" in="SourceGraphic" in2="effect1_dropShadow" result="shape"/>
</filter>
<filter id="filter4_d" x="49.0858" y="0.663152" width="45.8406" height="40.0214" filterUnits="userSpaceOnUse" color-interpolation-filters="sRGB">
<feFlood flood-opacity="0" result="BackgroundImageFix"/>
<feColorMatrix in="SourceAlpha" type="matrix" values="0 0 0 0 0 0 0 0 0 0 0 0 0 0 0 0 0 0 127 0"/>
<feOffset dy="0.534535"/>
<feGaussianBlur stdDeviation="8.01803"/>
<feColorMatrix type="matrix" values="0 0 0 0 0.32549 0 0 0 0 0.815686 0 0 0 0 0.517647 0 0 0 1 0"/>
<feBlend mode="normal" in2="BackgroundImageFix" result="effect1_dropShadow"/>
<feBlend mode="normal" in="SourceGraphic" in2="effect1_dropShadow" result="shape"/>
</filter>
<filter id="filter5_d" x="49.0858" y="0.663152" width="45.8406" height="40.0214" filterUnits="userSpaceOnUse" color-interpolation-filters="sRGB">
<feFlood flood-opacity="0" result="BackgroundImageFix"/>
<feColorMatrix in="SourceAlpha" type="matrix" values="0 0 0 0 0 0 0 0 0 0 0 0 0 0 0 0 0 0 127 0"/>
<feOffset dy="0.534535"/>
<feGaussianBlur stdDeviation="8.01803"/>
<feColorMatrix type="matrix" values="0 0 0 0 0.32549 0 0 0 0 0.815686 0 0 0 0 0.517647 0 0 0 1 0"/>
<feBlend mode="normal" in2="BackgroundImageFix" result="effect1_dropShadow"/>
<feBlend mode="normal" in="SourceGraphic" in2="effect1_dropShadow" result="shape"/>
</filter>
<filter id="filter6_d" x="20.404" y="42.235" width="47.4211" height="40.9339" filterUnits="userSpaceOnUse" color-interpolation-filters="sRGB">
<feFlood flood-opacity="0" result="BackgroundImageFix"/>
<feColorMatrix in="SourceAlpha" type="matrix" values="0 0 0 0 0 0 0 0 0 0 0 0 0 0 0 0 0 0 127 0"/>
<feOffset dy="0.534535"/>
<feGaussianBlur stdDeviation="8.01803"/>
<feColorMatrix type="matrix" values="0 0 0 0 0.188235 0 0 0 0 0.368627 0 0 0 0 0.929412 0 0 0 0.8 0"/>
<feBlend mode="normal" in2="BackgroundImageFix" result="effect1_dropShadow"/>
<feBlend mode="normal" in="SourceGraphic" in2="effect1_dropShadow" result="shape"/>
</filter>
<filter id="filter7_d" x="88.0384" y="19.3445" width="49.6398" height="42.2148" filterUnits="userSpaceOnUse" color-interpolation-filters="sRGB">
<feFlood flood-opacity="0" result="BackgroundImageFix"/>
<feColorMatrix in="SourceAlpha" type="matrix" values="0 0 0 0 0 0 0 0 0 0 0 0 0 0 0 0 0 0 127 0"/>
<feOffset dy="0.534535"/>
<feGaussianBlur stdDeviation="8.01803"/>
<feColorMatrix type="matrix" values="0 0 0 0 0.188235 0 0 0 0 0.368627 0 0 0 0 0.929412 0 0 0 0.8 0"/>
<feBlend mode="normal" in2="BackgroundImageFix" result="effect1_dropShadow"/>
<feBlend mode="normal" in="SourceGraphic" in2="effect1_dropShadow" result="shape"/>
</filter>
<filter id="filter8_d" x="11.3969" y="23.471" width="53.8623" height="44.6527" filterUnits="userSpaceOnUse" color-interpolation-filters="sRGB">
<feFlood flood-opacity="0" result="BackgroundImageFix"/>
<feColorMatrix in="SourceAlpha" type="matrix" values="0 0 0 0 0 0 0 0 0 0 0 0 0 0 0 0 0 0 127 0"/>
<feOffset dy="0.534535"/>
<feGaussianBlur stdDeviation="8.01803"/>
<feColorMatrix type="matrix" values="0 0 0 0 0.32549 0 0 0 0 0.815686 0 0 0 0 0.517647 0 0 0 1 0"/>
<feBlend mode="normal" in2="BackgroundImageFix" result="effect1_dropShadow"/>
<feBlend mode="normal" in="SourceGraphic" in2="effect1_dropShadow" result="shape"/>
</filter>
<linearGradient id="paint0_linear" x1="40.0062" y1="59.7954" x2="44.1146" y2="66.9114" gradientUnits="userSpaceOnUse">
<stop stop-color="white" stop-opacity="0.11"/>
<stop offset="1" stop-color="white" stop-opacity="0.19"/>
</linearGradient>
<linearGradient id="paint1_linear" x1="108.229" y1="37.2447" x2="112.858" y2="45.2628" gradientUnits="userSpaceOnUse">
<stop stop-color="white" stop-opacity="0.11"/>
<stop offset="1" stop-color="white" stop-opacity="0.19"/>
</linearGradient>
<clipPath id="clip0">
<rect width="5.51908" height="5.51908" transform="matrix(0.866025 -0.5 0.866025 0.5 69.8617 34.2897)" fill="white"/>
</clipPath>
<clipPath id="clip1">
<rect width="3.53461" height="3.53461" fill="white" transform="matrix(0.866025 -0.5 0.866025 0.5 66.7978 71.9895)"/>
</clipPath>
<clipPath id="clip2">
<rect width="4.30301" height="4.30301" fill="white" transform="matrix(0.866025 -0.5 0.866025 0.5 73.4117 53.9055)"/>
</clipPath>
<clipPath id="clip3">
<rect width="3.95556" height="3.95556" fill="white" transform="matrix(0.866025 -0.5 0.866025 0.5 102.327 61.3656)"/>
</clipPath>
<clipPath id="clip4">
<rect width="2.94662" height="2.94662" fill="white" transform="matrix(0.866025 -0.5 0.866025 0.5 68.567 19.6276)"/>
</clipPath>
<clipPath id="clip5">
<rect width="3.3208" height="3.3208" fill="white" transform="matrix(0.866025 -0.5 0.866025 0.5 40.2246 61.5819)"/>
</clipPath>
<clipPath id="clip6">
<rect width="3.74175" height="3.74175" fill="white" transform="matrix(0.866025 -0.5 0.866025 0.5 108.461 39.2493)"/>
</clipPath>
<clipPath id="clip7">
<rect width="8.01803" height="8.01803" fill="white" transform="matrix(0.866025 -0.5 0.866025 0.5 29.8798 44.5278)"/>
</clipPath>
</defs>
</svg>
