<svg viewBox="0 0 160 200" fill="none" xmlns="http://www.w3.org/2000/svg">
<g transform="matrix(1,0,0,1,-5,-40)">
<path d="M6 43.9316C6 41.7602 7.76023 40 9.93157 40H156.562C158.734 40 160.494 41.7602 160.494 43.9316V229.447C160.494 231.618 158.734 233.379 156.562 233.379H9.93158C7.76023 233.379 6 231.618 6 229.447V43.9316Z" fill="#184285"/>
<path d="M6.24572 43.9316C6.24572 41.8959 7.89594 40.2457 9.93157 40.2457H156.562C158.598 40.2457 160.248 41.8959 160.248 43.9316V229.447C160.248 231.483 158.598 233.133 156.562 233.133H9.93158C7.89594 233.133 6.24572 231.483 6.24572 229.447V43.9316Z" stroke="#254BC1" stroke-opacity="0.5" stroke-width="0.491447"/>
<path d="M67.6124 82.8679V92.0831H64.9579V88.5758H61.5882V92.0831H58.9474V82.8679H61.5882V86.3064H64.9579V82.8679H67.6124ZM78.8585 92.0831H76.0114L75.5025 90.6802H71.8715L71.3488 92.0831H68.5155L72.2291 82.8679H75.1449L78.8585 92.0831ZM74.7048 88.4658L73.7007 85.7012L72.6829 88.4658H74.7048ZM79.7794 82.8679H84.552C85.5698 82.8679 86.3859 83.1659 87.0002 83.7619C87.6146 84.3579 87.9217 85.1419 87.9217 86.1139C87.9217 87.1225 87.5962 87.934 86.9452 88.5483C86.3034 89.1535 85.4414 89.4561 84.3595 89.4561H82.4201V92.0831H79.7794V82.8679ZM82.4201 87.3655H84.0431C84.4099 87.3655 84.7125 87.2554 84.9509 87.0354C85.1984 86.8153 85.3222 86.5311 85.3222 86.1826C85.3222 85.8525 85.1984 85.582 84.9509 85.3711C84.7125 85.1602 84.4099 85.0548 84.0431 85.0548H82.4201V87.3655ZM89.188 82.8679H93.9606C94.9784 82.8679 95.7945 83.1659 96.4088 83.7619C97.0232 84.3579 97.3303 85.1419 97.3303 86.1139C97.3303 87.1225 97.0048 87.934 96.3538 88.5483C95.712 89.1535 94.85 89.4561 93.7681 89.4561H91.8287V92.0831H89.188V82.8679ZM91.8287 87.3655H93.4517C93.8185 87.3655 94.1211 87.2554 94.3595 87.0354C94.607 86.8153 94.7308 86.5311 94.7308 86.1826C94.7308 85.8525 94.607 85.582 94.3595 85.3711C94.1211 85.1602 93.8185 85.0548 93.4517 85.0548H91.8287V87.3655ZM107.826 82.8679L104.222 89.2635V92.0831H101.471V89.2635L97.9914 82.8679H100.893L102.902 86.609L104.896 82.8679H107.826ZM51.0638 104.324V104.379C51.6048 104.398 52.0633 104.581 52.4392 104.929C52.8243 105.269 53.0169 105.787 53.0169 106.484C53.0169 107.272 52.7372 107.905 52.1779 108.382C51.6185 108.849 50.8575 109.083 49.8947 109.083H44.8883V99.8679H49.8947C50.7566 99.8679 51.4443 100.093 51.9578 100.542C52.4805 100.991 52.7418 101.587 52.7418 102.33C52.7418 102.953 52.563 103.439 52.2054 103.788C51.8569 104.127 51.4764 104.306 51.0638 104.324ZM47.529 101.917V103.623H49.1657C49.4592 103.623 49.6976 103.545 49.881 103.389C50.0643 103.224 50.156 103.013 50.156 102.756C50.156 102.509 50.0643 102.307 49.881 102.151C49.7067 101.995 49.4821 101.917 49.207 101.917H47.529ZM47.529 107.034H49.3033C49.615 107.034 49.858 106.951 50.0323 106.786C50.2156 106.612 50.3073 106.387 50.3073 106.112C50.3073 105.855 50.2156 105.649 50.0323 105.493C49.858 105.337 49.6242 105.259 49.3308 105.259H47.529V107.034ZM58.1477 102.137V106.814H59.7019V109.083H53.9389V106.814H55.4931V102.137H53.9389V99.8679H59.7019V102.137H58.1477ZM69.6045 109.083H66.4273L63.8966 106.14H63.539V109.083H60.8982V99.8679H65.8084C66.7987 99.8679 67.5964 100.152 68.2016 100.721C68.816 101.289 69.1231 102.036 69.1231 102.963C69.1231 103.696 68.926 104.329 68.5317 104.861C68.1374 105.383 67.5964 105.75 66.9087 105.961L69.6045 109.083ZM63.539 104.049H65.3133C65.68 104.049 65.9735 103.957 66.1935 103.774C66.4136 103.581 66.5236 103.334 66.5236 103.031C66.5236 102.738 66.4136 102.504 66.1935 102.33C65.9735 102.146 65.68 102.055 65.3133 102.055H63.539V104.049ZM78.2995 102.137H75.4112V109.083H72.7567V102.137H69.8683V99.8679H78.2995V102.137ZM88.1656 99.8679V109.083H85.511V105.576H82.1413V109.083H79.5005V99.8679H82.1413V103.306H85.511V99.8679H88.1656ZM89.715 99.8679H93.6074C95.1112 99.8679 96.3215 100.294 97.2385 101.147C98.1646 101.991 98.6276 103.1 98.6276 104.476C98.6276 105.851 98.1646 106.965 97.2385 107.818C96.3215 108.661 95.1112 109.083 93.6074 109.083H89.715V99.8679ZM92.3558 106.855H93.4149C94.1759 106.855 94.7903 106.635 95.2579 106.195C95.7255 105.755 95.9593 105.182 95.9593 104.476C95.9593 103.769 95.7255 103.196 95.2579 102.756C94.7903 102.316 94.1759 102.096 93.4149 102.096H92.3558V106.855ZM109.183 109.083H106.336L105.827 107.68H102.196L101.673 109.083H98.8398L102.553 99.8679H105.469L109.183 109.083ZM105.029 105.466L104.025 102.701L103.007 105.466H105.029ZM117.681 99.8679L114.077 106.264V109.083H111.326V106.264L107.846 99.8679H110.749L112.757 103.609L114.751 99.8679H117.681ZM121.555 99.8679V100.294L121.349 105.796H118.846L118.639 100.294V99.8679H121.555ZM120.152 106.401C120.565 106.401 120.909 106.539 121.184 106.814C121.459 107.089 121.596 107.414 121.596 107.79C121.596 108.175 121.459 108.501 121.184 108.767C120.909 109.023 120.565 109.152 120.152 109.152C119.74 109.152 119.4 109.023 119.134 108.767C118.869 108.501 118.736 108.175 118.736 107.79C118.736 107.414 118.869 107.089 119.134 106.814C119.409 106.539 119.749 106.401 120.152 106.401Z" fill="white"/>
<rect width="37.4678" height="7.94454" rx="0.785943" transform="matrix(1 0 0 -1 64.553 55.7189)" fill="#1F3169"/>
<rect width="85.9795" height="5.29636" rx="0.785943" transform="matrix(1 0 0 -1 40.189 123.531)" fill="#1F3169"/>
<rect width="77.4815" height="5.29637" rx="0.785943" transform="matrix(1 0 0 -1 44.5037 131.476)" fill="#1F3169"/>
<rect width="53.8205" height="5.29635" rx="0.785943" transform="matrix(1 0 0 -1 56.3718 139.42)" fill="#1F3169"/>
<rect width="36.9032" height="39.193" rx="0.785943" transform="matrix(1 0 0 -1 20.5396 211.727)" fill="#1F3169"/>
<rect width="36.9032" height="39.193" rx="0.785943" transform="matrix(1 0 0 -1 64.9453 211.727)" fill="#1F3169"/>
<rect width="36.9032" height="39.193" rx="0.785943" transform="matrix(1 0 0 -1 108.958 211.727)" fill="#1F3169"/>
</g>
<defs>
<filter id="filter0_d" x="-55.407" y="0.922829" width="254.978" height="293.863" filterUnits="userSpaceOnUse" color-interpolation-filters="sRGB">
<feFlood flood-opacity="0" result="BackgroundImageFix"/>
<feColorMatrix in="SourceAlpha" type="matrix" values="0 0 0 0 0 0 0 0 0 0 0 0 0 0 0 0 0 0 127 0"/>
<feOffset dx="-11.1649" dy="11.1649"/>
<feGaussianBlur stdDeviation="25.121"/>
<feColorMatrix type="matrix" values="0 0 0 0 0 0 0 0 0 0 0 0 0 0 0 0 0 0 0.25 0"/>
<feBlend mode="normal" in2="BackgroundImageFix" result="effect1_dropShadow"/>
<feBlend mode="normal" in="SourceGraphic" in2="effect1_dropShadow" result="shape"/>
</filter>

</defs>
</svg>
