<svg viewBox="0 0 247 310" fill="none" xmlns="http://www.w3.org/2000/svg">
<path d="M0 8.85263C0 4.01496 3.9217 0.0932617 8.75936 0.0932617H238.097C242.935 0.0932617 246.857 4.01496 246.857 8.85263V300.322C246.857 305.159 242.935 309.081 238.097 309.081H8.75937C3.92171 309.081 0 305.159 0 300.322V8.85263Z" fill="#F8FAFD"/>
<path d="M62.6617 68.4153H70.2876C71.9139 68.4153 73.2178 68.8915 74.1994 69.8438C75.1811 70.7961 75.6719 72.0488 75.6719 73.6018C75.6719 75.2134 75.1518 76.5101 74.1115 77.4917C73.0859 78.4587 71.7087 78.9422 69.9799 78.9422H66.8812V83.1397H62.6617V68.4153ZM66.8812 75.6017H69.4744C70.0605 75.6017 70.544 75.4259 70.9249 75.0743C71.3205 74.7226 71.5183 74.2684 71.5183 73.7117C71.5183 73.1843 71.3205 72.7521 70.9249 72.4151C70.544 72.0781 70.0605 71.9096 69.4744 71.9096H66.8812V75.6017ZM89.4087 79.5795V83.1397H77.6951V68.4153H89.3208V71.9755H81.9146V74.1512H88.7274V77.3818H81.9146V79.5795H89.4087ZM105.61 83.1397H100.533L96.4893 78.4367H95.9179V83.1397H91.6984V68.4153H99.5441C101.126 68.4153 102.401 68.8695 103.368 69.7779C104.35 70.6862 104.84 71.8803 104.84 73.3601C104.84 74.5322 104.525 75.5431 103.895 76.3929C103.265 77.228 102.401 77.814 101.302 78.151L105.61 83.1397ZM95.9179 75.0962H98.7529C99.3389 75.0962 99.8078 74.9497 100.159 74.6567C100.511 74.349 100.687 73.9535 100.687 73.47C100.687 73.0011 100.511 72.6275 100.159 72.3492C99.8078 72.0561 99.3389 71.9096 98.7529 71.9096H95.9179V75.0962ZM113.014 68.0857C114.757 68.0857 116.186 68.4593 117.299 69.2065C118.412 69.9537 119.101 71.0086 119.365 72.3711L115.233 73.2062C115.101 72.5616 114.823 72.0928 114.398 71.7997C113.973 71.5067 113.512 71.3602 113.014 71.3602C112.545 71.3602 112.164 71.4701 111.871 71.6899C111.592 71.895 111.453 72.1807 111.453 72.5469C111.453 73.0451 111.739 73.3601 112.31 73.4919L115.299 74.1952C118.097 74.8984 119.497 76.3562 119.497 78.5686C119.497 79.6674 119.174 80.5977 118.53 81.3596C117.9 82.1215 117.131 82.6635 116.222 82.9859C115.314 83.3082 114.317 83.4694 113.233 83.4694C111.417 83.4694 109.893 83.0591 108.662 82.2387C107.431 81.4182 106.714 80.312 106.508 78.9202L110.816 78.107C111.153 79.411 111.988 80.063 113.321 80.063C113.834 80.063 114.252 79.9604 114.574 79.7553C114.896 79.5502 115.057 79.2572 115.057 78.8762C115.057 78.3781 114.72 78.0484 114.046 77.8873L110.992 77.162C108.296 76.532 106.948 75.1109 106.948 72.8986C106.948 71.3895 107.512 70.2101 108.64 69.3603C109.768 68.5106 111.226 68.0857 113.014 68.0857ZM123.355 70.3273C124.894 68.8329 126.776 68.0857 129.003 68.0857C131.23 68.0857 133.106 68.8329 134.629 70.3273C136.168 71.8071 136.937 73.6238 136.937 75.7775C136.937 77.9312 136.168 79.7553 134.629 81.2497C133.106 82.7295 131.23 83.4694 129.003 83.4694C126.776 83.4694 124.894 82.7295 123.355 81.2497C121.832 79.7553 121.07 77.9312 121.07 75.7775C121.07 73.6238 121.832 71.8071 123.355 70.3273ZM126.366 78.5686C127.069 79.3011 127.948 79.6674 129.003 79.6674C130.058 79.6674 130.93 79.3011 131.619 78.5686C132.322 77.8213 132.673 76.891 132.673 75.7775C132.673 74.6787 132.322 73.7557 131.619 73.0085C130.93 72.2612 130.058 71.8876 129.003 71.8876C127.948 71.8876 127.069 72.2612 126.366 73.0085C125.677 73.7557 125.333 74.6787 125.333 75.7775C125.333 76.891 125.677 77.8213 126.366 78.5686ZM153.556 68.4153V83.1397H150.062L143.293 75.5577V83.1397H139.074V68.4153H142.546L149.315 76.261V68.4153H153.556ZM171.489 83.1397H166.94L166.127 80.8981H160.325L159.49 83.1397H154.963L160.896 68.4153H165.556L171.489 83.1397ZM164.852 77.3598L163.248 72.9425L161.622 77.3598H164.852ZM184.125 79.5136V83.1397H172.961V68.4153H177.18V79.5136H184.125ZM70.0226 94.4153H76.242C78.6448 94.4153 80.5787 95.0966 82.0438 96.4592C83.5236 97.8071 84.2635 99.5798 84.2635 101.778C84.2635 103.975 83.5236 105.755 82.0438 107.118C80.5787 108.466 78.6448 109.14 76.242 109.14H70.0226V94.4153ZM74.2421 105.579H75.9343C77.1503 105.579 78.132 105.228 78.8792 104.525C79.6264 103.821 80 102.906 80 101.778C80 100.649 79.6264 99.7337 78.8792 99.0304C78.132 98.3272 77.1503 97.9755 75.9343 97.9755H74.2421V105.579ZM92.3035 98.0415V105.514H94.7869V109.14H85.5786V105.514H88.062V98.0415H85.5786V94.4153H94.7869V98.0415H92.3035ZM102.83 94.0857C104.573 94.0857 106.002 94.4593 107.115 95.2065C108.229 95.9537 108.918 97.0086 109.181 98.3711L105.05 99.2062C104.918 98.5616 104.639 98.0928 104.215 97.7997C103.79 97.5067 103.328 97.3602 102.83 97.3602C102.361 97.3602 101.98 97.4701 101.687 97.6899C101.409 97.895 101.27 98.1807 101.27 98.5469C101.27 99.0451 101.555 99.3601 102.127 99.4919L105.116 100.195C107.914 100.898 109.313 102.356 109.313 104.569C109.313 105.667 108.991 106.598 108.346 107.36C107.716 108.121 106.947 108.664 106.039 108.986C105.13 109.308 104.134 109.469 103.05 109.469C101.233 109.469 99.7093 109.059 98.4786 108.239C97.2479 107.418 96.53 106.312 96.3249 104.92L100.632 104.107C100.969 105.411 101.804 106.063 103.138 106.063C103.65 106.063 104.068 105.96 104.39 105.755C104.713 105.55 104.874 105.257 104.874 104.876C104.874 104.378 104.537 104.048 103.863 103.887L100.808 103.162C98.1123 102.532 96.7644 101.111 96.7644 98.8986C96.7644 97.3895 97.3285 96.2101 98.4566 95.3603C99.5848 94.5106 101.043 94.0857 102.83 94.0857ZM118.82 105.667C119.684 105.667 120.402 105.418 120.973 104.92C121.56 104.422 121.955 103.689 122.16 102.723L126.38 103.689C126.057 105.477 125.215 106.891 123.852 107.931C122.505 108.957 120.827 109.469 118.82 109.469C116.593 109.469 114.71 108.729 113.172 107.25C111.648 105.755 110.886 103.931 110.886 101.778C110.886 99.6238 111.648 97.8071 113.172 96.3273C114.71 94.8329 116.593 94.0857 118.82 94.0857C120.695 94.0857 122.336 94.5985 123.743 95.624C125.164 96.6496 126.043 98.0122 126.38 99.7117L122.16 100.723C121.955 99.7996 121.56 99.0964 120.973 98.6129C120.402 98.1294 119.684 97.8876 118.82 97.8876C117.78 97.8876 116.908 98.2612 116.205 99.0085C115.501 99.7557 115.15 100.679 115.15 101.778C115.15 102.876 115.501 103.799 116.205 104.547C116.908 105.294 117.78 105.667 118.82 105.667ZM130.416 96.3273C131.954 94.8329 133.837 94.0857 136.064 94.0857C138.291 94.0857 140.166 94.8329 141.69 96.3273C143.228 97.8071 143.997 99.6238 143.997 101.778C143.997 103.931 143.228 105.755 141.69 107.25C140.166 108.729 138.291 109.469 136.064 109.469C133.837 109.469 131.954 108.729 130.416 107.25C128.892 105.755 128.13 103.931 128.13 101.778C128.13 99.6238 128.892 97.8071 130.416 96.3273ZM133.427 104.569C134.13 105.301 135.009 105.667 136.064 105.667C137.119 105.667 137.99 105.301 138.679 104.569C139.382 103.821 139.734 102.891 139.734 101.778C139.734 100.679 139.382 99.7557 138.679 99.0085C137.99 98.2612 137.119 97.8876 136.064 97.8876C135.009 97.8876 134.13 98.2612 133.427 99.0085C132.738 99.7557 132.394 100.679 132.394 101.778C132.394 102.891 132.738 103.821 133.427 104.569ZM159.76 94.4153V102.481C159.76 104.605 159.144 106.305 157.914 107.579C156.698 108.839 155.079 109.469 153.057 109.469C150.976 109.469 149.306 108.839 148.046 107.579C146.786 106.319 146.156 104.62 146.156 102.481V94.4153H150.398V102.481C150.398 103.477 150.639 104.254 151.123 104.81C151.606 105.367 152.251 105.645 153.057 105.645C153.804 105.645 154.397 105.367 154.837 104.81C155.291 104.239 155.518 103.462 155.518 102.481V94.4153H159.76ZM176.766 94.4153V109.14H173.272L166.503 101.558V109.14H162.283V94.4153H165.756L172.525 102.261V94.4153H176.766Z" fill="#305EED"/>
<rect width="59.8676" height="12.6941" rx="1.25581" transform="matrix(1 0 0 -1 93.5559 25.2095)" fill="#C7E1FF"/>
<rect width="137.381" height="8.46274" rx="1.25581" transform="matrix(1 0 0 -1 54.6282 133.563)" fill="#C7E1FF"/>
<rect width="123.803" height="8.46275" rx="1.25581" transform="matrix(1 0 0 -1 61.5229 146.257)" fill="#C7E1FF"/>
<rect width="85.9965" height="8.46272" rx="1.25581" transform="matrix(1 0 0 -1 80.4863 158.951)" fill="#C7E1FF"/>
<rect width="58.9654" height="62.6242" rx="1.25581" transform="matrix(1 0 0 -1 23.2327 274.485)" fill="#C7E1FF"/>
<rect width="58.9654" height="62.6242" rx="1.25581" transform="matrix(1 0 0 -1 94.1863 274.485)" fill="#C7E1FF"/>
<rect width="58.9654" height="62.6242" rx="1.25581" transform="matrix(1 0 0 -1 164.51 274.485)" fill="#C7E1FF"/>
</svg>
