<svg viewBox="0 0 230 290" fill="none" xmlns="http://www.w3.org/2000/svg">
<g transform="matrix(1,0,0,1, -83,-52)">
<path d="M84 58.7258C84 55.5636 86.5635 53 89.7258 53H303.274C306.436 53 309 55.5635 309 58.7258V328.904C309 332.067 306.436 334.63 303.274 334.63H89.7258C86.5635 334.63 84 332.067 84 328.904V58.7258Z" fill="#53D084"/>
<path d="M84.3579 58.7258C84.3579 55.7612 86.7612 53.3579 89.7258 53.3579H303.274C306.239 53.3579 308.642 55.7612 308.642 58.7258V328.904C308.642 331.869 306.239 334.272 303.274 334.272H89.7258C86.7612 334.272 84.3579 331.869 84.3579 328.904V58.7258Z" stroke="#329B5B" stroke-width="0.715727"/>
<path d="M120.866 114.955L115.618 124.269V128.376H111.612V124.269L106.544 114.955H110.77L113.695 120.403L116.599 114.955H120.866ZM122.812 116.698C124.214 115.336 125.93 114.655 127.96 114.655C129.989 114.655 131.699 115.336 133.088 116.698C134.49 118.046 135.191 119.702 135.191 121.665C135.191 123.628 134.49 125.291 133.088 126.653C131.699 128.002 129.989 128.676 127.96 128.676C125.93 128.676 124.214 128.002 122.812 126.653C121.423 125.291 120.729 123.628 120.729 121.665C120.729 119.702 121.423 118.046 122.812 116.698ZM125.556 124.209C126.197 124.877 126.998 125.211 127.96 125.211C128.921 125.211 129.716 124.877 130.343 124.209C130.984 123.528 131.305 122.68 131.305 121.665C131.305 120.664 130.984 119.823 130.343 119.141C129.716 118.46 128.921 118.12 127.96 118.12C126.998 118.12 126.197 118.46 125.556 119.141C124.928 119.823 124.614 120.664 124.614 121.665C124.614 122.68 124.928 123.528 125.556 124.209ZM149.557 114.955V122.306C149.557 124.243 148.997 125.792 147.875 126.954C146.767 128.102 145.291 128.676 143.448 128.676C141.552 128.676 140.029 128.102 138.881 126.954C137.733 125.805 137.158 124.256 137.158 122.306V114.955H141.024V122.306C141.024 123.214 141.245 123.922 141.685 124.43C142.126 124.937 142.714 125.191 143.448 125.191C144.129 125.191 144.67 124.937 145.071 124.43C145.485 123.909 145.692 123.201 145.692 122.306V114.955H149.557ZM172.684 114.955V128.376H168.918V122.306L165.934 128.376H163.43L160.445 122.346V128.376H156.679V114.955H160.746L164.672 122.286L168.618 114.955H172.684ZM180.548 118.26V125.071H182.811V128.376H174.418V125.071H176.682V118.26H174.418V114.955H182.811V118.26H180.548ZM190.888 120.363H198.36C198.413 121.084 198.44 121.525 198.44 121.685C198.44 123.742 197.772 125.425 196.437 126.733C195.115 128.029 193.412 128.676 191.329 128.676C189.272 128.676 187.536 128.002 186.121 126.653C184.719 125.291 184.017 123.628 184.017 121.665C184.017 119.702 184.719 118.046 186.121 116.698C187.536 115.336 189.266 114.655 191.309 114.655C192.898 114.655 194.293 115.008 195.495 115.716C196.697 116.424 197.518 117.412 197.959 118.681L194.053 119.662C193.519 118.634 192.604 118.12 191.309 118.12C190.321 118.12 189.506 118.46 188.865 119.141C188.224 119.809 187.903 120.65 187.903 121.665C187.903 122.68 188.231 123.528 188.885 124.209C189.539 124.877 190.367 125.211 191.369 125.211C192.798 125.211 193.786 124.65 194.333 123.528H190.888V120.363ZM213.008 114.955V128.376H209.142V123.268H204.234V128.376H200.388V114.955H204.234V119.963H209.142V114.955H213.008ZM227.002 118.26H222.796V128.376H218.93V118.26H214.723V114.955H227.002V118.26ZM243.749 125.071V128.376H233.573V114.955H237.419V125.071H243.749ZM251.201 118.26V125.071H253.465V128.376H245.072V125.071H247.335V118.26H245.072V114.955H253.465V118.26H251.201ZM268.788 128.376H264.141L261.036 123.749L259.053 126.132V128.376H255.207V114.955H259.053V120.744L263.941 114.955H268.307L263.54 120.724L268.788 128.376ZM280.662 125.131V128.376H269.985V114.955H280.582V118.2H273.831V120.183H280.041V123.128H273.831V125.131H280.662ZM119.163 142.26H114.957V152.376H111.091V142.26H106.885V138.955H119.163V142.26ZM133.532 138.955V152.376H129.666V147.268H124.758V152.376H120.913V138.955H124.758V143.963H129.666V138.955H133.532ZM141.377 142.26V149.071H143.641V152.376H135.248V149.071H137.511V142.26H135.248V138.955H143.641V142.26H141.377ZM150.972 138.655C152.561 138.655 153.863 138.995 154.878 139.676C155.893 140.357 156.52 141.319 156.761 142.561L152.995 143.322C152.875 142.734 152.621 142.307 152.234 142.04C151.846 141.773 151.426 141.639 150.972 141.639C150.544 141.639 150.197 141.739 149.93 141.94C149.676 142.127 149.55 142.387 149.55 142.721C149.55 143.175 149.81 143.462 150.331 143.582L153.055 144.223C155.606 144.864 156.881 146.193 156.881 148.209C156.881 149.211 156.587 150.059 155.999 150.753C155.425 151.448 154.724 151.942 153.896 152.236C153.068 152.529 152.16 152.676 151.172 152.676C149.516 152.676 148.127 152.302 147.006 151.554C145.884 150.807 145.23 149.798 145.043 148.53L148.969 147.789C149.276 148.977 150.037 149.571 151.252 149.571C151.72 149.571 152.1 149.478 152.394 149.291C152.688 149.104 152.835 148.837 152.835 148.49C152.835 148.036 152.527 147.735 151.913 147.588L149.129 146.927C146.672 146.353 145.443 145.058 145.443 143.041C145.443 141.666 145.957 140.591 146.986 139.816C148.014 139.042 149.343 138.655 150.972 138.655ZM169.241 142.26V149.071H171.505V152.376H163.112V149.071H165.375V142.26H163.112V138.955H171.505V142.26H169.241ZM184.985 142.26H180.779V152.376H176.913V142.26H172.706V138.955H184.985V142.26ZM197.411 149.131V152.376H186.734V138.955H197.331V142.2H190.58V144.183H196.79V147.128H190.58V149.131H197.411ZM215.502 138.955V152.376H211.737V146.306L208.752 152.376H206.248L203.264 146.346V152.376H199.498V138.955H203.564L207.49 146.286L211.436 138.955H215.502ZM223.366 138.655C224.955 138.655 226.257 138.995 227.272 139.676C228.287 140.357 228.915 141.319 229.155 142.561L225.389 143.322C225.269 142.734 225.015 142.307 224.628 142.04C224.241 141.773 223.82 141.639 223.366 141.639C222.939 141.639 222.592 141.739 222.325 141.94C222.071 142.127 221.944 142.387 221.944 142.721C221.944 143.175 222.204 143.462 222.725 143.582L225.449 144.223C228 144.864 229.275 146.193 229.275 148.209C229.275 149.211 228.981 150.059 228.394 150.753C227.82 151.448 227.119 151.942 226.291 152.236C225.463 152.529 224.555 152.676 223.566 152.676C221.911 152.676 220.522 152.302 219.4 151.554C218.278 150.807 217.624 149.798 217.437 148.53L221.363 147.789C221.67 148.977 222.431 149.571 223.647 149.571C224.114 149.571 224.495 149.478 224.788 149.291C225.082 149.104 225.229 148.837 225.229 148.49C225.229 148.036 224.922 147.735 224.308 147.588L221.523 146.927C219.066 146.353 217.838 145.058 217.838 143.041C217.838 141.666 218.352 140.591 219.38 139.816C220.408 139.042 221.737 138.655 223.366 138.655Z" fill="white"/>
<rect width="54.5669" height="11.5702" rx="1.14462" transform="matrix(1 0 0 -1 106.484 75.8923)" fill="#329B5B"/>
<rect width="125.218" height="7.71345" rx="1.14462" transform="matrix(1 0 0 -1 106.485 181.652)" fill="#329B5B"/>
<rect width="112.842" height="7.71347" rx="1.14462" transform="matrix(1 0 0 -1 106.485 193.222)" fill="#329B5B"/>
<rect width="78.3824" height="7.71343" rx="1.14462" transform="matrix(1 0 0 -1 106.485 204.792)" fill="#329B5B"/>
<rect width="56" height="79" rx="1.14462" transform="matrix(1 0 0 -1 105 303)" fill="#329B5B"/>
<rect width="56" height="79" rx="1.14462" transform="matrix(1 0 0 -1 168 303)" fill="#329B5B"/>
<rect width="56" height="79" rx="1.14462" transform="matrix(1 0 0 -1 232 303)" fill="#329B5B"/>
</g>
</svg>
