<svg viewBox="0 0 149 254" fill="none" xmlns="http://www.w3.org/2000/svg">
<path d="M0.804932 6.427C0.804932 3.14722 3.46372 0.488426 6.7435 0.488426H142.504C145.784 0.488426 148.443 3.14721 148.443 6.42699V247.249C148.443 250.529 145.784 253.188 142.504 253.188H6.74351C3.46373 253.188 0.804932 250.529 0.804932 247.249V6.427Z" fill="#2143AB" fill-opacity="0.38"/>
<path d="M55.8625 35.4286C55.4082 35.4286 55.0095 35.3284 54.6666 35.128C54.3281 34.9276 54.0653 34.647 53.8782 34.2862C53.6912 33.921 53.5976 33.4934 53.5976 33.0035C53.5976 32.5091 53.6912 32.0815 53.8782 31.7207C54.0653 31.36 54.3281 31.0816 54.6666 30.8856C55.0051 30.6852 55.4037 30.585 55.8625 30.585C56.3212 30.585 56.7198 30.6852 57.0583 30.8856C57.3968 31.0816 57.6596 31.36 57.8467 31.7207C58.0338 32.0815 58.1273 32.5069 58.1273 32.9968C58.1273 33.4912 58.0338 33.921 57.8467 34.2862C57.6596 34.647 57.3968 34.9276 57.0583 35.128C56.7198 35.3284 56.3212 35.4286 55.8625 35.4286ZM55.8625 34.6937C56.2945 34.6937 56.6308 34.5445 56.8713 34.2461C57.1118 33.9477 57.232 33.5335 57.232 33.0035C57.232 32.469 57.1118 32.0548 56.8713 31.7608C56.6352 31.4669 56.2989 31.3199 55.8625 31.3199C55.4304 31.3199 55.0942 31.4669 54.8536 31.7608C54.6131 32.0548 54.4929 32.469 54.4929 33.0035C54.4929 33.5335 54.6131 33.9477 54.8536 34.2461C55.0942 34.5445 55.4304 34.6937 55.8625 34.6937ZM58.9167 36.5644V32.0949H59.7317V32.616C59.8253 32.4378 59.9656 32.2953 60.1526 32.1884C60.3442 32.0815 60.5602 32.0281 60.8007 32.0281C61.0857 32.0281 61.3352 32.0971 61.5489 32.2352C61.7672 32.3732 61.9364 32.5692 62.0567 32.8231C62.1769 33.0725 62.2371 33.3732 62.2371 33.725C62.2371 34.0724 62.1769 34.3753 62.0567 34.6336C61.9364 34.8875 61.7694 35.0835 61.5556 35.2215C61.3418 35.3596 61.0902 35.4286 60.8007 35.4286C60.5691 35.4286 60.3597 35.3796 60.1727 35.2817C59.9901 35.1792 59.8498 35.0434 59.7518 34.8741V36.5644H58.9167ZM60.5669 34.794C60.8163 34.794 61.0167 34.7049 61.1681 34.5267C61.3196 34.3441 61.3953 34.0769 61.3953 33.725C61.3953 33.3687 61.3196 33.1037 61.1681 32.93C61.0167 32.7518 60.8163 32.6628 60.5669 32.6628C60.3174 32.6628 60.117 32.7518 59.9656 32.93C59.8141 33.1037 59.7384 33.3687 59.7384 33.725C59.7384 34.0769 59.8141 34.3441 59.9656 34.5267C60.117 34.7049 60.3174 34.794 60.5669 34.794ZM64.5327 35.4286C64.163 35.4286 63.8446 35.3596 63.5773 35.2215C63.3101 35.0835 63.103 34.8875 62.956 34.6336C62.8135 34.3797 62.7422 34.0791 62.7422 33.7317C62.7422 33.3932 62.8112 33.097 62.9493 32.8431C63.0918 32.5893 63.2856 32.3911 63.5306 32.2485C63.78 32.1016 64.0628 32.0281 64.379 32.0281C64.8422 32.0281 65.2075 32.175 65.4747 32.469C65.7464 32.763 65.8822 33.1638 65.8822 33.6716V33.9188H63.5439C63.6063 34.5022 63.9403 34.794 64.5461 34.794C64.7287 34.794 64.9113 34.7672 65.0939 34.7138C65.2765 34.6559 65.4435 34.5668 65.5949 34.4465L65.8288 35.0077C65.6729 35.1369 65.4769 35.2393 65.2409 35.3151C65.0048 35.3908 64.7687 35.4286 64.5327 35.4286ZM64.4124 32.5959C64.1675 32.5959 63.9693 32.6717 63.8178 32.8231C63.6664 32.9745 63.5751 33.1794 63.5439 33.4377H65.1874C65.1696 33.166 65.0939 32.9589 64.9603 32.8164C64.8311 32.6694 64.6485 32.5959 64.4124 32.5959ZM66.5436 35.3618V32.0949H67.3587V32.6026C67.47 32.4156 67.6192 32.273 67.8063 32.175C67.9978 32.0771 68.2116 32.0281 68.4476 32.0281C69.2182 32.0281 69.6034 32.4757 69.6034 33.3709V35.3618H68.7683V33.411C68.7683 33.1571 68.7193 32.9723 68.6213 32.8565C68.5278 32.7407 68.3808 32.6828 68.1804 32.6828C67.9354 32.6828 67.7395 32.7607 67.5925 32.9166C67.45 33.0681 67.3787 33.2707 67.3787 33.5246V35.3618H66.5436ZM72.0617 35.4286C71.6921 35.4286 71.3736 35.3596 71.1064 35.2215C70.8391 35.0835 70.632 34.8875 70.485 34.6336C70.3425 34.3797 70.2713 34.0791 70.2713 33.7317C70.2713 33.3932 70.3403 33.097 70.4784 32.8431C70.6209 32.5893 70.8146 32.3911 71.0596 32.2485C71.309 32.1016 71.5918 32.0281 71.9081 32.0281C72.3713 32.0281 72.7365 32.175 73.0037 32.469C73.2754 32.763 73.4113 33.1638 73.4113 33.6716V33.9188H71.073C71.1353 34.5022 71.4694 34.794 72.0751 34.794C72.2577 34.794 72.4403 34.7672 72.6229 34.7138C72.8055 34.6559 72.9726 34.5668 73.124 34.4465L73.3578 35.0077C73.2019 35.1369 73.006 35.2393 72.7699 35.3151C72.5339 35.3908 72.2978 35.4286 72.0617 35.4286ZM71.9415 32.5959C71.6965 32.5959 71.4983 32.6717 71.3469 32.8231C71.1954 32.9745 71.1041 33.1794 71.073 33.4377H72.7165C72.6986 33.166 72.6229 32.9589 72.4893 32.8164C72.3601 32.6694 72.1775 32.5959 71.9415 32.5959ZM75.3286 35.4286C75.0436 35.4286 74.7919 35.3596 74.5737 35.2215C74.3599 35.0835 74.1929 34.8875 74.0726 34.6336C73.9524 34.3753 73.8922 34.0724 73.8922 33.725C73.8922 33.3732 73.9524 33.0725 74.0726 32.8231C74.1929 32.5692 74.3599 32.3732 74.5737 32.2352C74.7919 32.0971 75.0436 32.0281 75.3286 32.0281C75.5602 32.0281 75.7696 32.0793 75.9566 32.1817C76.1437 32.2842 76.284 32.42 76.3775 32.5893V30.6518H77.2126V35.3618H76.3976V34.8207C76.3085 35.0077 76.1682 35.157 75.9767 35.2683C75.7852 35.3752 75.5691 35.4286 75.3286 35.4286ZM75.5625 34.794C75.8119 34.794 76.0123 34.7049 76.1637 34.5267C76.3152 34.3441 76.3909 34.0769 76.3909 33.725C76.3909 33.3687 76.3152 33.1037 76.1637 32.93C76.0123 32.7518 75.8119 32.6628 75.5625 32.6628C75.313 32.6628 75.1126 32.7518 74.9612 32.93C74.8098 33.1037 74.734 33.3687 74.734 33.725C74.734 34.0769 74.8098 34.3441 74.9612 34.5267C75.1126 34.7049 75.313 34.794 75.5625 34.794ZM79.9594 35.3618V30.6518H83.0928V31.3333H80.7812V32.6293H82.9458V33.3108H80.7812V34.6804H83.0928V35.3618H79.9594ZM83.879 35.3618V32.0949H84.694V32.5959C84.792 32.4178 84.9279 32.2797 85.1016 32.1817C85.2753 32.0793 85.4757 32.0281 85.7029 32.0281C86.1928 32.0281 86.5135 32.2419 86.6649 32.6694C86.7673 32.469 86.9143 32.3131 87.1058 32.2018C87.2974 32.086 87.5156 32.0281 87.7606 32.0281C88.4955 32.0281 88.8629 32.4757 88.8629 33.3709V35.3618H88.0278V33.4043C88.0278 33.1549 87.9855 32.9723 87.9009 32.8565C87.8207 32.7407 87.6826 32.6828 87.4867 32.6828C87.2684 32.6828 87.0969 32.7607 86.9722 32.9166C86.8475 33.0681 86.7852 33.2796 86.7852 33.5513V35.3618H85.95V33.4043C85.95 33.1549 85.9077 32.9723 85.8231 32.8565C85.7429 32.7407 85.6071 32.6828 85.4156 32.6828C85.1973 32.6828 85.0259 32.7607 84.9011 32.9166C84.7764 33.0681 84.7141 33.2796 84.7141 33.5513V35.3618H83.879ZM90.8001 35.4286C90.564 35.4286 90.3524 35.3841 90.1654 35.295C89.9828 35.2015 89.838 35.0768 89.7311 34.9209C89.6287 34.765 89.5775 34.5891 89.5775 34.3931C89.5775 34.1526 89.6398 33.9633 89.7645 33.8252C89.8892 33.6827 90.0919 33.5803 90.3725 33.5179C90.6531 33.4556 91.0294 33.4244 91.5016 33.4244H91.7354V33.2841C91.7354 33.0614 91.6864 32.901 91.5884 32.8031C91.4904 32.7051 91.3256 32.6561 91.094 32.6561C90.9114 32.6561 90.7243 32.685 90.5328 32.7429C90.3413 32.7964 90.1476 32.881 89.9516 32.9968L89.7111 32.4289C89.8269 32.3488 89.9627 32.2797 90.1186 32.2218C90.279 32.1595 90.446 32.1127 90.6197 32.0815C90.7978 32.0459 90.9649 32.0281 91.1207 32.0281C91.5973 32.0281 91.9514 32.1394 92.183 32.3621C92.4146 32.5804 92.5304 32.9211 92.5304 33.3843V35.3618H91.7487V34.8407C91.673 35.0233 91.5528 35.1681 91.388 35.275C91.2232 35.3774 91.0272 35.4286 90.8001 35.4286ZM90.9738 34.8541C91.192 34.8541 91.3724 34.7784 91.5149 34.6269C91.6619 34.4755 91.7354 34.284 91.7354 34.0524V33.9054H91.5082C91.0896 33.9054 90.7978 33.9388 90.633 34.0056C90.4727 34.068 90.3925 34.1838 90.3925 34.353C90.3925 34.5 90.4437 34.6203 90.5462 34.7138C90.6486 34.8073 90.7912 34.8541 90.9738 34.8541ZM93.3246 31.3934V30.5783H94.2599V31.3934H93.3246ZM93.378 35.3618V32.0949H94.2132V35.3618H93.378ZM96.2166 35.4286C95.8292 35.4286 95.5419 35.324 95.3548 35.1146C95.1722 34.9009 95.0809 34.5891 95.0809 34.1793V30.6518H95.916V34.1392C95.916 34.5401 96.0853 34.7405 96.4237 34.7405C96.4727 34.7405 96.5217 34.7383 96.5707 34.7338C96.6197 34.7294 96.6665 34.7205 96.711 34.7071L96.6977 35.3685C96.5373 35.4086 96.377 35.4286 96.2166 35.4286Z" fill="white"/>
<rect x="14.1812" y="22.2791" width="121.655" height="22.5349" rx="8.53669" stroke="white" stroke-opacity="0.3" stroke-width="0.742321" stroke-dasharray="0.74 2.97"/>
<path d="M56.0897 82.0257L53.9919 77.3157H54.9072L56.4638 80.93L58.0205 77.3157H58.9023L56.8045 82.0257H56.0897ZM59.2089 78.0573V77.2422H60.1443V78.0573H59.2089ZM59.2624 82.0257V78.7588H60.0975V82.0257H59.2624ZM62.1611 82.0925C61.885 82.0925 61.6266 82.0591 61.3861 81.9923C61.1456 81.9255 60.9452 81.8297 60.7848 81.705L60.9986 81.1572C61.1634 81.2685 61.3483 81.3554 61.5531 81.4178C61.758 81.4757 61.9629 81.5046 62.1678 81.5046C62.3816 81.5046 62.5397 81.469 62.6421 81.3977C62.749 81.322 62.8025 81.224 62.8025 81.1037C62.8025 80.9167 62.6644 80.7964 62.3883 80.743L61.7202 80.616C61.1545 80.5091 60.8717 80.2152 60.8717 79.7342C60.8717 79.5204 60.9296 79.3355 61.0454 79.1797C61.1657 79.0238 61.3304 78.9035 61.5398 78.8189C61.7491 78.7343 61.9896 78.6919 62.2613 78.6919C62.4929 78.6919 62.7156 78.7254 62.9294 78.7922C63.1432 78.8545 63.3258 78.9503 63.4772 79.0794L63.2501 79.6273C63.1209 79.5204 62.965 79.4358 62.7824 79.3734C62.6043 79.311 62.4328 79.2799 62.268 79.2799C62.0498 79.2799 61.8872 79.3177 61.7803 79.3934C61.6779 79.4692 61.6266 79.5694 61.6266 79.6941C61.6266 79.8901 61.7536 80.0103 62.0074 80.0548L62.6755 80.1818C62.965 80.2352 63.1833 80.3332 63.3303 80.4757C63.4817 80.6183 63.5574 80.8098 63.5574 81.0503C63.5574 81.3754 63.4305 81.6315 63.1766 81.8186C62.9227 82.0012 62.5842 82.0925 62.1611 82.0925ZM64.1739 78.0573V77.2422H65.1093V78.0573H64.1739ZM64.2274 82.0257V78.7588H65.0625V82.0257H64.2274ZM67.4267 82.0925C66.5627 82.0925 66.1306 81.6649 66.1306 80.8098V79.3868H65.5026V78.7588H66.1306V77.7833H66.9658V78.7588H67.9545V79.3868H66.9658V80.763C66.9658 80.9768 67.0125 81.1372 67.1061 81.244C67.1996 81.3509 67.351 81.4044 67.5604 81.4044C67.6227 81.4044 67.6873 81.3977 67.7541 81.3843C67.8209 81.3665 67.8899 81.3487 67.9612 81.3309L68.0881 81.9455C68.008 81.9901 67.9055 82.0257 67.7808 82.0524C67.6606 82.0792 67.5425 82.0925 67.4267 82.0925ZM70.0717 82.0925C69.7021 82.0925 69.3836 82.0235 69.1164 81.8854C68.8491 81.7473 68.642 81.5514 68.4951 81.2975C68.3525 81.0436 68.2813 80.743 68.2813 80.3956C68.2813 80.0571 68.3503 79.7609 68.4884 79.507C68.6309 79.2531 68.8246 79.0549 69.0696 78.9124C69.319 78.7654 69.6019 78.6919 69.9181 78.6919C70.3813 78.6919 70.7465 78.8389 71.0138 79.1329C71.2854 79.4268 71.4213 79.8277 71.4213 80.3354V80.5826H69.083C69.1453 81.1661 69.4794 81.4578 70.0851 81.4578C70.2677 81.4578 70.4503 81.4311 70.6329 81.3777C70.8156 81.3198 70.9826 81.2307 71.134 81.1104L71.3678 81.6716C71.212 81.8008 71.016 81.9032 70.7799 81.9789C70.5439 82.0547 70.3078 82.0925 70.0717 82.0925ZM69.9515 79.2598C69.7065 79.2598 69.5083 79.3355 69.3569 79.487C69.2055 79.6384 69.1142 79.8433 69.083 80.1016H70.7265C70.7087 79.8299 70.6329 79.6228 70.4993 79.4803C70.3702 79.3333 70.1875 79.2598 69.9515 79.2598ZM73.3386 82.0925C73.0536 82.0925 72.802 82.0235 72.5837 81.8854C72.3699 81.7473 72.2029 81.5514 72.0826 81.2975C71.9624 81.0392 71.9023 80.7363 71.9023 80.3889C71.9023 80.037 71.9624 79.7364 72.0826 79.487C72.2029 79.2331 72.3699 79.0371 72.5837 78.8991C72.802 78.761 73.0536 78.6919 73.3386 78.6919C73.5703 78.6919 73.7796 78.7432 73.9667 78.8456C74.1537 78.948 74.294 79.0839 74.3875 79.2531V77.3157H75.2227V82.0257H74.4076V81.4846C74.3185 81.6716 74.1782 81.8208 73.9867 81.9322C73.7952 82.0391 73.5792 82.0925 73.3386 82.0925ZM73.5725 81.4578C73.8219 81.4578 74.0223 81.3688 74.1738 81.1906C74.3252 81.008 74.4009 80.7408 74.4009 80.3889C74.4009 80.0326 74.3252 79.7676 74.1738 79.5939C74.0223 79.4157 73.8219 79.3266 73.5725 79.3266C73.3231 79.3266 73.1226 79.4157 72.9712 79.5939C72.8198 79.7676 72.744 80.0326 72.744 80.3889C72.744 80.7408 72.8198 81.008 72.9712 81.1906C73.1226 81.3688 73.3231 81.4578 73.5725 81.4578ZM77.9694 82.0257V77.3157H78.8246V79.2799H81.2498V77.3157H82.1049V82.0257H81.2498V79.9947H78.8246V82.0257H77.9694ZM84.5464 82.0925C84.2079 82.0925 83.9139 82.0235 83.6645 81.8854C83.4151 81.7473 83.2213 81.5514 83.0832 81.2975C82.9452 81.0392 82.8761 80.7363 82.8761 80.3889C82.8761 80.0415 82.9452 79.7408 83.0832 79.487C83.2213 79.2331 83.4151 79.0371 83.6645 78.8991C83.9139 78.761 84.2079 78.6919 84.5464 78.6919C84.8849 78.6919 85.1788 78.761 85.4282 78.8991C85.6777 79.0371 85.8714 79.2331 86.0095 79.487C86.1475 79.7408 86.2166 80.0415 86.2166 80.3889C86.2166 80.7363 86.1475 81.0392 86.0095 81.2975C85.8714 81.5514 85.6777 81.7473 85.4282 81.8854C85.1788 82.0235 84.8849 82.0925 84.5464 82.0925ZM84.5464 81.4578C84.7958 81.4578 84.9962 81.3688 85.1476 81.1906C85.2991 81.008 85.3748 80.7408 85.3748 80.3889C85.3748 80.0326 85.2991 79.7676 85.1476 79.5939C84.9962 79.4157 84.7958 79.3266 84.5464 79.3266C84.2969 79.3266 84.0965 79.4157 83.9451 79.5939C83.7936 79.7676 83.7179 80.0326 83.7179 80.3889C83.7179 80.7408 83.7936 81.008 83.9451 81.1906C84.0965 81.3688 84.2969 81.4578 84.5464 81.4578ZM86.9192 82.0257V78.7588H87.7343V79.2598C87.8323 79.0817 87.9681 78.9436 88.1418 78.8456C88.3155 78.7432 88.516 78.6919 88.7431 78.6919C89.233 78.6919 89.5537 78.9057 89.7052 79.3333C89.8076 79.1329 89.9546 78.977 90.1461 78.8657C90.3376 78.7498 90.5559 78.6919 90.8008 78.6919C91.5357 78.6919 91.9032 79.1396 91.9032 80.0348V82.0257H91.0681V80.0682C91.0681 79.8188 91.0257 79.6362 90.9411 79.5204C90.8609 79.4046 90.7229 79.3467 90.5269 79.3467C90.3087 79.3467 90.1372 79.4246 90.0125 79.5805C89.8878 79.7319 89.8254 79.9435 89.8254 80.2152V82.0257H88.9903V80.0682C88.9903 79.8188 88.948 79.6362 88.8634 79.5204C88.7832 79.4046 88.6473 79.3467 88.4558 79.3467C88.2376 79.3467 88.0661 79.4246 87.9414 79.5805C87.8167 79.7319 87.7543 79.9435 87.7543 80.2152V82.0257H86.9192ZM94.3748 82.0925C94.0051 82.0925 93.6866 82.0235 93.4194 81.8854C93.1522 81.7473 92.9451 81.5514 92.7981 81.2975C92.6556 81.0436 92.5843 80.743 92.5843 80.3956C92.5843 80.0571 92.6533 79.7609 92.7914 79.507C92.9339 79.2531 93.1277 79.0549 93.3726 78.9124C93.6221 78.7654 93.9049 78.6919 94.2211 78.6919C94.6843 78.6919 95.0496 78.8389 95.3168 79.1329C95.5885 79.4268 95.7243 79.8277 95.7243 80.3354V80.5826H93.386C93.4484 81.1661 93.7824 81.4578 94.3881 81.4578C94.5708 81.4578 94.7534 81.4311 94.936 81.3777C95.1186 81.3198 95.2856 81.2307 95.437 81.1104L95.6709 81.6716C95.515 81.8008 95.319 81.9032 95.083 81.9789C94.8469 82.0547 94.6108 82.0925 94.3748 82.0925ZM94.2545 79.2598C94.0096 79.2598 93.8114 79.3355 93.6599 79.487C93.5085 79.6384 93.4172 79.8433 93.386 80.1016H95.0295C95.0117 79.8299 94.936 79.6228 94.8024 79.4803C94.6732 79.3333 94.4906 79.2598 94.2545 79.2598Z" fill="white"/>
<rect x="14.181" y="68.943" width="121.655" height="22.5349" rx="8.53669" stroke="white" stroke-opacity="0.3" stroke-width="0.742321" stroke-dasharray="0.74 2.97"/>
<path d="M57.8097 128.756C57.3554 128.756 56.9568 128.656 56.6139 128.456C56.2754 128.255 56.0126 127.975 55.8255 127.614C55.6384 127.249 55.5449 126.821 55.5449 126.331C55.5449 125.837 55.6384 125.409 55.8255 125.048C56.0126 124.688 56.2754 124.409 56.6139 124.213C56.9524 124.013 57.351 123.913 57.8097 123.913C58.2685 123.913 58.6671 124.013 59.0056 124.213C59.3441 124.409 59.6069 124.688 59.794 125.048C59.981 125.409 60.0746 125.835 60.0746 126.325C60.0746 126.819 59.981 127.249 59.794 127.614C59.6069 127.975 59.3441 128.255 59.0056 128.456C58.6671 128.656 58.2685 128.756 57.8097 128.756ZM57.8097 128.021C58.2418 128.021 58.578 127.872 58.8185 127.574C59.0591 127.275 59.1793 126.861 59.1793 126.331C59.1793 125.797 59.0591 125.383 58.8185 125.089C58.5825 124.795 58.2462 124.648 57.8097 124.648C57.3777 124.648 57.0414 124.795 56.8009 125.089C56.5604 125.383 56.4402 125.797 56.4402 126.331C56.4402 126.861 56.5604 127.275 56.8009 127.574C57.0414 127.872 57.3777 128.021 57.8097 128.021ZM60.8639 129.892V125.423H61.679V125.944C61.7725 125.766 61.9128 125.623 62.0999 125.516C62.2914 125.409 62.5074 125.356 62.748 125.356C63.033 125.356 63.2824 125.425 63.4962 125.563C63.7145 125.701 63.8837 125.897 64.004 126.151C64.1242 126.4 64.1843 126.701 64.1843 127.053C64.1843 127.4 64.1242 127.703 64.004 127.961C63.8837 128.215 63.7167 128.411 63.5029 128.549C63.2891 128.687 63.0375 128.756 62.748 128.756C62.5164 128.756 62.307 128.707 62.12 128.609C61.9373 128.507 61.797 128.371 61.6991 128.202V129.892H60.8639ZM62.5141 128.122C62.7635 128.122 62.964 128.033 63.1154 127.854C63.2668 127.672 63.3426 127.405 63.3426 127.053C63.3426 126.696 63.2668 126.431 63.1154 126.258C62.964 126.08 62.7635 125.99 62.5141 125.99C62.2647 125.99 62.0643 126.08 61.9128 126.258C61.7614 126.431 61.6857 126.696 61.6857 127.053C61.6857 127.405 61.7614 127.672 61.9128 127.854C62.0643 128.033 62.2647 128.122 62.5141 128.122ZM66.48 128.756C66.1103 128.756 65.7918 128.687 65.5246 128.549C65.2574 128.411 65.0503 128.215 64.9033 127.961C64.7607 127.707 64.6895 127.407 64.6895 127.059C64.6895 126.721 64.7585 126.425 64.8966 126.171C65.0391 125.917 65.2329 125.719 65.4778 125.576C65.7272 125.429 66.0101 125.356 66.3263 125.356C66.7895 125.356 67.1547 125.503 67.422 125.797C67.6937 126.091 67.8295 126.492 67.8295 126.999V127.246H65.4912C65.5535 127.83 65.8876 128.122 66.4933 128.122C66.6759 128.122 66.8585 128.095 67.0412 128.041C67.2238 127.984 67.3908 127.895 67.5422 127.774L67.7761 128.335C67.6202 128.465 67.4242 128.567 67.1881 128.643C66.9521 128.718 66.716 128.756 66.48 128.756ZM66.3597 125.924C66.1147 125.924 65.9165 125.999 65.7651 126.151C65.6137 126.302 65.5224 126.507 65.4912 126.765H67.1347C67.1169 126.494 67.0412 126.287 66.9075 126.144C66.7784 125.997 66.5958 125.924 66.3597 125.924ZM68.4909 128.69V125.423H69.3059V125.93C69.4173 125.743 69.5665 125.601 69.7535 125.503C69.9451 125.405 70.1589 125.356 70.3949 125.356C71.1654 125.356 71.5507 125.803 71.5507 126.699V128.69H70.7156V126.739C70.7156 126.485 70.6666 126.3 70.5686 126.184C70.4751 126.068 70.3281 126.011 70.1277 126.011C69.8827 126.011 69.6867 126.088 69.5398 126.244C69.3972 126.396 69.326 126.598 69.326 126.852V128.69H68.4909ZM74.009 128.756C73.6393 128.756 73.3209 128.687 73.0536 128.549C72.7864 128.411 72.5793 128.215 72.4323 127.961C72.2898 127.707 72.2185 127.407 72.2185 127.059C72.2185 126.721 72.2876 126.425 72.4256 126.171C72.5682 125.917 72.7619 125.719 73.0069 125.576C73.2563 125.429 73.5391 125.356 73.8553 125.356C74.3186 125.356 74.6838 125.503 74.951 125.797C75.2227 126.091 75.3585 126.492 75.3585 126.999V127.246H73.0202C73.0826 127.83 73.4166 128.122 74.0224 128.122C74.205 128.122 74.3876 128.095 74.5702 128.041C74.7528 127.984 74.9198 127.895 75.0713 127.774L75.3051 128.335C75.1492 128.465 74.9532 128.567 74.7172 128.643C74.4811 128.718 74.2451 128.756 74.009 128.756ZM73.8888 125.924C73.6438 125.924 73.4456 125.999 73.2942 126.151C73.1427 126.302 73.0514 126.507 73.0202 126.765H74.6637C74.6459 126.494 74.5702 126.287 74.4366 126.144C74.3074 125.997 74.1248 125.924 73.8888 125.924ZM77.2759 128.756C76.9909 128.756 76.7392 128.687 76.521 128.549C76.3072 128.411 76.1402 128.215 76.0199 127.961C75.8996 127.703 75.8395 127.4 75.8395 127.053C75.8395 126.701 75.8996 126.4 76.0199 126.151C76.1402 125.897 76.3072 125.701 76.521 125.563C76.7392 125.425 76.9909 125.356 77.2759 125.356C77.5075 125.356 77.7168 125.407 77.9039 125.509C78.091 125.612 78.2313 125.748 78.3248 125.917V123.98H79.1599V128.69H78.3449V128.148C78.2558 128.335 78.1155 128.485 77.924 128.596C77.7324 128.703 77.5164 128.756 77.2759 128.756ZM77.5097 128.122C77.7592 128.122 77.9596 128.033 78.111 127.854C78.2625 127.672 78.3382 127.405 78.3382 127.053C78.3382 126.696 78.2625 126.431 78.111 126.258C77.9596 126.08 77.7592 125.99 77.5097 125.99C77.2603 125.99 77.0599 126.08 76.9085 126.258C76.757 126.431 76.6813 126.696 76.6813 127.053C76.6813 127.405 76.757 127.672 76.9085 127.854C77.0599 128.033 77.2603 128.122 77.5097 128.122ZM84.098 128.756C83.6081 128.756 83.1872 128.658 82.8353 128.462C82.4879 128.262 82.2207 127.981 82.0336 127.621C81.8466 127.255 81.753 126.826 81.753 126.331C81.753 125.837 81.8466 125.409 82.0336 125.048C82.2207 124.688 82.4879 124.409 82.8353 124.213C83.1872 124.013 83.6081 123.913 84.098 123.913C84.4143 123.913 84.7127 123.962 84.9933 124.06C85.2783 124.158 85.5122 124.298 85.6948 124.481L85.4142 125.162C85.2137 124.993 85.0089 124.87 84.7995 124.795C84.5902 124.714 84.3653 124.674 84.1248 124.674C83.6482 124.674 83.2852 124.819 83.0358 125.109C82.7864 125.394 82.6616 125.801 82.6616 126.331C82.6616 126.861 82.7864 127.271 83.0358 127.56C83.2852 127.85 83.6482 127.995 84.1248 127.995C84.3653 127.995 84.5902 127.957 84.7995 127.881C85.0089 127.801 85.2137 127.676 85.4142 127.507L85.6948 128.188C85.5122 128.367 85.2783 128.507 84.9933 128.609C84.7127 128.707 84.4143 128.756 84.098 128.756ZM87.3191 128.756C87.0831 128.756 86.8715 128.712 86.6844 128.623C86.5018 128.529 86.3571 128.404 86.2502 128.249C86.1477 128.093 86.0965 127.917 86.0965 127.721C86.0965 127.48 86.1589 127.291 86.2836 127.153C86.4083 127.01 86.6109 126.908 86.8915 126.846C87.1721 126.783 87.5485 126.752 88.0206 126.752H88.2544V126.612C88.2544 126.389 88.2054 126.229 88.1075 126.131C88.0095 126.033 87.8447 125.984 87.6131 125.984C87.4305 125.984 87.2434 126.013 87.0519 126.071C86.8604 126.124 86.6666 126.209 86.4706 126.325L86.2301 125.757C86.3459 125.676 86.4818 125.607 86.6377 125.55C86.798 125.487 86.965 125.44 87.1387 125.409C87.3169 125.374 87.4839 125.356 87.6398 125.356C88.1164 125.356 88.4705 125.467 88.7021 125.69C88.9337 125.908 89.0495 126.249 89.0495 126.712V128.69H88.2678V128.168C88.1921 128.351 88.0718 128.496 87.907 128.603C87.7422 128.705 87.5463 128.756 87.3191 128.756ZM87.4928 128.182C87.7111 128.182 87.8914 128.106 88.034 127.955C88.1809 127.803 88.2544 127.612 88.2544 127.38V127.233H88.0273C87.6086 127.233 87.3169 127.267 87.1521 127.333C86.9917 127.396 86.9116 127.511 86.9116 127.681C86.9116 127.828 86.9628 127.948 87.0652 128.041C87.1677 128.135 87.3102 128.182 87.4928 128.182ZM89.8971 128.69V125.423H90.7122V125.997C90.8725 125.61 91.2155 125.396 91.741 125.356L91.9949 125.336L92.0483 126.044L91.5673 126.091C91.0195 126.144 90.7456 126.425 90.7456 126.932V128.69H89.8971ZM94.1991 128.756C93.335 128.756 92.903 128.329 92.903 127.474V126.051H92.275V125.423H92.903V124.447H93.7381V125.423H94.7269V126.051H93.7381V127.427C93.7381 127.641 93.7849 127.801 93.8784 127.908C93.9719 128.015 94.1234 128.068 94.3327 128.068C94.395 128.068 94.4596 128.062 94.5264 128.048C94.5932 128.03 94.6623 128.013 94.7335 127.995L94.8605 128.609C94.7803 128.654 94.6779 128.69 94.5532 128.716C94.4329 128.743 94.3149 128.756 94.1991 128.756Z" fill="white"/>
<rect x="14.181" y="115.607" width="121.655" height="22.5349" rx="8.53669" stroke="white" stroke-opacity="0.3" stroke-width="0.742321" stroke-dasharray="0.74 2.97"/>
<path d="M48.2833 175.353L46.1855 170.643H47.1008L48.6574 174.258L50.2141 170.643H51.096L48.9982 175.353H48.2833ZM51.4026 171.385V170.57H52.3379V171.385H51.4026ZM51.456 175.353V172.086H52.2911V175.353H51.456ZM54.7689 175.42C54.3993 175.42 54.0808 175.351 53.8136 175.213C53.5463 175.075 53.3392 174.879 53.1922 174.625C53.0497 174.371 52.9785 174.071 52.9785 173.723C52.9785 173.385 53.0475 173.089 53.1856 172.835C53.3281 172.581 53.5218 172.383 53.7668 172.24C54.0162 172.093 54.299 172.02 54.6153 172.02C55.0785 172.02 55.4437 172.167 55.7109 172.461C55.9826 172.755 56.1185 173.155 56.1185 173.663V173.91H53.7802C53.8425 174.494 54.1766 174.786 54.7823 174.786C54.9649 174.786 55.1475 174.759 55.3301 174.705C55.5127 174.647 55.6798 174.558 55.8312 174.438L56.065 174.999C55.9091 175.128 55.7132 175.231 55.4771 175.307C55.2411 175.382 55.005 175.42 54.7689 175.42ZM54.6487 172.588C54.4037 172.588 54.2055 172.663 54.0541 172.815C53.9026 172.966 53.8113 173.171 53.7802 173.429H55.4237C55.4058 173.158 55.3301 172.951 55.1965 172.808C55.0673 172.661 54.8847 172.588 54.6487 172.588ZM57.6296 175.353L56.3401 172.086H57.1953L58.0304 174.385L58.8722 172.086H59.4601L60.3019 174.398L61.137 172.086H61.9454L60.6627 175.353H59.9345L59.1394 173.249L58.3578 175.353H57.6296ZM63.9682 175.42C63.5985 175.42 63.2801 175.351 63.0128 175.213C62.7456 175.075 62.5385 174.879 62.3915 174.625C62.249 174.371 62.1777 174.071 62.1777 173.723C62.1777 173.385 62.2468 173.089 62.3848 172.835C62.5274 172.581 62.7211 172.383 62.9661 172.24C63.2155 172.093 63.4983 172.02 63.8145 172.02C64.2778 172.02 64.643 172.167 64.9102 172.461C65.1819 172.755 65.3177 173.155 65.3177 173.663V173.91H62.9794C63.0418 174.494 63.3758 174.786 63.9816 174.786C64.1642 174.786 64.3468 174.759 64.5294 174.705C64.712 174.647 64.879 174.558 65.0305 174.438L65.2643 174.999C65.1084 175.128 64.9124 175.231 64.6764 175.307C64.4403 175.382 64.2043 175.42 63.9682 175.42ZM63.8479 172.588C63.603 172.588 63.4048 172.663 63.2533 172.815C63.1019 172.966 63.0106 173.171 62.9794 173.429H64.6229C64.6051 173.158 64.5294 172.951 64.3958 172.808C64.2666 172.661 64.084 172.588 63.8479 172.588ZM67.2351 175.42C66.9501 175.42 66.6984 175.351 66.4802 175.213C66.2664 175.075 66.0994 174.879 65.9791 174.625C65.8588 174.367 65.7987 174.064 65.7987 173.717C65.7987 173.365 65.8588 173.064 65.9791 172.815C66.0994 172.561 66.2664 172.365 66.4802 172.227C66.6984 172.089 66.9501 172.02 67.2351 172.02C67.4667 172.02 67.676 172.071 67.8631 172.173C68.0502 172.276 68.1905 172.412 68.284 172.581V170.643H69.1191V175.353H68.304V174.812C68.215 174.999 68.0747 175.149 67.8832 175.26C67.6916 175.367 67.4756 175.42 67.2351 175.42ZM67.4689 174.786C67.7184 174.786 67.9188 174.696 68.0702 174.518C68.2217 174.336 68.2974 174.068 68.2974 173.717C68.2974 173.36 68.2217 173.095 68.0702 172.922C67.9188 172.743 67.7184 172.654 67.4689 172.654C67.2195 172.654 67.0191 172.743 66.8677 172.922C66.7162 173.095 66.6405 173.36 66.6405 173.717C66.6405 174.068 66.7162 174.336 66.8677 174.518C67.0191 174.696 67.2195 174.786 67.4689 174.786ZM71.8659 175.353V170.643H73.9103C74.4269 170.643 74.8255 170.773 75.1061 171.031C75.3867 171.289 75.527 171.65 75.527 172.113C75.527 172.576 75.3867 172.939 75.1061 173.202C74.8255 173.46 74.4269 173.59 73.9103 173.59H72.7211V175.353H71.8659ZM72.7211 172.915H73.7766C74.3913 172.915 74.6986 172.648 74.6986 172.113C74.6986 171.583 74.3913 171.318 73.7766 171.318H72.7211V172.915ZM76.0787 175.353V172.086H76.8938V172.661C77.0541 172.274 77.3971 172.06 77.9226 172.02L78.1765 172L78.23 172.708L77.7489 172.755C77.2011 172.808 76.9272 173.089 76.9272 173.596V175.353H76.0787ZM80.1326 175.42C79.7941 175.42 79.5002 175.351 79.2507 175.213C79.0013 175.075 78.8076 174.879 78.6695 174.625C78.5314 174.367 78.4624 174.064 78.4624 173.717C78.4624 173.369 78.5314 173.069 78.6695 172.815C78.8076 172.561 79.0013 172.365 79.2507 172.227C79.5002 172.089 79.7941 172.02 80.1326 172.02C80.4711 172.02 80.7651 172.089 81.0145 172.227C81.2639 172.365 81.4577 172.561 81.5957 172.815C81.7338 173.069 81.8028 173.369 81.8028 173.717C81.8028 174.064 81.7338 174.367 81.5957 174.625C81.4577 174.879 81.2639 175.075 81.0145 175.213C80.7651 175.351 80.4711 175.42 80.1326 175.42ZM80.1326 174.786C80.382 174.786 80.5825 174.696 80.7339 174.518C80.8853 174.336 80.961 174.068 80.961 173.717C80.961 173.36 80.8853 173.095 80.7339 172.922C80.5825 172.743 80.382 172.654 80.1326 172.654C79.8832 172.654 79.6828 172.743 79.5313 172.922C79.3799 173.095 79.3042 173.36 79.3042 173.717C79.3042 174.068 79.3799 174.336 79.5313 174.518C79.6828 174.696 79.8832 174.786 80.1326 174.786ZM82.5055 175.353V172.086H83.3205V172.588C83.4185 172.409 83.5544 172.271 83.7281 172.173C83.9018 172.071 84.1022 172.02 84.3294 172.02C84.8193 172.02 85.14 172.233 85.2914 172.661C85.3938 172.461 85.5408 172.305 85.7323 172.193C85.9239 172.078 86.1421 172.02 86.3871 172.02C87.122 172.02 87.4894 172.467 87.4894 173.362V175.353H86.6543V173.396C86.6543 173.146 86.612 172.964 86.5274 172.848C86.4472 172.732 86.3091 172.674 86.1132 172.674C85.8949 172.674 85.7234 172.752 85.5987 172.908C85.474 173.06 85.4117 173.271 85.4117 173.543V175.353H84.5766V173.396C84.5766 173.146 84.5342 172.964 84.4496 172.848C84.3694 172.732 84.2336 172.674 84.0421 172.674C83.8238 172.674 83.6524 172.752 83.5277 172.908C83.4029 173.06 83.3406 173.271 83.3406 173.543V175.353H82.5055ZM89.8408 175.42C89.5023 175.42 89.2083 175.351 88.9589 175.213C88.7095 175.075 88.5157 174.879 88.3777 174.625C88.2396 174.367 88.1706 174.064 88.1706 173.717C88.1706 173.369 88.2396 173.069 88.3777 172.815C88.5157 172.561 88.7095 172.365 88.9589 172.227C89.2083 172.089 89.5023 172.02 89.8408 172.02C90.1793 172.02 90.4732 172.089 90.7227 172.227C90.9721 172.365 91.1658 172.561 91.3039 172.815C91.442 173.069 91.511 173.369 91.511 173.717C91.511 174.064 91.442 174.367 91.3039 174.625C91.1658 174.879 90.9721 175.075 90.7227 175.213C90.4732 175.351 90.1793 175.42 89.8408 175.42ZM89.8408 174.786C90.0902 174.786 90.2906 174.696 90.4421 174.518C90.5935 174.336 90.6692 174.068 90.6692 173.717C90.6692 173.36 90.5935 173.095 90.4421 172.922C90.2906 172.743 90.0902 172.654 89.8408 172.654C89.5914 172.654 89.3909 172.743 89.2395 172.922C89.0881 173.095 89.0123 173.36 89.0123 173.717C89.0123 174.068 89.0881 174.336 89.2395 174.518C89.3909 174.696 89.5914 174.786 89.8408 174.786ZM93.6642 175.42C92.8001 175.42 92.3681 174.993 92.3681 174.137V172.714H91.7401V172.086H92.3681V171.111H93.2032V172.086H94.192V172.714H93.2032V174.091C93.2032 174.304 93.25 174.465 93.3435 174.572C93.437 174.679 93.5885 174.732 93.7978 174.732C93.8601 174.732 93.9247 174.725 93.9915 174.712C94.0583 174.694 94.1274 174.676 94.1986 174.659L94.3256 175.273C94.2454 175.318 94.143 175.353 94.0183 175.38C93.898 175.407 93.78 175.42 93.6642 175.42ZM94.6783 171.385V170.57H95.6136V171.385H94.6783ZM94.7317 175.353V172.086H95.5668V175.353H94.7317ZM97.9244 175.42C97.5859 175.42 97.2919 175.351 97.0425 175.213C96.7931 175.075 96.5993 174.879 96.4613 174.625C96.3232 174.367 96.2542 174.064 96.2542 173.717C96.2542 173.369 96.3232 173.069 96.4613 172.815C96.5993 172.561 96.7931 172.365 97.0425 172.227C97.2919 172.089 97.5859 172.02 97.9244 172.02C98.2629 172.02 98.5568 172.089 98.8063 172.227C99.0557 172.365 99.2494 172.561 99.3875 172.815C99.5256 173.069 99.5946 173.369 99.5946 173.717C99.5946 174.064 99.5256 174.367 99.3875 174.625C99.2494 174.879 99.0557 175.075 98.8063 175.213C98.5568 175.351 98.2629 175.42 97.9244 175.42ZM97.9244 174.786C98.1738 174.786 98.3742 174.696 98.5257 174.518C98.6771 174.336 98.7528 174.068 98.7528 173.717C98.7528 173.36 98.6771 173.095 98.5257 172.922C98.3742 172.743 98.1738 172.654 97.9244 172.654C97.675 172.654 97.4745 172.743 97.3231 172.922C97.1717 173.095 97.096 173.36 97.096 173.717C97.096 174.068 97.1717 174.336 97.3231 174.518C97.4745 174.696 97.675 174.786 97.9244 174.786ZM100.284 175.353V172.086H101.099V172.594C101.21 172.407 101.36 172.265 101.547 172.167C101.738 172.069 101.952 172.02 102.188 172.02C102.958 172.02 103.344 172.467 103.344 173.362V175.353H102.509V173.403C102.509 173.149 102.46 172.964 102.362 172.848C102.268 172.732 102.121 172.674 101.921 172.674C101.676 172.674 101.48 172.752 101.333 172.908C101.19 173.06 101.119 173.262 101.119 173.516V175.353H100.284Z" fill="white"/>
<rect x="14.181" y="162.271" width="121.655" height="22.5349" rx="8.53669" stroke="white" stroke-opacity="0.3" stroke-width="0.742321" stroke-dasharray="0.74 2.97"/>
<path d="M63.2073 222.084C62.7174 222.084 62.2965 221.986 61.9446 221.79C61.5972 221.59 61.33 221.309 61.1429 220.948C60.9559 220.583 60.8623 220.153 60.8623 219.659C60.8623 219.165 60.9559 218.737 61.1429 218.376C61.33 218.015 61.5972 217.737 61.9446 217.541C62.2965 217.341 62.7174 217.24 63.2073 217.24C63.5236 217.24 63.822 217.289 64.1026 217.387C64.3876 217.485 64.6215 217.626 64.8041 217.808L64.5235 218.49C64.323 218.321 64.1182 218.198 63.9088 218.122C63.6995 218.042 63.4746 218.002 63.2341 218.002C62.7575 218.002 62.3945 218.147 62.1451 218.436C61.8956 218.721 61.7709 219.129 61.7709 219.659C61.7709 220.189 61.8956 220.599 62.1451 220.888C62.3945 221.178 62.7575 221.322 63.2341 221.322C63.4746 221.322 63.6995 221.285 63.9088 221.209C64.1182 221.129 64.323 221.004 64.5235 220.835L64.8041 221.516C64.6215 221.694 64.3876 221.835 64.1026 221.937C63.822 222.035 63.5236 222.084 63.2073 222.084ZM65.4702 222.017V217.307H66.3053V219.225C66.4167 219.047 66.5659 218.913 66.753 218.824C66.94 218.73 67.1471 218.684 67.3743 218.684C68.1448 218.684 68.5301 219.131 68.5301 220.026V222.017H67.695V220.066C67.695 219.813 67.646 219.628 67.548 219.512C67.4544 219.396 67.3075 219.338 67.107 219.338C66.8621 219.338 66.6661 219.416 66.5191 219.572C66.3766 219.724 66.3053 219.926 66.3053 220.18V222.017H65.4702ZM70.9884 222.084C70.6187 222.084 70.3002 222.015 70.033 221.877C69.7658 221.739 69.5587 221.543 69.4117 221.289C69.2692 221.035 69.1979 220.735 69.1979 220.387C69.1979 220.049 69.2669 219.752 69.405 219.499C69.5475 219.245 69.7413 219.047 69.9862 218.904C70.2357 218.757 70.5185 218.684 70.8347 218.684C71.2979 218.684 71.6631 218.83 71.9304 219.124C72.2021 219.418 72.3379 219.819 72.3379 220.327V220.574H69.9996C70.062 221.158 70.396 221.449 71.0017 221.449C71.1843 221.449 71.367 221.423 71.5496 221.369C71.7322 221.311 71.8992 221.222 72.0506 221.102L72.2845 221.663C72.1286 221.792 71.9326 221.895 71.6965 221.971C71.4605 222.046 71.2244 222.084 70.9884 222.084ZM70.8681 219.251C70.6232 219.251 70.425 219.327 70.2735 219.479C70.1221 219.63 70.0308 219.835 69.9996 220.093H71.6431C71.6253 219.821 71.5496 219.614 71.4159 219.472C71.2868 219.325 71.1042 219.251 70.8681 219.251ZM74.5091 222.084C74.1662 222.084 73.8678 222.015 73.6139 221.877C73.36 221.734 73.1641 221.534 73.026 221.276C72.8879 221.017 72.8189 220.714 72.8189 220.367C72.8189 220.02 72.8879 219.721 73.026 219.472C73.1641 219.218 73.36 219.024 73.6139 218.891C73.8678 218.753 74.1662 218.684 74.5091 218.684C74.7185 218.684 74.9256 218.717 75.1305 218.784C75.3354 218.851 75.5046 218.944 75.6382 219.064L75.391 219.646C75.2752 219.543 75.1438 219.465 74.9969 219.412C74.8543 219.358 74.7163 219.332 74.5826 219.332C74.2931 219.332 74.0682 219.423 73.9079 219.605C73.752 219.784 73.674 220.04 73.674 220.374C73.674 220.703 73.752 220.964 73.9079 221.155C74.0682 221.343 74.2931 221.436 74.5826 221.436C74.7118 221.436 74.8499 221.409 74.9969 221.356C75.1438 221.302 75.2752 221.222 75.391 221.115L75.6382 221.703C75.5046 221.819 75.3331 221.913 75.1238 221.984C74.9189 222.051 74.714 222.084 74.5091 222.084ZM76.1505 222.017V217.307H76.9856V220.14H76.999L78.3151 218.75H79.3239L77.8408 220.314L79.4175 222.017H78.3953L76.999 220.561H76.9856V222.017H76.1505ZM81.1569 222.084C80.8184 222.084 80.5245 222.015 80.2751 221.877C80.0256 221.739 79.8319 221.543 79.6938 221.289C79.5558 221.031 79.4867 220.728 79.4867 220.38C79.4867 220.033 79.5558 219.732 79.6938 219.479C79.8319 219.225 80.0256 219.029 80.2751 218.891C80.5245 218.753 80.8184 218.684 81.1569 218.684C81.4954 218.684 81.7894 218.753 82.0388 218.891C82.2882 219.029 82.482 219.225 82.6201 219.479C82.7581 219.732 82.8272 220.033 82.8272 220.38C82.8272 220.728 82.7581 221.031 82.6201 221.289C82.482 221.543 82.2882 221.739 82.0388 221.877C81.7894 222.015 81.4954 222.084 81.1569 222.084ZM81.1569 221.449C81.4064 221.449 81.6068 221.36 81.7582 221.182C81.9097 221 81.9854 220.732 81.9854 220.38C81.9854 220.024 81.9097 219.759 81.7582 219.585C81.6068 219.407 81.4064 219.318 81.1569 219.318C80.9075 219.318 80.7071 219.407 80.5557 219.585C80.4042 219.759 80.3285 220.024 80.3285 220.38C80.3285 220.732 80.4042 221 80.5557 221.182C80.7071 221.36 80.9075 221.449 81.1569 221.449ZM84.699 222.084C83.8973 222.084 83.4964 221.634 83.4964 220.735V218.75H84.3315V220.748C84.3315 220.98 84.3783 221.151 84.4718 221.262C84.5653 221.374 84.7146 221.429 84.9194 221.429C85.1421 221.429 85.3247 221.354 85.4673 221.202C85.6098 221.046 85.6811 220.841 85.6811 220.588V218.75H86.5162V222.017H85.7011V221.53C85.4829 221.899 85.1488 222.084 84.699 222.084ZM88.8819 222.084C88.0178 222.084 87.5858 221.657 87.5858 220.801V219.378H86.9578V218.75H87.5858V217.775H88.4209V218.75H89.4097V219.378H88.4209V220.755C88.4209 220.968 88.4677 221.129 88.5612 221.236C88.6547 221.343 88.8062 221.396 89.0155 221.396C89.0778 221.396 89.1424 221.389 89.2092 221.376C89.276 221.358 89.3451 221.34 89.4163 221.322L89.5433 221.937C89.4631 221.982 89.3607 222.017 89.236 222.044C89.1157 222.071 88.9977 222.084 88.8819 222.084Z" fill="white"/>
<rect x="14.181" y="208.935" width="121.655" height="22.5349" rx="8.53669" stroke="white" stroke-opacity="0.3" stroke-width="0.742321" stroke-dasharray="0.74 2.97"/>
<path d="M21.9012 34.4978V34.0977L23.1223 32.7882C23.292 32.6046 23.4133 32.4383 23.486 32.2894C23.5622 32.1404 23.6003 31.9897 23.6003 31.8373C23.6003 31.4424 23.3682 31.2449 22.904 31.2449C22.5507 31.2449 22.2337 31.3783 21.9531 31.645L21.7609 31.2345C21.8994 31.0994 22.0761 30.9921 22.2909 30.9124C22.5057 30.8292 22.7291 30.7877 22.9612 30.7877C23.3388 30.7877 23.628 30.8743 23.829 31.0475C24.0333 31.2207 24.1355 31.4684 24.1355 31.7905C24.1355 32.0088 24.0818 32.2218 23.9745 32.4297C23.8705 32.6375 23.706 32.8592 23.4808 33.0948L22.5767 34.0457H24.281V34.4978H21.9012ZM25.1832 34.4978V34.0457H26.0146V31.458L25.365 31.8633L25.1468 31.4632L26.1704 30.8344H26.5498V34.0457H27.3292V34.4978H25.1832ZM27.9975 32.5804V31.962H28.6158V32.5804H27.9975ZM27.9975 34.4978V33.8794H28.6158V34.4978H27.9975ZM29.3657 34.4978V34.0977L30.5868 32.7882C30.7565 32.6046 30.8778 32.4383 30.9505 32.2894C31.0267 32.1404 31.0649 31.9897 31.0649 31.8373C31.0649 31.4424 30.8328 31.2449 30.3686 31.2449C30.0152 31.2449 29.6982 31.3783 29.4176 31.645L29.2254 31.2345C29.364 31.0994 29.5406 30.9921 29.7554 30.9124C29.9702 30.8292 30.1936 30.7877 30.4257 30.7877C30.8033 30.7877 31.0926 30.8743 31.2935 31.0475C31.4979 31.2207 31.6001 31.4684 31.6001 31.7905C31.6001 32.0088 31.5464 32.2218 31.439 32.4297C31.3351 32.6375 31.1705 32.8592 30.9453 33.0948L30.0412 34.0457H31.7456V34.4978H29.3657ZM33.6558 34.5446C33.4202 34.5446 33.1916 34.5082 32.9698 34.4354C32.7516 34.3592 32.5697 34.2536 32.4242 34.1185L32.6061 33.7028C32.9248 33.9591 33.2712 34.0873 33.6454 34.0873C33.8844 34.0873 34.0715 34.0232 34.2066 33.895C34.3417 33.7634 34.4092 33.5919 34.4092 33.3806C34.4092 33.1624 34.3451 32.9839 34.2169 32.8454C34.0888 32.7068 33.9104 32.6375 33.6817 32.6375C33.3596 32.6375 33.1015 32.7709 32.9075 33.0376H32.5334V30.8344H34.7158V31.2865H33.0582V32.4453C33.2522 32.2755 33.4981 32.1907 33.796 32.1907C34.0281 32.1907 34.2291 32.2392 34.3988 32.3361C34.5686 32.4331 34.7002 32.57 34.7937 32.7467C34.8873 32.9199 34.934 33.1225 34.934 33.3546C34.934 33.5902 34.8821 33.798 34.7781 33.9782C34.6742 34.1548 34.527 34.2934 34.3365 34.3939C34.1459 34.4943 33.919 34.5446 33.6558 34.5446Z" fill="white" fill-opacity="0.6"/>
<path d="M21.9012 81.1617V80.7615L23.1223 79.4521C23.292 79.2685 23.4133 79.1022 23.486 78.9532C23.5622 78.8043 23.6003 78.6536 23.6003 78.5012C23.6003 78.1063 23.3682 77.9088 22.904 77.9088C22.5507 77.9088 22.2337 78.0422 21.9531 78.3089L21.7609 77.8984C21.8994 77.7633 22.0761 77.6559 22.2909 77.5762C22.5057 77.4931 22.7291 77.4515 22.9612 77.4515C23.3388 77.4515 23.628 77.5381 23.829 77.7113C24.0333 77.8846 24.1355 78.1322 24.1355 78.4544C24.1355 78.6726 24.0818 78.8857 23.9745 79.0935C23.8705 79.3014 23.706 79.5231 23.4808 79.7587L22.5767 80.7096H24.281V81.1617H21.9012ZM25.1832 81.1617V80.7096H26.0146V78.1218L25.365 78.5272L25.1468 78.127L26.1704 77.4983H26.5498V80.7096H27.3292V81.1617H25.1832ZM27.9975 79.2442V78.6259H28.6158V79.2442H27.9975ZM27.9975 81.1617V80.5433H28.6158V81.1617H27.9975ZM29.3657 81.1617V80.7615L30.5868 79.4521C30.7565 79.2685 30.8778 79.1022 30.9505 78.9532C31.0267 78.8043 31.0649 78.6536 31.0649 78.5012C31.0649 78.1063 30.8328 77.9088 30.3686 77.9088C30.0152 77.9088 29.6982 78.0422 29.4176 78.3089L29.2254 77.8984C29.364 77.7633 29.5406 77.6559 29.7554 77.5762C29.9702 77.4931 30.1936 77.4515 30.4257 77.4515C30.8033 77.4515 31.0926 77.5381 31.2935 77.7113C31.4979 77.8846 31.6001 78.1322 31.6001 78.4544C31.6001 78.6726 31.5464 78.8857 31.439 79.0935C31.3351 79.3014 31.1705 79.5231 30.9453 79.7587L30.0412 80.7096H31.7456V81.1617H29.3657ZM33.7285 81.2084C33.2851 81.2084 32.9421 81.0508 32.6996 80.7356C32.4606 80.4203 32.3411 79.9786 32.3411 79.4105C32.3411 78.7835 32.4762 78.3003 32.7464 77.9608C33.0166 77.6213 33.3907 77.4515 33.8688 77.4515C34.0559 77.4515 34.2447 77.4896 34.4352 77.5658C34.6257 77.6386 34.7851 77.7425 34.9132 77.8776L34.7262 78.2829C34.6015 78.1582 34.4629 78.0647 34.3105 78.0023C34.1615 77.94 34.0108 77.9088 33.8584 77.9088C33.5362 77.9088 33.2885 78.0266 33.1153 78.2621C32.9456 78.4942 32.8607 78.8424 32.8607 79.3066V79.5144C32.93 79.3031 33.0495 79.1386 33.2193 79.0208C33.3925 78.8996 33.5917 78.8389 33.8168 78.8389C34.0316 78.8389 34.2204 78.8892 34.3832 78.9896C34.5495 79.0901 34.6794 79.2286 34.7729 79.4053C34.8665 79.5785 34.9132 79.7777 34.9132 80.0029C34.9132 80.2385 34.863 80.448 34.7626 80.6316C34.6621 80.8118 34.5218 80.9538 34.3417 81.0577C34.165 81.1582 33.9606 81.2084 33.7285 81.2084ZM33.6973 80.7719C33.9086 80.7719 34.0801 80.7026 34.2117 80.5641C34.3434 80.4255 34.4092 80.2454 34.4092 80.0237C34.4092 79.802 34.3434 79.6218 34.2117 79.4833C34.0801 79.3447 33.9086 79.2754 33.6973 79.2754C33.486 79.2754 33.3145 79.3447 33.1829 79.4833C33.0513 79.6218 32.9854 79.802 32.9854 80.0237C32.9854 80.2454 33.0513 80.4255 33.1829 80.5641C33.3145 80.7026 33.486 80.7719 33.6973 80.7719Z" fill="white" fill-opacity="0.6"/>
<path d="M21.9012 127.825V127.425L23.1223 126.116C23.292 125.932 23.4133 125.766 23.486 125.617C23.5622 125.468 23.6003 125.317 23.6003 125.165C23.6003 124.77 23.3682 124.573 22.904 124.573C22.5507 124.573 22.2337 124.706 21.9531 124.973L21.7609 124.562C21.8994 124.427 22.0761 124.32 22.2909 124.24C22.5057 124.157 22.7291 124.115 22.9612 124.115C23.3388 124.115 23.628 124.202 23.829 124.375C24.0333 124.548 24.1355 124.796 24.1355 125.118C24.1355 125.336 24.0818 125.55 23.9745 125.757C23.8705 125.965 23.706 126.187 23.4808 126.422L22.5767 127.373H24.281V127.825H21.9012ZM25.1832 127.825V127.373H26.0146V124.786L25.365 125.191L25.1468 124.791L26.1704 124.162H26.5498V127.373H27.3292V127.825H25.1832ZM27.9975 125.908V125.29H28.6158V125.908H27.9975ZM27.9975 127.825V127.207H28.6158V127.825H27.9975ZM30.4257 127.872C30.1798 127.872 29.9459 127.836 29.7242 127.763C29.5025 127.687 29.3172 127.581 29.1682 127.446L29.3553 127.03C29.5181 127.162 29.6861 127.259 29.8593 127.321C30.0325 127.384 30.2161 127.415 30.4101 127.415C30.6595 127.415 30.8483 127.361 30.9765 127.254C31.1082 127.147 31.174 126.992 31.174 126.791C31.174 126.591 31.1082 126.442 30.9765 126.345C30.8483 126.248 30.6613 126.199 30.4153 126.199H29.8489V125.747H30.3634C30.5816 125.747 30.7531 125.692 30.8778 125.581C31.006 125.47 31.0701 125.317 31.0701 125.123C31.0701 124.947 31.0112 124.812 30.8934 124.718C30.7756 124.621 30.6076 124.573 30.3893 124.573C30.0187 124.573 29.6948 124.706 29.4176 124.973L29.2306 124.562C29.3726 124.42 29.5493 124.311 29.7606 124.235C29.9754 124.155 30.1988 124.115 30.4309 124.115C30.7981 124.115 31.0839 124.2 31.2883 124.37C31.4927 124.536 31.5949 124.768 31.5949 125.066C31.5949 125.267 31.5429 125.444 31.439 125.596C31.3385 125.749 31.1982 125.86 31.0181 125.929C31.2363 125.984 31.4043 126.092 31.5221 126.251C31.6399 126.407 31.6988 126.599 31.6988 126.828C31.6988 127.15 31.5845 127.405 31.3558 127.592C31.1307 127.779 30.8206 127.872 30.4257 127.872ZM32.6477 127.825V127.373H33.4791V124.786L32.8295 125.191L32.6113 124.791L33.635 124.162H34.0143V127.373H34.7937V127.825H32.6477Z" fill="white" fill-opacity="0.6"/>
<path d="M21.9012 174.489V174.089L23.1223 172.78C23.292 172.596 23.4133 172.43 23.486 172.281C23.5622 172.132 23.6003 171.981 23.6003 171.829C23.6003 171.434 23.3682 171.237 22.904 171.237C22.5507 171.237 22.2337 171.37 21.9531 171.637L21.7609 171.226C21.8994 171.091 22.0761 170.984 22.2909 170.904C22.5057 170.821 22.7291 170.779 22.9612 170.779C23.3388 170.779 23.628 170.866 23.829 171.039C24.0333 171.212 24.1355 171.46 24.1355 171.782C24.1355 172 24.0818 172.213 23.9745 172.421C23.8705 172.629 23.706 172.851 23.4808 173.086L22.5767 174.037H24.281V174.489H21.9012ZM25.1832 174.489V174.037H26.0146V171.45L25.365 171.855L25.1468 171.455L26.1704 170.826H26.5498V174.037H27.3292V174.489H25.1832ZM27.9975 172.572V171.954H28.6158V172.572H27.9975ZM27.9975 174.489V173.871H28.6158V174.489H27.9975ZM30.8154 174.489V173.746H29.1682V173.346L30.909 170.826H31.3506V173.294H31.8859V173.746H31.3506V174.489H30.8154ZM30.8154 173.294V171.668L29.7034 173.294H30.8154ZM33.5986 174.536C33.1725 174.536 32.8469 174.375 32.6217 174.053C32.4 173.727 32.2891 173.261 32.2891 172.655C32.2891 172.038 32.4 171.573 32.6217 171.257C32.8469 170.939 33.1725 170.779 33.5986 170.779C34.0281 170.779 34.3538 170.939 34.5755 171.257C34.7972 171.573 34.908 172.037 34.908 172.65C34.908 173.26 34.7955 173.727 34.5703 174.053C34.3486 174.375 34.0247 174.536 33.5986 174.536ZM33.5986 174.089C33.8619 174.089 34.0576 173.973 34.1858 173.741C34.3139 173.509 34.378 173.145 34.378 172.65C34.378 172.155 34.3139 171.794 34.1858 171.569C34.0611 171.34 33.8653 171.226 33.5986 171.226C33.3353 171.226 33.1396 171.34 33.0114 171.569C32.8832 171.798 32.8192 172.158 32.8192 172.65C32.8192 173.145 32.8832 173.509 33.0114 173.741C33.1396 173.973 33.3353 174.089 33.5986 174.089Z" fill="white" fill-opacity="0.6"/>
<path d="M21.9012 221.153V220.753L23.1223 219.444C23.292 219.26 23.4133 219.094 23.486 218.945C23.5622 218.796 23.6003 218.645 23.6003 218.493C23.6003 218.098 23.3682 217.9 22.904 217.9C22.5507 217.9 22.2337 218.034 21.9531 218.3L21.7609 217.89C21.8994 217.755 22.0761 217.647 22.2909 217.568C22.5057 217.485 22.7291 217.443 22.9612 217.443C23.3388 217.443 23.628 217.53 23.829 217.703C24.0333 217.876 24.1355 218.124 24.1355 218.446C24.1355 218.664 24.0818 218.877 23.9745 219.085C23.8705 219.293 23.706 219.515 23.4808 219.75L22.5767 220.701H24.281V221.153H21.9012ZM25.1832 221.153V220.701H26.0146V218.113L25.365 218.519L25.1468 218.119L26.1704 217.49H26.5498V220.701H27.3292V221.153H25.1832ZM27.9975 219.236V218.617H28.6158V219.236H27.9975ZM27.9975 221.153V220.535H28.6158V221.153H27.9975ZM30.8154 221.153V220.41H29.1682V220.01L30.909 217.49H31.3506V219.958H31.8859V220.41H31.3506V221.153H30.8154ZM30.8154 219.958V218.332L29.7034 219.958H30.8154ZM32.4814 221.153V220.753L33.7025 219.444C33.8723 219.26 33.9935 219.094 34.0663 218.945C34.1425 218.796 34.1806 218.645 34.1806 218.493C34.1806 218.098 33.9485 217.9 33.4843 217.9C33.1309 217.9 32.814 218.034 32.5334 218.3L32.3411 217.89C32.4797 217.755 32.6563 217.647 32.8711 217.568C33.0859 217.485 33.3093 217.443 33.5414 217.443C33.919 217.443 34.2083 217.53 34.4092 217.703C34.6136 217.876 34.7158 218.124 34.7158 218.446C34.7158 218.664 34.6621 218.877 34.5547 219.085C34.4508 219.293 34.2862 219.515 34.0611 219.75L33.1569 220.701H34.8613V221.153H32.4814Z" fill="white" fill-opacity="0.6"/>
<path d="M79.598 59.392H75.7731V47.1523H74.2431V59.392H70.4182L75.0081 64.7469L79.598 59.392Z" fill="url(#paint0_linear)" fill-opacity="0.2"/>
<path d="M79.598 106.821H75.7731V94.5811H74.2431V106.821H70.4182L75.0081 112.176L79.598 106.821Z" fill="url(#paint1_linear)" fill-opacity="0.2"/>
<path d="M79.598 152.72H75.7731V140.48H74.2431V152.72H70.4182L75.0081 158.075L79.598 152.72Z" fill="url(#paint2_linear)" fill-opacity="0.2"/>
<path d="M79.598 200.149H75.7731V187.909H74.2431V200.149H70.4182L75.0081 205.503L79.598 200.149Z" fill="url(#paint3_linear)" fill-opacity="0.2"/>
<defs>

<linearGradient id="paint0_linear" x1="75.0081" y1="47.1523" x2="75.0081" y2="64.7469" gradientUnits="userSpaceOnUse">
<stop stop-color="white" stop-opacity="0"/>
<stop offset="1" stop-color="white"/>
</linearGradient>
<linearGradient id="paint1_linear" x1="75.0081" y1="94.5811" x2="75.0081" y2="112.176" gradientUnits="userSpaceOnUse">
<stop stop-color="white" stop-opacity="0"/>
<stop offset="1" stop-color="white"/>
</linearGradient>
<linearGradient id="paint2_linear" x1="75.0081" y1="140.48" x2="75.0081" y2="158.075" gradientUnits="userSpaceOnUse">
<stop stop-color="white" stop-opacity="0"/>
<stop offset="1" stop-color="white"/>
</linearGradient>
<linearGradient id="paint3_linear" x1="75.0081" y1="187.909" x2="75.0081" y2="205.503" gradientUnits="userSpaceOnUse">
<stop stop-color="white" stop-opacity="0"/>
<stop offset="1" stop-color="white"/>
</linearGradient>
</defs>
</svg>
