<svg viewBox="0 0 450 275" fill="none" xmlns="http://www.w3.org/2000/svg">
<g clip-path="url(#clip0)" transform="matrix(1, 0, 0, 1, -250, -188)">
<path d="M250.825 285.875L252.001 298.08C252.135 299.469 253.151 300.782 254.855 301.766L523.024 456.593C528.764 459.907 538.069 459.907 543.809 456.593L693.27 370.301C695.972 368.742 697.515 366.636 697.573 364.431L697.864 353.41C697.884 352.645 697.366 351.908 696.429 351.367L418.93 191.153C417.017 190.048 413.915 190.048 412.002 191.153L252.609 283.179C251.377 283.89 250.728 284.871 250.825 285.875Z" fill="#D5DFE9"/>
<path d="M255.521 289.498C251.695 287.288 251.695 283.707 255.521 281.498L408.803 193C412.63 190.791 418.833 190.791 422.66 193L694.881 350.167C698.707 352.376 698.707 355.958 694.881 358.167L541.599 446.665C537.772 448.874 531.569 448.874 527.742 446.665L255.521 289.498Z" fill="#F8FAFD"/>
<rect width="17.8416" height="17.8447" rx="2" transform="matrix(0.866025 -0.5 0.866025 0.5 265.59 286.391)" fill="#E6EFFA"/>
<rect width="17.8416" height="17.8447" rx="2" transform="matrix(0.866025 -0.5 0.866025 0.5 401.562 207.888)" fill="#E6EFFA"/>
<path fill-rule="evenodd" clip-rule="evenodd" d="M353.118 249.501L350.794 253.819L346.271 250.127L338.438 250.184L343.123 246.56L340.606 242.277L348.025 243.73L354.302 241.025L354.202 245.547L360.598 248.159L353.118 249.501Z" fill="#305EED"/>
<rect width="82.0714" height="115.99" transform="matrix(0.866025 -0.5 0.866025 0.5 290.317 300.666)" fill="#E6EFFA"/>
<rect width="80.2872" height="88.3011" transform="matrix(0.866025 -0.5 0.866025 0.5 465.75 401.952)" fill="#E6EFFA"/>
<rect width="75.8268" height="88.3011" transform="matrix(0.866025 -0.5 0.866025 0.5 547.641 354.672)" fill="#E6EFFA"/>
<rect width="62.4456" height="17.8447" transform="matrix(0.866025 -0.5 0.866025 0.5 389.208 264.985)" fill="#E6EFFA"/>
<rect width="80.2872" height="8.92233" transform="matrix(0.866025 -0.5 0.866025 0.5 410.844 277.476)" fill="#E6EFFA"/>
<path d="M443.836 288.034L456.601 295.404L453.001 297.483L444.465 292.555L443.017 295.129L439.645 293.182L441.474 289.398L443.836 288.034ZM454.109 287.228L455.71 286.304C457.196 285.446 458.707 284.999 460.244 284.962C461.781 284.926 463.191 285.278 464.474 286.018C465.808 286.788 466.43 287.676 466.341 288.68C466.252 289.685 465.465 290.616 463.979 291.474C462.556 292.296 460.981 292.765 459.254 292.882C457.514 292.992 455.919 292.673 454.471 291.925L457.291 289.549C457.99 289.938 458.663 290.129 459.311 290.121C459.959 290.114 460.517 289.975 460.987 289.703C461.445 289.439 461.686 289.153 461.711 288.845C461.737 288.537 461.534 288.259 461.102 288.009C460.708 287.782 460.244 287.683 459.711 287.712C459.165 287.734 458.65 287.885 458.168 288.163L453.652 290.77L446.641 286.392L455.348 281.365L458.473 283.169L452.833 286.425L454.109 287.228ZM474.153 278.978L478.402 277.339C479.685 278.329 480.276 279.389 480.174 280.518C480.085 281.64 479.285 282.637 477.773 283.51C476.402 284.302 474.833 284.753 473.067 284.863C471.315 284.966 469.568 284.727 467.828 284.148L466.189 285.094L464.36 284.038L465.732 283.246L465.313 283.004L464.894 282.762L463.522 283.554L461.712 282.509L463.351 281.563C462.334 280.566 461.922 279.557 462.112 278.538C462.29 277.511 463.065 276.602 464.437 275.81C465.935 274.945 467.644 274.486 469.562 274.435C471.48 274.384 473.309 274.714 475.049 275.425L472.191 277.845C470.197 277.031 468.641 276.947 467.523 277.592C466.723 278.054 466.577 278.659 467.085 279.407L469.886 277.79L471.334 279.044L468.533 280.661L468.933 280.914C469.123 281.024 469.27 281.101 469.371 281.145L472.039 279.605L473.506 280.87L471.562 281.992C472.845 282.278 473.887 282.19 474.687 281.728C475.779 281.097 475.601 280.181 474.153 278.978Z" fill="#305EED"/>
<rect width="193" height="50" transform="matrix(0.866025 -0.5 0.866025 0.5 399.277 372.5)" fill="#53D084" fill-opacity="0.32"/>
<rect width="82" height="10" transform="matrix(0.866025 -0.5 0.866025 0.5 459.898 352.5)" fill="#53D084" fill-opacity="0.32"/>
<rect width="122" height="6" transform="matrix(0.866025 -0.5 0.866025 0.5 472.889 360)" fill="#53D084" fill-opacity="0.32"/>
<path fill-rule="evenodd" clip-rule="evenodd" d="M450.349 371.598L450.349 371.598C450.346 371.606 450.342 371.613 450.339 371.622L452.31 372.76L444.48 377.281L433.387 370.876C433.028 370.669 433.028 370.329 433.387 370.122L439.911 366.355C440.27 366.148 440.857 366.148 441.216 366.355L441.268 366.386C441.445 366.239 441.647 366.107 441.869 365.979C442.064 365.866 442.267 365.764 442.475 365.674C442.475 365.652 442.482 365.631 442.488 365.611C442.491 365.603 442.493 365.595 442.495 365.587C441.418 364.98 439.676 364.984 438.606 365.602L432.081 369.369C431.005 369.99 431.005 371.007 432.082 371.629L443.828 378.411C444.905 379.033 446.667 379.033 447.743 378.411L454.268 374.644C455.344 374.023 455.344 373.005 454.267 372.384L451.605 370.846C451.429 370.993 451.226 371.125 451.005 371.253C450.802 371.37 450.587 371.479 450.359 371.574C450.355 371.583 450.352 371.59 450.349 371.598ZM448.279 362.965C448.02 362.904 447.723 362.939 447.526 363.054L446.393 363.719L445.242 363.064C445.043 362.951 444.745 362.918 444.487 362.981C444.23 363.044 444.063 363.19 444.065 363.352L444.09 365.235C444.091 365.341 444.165 365.442 444.296 365.517L445.742 366.34C445.742 366.343 445.74 366.346 445.739 366.348C445.737 366.352 445.735 366.355 445.735 366.359L445.765 368.619C445.767 368.84 446.08 369.017 446.462 369.016C446.653 369.015 446.826 368.969 446.95 368.897C447.075 368.824 447.15 368.724 447.149 368.613L447.12 366.353C447.12 366.349 447.118 366.346 447.117 366.342C447.115 366.34 447.114 366.337 447.114 366.334L448.539 365.499C448.668 365.424 448.739 365.322 448.738 365.215L448.713 363.332C448.709 363.17 448.538 363.025 448.279 362.965ZM448.505 366.653L448.968 366.386C449.223 366.48 449.471 366.593 449.692 366.721C451.507 367.746 451.526 369.438 449.739 370.485C447.957 371.528 445.034 371.543 443.213 370.515C441.399 369.482 441.386 367.794 443.167 366.743C443.389 366.615 443.624 366.502 443.878 366.401L444.355 366.676L444.368 367.565C443.415 368.198 443.461 369.158 444.512 369.757C445.602 370.372 447.357 370.368 448.427 369.735C449.458 369.132 449.49 368.179 448.518 367.557L448.505 366.653Z" fill="#53D084"/>
</g>
<defs>
<clipPath id="clip0">
<rect width="211" height="346" fill="white" transform="matrix(0.866025 -0.5 0.866025 0.5 233 294.5)"/>
</clipPath>
</defs>
</svg>
