<svg width="134" height="224" viewBox="0 0 140 230" fill="none" xmlns="http://www.w3.org/2000/svg">
<g transform="matrix(1,0,0,1,-18,-134)">
<path d="M28.4083 136.093L20.8476 144.544C19.9869 145.506 19.511 146.752 19.511 148.043V351.163C19.511 355.51 23.0352 359.034 27.3824 359.034H140.589C142.635 359.034 144.601 358.237 146.07 356.813L153.409 349.694C153.918 349.199 154.206 348.52 154.206 347.81V137.624C154.206 136.175 153.031 135 151.582 135H30.8527C29.9195 135 29.0305 135.398 28.4083 136.093Z" fill="#D5DFE9"/>
<path d="M27.8103 140.248C27.8103 137.349 30.1598 135 33.0579 135H149.159C152.057 135 154.406 137.349 154.406 140.248V346.437C154.406 349.335 152.057 351.684 149.159 351.684H33.0579C30.1597 351.684 27.8103 349.335 27.8103 346.437V140.248Z" fill="#F8FAFD"/>
<rect x="33.6619" y="142.023" width="11.7033" height="11.7053" rx="1.31191" fill="#E6EFFA"/>
<rect x="136.651" y="142.023" width="11.7033" height="11.7053" rx="1.31191" fill="#E6EFFA"/>
<path fill-rule="evenodd" clip-rule="evenodd" d="M91.008 150.973L87.2951 152.926L88.0042 148.791L85.0003 145.862L89.1515 145.259L91.008 141.496L92.8645 145.259L97.0157 145.862L94.0119 148.791L94.721 152.926L91.008 150.973Z" fill="#305EED"/>
<rect x="33.6619" y="160.752" width="53.8351" height="76.0845" fill="#E6EFFA"/>
<rect x="33.6619" y="293.63" width="52.6648" height="57.9215" fill="#E6EFFA"/>
<rect x="95.6895" y="293.63" width="49.739" height="57.9215" fill="#E6EFFA"/>
<rect x="94.519" y="174.798" width="40.9615" height="11.7053" fill="#E6EFFA"/>
<rect x="94.519" y="191.185" width="52.6648" height="5.85265" fill="#E6EFFA"/>
<path d="M99.9695 210.518V220.187H97.242V213.722L95.0052 214.862V212.308L98.18 210.518H99.9695ZM104.388 213.881H105.601C106.726 213.881 107.592 214.16 108.198 214.718C108.804 215.276 109.107 216.041 109.107 217.012C109.107 218.023 108.761 218.84 108.068 219.466C107.376 220.091 106.466 220.404 105.341 220.404C104.263 220.404 103.359 220.115 102.628 219.538C101.897 218.951 101.502 218.138 101.444 217.099L104.071 216.608C104.08 217.128 104.21 217.508 104.46 217.748C104.711 217.989 105.014 218.109 105.37 218.109C105.716 218.109 105.995 218.013 106.207 217.82C106.418 217.628 106.524 217.368 106.524 217.041C106.524 216.743 106.413 216.502 106.192 216.32C105.971 216.127 105.677 216.031 105.312 216.031H101.892L102.108 210.504H108.703V212.871H104.432L104.388 213.881ZM117.391 216.06L120.075 216.594C119.912 217.729 119.44 218.648 118.661 219.35C117.891 220.052 116.934 220.404 115.789 220.404C114.75 220.404 113.86 220.105 113.12 219.509C112.388 218.912 111.883 218.095 111.604 217.056H110.363V215.67H111.402V215.353V215.035H110.363V213.664H111.604C111.874 212.625 112.379 211.808 113.12 211.211C113.86 210.605 114.75 210.302 115.789 210.302C116.924 210.302 117.872 210.648 118.632 211.341C119.392 212.034 119.868 212.943 120.061 214.068L117.391 214.574C117.17 213.284 116.636 212.64 115.789 212.64C115.183 212.64 114.731 212.981 114.433 213.664H116.554L116.28 215.035H114.159L114.144 215.353C114.144 215.497 114.149 215.603 114.159 215.67H116.179L115.905 217.056H114.433C114.731 217.729 115.183 218.066 115.789 218.066C116.617 218.066 117.151 217.397 117.391 216.06Z" fill="#305EED"/>
<rect x="27.8071" y="249.136" width="126.599" height="32.7977" fill="#53D084" fill-opacity="0.32"/>
<rect x="63.8848" y="258.975" width="53.7883" height="6.55955" fill="#53D084" fill-opacity="0.32"/>
<rect x="63.8848" y="268.815" width="80.0265" height="3.93573" fill="#53D084" fill-opacity="0.32"/>
<path fill-rule="evenodd" clip-rule="evenodd" d="M47.7605 267.874C47.7531 267.879 47.7469 267.883 47.7407 267.886C47.7345 267.89 47.7284 267.894 47.7209 267.899V269.391H41.7906V260.989C41.7906 260.717 42.013 260.494 42.2848 260.494H47.2268C47.4986 260.494 47.7209 260.717 47.7209 260.989V261.028C47.884 260.998 48.0471 260.989 48.2151 260.989C48.3634 260.989 48.5067 260.998 48.6451 261.018C48.6591 261.004 48.6756 260.993 48.691 260.982C48.6974 260.977 48.7036 260.973 48.7093 260.969C48.6994 260.163 48.0372 259.506 47.2268 259.506H42.2848C41.4694 259.506 40.8022 260.173 40.8022 260.989V269.886C40.8022 270.701 41.4694 271.368 42.2848 271.368H47.2268C48.0422 271.368 48.7093 270.701 48.7093 269.886V267.869C48.5462 267.899 48.3832 267.908 48.2151 267.908C48.0619 267.908 47.9087 267.899 47.7605 267.874ZM52.6199 261.439C52.5616 261.301 52.4257 261.212 52.2759 261.213L51.4111 261.219L51.4047 260.354C51.4037 260.205 51.3123 260.07 51.1734 260.014C51.0345 259.958 50.8754 259.99 50.7701 260.097L49.544 261.342C49.4749 261.412 49.4368 261.507 49.4373 261.605L49.4452 262.692C49.4431 262.694 49.4407 262.696 49.4383 262.697C49.4356 262.698 49.4328 262.7 49.4304 262.702L47.9587 264.196C47.8149 264.342 47.8168 264.577 47.9626 264.72C48.0358 264.792 48.1307 264.828 48.2255 264.827C48.3204 264.827 48.4148 264.79 48.487 264.716L49.9587 263.223C49.9611 263.22 49.9626 263.218 49.9641 263.215C49.9654 263.212 49.9667 263.21 49.9686 263.208L51.0558 263.2C51.1541 263.199 51.248 263.159 51.3172 263.089L52.5433 261.845C52.6476 261.737 52.6782 261.577 52.6199 261.439ZM50.2859 263.944H50.6367C50.6713 264.103 50.6911 264.271 50.6911 264.439C50.7059 265.798 49.6039 266.915 48.2399 266.925C46.8809 266.935 45.764 265.837 45.7492 264.473C45.7393 263.109 46.8413 261.997 48.2053 261.982C48.3733 261.982 48.5364 261.997 48.6995 262.027V262.387L48.1213 262.976C47.3454 263.03 46.7326 263.677 46.7375 264.468C46.7474 265.284 47.4146 265.946 48.2349 265.936C49.0207 265.931 49.6582 265.318 49.6978 264.542L50.2859 263.944Z" fill="#53D084"/>
</g>
</svg>
