<svg width="1024" height="760" viewBox="0 0 1024 760" fill="none" xmlns="http://www.w3.org/2000/svg">
<g transform="matrix(1,0,0,1,-100,-60)">
<path d="M117.989 474.051C109.933 469.4 109.933 461.859 117.989 457.208L499.897 236.713C507.953 232.062 521.015 232.062 529.071 236.713L1014.44 516.944C1022.5 521.595 1022.5 529.136 1014.44 533.787L632.536 754.282C624.48 758.933 611.419 758.933 603.363 754.282L117.989 474.051Z" fill="#F8FAFD"/>
<path d="M321.062 470.804L333.761 463.473C336.469 461.909 339.433 461.113 342.654 461.085C345.874 461.057 348.778 461.789 351.364 463.282C354.048 464.832 355.341 466.579 355.243 468.522C355.146 470.438 353.657 472.227 350.778 473.889L345.618 476.868L352.608 480.904L345.582 484.961L321.062 470.804ZM340.055 473.657L344.374 471.164C345.35 470.6 345.862 469.966 345.911 469.262C345.984 468.544 345.557 467.917 344.63 467.381C343.752 466.874 342.703 466.649 341.483 466.705C340.287 466.748 339.202 467.05 338.226 467.614L333.907 470.107L340.055 473.657ZM384.194 455.822L390.123 459.245L370.616 470.507L346.096 456.351L365.456 445.173L371.385 448.596L359.052 455.717L362.675 457.809L374.02 451.258L379.4 454.364L368.054 460.915L371.714 463.027L384.194 455.822ZM417.101 443.669L408.647 448.55L394.082 447.916L393.13 448.465L400.962 452.987L393.935 457.044L369.415 442.887L382.481 435.344C385.116 433.823 387.995 433.034 391.117 432.978C394.265 432.907 397.071 433.583 399.535 435.006C401.487 436.133 402.646 437.408 403.012 438.83C403.353 440.239 402.89 441.634 401.621 443.014L417.101 443.669ZM387.568 445.254L392.289 442.528C393.265 441.965 393.801 441.373 393.899 440.753C393.972 440.119 393.606 439.57 392.801 439.105C392.02 438.654 391.105 438.464 390.056 438.535C388.983 438.591 387.958 438.901 386.982 439.464L382.261 442.19L387.568 445.254ZM404.362 422.077C407.265 420.401 410.266 419.387 413.365 419.034C416.463 418.682 419.367 419.034 422.075 420.091L416.585 424.866C415.292 424.373 414.048 424.19 412.852 424.317C411.657 424.444 410.644 424.746 409.815 425.225C409.034 425.676 408.583 426.148 408.461 426.641C408.339 427.106 408.583 427.514 409.193 427.866C410.022 428.345 411.023 428.374 412.194 427.951L418.342 425.754C424.173 423.739 428.931 423.796 432.615 425.923C434.445 426.979 435.457 428.183 435.652 429.536C435.872 430.874 435.494 432.135 434.518 433.318C433.542 434.501 432.151 435.614 430.346 436.656C427.32 438.403 424.1 439.473 420.684 439.868C417.268 440.262 414.231 439.889 411.572 438.748L417.39 433.825C420.123 434.755 422.599 434.579 424.82 433.297C425.674 432.804 426.198 432.304 426.393 431.797C426.589 431.289 426.369 430.853 425.735 430.486C424.905 430.008 423.795 430.015 422.404 430.508L416.11 432.747C410.571 434.733 405.96 434.663 402.276 432.536C399.763 431.085 398.738 429.409 399.202 427.507C399.665 425.606 401.385 423.796 404.362 422.077ZM425.317 414.289C425.39 411.373 427.281 408.845 430.989 406.704C434.698 404.563 439.065 403.478 444.091 403.45C449.117 403.394 453.423 404.401 457.01 406.471C460.596 408.542 462.353 411.035 462.28 413.951C462.206 416.839 460.316 419.353 456.607 421.494C452.899 423.635 448.531 424.734 443.505 424.79C438.479 424.819 434.173 423.797 430.587 421.727C427 419.656 425.243 417.177 425.317 414.289ZM444.054 419.318C446.445 419.346 448.519 418.853 450.276 417.839C452.032 416.825 452.874 415.634 452.801 414.268C452.728 412.874 451.764 411.641 449.91 410.57C448.08 409.514 445.957 408.965 443.542 408.922C441.151 408.866 439.077 409.345 437.32 410.359C435.564 411.373 434.722 412.578 434.795 413.972C434.893 415.353 435.857 416.571 437.686 417.628C439.541 418.698 441.663 419.262 444.054 419.318ZM472.425 383.414L496.945 397.571L491.126 400.931L467.229 400.149L479.855 407.439L472.828 411.495L448.308 397.339L454.09 394L478.427 395.036L465.362 387.492L472.425 383.414ZM526.809 380.33L519.233 384.703L514.146 383.33L504.484 388.908L506.827 391.866L499.288 396.219L484.649 376.357L492.407 371.878L526.809 380.33ZM506.131 381.154L496.104 378.449L500.751 384.26L506.131 381.154ZM541.812 364.695L547.85 368.181L529.259 378.915L504.739 364.758L511.765 360.701L530.247 371.372L541.812 364.695ZM377.487 489.227L387.844 483.248C391.845 480.938 396.2 479.733 400.909 479.635C405.618 479.508 409.802 480.501 413.462 482.614C417.121 484.727 418.854 487.15 418.658 489.882C418.463 492.587 416.365 495.094 412.364 497.404L402.007 503.384L377.487 489.227ZM403.105 495.904L405.923 494.277C407.948 493.108 408.997 491.826 409.07 490.432C409.143 489.037 408.24 487.798 406.362 486.713C404.483 485.628 402.336 485.107 399.921 485.149C397.505 485.192 395.285 485.797 393.26 486.966L390.442 488.593L403.105 495.904ZM420.629 471.292L433.072 478.476L437.207 476.088L443.246 479.574L427.912 488.428L421.873 484.941L426.009 482.554L413.566 475.37L409.43 477.757L403.392 474.271L418.726 465.418L424.764 468.904L420.629 471.292ZM431.571 457.368C434.474 455.692 437.475 454.677 440.574 454.325C443.672 453.973 446.576 454.325 449.284 455.382L443.794 460.157C442.501 459.664 441.257 459.481 440.061 459.608C438.866 459.734 437.853 460.037 437.024 460.516C436.243 460.967 435.792 461.439 435.67 461.932C435.548 462.397 435.792 462.805 436.402 463.157C437.231 463.636 438.232 463.664 439.403 463.242L445.551 461.044C451.382 459.03 456.14 459.086 459.824 461.213C461.654 462.27 462.666 463.474 462.861 464.827C463.081 466.165 462.703 467.425 461.727 468.609C460.751 469.792 459.36 470.905 457.555 471.947C454.529 473.694 451.309 474.764 447.893 475.159C444.477 475.553 441.44 475.18 438.781 474.039L444.599 469.116C447.332 470.045 449.808 469.869 452.029 468.588C452.883 468.095 453.407 467.594 453.602 467.087C453.798 466.58 453.578 466.144 452.944 465.777C452.114 465.298 451.004 465.305 449.613 465.799L443.319 468.038C437.78 470.024 433.169 469.954 429.485 467.827C426.972 466.376 425.947 464.7 426.411 462.798C426.874 460.897 428.594 459.086 431.571 457.368ZM477.485 453.13C478.924 452.299 479.705 451.369 479.827 450.341C479.973 449.298 479.412 448.214 478.144 447.087L486.78 443.96C489.22 445.988 490.172 448.157 489.635 450.468C489.098 452.749 487.159 454.855 483.816 456.785C480.108 458.926 475.74 460.025 470.714 460.081C465.688 460.11 461.382 459.088 457.796 457.018C454.209 454.947 452.452 452.468 452.526 449.58C452.599 446.664 454.49 444.136 458.198 441.995C461.321 440.192 464.908 439.107 468.958 438.741C473.032 438.36 476.765 438.825 480.156 440.135L474.813 445.164C472.935 444.474 471.105 444.178 469.324 444.277C467.567 444.361 465.969 444.819 464.529 445.65C462.797 446.65 461.968 447.847 462.041 449.242C462.114 450.637 463.066 451.862 464.895 452.919C466.725 453.975 468.848 454.524 471.263 454.567C473.679 454.609 475.753 454.13 477.485 453.13ZM481.241 433.001C481.315 430.085 483.205 427.557 486.914 425.416C490.622 423.274 494.99 422.19 500.016 422.162C505.042 422.105 509.348 423.112 512.934 425.183C516.521 427.254 518.278 429.747 518.204 432.663C518.131 435.551 516.24 438.065 512.532 440.206C508.823 442.347 504.456 443.446 499.43 443.502C494.404 443.53 490.098 442.509 486.511 440.439C482.925 438.368 481.168 435.889 481.241 433.001ZM499.979 438.03C502.37 438.058 504.444 437.565 506.201 436.551C507.957 435.537 508.799 434.346 508.726 432.98C508.653 431.585 507.689 430.353 505.835 429.282C504.005 428.226 501.882 427.676 499.467 427.634C497.076 427.578 495.002 428.057 493.245 429.071C491.489 430.085 490.647 431.29 490.72 432.684C490.818 434.065 491.781 435.283 493.611 436.339C495.465 437.41 497.588 437.973 499.979 438.03ZM526.923 402.95L540.354 410.705C543.892 412.747 545.697 414.973 545.77 417.382C545.844 419.762 544.197 421.924 540.83 423.868C537.365 425.869 533.535 426.869 529.338 426.869C525.142 426.869 521.263 425.84 517.7 423.784L504.269 416.029L511.332 411.951L524.764 419.706C526.423 420.664 528.118 421.178 529.851 421.248C531.583 421.319 533.12 420.967 534.462 420.192C535.706 419.473 536.231 418.635 536.036 417.677C535.84 416.691 534.925 415.727 533.291 414.783L519.86 407.028L526.923 402.95ZM555.243 386.6L579.763 400.756L573.944 404.116L550.046 403.334L562.672 410.624L555.646 414.68L531.126 400.524L536.908 397.185L561.245 398.221L548.18 390.677L555.243 386.6Z" fill="#305EED"/>
<rect width="115.118" height="24.4093" rx="2.41478" transform="matrix(0.866025 -0.5 -0.866025 -0.5 301.022 399.829)" fill="#C7E1FF"/>
<rect width="264.169" height="16.2729" rx="2.41478" transform="matrix(0.866025 -0.5 -0.866025 -0.5 416.635 541.43)" fill="#C7E1FF"/>
<rect width="238.059" height="16.2729" rx="2.41478" transform="matrix(0.866025 -0.5 -0.866025 -0.5 449.256 547.006)" fill="#C7E1FF"/>
<rect width="165.361" height="16.2728" rx="2.41478" transform="matrix(0.866025 -0.5 -0.866025 -0.5 501.974 540.979)" fill="#C7E1FF"/>
<rect width="113.384" height="120.419" rx="2.41478" transform="matrix(0.866025 -0.5 -0.866025 -0.5 599.027 707.105)" fill="#C7E1FF"/>
<rect width="113.384" height="120.419" rx="2.41478" transform="matrix(0.866025 -0.5 -0.866025 -0.5 717.183 638.887)" fill="#C7E1FF"/>
<rect width="113.384" height="120.419" rx="2.41478" transform="matrix(0.866025 -0.5 -0.866025 -0.5 834.292 571.274)" fill="#C7E1FF"/>
<g filter="url(#filter0_d)">
<g filter="url(#filter1_b)">
<path d="M232.317 237.299C228.424 235.051 228.424 231.408 232.317 229.16L495.189 77.3905C499.082 75.1431 505.393 75.1431 509.286 77.3906L841.869 269.408C845.762 271.655 845.762 275.299 841.869 277.546L578.996 429.316C575.104 431.563 568.792 431.563 564.9 429.316L232.317 237.299Z" fill="#53D084"/>
<path d="M232.757 237.045C229.108 234.938 229.108 231.521 232.757 229.414L495.63 77.6449C499.279 75.5379 505.196 75.5379 508.845 77.6449L841.429 269.662C845.078 271.769 845.078 275.185 841.429 277.292L578.556 429.061C574.906 431.168 568.99 431.168 565.34 429.061L232.757 237.045Z" stroke="#329B5B" stroke-width="1.01734"/>
</g>
<path d="M346.773 250.978L351.778 261.328L356.833 264.246L351.901 267.093L346.847 264.175L329.142 261.157L334.345 258.153L344.652 259.947L341.521 254.01L346.773 250.978ZM351.313 250.834C351.362 248.869 352.636 247.166 355.135 245.723C357.633 244.281 360.576 243.55 363.962 243.531C367.348 243.493 370.25 244.171 372.666 245.567C375.083 246.962 376.266 248.642 376.217 250.606C376.168 252.552 374.894 254.246 372.395 255.688C369.896 257.131 366.954 257.871 363.568 257.909C360.181 257.928 357.28 257.24 354.864 255.845C352.447 254.45 351.264 252.78 351.313 250.834ZM363.938 254.222C365.548 254.241 366.946 253.909 368.129 253.226C369.313 252.542 369.88 251.74 369.831 250.82C369.781 249.88 369.132 249.05 367.883 248.328C366.65 247.617 365.22 247.246 363.592 247.218C361.981 247.18 360.584 247.503 359.401 248.186C358.217 248.869 357.65 249.681 357.699 250.62C357.765 251.55 358.414 252.371 359.647 253.083C360.896 253.805 362.327 254.184 363.938 254.222ZM382.091 230.587L391.14 235.812C393.524 237.188 394.74 238.687 394.79 240.31C394.839 241.914 393.729 243.371 391.461 244.681C389.127 246.028 386.546 246.702 383.718 246.702C380.891 246.702 378.277 246.009 375.877 244.624L366.828 239.399L371.587 236.652L380.636 241.876C381.754 242.522 382.897 242.868 384.064 242.915C385.231 242.963 386.266 242.726 387.17 242.204C388.009 241.72 388.362 241.155 388.231 240.51C388.099 239.845 387.483 239.195 386.381 238.559L377.332 233.335L382.091 230.587ZM410.559 214.151L427.08 223.689L422.444 226.365L414.973 222.052L418.77 228.487L415.688 230.266L404.592 228.102L412.014 232.387L407.378 235.064L390.858 225.526L395.863 222.636L409.721 225.056L405.554 217.041L410.559 214.151ZM424.308 210.911L432.691 215.751L435.478 214.143L439.546 216.492L429.215 222.457L425.146 220.108L427.932 218.499L419.549 213.659L416.763 215.267L412.694 212.918L423.026 206.954L427.094 209.302L424.308 210.911ZM439.625 205.057L448.823 199.747C449.776 200.222 450.351 200.516 450.549 200.63C453.08 202.091 454.33 203.762 454.297 205.641C454.264 207.501 452.965 209.171 450.401 210.652C447.869 212.113 444.902 212.868 441.499 212.915C438.097 212.944 435.187 212.26 432.771 210.865C430.354 209.47 429.179 207.795 429.245 205.84C429.31 203.866 430.601 202.153 433.116 200.701C435.072 199.571 437.225 198.831 439.576 198.48C441.927 198.129 444.154 198.247 446.258 198.836L442.658 202.309C440.735 201.958 438.976 202.243 437.382 203.164C436.165 203.866 435.582 204.687 435.631 205.626C435.664 206.557 436.305 207.382 437.554 208.104C438.804 208.825 440.25 209.195 441.894 209.214C443.521 209.223 444.952 208.872 446.184 208.16C447.943 207.145 448.469 206.044 447.762 204.858L443.521 207.306L439.625 205.057ZM460.197 185.493L476.717 195.031L471.958 197.779L465.671 194.148L459.629 197.636L465.917 201.266L461.183 204L444.662 194.462L449.397 191.728L455.561 195.287L461.602 191.799L455.438 188.24L460.197 185.493ZM481.492 177.896L476.314 180.885L488.766 188.074L484.007 190.822L471.555 183.633L466.377 186.622L462.309 184.273L477.424 175.547L481.492 177.896ZM510.49 170.834L514.559 173.183L502.032 180.415L485.512 170.877L490.246 168.144L502.698 175.333L510.49 170.834ZM511.28 160.697L519.664 165.538L522.45 163.929L526.519 166.278L516.187 172.243L512.119 169.894L514.905 168.285L506.522 163.445L503.735 165.054L499.667 162.705L509.998 156.74L514.067 159.089L511.28 160.697ZM545.381 155.388L539.661 158.69L530.143 157.608L530.636 160.712L533.398 162.306L528.664 165.04L512.143 155.502L516.877 152.768L524.003 156.882L522.894 149.295L528.269 146.191L529.502 153.679L545.381 155.388ZM556.003 144.643L559.998 146.949L546.855 154.537L530.335 144.999L543.379 137.468L547.373 139.774L539.063 144.572L541.505 145.981L549.148 141.568L552.773 143.66L545.129 148.074L547.595 149.497L556.003 144.643ZM378.19 271.537L373.012 274.527L385.464 281.716L380.705 284.464L368.253 277.274L363.075 280.264L359.007 277.915L374.122 269.188L378.19 271.537ZM391.809 258.976L408.329 268.515L403.571 271.262L397.283 267.632L391.242 271.12L397.529 274.75L392.795 277.483L376.275 267.945L381.009 265.212L387.173 268.771L393.214 265.283L387.05 261.724L391.809 258.976ZM405.535 255.75L413.918 260.59L416.705 258.981L420.773 261.33L410.442 267.295L406.373 264.946L409.159 263.338L400.776 258.497L397.989 260.106L393.921 257.757L404.252 251.792L408.321 254.141L405.535 255.75ZM412.907 246.368C414.863 245.239 416.885 244.556 418.973 244.318C421.06 244.081 423.016 244.318 424.841 245.03L421.142 248.248C420.271 247.915 419.433 247.792 418.627 247.877C417.822 247.963 417.14 248.167 416.581 248.49C416.055 248.793 415.751 249.111 415.669 249.443C415.586 249.757 415.751 250.032 416.162 250.269C416.721 250.592 417.395 250.611 418.184 250.326L422.326 248.846C426.255 247.488 429.46 247.526 431.942 248.959C433.175 249.671 433.858 250.483 433.989 251.394C434.137 252.295 433.882 253.145 433.225 253.942C432.567 254.739 431.63 255.489 430.414 256.191C428.375 257.368 426.206 258.089 423.904 258.355C421.603 258.621 419.556 258.369 417.764 257.601L421.685 254.284C423.526 254.91 425.195 254.791 426.69 253.928C427.266 253.596 427.619 253.259 427.751 252.917C427.882 252.575 427.734 252.281 427.307 252.034C426.748 251.712 426 251.716 425.063 252.049L420.822 253.558C417.09 254.896 413.984 254.848 411.501 253.415C409.808 252.438 409.118 251.308 409.43 250.027C409.743 248.746 410.901 247.526 412.907 246.368ZM439.835 235.947L448.218 240.787L451.004 239.178L455.073 241.527L444.741 247.492L440.673 245.143L443.459 243.535L435.076 238.694L432.289 240.303L428.221 237.954L438.552 231.989L442.621 234.338L439.835 235.947ZM459.215 224.757L454.037 227.747L466.489 234.936L461.73 237.684L449.278 230.495L444.1 233.484L440.032 231.135L455.147 222.408L459.215 224.757ZM482.968 220.809L486.963 223.116L473.82 230.704L457.3 221.165L470.343 213.635L474.338 215.941L466.028 220.738L468.47 222.148L476.113 217.735L479.738 219.827L472.094 224.24L474.56 225.664L482.968 220.809ZM492.712 200.72L509.233 210.258L504.597 212.934L497.126 208.621L500.923 215.055L497.841 216.835L486.745 214.671L494.167 218.956L489.532 221.632L473.011 212.094L478.017 209.204L491.874 211.625L487.707 203.61L492.712 200.72ZM502.023 194.917C503.979 193.788 506.001 193.105 508.088 192.868C510.176 192.63 512.132 192.868 513.957 193.579L510.258 196.797C509.387 196.464 508.549 196.341 507.743 196.427C506.938 196.512 506.255 196.716 505.697 197.039C505.171 197.342 504.866 197.66 504.784 197.992C504.702 198.306 504.866 198.581 505.277 198.818C505.836 199.141 506.51 199.16 507.299 198.875L511.442 197.395C515.371 196.037 518.576 196.075 521.058 197.508C522.291 198.22 522.973 199.032 523.105 199.943C523.253 200.844 522.998 201.694 522.34 202.491C521.683 203.288 520.746 204.038 519.529 204.74C517.491 205.917 515.321 206.638 513.02 206.904C510.718 207.17 508.672 206.918 506.88 206.15L510.801 202.833C512.642 203.459 514.31 203.34 515.806 202.477C516.381 202.145 516.735 201.808 516.866 201.466C516.998 201.124 516.85 200.83 516.423 200.583C515.864 200.261 515.116 200.265 514.179 200.598L509.938 202.107C506.206 203.445 503.099 203.397 500.617 201.964C498.924 200.987 498.234 199.857 498.546 198.576C498.858 197.295 500.017 196.075 502.023 194.917Z" fill="white"/>
<rect width="77.5618" height="16.4459" rx="1.62697" transform="matrix(0.866025 -0.5 -0.866025 -0.5 281.125 233.52)" fill="#329B5B"/>
<rect width="177.985" height="10.964" rx="1.62697" transform="matrix(0.866025 -0.5 -0.866025 -0.5 411.315 308.683)" fill="#329B5B"/>
<rect width="160.394" height="10.964" rx="1.62697" transform="matrix(0.866025 -0.5 -0.866025 -0.5 425.558 316.906)" fill="#329B5B"/>
<rect width="111.413" height="10.9639" rx="1.62697" transform="matrix(0.866025 -0.5 -0.866025 -0.5 439.8 325.129)" fill="#329B5B"/>
<rect width="79.5988" height="112.291" rx="1.62697" transform="matrix(0.866025 -0.5 -0.866025 -0.5 558.863 395.98)" fill="#329B5B"/>
<rect width="79.5988" height="112.291" rx="1.62697" transform="matrix(0.866025 -0.5 -0.866025 -0.5 636.414 351.206)" fill="#329B5B"/>
<rect width="79.5988" height="112.291" rx="1.62697" transform="matrix(0.866025 -0.5 -0.866025 -0.5 715.196 305.721)" fill="#329B5B"/>
</g>
<g filter="url(#filter2_d)">
<g filter="url(#filter3_b)">
<path d="M524.787 561.09C521.171 559.003 521.171 555.618 524.787 553.53L768.967 412.553C772.583 410.466 778.445 410.466 782.061 412.553L1090.99 590.916C1094.61 593.003 1094.61 596.388 1090.99 598.476L846.814 739.453C843.198 741.54 837.336 741.54 833.72 739.453L524.787 561.09Z" fill="#184285"/>
<path d="M525.197 560.854C521.807 558.897 521.807 555.724 525.197 553.767L769.376 412.789C772.766 410.832 778.262 410.832 781.652 412.789L1090.58 591.152C1093.97 593.109 1093.97 596.282 1090.58 598.239L846.405 739.216C843.015 741.174 837.519 741.174 834.129 739.216L525.197 560.854Z" stroke="#254BC1" stroke-opacity="0.5" stroke-width="0.944995"/>
</g>
<path d="M692.163 539.251L707.509 548.111L703.089 550.663L697.248 547.291L691.637 550.531L697.477 553.903L693.08 556.442L677.734 547.582L682.131 545.043L687.857 548.349L693.469 545.109L687.743 541.803L692.163 539.251ZM726.237 537.298L721.496 540.036L718.312 539.176L712.265 542.667L713.731 544.519L709.013 547.243L699.851 534.812L704.707 532.009L726.237 537.298ZM713.296 537.814L707.02 536.122L709.929 539.758L713.296 537.814ZM712.425 527.553L720.372 522.965C722.067 521.986 723.922 521.488 725.938 521.47C727.954 521.453 729.771 521.911 731.389 522.846C733.069 523.815 733.878 524.908 733.817 526.125C733.756 527.324 732.824 528.444 731.023 529.484L727.793 531.348L732.168 533.874L727.77 536.413L712.425 527.553ZM724.312 529.338L727.014 527.778C727.625 527.425 727.946 527.029 727.976 526.588C728.022 526.138 727.755 525.746 727.175 525.411C726.625 525.094 725.969 524.953 725.205 524.988C724.457 525.014 723.777 525.204 723.167 525.556L720.464 527.117L724.312 529.338ZM728.092 518.507L736.04 513.919C737.735 512.94 739.59 512.442 741.606 512.424C743.621 512.407 745.438 512.865 747.057 513.8C748.737 514.769 749.546 515.863 749.485 517.079C749.424 518.278 748.492 519.398 746.691 520.438L743.461 522.303L747.836 524.828L743.438 527.367L728.092 518.507ZM739.98 520.293L742.682 518.732C743.293 518.38 743.614 517.983 743.644 517.542C743.69 517.092 743.423 516.7 742.843 516.365C742.293 516.048 741.636 515.907 740.873 515.942C740.125 515.968 739.445 516.158 738.834 516.511L736.132 518.071L739.98 520.293ZM759.129 500.588L763.778 510.202L768.474 512.913L763.893 515.558L759.198 512.847L742.752 510.043L747.585 507.253L757.159 508.919L754.25 503.405L759.129 500.588ZM699.739 575.446L699.831 575.499C700.762 574.996 701.831 574.732 703.037 574.706C704.244 574.661 705.427 574.974 706.588 575.644C707.901 576.403 708.489 577.28 708.351 578.276C708.198 579.263 707.32 580.22 705.717 581.145L697.38 585.959L682.034 577.099L690.371 572.286C691.807 571.457 693.326 571.012 694.929 570.95C696.548 570.879 697.976 571.201 699.212 571.915C700.251 572.515 700.762 573.154 700.747 573.833C700.732 574.494 700.396 575.032 699.739 575.446ZM689.845 576.53L692.685 578.17L695.41 576.596C695.899 576.314 696.166 576.01 696.212 575.684C696.243 575.349 696.044 575.058 695.616 574.811C695.204 574.573 694.716 574.467 694.151 574.494C693.601 574.512 693.097 574.653 692.639 574.917L689.845 576.53ZM698.365 581.45L701.32 579.744C701.839 579.444 702.106 579.131 702.121 578.805C702.137 578.461 701.915 578.157 701.457 577.892C701.029 577.646 700.533 577.535 699.968 577.562C699.419 577.579 698.899 577.729 698.411 578.011L695.41 579.744L698.365 581.45ZM707.894 566.533L715.681 571.029L718.27 569.535L722.049 571.716L712.452 577.257L708.673 575.075L711.261 573.581L703.473 569.085L700.885 570.579L697.106 568.397L706.703 562.857L710.482 565.038L707.894 566.533ZM738.539 562.196L733.248 565.25L724.133 564.854L723.537 565.197L728.439 568.027L724.041 570.566L708.695 561.706L716.872 556.985C718.521 556.033 720.323 555.54 722.277 555.504C724.247 555.46 726.003 555.883 727.545 556.774C728.767 557.479 729.492 558.277 729.721 559.167C729.935 560.049 729.645 560.922 728.851 561.786L738.539 562.196ZM720.056 563.187L723.01 561.482C723.621 561.129 723.957 560.759 724.018 560.371C724.064 559.974 723.835 559.63 723.331 559.339C722.842 559.057 722.27 558.938 721.613 558.982C720.941 559.018 720.3 559.211 719.689 559.564L716.735 561.27L720.056 563.187ZM741.452 547.158L736.642 549.935L748.209 556.613L743.788 559.165L732.222 552.487L727.412 555.264L723.633 553.082L737.673 544.976L741.452 547.158ZM754.103 535.49L769.448 544.35L765.028 546.902L759.187 543.53L753.576 546.77L759.416 550.142L755.019 552.681L739.673 543.821L744.071 541.282L749.797 544.588L755.408 541.348L749.682 538.043L754.103 535.49ZM756.683 534.001L763.165 530.258C765.669 528.813 768.395 528.059 771.342 527.997C774.289 527.918 776.907 528.539 779.198 529.862C781.488 531.184 782.572 532.7 782.45 534.411C782.328 536.103 781.015 537.672 778.511 539.118L772.029 542.861L756.683 534.001ZM772.716 538.179L774.479 537.161C775.747 536.429 776.403 535.627 776.449 534.754C776.495 533.882 775.93 533.106 774.754 532.427C773.578 531.748 772.235 531.422 770.723 531.448C769.211 531.475 767.822 531.854 766.555 532.586L764.791 533.604L772.716 538.179ZM804.448 524.143L799.707 526.881L796.523 526.021L790.476 529.512L791.942 531.363L787.224 534.088L778.062 521.657L782.918 518.854L804.448 524.143ZM791.507 524.659L785.231 522.966L788.14 526.603L791.507 524.659ZM803.253 507.113L807.903 516.727L812.598 519.438L808.017 522.083L803.322 519.372L786.877 516.568L791.709 513.778L801.283 515.444L798.374 509.93L803.253 507.113ZM809.705 503.388L810.415 503.798L819.233 509.286L815.065 511.693L805.56 506.602L804.85 506.192L809.705 503.388ZM818.248 511.018C818.936 510.622 819.737 510.423 820.653 510.423C821.569 510.423 822.341 510.604 822.967 510.965C823.608 511.336 823.921 511.781 823.906 512.301C823.875 512.812 823.516 513.266 822.829 513.663C822.142 514.06 821.363 514.262 820.493 514.271C819.607 514.271 818.844 514.086 818.203 513.716C817.577 513.354 817.256 512.914 817.241 512.394C817.241 511.865 817.577 511.406 818.248 511.018Z" fill="white"/>
<rect width="72.0463" height="15.2764" rx="1.51128" transform="matrix(0.866025 -0.5 -0.866025 -0.5 641.923 516.128)" fill="#1F3169"/>
<rect width="165.329" height="10.1843" rx="1.51128" transform="matrix(0.866025 -0.5 -0.866025 -0.5 714.276 604.75)" fill="#1F3169"/>
<rect width="148.988" height="10.1843" rx="1.51128" transform="matrix(0.866025 -0.5 -0.866025 -0.5 734.691 608.24)" fill="#1F3169"/>
<rect width="103.491" height="10.1843" rx="1.51128" transform="matrix(0.866025 -0.5 -0.866025 -0.5 767.684 604.467)" fill="#1F3169"/>
<rect width="70.9606" height="75.3637" rx="1.51128" transform="matrix(0.866025 -0.5 -0.866025 -0.5 828.424 708.437)" fill="#1F3169"/>
<rect width="70.9606" height="75.3637" rx="1.51128" transform="matrix(0.866025 -0.5 -0.866025 -0.5 902.371 665.743)" fill="#1F3169"/>
<rect width="70.9606" height="75.3637" rx="1.51128" transform="matrix(0.866025 -0.5 -0.866025 -0.5 975.664 623.427)" fill="#1F3169"/>
</g>
</g>
<defs>
<filter id="filter0_d" x="111.319" y="0.56418" width="808.611" height="548.516" filterUnits="userSpaceOnUse" color-interpolation-filters="sRGB">
<feFlood flood-opacity="0" result="BackgroundImageFix"/>
<feColorMatrix in="SourceAlpha" type="matrix" values="0 0 0 0 0 0 0 0 0 0 0 0 0 0 0 0 0 0 127 0"/>
<feOffset dx="-21.4688" dy="21.4688"/>
<feGaussianBlur stdDeviation="48.3049"/>
<feColorMatrix type="matrix" values="0 0 0 0 0 0 0 0 0 0 0 0 0 0 0 0 0 0 0.25 0"/>
<feBlend mode="normal" in2="BackgroundImageFix" result="effect1_dropShadow"/>
<feBlend mode="normal" in="SourceGraphic" in2="effect1_dropShadow" result="shape"/>
</filter>
<filter id="filter1_b" x="168.357" y="14.6647" width="737.472" height="477.377" filterUnits="userSpaceOnUse" color-interpolation-filters="sRGB">
<feFlood flood-opacity="0" result="BackgroundImageFix"/>
<feGaussianBlur in="BackgroundImage" stdDeviation="30.5202"/>
<feComposite in2="SourceAlpha" operator="in" result="effect1_backgroundBlur"/>
<feBlend mode="normal" in="SourceGraphic" in2="effect1_backgroundBlur" result="shape"/>
</filter>
<filter id="filter2_d" x="403.997" y="335.847" width="764.85" height="523.25" filterUnits="userSpaceOnUse" color-interpolation-filters="sRGB">
<feFlood flood-opacity="0" result="BackgroundImageFix"/>
<feColorMatrix in="SourceAlpha" type="matrix" values="0 0 0 0 0 0 0 0 0 0 0 0 0 0 0 0 0 0 127 0"/>
<feOffset dx="-21.4688" dy="21.4688"/>
<feGaussianBlur stdDeviation="48.3049"/>
<feColorMatrix type="matrix" values="0 0 0 0 0 0 0 0 0 0 0 0 0 0 0 0 0 0 0.25 0"/>
<feBlend mode="normal" in2="BackgroundImageFix" result="effect1_dropShadow"/>
<feBlend mode="normal" in="SourceGraphic" in2="effect1_dropShadow" result="shape"/>
</filter>
<filter id="filter3_b" x="465.376" y="354.288" width="685.03" height="443.43" filterUnits="userSpaceOnUse" color-interpolation-filters="sRGB">
<feFlood flood-opacity="0" result="BackgroundImageFix"/>
<feGaussianBlur in="BackgroundImage" stdDeviation="28.3499"/>
<feComposite in2="SourceAlpha" operator="in" result="effect1_backgroundBlur"/>
<feBlend mode="normal" in="SourceGraphic" in2="effect1_backgroundBlur" result="shape"/>
</filter>
</defs>
</svg>
