<svg width="365" height="370" viewBox="0 0 365 370" fill="none" xmlns="http://www.w3.org/2000/svg">
<g filter="url(#filter0_d)">
<rect x="131.105" y="37.6543" width="126.474" height="234.474" rx="13.7368" stroke="white" stroke-width="0.947368"/>
<rect x="131.105" y="37.6543" width="126.474" height="234.474" rx="13.7368" stroke="#305EED" stroke-width="0.947368"/>
</g>
<rect x="121.158" y="46.6543" width="127.421" height="235.421" rx="14.2105" fill="#1A2A5C"/>
<rect x="132.858" y="152.771" width="49.8538" height="48.2599" rx="4.73684" fill="#0B264E"/>
<rect x="132.858" y="206.812" width="49.8538" height="48.2599" rx="4.73684" fill="#0B264E"/>
<rect x="191.575" y="152.771" width="47.0842" height="48.2599" rx="4.73684" fill="#0B264E"/>
<rect x="191.575" y="206.812" width="47.0842" height="48.2599" rx="4.73684" fill="#0B264E"/>
<rect x="132.384" y="77.1105" width="50.9617" height="63.3932" rx="4.73684" fill="#0B264E"/>
<rect x="189.993" y="88.8138" width="38.7752" height="9.75281" fill="#0B264E"/>
<rect x="146.737" y="49.9701" width="76.67" height="5.01596" rx="2.50798" fill="#0B264E"/>
<rect x="189.993" y="102.468" width="49.8538" height="4.8764" fill="#0B264E"/>
<g filter="url(#filter1_d)">
<path d="M202.158 112.496C202.158 108.311 205.551 104.917 209.737 104.917H250.474C254.659 104.917 258.053 108.311 258.053 112.496V153.233C258.053 157.419 254.659 160.812 250.474 160.812H209.737C205.551 160.812 202.158 157.419 202.158 153.233V112.496Z" fill="#3E6AEF"/>
<path d="M236.626 122.525V120.894C236.626 119.995 235.895 119.264 234.996 119.264H224.399C223.051 119.264 221.954 120.361 221.954 121.71V131.491C221.954 133.285 223.416 133.937 224.399 133.937H236.626C237.525 133.937 238.257 133.205 238.257 132.306V124.155C238.257 123.256 237.525 122.525 236.626 122.525ZM234.996 129.861H233.366V126.6H234.996V129.861ZM224.399 122.525C223.949 122.525 223.584 122.159 223.584 121.71C223.584 121.26 223.949 120.894 224.399 120.894H234.996V122.525H224.399Z" fill="white"/>
<path d="M213.887 142.732H212.371V146.407H211.225V142.732H209.709V141.726H213.887V142.732ZM216.62 142.851C216.713 142.851 216.797 142.86 216.871 142.879L216.822 143.996H216.62C215.814 143.996 215.411 144.434 215.411 145.31V146.407H214.293V142.9H215.411V143.57C215.7 143.091 216.103 142.851 216.62 142.851ZM218.84 142.795C219.339 142.795 219.73 142.916 220.014 143.158C220.303 143.4 220.447 143.743 220.447 144.185V146.407H219.371V146.148C219.087 146.391 218.738 146.512 218.323 146.512C217.932 146.512 217.615 146.407 217.373 146.197C217.135 145.988 217.017 145.711 217.017 145.366C217.017 145.017 217.145 144.742 217.401 144.541C217.657 144.336 218.016 144.234 218.477 144.234H219.371V144.164C219.371 144.02 219.325 143.903 219.231 143.815C219.143 143.722 219.024 143.675 218.875 143.675C218.535 143.675 218.339 143.822 218.288 144.115L217.233 143.899C217.312 143.559 217.494 143.291 217.778 143.095C218.067 142.895 218.421 142.795 218.84 142.795ZM218.638 145.673C218.838 145.673 219.01 145.613 219.155 145.492C219.299 145.371 219.371 145.215 219.371 145.024V144.947H218.603C218.463 144.947 218.351 144.982 218.267 145.051C218.188 145.117 218.148 145.203 218.148 145.31C218.148 145.422 218.193 145.51 218.281 145.575C218.37 145.641 218.489 145.673 218.638 145.673ZM223.337 142.795C223.747 142.795 224.076 142.93 224.323 143.2C224.574 143.465 224.7 143.817 224.7 144.255V146.407H223.589V144.493C223.589 144.288 223.533 144.122 223.421 143.996C223.309 143.866 223.165 143.801 222.988 143.801C222.76 143.801 222.58 143.882 222.45 144.045C222.324 144.204 222.261 144.448 222.261 144.779V146.407H221.143V142.9H222.261V143.235C222.541 142.941 222.9 142.795 223.337 142.795ZM225.225 145.492L226.315 145.268C226.361 145.543 226.569 145.68 226.937 145.68C227.076 145.68 227.186 145.655 227.265 145.603C227.349 145.548 227.391 145.48 227.391 145.401C227.391 145.27 227.274 145.184 227.042 145.142L226.329 145.003C225.649 144.877 225.309 144.537 225.309 143.982C225.309 143.624 225.449 143.337 225.728 143.123C226.007 142.904 226.371 142.795 226.818 142.795C227.246 142.795 227.6 142.886 227.88 143.067C228.164 143.249 228.341 143.493 228.411 143.801L227.391 144.003C227.372 143.887 227.309 143.789 227.202 143.71C227.1 143.631 226.967 143.591 226.804 143.591C226.664 143.591 226.562 143.619 226.497 143.675C226.436 143.726 226.406 143.789 226.406 143.864C226.406 143.989 226.494 144.071 226.671 144.108L227.496 144.276C227.817 144.346 228.059 144.474 228.222 144.66C228.385 144.842 228.467 145.065 228.467 145.331C228.467 145.708 228.32 145.999 228.027 146.204C227.733 146.409 227.349 146.512 226.874 146.512C226.431 146.512 226.059 146.428 225.756 146.26C225.458 146.088 225.281 145.832 225.225 145.492ZM230.637 142.795C231.136 142.795 231.527 142.916 231.811 143.158C232.1 143.4 232.244 143.743 232.244 144.185V146.407H231.168V146.148C230.884 146.391 230.535 146.512 230.12 146.512C229.729 146.512 229.412 146.407 229.17 146.197C228.933 145.988 228.814 145.711 228.814 145.366C228.814 145.017 228.942 144.742 229.198 144.541C229.454 144.336 229.813 144.234 230.274 144.234H231.168V144.164C231.168 144.02 231.122 143.903 231.029 143.815C230.94 143.722 230.821 143.675 230.672 143.675C230.332 143.675 230.137 143.822 230.085 144.115L229.03 143.899C229.11 143.559 229.291 143.291 229.575 143.095C229.864 142.895 230.218 142.795 230.637 142.795ZM230.435 145.673C230.635 145.673 230.807 145.613 230.952 145.492C231.096 145.371 231.168 145.215 231.168 145.024V144.947H230.4C230.26 144.947 230.148 144.982 230.064 145.051C229.985 145.117 229.946 145.203 229.946 145.31C229.946 145.422 229.99 145.51 230.078 145.575C230.167 145.641 230.286 145.673 230.435 145.673ZM234.624 145.534C235.016 145.534 235.27 145.329 235.386 144.919L236.413 145.142C236.325 145.552 236.115 145.883 235.784 146.134C235.454 146.386 235.067 146.512 234.624 146.512C234.089 146.512 233.635 146.339 233.262 145.995C232.894 145.645 232.71 145.198 232.71 144.653C232.71 144.113 232.894 143.668 233.262 143.319C233.635 142.969 234.089 142.795 234.624 142.795C235.058 142.795 235.44 142.918 235.77 143.165C236.101 143.412 236.315 143.738 236.413 144.143L235.365 144.395C235.318 144.19 235.23 144.036 235.1 143.934C234.969 143.826 234.811 143.773 234.624 143.773C234.373 143.773 234.17 143.857 234.017 144.024C233.863 144.187 233.786 144.397 233.786 144.653C233.786 144.914 233.863 145.126 234.017 145.289C234.17 145.452 234.373 145.534 234.624 145.534ZM239.334 145.373L239.593 146.253C239.271 146.426 238.952 146.512 238.635 146.512C238.193 146.512 237.848 146.393 237.601 146.155C237.359 145.918 237.238 145.571 237.238 145.114V143.787H236.602V142.9H237.238V141.726H238.356V142.9H239.39V143.787H238.356V145.003C238.356 145.343 238.512 145.513 238.824 145.513C239.001 145.513 239.171 145.466 239.334 145.373ZM240.17 141.418C240.291 141.293 240.445 141.23 240.631 141.23C240.817 141.23 240.971 141.293 241.092 141.418C241.218 141.544 241.281 141.693 241.281 141.865C241.281 142.042 241.218 142.192 241.092 142.313C240.971 142.429 240.817 142.487 240.631 142.487C240.445 142.487 240.291 142.429 240.17 142.313C240.049 142.192 239.988 142.042 239.988 141.865C239.988 141.688 240.049 141.539 240.17 141.418ZM241.19 146.407H240.072V142.9H241.19V146.407ZM243.768 142.809C244.304 142.809 244.758 142.981 245.13 143.326C245.503 143.67 245.689 144.113 245.689 144.653C245.689 145.198 245.503 145.643 245.13 145.988C244.758 146.332 244.304 146.505 243.768 146.505C243.223 146.505 242.762 146.332 242.385 145.988C242.012 145.643 241.826 145.198 241.826 144.653C241.826 144.113 242.012 143.67 242.385 143.326C242.762 142.981 243.223 142.809 243.768 142.809ZM243.768 145.562C243.996 145.562 244.194 145.478 244.362 145.31C244.53 145.138 244.613 144.919 244.613 144.653C244.613 144.388 244.527 144.171 244.355 144.003C244.187 143.831 243.992 143.745 243.768 143.745C243.535 143.745 243.333 143.831 243.16 144.003C242.988 144.171 242.902 144.388 242.902 144.653C242.902 144.919 242.986 145.138 243.153 145.31C243.326 145.478 243.53 145.562 243.768 145.562ZM248.46 142.795C248.87 142.795 249.198 142.93 249.445 143.2C249.697 143.465 249.822 143.817 249.822 144.255V146.407H248.711V144.493C248.711 144.288 248.656 144.122 248.544 143.996C248.432 143.866 248.288 143.801 248.111 143.801C247.882 143.801 247.703 143.882 247.573 144.045C247.447 144.204 247.384 144.448 247.384 144.779V146.407H246.266V142.9H247.384V143.235C247.663 142.941 248.022 142.795 248.46 142.795Z" fill="white"/>
</g>
<g filter="url(#filter2_d)">
<path d="M75.6842 240.865C75.6842 239.295 76.9567 238.023 78.5263 238.023H95.1053C96.6749 238.023 97.9474 239.295 97.9474 240.865V257.444C97.9474 259.013 96.6749 260.286 95.1053 260.286H78.5263C76.9567 260.286 75.6842 259.013 75.6842 257.444V240.865Z" fill="white"/>
</g>
<path d="M86.6856 243.804C84.3829 243.804 82.5093 245.677 82.5093 247.977C82.4942 251.342 86.5269 254.132 86.6856 254.244C86.6856 254.244 90.8771 251.342 90.862 247.98C90.862 245.677 88.9884 243.804 86.6856 243.804ZM86.6856 250.068C85.5319 250.068 84.5975 249.134 84.5975 247.98C84.5975 246.826 85.5319 245.892 86.6856 245.892C87.8393 245.892 88.7738 246.826 88.7738 247.98C88.7738 249.134 87.8393 250.068 86.6856 250.068Z" fill="#305EED"/>
<path d="M143.895 188.76C143.895 186.143 146.016 184.023 148.632 184.023H182.737C185.353 184.023 187.474 186.143 187.474 188.76V222.865C187.474 225.481 185.353 227.602 182.737 227.602H148.632C146.016 227.602 143.895 225.481 143.895 222.865V188.76Z" fill="#2E56A4"/>
<path d="M165.684 197.278V200.456H168.862V199.185H166.955V197.278H165.684Z" fill="white"/>
<path d="M171.59 197.594C171.446 197.254 171.269 196.927 171.063 196.622C170.858 196.318 170.624 196.034 170.364 195.775C170.105 195.516 169.822 195.282 169.518 195.077C169.211 194.87 168.884 194.693 168.547 194.55C168.2 194.404 167.839 194.292 167.473 194.217C166.722 194.062 165.919 194.062 165.168 194.217C164.8 194.292 164.439 194.404 164.094 194.55C163.757 194.693 163.43 194.869 163.122 195.077C162.819 195.282 162.534 195.517 162.275 195.776C162.017 196.034 161.781 196.32 161.577 196.622C161.37 196.93 161.192 197.256 161.05 197.593C160.904 197.939 160.791 198.301 160.716 198.667C160.639 199.043 160.6 199.431 160.6 199.82C160.6 199.825 160.601 199.831 160.601 199.836H159.329L161.236 202.362L163.142 199.836H161.872C161.872 199.831 161.871 199.825 161.871 199.82C161.871 199.517 161.902 199.215 161.961 198.923C162.02 198.637 162.107 198.357 162.221 198.088C162.331 197.826 162.469 197.572 162.631 197.333C162.789 197.097 162.972 196.876 163.174 196.674C163.375 196.472 163.597 196.29 163.832 196.131C164.071 195.969 164.326 195.832 164.589 195.72C164.856 195.607 165.137 195.519 165.423 195.461C166.007 195.341 166.633 195.342 167.217 195.461C167.501 195.519 167.783 195.607 168.052 195.72C168.314 195.831 168.568 195.969 168.807 196.13C169.042 196.289 169.264 196.472 169.466 196.674C169.667 196.874 169.849 197.096 170.009 197.333C170.169 197.569 170.307 197.823 170.419 198.088C170.532 198.353 170.618 198.634 170.678 198.921C170.738 199.216 170.768 199.518 170.768 199.82C170.768 200.123 170.738 200.424 170.678 200.716C170.618 201.005 170.532 201.286 170.419 201.551C170.307 201.816 170.169 202.069 170.008 202.307C169.849 202.543 169.667 202.764 169.466 202.965C169.264 203.167 169.042 203.35 168.807 203.509C168.568 203.669 168.315 203.808 168.052 203.919C167.783 204.033 167.502 204.12 167.217 204.179C166.634 204.298 166.008 204.299 165.423 204.179C165.138 204.12 164.857 204.033 164.589 203.919C164.327 203.809 164.072 203.671 163.834 203.509C163.598 203.35 163.377 203.167 163.175 202.966L162.276 203.865C162.535 204.124 162.819 204.358 163.122 204.563C163.429 204.77 163.757 204.948 164.094 205.09C164.439 205.236 164.801 205.349 165.168 205.424C165.543 205.5 165.931 205.54 166.32 205.54C166.709 205.54 167.097 205.5 167.472 205.424C167.839 205.349 168.2 205.237 168.546 205.091C168.884 204.948 169.211 204.77 169.519 204.562C169.822 204.358 170.106 204.123 170.364 203.865C170.623 203.606 170.857 203.321 171.062 203.019C171.269 202.714 171.446 202.386 171.59 202.047C171.734 201.705 171.847 201.344 171.923 200.972C172 200.595 172.039 200.208 172.039 199.82C172.039 199.432 172 199.045 171.923 198.667C171.847 198.296 171.734 197.935 171.59 197.594Z" fill="white"/>
<path d="M156.945 215.981H155.82L155.519 215.2H153.716L153.415 215.981H152.283L154.074 211.696H155.155L156.945 215.981ZM155.167 214.292L154.617 212.886L154.074 214.292H155.167ZM158.792 215.181C159.15 215.181 159.382 214.994 159.489 214.619L160.429 214.823C160.348 215.198 160.156 215.501 159.853 215.731C159.55 215.961 159.197 216.077 158.792 216.077C158.301 216.077 157.886 215.919 157.545 215.603C157.208 215.284 157.039 214.874 157.039 214.376C157.039 213.881 157.208 213.474 157.545 213.154C157.886 212.834 158.301 212.675 158.792 212.675C159.188 212.675 159.538 212.787 159.84 213.013C160.143 213.239 160.339 213.538 160.429 213.909L159.469 214.139C159.427 213.951 159.346 213.811 159.226 213.717C159.107 213.619 158.962 213.57 158.792 213.57C158.561 213.57 158.376 213.647 158.235 213.8C158.094 213.949 158.024 214.141 158.024 214.376C158.024 214.614 158.094 214.808 158.235 214.957C158.376 215.107 158.561 215.181 158.792 215.181ZM163.102 215.034L163.339 215.84C163.045 215.998 162.752 216.077 162.463 216.077C162.058 216.077 161.742 215.968 161.516 215.75C161.294 215.533 161.184 215.215 161.184 214.798V213.583H160.602V212.77H161.184V211.696H162.207V212.77H163.153V213.583H162.207V214.695C162.207 215.006 162.35 215.162 162.635 215.162C162.797 215.162 162.953 215.119 163.102 215.034ZM163.867 211.415C163.978 211.3 164.119 211.242 164.289 211.242C164.46 211.242 164.6 211.3 164.711 211.415C164.826 211.53 164.884 211.666 164.884 211.824C164.884 211.986 164.826 212.122 164.711 212.233C164.6 212.34 164.46 212.393 164.289 212.393C164.119 212.393 163.978 212.34 163.867 212.233C163.756 212.122 163.701 211.986 163.701 211.824C163.701 211.662 163.756 211.526 163.867 211.415ZM164.801 215.981H163.777V212.77H164.801V215.981ZM168.97 212.764L167.64 215.981H166.597L165.267 212.764H166.348L167.122 214.746L167.889 212.764H168.97ZM169.525 211.415C169.636 211.3 169.776 211.242 169.947 211.242C170.117 211.242 170.258 211.3 170.369 211.415C170.484 211.53 170.542 211.666 170.542 211.824C170.542 211.986 170.484 212.122 170.369 212.233C170.258 212.34 170.117 212.393 169.947 212.393C169.776 212.393 169.636 212.34 169.525 212.233C169.414 212.122 169.359 211.986 169.359 211.824C169.359 211.662 169.414 211.526 169.525 211.415ZM170.458 215.981H169.435V212.77H170.458V215.981ZM173.394 215.034L173.63 215.84C173.336 215.998 173.044 216.077 172.754 216.077C172.349 216.077 172.034 215.968 171.808 215.75C171.586 215.533 171.475 215.215 171.475 214.798V213.583H170.893V212.77H171.475V211.696H172.498V212.77H173.445V213.583H172.498V214.695C172.498 215.006 172.641 215.162 172.927 215.162C173.089 215.162 173.244 215.119 173.394 215.034ZM177.465 212.764L175.418 217.515H174.312L175.022 215.872L173.692 212.764H174.792L175.553 214.644L176.365 212.764H177.465Z" fill="white"/>
<g filter="url(#filter3_d)">
<path d="M184.632 274.97C184.632 273.139 186.116 271.654 187.947 271.654H207.842C209.673 271.654 211.158 273.139 211.158 274.97V294.865C211.158 296.696 209.673 298.181 207.842 298.181H187.947C186.116 298.181 184.632 296.696 184.632 294.865V274.97Z" fill="#3E6AEF"/>
<path d="M201.597 280.733L200.882 279.304C200.783 279.106 200.581 278.981 200.36 278.981H195.24C195.019 278.981 194.817 279.106 194.718 279.304L194.003 280.733H192.542V281.902H203.058V280.733H201.597ZM194.724 290.164C194.765 290.451 195.012 290.665 195.303 290.665H200.298C200.589 290.665 200.836 290.451 200.876 290.164L201.889 283.07H193.711L194.724 290.164ZM200.137 284.823L199.72 287.744H195.88L195.463 284.823H200.137Z" fill="white"/>
</g>
<g filter="url(#filter4_d)">
<path d="M259.947 57.549C259.947 55.9794 261.22 54.7069 262.789 54.7069H286.947C288.517 54.7069 289.789 55.9794 289.789 57.549V81.7069C289.789 83.2766 288.517 84.549 286.947 84.549H262.789C261.22 84.549 259.947 83.2766 259.947 81.7069V57.549Z" fill="white"/>
<path d="M275.123 61.9014C274.96 61.7382 274.739 61.6464 274.508 61.6464H271.387C270.906 61.6464 270.516 62.0363 270.516 62.5168V65.638C270.516 65.8687 270.608 66.0902 270.772 66.2534L274.253 69.735C274.593 70.0749 275.144 70.0749 275.484 69.735L278.605 66.6137C278.945 66.2738 278.945 65.7229 278.605 65.383L275.123 61.9014ZM272.692 64.6928C272.212 64.6928 271.822 64.3028 271.822 63.8224C271.822 63.3419 272.212 62.952 272.692 62.952C273.173 62.952 273.563 63.3419 273.563 63.8224C273.563 64.3028 273.173 64.6928 272.692 64.6928Z" fill="#305EED"/>
<path d="M264.537 75.9553L265.218 76.1023C265.154 76.4497 264.993 76.7228 264.735 76.9216C264.477 77.1205 264.165 77.2199 263.798 77.2199C263.381 77.2199 263.026 77.0785 262.735 76.7956C262.446 76.5127 262.302 76.1639 262.302 75.7494C262.302 75.3376 262.446 74.9903 262.735 74.7074C263.026 74.4217 263.381 74.2788 263.798 74.2788C264.151 74.2788 264.458 74.3769 264.718 74.573C264.981 74.769 265.147 75.0309 265.214 75.3586L264.533 75.5309C264.491 75.3264 264.404 75.1724 264.273 75.0687C264.144 74.9651 263.986 74.9133 263.798 74.9133C263.574 74.9133 263.383 74.9931 263.227 75.1528C263.072 75.3124 262.995 75.5113 262.995 75.7494C262.995 75.9875 263.072 76.1878 263.227 76.3502C263.383 76.5099 263.574 76.5897 263.798 76.5897C263.983 76.5897 264.14 76.5365 264.269 76.43C264.4 76.3236 264.49 76.1653 264.537 75.9553ZM266.557 74.9847C266.857 74.9847 267.092 75.0575 267.263 75.2032C267.437 75.3488 267.523 75.5547 267.523 75.8208V77.1569H266.876V77.0015C266.705 77.1471 266.495 77.2199 266.246 77.2199C266.011 77.2199 265.82 77.1569 265.675 77.0309C265.532 76.9048 265.46 76.7382 265.46 76.5309C265.46 76.3208 265.537 76.1555 265.691 76.0351C265.846 75.9119 266.061 75.8502 266.339 75.8502H266.876V75.8082C266.876 75.7214 266.848 75.6514 266.792 75.5981C266.739 75.5421 266.668 75.5141 266.578 75.5141C266.374 75.5141 266.256 75.6023 266.225 75.7788L265.591 75.6486C265.638 75.4441 265.748 75.283 265.918 75.1654C266.092 75.0449 266.305 74.9847 266.557 74.9847ZM266.435 76.7158C266.556 76.7158 266.659 76.6793 266.746 76.6065C266.833 76.5337 266.876 76.4399 266.876 76.325V76.2788H266.414C266.33 76.2788 266.263 76.2998 266.212 76.3418C266.165 76.381 266.141 76.4328 266.141 76.4973C266.141 76.5645 266.168 76.6177 266.221 76.6569C266.274 76.6961 266.346 76.7158 266.435 76.7158ZM270.673 74.9847C270.903 74.9847 271.095 75.0645 271.249 75.2242C271.403 75.3811 271.48 75.5855 271.48 75.8376V77.1569H270.812V75.9805C270.812 75.8628 270.778 75.769 270.711 75.699C270.644 75.6261 270.56 75.5897 270.459 75.5897C270.333 75.5897 270.232 75.6359 270.156 75.7284C270.084 75.818 270.047 75.9497 270.047 76.1233V77.1569H269.375V75.9805C269.375 75.8628 269.341 75.769 269.274 75.699C269.207 75.6261 269.121 75.5897 269.018 75.5897C268.892 75.5897 268.792 75.6359 268.719 75.7284C268.649 75.818 268.614 75.9497 268.614 76.1233V77.1569H267.942V75.0477H268.614V75.241C268.768 75.0701 268.976 74.9847 269.236 74.9847C269.547 74.9847 269.777 75.1037 269.925 75.3418C270.107 75.1037 270.357 74.9847 270.673 74.9847ZM273.266 74.9847C273.552 74.9847 273.794 75.0897 273.993 75.2998C274.195 75.5099 274.296 75.7774 274.296 76.1023C274.296 76.43 274.195 76.6989 273.993 76.909C273.794 77.1163 273.552 77.2199 273.266 77.2199C272.997 77.2199 272.779 77.1387 272.611 76.9763V78.1653H271.939V75.0477H272.611V75.2284C272.779 75.0659 272.997 74.9847 273.266 74.9847ZM273.128 76.6485C273.276 76.6485 273.398 76.5981 273.493 76.4973C273.588 76.3964 273.636 76.2648 273.636 76.1023C273.636 75.9427 273.588 75.8124 273.493 75.7116C273.398 75.6079 273.276 75.5561 273.128 75.5561C272.988 75.5561 272.866 75.6079 272.762 75.7116C272.661 75.8152 272.611 75.9455 272.611 76.1023C272.611 76.262 272.661 76.3936 272.762 76.4973C272.866 76.5981 272.988 76.6485 273.128 76.6485ZM275.592 74.9847C275.892 74.9847 276.127 75.0575 276.298 75.2032C276.472 75.3488 276.558 75.5547 276.558 75.8208V77.1569H275.911V77.0015C275.741 77.1471 275.53 77.2199 275.281 77.2199C275.046 77.2199 274.855 77.1569 274.71 77.0309C274.567 76.9048 274.495 76.7382 274.495 76.5309C274.495 76.3208 274.572 76.1555 274.727 76.0351C274.881 75.9119 275.096 75.8502 275.374 75.8502H275.911V75.8082C275.911 75.7214 275.883 75.6514 275.827 75.5981C275.774 75.5421 275.703 75.5141 275.613 75.5141C275.409 75.5141 275.291 75.6023 275.26 75.7788L274.626 75.6486C274.673 75.4441 274.783 75.283 274.953 75.1654C275.127 75.0449 275.34 74.9847 275.592 74.9847ZM275.47 76.7158C275.591 76.7158 275.694 76.6793 275.781 76.6065C275.868 76.5337 275.911 76.4399 275.911 76.325V76.2788H275.449C275.365 76.2788 275.298 76.2998 275.248 76.3418C275.2 76.381 275.176 76.4328 275.176 76.4973C275.176 76.5645 275.203 76.6177 275.256 76.6569C275.309 76.6961 275.381 76.7158 275.47 76.7158ZM277.07 74.157C277.142 74.0814 277.235 74.0436 277.347 74.0436C277.459 74.0436 277.551 74.0814 277.624 74.157C277.7 74.2326 277.738 74.3223 277.738 74.4259C277.738 74.5323 277.7 74.622 277.624 74.6948C277.551 74.7648 277.459 74.7998 277.347 74.7998C277.235 74.7998 277.142 74.7648 277.07 74.6948C276.997 74.622 276.96 74.5323 276.96 74.4259C276.96 74.3195 276.997 74.2298 277.07 74.157ZM277.683 77.1569H277.011V75.0477H277.683V77.1569ZM280.422 75.0477V77.1989C280.422 77.5127 280.305 77.7591 280.069 77.9384C279.834 78.1177 279.539 78.2073 279.183 78.2073C278.684 78.2073 278.333 78.0379 278.128 77.6989L278.687 77.3544C278.766 77.4496 278.841 77.5169 278.914 77.5561C278.987 77.5953 279.077 77.6149 279.183 77.6149C279.345 77.6149 279.48 77.5729 279.586 77.4888C279.696 77.4076 279.75 77.2886 279.75 77.1317V76.9763C279.582 77.1387 279.364 77.2199 279.095 77.2199C278.809 77.2199 278.565 77.1163 278.364 76.909C278.165 76.6989 278.065 76.43 278.065 76.1023C278.065 75.7774 278.165 75.5099 278.364 75.2998C278.565 75.0897 278.809 74.9847 279.095 74.9847C279.364 74.9847 279.582 75.0659 279.75 75.2284V75.0477H280.422ZM279.233 76.6485C279.373 76.6485 279.494 76.5981 279.595 76.4973C279.698 76.3936 279.75 76.262 279.75 76.1023C279.75 75.9455 279.698 75.8152 279.595 75.7116C279.494 75.6079 279.373 75.5561 279.233 75.5561C279.085 75.5561 278.963 75.6079 278.868 75.7116C278.773 75.8124 278.725 75.9427 278.725 76.1023C278.725 76.2648 278.773 76.3964 278.868 76.4973C278.963 76.5981 279.085 76.6485 279.233 76.6485ZM282.227 74.9847C282.474 74.9847 282.671 75.0659 282.82 75.2284C282.971 75.3881 283.047 75.5995 283.047 75.8628V77.1569H282.378V76.0057C282.378 75.8824 282.345 75.783 282.278 75.7074C282.21 75.6289 282.124 75.5897 282.017 75.5897C281.88 75.5897 281.772 75.6388 281.694 75.7368C281.618 75.832 281.58 75.9791 281.58 76.178V77.1569H280.908V75.0477H281.58V75.2494C281.748 75.0729 281.964 74.9847 282.227 74.9847ZM283.362 76.6065L284.018 76.4721C284.046 76.6373 284.17 76.72 284.392 76.72C284.476 76.72 284.542 76.7046 284.589 76.6737C284.64 76.6401 284.665 76.5995 284.665 76.5519C284.665 76.4735 284.595 76.4216 284.455 76.3964L284.026 76.3124C283.617 76.2368 283.413 76.0323 283.413 75.699C283.413 75.4833 283.497 75.311 283.665 75.1822C283.833 75.0505 284.051 74.9847 284.32 74.9847C284.578 74.9847 284.791 75.0393 284.959 75.1486C285.13 75.2578 285.236 75.4049 285.278 75.5897L284.665 75.7116C284.654 75.6416 284.616 75.5827 284.551 75.5351C284.49 75.4875 284.41 75.4637 284.312 75.4637C284.228 75.4637 284.166 75.4805 284.127 75.5141C284.091 75.5449 284.072 75.5827 284.072 75.6275C284.072 75.7032 284.126 75.7522 284.232 75.7746L284.728 75.8754C284.921 75.9175 285.067 75.9945 285.165 76.1065C285.263 76.2158 285.312 76.3502 285.312 76.5099C285.312 76.7368 285.224 76.9118 285.047 77.0351C284.871 77.1583 284.64 77.2199 284.354 77.2199C284.088 77.2199 283.864 77.1695 283.682 77.0687C283.502 76.965 283.396 76.811 283.362 76.6065Z" fill="#305EED"/>
</g>
<g filter="url(#filter5_d)">
<path d="M52.1132 148.496C52.1132 146.466 53.7591 144.82 55.7895 144.82H81.8421C83.8724 144.82 85.5184 146.466 85.5184 148.496V174.549C85.5184 176.579 83.8724 178.225 81.8421 178.225H55.7895C53.7591 178.225 52.1132 176.579 52.1132 174.549V148.496Z" stroke="url(#paint0_linear)" stroke-width="0.226449"/>
</g>
<g opacity="0.5">
<path d="M68.8157 159.824L69.3062 158.843V156.321C70.1503 156.102 70.7776 155.341 70.7776 154.429C70.7776 153.347 69.8977 152.467 68.8157 152.467C67.7338 152.467 66.8539 153.347 66.8539 154.429C66.8539 155.341 67.4812 156.102 68.3253 156.321V158.843L68.8157 159.824Z" fill="white"/>
<path d="M70.9085 156.667L70.6471 157.613C71.9179 157.964 72.7394 158.639 72.7394 159.334C72.7394 160.262 71.1283 161.296 68.8157 161.296C66.5032 161.296 64.8921 160.262 64.8921 159.334C64.8921 158.639 65.7136 157.964 66.9848 157.612L66.7234 156.667C64.9887 157.146 63.9111 158.168 63.9111 159.334C63.9111 160.984 66.0657 162.277 68.8157 162.277C71.5657 162.277 73.7203 160.984 73.7203 159.334C73.7203 158.168 72.6428 157.146 70.9085 156.667Z" fill="white"/>
</g>
<path opacity="0.5" d="M60.5355 169.404V170.146H57.9845V166.693H58.8348V169.404H60.5355ZM62.2719 167.492C62.667 167.492 63.002 167.619 63.2769 167.874C63.5517 168.128 63.6892 168.454 63.6892 168.853C63.6892 169.255 63.5517 169.583 63.2769 169.837C63.002 170.091 62.667 170.219 62.2719 170.219C61.8699 170.219 61.5298 170.091 61.2515 169.837C60.9766 169.583 60.8392 169.255 60.8392 168.853C60.8392 168.454 60.9766 168.128 61.2515 167.874C61.5298 167.619 61.8699 167.492 62.2719 167.492ZM62.2719 169.523C62.4402 169.523 62.5863 169.461 62.71 169.337C62.8336 169.21 62.8955 169.049 62.8955 168.853C62.8955 168.657 62.8319 168.497 62.7048 168.374C62.5811 168.246 62.4368 168.183 62.2719 168.183C62.1001 168.183 61.9506 168.246 61.8235 168.374C61.6964 168.497 61.6328 168.657 61.6328 168.853C61.6328 169.049 61.6947 169.21 61.8184 169.337C61.9455 169.461 62.0967 169.523 62.2719 169.523ZM65.3566 169.502C65.6452 169.502 65.8324 169.351 65.9183 169.049L66.6759 169.214C66.6106 169.516 66.456 169.76 66.2121 169.945C65.9681 170.131 65.683 170.224 65.3566 170.224C64.9615 170.224 64.6265 170.097 64.3516 169.842C64.0802 169.585 63.9445 169.255 63.9445 168.853C63.9445 168.454 64.0802 168.126 64.3516 167.868C64.6265 167.611 64.9615 167.482 65.3566 167.482C65.6761 167.482 65.9578 167.573 66.2018 167.755C66.4457 167.937 66.6038 168.178 66.6759 168.477L65.9029 168.662C65.8685 168.511 65.8032 168.398 65.707 168.322C65.6108 168.243 65.494 168.203 65.3566 168.203C65.171 168.203 65.0216 168.265 64.9082 168.389C64.7948 168.509 64.7381 168.664 64.7381 168.853C64.7381 169.045 64.7948 169.202 64.9082 169.322C65.0216 169.442 65.171 169.502 65.3566 169.502ZM68.2336 167.482C68.6012 167.482 68.8898 167.571 69.0994 167.75C69.3124 167.929 69.4189 168.181 69.4189 168.508V170.146H68.6253V169.956C68.4157 170.134 68.158 170.224 67.8522 170.224C67.5636 170.224 67.33 170.146 67.1513 169.992C66.9761 169.837 66.8885 169.633 66.8885 169.378C66.8885 169.121 66.9829 168.918 67.1719 168.77C67.3609 168.619 67.6254 168.544 67.9656 168.544H68.6253V168.492C68.6253 168.386 68.5909 168.3 68.5222 168.234C68.4569 168.166 68.3693 168.131 68.2593 168.131C68.0085 168.131 67.8642 168.24 67.8264 168.456L67.0482 168.296C67.1066 168.045 67.2406 167.848 67.4502 167.704C67.6632 167.556 67.9244 167.482 68.2336 167.482ZM68.0841 169.605C68.2319 169.605 68.359 169.561 68.4655 169.471C68.572 169.382 68.6253 169.267 68.6253 169.126V169.069H68.0583C67.9553 169.069 67.8728 169.095 67.811 169.147C67.7526 169.195 67.7234 169.258 67.7234 169.337C67.7234 169.42 67.756 169.485 67.8213 169.533C67.8866 169.581 67.9742 169.605 68.0841 169.605ZM71.659 169.384L71.8497 170.033C71.6127 170.16 71.3773 170.224 71.1437 170.224C70.8173 170.224 70.563 170.136 70.3809 169.961C70.2023 169.786 70.1129 169.53 70.1129 169.193V168.214H69.644V167.559H70.1129V166.693H70.9375V167.559H71.7003V168.214H70.9375V169.111C70.9375 169.361 71.0526 169.487 71.2828 169.487C71.4134 169.487 71.5388 169.452 71.659 169.384ZM72.2755 166.467C72.3648 166.374 72.4782 166.328 72.6157 166.328C72.7531 166.328 72.8665 166.374 72.9558 166.467C73.0486 166.559 73.0949 166.669 73.0949 166.796C73.0949 166.927 73.0486 167.037 72.9558 167.126C72.8665 167.212 72.7531 167.255 72.6157 167.255C72.4782 167.255 72.3648 167.212 72.2755 167.126C72.1862 167.037 72.1415 166.927 72.1415 166.796C72.1415 166.666 72.1862 166.556 72.2755 166.467ZM73.028 170.146H72.2034V167.559H73.028V170.146ZM74.9296 167.492C75.3247 167.492 75.6597 167.619 75.9346 167.874C76.2095 168.128 76.3469 168.454 76.3469 168.853C76.3469 169.255 76.2095 169.583 75.9346 169.837C75.6597 170.091 75.3247 170.219 74.9296 170.219C74.5276 170.219 74.1875 170.091 73.9092 169.837C73.6343 169.583 73.4969 169.255 73.4969 168.853C73.4969 168.454 73.6343 168.128 73.9092 167.874C74.1875 167.619 74.5276 167.492 74.9296 167.492ZM74.9296 169.523C75.098 169.523 75.244 169.461 75.3677 169.337C75.4914 169.21 75.5532 169.049 75.5532 168.853C75.5532 168.657 75.4897 168.497 75.3625 168.374C75.2388 168.246 75.0945 168.183 74.9296 168.183C74.7578 168.183 74.6084 168.246 74.4812 168.374C74.3541 168.497 74.2906 168.657 74.2906 168.853C74.2906 169.049 74.3524 169.21 74.4761 169.337C74.6032 169.461 74.7544 169.523 74.9296 169.523ZM78.3905 167.482C78.6929 167.482 78.9351 167.582 79.1172 167.781C79.3027 167.977 79.3955 168.236 79.3955 168.559V170.146H78.5761V168.734C78.5761 168.583 78.5348 168.461 78.4524 168.368C78.3699 168.272 78.2634 168.224 78.1328 168.224C77.9645 168.224 77.8322 168.284 77.736 168.404C77.6432 168.521 77.5969 168.702 77.5969 168.946V170.146H76.7723V167.559H77.5969V167.807C77.803 167.59 78.0676 167.482 78.3905 167.482Z" fill="white"/>
<g filter="url(#filter6_d)">
<path d="M269.658 207.707C269.658 206.006 271.036 204.628 272.737 204.628H304C305.7 204.628 307.079 206.006 307.079 207.707V238.97C307.079 240.671 305.7 242.049 304 242.049H272.737C271.036 242.049 269.658 240.671 269.658 238.97V207.707Z" stroke="url(#paint1_linear)" stroke-width="0.473684"/>
</g>
<g opacity="0.4">
<path d="M292.789 214.181H283.947C283.338 214.181 282.842 214.676 282.842 215.286V221.917C282.842 222.527 283.338 223.023 283.947 223.023H292.789C293.399 223.023 293.895 222.527 293.895 221.917V215.286C293.895 214.676 293.399 214.181 292.789 214.181ZM286.553 216.391C287.189 216.391 287.658 216.86 287.658 217.496C287.658 218.132 287.189 218.602 286.553 218.602C285.917 218.602 285.448 218.132 285.448 217.496C285.448 216.86 285.916 216.391 286.553 216.391ZM288.606 220.812H284.5V220.555C284.5 219.796 285.426 219.016 286.553 219.016C287.68 219.016 288.606 219.796 288.606 220.555V220.812ZM292.237 220.26H290.026V219.154H292.237V220.26ZM292.237 218.049H289.474V216.944H292.237V218.049Z" fill="white"/>
</g>
<path opacity="0.4" d="M284.241 229.267V233.075H283.468L281.541 230.87V233.075H280.603V229.267H281.382L283.309 231.541V229.267H284.241ZM286.19 230.137C286.596 230.137 286.914 230.235 287.145 230.432C287.38 230.629 287.497 230.908 287.497 231.268V233.075H286.622V232.865C286.391 233.062 286.107 233.161 285.769 233.161C285.451 233.161 285.193 233.075 284.996 232.905C284.803 232.734 284.706 232.509 284.706 232.228C284.706 231.944 284.811 231.721 285.019 231.558C285.228 231.391 285.519 231.308 285.894 231.308H286.622V231.251C286.622 231.133 286.584 231.039 286.508 230.967C286.436 230.891 286.34 230.853 286.218 230.853C285.942 230.853 285.783 230.972 285.741 231.211L284.883 231.035C284.947 230.758 285.095 230.54 285.326 230.381C285.561 230.218 285.849 230.137 286.19 230.137ZM286.025 232.479C286.188 232.479 286.328 232.429 286.446 232.331C286.563 232.232 286.622 232.105 286.622 231.95V231.887H285.997C285.883 231.887 285.792 231.916 285.724 231.973C285.66 232.026 285.627 232.096 285.627 232.183C285.627 232.274 285.663 232.346 285.735 232.399C285.807 232.452 285.904 232.479 286.025 232.479ZM291.759 230.137C292.069 230.137 292.329 230.245 292.537 230.461C292.746 230.673 292.85 230.949 292.85 231.291V233.075H291.946V231.484C291.946 231.325 291.901 231.198 291.81 231.103C291.719 231.004 291.605 230.955 291.469 230.955C291.298 230.955 291.162 231.018 291.06 231.143C290.961 231.264 290.912 231.442 290.912 231.677V233.075H290.002V231.484C290.002 231.325 289.957 231.198 289.866 231.103C289.775 231.004 289.659 230.955 289.519 230.955C289.349 230.955 289.214 231.018 289.116 231.143C289.021 231.264 288.973 231.442 288.973 231.677V233.075H288.064V230.222H288.973V230.483C289.182 230.252 289.462 230.137 289.815 230.137C290.235 230.137 290.546 230.298 290.747 230.62C290.993 230.298 291.33 230.137 291.759 230.137ZM296.267 231.649V231.882H294.175C294.213 232.052 294.287 232.187 294.397 232.285C294.507 232.384 294.638 232.433 294.789 232.433C295.074 232.433 295.276 232.323 295.398 232.103L296.205 232.268C296.083 232.564 295.9 232.787 295.653 232.939C295.411 233.087 295.123 233.161 294.789 233.161C294.369 233.161 294.013 233.02 293.721 232.74C293.429 232.456 293.283 232.092 293.283 231.649C293.283 231.209 293.429 230.847 293.721 230.563C294.013 230.279 294.371 230.137 294.795 230.137C295.208 230.137 295.555 230.275 295.835 230.552C296.116 230.828 296.26 231.194 296.267 231.649ZM294.795 230.876C294.662 230.876 294.539 230.915 294.426 230.995C294.312 231.075 294.234 231.184 294.193 231.325H295.369C295.327 231.177 295.255 231.065 295.153 230.989C295.051 230.913 294.931 230.876 294.795 230.876Z" fill="white"/>
<g filter="url(#filter7_d)">
<path d="M93.2106 70.8122C93.2106 68.1961 95.3313 66.0753 97.9474 66.0753H135.842C138.458 66.0753 140.579 68.1961 140.579 70.8122V108.707C140.579 111.323 138.458 113.444 135.842 113.444H97.9474C95.3313 113.444 93.2106 111.323 93.2106 108.707V70.8122Z" fill="#53D084"/>
<g clip-path="url(#clip0)">
<path d="M126.036 84.1203C126.101 83.9064 126.161 83.6915 126.206 83.4737C126.209 83.4572 126.21 83.4416 126.214 83.4251C126.234 83.3298 126.243 83.2316 126.259 83.1354C126.284 82.9827 126.314 82.831 126.329 82.6774C126.354 82.4246 126.368 82.1669 126.368 81.9064C126.368 79.7586 125.477 77.814 124.038 76.4061C122.597 74.9992 120.608 74.128 118.41 74.128V81.9064H110.967L110.113 79.9618H106.474V81.9064H108.802L110.621 86.0542C109.356 86.5647 108.463 87.781 108.463 89.1986C108.463 91.0751 110.025 92.6017 111.945 92.6017C113.694 92.6017 115.132 91.3289 115.376 89.6848H117.466C117.71 91.3289 119.148 92.6017 120.897 92.6017C122.817 92.6017 124.379 91.0751 124.379 89.1986C124.379 88.5861 124.199 88.0192 123.908 87.5214C123.95 87.4815 123.997 87.4465 124.039 87.4057C124.397 87.0547 124.723 86.6677 125.011 86.2545C125.297 85.8364 125.544 85.393 125.743 84.9331C125.759 84.8972 125.769 84.8592 125.783 84.8233H125.784C125.79 84.8097 125.793 84.796 125.799 84.7824C125.887 84.5685 125.966 84.3536 126.033 84.1329C126.034 84.129 126.035 84.1252 126.036 84.1203ZM111.945 90.6571C111.122 90.6571 110.453 90.0027 110.453 89.1986C110.453 88.3945 111.122 87.7402 111.945 87.7402C112.767 87.7402 113.437 88.3945 113.437 89.1986C113.437 90.0027 112.767 90.6571 111.945 90.6571ZM120.897 90.6571C120.075 90.6571 119.405 90.0027 119.405 89.1986C119.405 88.3945 120.075 87.7402 120.897 87.7402C121.72 87.7402 122.389 88.3945 122.389 89.1986C122.389 90.0027 121.72 90.6571 120.897 90.6571Z" fill="white"/>
</g>
<path d="M114.261 102.444H113.052L112.729 101.606H110.793L110.47 102.444H109.254L111.177 97.8419H112.338L114.261 102.444ZM112.352 100.63L111.761 99.1194L111.177 100.63H112.352ZM118.216 98.9958V102.512C118.216 103.025 118.023 103.428 117.639 103.721C117.254 104.014 116.771 104.161 116.189 104.161C115.374 104.161 114.8 103.884 114.465 103.33L115.379 102.767C115.507 102.922 115.631 103.032 115.75 103.096C115.869 103.16 116.015 103.192 116.189 103.192C116.455 103.192 116.675 103.124 116.849 102.986C117.027 102.854 117.117 102.659 117.117 102.403V102.148C116.842 102.414 116.485 102.547 116.045 102.547C115.578 102.547 115.18 102.377 114.85 102.039C114.525 101.695 114.362 101.256 114.362 100.72C114.362 100.189 114.525 99.7513 114.85 99.4079C115.18 99.0645 115.578 98.8928 116.045 98.8928C116.485 98.8928 116.842 99.0256 117.117 99.2912V98.9958H118.216ZM116.272 101.613C116.501 101.613 116.698 101.53 116.863 101.365C117.032 101.196 117.117 100.981 117.117 100.72C117.117 100.463 117.032 100.25 116.863 100.081C116.698 99.9116 116.501 99.8269 116.272 99.8269C116.029 99.8269 115.83 99.9116 115.674 100.081C115.519 100.246 115.441 100.459 115.441 100.72C115.441 100.985 115.519 101.201 115.674 101.365C115.83 101.53 116.029 101.613 116.272 101.613ZM122.389 100.72V101.001H119.861C119.907 101.207 119.996 101.37 120.129 101.489C120.262 101.608 120.42 101.668 120.603 101.668C120.946 101.668 121.191 101.535 121.338 101.269L122.313 101.468C122.166 101.826 121.944 102.096 121.647 102.279C121.354 102.457 121.006 102.547 120.603 102.547C120.095 102.547 119.664 102.377 119.312 102.039C118.959 101.695 118.783 101.256 118.783 100.72C118.783 100.189 118.959 99.7513 119.312 99.4079C119.664 99.0645 120.097 98.8928 120.61 98.8928C121.109 98.8928 121.528 99.0599 121.867 99.3942C122.205 99.7284 122.379 100.17 122.389 100.72ZM120.61 99.7857C120.449 99.7857 120.301 99.8338 120.163 99.9299C120.026 100.026 119.932 100.159 119.882 100.328H121.303C121.253 100.15 121.166 100.015 121.042 99.923C120.919 99.8315 120.774 99.7857 120.61 99.7857Z" fill="white"/>
</g>
<defs>
<filter id="filter0_d" x="127.341" y="33.8897" width="134.003" height="242.003" filterUnits="userSpaceOnUse" color-interpolation-filters="sRGB">
<feFlood flood-opacity="0" result="BackgroundImageFix"/>
<feColorMatrix in="SourceAlpha" type="matrix" values="0 0 0 0 0 0 0 0 0 0 0 0 0 0 0 0 0 0 127 0"/>
<feOffset/>
<feGaussianBlur stdDeviation="1.64546"/>
<feColorMatrix type="matrix" values="0 0 0 0 0.188235 0 0 0 0 0.368627 0 0 0 0 0.929412 0 0 0 1 0"/>
<feBlend mode="normal" in2="BackgroundImageFix" result="effect1_dropShadow"/>
<feBlend mode="normal" in="SourceGraphic" in2="effect1_dropShadow" result="shape"/>
</filter>
<filter id="filter1_d" x="145.316" y="49.9701" width="169.579" height="169.579" filterUnits="userSpaceOnUse" color-interpolation-filters="sRGB">
<feFlood flood-opacity="0" result="BackgroundImageFix"/>
<feColorMatrix in="SourceAlpha" type="matrix" values="0 0 0 0 0 0 0 0 0 0 0 0 0 0 0 0 0 0 127 0"/>
<feOffset dy="1.89474"/>
<feGaussianBlur stdDeviation="28.4211"/>
<feColorMatrix type="matrix" values="0 0 0 0 0.188235 0 0 0 0 0.368627 0 0 0 0 0.929412 0 0 0 0.52 0"/>
<feBlend mode="normal" in2="BackgroundImageFix" result="effect1_dropShadow"/>
<feBlend mode="normal" in="SourceGraphic" in2="effect1_dropShadow" result="shape"/>
</filter>
<filter id="filter2_d" x="18.8421" y="183.075" width="135.947" height="135.947" filterUnits="userSpaceOnUse" color-interpolation-filters="sRGB">
<feFlood flood-opacity="0" result="BackgroundImageFix"/>
<feColorMatrix in="SourceAlpha" type="matrix" values="0 0 0 0 0 0 0 0 0 0 0 0 0 0 0 0 0 0 127 0"/>
<feOffset dy="1.89474"/>
<feGaussianBlur stdDeviation="28.4211"/>
<feColorMatrix type="matrix" values="0 0 0 0 0.32549 0 0 0 0 0.815686 0 0 0 0 0.517647 0 0 0 1 0"/>
<feBlend mode="normal" in2="BackgroundImageFix" result="effect1_dropShadow"/>
<feBlend mode="normal" in="SourceGraphic" in2="effect1_dropShadow" result="shape"/>
</filter>
<filter id="filter3_d" x="115.433" y="204.762" width="164.924" height="164.924" filterUnits="userSpaceOnUse" color-interpolation-filters="sRGB">
<feFlood flood-opacity="0" result="BackgroundImageFix"/>
<feColorMatrix in="SourceAlpha" type="matrix" values="0 0 0 0 0 0 0 0 0 0 0 0 0 0 0 0 0 0 127 0"/>
<feOffset dy="2.30664"/>
<feGaussianBlur stdDeviation="34.5995"/>
<feColorMatrix type="matrix" values="0 0 0 0 0 0 0 0 0 0 0 0 0 0 0 0 0 0 1 0"/>
<feBlend mode="normal" in2="BackgroundImageFix" result="effect1_dropShadow"/>
<feBlend mode="normal" in="SourceGraphic" in2="effect1_dropShadow" result="shape"/>
</filter>
<filter id="filter4_d" x="203.105" y="-0.240445" width="143.526" height="143.526" filterUnits="userSpaceOnUse" color-interpolation-filters="sRGB">
<feFlood flood-opacity="0" result="BackgroundImageFix"/>
<feColorMatrix in="SourceAlpha" type="matrix" values="0 0 0 0 0 0 0 0 0 0 0 0 0 0 0 0 0 0 127 0"/>
<feOffset dy="1.89474"/>
<feGaussianBlur stdDeviation="28.4211"/>
<feColorMatrix type="matrix" values="0 0 0 0 0.32549 0 0 0 0 0.815686 0 0 0 0 0.517647 0 0 0 1 0"/>
<feBlend mode="normal" in2="BackgroundImageFix" result="effect1_dropShadow"/>
<feBlend mode="normal" in="SourceGraphic" in2="effect1_dropShadow" result="shape"/>
</filter>
<filter id="filter5_d" x="-4.84211" y="89.7596" width="147.316" height="147.316" filterUnits="userSpaceOnUse" color-interpolation-filters="sRGB">
<feFlood flood-opacity="0" result="BackgroundImageFix"/>
<feColorMatrix in="SourceAlpha" type="matrix" values="0 0 0 0 0 0 0 0 0 0 0 0 0 0 0 0 0 0 127 0"/>
<feOffset dy="1.89474"/>
<feGaussianBlur stdDeviation="28.4211"/>
<feColorMatrix type="matrix" values="0 0 0 0 0.188235 0 0 0 0 0.368627 0 0 0 0 0.929412 0 0 0 0.8 0"/>
<feBlend mode="normal" in2="BackgroundImageFix" result="effect1_dropShadow"/>
<feBlend mode="normal" in="SourceGraphic" in2="effect1_dropShadow" result="shape"/>
</filter>
<filter id="filter6_d" x="212.579" y="149.444" width="151.579" height="151.579" filterUnits="userSpaceOnUse" color-interpolation-filters="sRGB">
<feFlood flood-opacity="0" result="BackgroundImageFix"/>
<feColorMatrix in="SourceAlpha" type="matrix" values="0 0 0 0 0 0 0 0 0 0 0 0 0 0 0 0 0 0 127 0"/>
<feOffset dy="1.89474"/>
<feGaussianBlur stdDeviation="28.4211"/>
<feColorMatrix type="matrix" values="0 0 0 0 0.188235 0 0 0 0 0.368627 0 0 0 0 0.929412 0 0 0 0.8 0"/>
<feBlend mode="normal" in2="BackgroundImageFix" result="effect1_dropShadow"/>
<feBlend mode="normal" in="SourceGraphic" in2="effect1_dropShadow" result="shape"/>
</filter>
<filter id="filter7_d" x="36.3685" y="11.128" width="161.053" height="161.053" filterUnits="userSpaceOnUse" color-interpolation-filters="sRGB">
<feFlood flood-opacity="0" result="BackgroundImageFix"/>
<feColorMatrix in="SourceAlpha" type="matrix" values="0 0 0 0 0 0 0 0 0 0 0 0 0 0 0 0 0 0 127 0"/>
<feOffset dy="1.89474"/>
<feGaussianBlur stdDeviation="28.4211"/>
<feColorMatrix type="matrix" values="0 0 0 0 0.32549 0 0 0 0 0.815686 0 0 0 0 0.517647 0 0 0 1 0"/>
<feBlend mode="normal" in2="BackgroundImageFix" result="effect1_dropShadow"/>
<feBlend mode="normal" in="SourceGraphic" in2="effect1_dropShadow" result="shape"/>
</filter>
<linearGradient id="paint0_linear" x1="68.8158" y1="144.707" x2="68.8158" y2="178.339" gradientUnits="userSpaceOnUse">
<stop stop-color="white" stop-opacity="0.11"/>
<stop offset="1" stop-color="white" stop-opacity="0.19"/>
</linearGradient>
<linearGradient id="paint1_linear" x1="288.368" y1="204.391" x2="288.368" y2="242.286" gradientUnits="userSpaceOnUse">
<stop stop-color="white" stop-opacity="0.11"/>
<stop offset="1" stop-color="white" stop-opacity="0.19"/>
</linearGradient>
<clipPath id="clip0">
<rect width="28.4211" height="28.4211" fill="white" transform="translate(102.211 69.8648)"/>
</clipPath>
</defs>
</svg>
