<svg viewBox="0 0 32 20" fill="none" xmlns="http://www.w3.org/2000/svg">
<path d="M29.0286 20H2.97143C1.37143 20 0 18.6667 0 17.1111V2.88889C0 1.33333 1.37143 0 2.97143 0H29.0286C30.6286 0 32 1.33333 32 2.88889V17.1111C32 18.6667 30.6286 20 29.0286 20Z" fill="#E8EEF0"/>
<mask id="mask0" mask-type="alpha" maskUnits="userSpaceOnUse" x="0" y="0" width="32" height="20">
<path d="M29.0286 20H2.97143C1.37143 20 0 18.6667 0 17.1111V2.88889C0 1.33333 1.37143 0 2.97143 0H29.0286C30.6286 0 32 1.33333 32 2.88889V17.1111C32 18.6667 30.6286 20 29.0286 20Z" fill="white"/>
</mask>
<g mask="url(#mask0)">
<path d="M0 0H10.7429V20H0V0Z" fill="#232121"/>
<path d="M10.7429 0H21.4857V20H10.7429V0Z" fill="#F2D249"/>
<path d="M21.2571 0H32V20H21.2571V0Z" fill="#ED5565"/>
</g>
</svg>
