<svg viewBox="0 0 32 20" fill="none" xmlns="http://www.w3.org/2000/svg">
<path d="M29.0246 20H2.96901C1.36933 20 0 18.6683 0 17.1126V2.88737C0 1.33167 1.36933 0 2.96901 0H29.0182C30.6179 0 31.9872 1.33167 31.9872 2.88737V17.1126C31.9936 18.6683 30.6243 20 29.0246 20Z" fill="#ED5565"/>
<path d="M31.9936 6.67081H0V2.66957C0 1.11388 1.14537 0 2.74505 0H29.2549C30.8546 0 32 1.11388 32 2.66957V6.67081H31.9936Z" fill="#232121"/>
<path d="M29.2486 20H2.74505C1.14537 20 0 18.8861 0 17.3304V13.3354H31.9936V17.3366C31.9936 18.8923 30.8482 20 29.2486 20Z" fill="#F2D249"/>
</svg>
