<svg viewBox="0 0 648 476" fill="none" xmlns="http://www.w3.org/2000/svg">
<g clip-path="url(#clip0)">
<path d="M626.799 468.307C628.544 468.307 629.964 469.73 629.964 471.479C629.964 473.227 628.544 474.649 626.799 474.649C625.053 474.649 623.633 473.227 623.633 471.479C623.633 469.73 625.053 468.307 626.799 468.307ZM626.799 466.49C624.048 466.49 621.818 468.723 621.818 471.479C621.818 474.234 624.048 476.467 626.799 476.467C629.549 476.467 631.779 474.234 631.779 471.479C631.779 468.723 629.549 466.49 626.799 466.49Z" fill="white"/>
<path d="M642.662 426.16H-4.73267V455.382H642.662V426.16Z" fill="#072D57"/>
<path d="M469.4 104.935C470.2 104.935 470.848 104.285 470.848 103.485C470.848 102.684 470.2 102.034 469.4 102.034C468.601 102.034 467.953 102.684 467.953 103.485C467.953 104.285 468.601 104.935 469.4 104.935Z" fill="#96C9FE"/>
<path d="M483.962 90.8399C484.762 90.8399 485.41 90.1901 485.41 89.3895C485.41 88.5889 484.762 87.9392 483.962 87.9392C483.163 87.9392 482.515 88.5889 482.515 89.3895C482.515 90.1901 483.163 90.8399 483.962 90.8399Z" fill="#96C9FE"/>
<path d="M305.684 97.6026C306.483 97.6026 307.131 96.9528 307.131 96.1522C307.131 95.3516 306.483 94.7019 305.684 94.7019C304.884 94.7019 304.236 95.3516 304.236 96.1522C304.236 96.9528 304.884 97.6026 305.684 97.6026Z" fill="#96C9FE"/>
<path d="M293.642 101.07C294.441 101.07 295.09 100.42 295.09 99.6198C295.09 98.8183 294.441 98.1694 293.642 98.1694C292.843 98.1694 292.194 98.8183 292.194 99.6198C292.194 100.42 292.843 101.07 293.642 101.07Z" fill="#96C9FE"/>
<path d="M495.978 97.9669C496.778 97.9669 497.426 97.3181 497.426 96.5166C497.426 95.716 496.778 95.0671 495.978 95.0671C495.179 95.0671 494.531 95.716 494.531 96.5166C494.531 97.3181 495.179 97.9669 495.978 97.9669Z" fill="#96C9FE"/>
<path d="M317.556 86.4098C318.355 86.4098 319.003 85.7609 319.003 84.9594C319.003 84.1588 318.355 83.51 317.556 83.51C316.755 83.51 316.108 84.1588 316.108 84.9594C316.108 85.7609 316.755 86.4098 317.556 86.4098Z" fill="#96C9FE"/>
<path d="M483.473 81.877C484.273 81.877 484.921 81.2282 484.921 80.4276C484.921 79.6261 484.273 78.9773 483.473 78.9773C482.674 78.9773 482.025 79.6261 482.025 80.4276C482.025 81.2282 482.674 81.877 483.473 81.877Z" fill="#96C9FE"/>
<path d="M509.586 96.5167C510.387 96.5167 511.034 95.8679 511.034 95.0673C511.034 94.2658 510.387 93.6169 509.586 93.6169C508.787 93.6169 508.139 94.2658 508.139 95.0673C508.139 95.8679 508.787 96.5167 509.586 96.5167Z" fill="#96C9FE"/>
<path d="M458.655 97.1228C459.454 97.1228 460.103 96.4731 460.103 95.6725C460.103 94.8719 459.454 94.2222 458.655 94.2222C457.855 94.2222 457.207 94.8719 457.207 95.6725C457.207 96.4731 457.855 97.1228 458.655 97.1228Z" fill="#96C9FE"/>
<path d="M316.108 94.702C316.907 94.702 317.555 94.0532 317.555 93.2517C317.555 92.4511 316.907 91.8022 316.108 91.8022C315.308 91.8022 314.66 92.4511 314.66 93.2517C314.66 94.0532 315.308 94.702 316.108 94.702Z" fill="#96C9FE"/>
<path d="M375.051 101.07C375.851 101.07 376.499 100.42 376.499 99.6198C376.499 98.8183 375.851 98.1694 375.051 98.1694C374.252 98.1694 373.604 98.8183 373.604 99.6198C373.604 100.42 374.252 101.07 375.051 101.07Z" fill="#96C9FE"/>
<path d="M421.497 101.07C422.296 101.07 422.944 100.42 422.944 99.6198C422.944 98.8183 422.296 98.1694 421.497 98.1694C420.697 98.1694 420.049 98.8183 420.049 99.6198C420.049 100.42 420.697 101.07 421.497 101.07Z" fill="#96C9FE"/>
<path d="M297.229 90.1773C298.029 90.1773 298.677 89.5285 298.677 88.7279C298.677 87.9264 298.029 87.2776 297.229 87.2776C296.43 87.2776 295.781 87.9264 295.781 88.7279C295.781 89.5285 296.43 90.1773 297.229 90.1773Z" fill="#96C9FE"/>
<path d="M478.435 97.9669C479.235 97.9669 479.883 97.3181 479.883 96.5166C479.883 95.716 479.235 95.0671 478.435 95.0671C477.636 95.0671 476.988 95.716 476.988 96.5166C476.988 97.3181 477.636 97.9669 478.435 97.9669Z" fill="#96C9FE"/>
<path d="M288.551 90.7598C289.35 90.7598 289.999 90.111 289.999 89.3104C289.999 88.5089 289.35 87.8601 288.551 87.8601C287.752 87.8601 287.103 88.5089 287.103 89.3104C287.103 90.111 287.752 90.7598 288.551 90.7598Z" fill="#96C9FE"/>
<path d="M282.834 96.1521C283.633 96.1521 284.282 95.5024 284.282 94.7018C284.282 93.9012 283.633 93.2515 282.834 93.2515C282.035 93.2515 281.386 93.9012 281.386 94.7018C281.386 95.5024 282.035 96.1521 282.834 96.1521Z" fill="#96C9FE"/>
<path d="M539.9 97.9669C540.7 97.9669 541.348 97.3181 541.348 96.5166C541.348 95.716 540.7 95.0671 539.9 95.0671C539.1 95.0671 538.453 95.716 538.453 96.5166C538.453 97.3181 539.1 97.9669 539.9 97.9669Z" fill="#96C9FE"/>
<path d="M548.984 92.2901C549.783 92.2901 550.431 91.6403 550.431 90.8397C550.431 90.0392 549.783 89.3894 548.984 89.3894C548.184 89.3894 547.536 90.0392 547.536 90.8397C547.536 91.6403 548.184 92.2901 548.984 92.2901Z" fill="#96C9FE"/>
<path d="M364.189 87.8601C364.988 87.8601 365.637 87.2104 365.637 86.4098C365.637 85.6092 364.988 84.9595 364.189 84.9595C363.39 84.9595 362.741 85.6092 362.741 86.4098C362.741 87.2104 363.39 87.8601 364.189 87.8601Z" fill="#96C9FE"/>
<path d="M334.446 95.4254C335.246 95.4254 335.893 94.7765 335.893 93.9751C335.893 93.1745 335.246 92.5256 334.446 92.5256C333.646 92.5256 332.999 93.1745 332.999 93.9751C332.999 94.7765 333.646 95.4254 334.446 95.4254Z" fill="#96C9FE"/>
<path d="M334.446 101.07C335.246 101.07 335.893 100.42 335.893 99.6198C335.893 98.8183 335.246 98.1694 334.446 98.1694C333.646 98.1694 332.999 98.8183 332.999 99.6198C332.999 100.42 333.646 101.07 334.446 101.07Z" fill="#96C9FE"/>
<path d="M329.607 86.4098C330.406 86.4098 331.054 85.7609 331.054 84.9594C331.054 84.1588 330.406 83.51 329.607 83.51C328.807 83.51 328.159 84.1588 328.159 84.9594C328.159 85.7609 328.807 86.4098 329.607 86.4098Z" fill="#96C9FE"/>
<path d="M326.24 96.8755C327.04 96.8755 327.688 96.2267 327.688 95.4252C327.688 94.6246 327.04 93.9749 326.24 93.9749C325.44 93.9749 324.792 94.6246 324.792 95.4252C324.792 96.2267 325.44 96.8755 326.24 96.8755Z" fill="#96C9FE"/>
<path d="M517.295 84.0506C518.095 84.0506 518.743 83.4018 518.743 82.6003C518.743 81.7997 518.095 81.1509 517.295 81.1509C516.496 81.1509 515.848 81.7997 515.848 82.6003C515.848 83.4018 516.496 84.0506 517.295 84.0506Z" fill="#96C9FE"/>
<path d="M501.985 83.3272C502.786 83.3272 503.433 82.6784 503.433 81.8769C503.433 81.0763 502.786 80.4275 501.985 80.4275C501.186 80.4275 500.539 81.0763 500.539 81.8769C500.539 82.6784 501.186 83.3272 501.985 83.3272Z" fill="#96C9FE"/>
<path d="M524.961 91.563C525.76 91.563 526.408 90.9133 526.408 90.1127C526.408 89.3121 525.76 88.6624 524.961 88.6624C524.16 88.6624 523.513 89.3121 523.513 90.1127C523.513 90.9133 524.16 91.563 524.961 91.563Z" fill="#96C9FE"/>
<path d="M531.883 84.0506C532.683 84.0506 533.331 83.4018 533.331 82.6003C533.331 81.7997 532.683 81.1509 531.883 81.1509C531.084 81.1509 530.436 81.7997 530.436 82.6003C530.436 83.4018 531.084 84.0506 531.883 84.0506Z" fill="#96C9FE"/>
<path d="M531.883 102.035C532.683 102.035 533.331 101.386 533.331 100.584C533.331 99.7836 532.683 99.1348 531.883 99.1348C531.084 99.1348 530.436 99.7836 530.436 100.584C530.436 101.386 531.084 102.035 531.883 102.035Z" fill="#96C9FE"/>
<path d="M523.51 102.035C524.31 102.035 524.958 101.386 524.958 100.584C524.958 99.7836 524.31 99.1348 523.51 99.1348C522.711 99.1348 522.062 99.7836 522.062 100.584C522.062 101.386 522.711 102.035 523.51 102.035Z" fill="#96C9FE"/>
<path d="M357.105 95.4254C357.906 95.4254 358.553 94.7765 358.553 93.9751C358.553 93.1745 357.906 92.5256 357.105 92.5256C356.306 92.5256 355.657 93.1745 355.657 93.9751C355.657 94.7765 356.306 95.4254 357.105 95.4254Z" fill="#96C9FE"/>
<path d="M542.984 84.0506C543.783 84.0506 544.432 83.4018 544.432 82.6003C544.432 81.7997 543.783 81.1509 542.984 81.1509C542.185 81.1509 541.536 81.7997 541.536 82.6003C541.536 83.4018 542.185 84.0506 542.984 84.0506Z" fill="#96C9FE"/>
<path d="M561.293 84.0506C562.093 84.0506 562.741 83.4018 562.741 82.6003C562.741 81.7997 562.093 81.1509 561.293 81.1509C560.494 81.1509 559.846 81.7997 559.846 82.6003C559.846 83.4018 560.494 84.0506 561.293 84.0506Z" fill="#96C9FE"/>
<path d="M575.092 81.877C575.892 81.877 576.539 81.2282 576.539 80.4276C576.539 79.6261 575.892 78.9773 575.092 78.9773C574.292 78.9773 573.645 79.6261 573.645 80.4276C573.645 81.2282 574.292 81.877 575.092 81.877Z" fill="#96C9FE"/>
<path d="M348.537 94.702C349.336 94.702 349.985 94.0532 349.985 93.2517C349.985 92.4511 349.336 91.8022 348.537 91.8022C347.738 91.8022 347.089 92.4511 347.089 93.2517C347.089 94.0532 347.738 94.702 348.537 94.702Z" fill="#96C9FE"/>
<path d="M575.852 90.8399C576.652 90.8399 577.299 90.1901 577.299 89.3895C577.299 88.5889 576.652 87.9392 575.852 87.9392C575.052 87.9392 574.405 88.5889 574.405 89.3895C574.405 90.1901 575.052 90.8399 575.852 90.8399Z" fill="#96C9FE"/>
<path d="M559.846 99.4173C560.645 99.4173 561.294 98.7675 561.294 97.9669C561.294 97.1663 560.645 96.5166 559.846 96.5166C559.046 96.5166 558.398 97.1663 558.398 97.9669C558.398 98.7675 559.046 99.4173 559.846 99.4173Z" fill="#96C9FE"/>
<path d="M569.929 100.584C570.728 100.584 571.377 99.9352 571.377 99.1347C571.377 98.3332 570.728 97.6843 569.929 97.6843C569.13 97.6843 568.481 98.3332 568.481 99.1347C568.481 99.9352 569.13 100.584 569.929 100.584Z" fill="#96C9FE"/>
<path d="M618.296 83.3272C619.096 83.3272 619.744 82.6784 619.744 81.8769C619.744 81.0763 619.096 80.4275 618.296 80.4275C617.497 80.4275 616.849 81.0763 616.849 81.8769C616.849 82.6784 617.497 83.3272 618.296 83.3272Z" fill="#96C9FE"/>
<path d="M397.577 97.6026C398.376 97.6026 399.024 96.9528 399.024 96.1522C399.024 95.3516 398.376 94.7019 397.577 94.7019C396.777 94.7019 396.129 95.3516 396.129 96.1522C396.129 96.9528 396.777 97.6026 397.577 97.6026Z" fill="#96C9FE"/>
<path d="M587.871 97.9669C588.671 97.9669 589.319 97.3181 589.319 96.5166C589.319 95.716 588.671 95.0671 587.871 95.0671C587.072 95.0671 586.424 95.716 586.424 96.5166C586.424 97.3181 587.072 97.9669 587.871 97.9669Z" fill="#96C9FE"/>
<path d="M596.773 100.023C597.572 100.023 598.22 99.3737 598.22 98.5731C598.22 97.7716 597.572 97.1228 596.773 97.1228C595.973 97.1228 595.325 97.7716 595.325 98.5731C595.325 99.3737 595.973 100.023 596.773 100.023Z" fill="#96C9FE"/>
<path d="M416.46 96.8755C417.259 96.8755 417.908 96.2267 417.908 95.4252C417.908 94.6246 417.259 93.9749 416.46 93.9749C415.66 93.9749 415.012 94.6246 415.012 95.4252C415.012 96.2267 415.66 96.8755 416.46 96.8755Z" fill="#96C9FE"/>
<path d="M444.101 101.07C444.9 101.07 445.548 100.42 445.548 99.6198C445.548 98.8183 444.9 98.1694 444.101 98.1694C443.301 98.1694 442.653 98.8183 442.653 99.6198C442.653 100.42 443.301 101.07 444.101 101.07Z" fill="#96C9FE"/>
<path d="M389.121 90.1773C389.921 90.1773 390.569 89.5285 390.569 88.7279C390.569 87.9264 389.921 87.2776 389.121 87.2776C388.322 87.2776 387.674 87.9264 387.674 88.7279C387.674 89.5285 388.322 90.1773 389.121 90.1773Z" fill="#96C9FE"/>
<path d="M406.187 90.1773C406.987 90.1773 407.634 89.5285 407.634 88.7279C407.634 87.9264 406.987 87.2776 406.187 87.2776C405.387 87.2776 404.74 87.9264 404.74 88.7279C404.74 89.5285 405.387 90.1773 406.187 90.1773Z" fill="#96C9FE"/>
<path d="M376.498 94.702C377.297 94.702 377.946 94.0532 377.946 93.2517C377.946 92.4511 377.297 91.8022 376.498 91.8022C375.699 91.8022 375.05 92.4511 375.05 93.2517C375.05 94.0532 375.699 94.702 376.498 94.702Z" fill="#96C9FE"/>
<path d="M368.391 94.702C369.19 94.702 369.838 94.0532 369.838 93.2517C369.838 92.4511 369.19 91.8022 368.391 91.8022C367.59 91.8022 366.943 92.4511 366.943 93.2517C366.943 94.0532 367.59 94.702 368.391 94.702Z" fill="#96C9FE"/>
<path d="M630.342 90.8399C631.141 90.8399 631.79 90.1901 631.79 89.3895C631.79 88.5889 631.141 87.9392 630.342 87.9392C629.542 87.9392 628.894 88.5889 628.894 89.3895C628.894 90.1901 629.542 90.8399 630.342 90.8399Z" fill="#96C9FE"/>
<path d="M421.497 86.4098C422.296 86.4098 422.944 85.7609 422.944 84.9594C422.944 84.1588 422.296 83.51 421.497 83.51C420.697 83.51 420.049 84.1588 420.049 84.9594C420.049 85.7609 420.697 86.4098 421.497 86.4098Z" fill="#96C9FE"/>
<path d="M437.132 88.728C437.931 88.728 438.58 88.0783 438.58 87.2777C438.58 86.4771 437.931 85.8274 437.132 85.8274C436.332 85.8274 435.684 86.4771 435.684 87.2777C435.684 88.0783 436.332 88.728 437.132 88.728Z" fill="#96C9FE"/>
<path d="M430.608 101.07C431.407 101.07 432.055 100.42 432.055 99.6198C432.055 98.8183 431.407 98.1694 430.608 98.1694C429.808 98.1694 429.16 98.8183 429.16 99.6198C429.16 100.42 429.808 101.07 430.608 101.07Z" fill="#96C9FE"/>
<path d="M445.55 89.3103C446.351 89.3103 446.998 88.6606 446.998 87.86C446.998 87.0594 446.351 86.4097 445.55 86.4097C444.751 86.4097 444.104 87.0594 444.104 87.86C444.104 88.6606 444.751 89.3103 445.55 89.3103Z" fill="#96C9FE"/>
<path d="M638.134 98.573C638.933 98.573 639.581 97.9233 639.581 97.1227C639.581 96.3221 638.933 95.6724 638.134 95.6724C637.334 95.6724 636.686 96.3221 636.686 97.1227C636.686 97.9233 637.334 98.573 638.134 98.573Z" fill="#96C9FE"/>
<path d="M593.878 83.3272C594.678 83.3272 595.326 82.6784 595.326 81.8769C595.326 81.0763 594.678 80.4275 593.878 80.4275C593.078 80.4275 592.431 81.0763 592.431 81.8769C592.431 82.6784 593.078 83.3272 593.878 83.3272Z" fill="#96C9FE"/>
<path d="M603.1 90.8399C603.9 90.8399 604.547 90.1901 604.547 89.3895C604.547 88.5889 603.9 87.9392 603.1 87.9392C602.3 87.9392 601.653 88.5889 601.653 89.3895C601.653 90.1901 602.3 90.8399 603.1 90.8399Z" fill="#96C9FE"/>
<path d="M616.85 91.563C617.649 91.563 618.297 90.9133 618.297 90.1127C618.297 89.3121 617.649 88.6624 616.85 88.6624C616.05 88.6624 615.402 89.3121 615.402 90.1127C615.402 90.9133 616.05 91.563 616.85 91.563Z" fill="#96C9FE"/>
<path d="M448.997 95.4254C449.797 95.4254 450.445 94.7765 450.445 93.9751C450.445 93.1745 449.797 92.5256 448.997 92.5256C448.198 92.5256 447.55 93.1745 447.55 93.9751C447.55 94.7765 448.198 95.4254 448.997 95.4254Z" fill="#96C9FE"/>
<path d="M638.134 81.877C638.933 81.877 639.581 81.2282 639.581 80.4276C639.581 79.6261 638.933 78.9773 638.134 78.9773C637.334 78.9773 636.686 79.6261 636.686 80.4276C636.686 81.2282 637.334 81.877 638.134 81.877Z" fill="#96C9FE"/>
<path d="M481.832 455.596C482.631 455.596 483.279 454.947 483.279 454.146C483.279 453.345 482.631 452.696 481.832 452.696C481.032 452.696 480.384 453.345 480.384 454.146C480.384 454.947 481.032 455.596 481.832 455.596Z" fill="#96C9FE"/>
<path d="M496.39 441.501C497.19 441.501 497.838 440.851 497.838 440.051C497.838 439.25 497.19 438.601 496.39 438.601C495.591 438.601 494.943 439.25 494.943 440.051C494.943 440.851 495.591 441.501 496.39 441.501Z" fill="#96C9FE"/>
<path d="M318.115 448.263C318.914 448.263 319.563 447.614 319.563 446.814C319.563 446.012 318.914 445.363 318.115 445.363C317.315 445.363 316.667 446.012 316.667 446.814C316.667 447.614 317.315 448.263 318.115 448.263Z" fill="#96C9FE"/>
<path d="M306.067 451.731C306.867 451.731 307.515 451.082 307.515 450.281C307.515 449.48 306.867 448.831 306.067 448.831C305.268 448.831 304.62 449.48 304.62 450.281C304.62 451.082 305.268 451.731 306.067 451.731Z" fill="#96C9FE"/>
<path d="M508.41 448.628C509.209 448.628 509.857 447.979 509.857 447.178C509.857 446.377 509.209 445.728 508.41 445.728C507.61 445.728 506.962 446.377 506.962 447.178C506.962 447.979 507.61 448.628 508.41 448.628Z" fill="#96C9FE"/>
<path d="M329.984 437.071C330.783 437.071 331.431 436.422 331.431 435.621C331.431 434.82 330.783 434.171 329.984 434.171C329.183 434.171 328.536 434.82 328.536 435.621C328.536 436.422 329.183 437.071 329.984 437.071Z" fill="#96C9FE"/>
<path d="M495.901 432.538C496.701 432.538 497.349 431.89 497.349 431.088C497.349 430.288 496.701 429.639 495.901 429.639C495.102 429.639 494.454 430.288 494.454 431.088C494.454 431.89 495.102 432.538 495.901 432.538Z" fill="#96C9FE"/>
<path d="M522.013 447.178C522.812 447.178 523.46 446.529 523.46 445.728C523.46 444.927 522.812 444.278 522.013 444.278C521.213 444.278 520.565 444.927 520.565 445.728C520.565 446.529 521.213 447.178 522.013 447.178Z" fill="#96C9FE"/>
<path d="M471.083 447.784C471.882 447.784 472.531 447.134 472.531 446.334C472.531 445.533 471.882 444.883 471.083 444.883C470.283 444.883 469.635 445.533 469.635 446.334C469.635 447.134 470.283 447.784 471.083 447.784Z" fill="#96C9FE"/>
<path d="M328.536 445.363C329.336 445.363 329.984 444.714 329.984 443.913C329.984 443.112 329.336 442.463 328.536 442.463C327.737 442.463 327.089 443.112 327.089 443.913C327.089 444.714 327.737 445.363 328.536 445.363Z" fill="#96C9FE"/>
<path d="M387.48 451.731C388.279 451.731 388.927 451.082 388.927 450.281C388.927 449.48 388.279 448.831 387.48 448.831C386.68 448.831 386.032 449.48 386.032 450.281C386.032 451.082 386.68 451.731 387.48 451.731Z" fill="#96C9FE"/>
<path d="M433.925 451.731C434.724 451.731 435.373 451.082 435.373 450.281C435.373 449.48 434.724 448.831 433.925 448.831C433.125 448.831 432.477 449.48 432.477 450.281C432.477 451.082 433.125 451.731 433.925 451.731Z" fill="#96C9FE"/>
<path d="M309.657 440.839C310.457 440.839 311.105 440.19 311.105 439.388C311.105 438.588 310.457 437.939 309.657 437.939C308.858 437.939 308.21 438.588 308.21 439.388C308.21 440.19 308.858 440.839 309.657 440.839Z" fill="#96C9FE"/>
<path d="M490.862 448.628C491.661 448.628 492.309 447.979 492.309 447.178C492.309 446.377 491.661 445.728 490.862 445.728C490.062 445.728 489.414 446.377 489.414 447.178C489.414 447.979 490.062 448.628 490.862 448.628Z" fill="#96C9FE"/>
<path d="M300.979 441.421C301.778 441.421 302.427 440.772 302.427 439.971C302.427 439.17 301.778 438.521 300.979 438.521C300.18 438.521 299.531 439.17 299.531 439.971C299.531 440.772 300.18 441.421 300.979 441.421Z" fill="#96C9FE"/>
<path d="M295.259 446.814C296.059 446.814 296.706 446.164 296.706 445.363C296.706 444.563 296.059 443.913 295.259 443.913C294.459 443.913 293.812 444.563 293.812 445.363C293.812 446.164 294.459 446.814 295.259 446.814Z" fill="#96C9FE"/>
<path d="M552.328 448.628C553.127 448.628 553.775 447.979 553.775 447.178C553.775 446.377 553.127 445.728 552.328 445.728C551.528 445.728 550.88 446.377 550.88 447.178C550.88 447.979 551.528 448.628 552.328 448.628Z" fill="#96C9FE"/>
<path d="M561.411 442.951C562.212 442.951 562.859 442.302 562.859 441.501C562.859 440.7 562.212 440.051 561.411 440.051C560.612 440.051 559.964 440.7 559.964 441.501C559.964 442.302 560.612 442.951 561.411 442.951Z" fill="#96C9FE"/>
<path d="M376.617 438.522C377.416 438.522 378.064 437.872 378.064 437.071C378.064 436.271 377.416 435.621 376.617 435.621C375.817 435.621 375.169 436.271 375.169 437.071C375.169 437.872 375.817 438.522 376.617 438.522Z" fill="#96C9FE"/>
<path d="M346.874 446.087C347.674 446.087 348.322 445.438 348.322 444.636C348.322 443.836 347.674 443.187 346.874 443.187C346.075 443.187 345.427 443.836 345.427 444.636C345.427 445.438 346.075 446.087 346.874 446.087Z" fill="#96C9FE"/>
<path d="M346.874 451.731C347.674 451.731 348.322 451.082 348.322 450.281C348.322 449.48 347.674 448.831 346.874 448.831C346.075 448.831 345.427 449.48 345.427 450.281C345.427 451.082 346.075 451.731 346.874 451.731Z" fill="#96C9FE"/>
<path d="M342.033 437.071C342.832 437.071 343.481 436.422 343.481 435.621C343.481 434.82 342.832 434.171 342.033 434.171C341.234 434.171 340.585 434.82 340.585 435.621C340.585 436.422 341.234 437.071 342.033 437.071Z" fill="#96C9FE"/>
<path d="M338.666 447.537C339.465 447.537 340.114 446.887 340.114 446.087C340.114 445.286 339.465 444.636 338.666 444.636C337.867 444.636 337.218 445.286 337.218 446.087C337.218 446.887 337.867 447.537 338.666 447.537Z" fill="#96C9FE"/>
<path d="M529.724 434.712C530.523 434.712 531.171 434.063 531.171 433.262C531.171 432.461 530.523 431.812 529.724 431.812C528.924 431.812 528.276 432.461 528.276 433.262C528.276 434.063 528.924 434.712 529.724 434.712Z" fill="#96C9FE"/>
<path d="M514.415 433.989C515.214 433.989 515.862 433.339 515.862 432.538C515.862 431.738 515.214 431.088 514.415 431.088C513.615 431.088 512.967 431.738 512.967 432.538C512.967 433.339 513.615 433.989 514.415 433.989Z" fill="#96C9FE"/>
<path d="M537.386 442.225C538.186 442.225 538.834 441.575 538.834 440.774C538.834 439.974 538.186 439.324 537.386 439.324C536.587 439.324 535.938 439.974 535.938 440.774C535.938 441.575 536.587 442.225 537.386 442.225Z" fill="#96C9FE"/>
<path d="M544.312 434.712C545.111 434.712 545.759 434.063 545.759 433.262C545.759 432.461 545.111 431.812 544.312 431.812C543.512 431.812 542.864 432.461 542.864 433.262C542.864 434.063 543.512 434.712 544.312 434.712Z" fill="#96C9FE"/>
<path d="M544.312 452.696C545.111 452.696 545.759 452.046 545.759 451.245C545.759 450.445 545.111 449.795 544.312 449.795C543.512 449.795 542.864 450.445 542.864 451.245C542.864 452.046 543.512 452.696 544.312 452.696Z" fill="#96C9FE"/>
<path d="M535.939 452.696C536.739 452.696 537.387 452.046 537.387 451.245C537.387 450.445 536.739 449.795 535.939 449.795C535.14 449.795 534.491 450.445 534.491 451.245C534.491 452.046 535.14 452.696 535.939 452.696Z" fill="#96C9FE"/>
<path d="M369.533 446.087C370.333 446.087 370.981 445.438 370.981 444.636C370.981 443.836 370.333 443.187 369.533 443.187C368.734 443.187 368.086 443.836 368.086 444.636C368.086 445.438 368.734 446.087 369.533 446.087Z" fill="#96C9FE"/>
<path d="M555.412 434.712C556.211 434.712 556.86 434.063 556.86 433.262C556.86 432.461 556.211 431.812 555.412 431.812C554.613 431.812 553.964 432.461 553.964 433.262C553.964 434.063 554.613 434.712 555.412 434.712Z" fill="#96C9FE"/>
<path d="M573.722 434.712C574.521 434.712 575.169 434.063 575.169 433.262C575.169 432.461 574.521 431.812 573.722 431.812C572.922 431.812 572.274 432.461 572.274 433.262C572.274 434.063 572.922 434.712 573.722 434.712Z" fill="#96C9FE"/>
<path d="M587.52 432.538C588.319 432.538 588.967 431.89 588.967 431.088C588.967 430.288 588.319 429.639 587.52 429.639C586.72 429.639 586.072 430.288 586.072 431.088C586.072 431.89 586.72 432.538 587.52 432.538Z" fill="#96C9FE"/>
<path d="M360.962 445.363C361.762 445.363 362.41 444.714 362.41 443.913C362.41 443.112 361.762 442.463 360.962 442.463C360.163 442.463 359.514 443.112 359.514 443.913C359.514 444.714 360.163 445.363 360.962 445.363Z" fill="#96C9FE"/>
<path d="M588.28 441.501C589.08 441.501 589.727 440.851 589.727 440.051C589.727 439.25 589.08 438.601 588.28 438.601C587.48 438.601 586.833 439.25 586.833 440.051C586.833 440.851 587.48 441.501 588.28 441.501Z" fill="#96C9FE"/>
<path d="M572.274 450.079C573.073 450.079 573.721 449.429 573.721 448.629C573.721 447.828 573.073 447.178 572.274 447.178C571.474 447.178 570.826 447.828 570.826 448.629C570.826 449.429 571.474 450.079 572.274 450.079Z" fill="#96C9FE"/>
<path d="M582.357 451.246C583.157 451.246 583.805 450.597 583.805 449.795C583.805 448.995 583.157 448.346 582.357 448.346C581.558 448.346 580.909 448.995 580.909 449.795C580.909 450.597 581.558 451.246 582.357 451.246Z" fill="#96C9FE"/>
<path d="M630.726 433.989C631.525 433.989 632.173 433.339 632.173 432.538C632.173 431.738 631.525 431.088 630.726 431.088C629.926 431.088 629.278 431.738 629.278 432.538C629.278 433.339 629.926 433.989 630.726 433.989Z" fill="#96C9FE"/>
<path d="M410.005 448.263C410.804 448.263 411.453 447.614 411.453 446.814C411.453 446.012 410.804 445.363 410.005 445.363C409.205 445.363 408.557 446.012 408.557 446.814C408.557 447.614 409.205 448.263 410.005 448.263Z" fill="#96C9FE"/>
<path d="M600.3 448.628C601.099 448.628 601.747 447.979 601.747 447.178C601.747 446.377 601.099 445.728 600.3 445.728C599.5 445.728 598.852 446.377 598.852 447.178C598.852 447.979 599.5 448.628 600.3 448.628Z" fill="#96C9FE"/>
<path d="M609.202 450.684C610.001 450.684 610.649 450.035 610.649 449.233C610.649 448.433 610.001 447.784 609.202 447.784C608.402 447.784 607.754 448.433 607.754 449.233C607.754 450.035 608.402 450.684 609.202 450.684Z" fill="#96C9FE"/>
<path d="M428.888 447.537C429.688 447.537 430.336 446.887 430.336 446.087C430.336 445.286 429.688 444.636 428.888 444.636C428.088 444.636 427.44 445.286 427.44 446.087C427.44 446.887 428.088 447.537 428.888 447.537Z" fill="#96C9FE"/>
<path d="M456.529 451.731C457.328 451.731 457.977 451.082 457.977 450.281C457.977 449.48 457.328 448.831 456.529 448.831C455.73 448.831 455.081 449.48 455.081 450.281C455.081 451.082 455.73 451.731 456.529 451.731Z" fill="#96C9FE"/>
<path d="M401.549 440.839C402.349 440.839 402.997 440.19 402.997 439.388C402.997 438.588 402.349 437.939 401.549 437.939C400.75 437.939 400.102 438.588 400.102 439.388C400.102 440.19 400.75 440.839 401.549 440.839Z" fill="#96C9FE"/>
<path d="M418.615 440.839C419.415 440.839 420.063 440.19 420.063 439.388C420.063 438.588 419.415 437.939 418.615 437.939C417.816 437.939 417.167 438.588 417.167 439.388C417.167 440.19 417.816 440.839 418.615 440.839Z" fill="#96C9FE"/>
<path d="M388.926 445.363C389.726 445.363 390.374 444.714 390.374 443.913C390.374 443.112 389.726 442.463 388.926 442.463C388.127 442.463 387.479 443.112 387.479 443.913C387.479 444.714 388.127 445.363 388.926 445.363Z" fill="#96C9FE"/>
<path d="M380.82 445.363C381.619 445.363 382.267 444.714 382.267 443.913C382.267 443.112 381.619 442.463 380.82 442.463C380.02 442.463 379.372 443.112 379.372 443.913C379.372 444.714 380.02 445.363 380.82 445.363Z" fill="#96C9FE"/>
<path d="M642.77 441.501C643.569 441.501 644.218 440.851 644.218 440.051C644.218 439.25 643.569 438.601 642.77 438.601C641.971 438.601 641.322 439.25 641.322 440.051C641.322 440.851 641.971 441.501 642.77 441.501Z" fill="#96C9FE"/>
<path d="M433.925 437.071C434.724 437.071 435.373 436.422 435.373 435.621C435.373 434.82 434.724 434.171 433.925 434.171C433.125 434.171 432.477 434.82 432.477 435.621C432.477 436.422 433.125 437.071 433.925 437.071Z" fill="#96C9FE"/>
<path d="M449.562 439.389C450.362 439.389 451.01 438.74 451.01 437.939C451.01 437.138 450.362 436.489 449.562 436.489C448.762 436.489 448.115 437.138 448.115 437.939C448.115 438.74 448.762 439.389 449.562 439.389Z" fill="#96C9FE"/>
<path d="M443.037 451.731C443.837 451.731 444.485 451.082 444.485 450.281C444.485 449.48 443.837 448.831 443.037 448.831C442.238 448.831 441.589 449.48 441.589 450.281C441.589 451.082 442.238 451.731 443.037 451.731Z" fill="#96C9FE"/>
<path d="M457.979 439.971C458.778 439.971 459.426 439.322 459.426 438.522C459.426 437.72 458.778 437.071 457.979 437.071C457.179 437.071 456.531 437.72 456.531 438.522C456.531 439.322 457.179 439.971 457.979 439.971Z" fill="#96C9FE"/>
<path d="M606.307 433.989C607.106 433.989 607.753 433.339 607.753 432.538C607.753 431.738 607.106 431.088 606.307 431.088C605.506 431.088 604.859 431.738 604.859 432.538C604.859 433.339 605.506 433.989 606.307 433.989Z" fill="#96C9FE"/>
<path d="M615.528 441.501C616.328 441.501 616.975 440.851 616.975 440.051C616.975 439.25 616.328 438.601 615.528 438.601C614.728 438.601 614.081 439.25 614.081 440.051C614.081 440.851 614.728 441.501 615.528 441.501Z" fill="#96C9FE"/>
<path d="M629.278 442.225C630.077 442.225 630.726 441.575 630.726 440.774C630.726 439.974 630.077 439.324 629.278 439.324C628.479 439.324 627.83 439.974 627.83 440.774C627.83 441.575 628.479 442.225 629.278 442.225Z" fill="#96C9FE"/>
<path d="M461.425 446.087C462.225 446.087 462.873 445.438 462.873 444.636C462.873 443.836 462.225 443.187 461.425 443.187C460.626 443.187 459.978 443.836 459.978 444.636C459.978 445.438 460.626 446.087 461.425 446.087Z" fill="#96C9FE"/>
<path d="M629.393 345.958C630.192 345.958 630.841 345.308 630.841 344.507C630.841 343.707 630.192 343.057 629.393 343.057C628.594 343.057 627.945 343.707 627.945 344.507C627.945 345.308 628.594 345.958 629.393 345.958Z" fill="#96C9FE"/>
<path d="M477.049 268.886C477.849 268.886 478.497 268.236 478.497 267.435C478.497 266.635 477.849 265.985 477.049 265.985C476.25 265.985 475.602 266.635 475.602 267.435C475.602 268.236 476.25 268.886 477.049 268.886Z" fill="#96C9FE"/>
<path d="M489.072 276.013C489.871 276.013 490.519 275.363 490.519 274.563C490.519 273.762 489.871 273.112 489.072 273.112C488.272 273.112 487.624 273.762 487.624 274.563C487.624 275.363 488.272 276.013 489.072 276.013Z" fill="#96C9FE"/>
<path d="M476.563 259.923C477.362 259.923 478.011 259.274 478.011 258.473C478.011 257.672 477.362 257.023 476.563 257.023C475.764 257.023 475.115 257.672 475.115 258.473C475.115 259.274 475.764 259.923 476.563 259.923Z" fill="#96C9FE"/>
<path d="M502.677 274.562C503.476 274.562 504.125 273.914 504.125 273.112C504.125 272.312 503.476 271.663 502.677 271.663C501.878 271.663 501.229 272.312 501.229 273.112C501.229 273.914 501.878 274.562 502.677 274.562Z" fill="#96C9FE"/>
<path d="M618.644 338.145C619.444 338.145 620.092 337.497 620.092 336.695C620.092 335.894 619.444 335.246 618.644 335.246C617.844 335.246 617.196 335.894 617.196 336.695C617.196 337.497 617.844 338.145 618.644 338.145Z" fill="#96C9FE"/>
<path d="M535.044 342.093C535.843 342.093 536.492 341.443 536.492 340.643C536.492 339.842 535.843 339.192 535.044 339.192C534.245 339.192 533.596 339.842 533.596 340.643C533.596 341.443 534.245 342.093 535.044 342.093Z" fill="#96C9FE"/>
<path d="M581.489 342.093C582.288 342.093 582.937 341.443 582.937 340.643C582.937 339.842 582.288 339.192 581.489 339.192C580.69 339.192 580.041 339.842 580.041 340.643C580.041 341.443 580.69 342.093 581.489 342.093Z" fill="#96C9FE"/>
<path d="M638.428 338.99C639.227 338.99 639.876 338.341 639.876 337.54C639.876 336.739 639.227 336.09 638.428 336.09C637.629 336.09 636.98 336.739 636.98 337.54C636.98 338.341 637.629 338.99 638.428 338.99Z" fill="#96C9FE"/>
<path d="M532.989 276.013C533.79 276.013 534.437 275.363 534.437 274.563C534.437 273.762 533.79 273.112 532.989 273.112C532.19 273.112 531.542 273.762 531.542 274.563C531.542 275.363 532.19 276.013 532.989 276.013Z" fill="#96C9FE"/>
<path d="M542.073 270.335C542.873 270.335 543.521 269.686 543.521 268.886C543.521 268.084 542.873 267.436 542.073 267.436C541.274 267.436 540.625 268.084 540.625 268.886C540.625 269.686 541.274 270.335 542.073 270.335Z" fill="#96C9FE"/>
<path d="M510.385 262.097C511.185 262.097 511.833 261.447 511.833 260.646C511.833 259.846 511.185 259.196 510.385 259.196C509.586 259.196 508.937 259.846 508.937 260.646C508.937 261.447 509.586 262.097 510.385 262.097Z" fill="#96C9FE"/>
<path d="M495.076 261.373C495.876 261.373 496.523 260.724 496.523 259.923C496.523 259.122 495.876 258.473 495.076 258.473C494.276 258.473 493.628 259.122 493.628 259.923C493.628 260.724 494.276 261.373 495.076 261.373Z" fill="#96C9FE"/>
<path d="M518.05 269.609C518.85 269.609 519.497 268.959 519.497 268.159C519.497 267.358 518.85 266.708 518.05 266.708C517.25 266.708 516.603 267.358 516.603 268.159C516.603 268.959 517.25 269.609 518.05 269.609Z" fill="#96C9FE"/>
<path d="M524.972 262.097C525.772 262.097 526.42 261.447 526.42 260.646C526.42 259.846 525.772 259.196 524.972 259.196C524.173 259.196 523.525 259.846 523.525 260.646C523.525 261.447 524.173 262.097 524.972 262.097Z" fill="#96C9FE"/>
<path d="M524.972 280.08C525.772 280.08 526.42 279.431 526.42 278.63C526.42 277.829 525.772 277.18 524.972 277.18C524.173 277.18 523.525 277.829 523.525 278.63C523.525 279.431 524.173 280.08 524.972 280.08Z" fill="#96C9FE"/>
<path d="M516.6 280.08C517.399 280.08 518.048 279.431 518.048 278.63C518.048 277.829 517.399 277.18 516.6 277.18C515.8 277.18 515.152 277.829 515.152 278.63C515.152 279.431 515.8 280.08 516.6 280.08Z" fill="#96C9FE"/>
<path d="M536.074 262.097C536.873 262.097 537.521 261.447 537.521 260.646C537.521 259.846 536.873 259.196 536.074 259.196C535.274 259.196 534.626 259.846 534.626 260.646C534.626 261.447 535.274 262.097 536.074 262.097Z" fill="#96C9FE"/>
<path d="M554.383 262.097C555.183 262.097 555.831 261.447 555.831 260.646C555.831 259.846 555.183 259.196 554.383 259.196C553.583 259.196 552.936 259.846 552.936 260.646C552.936 261.447 553.583 262.097 554.383 262.097Z" fill="#96C9FE"/>
<path d="M568.177 259.923C568.977 259.923 569.625 259.274 569.625 258.473C569.625 257.672 568.977 257.023 568.177 257.023C567.378 257.023 566.73 257.672 566.73 258.473C566.73 259.274 567.378 259.923 568.177 259.923Z" fill="#96C9FE"/>
<path d="M568.942 268.886C569.741 268.886 570.389 268.236 570.389 267.435C570.389 266.635 569.741 265.985 568.942 265.985C568.142 265.985 567.494 266.635 567.494 267.435C567.494 268.236 568.142 268.886 568.942 268.886Z" fill="#96C9FE"/>
<path d="M552.936 277.463C553.735 277.463 554.383 276.813 554.383 276.013C554.383 275.212 553.735 274.562 552.936 274.562C552.136 274.562 551.488 275.212 551.488 276.013C551.488 276.813 552.136 277.463 552.936 277.463Z" fill="#96C9FE"/>
<path d="M563.018 278.63C563.818 278.63 564.466 277.981 564.466 277.18C564.466 276.379 563.818 275.73 563.018 275.73C562.219 275.73 561.57 276.379 561.57 277.18C561.57 277.981 562.219 278.63 563.018 278.63Z" fill="#96C9FE"/>
<path d="M611.387 261.373C612.188 261.373 612.835 260.724 612.835 259.923C612.835 259.122 612.188 258.473 611.387 258.473C610.588 258.473 609.939 259.122 609.939 259.923C609.939 260.724 610.588 261.373 611.387 261.373Z" fill="#96C9FE"/>
<path d="M557.569 338.625C558.368 338.625 559.016 337.976 559.016 337.175C559.016 336.374 558.368 335.725 557.569 335.725C556.769 335.725 556.121 336.374 556.121 337.175C556.121 337.976 556.769 338.625 557.569 338.625Z" fill="#96C9FE"/>
<path d="M580.961 276.013C581.76 276.013 582.409 275.363 582.409 274.563C582.409 273.762 581.76 273.112 580.961 273.112C580.162 273.112 579.513 273.762 579.513 274.563C579.513 275.363 580.162 276.013 580.961 276.013Z" fill="#96C9FE"/>
<path d="M589.862 278.068C590.662 278.068 591.309 277.42 591.309 276.618C591.309 275.818 590.662 275.169 589.862 275.169C589.062 275.169 588.415 275.818 588.415 276.618C588.415 277.42 589.062 278.068 589.862 278.068Z" fill="#96C9FE"/>
<path d="M576.451 337.898C577.251 337.898 577.899 337.249 577.899 336.449C577.899 335.647 577.251 334.998 576.451 334.998C575.652 334.998 575.004 335.647 575.004 336.449C575.004 337.249 575.652 337.898 576.451 337.898Z" fill="#96C9FE"/>
<path d="M604.092 342.093C604.893 342.093 605.54 341.443 605.54 340.643C605.54 339.842 604.893 339.192 604.092 339.192C603.293 339.192 602.645 339.842 602.645 340.643C602.645 341.443 603.293 342.093 604.092 342.093Z" fill="#96C9FE"/>
<path d="M549.114 331.201C549.913 331.201 550.561 330.551 550.561 329.751C550.561 328.95 549.913 328.3 549.114 328.3C548.314 328.3 547.666 328.95 547.666 329.751C547.666 330.551 548.314 331.201 549.114 331.201Z" fill="#96C9FE"/>
<path d="M566.182 331.201C566.981 331.201 567.63 330.551 567.63 329.751C567.63 328.95 566.981 328.3 566.182 328.3C565.383 328.3 564.734 328.95 564.734 329.751C564.734 330.551 565.383 331.201 566.182 331.201Z" fill="#96C9FE"/>
<path d="M536.491 335.724C537.29 335.724 537.938 335.076 537.938 334.275C537.938 333.474 537.29 332.825 536.491 332.825C535.691 332.825 535.043 333.474 535.043 334.275C535.043 335.076 535.691 335.724 536.491 335.724Z" fill="#96C9FE"/>
<path d="M528.383 335.724C529.182 335.724 529.831 335.076 529.831 334.275C529.831 333.474 529.182 332.825 528.383 332.825C527.583 332.825 526.935 333.474 526.935 334.275C526.935 335.076 527.583 335.724 528.383 335.724Z" fill="#96C9FE"/>
<path d="M623.432 268.886C624.231 268.886 624.879 268.236 624.879 267.435C624.879 266.635 624.231 265.985 623.432 265.985C622.632 265.985 621.984 266.635 621.984 267.435C621.984 268.236 622.632 268.886 623.432 268.886Z" fill="#96C9FE"/>
<path d="M581.489 327.432C582.288 327.432 582.937 326.783 582.937 325.983C582.937 325.181 582.288 324.532 581.489 324.532C580.69 324.532 580.041 325.181 580.041 325.983C580.041 326.783 580.69 327.432 581.489 327.432Z" fill="#96C9FE"/>
<path d="M597.124 329.75C597.923 329.75 598.571 329.102 598.571 328.3C598.571 327.499 597.923 326.851 597.124 326.851C596.324 326.851 595.676 327.499 595.676 328.3C595.676 329.102 596.324 329.75 597.124 329.75Z" fill="#96C9FE"/>
<path d="M590.6 342.093C591.4 342.093 592.048 341.443 592.048 340.643C592.048 339.842 591.4 339.192 590.6 339.192C589.801 339.192 589.153 339.842 589.153 340.643C589.153 341.443 589.801 342.093 590.6 342.093Z" fill="#96C9FE"/>
<path d="M605.54 330.333C606.34 330.333 606.988 329.683 606.988 328.883C606.988 328.082 606.34 327.432 605.54 327.432C604.741 327.432 604.092 328.082 604.092 328.883C604.092 329.683 604.741 330.333 605.54 330.333Z" fill="#96C9FE"/>
<path d="M631.223 276.618C632.023 276.618 632.671 275.969 632.671 275.169C632.671 274.367 632.023 273.719 631.223 273.719C630.424 273.719 629.776 274.367 629.776 275.169C629.776 275.969 630.424 276.618 631.223 276.618Z" fill="#96C9FE"/>
<path d="M586.967 261.373C587.768 261.373 588.415 260.724 588.415 259.923C588.415 259.122 587.768 258.473 586.967 258.473C586.168 258.473 585.52 259.122 585.52 259.923C585.52 260.724 586.168 261.373 586.967 261.373Z" fill="#96C9FE"/>
<path d="M596.186 268.886C596.986 268.886 597.634 268.236 597.634 267.435C597.634 266.635 596.986 265.985 596.186 265.985C595.387 265.985 594.739 266.635 594.739 267.435C594.739 268.236 595.387 268.886 596.186 268.886Z" fill="#96C9FE"/>
<path d="M609.94 269.609C610.739 269.609 611.387 268.959 611.387 268.159C611.387 267.358 610.739 266.708 609.94 266.708C609.14 266.708 608.492 267.358 608.492 268.159C608.492 268.959 609.14 269.609 609.94 269.609Z" fill="#96C9FE"/>
<path d="M608.989 336.448C609.789 336.448 610.436 335.799 610.436 334.998C610.436 334.197 609.789 333.548 608.989 333.548C608.189 333.548 607.542 334.197 607.542 334.998C607.542 335.799 608.189 336.448 608.989 336.448Z" fill="#96C9FE"/>
<path d="M631.223 259.923C632.023 259.923 632.671 259.274 632.671 258.473C632.671 257.672 632.023 257.023 631.223 257.023C630.424 257.023 629.776 257.672 629.776 258.473C629.776 259.274 630.424 259.923 631.223 259.923Z" fill="#96C9FE"/>
<path d="M197.353 98.8057C198.153 98.8057 198.8 98.1569 198.8 97.3563C198.8 96.5548 198.153 95.906 197.353 95.906C196.553 95.906 195.906 96.5548 195.906 97.3563C195.906 98.1569 196.553 98.8057 197.353 98.8057Z" fill="#96C9FE"/>
<path d="M211.912 84.7115C212.712 84.7115 213.36 84.0617 213.36 83.2611C213.36 82.4605 212.712 81.8108 211.912 81.8108C211.113 81.8108 210.465 82.4605 210.465 83.2611C210.465 84.0617 211.113 84.7115 211.912 84.7115Z" fill="#96C9FE"/>
<path d="M33.6361 91.4732C34.4356 91.4732 35.0838 90.8244 35.0838 90.0238C35.0838 89.2223 34.4356 88.5735 33.6361 88.5735C32.8366 88.5735 32.1885 89.2223 32.1885 90.0238C32.1885 90.8244 32.8366 91.4732 33.6361 91.4732Z" fill="#96C9FE"/>
<path d="M21.5918 94.9408C22.3913 94.9408 23.0394 94.2919 23.0394 93.4913C23.0394 92.6899 22.3913 92.041 21.5918 92.041C20.7922 92.041 20.144 92.6899 20.144 93.4913C20.144 94.2919 20.7922 94.9408 21.5918 94.9408Z" fill="#96C9FE"/>
<path d="M223.932 91.8384C224.732 91.8384 225.379 91.1896 225.379 90.3881C225.379 89.5875 224.732 88.9377 223.932 88.9377C223.132 88.9377 222.485 89.5875 222.485 90.3881C222.485 91.1896 223.132 91.8384 223.932 91.8384Z" fill="#96C9FE"/>
<path d="M45.5079 80.2811C46.3074 80.2811 46.9555 79.6323 46.9555 78.8308C46.9555 78.0302 46.3074 77.3813 45.5079 77.3813C44.7084 77.3813 44.0603 78.0302 44.0603 78.8308C44.0603 79.6323 44.7084 80.2811 45.5079 80.2811Z" fill="#96C9FE"/>
<path d="M211.423 75.7486C212.224 75.7486 212.871 75.0998 212.871 74.2983C212.871 73.4977 212.224 72.8489 211.423 72.8489C210.624 72.8489 209.976 73.4977 209.976 74.2983C209.976 75.0998 210.624 75.7486 211.423 75.7486Z" fill="#96C9FE"/>
<path d="M237.536 90.388C238.337 90.388 238.984 89.7392 238.984 88.9377C238.984 88.1371 238.337 87.4883 237.536 87.4883C236.737 87.4883 236.089 88.1371 236.089 88.9377C236.089 89.7392 236.737 90.388 237.536 90.388Z" fill="#96C9FE"/>
<path d="M186.605 90.9944C187.404 90.9944 188.053 90.3447 188.053 89.5441C188.053 88.7435 187.404 88.0938 186.605 88.0938C185.806 88.0938 185.157 88.7435 185.157 89.5441C185.157 90.3447 185.806 90.9944 186.605 90.9944Z" fill="#96C9FE"/>
<path d="M44.0578 88.5733C44.8573 88.5733 45.5054 87.9245 45.5054 87.123C45.5054 86.3224 44.8573 85.6736 44.0578 85.6736C43.2583 85.6736 42.6101 86.3224 42.6101 87.123C42.6101 87.9245 43.2583 88.5733 44.0578 88.5733Z" fill="#96C9FE"/>
<path d="M103.001 94.9408C103.801 94.9408 104.448 94.2919 104.448 93.4913C104.448 92.6899 103.801 92.041 103.001 92.041C102.201 92.041 101.553 92.6899 101.553 93.4913C101.553 94.2919 102.201 94.9408 103.001 94.9408Z" fill="#96C9FE"/>
<path d="M149.449 94.9408C150.249 94.9408 150.897 94.2919 150.897 93.4913C150.897 92.6899 150.249 92.041 149.449 92.041C148.65 92.041 148.001 92.6899 148.001 93.4913C148.001 94.2919 148.65 94.9408 149.449 94.9408Z" fill="#96C9FE"/>
<path d="M25.1818 84.0489C25.9813 84.0489 26.6294 83.4001 26.6294 82.5995C26.6294 81.798 25.9813 81.1492 25.1818 81.1492C24.3822 81.1492 23.7341 81.798 23.7341 82.5995C23.7341 83.4001 24.3822 84.0489 25.1818 84.0489Z" fill="#96C9FE"/>
<path d="M206.386 91.8384C207.185 91.8384 207.833 91.1896 207.833 90.3881C207.833 89.5875 207.185 88.9377 206.386 88.9377C205.586 88.9377 204.938 89.5875 204.938 90.3881C204.938 91.1896 205.586 91.8384 206.386 91.8384Z" fill="#96C9FE"/>
<path d="M16.5013 84.6314C17.3008 84.6314 17.949 83.9826 17.949 83.1811C17.949 82.3805 17.3008 81.7317 16.5013 81.7317C15.7018 81.7317 15.0537 82.3805 15.0537 83.1811C15.0537 83.9826 15.7018 84.6314 16.5013 84.6314Z" fill="#96C9FE"/>
<path d="M10.7833 90.0237C11.5828 90.0237 12.2309 89.374 12.2309 88.5734C12.2309 87.7728 11.5828 87.123 10.7833 87.123C9.9838 87.123 9.33569 87.7728 9.33569 88.5734C9.33569 89.374 9.9838 90.0237 10.7833 90.0237Z" fill="#96C9FE"/>
<path d="M267.852 91.8384C268.652 91.8384 269.3 91.1896 269.3 90.3881C269.3 89.5875 268.652 88.9377 267.852 88.9377C267.053 88.9377 266.405 89.5875 266.405 90.3881C266.405 91.1896 267.053 91.8384 267.852 91.8384Z" fill="#96C9FE"/>
<path d="M276.936 86.161C277.735 86.161 278.384 85.5121 278.384 84.7116C278.384 83.9101 277.735 83.2612 276.936 83.2612C276.137 83.2612 275.488 83.9101 275.488 84.7116C275.488 85.5121 276.137 86.161 276.936 86.161Z" fill="#96C9FE"/>
<path d="M92.1388 81.7317C92.9381 81.7317 93.5867 81.082 93.5867 80.2814C93.5867 79.4808 92.9381 78.8311 92.1388 78.8311C91.3396 78.8311 90.6909 79.4808 90.6909 80.2814C90.6909 81.082 91.3396 81.7317 92.1388 81.7317Z" fill="#96C9FE"/>
<path d="M62.3964 89.2967C63.1956 89.2967 63.8434 88.6479 63.8434 87.8464C63.8434 87.0458 63.1956 86.397 62.3964 86.397C61.5962 86.397 60.9485 87.0458 60.9485 87.8464C60.9485 88.6479 61.5962 89.2967 62.3964 89.2967Z" fill="#96C9FE"/>
<path d="M62.3964 94.9408C63.1956 94.9408 63.8434 94.2919 63.8434 93.4913C63.8434 92.6899 63.1956 92.041 62.3964 92.041C61.5962 92.041 60.9485 92.6899 60.9485 93.4913C60.9485 94.2919 61.5962 94.9408 62.3964 94.9408Z" fill="#96C9FE"/>
<path d="M57.5573 80.2811C58.3565 80.2811 59.0051 79.6323 59.0051 78.8308C59.0051 78.0302 58.3565 77.3813 57.5573 77.3813C56.7571 77.3813 56.1094 78.0302 56.1094 78.8308C56.1094 79.6323 56.7571 80.2811 57.5573 80.2811Z" fill="#96C9FE"/>
<path d="M54.1908 90.7471C54.9901 90.7471 55.6387 90.0973 55.6387 89.2968C55.6387 88.4962 54.9901 87.8464 54.1908 87.8464C53.3916 87.8464 52.7429 88.4962 52.7429 89.2968C52.7429 90.0973 53.3916 90.7471 54.1908 90.7471Z" fill="#96C9FE"/>
<path d="M245.245 77.9222C246.045 77.9222 246.693 77.2734 246.693 76.4719C246.693 75.6713 246.045 75.0225 245.245 75.0225C244.446 75.0225 243.798 75.6713 243.798 76.4719C243.798 77.2734 244.446 77.9222 245.245 77.9222Z" fill="#96C9FE"/>
<path d="M229.938 77.199C230.738 77.199 231.386 76.5502 231.386 75.7487C231.386 74.9481 230.738 74.2983 229.938 74.2983C229.139 74.2983 228.491 74.9481 228.491 75.7487C228.491 76.5502 229.139 77.199 229.938 77.199Z" fill="#96C9FE"/>
<path d="M252.911 85.4346C253.71 85.4346 254.358 84.7849 254.358 83.9843C254.358 83.1837 253.71 82.5339 252.911 82.5339C252.111 82.5339 251.463 83.1837 251.463 83.9843C251.463 84.7849 252.111 85.4346 252.911 85.4346Z" fill="#96C9FE"/>
<path d="M259.834 77.9222C260.633 77.9222 261.281 77.2734 261.281 76.4719C261.281 75.6713 260.633 75.0225 259.834 75.0225C259.033 75.0225 258.386 75.6713 258.386 76.4719C258.386 77.2734 259.033 77.9222 259.834 77.9222Z" fill="#96C9FE"/>
<path d="M259.834 95.9058C260.633 95.9058 261.281 95.256 261.281 94.4554C261.281 93.6549 260.633 93.0051 259.834 93.0051C259.033 93.0051 258.386 93.6549 258.386 94.4554C258.386 95.256 259.033 95.9058 259.834 95.9058Z" fill="#96C9FE"/>
<path d="M251.463 95.9058C252.262 95.9058 252.911 95.256 252.911 94.4554C252.911 93.6549 252.262 93.0051 251.463 93.0051C250.664 93.0051 250.015 93.6549 250.015 94.4554C250.015 95.256 250.664 95.9058 251.463 95.9058Z" fill="#96C9FE"/>
<path d="M85.0578 89.2967C85.858 89.2967 86.5057 88.6479 86.5057 87.8464C86.5057 87.0458 85.858 86.397 85.0578 86.397C84.2586 86.397 83.6108 87.0458 83.6108 87.8464C83.6108 88.6479 84.2586 89.2967 85.0578 89.2967Z" fill="#96C9FE"/>
<path d="M270.934 77.9222C271.734 77.9222 272.382 77.2734 272.382 76.4719C272.382 75.6713 271.734 75.0225 270.934 75.0225C270.135 75.0225 269.486 75.6713 269.486 76.4719C269.486 77.2734 270.135 77.9222 270.934 77.9222Z" fill="#96C9FE"/>
<path d="M289.246 77.9222C290.046 77.9222 290.693 77.2734 290.693 76.4719C290.693 75.6713 290.046 75.0225 289.246 75.0225C288.446 75.0225 287.798 75.6713 287.798 76.4719C287.798 77.2734 288.446 77.9222 289.246 77.9222Z" fill="#96C9FE"/>
<path d="M303.042 75.7486C303.842 75.7486 304.49 75.0998 304.49 74.2983C304.49 73.4977 303.842 72.8489 303.042 72.8489C302.242 72.8489 301.595 73.4977 301.595 74.2983C301.595 75.0998 302.242 75.7486 303.042 75.7486Z" fill="#96C9FE"/>
<path d="M76.4867 88.5733C77.2859 88.5733 77.9346 87.9245 77.9346 87.123C77.9346 86.3224 77.2859 85.6736 76.4867 85.6736C75.6875 85.6736 75.0388 86.3224 75.0388 87.123C75.0388 87.9245 75.6875 88.5733 76.4867 88.5733Z" fill="#96C9FE"/>
<path d="M303.804 84.7115C304.604 84.7115 305.252 84.0617 305.252 83.2611C305.252 82.4605 304.604 81.8108 303.804 81.8108C303.005 81.8108 302.357 82.4605 302.357 83.2611C302.357 84.0617 303.005 84.7115 303.804 84.7115Z" fill="#96C9FE"/>
<path d="M287.796 93.2888C288.595 93.2888 289.244 92.6391 289.244 91.8385C289.244 91.0379 288.595 90.3882 287.796 90.3882C286.997 90.3882 286.348 91.0379 286.348 91.8385C286.348 92.6391 286.997 93.2888 287.796 93.2888Z" fill="#96C9FE"/>
<path d="M297.879 94.4554C298.678 94.4554 299.326 93.8066 299.326 93.0051C299.326 92.2045 298.678 91.5557 297.879 91.5557C297.079 91.5557 296.431 92.2045 296.431 93.0051C296.431 93.8066 297.079 94.4554 297.879 94.4554Z" fill="#96C9FE"/>
<path d="M346.246 77.199C347.047 77.199 347.694 76.5502 347.694 75.7487C347.694 74.9481 347.047 74.2983 346.246 74.2983C345.447 74.2983 344.8 74.9481 344.8 75.7487C344.8 76.5502 345.447 77.199 346.246 77.199Z" fill="#96C9FE"/>
<path d="M125.526 91.4732C126.325 91.4732 126.973 90.8244 126.973 90.0238C126.973 89.2223 126.325 88.5735 125.526 88.5735C124.726 88.5735 124.078 89.2223 124.078 90.0238C124.078 90.8244 124.726 91.4732 125.526 91.4732Z" fill="#96C9FE"/>
<path d="M315.823 91.8384C316.624 91.8384 317.271 91.1896 317.271 90.3881C317.271 89.5875 316.624 88.9377 315.823 88.9377C315.024 88.9377 314.376 89.5875 314.376 90.3881C314.376 91.1896 315.024 91.8384 315.823 91.8384Z" fill="#96C9FE"/>
<path d="M324.726 93.8941C325.525 93.8941 326.174 93.2453 326.174 92.4447C326.174 91.6432 325.525 90.9944 324.726 90.9944C323.927 90.9944 323.278 91.6432 323.278 92.4447C323.278 93.2453 323.927 93.8941 324.726 93.8941Z" fill="#96C9FE"/>
<path d="M144.412 90.7471C145.211 90.7471 145.86 90.0973 145.86 89.2968C145.86 88.4962 145.211 87.8464 144.412 87.8464C143.613 87.8464 142.964 88.4962 142.964 89.2968C142.964 90.0973 143.613 90.7471 144.412 90.7471Z" fill="#96C9FE"/>
<path d="M172.054 94.9408C172.853 94.9408 173.501 94.2919 173.501 93.4913C173.501 92.6899 172.853 92.041 172.054 92.041C171.253 92.041 170.606 92.6899 170.606 93.4913C170.606 94.2919 171.253 94.9408 172.054 94.9408Z" fill="#96C9FE"/>
<path d="M117.071 84.0489C117.871 84.0489 118.519 83.4001 118.519 82.5995C118.519 81.798 117.871 81.1492 117.071 81.1492C116.272 81.1492 115.624 81.798 115.624 82.5995C115.624 83.4001 116.272 84.0489 117.071 84.0489Z" fill="#96C9FE"/>
<path d="M134.14 84.0489C134.939 84.0489 135.588 83.4001 135.588 82.5995C135.588 81.798 134.939 81.1492 134.14 81.1492C133.341 81.1492 132.692 81.798 132.692 82.5995C132.692 83.4001 133.341 84.0489 134.14 84.0489Z" fill="#96C9FE"/>
<path d="M104.448 88.5733C105.248 88.5733 105.896 87.9245 105.896 87.123C105.896 86.3224 105.248 85.6736 104.448 85.6736C103.649 85.6736 103.001 86.3224 103.001 87.123C103.001 87.9245 103.649 88.5733 104.448 88.5733Z" fill="#96C9FE"/>
<path d="M96.3407 88.5733C97.14 88.5733 97.7877 87.9245 97.7877 87.123C97.7877 86.3224 97.14 85.6736 96.3407 85.6736C95.5406 85.6736 94.8928 86.3224 94.8928 87.123C94.8928 87.9245 95.5406 88.5733 96.3407 88.5733Z" fill="#96C9FE"/>
<path d="M358.295 84.7115C359.095 84.7115 359.742 84.0617 359.742 83.2611C359.742 82.4605 359.095 81.8108 358.295 81.8108C357.495 81.8108 356.847 82.4605 356.847 83.2611C356.847 84.0617 357.495 84.7115 358.295 84.7115Z" fill="#96C9FE"/>
<path d="M149.449 80.2811C150.249 80.2811 150.897 79.6323 150.897 78.8308C150.897 78.0302 150.249 77.3813 149.449 77.3813C148.65 77.3813 148.001 78.0302 148.001 78.8308C148.001 79.6323 148.65 80.2811 149.449 80.2811Z" fill="#96C9FE"/>
<path d="M165.084 82.5994C165.883 82.5994 166.532 81.9496 166.532 81.1491C166.532 80.3476 165.883 79.6987 165.084 79.6987C164.285 79.6987 163.636 80.3476 163.636 81.1491C163.636 81.9496 164.285 82.5994 165.084 82.5994Z" fill="#96C9FE"/>
<path d="M158.559 94.9408C159.358 94.9408 160.007 94.2919 160.007 93.4913C160.007 92.6899 159.358 92.041 158.559 92.041C157.759 92.041 157.111 92.6899 157.111 93.4913C157.111 94.2919 157.759 94.9408 158.559 94.9408Z" fill="#96C9FE"/>
<path d="M173.501 83.1812C174.301 83.1812 174.949 82.5324 174.949 81.7318C174.949 80.9303 174.301 80.2815 173.501 80.2815C172.701 80.2815 172.054 80.9303 172.054 81.7318C172.054 82.5324 172.701 83.1812 173.501 83.1812Z" fill="#96C9FE"/>
<path d="M366.087 92.4446C366.886 92.4446 367.533 91.7949 367.533 90.9943C367.533 90.1928 366.886 89.5439 366.087 89.5439C365.286 89.5439 364.639 90.1928 364.639 90.9943C364.639 91.7949 365.286 92.4446 366.087 92.4446Z" fill="#96C9FE"/>
<path d="M321.831 77.199C322.631 77.199 323.279 76.5502 323.279 75.7487C323.279 74.9481 322.631 74.2983 321.831 74.2983C321.032 74.2983 320.384 74.9481 320.384 75.7487C320.384 76.5502 321.032 77.199 321.831 77.199Z" fill="#96C9FE"/>
<path d="M331.05 84.7115C331.85 84.7115 332.497 84.0617 332.497 83.2611C332.497 82.4605 331.85 81.8108 331.05 81.8108C330.25 81.8108 329.603 82.4605 329.603 83.2611C329.603 84.0617 330.25 84.7115 331.05 84.7115Z" fill="#96C9FE"/>
<path d="M344.803 85.4346C345.602 85.4346 346.25 84.7849 346.25 83.9843C346.25 83.1837 345.602 82.5339 344.803 82.5339C344.002 82.5339 343.355 83.1837 343.355 83.9843C343.355 84.7849 344.002 85.4346 344.803 85.4346Z" fill="#96C9FE"/>
<path d="M176.947 89.2967C177.748 89.2967 178.395 88.6479 178.395 87.8464C178.395 87.0458 177.748 86.397 176.947 86.397C176.148 86.397 175.5 87.0458 175.5 87.8464C175.5 88.6479 176.148 89.2967 176.947 89.2967Z" fill="#96C9FE"/>
<path d="M366.087 75.7486C366.886 75.7486 367.533 75.0998 367.533 74.2983C367.533 73.4977 366.886 72.8489 366.087 72.8489C365.286 72.8489 364.639 73.4977 364.639 74.2983C364.639 75.0998 365.286 75.7486 366.087 75.7486Z" fill="#96C9FE"/>
<path d="M501.44 281.257H624.992" stroke="#58595B" stroke-width="1.74588" stroke-miterlimit="10" stroke-linecap="round"/>
<path d="M27.73 111.104H624.992" stroke="#58595B" stroke-width="1.74588" stroke-miterlimit="10" stroke-linecap="round"/>
<path d="M569.685 66.6687H545.062V110.056H569.685V66.6687Z" fill="#305EED"/>
<path d="M586.953 245.888V239.961H580.628V245.888H575.813V280.157H591.769V245.888H586.953Z" fill="#305EED"/>
<path d="M605.73 223.549V217.623H599.406V223.549H594.591V279.63H610.546V223.549H605.73Z" fill="#305EED"/>
<path d="M501.44 350.517H624.992" stroke="#58595B" stroke-width="1.74588" stroke-miterlimit="10" stroke-linecap="round"/>
<path d="M548.135 349.01H515.058C514.905 347.964 515.906 346.903 515.631 345.943C513.131 343.765 509.163 323.947 515.861 308.953C515.682 307.885 515.422 306.817 515.058 305.737H550.091C549.794 306.623 549.592 310.076 549.765 311.098C554.983 320.66 552.374 347.032 547.917 346.052C546.884 345.825 548.429 347.956 548.135 349.01Z" fill="#072D57"/>
<path d="M600.68 52.4458H576.058V110.056H600.68V52.4458Z" fill="#305EED"/>
<path d="M520.896 218.63H483.76C483.766 218.627 483.772 218.624 483.777 218.621C475.305 218.621 468.45 211.754 468.45 203.268C468.45 199.028 470.161 195.19 472.937 192.409C475.688 189.646 479.485 187.939 483.692 187.923H604.137C612.602 187.923 619.465 181.047 619.465 172.569C619.465 164.082 612.602 157.216 604.137 157.216H104.643C96.1789 157.216 89.3159 164.082 89.3159 172.569C89.3159 181.047 96.1789 187.923 104.643 187.923H241.868C250.299 187.966 257.119 194.815 257.119 203.268C257.119 207.507 255.407 211.345 252.631 214.126C249.855 216.907 246.024 218.621 241.792 218.621C241.794 218.623 241.796 218.627 241.799 218.63H182.491C174.673 218.63 168.338 224.975 168.338 232.806V235.151C168.338 242.982 174.673 249.337 182.491 249.337H520.896C528.713 249.337 535.049 242.982 535.049 235.151V232.806C535.049 224.975 528.713 218.63 520.896 218.63Z" fill="#96C9FE"/>
<path d="M211.992 85.1875V109.851H262.02V85.1875H211.992Z" fill="#305EED"/>
<path d="M254.246 58.8054H229.623V109.616H254.246V58.8054Z" fill="#305EED"/>
<path d="M441.991 355.422H291.502C284.47 355.422 278.771 349.713 278.771 342.67V33.9924C278.771 26.9496 284.47 21.2402 291.502 21.2402H441.991C449.023 21.2402 454.722 26.9496 454.722 33.9924V342.67C454.722 349.713 449.023 355.422 441.991 355.422Z" fill="#072D57"/>
<path d="M396.908 42.9092H336.587C330.894 42.9092 326.279 38.2862 326.279 32.5835V21.2402H407.217V32.5835C407.217 38.2862 402.601 42.9092 396.908 42.9092Z" fill="#96C9FE"/>
<path d="M316.863 35.5046H293.756C291.715 35.5046 290.061 33.847 290.061 31.8023C290.061 29.7576 291.715 28.1001 293.756 28.1001H316.863C318.904 28.1001 320.559 29.7576 320.559 31.8023C320.559 33.8471 318.904 35.5046 316.863 35.5046Z" fill="#96C9FE"/>
<path d="M439.739 35.5046H416.632C414.591 35.5046 412.936 33.847 412.936 31.8023C412.936 29.7576 414.591 28.1001 416.632 28.1001H439.739C441.78 28.1001 443.435 29.7576 443.435 31.8023C443.435 33.8471 441.78 35.5046 439.739 35.5046Z" fill="#96C9FE"/>
<path d="M333.473 66.1306H290.061V72.808H333.473V66.1306Z" fill="#96C9FE"/>
<path d="M388.452 66.1306H345.039V72.808H388.452V66.1306Z" fill="#96C9FE"/>
<path d="M443.438 66.1306H400.026V72.808H443.438V66.1306Z" fill="#96C9FE"/>
<path d="M131.131 210.814L154.83 170.743L159.172 185.407L164.649 181.312L164.516 192.906L131.131 210.814Z" fill="#305EED"/>
<path d="M159.17 185.408L145.289 195.68L157.845 172.242L159.17 185.408Z" fill="#072D57"/>
<path d="M71.3849 78.9627V75.9512H58.8093V78.9627C56.6665 80.1877 55.2195 82.4931 55.2195 85.1411V104.88C55.2195 108.808 58.3983 110.057 62.321 110.057H67.874C71.7959 110.057 74.9756 108.808 74.9756 104.88V85.1411C74.9756 82.4931 73.5277 80.1877 71.3849 78.9627Z" fill="#96C9FE"/>
<path d="M87.4283 78.9627V75.9512H74.8536V78.9627C72.7108 80.1877 71.2629 82.4931 71.2629 85.1411V104.88C71.2629 108.808 74.4427 110.057 78.3645 110.057H83.9175C87.8402 110.057 91.0191 108.808 91.0191 104.88V85.1411C91.0191 82.4931 89.5721 80.1877 87.4283 78.9627Z" fill="#96C9FE"/>
<path d="M103.469 78.9627V75.9512H90.8942V78.9627C88.7514 80.1877 87.3035 82.4931 87.3035 85.1411V104.88C87.3035 108.808 90.4823 110.057 94.405 110.057H99.958C103.88 110.057 107.06 108.808 107.06 104.88V85.1411C107.06 82.4931 105.612 80.1877 103.469 78.9627Z" fill="#96C9FE"/>
<path d="M140.782 73.6269V70.0974H126.049V73.6269C123.539 75.0609 121.842 77.7625 121.842 80.8649V103.991C121.842 108.594 125.567 110.056 130.162 110.056H136.669C141.264 110.056 144.989 108.594 144.989 103.991V80.8649C144.989 77.7625 143.293 75.0618 140.782 73.6269Z" fill="#96C9FE"/>
<path d="M159.58 73.6269V70.0974H144.847V73.6269C142.335 75.0609 140.64 77.7625 140.64 80.8649V103.991C140.64 108.594 144.365 110.056 148.96 110.056H155.466C160.061 110.056 163.786 108.594 163.786 103.991V80.8649C163.786 77.7625 162.09 75.0618 159.58 73.6269Z" fill="#96C9FE"/>
<path d="M178.375 73.6269V70.0974H163.642V73.6269C161.131 75.0609 159.435 77.7625 159.435 80.8649V103.991C159.435 108.594 163.16 110.056 167.755 110.056H174.262C178.857 110.056 182.582 108.594 182.582 103.991V80.8649C182.582 77.7625 180.885 75.0618 178.375 73.6269Z" fill="#96C9FE"/>
<path d="M557.297 86.4851L550.579 85.2274L545.848 90.1672L541.509 84.8784L534.715 85.6172L534.785 78.7718L529.107 74.9624L533.553 69.7645L531.647 63.1898L538.389 62.0703L541.148 55.8071L547.031 59.2905L553.164 56.2689L555.436 62.7255L562.072 64.3593L559.669 70.7677L563.705 76.2928L557.751 79.6541L557.297 86.4851Z" fill="#072D57"/>
<path d="M580.489 296.572V290.665H575.609V296.572C570.732 297.684 567.089 302.046 567.089 307.268V333.039V336.053V346.092C567.089 348.08 569.204 349.35 570.954 348.415L572.78 347.439C573.876 346.853 575.232 347.115 576.03 348.07C577.083 349.325 579.013 349.323 580.061 348.063L580.118 347.995C580.925 347.025 582.305 346.766 583.408 347.377L585.109 348.319C586.861 349.29 589.009 348.021 589.009 346.017V336.053V333.747V307.268C589.009 302.046 585.366 297.684 580.489 296.572Z" fill="#072D57"/>
<path d="M606.581 296.572V290.665H601.702V296.572C596.824 297.684 593.181 302.046 593.181 307.268V333.039V336.053V346.092C593.181 348.08 595.296 349.35 597.046 348.415L598.872 347.439C599.968 346.853 601.323 347.115 602.122 348.07C603.174 349.325 605.104 349.323 606.153 348.063L606.21 347.995C607.018 347.025 608.398 346.766 609.501 347.377L611.202 348.319C612.954 349.29 615.102 348.021 615.102 346.017V336.053V333.747V307.268C615.102 302.046 611.459 297.684 606.581 296.572Z" fill="#072D57"/>
<path d="M207.58 265.862L193.84 280.896V268.163H185.541V261.869H180.661V268.163H173.43V288.71L170.029 289.085C169.992 286.48 168.561 284.217 166.446 283.008V279.996H153.87V283.008C151.727 284.233 150.28 286.539 150.28 289.187V290.701C150.28 290.896 150.294 291.079 150.309 291.26L137.747 292.646L162.241 261.58L144.269 251.347L112.31 292.646V275.983L87.7345 274.877L71.9955 221.898L39.5842 231.831L61.4348 297.194H193.84V292.646L211.494 269.018L207.58 265.862Z" fill="#305EED"/>
<path d="M168.078 423.349C171.601 423.349 174.458 420.488 174.458 416.958C174.458 413.429 171.601 410.567 168.078 410.567C164.554 410.567 161.697 413.429 161.697 416.958C161.697 420.488 164.554 423.349 168.078 423.349Z" fill="#96C9FE"/>
<path d="M96.501 423.349C100.025 423.349 102.881 420.488 102.881 416.958C102.881 413.429 100.025 410.567 96.501 410.567C92.9774 410.567 90.1206 413.429 90.1206 416.958C90.1206 420.488 92.9774 423.349 96.501 423.349Z" fill="#96C9FE"/>
<path d="M179.745 372.221H70.419C69.774 372.221 69.2115 371.782 69.0536 371.156L50.8449 298.949C50.6202 298.059 51.2925 297.194 52.2097 297.194H213.713C214.745 297.194 215.427 298.27 214.987 299.206L181.018 371.411C180.785 371.906 180.29 372.221 179.745 372.221Z" fill="#96C9FE"/>
<path d="M55.3745 311.092H168.079" stroke="#78D2EE" stroke-width="1.5" stroke-miterlimit="10" stroke-linecap="round"/>
<path d="M58.9692 326.835H183.101" stroke="#78D2EE" stroke-width="1.5" stroke-miterlimit="10" stroke-linecap="round"/>
<path d="M62.5637 342.579H152.892" stroke="#78D2EE" stroke-width="1.5" stroke-miterlimit="10" stroke-linecap="round"/>
<path d="M66.1584 358.323H121.574" stroke="#78D2EE" stroke-width="1.5" stroke-miterlimit="10" stroke-linecap="round"/>
<path d="M80.6843 372.221V376.542C80.6843 385.192 87.6852 392.204 96.3208 392.204H176.48C181.542 392.204 185.646 396.315 185.646 401.385C185.646 406.456 181.542 410.567 176.48 410.567H80.6843" stroke="#414042" stroke-width="1.74588" stroke-miterlimit="10" stroke-linecap="round"/>
<path d="M54.8937 315.015L43.7948 270.278H22.2754" stroke="#414042" stroke-width="1.74588" stroke-miterlimit="10" stroke-linecap="round"/>
<path d="M43.0129 263.256H9.33569" stroke="#414042" stroke-width="1.74588" stroke-miterlimit="10" stroke-linecap="round"/>
<path d="M441.991 355.422H291.502C284.47 355.422 278.771 349.713 278.771 342.67V33.9924C278.771 26.9496 284.47 21.2402 291.502 21.2402H441.991C449.023 21.2402 454.722 26.9496 454.722 33.9924V342.67C454.722 349.713 449.023 355.422 441.991 355.422Z" stroke="#231F20" stroke-width="1.74588" stroke-miterlimit="10" stroke-linecap="round"/>
<path d="M453.572 157.216H279.923V238.275H453.572V157.216Z" fill="#96C9FE"/>
<path d="M435.776 126.547H419.951V132.407H435.776V126.547Z" fill="#96C9FE"/>
<path d="M435.776 118.595H419.951V124.456H435.776V118.595Z" fill="#96C9FE"/>
<path d="M435.776 207.35H419.951V213.209H435.776V207.35Z" fill="#305EED"/>
<path d="M435.776 199.398H419.951V205.258H435.776V199.398Z" fill="#305EED"/>
<path d="M435.776 288.152H419.951V294.011H435.776V288.152Z" fill="#96C9FE"/>
<path d="M435.776 280.2H419.951V286.06H435.776V280.2Z" fill="#96C9FE"/>
<path d="M403.748 104.461H352.764V107.616H403.748V104.461Z" fill="#96C9FE"/>
<path d="M378.256 117.532H352.764V120.687H378.256V117.532Z" fill="#96C9FE"/>
<path d="M396.397 123.391H352.764V126.547H396.397V123.391Z" fill="#96C9FE"/>
<path d="M385.585 129.252H352.764V132.407H385.585V129.252Z" fill="#96C9FE"/>
<path d="M403.748 185.263H352.764V188.418H403.748V185.263Z" fill="#305EED"/>
<path d="M378.256 198.334H352.764V201.489H378.256V198.334Z" fill="#305EED"/>
<path d="M396.397 204.195H352.764V207.35H396.397V204.195Z" fill="#305EED"/>
<path d="M385.585 210.054H352.764V213.209H385.585V210.054Z" fill="#072D57"/>
<path d="M403.748 266.065H352.764V269.22H403.748V266.065Z" fill="#96C9FE"/>
<path d="M378.256 279.137H352.764V282.292H378.256V279.137Z" fill="#96C9FE"/>
<path d="M396.397 284.997H352.764V288.152H396.397V284.997Z" fill="#96C9FE"/>
<path d="M385.585 290.856H352.764V294.011H385.585V290.856Z" fill="#96C9FE"/>
<path d="M331.114 99.5007H292.419V138.262H331.114V99.5007Z" fill="#305EED"/>
<path d="M330.308 100.306V137.456H293.221V100.306H330.308ZM331.915 98.6958H291.613V139.067H331.915V98.6958Z" fill="#96C9FE"/>
<path d="M292.672 99.9263L330.119 137.268" stroke="#005B9D" stroke-width="1.29368" stroke-miterlimit="10"/>
<path d="M330.035 99.8416L292.757 137.352" stroke="#005B9D" stroke-width="1.29368" stroke-miterlimit="10"/>
<path d="M331.114 179.856H292.419V218.616H331.114V179.856Z" fill="#305EED"/>
<path d="M330.308 180.661V217.811H293.221V180.661H330.308ZM331.915 179.051H291.613V219.421H331.915V179.051Z" fill="#072D57"/>
<path d="M292.672 180.281L330.119 217.623" stroke="#78D2EE" stroke-width="1.29368" stroke-miterlimit="10"/>
<path d="M330.035 180.196L292.757 217.707" stroke="#78D2EE" stroke-width="1.29368" stroke-miterlimit="10"/>
<path d="M331.114 260.21H292.419V298.971H331.114V260.21Z" fill="#305EED"/>
<path d="M330.308 261.015V298.165H293.221V261.015H330.308ZM331.915 259.405H291.613V299.776H331.915V259.405Z" fill="#96C9FE"/>
<path d="M292.672 260.635L330.119 297.977" stroke="#005B9D" stroke-width="1.29368" stroke-miterlimit="10"/>
<path d="M330.035 260.551L292.757 298.061" stroke="#005B9D" stroke-width="1.29368" stroke-miterlimit="10"/>
<path d="M166.54 177.289C167.281 176.625 168.034 175.976 168.801 175.343" stroke="#78D2EE" stroke-width="1.74588" stroke-miterlimit="10" stroke-linecap="round"/>
<path d="M173.657 171.678C177.553 168.996 181.727 166.706 186.143 164.865C203.063 157.808 231.188 154.138 248.323 169.22C278.602 195.871 248.937 258.513 268.923 270.211C278.328 275.715 298.359 269.725 343.32 226.084" stroke="#78D2EE" stroke-width="1.74588" stroke-miterlimit="10" stroke-linecap="round" stroke-dasharray="5.02 5.02"/>
<path d="M312.402 348.769H300.251C296.993 348.769 294.35 346.122 294.35 342.857V330.688C294.35 327.423 296.993 324.776 300.251 324.776H312.402C315.66 324.776 318.302 327.423 318.302 330.688V342.857C318.302 346.122 315.66 348.769 312.402 348.769Z" fill="#96C9FE"/>
<path d="M352.682 348.769H340.532C337.273 348.769 334.632 346.122 334.632 342.857V330.688C334.632 327.423 337.273 324.776 340.532 324.776H352.682C355.941 324.776 358.584 327.423 358.584 330.688V342.857C358.584 346.122 355.941 348.769 352.682 348.769Z" fill="#96C9FE"/>
<path d="M392.963 348.769H380.814C377.554 348.769 374.913 346.122 374.913 342.857V330.688C374.913 327.423 377.554 324.776 380.814 324.776H392.963C396.223 324.776 398.865 327.423 398.865 330.688V342.857C398.865 346.122 396.223 348.769 392.963 348.769Z" fill="#96C9FE"/>
<path d="M433.245 348.769H421.095C417.836 348.769 415.193 346.122 415.193 342.857V330.688C415.193 327.423 417.836 324.776 421.095 324.776H433.245C436.503 324.776 439.145 327.423 439.145 330.688V342.857C439.145 346.122 436.503 348.769 433.245 348.769Z" fill="#96C9FE"/>
</g>
<defs>
<clipPath id="clip0">
<rect width="648" height="476" fill="white"/>
</clipPath>
</defs>
</svg>
