<svg viewBox="0 0 648 476" fill="none" xmlns="http://www.w3.org/2000/svg">
<g clip-path="url(#clip0)">
<path d="M-7.2146 329.034C-7.2146 328.127 -6.47357 327.392 -5.55947 327.392H333.885C338.456 327.392 342.161 331.069 342.161 335.604V367.808C342.161 372.344 338.456 376.02 333.885 376.02H-7.2146V329.034Z" fill="#96C9FE"/>
<path d="M46.7325 305.068L-8.16284 318.112H655.894V305.068H46.7325Z" fill="#305EED"/>
<path d="M-8.60174 384.89H656.285M656.285 318.522H-8.60181H656.285Z" stroke="#005B9D" stroke-width="1.5"/>
<path d="M348.806 335.604C348.806 331.069 352.511 327.392 357.081 327.392H654.837V376.02H357.081C352.511 376.02 348.806 372.344 348.806 367.808V335.604Z" fill="#96C9FE"/>
<path d="M543.979 348.821H516.242C514.377 348.821 512.865 350.321 512.865 352.171C512.865 354.022 514.377 355.522 516.242 355.522H543.979C545.844 355.522 547.356 354.022 547.356 352.171C547.356 350.321 545.844 348.821 543.979 348.821Z" fill="black" fill-opacity="0.27"/>
<path d="M544.248 348.821H515.574C513.968 348.821 512.666 350.113 512.666 351.707C512.666 353.301 513.968 354.592 515.574 354.592H544.248C545.854 354.592 547.156 353.301 547.156 351.707C547.156 350.113 545.854 348.821 544.248 348.821Z" fill="#305EED"/>
<path d="M544.248 432.115H515.574C513.968 432.115 512.666 433.407 512.666 435.001C512.666 436.594 513.968 437.886 515.574 437.886H544.248C545.854 437.886 547.156 436.594 547.156 435.001C547.156 433.407 545.854 432.115 544.248 432.115Z" fill="#305EED"/>
<path d="M182.617 394.002H-7.2146L52.2267 444.439L182.617 476V394.002Z" fill="#96C9FE"/>
<path d="M102.04 432.115H73.3654C71.7594 432.115 70.4575 433.407 70.4575 435.001C70.4575 436.594 71.7594 437.886 73.3654 437.886H102.04C103.646 437.886 104.948 436.594 104.948 435.001C104.948 433.407 103.646 432.115 102.04 432.115Z" fill="#305EED"/>
<path d="M106.34 312.224C106.34 313.171 89.7183 313.14 76.9788 313.14C64.2385 313.14 61.834 313.171 61.834 312.224C61.834 311.277 64.2385 310.51 76.9788 310.51C89.7192 310.51 106.34 311.277 106.34 312.224Z" fill="black" fill-opacity="0.5"/>
<path fill-rule="evenodd" clip-rule="evenodd" d="M68.5132 272.045C65.766 272.045 63.5234 274.26 63.7735 276.975C65.1582 292.008 72.8163 311.59 92.9577 311.59C114.239 311.59 121.466 292.009 122.75 276.976C122.983 274.26 120.739 272.045 117.992 272.045H68.5132Z" fill="#96C9FE"/>
<path d="M69.722 175.312C67.9163 160.1 88.6761 152.547 97.2571 147.173C94.0081 152.547 77.9707 161.089 80.719 172.584C83.7355 185.195 105.208 174.712 111.211 186.225C119.054 201.268 89.9977 210.286 85.7059 226.679C81.6268 242.261 97.2571 267.424 97.2571 267.424C97.2571 267.424 68.9973 239.961 67.7226 229.133C65.917 213.798 94.1347 212.597 91.4658 197.386C89.382 185.509 71.143 187.284 69.722 175.312Z" fill="#072D57"/>
<path d="M95.0793 230.33C94.3676 224.335 106.015 217.157 109.395 215.04C108.115 217.157 99.9918 225.8 101.075 230.33C102.264 235.3 111.325 234.25 113.69 238.787C115.943 243.106 103.669 261.519 103.669 261.519C103.669 261.519 105.612 253.713 103.669 242.643C102.848 237.963 95.6388 235.048 95.0793 230.33Z" fill="#072D57"/>
<path d="M70.4711 208.949C71.1826 202.955 59.5358 195.777 56.1543 193.659C57.4348 195.777 65.5581 204.42 64.4749 208.949C63.2863 213.919 54.2246 212.869 51.8594 217.406C49.6075 221.725 67.9376 242.644 67.9376 242.644C67.9376 242.644 59.9385 232.333 61.881 221.262C62.7021 216.583 69.9111 213.667 70.4711 208.949Z" fill="#072D57"/>
<path d="M440.184 274.41H368.469V304.713H440.184V274.41Z" fill="#96C9FE"/>
<path d="M368.469 274.41H440.184V277.955L368.469 283.851V274.41Z" fill="black" fill-opacity="0.5"/>
<path d="M517.423 304.712H291.233V312.777H517.423V304.712Z" fill="#96C9FE"/>
<path d="M573.263 99.0078H235.386C229.901 99.0078 225.455 103.42 225.455 108.863V264.555C225.455 269.998 229.901 274.41 235.386 274.41H573.263C578.747 274.41 583.194 269.998 583.194 264.555V108.863C583.194 103.42 578.747 99.0078 573.263 99.0078Z" fill="#96C9FE"/>
<path d="M561.385 107.376H247.273C241.788 107.376 237.342 111.789 237.342 117.232V256.186C237.342 261.629 241.788 266.041 247.273 266.041H561.385C566.869 266.041 571.315 261.629 571.315 256.186V117.232C571.315 111.789 566.869 107.376 561.385 107.376Z" fill="white"/>
<path d="M461.822 123.244H267.607C263.416 123.244 260.019 126.615 260.019 130.774V216.65C260.019 220.809 263.416 224.18 267.607 224.18H461.822C466.012 224.18 469.41 220.809 469.41 216.65V130.774C469.41 126.615 466.012 123.244 461.822 123.244Z" fill="#072D57"/>
<path d="M469.41 208.74V216.65C469.41 220.809 466.012 224.18 461.822 224.18H267.607C263.416 224.18 260.019 220.809 260.019 216.65V208.74H469.41Z" fill="black" fill-opacity="0.14"/>
<path d="M376.467 159.923H343.262C340.86 159.923 338.914 161.855 338.914 164.238V183.884C338.914 186.267 340.86 188.199 343.262 188.199H376.467C378.868 188.199 380.815 186.267 380.815 183.884V164.238C380.815 161.855 378.868 159.923 376.467 159.923Z" fill="#96C9FE"/>
<path d="M366.826 173.146C367.536 173.553 367.536 174.569 366.826 174.975L357.182 180.501C356.473 180.907 355.585 180.4 355.585 179.586V168.534C355.585 167.722 356.473 167.213 357.182 167.62L366.826 173.146Z" fill="#072D57"/>
<path d="M469.41 231.399H260.019V236.873H469.41V231.399Z" fill="black" fill-opacity="0.14"/>
<path d="M469.41 243.288H260.019V266.042H469.41V243.288Z" fill="black" fill-opacity="0.14"/>
<path d="M513.396 123.244H490.293C488.497 123.244 487.042 124.689 487.042 126.471V141.868C487.042 143.65 488.497 145.095 490.293 145.095H513.396C515.192 145.095 516.648 143.65 516.648 141.868V126.471C516.648 124.689 515.192 123.244 513.396 123.244Z" fill="#072D57"/>
<path d="M549.312 123.244H526.209C524.413 123.244 522.957 124.689 522.957 126.471V141.868C522.957 143.65 524.413 145.095 526.209 145.095H549.312C551.108 145.095 552.563 143.65 552.563 141.868V126.471C552.563 124.689 551.108 123.244 549.312 123.244Z" fill="#072D57"/>
<path d="M513.396 151.359H490.293C488.497 151.359 487.042 152.804 487.042 154.586V169.983C487.042 171.765 488.497 173.21 490.293 173.21H513.396C515.192 173.21 516.648 171.765 516.648 169.983V154.586C516.648 152.804 515.192 151.359 513.396 151.359Z" fill="#072D57"/>
<path d="M549.312 151.359H526.209C524.413 151.359 522.957 152.804 522.957 154.586V169.983C522.957 171.765 524.413 173.21 526.209 173.21H549.312C551.108 173.21 552.563 171.765 552.563 169.983V154.586C552.563 152.804 551.108 151.359 549.312 151.359Z" fill="#072D57"/>
<path d="M513.396 179.473H490.293C488.497 179.473 487.042 180.918 487.042 182.7V198.097C487.042 199.879 488.497 201.324 490.293 201.324H513.396C515.192 201.324 516.648 199.879 516.648 198.097V182.7C516.648 180.918 515.192 179.473 513.396 179.473Z" fill="#072D57"/>
<path d="M549.312 179.473H526.209C524.413 179.473 522.957 180.918 522.957 182.7V198.097C522.957 199.879 524.413 201.324 526.209 201.324H549.312C551.108 201.324 552.563 199.879 552.563 198.097V182.7C552.563 180.918 551.108 179.473 549.312 179.473Z" fill="#072D57"/>
<path d="M513.396 207.588H490.293C488.497 207.588 487.042 209.032 487.042 210.815V226.211C487.042 227.994 488.497 229.438 490.293 229.438H513.396C515.192 229.438 516.648 227.994 516.648 226.211V210.815C516.648 209.032 515.192 207.588 513.396 207.588Z" fill="#072D57"/>
<path d="M549.312 207.588H526.209C524.413 207.588 522.957 209.032 522.957 210.815V226.211C522.957 227.994 524.413 229.438 526.209 229.438H549.312C551.108 229.438 552.563 227.994 552.563 226.211V210.815C552.563 209.032 551.108 207.588 549.312 207.588Z" fill="#072D57"/>
<path d="M513.396 235.702H490.293C488.497 235.702 487.042 237.147 487.042 238.929V254.326C487.042 256.108 488.497 257.553 490.293 257.553H513.396C515.192 257.553 516.648 256.108 516.648 254.326V238.929C516.648 237.147 515.192 235.702 513.396 235.702Z" fill="#072D57"/>
<path d="M549.312 235.702H526.209C524.413 235.702 522.957 237.147 522.957 238.929V254.326C522.957 256.108 524.413 257.553 526.209 257.553H549.312C551.108 257.553 552.563 256.108 552.563 254.326V238.929C552.563 237.147 551.108 235.702 549.312 235.702Z" fill="#072D57"/>
<path d="M506.456 133.564C506.925 133.833 506.925 134.506 506.456 134.775L500.071 138.433C499.602 138.702 499.014 138.366 499.014 137.827V130.511C499.014 129.973 499.602 129.637 500.071 129.906L506.456 133.564Z" fill="#96C9FE"/>
<path d="M542.371 133.564C542.841 133.833 542.841 134.506 542.371 134.775L535.986 138.433C535.517 138.702 534.93 138.366 534.93 137.827V130.511C534.93 129.973 535.517 129.637 535.986 129.906L542.371 133.564Z" fill="#96C9FE"/>
<path d="M506.456 161.679C506.925 161.948 506.925 162.62 506.456 162.89L500.071 166.548C499.602 166.817 499.014 166.48 499.014 165.942V158.627C499.014 158.088 499.602 157.752 500.071 158.02L506.456 161.679Z" fill="#96C9FE"/>
<path d="M542.371 161.679C542.841 161.948 542.841 162.62 542.371 162.89L535.986 166.548C535.517 166.817 534.93 166.48 534.93 165.942V158.627C534.93 158.088 535.517 157.752 535.986 158.02L542.371 161.679Z" fill="#96C9FE"/>
<path d="M506.456 189.793C506.925 190.063 506.925 190.735 506.456 191.004L500.071 194.662C499.602 194.931 499.014 194.595 499.014 194.057V186.741C499.014 186.203 499.602 185.867 500.071 186.135L506.456 189.793Z" fill="#96C9FE"/>
<path d="M542.371 189.793C542.841 190.063 542.841 190.735 542.371 191.004L535.986 194.662C535.517 194.931 534.93 194.595 534.93 194.057V186.741C534.93 186.203 535.517 185.867 535.986 186.135L542.371 189.793Z" fill="#96C9FE"/>
<path d="M506.456 217.908C506.925 218.178 506.925 218.85 506.456 219.12L500.071 222.777C499.602 223.046 499.014 222.71 499.014 222.172V214.856C499.014 214.318 499.602 213.982 500.071 214.25L506.456 217.908Z" fill="#96C9FE"/>
<path d="M542.371 217.908C542.841 218.178 542.841 218.85 542.371 219.12L535.986 222.777C535.517 223.046 534.93 222.71 534.93 222.172V214.856C534.93 214.318 535.517 213.982 535.986 214.25L542.371 217.908Z" fill="#96C9FE"/>
<path d="M506.456 246.023C506.925 246.292 506.925 246.965 506.456 247.234L500.071 250.892C499.602 251.161 499.014 250.824 499.014 250.286V242.971C499.014 242.432 499.602 242.096 500.071 242.365L506.456 246.023Z" fill="#96C9FE"/>
<path d="M542.371 246.023C542.841 246.291 542.841 246.964 542.371 247.233L535.986 250.891C535.517 251.16 534.93 250.824 534.93 250.286V242.97C534.93 242.431 535.517 242.095 535.986 242.365L542.371 246.023Z" fill="#96C9FE"/>
<g opacity="0.65">
<path opacity="0.65" d="M264.718 208.74H465.313" stroke="black" stroke-opacity="0.3" stroke-width="1.5" stroke-linecap="round"/>
<path opacity="0.65" d="M264.92 208.74H324.467" stroke="#005B9D" stroke-width="2.25" stroke-linecap="round"/>
</g>
<path d="M77.4954 274.741C80.4623 282.934 83.7709 292.07 92.001 299.278C96.4831 303.204 101.761 305.325 106.349 307.168C106.742 307.326 107.131 307.482 107.513 307.637C103.615 310.104 98.8193 311.59 92.9577 311.59C72.8163 311.59 65.1582 292.008 63.7735 276.975C63.5234 274.26 65.766 272.045 68.5132 272.045H76.5123C76.84 272.93 77.1661 273.83 77.4954 274.741Z" fill="black" fill-opacity="0.2"/>
<g opacity="0.7">
<path opacity="0.7" d="M130.236 112.571C144.202 108.689 152.353 94.3054 148.44 80.4455C144.528 66.5856 130.034 58.4975 116.068 62.3802C102.101 66.2629 93.951 80.6461 97.8635 94.506C101.776 108.366 116.27 116.454 130.236 112.571Z" fill="#305EED"/>
<path opacity="0.7" fill-rule="evenodd" clip-rule="evenodd" d="M111.009 95.6743C111.009 95.6743 117.936 105.211 127.413 102.576C137.794 99.6903 137.816 88.2222 137.816 88.2222C137.816 88.2222 132.122 96.452 126.152 98.111C120.182 99.7707 111.009 95.6743 111.009 95.6743Z" fill="black"/>
<path opacity="0.7" d="M114.384 86.8562C115.844 86.4503 116.696 84.9464 116.287 83.4973C115.878 82.0482 114.363 81.2025 112.902 81.6085C111.442 82.0144 110.59 83.5183 110.999 84.9674C111.408 86.4165 112.923 87.2622 114.384 86.8562Z" fill="black"/>
<path opacity="0.7" d="M130.32 82.4268C131.78 82.0208 132.633 80.517 132.224 79.0678C131.814 77.6187 130.299 76.7731 128.839 77.179C127.379 77.585 126.526 79.0888 126.936 80.5379C127.345 81.9871 128.86 82.8327 130.32 82.4268Z" fill="black"/>
</g>
<g opacity="0.7">
<path opacity="0.7" d="M58.9217 36.8808C63.7528 38.5078 68.9787 35.9336 70.5939 31.1312C72.2092 26.3288 69.6021 21.1167 64.771 19.4897C59.9399 17.8627 54.714 20.4368 53.0988 25.2393C51.4835 30.0417 54.0905 35.2538 58.9217 36.8808Z" fill="#305EED"/>
<path opacity="0.7" fill-rule="evenodd" clip-rule="evenodd" d="M56.6621 28.1543C56.6621 28.1543 56.7736 32.2878 60.0546 33.3836C63.6485 34.584 65.9428 31.254 65.9428 31.254C65.9428 31.254 62.6456 32.528 60.5788 31.8377C58.5121 31.1475 56.6621 28.1543 56.6621 28.1543Z" fill="black"/>
<path opacity="0.7" d="M59.404 26.2534C59.9095 26.4223 60.4573 26.1524 60.6274 25.6507C60.7976 25.149 60.5257 24.6054 60.0201 24.4366C59.5146 24.2677 58.9668 24.5376 58.7967 25.0393C58.6265 25.541 58.8984 26.0846 59.404 26.2534Z" fill="black"/>
<path opacity="0.7" d="M64.9218 28.0959C65.4273 28.2648 65.9751 27.995 66.1452 27.4933C66.3154 26.9916 66.0435 26.448 65.5379 26.2791C65.0324 26.1103 64.4846 26.3801 64.3145 26.8818C64.1443 27.3835 64.4162 27.9271 64.9218 28.0959Z" fill="black"/>
</g>
<g opacity="0.6">
<path opacity="0.6" d="M246.037 34.9877C255.105 35.7693 263.083 29.1072 263.858 20.1076C264.633 11.1079 257.91 3.17868 248.842 2.3971C239.775 1.61553 231.796 8.2776 231.021 17.2773C230.247 26.2769 236.969 34.2062 246.037 34.9877Z" fill="#305EED"/>
<path opacity="0.6" fill-rule="evenodd" clip-rule="evenodd" d="M238.473 20.8398C238.473 20.8398 240.423 27.9585 246.576 28.4845C253.317 29.0607 255.878 22.3277 255.878 22.3277C255.878 22.3277 250.704 25.9166 246.828 25.5852C242.952 25.254 238.473 20.8398 238.473 20.8398Z" fill="black"/>
<path opacity="0.6" d="M242.418 16.3968C243.366 16.4779 244.201 15.7808 244.283 14.8399C244.364 13.899 243.662 13.0706 242.714 12.9895C241.766 12.9085 240.931 13.6055 240.849 14.5464C240.768 15.4873 241.47 16.3158 242.418 16.3968Z" fill="black"/>
<path opacity="0.6" d="M252.762 17.2811C253.71 17.3622 254.545 16.6651 254.627 15.7242C254.708 14.7833 254.006 13.9549 253.058 13.8738C252.11 13.7928 251.275 14.4898 251.193 15.4307C251.112 16.3716 251.814 17.2001 252.762 17.2811Z" fill="black"/>
</g>
<g opacity="0.5">
<path opacity="0.5" d="M27.1528 157.287C33.9379 155.622 38.0783 148.814 36.4006 142.081C34.723 135.347 27.8626 131.239 21.0775 132.903C14.2924 134.568 10.152 141.376 11.8296 148.11C13.5073 154.843 20.3677 158.952 27.1528 157.287Z" fill="#305EED"/>
<path opacity="0.5" fill-rule="evenodd" clip-rule="evenodd" d="M18.1484 148.866C18.1484 148.866 21.3424 153.561 25.9465 152.432C30.9898 151.194 31.1717 145.67 31.1717 145.67C31.1717 145.67 28.3062 149.551 25.406 150.262C22.5058 150.974 18.1484 148.866 18.1484 148.866Z" fill="black"/>
<path opacity="0.5" d="M19.9036 144.668C20.613 144.494 21.0459 143.782 20.8705 143.078C20.6951 142.374 19.9778 141.944 19.2684 142.118C18.559 142.292 18.1261 143.004 18.3015 143.708C18.4769 144.412 19.1942 144.842 19.9036 144.668Z" fill="black"/>
<path opacity="0.5" d="M27.6424 142.768C28.3518 142.594 28.7847 141.882 28.6093 141.178C28.4339 140.474 27.7166 140.044 27.0072 140.219C26.2978 140.393 25.8649 141.104 26.0403 141.808C26.2157 142.512 26.933 142.942 27.6424 142.768Z" fill="black"/>
</g>
<path d="M319.013 85.0359C325.607 87.3348 332.831 83.8934 335.148 77.3493C337.464 70.8052 333.996 63.6365 327.402 61.3376C320.808 59.0387 313.584 62.4801 311.267 69.0242C308.951 75.5683 312.419 82.737 319.013 85.0359Z" fill="#305EED"/>
<path fill-rule="evenodd" clip-rule="evenodd" d="M316.131 73.0923C316.131 73.0923 316.208 78.7565 320.683 80.3169C325.585 82.0259 328.788 77.5049 328.788 77.5049C328.788 77.5049 324.248 79.191 321.429 78.2087C318.611 77.2257 316.131 73.0923 316.131 73.0923Z" fill="black"/>
<path d="M319.92 70.5371C320.61 70.7774 321.365 70.4176 321.607 69.7334C321.849 69.0491 321.487 68.2996 320.797 68.0592C320.108 67.8189 319.352 68.1787 319.11 68.8629C318.868 69.5472 319.231 70.2967 319.92 70.5371Z" fill="black"/>
<path d="M327.446 73.1599C328.135 73.4002 328.891 73.0404 329.133 72.3562C329.375 71.6719 329.013 70.9224 328.323 70.682C327.634 70.4417 326.878 70.8015 326.636 71.4857C326.394 72.17 326.757 72.9195 327.446 73.1599Z" fill="black"/>
<path d="M433.268 30.6367C440.243 30.1805 445.524 24.2001 445.064 17.2789C444.605 10.3578 438.578 5.11686 431.604 5.57301C424.63 6.02915 419.348 12.0096 419.808 18.9308C420.268 25.8519 426.294 31.0928 433.268 30.6367Z" fill="#305EED"/>
<path fill-rule="evenodd" clip-rule="evenodd" d="M425.892 20.7757C425.892 20.7757 428.205 25.9548 432.937 25.6453C438.121 25.3062 439.277 19.9001 439.277 19.9001C439.277 19.9001 435.77 23.2205 432.789 23.4155C429.808 23.6104 425.892 20.7757 425.892 20.7757Z" fill="black"/>
<path d="M428.365 16.9492C429.094 16.9016 429.646 16.2763 429.598 15.5526C429.55 14.829 428.92 14.281 428.191 14.3287C427.462 14.3764 426.91 15.0017 426.958 15.7253C427.006 16.449 427.636 16.9969 428.365 16.9492Z" fill="black"/>
<path d="M436.321 16.4285C437.05 16.3808 437.602 15.7555 437.554 15.0319C437.506 14.3082 436.876 13.7602 436.147 13.8079C435.418 13.8556 434.866 14.4809 434.914 15.2046C434.962 15.9282 435.592 16.4762 436.321 16.4285Z" fill="black"/>
<path d="M311.854 190.301C318.488 192.483 325.649 188.915 327.848 182.331C330.047 175.747 326.452 168.64 319.817 166.458C313.183 164.276 306.022 167.844 303.823 174.428C301.624 181.012 305.219 188.118 311.854 190.301Z" fill="#305EED"/>
<path fill-rule="evenodd" clip-rule="evenodd" d="M308.761 178.41C308.761 178.41 308.94 184.072 313.442 185.553C318.373 187.175 321.495 182.598 321.495 182.598C321.495 182.598 316.986 184.365 314.15 183.432C311.314 182.499 308.761 178.41 308.761 178.41Z" fill="black"/>
<path d="M312.501 175.788C313.195 176.016 313.943 175.643 314.173 174.955C314.403 174.266 314.027 173.523 313.334 173.295C312.64 173.067 311.891 173.44 311.661 174.128C311.431 174.817 311.807 175.56 312.501 175.788Z" fill="black"/>
<path d="M320.073 178.278C320.767 178.506 321.515 178.133 321.745 177.445C321.975 176.757 321.599 176.014 320.906 175.785C320.212 175.557 319.463 175.93 319.233 176.619C319.003 177.307 319.379 178.05 320.073 178.278Z" fill="black"/>
<path d="M578.131 312.646C578.234 313.14 568.109 313.14 555.368 313.14C542.628 313.14 540.224 313.171 540.224 312.224C540.224 311.277 542.628 310.51 555.368 310.51C568.109 310.51 577.799 311.03 578.131 312.646Z" fill="black" fill-opacity="0.37"/>
<path fill-rule="evenodd" clip-rule="evenodd" d="M548.753 312.461C547.175 312.444 545.789 311.321 545.717 309.757C545.365 302.067 550.476 297.69 557.996 297.69C568.058 297.69 578.435 303.543 578.435 310.918C578.435 312 577.466 312.769 576.376 312.757L548.753 312.461Z" fill="#072D57"/>
<path d="M155.82 350.186C153.566 312.439 183.806 280.599 221.909 280.599H323.15C358.107 280.599 387.041 307.57 389.226 342.194L397.602 474.935H163.268L155.82 350.186Z" fill="#96C9FE"/>
<path d="M135.641 357.355C128.74 317.231 159.886 280.599 200.902 280.599H297.102C331.592 280.599 360.303 306.875 363.091 340.99L374.123 476H156.048L135.641 357.355Z" fill="#072D57"/>
<path d="M210.985 368.992C211.649 379.49 212.273 389.366 212.455 397.867C213.173 431.652 235.07 455.961 269.204 476H156.047L135.85 358.579C128.887 318.096 156.949 280.599 194.209 280.599H214.036C206.813 303.062 209.063 338.624 210.985 368.992Z" fill="black" fill-opacity="0.09"/>
</g>
<defs>
<clipPath id="clip0">
<rect width="648" height="476" fill="white"/>
</clipPath>
</defs>
</svg>
