<svg width="648" height="476" viewBox="0 0 648 476" fill="none" xmlns="http://www.w3.org/2000/svg">
<g clip-path="url(#clip0)">
<path opacity="0.3" d="M324.31 362.368H148.486C137.719 362.368 128.996 353.637 128.996 342.861V267.801C128.996 257.025 137.719 248.293 148.486 248.293H324.31C335.077 248.293 343.801 257.025 343.801 267.801V342.861C343.801 353.637 335.077 362.368 324.31 362.368Z" fill="#8BB9EB"/>
<path opacity="0.3" d="M610.09 271.379H434.265C423.499 271.379 414.775 262.648 414.775 251.872V176.812C414.775 166.036 423.499 157.305 434.265 157.305H610.09C620.856 157.305 629.58 166.036 629.58 176.812V251.872C629.58 262.648 620.856 271.379 610.09 271.379Z" fill="#8BB9EB"/>
<path d="M529.895 150.568H592.649" stroke="#005B9D" stroke-width="0.847817" stroke-miterlimit="10" stroke-linecap="round"/>
<path opacity="0.1" d="M365.819 250.494H150.749C147.413 250.494 144.707 247.785 144.707 244.447C144.707 241.109 147.413 238.4 150.749 238.4H365.819C369.154 238.4 371.861 241.109 371.861 244.447C371.861 247.785 369.161 250.494 365.819 250.494Z" stroke="#005B9D" stroke-width="0.847817" stroke-miterlimit="10" stroke-linecap="round"/>
<path opacity="0.1" d="M147.626 244.447H362.696" stroke="#005B9D" stroke-width="0.847817" stroke-miterlimit="10" stroke-linecap="round"/>
<path d="M266.291 352.306H329.046" stroke="#005B9D" stroke-width="0.847817" stroke-miterlimit="10" stroke-linecap="round"/>
<path d="M246.534 366.221H309.29" stroke="#005B9D" stroke-width="0.847817" stroke-miterlimit="10" stroke-linecap="round"/>
<path opacity="0.3" d="M547.188 210.113H293.51C280.793 210.113 270.485 199.797 270.485 187.067V119.082C270.485 106.353 280.793 96.0374 293.51 96.0374H547.194C559.912 96.0374 570.218 106.353 570.218 119.082V187.073C570.212 199.797 559.906 210.113 547.188 210.113Z" fill="#8BB9EB"/>
<path d="M477.197 424.428H329.521C319.516 424.428 311.402 416.307 311.402 406.293V57.4645C311.402 47.4505 319.516 39.3293 329.521 39.3293H477.197C487.203 39.3293 495.316 47.4505 495.316 57.4645V406.293C495.316 416.307 487.203 424.428 477.197 424.428Z" fill="#133254"/>
<path d="M368.254 409.825H438.464" stroke="#FFE458" stroke-width="0.758272" stroke-miterlimit="10" stroke-linecap="round"/>
<g filter="url(#filter0_b)">
<path d="M465.184 283.812H317.084C308.136 283.812 300.88 276.55 300.88 267.594V119.361C300.88 110.405 308.136 103.143 317.084 103.143H465.184C474.131 103.143 481.387 110.405 481.387 119.361V267.589C481.387 276.55 474.131 283.812 465.184 283.812Z" fill="#2143AB" fill-opacity="0.78"/>
<path d="M465.184 283.488H317.084C308.315 283.488 301.204 276.371 301.204 267.594V119.361C301.204 110.584 308.315 103.467 317.084 103.467H465.184C473.951 103.467 481.062 110.584 481.062 119.361V267.589C481.062 276.371 473.951 283.488 465.184 283.488Z" stroke="#305EED" stroke-opacity="0.3" stroke-width="0.649147"/>
</g>
<path d="M452.814 270.975H299.863C292.25 270.975 286.082 264.801 286.082 257.182V104.098C286.082 96.4791 292.25 90.3047 299.863 90.3047H452.814C460.427 90.3047 466.595 96.4791 466.595 104.098V257.182C466.589 264.801 460.421 270.975 452.814 270.975Z" stroke="#78D2EE" stroke-width="0.758272" stroke-miterlimit="10"/>
<path d="M272.859 52.459L249.255 57.6552L254.447 81.2787L278.049 76.0835L272.859 52.459Z" stroke="#005B9D" stroke-width="0.916663" stroke-miterlimit="10"/>
<path d="M614.551 165.275C622.952 165.275 629.763 158.458 629.763 150.048C629.763 141.64 622.952 134.822 614.551 134.822C606.149 134.822 599.337 141.64 599.337 150.048C599.337 158.458 606.149 165.275 614.551 165.275Z" stroke="#005B9D" stroke-width="0.916663" stroke-miterlimit="10"/>
<path d="M389.264 148.12C389.264 148.12 351.401 132.102 361.927 122.233C372.451 112.365 389.264 148.12 389.264 148.12Z" stroke="#005B9D" stroke-width="1.35" stroke-miterlimit="10"/>
<path d="M389.267 148.119C389.267 148.119 411.536 113.537 419.445 125.607C427.354 137.676 389.267 148.119 389.267 148.119Z" stroke="#005B9D" stroke-width="1.35" stroke-miterlimit="10"/>
<path d="M420.019 218.542H358.503C355.549 218.542 353.156 216.147 353.156 213.191V151.621C353.156 148.663 355.549 146.269 358.503 146.269H420.019C422.974 146.269 425.367 148.663 425.367 151.621V213.191C425.372 216.147 422.974 218.542 420.019 218.542Z" fill="#133254"/>
<path d="M395.026 142.889H383.504V220.725H395.026V142.889Z" fill="#8BB9EB"/>
<path d="M428.151 188.255V176.555H350.383V188.255H428.151Z" fill="#8BB9EB"/>
<path d="M434.446 254.969H344.094C340.855 254.969 338.233 251.905 338.233 248.121V235.879C338.233 232.095 340.855 229.03 344.094 229.03H434.446C437.684 229.03 440.307 232.095 440.307 235.879V248.121C440.307 251.905 437.679 254.969 434.446 254.969Z" fill="#133254"/>
<path d="M140.96 6.18604V18.3706" stroke="#005B9D" stroke-width="2.69968" stroke-miterlimit="10" stroke-linecap="round"/>
<path d="M140.96 86.8337V99.0185" stroke="#005B9D" stroke-width="2.69968" stroke-miterlimit="10" stroke-linecap="round"/>
<path d="M117.783 12.4082L123.866 22.9541" stroke="#005B9D" stroke-width="2.69968" stroke-miterlimit="10" stroke-linecap="round"/>
<path d="M158.071 82.2441L164.155 92.7956" stroke="#005B9D" stroke-width="2.69968" stroke-miterlimit="10" stroke-linecap="round"/>
<path d="M100.802 29.3938L111.345 35.4831" stroke="#005B9D" stroke-width="2.69968" stroke-miterlimit="10" stroke-linecap="round"/>
<path d="M170.588 69.7144L181.132 75.8097" stroke="#005B9D" stroke-width="2.69968" stroke-miterlimit="10" stroke-linecap="round"/>
<path d="M94.5884 52.6028H106.763" stroke="#005B9D" stroke-width="2.69968" stroke-miterlimit="10" stroke-linecap="round"/>
<path d="M175.162 52.6028H187.335" stroke="#005B9D" stroke-width="2.69968" stroke-miterlimit="10" stroke-linecap="round"/>
<path d="M100.802 75.8104L111.345 69.7151" stroke="#005B9D" stroke-width="2.69968" stroke-miterlimit="10" stroke-linecap="round"/>
<path d="M170.588 35.4839L181.131 29.3945" stroke="#005B9D" stroke-width="2.69968" stroke-miterlimit="10" stroke-linecap="round"/>
<path d="M117.783 92.7956L123.867 82.2441" stroke="#005B9D" stroke-width="2.69968" stroke-miterlimit="10" stroke-linecap="round"/>
<path d="M158.071 22.9541L164.155 12.4082" stroke="#005B9D" stroke-width="2.69968" stroke-miterlimit="10" stroke-linecap="round"/>
<path opacity="0.6" fill-rule="evenodd" clip-rule="evenodd" d="M428.145 219.945C425.051 219.945 422.543 217.435 422.543 214.34V197.263C422.543 194.166 425.051 191.658 428.145 191.658C431.238 191.658 433.745 194.166 433.745 197.263V214.34C433.745 217.435 431.238 219.945 428.145 219.945ZM422.542 327.375C422.542 330.47 425.05 332.98 428.144 332.98C431.237 332.98 433.744 330.47 433.744 327.375V310.298C433.744 307.203 431.237 304.693 428.144 304.693C425.05 304.693 422.542 307.203 422.542 310.298V327.375ZM386.624 243.933C385.675 243.933 384.708 243.691 383.832 243.183L369.055 234.645C366.378 233.097 365.459 229.668 367.006 226.99C368.553 224.311 371.979 223.392 374.655 224.94L389.433 233.478C392.109 235.026 393.028 238.454 391.481 241.134C390.442 242.929 388.557 243.933 386.624 243.933ZM481.637 299.704C482.513 300.212 483.479 300.454 484.428 300.454C486.368 300.454 488.246 299.444 489.286 297.654C490.832 294.975 489.914 291.547 487.237 289.998L472.459 281.461C469.783 279.912 466.357 280.831 464.811 283.51C463.264 286.189 464.182 289.618 466.859 291.165L481.637 299.704ZM371.857 300.454C369.925 300.454 368.039 299.45 367.006 297.648C365.459 294.969 366.378 291.541 369.055 289.992L383.832 281.455C386.509 279.906 389.934 280.825 391.481 283.504C393.028 286.183 392.109 289.612 389.433 291.159L374.655 299.698C373.773 300.212 372.806 300.454 371.857 300.454ZM464.811 241.127C465.844 242.929 467.729 243.933 469.662 243.933C470.611 243.933 471.578 243.691 472.459 243.177L487.237 234.639C489.914 233.091 490.832 229.662 489.286 226.984C487.739 224.305 484.313 223.385 481.637 224.934L466.859 233.472C464.182 235.02 463.264 238.448 464.811 241.127Z" fill="#8BB9EB"/>
<path d="M351.495 383.52H335.732C332.59 383.52 330.041 380.969 330.041 377.824V362.047C330.041 358.903 332.59 356.351 335.732 356.351H351.495C354.636 356.351 357.186 358.903 357.186 362.047V377.824C357.18 380.969 354.636 383.52 351.495 383.52Z" fill="#305EED"/>
<path d="M387.132 383.52H371.368C368.227 383.52 365.677 380.969 365.677 377.824V362.047C365.677 358.903 368.227 356.351 371.368 356.351H387.132C390.273 356.351 392.823 358.903 392.823 362.047V377.824C392.823 380.969 390.273 383.52 387.132 383.52Z" fill="#305EED"/>
<path d="M422.766 383.52H407.004C403.862 383.52 401.312 380.969 401.312 377.824V362.047C401.312 358.903 403.862 356.351 407.004 356.351H422.766C425.909 356.351 428.458 358.903 428.458 362.047V377.824C428.458 380.969 425.909 383.52 422.766 383.52Z" fill="#305EED"/>
<path d="M458.398 383.52H442.636C439.494 383.52 436.944 380.969 436.944 377.824V362.047C436.944 358.903 439.494 356.351 442.636 356.351H458.398C461.54 356.351 464.089 358.903 464.089 362.047V377.824C464.089 380.969 461.54 383.52 458.398 383.52Z" fill="#305EED"/>
<path opacity="0.2" d="M521.876 473.911C516.91 473.911 512.282 471.238 509.798 466.932L501.908 453.254C500.048 450.025 499.552 446.264 500.512 442.666C501.165 440.235 502.428 438.077 504.174 436.353C501.425 433.294 498.742 431.606 496.477 431.57C496.283 431.57 496.072 431.563 495.848 431.563L494.283 431.57C486.605 431.57 463.356 431.569 443.382 404.414L403.894 369.208C399.617 365.283 397.248 359.835 397.23 353.854C397.212 348.08 399.405 342.481 403.416 338.103C407.851 333.252 414.044 330.477 420.406 330.477C425.077 330.477 429.529 331.989 433.117 334.758L399.967 269.893C394.608 259.408 398.771 246.51 409.247 241.146C412.244 239.61 415.602 238.8 418.956 238.8C427.015 238.8 455.956 318.042 463.275 322.754C529.371 365.308 528.487 247.74 581.084 392.035C582.159 391.775 583.265 391.636 584.377 391.636C589.343 391.636 593.971 394.309 596.454 398.615L604.344 412.292C606.205 415.521 606.701 419.283 605.74 422.88C604.774 426.478 602.472 429.49 599.245 431.352L528.835 472.036C526.721 473.264 524.311 473.911 521.876 473.911Z" fill="black"/>
<path d="M579.027 383.846C571.771 365.119 571.366 344.372 571.474 337.225C571.498 335.453 571.154 333.693 570.466 332.06L548.015 278.89C544.872 272.746 537.351 270.309 531.212 273.453C525.655 276.302 523.147 282.742 525.056 288.499L522.634 283.752C518.912 276.471 509.995 273.587 502.72 277.312C496.068 280.717 493.107 288.462 495.489 295.332L492.921 290.307C489.199 283.026 480.281 280.141 473.007 283.866C467.298 286.793 464.307 292.919 465.081 298.941L435.651 241.363C431.93 234.082 423.012 231.198 415.739 234.923C408.464 238.648 405.582 247.573 409.304 254.853L458.302 350.728L433.513 328.626C427.483 323.099 417.744 323.927 411.756 330.47C405.77 337.013 405.799 346.797 411.829 352.324L451.77 387.928C471.146 414.716 493.386 412.866 500.086 412.963C514.526 413.168 524.204 440.265 524.204 440.265L586.174 400.155C586.155 400.149 582.349 392.415 579.027 383.846Z" fill="#EED3AB" stroke="#FFE458" stroke-width="0.758272" stroke-miterlimit="10"/>
<path d="M504.802 39.4681C501.847 33.5482 494.659 31.1536 488.749 34.1106L486.568 35.199L485.48 33.0161C482.527 27.0961 475.337 24.7015 469.429 27.6585C463.513 30.6155 461.12 37.8113 464.075 43.7257L465.163 45.9083L475.862 67.3383L497.268 56.6297L499.449 55.5409C505.358 52.5836 507.757 45.3886 504.802 39.4681Z" fill="#305EED"/>
<path d="M230.387 166.696C228.284 162.481 223.161 160.775 218.956 162.88L217.403 163.653L216.629 162.1C214.528 157.885 209.404 156.18 205.199 158.284C200.988 160.389 199.284 165.516 201.387 169.725L202.16 171.279L209.778 186.536L225.022 178.91L226.574 178.136C230.786 176.032 232.496 170.91 230.387 166.696Z" fill="#305EED"/>
<path d="M203.521 381.549H78.4165C71.589 381.549 66.0488 376.01 66.0488 369.171V273.69C66.0488 266.857 71.5831 261.312 78.4165 261.312H203.521C210.348 261.312 215.888 266.851 215.888 273.69V369.171C215.888 376.01 210.348 381.549 203.521 381.549Z" stroke="#005B9D" stroke-width="0.270009" stroke-miterlimit="10"/>
<path d="M122.782 356.641C119.211 356.641 116.324 353.745 116.324 350.177V342.431C116.324 338.857 119.217 335.967 122.782 335.967C126.353 335.967 129.241 338.863 129.241 342.431V350.177C129.241 353.745 126.347 356.641 122.782 356.641Z" fill="#133254"/>
<path d="M122.782 356.641C119.211 356.641 116.324 353.744 116.324 350.177V342.431C116.324 338.857 119.217 335.966 122.782 335.966C126.353 335.966 129.241 338.863 129.241 342.431V350.177C129.241 353.744 126.347 356.641 122.782 356.641Z" fill="black" fill-opacity="0.58"/>
<path d="M118.357 356.641C114.786 356.641 111.898 353.744 111.898 350.177V342.431C111.898 338.857 114.792 335.966 118.357 335.966C121.927 335.966 124.815 338.863 124.815 342.431V350.177C124.815 353.744 121.921 356.641 118.357 356.641Z" fill="#133254"/>
<path d="M135.827 270.521C140.181 270.521 143.71 266.988 143.71 262.63C143.71 258.272 140.181 254.739 135.827 254.739C131.472 254.739 127.942 258.272 127.942 262.63C127.942 266.988 131.472 270.521 135.827 270.521Z" fill="#305EED"/>
<path d="M151.302 221.531C152.761 217.389 147.614 211.798 139.807 209.044C132 206.288 124.488 207.412 123.029 211.554C121.57 215.696 126.716 221.287 134.524 224.041C142.331 226.797 149.842 225.673 151.302 221.531Z" fill="#305EED"/>
<path d="M139.979 171.693C141.869 171.156 142.142 166.275 140.587 160.792C139.032 155.307 136.238 151.296 134.348 151.834C132.457 152.37 132.185 157.251 133.739 162.736C135.295 168.22 138.088 172.23 139.979 171.693Z" fill="#305EED"/>
<path d="M151.491 356.641C147.92 356.641 145.033 353.745 145.033 350.177V342.431C145.033 338.857 147.926 335.967 151.491 335.967C155.062 335.967 157.95 338.863 157.95 342.431V350.177C157.956 353.745 155.062 356.641 151.491 356.641Z" fill="#133254"/>
<path d="M151.491 356.641C147.92 356.641 145.033 353.744 145.033 350.177V342.431C145.033 338.857 147.926 335.966 151.491 335.966C155.062 335.966 157.95 338.863 157.95 342.431V350.177C157.956 353.744 155.062 356.641 151.491 356.641Z" fill="black" fill-opacity="0.58"/>
<path d="M104.319 319.726C112.905 316.279 117.406 307.341 114.367 299.765C111.327 292.188 101.908 288.844 93.3179 292.297L104.319 319.726Z" fill="#133254"/>
<path d="M104.32 319.725C112.905 316.278 117.407 307.341 114.367 299.764C111.328 292.187 101.909 288.843 93.3179 292.296L104.32 319.725Z" fill="black" fill-opacity="0.58"/>
<path d="M155.946 356.641C152.375 356.641 149.487 353.744 149.487 350.177V342.431C149.487 338.857 152.381 335.966 155.946 335.966C159.516 335.966 162.404 338.863 162.404 342.431V350.177C162.404 353.744 159.516 356.641 155.946 356.641Z" fill="#133254"/>
<path d="M170.72 319.677C170.72 334.746 166.799 347.499 151.743 347.499H118.121C103.065 347.499 95.8032 337.086 95.8032 322.017C95.8032 305.11 108.485 293.959 127.963 292.169C133.177 291.685 138.523 291.747 143.701 292.357C162.461 294.552 170.72 303.296 170.72 319.677Z" fill="#133254"/>
<path d="M106.138 330.864L90.5443 333.126C87.8562 333.077 86.0733 315.523 90.2482 315.342C90.4239 315.336 90.5986 315.33 90.7744 315.336L106.416 315.62L106.138 330.864Z" fill="#133254"/>
<path d="M165.239 307.287C172.405 309.21 178.766 305.998 180.132 301.591C184.264 288.239 168.519 288.989 171.371 298.525C173.087 304.269 182.814 308.496 188.451 304.221" stroke="#005B9D" stroke-width="0.682567" stroke-miterlimit="10" stroke-linecap="round"/>
<path d="M111.896 315.185C120.481 311.738 127.853 301.168 124.813 293.597C121.774 286.021 109.48 284.309 100.894 287.756L111.896 315.185Z" fill="#133254"/>
<path d="M106.401 316.829C108.216 316.829 109.688 315.356 109.688 313.539C109.688 311.722 108.216 310.25 106.401 310.25C104.586 310.25 103.114 311.722 103.114 313.539C103.114 315.356 104.586 316.829 106.401 316.829Z" fill="#292929"/>
<path d="M99.8364 333.845C99.8364 333.845 102.694 338.38 104.271 337.545C105.4 336.952 105.83 335.126 105.4 331.607L99.8364 333.845Z" fill="white"/>
<path d="M209.245 405.525H147.608C143.941 405.525 140.968 402.549 140.968 398.88C140.968 395.209 143.941 392.234 147.608 392.234H209.245C212.912 392.234 215.885 395.209 215.885 398.88C215.885 402.549 212.912 405.525 209.245 405.525Z" fill="#133254"/>
<path d="M90.4455 405.525H72.6887C69.0213 405.525 66.0488 402.549 66.0488 398.88C66.0488 395.209 69.0213 392.234 72.6887 392.234H90.4396C94.107 392.234 97.0795 395.209 97.0795 398.88C97.0854 402.549 94.113 405.525 90.4455 405.525Z" fill="#133254"/>
<path d="M212.003 420.824H69.9335C67.7893 420.824 66.0488 419.082 66.0488 416.936C66.0488 414.789 67.7893 413.048 69.9335 413.048H212.009C214.155 413.048 215.894 414.789 215.894 416.936C215.888 419.088 214.149 420.824 212.003 420.824Z" fill="#133254"/>
<path d="M495.315 158.503V72.1829C498.849 72.1829 501.713 75.0492 501.713 78.5865V152.099C501.713 155.636 498.849 158.503 495.315 158.503Z" fill="#305EED"/>
<path d="M599.452 413.628L529.061 454.299C525.521 456.344 521.001 455.128 518.954 451.59L511.063 437.912C509.021 434.369 510.235 429.846 513.77 427.796L584.161 387.124C587.701 385.081 592.221 386.296 594.268 389.833L602.159 403.511C604.201 407.055 602.987 411.584 599.452 413.628Z" fill="#133254"/>
<path d="M430.896 234.947C434.769 237.342 435.886 242.614 437.215 246.969C437.886 249.163 438.351 251.461 438.115 253.747C437.885 256.033 436.883 258.307 435.071 259.71C432.37 261.79 428.394 261.499 425.422 259.836C422.449 258.173 420.274 255.392 418.335 252.586C417.815 251.836 417.308 251.074 416.782 250.324C413 244.846 414.673 237.148 420.6 234.125C423.404 232.685 426.853 232.45 430.896 234.947Z" fill="white" fill-opacity="0.4" stroke="#FFE458" stroke-width="0.758272" stroke-miterlimit="10"/>
<path opacity="0.1" d="M539.366 398.662C539.366 397.301 538.26 396.195 536.901 396.195C535.541 396.195 534.436 397.301 534.436 398.662C534.436 400.023 535.535 401.129 536.901 401.129C538.26 401.129 539.366 400.028 539.366 398.662Z" fill="white"/>
<path opacity="0.1" d="M563.999 374.008C563.999 372.648 562.893 371.541 561.534 371.541C560.175 371.541 559.069 372.648 559.069 374.008C559.069 375.369 560.169 376.476 561.534 376.476C562.893 376.476 563.999 375.375 563.999 374.008Z" fill="white"/>
<path opacity="0.1" d="M545.521 380.176C545.521 378.816 544.415 377.709 543.056 377.709C541.696 377.709 540.591 378.816 540.591 380.176C540.591 381.537 541.691 382.643 543.056 382.643C544.415 382.637 545.521 381.537 545.521 380.176Z" fill="white"/>
<path opacity="0.1" d="M545.529 392.501C545.529 392.331 545.511 392.162 545.48 392.005C545.414 391.684 545.288 391.388 545.112 391.121C544.671 390.468 543.921 390.033 543.069 390.033C542.218 390.033 541.469 390.462 541.028 391.121C540.852 391.381 540.726 391.684 540.66 392.005C540.629 392.168 540.611 392.331 540.611 392.501C540.611 393.861 541.71 394.968 543.076 394.968C544.423 394.968 545.529 393.861 545.529 392.501Z" fill="white"/>
<path opacity="0.1" d="M539.366 386.339C539.366 384.978 538.26 383.872 536.901 383.872C535.541 383.872 534.436 384.978 534.436 386.339C534.436 387.699 535.535 388.806 536.901 388.806C538.26 388.806 539.366 387.699 539.366 386.339Z" fill="white"/>
<path opacity="0.1" d="M551.676 386.339C551.676 384.978 550.571 383.872 549.211 383.872C547.852 383.872 546.746 384.978 546.746 386.339C546.746 387.699 547.846 388.806 549.211 388.806C550.577 388.806 551.676 387.699 551.676 386.339Z" fill="white"/>
<path opacity="0.1" d="M551.676 374.008C551.676 372.648 550.571 371.541 549.211 371.541C547.852 371.541 546.746 372.648 546.746 374.008C546.746 375.369 547.846 376.476 549.211 376.476C550.577 376.476 551.676 375.375 551.676 374.008Z" fill="white"/>
<path opacity="0.1" d="M557.839 380.176C557.839 378.816 556.734 377.709 555.374 377.709C554.015 377.709 552.909 378.816 552.909 380.176C552.909 381.537 554.008 382.643 555.374 382.643C556.74 382.637 557.839 381.537 557.839 380.176Z" fill="white"/>
<path opacity="0.1" d="M533.202 392.501C533.202 392.331 533.185 392.162 533.154 392.005C533.088 391.684 532.961 391.388 532.786 391.121C532.345 390.468 531.595 390.033 530.743 390.033C529.891 390.033 529.142 390.462 528.701 391.121C528.526 391.381 528.399 391.684 528.333 392.005C528.303 392.168 528.284 392.331 528.284 392.501C528.284 393.861 529.384 394.968 530.749 394.968C532.103 394.968 533.202 393.861 533.202 392.501Z" fill="white"/>
<path opacity="0.1" d="M563.999 361.684C563.999 360.324 562.893 359.217 561.534 359.217C560.175 359.217 559.069 360.324 559.069 361.684C559.069 363.045 560.169 364.151 561.534 364.151C562.893 364.151 563.999 363.045 563.999 361.684Z" fill="white"/>
<path opacity="0.1" d="M563.999 349.355C563.999 347.995 562.893 346.888 561.534 346.888C560.175 346.888 559.069 347.995 559.069 349.355C559.069 350.716 560.169 351.823 561.534 351.823C562.893 351.823 563.999 350.722 563.999 349.355Z" fill="white"/>
<path opacity="0.1" d="M551.676 361.684C551.676 360.324 550.571 359.217 549.211 359.217C547.852 359.217 546.746 360.324 546.746 361.684C546.746 363.045 547.846 364.151 549.211 364.151C550.577 364.151 551.676 363.045 551.676 361.684Z" fill="white"/>
<path opacity="0.1" d="M551.676 349.355C551.676 347.995 550.571 346.888 549.211 346.888C547.852 346.888 546.746 347.995 546.746 349.355C546.746 350.716 547.846 351.823 549.211 351.823C550.577 351.823 551.676 350.722 551.676 349.355Z" fill="white"/>
<path opacity="0.1" d="M557.839 355.522C557.839 354.162 556.734 353.055 555.374 353.055C554.015 353.055 552.909 354.162 552.909 355.522C552.909 356.883 554.008 357.99 555.374 357.99C556.74 357.984 557.839 356.883 557.839 355.522Z" fill="white"/>
<path opacity="0.1" d="M557.836 367.846C557.836 367.677 557.818 367.508 557.788 367.351C557.722 367.03 557.594 366.733 557.42 366.467C556.978 365.814 556.229 365.379 555.377 365.379C554.525 365.379 553.776 365.808 553.336 366.467C553.16 366.727 553.033 367.03 552.966 367.351C552.937 367.514 552.918 367.677 552.918 367.846C552.918 369.206 554.018 370.313 555.383 370.313C556.736 370.313 557.836 369.206 557.836 367.846Z" fill="white"/>
<path opacity="0.1" d="M565.555 329.666C565.356 330.023 565.229 330.428 565.229 330.864C565.229 331.292 565.349 331.692 565.542 332.048C565.507 331.256 565.507 330.464 565.555 329.666Z" fill="white"/>
<path opacity="0.1" d="M563.999 337.032C563.999 335.671 562.893 334.564 561.534 334.564C560.175 334.564 559.069 335.671 559.069 337.032C559.069 338.392 560.169 339.499 561.534 339.499C562.893 339.499 563.999 338.392 563.999 337.032Z" fill="white"/>
<path opacity="0.1" d="M545.521 330.87C545.521 329.509 544.415 328.403 543.056 328.403C541.696 328.403 540.591 329.509 540.591 330.87C540.591 332.231 541.691 333.337 543.056 333.337C544.415 333.33 545.521 332.231 545.521 330.87Z" fill="white"/>
<path opacity="0.1" d="M545.529 343.193C545.529 343.024 545.511 342.855 545.48 342.697C545.414 342.377 545.288 342.081 545.112 341.815C544.671 341.162 543.921 340.726 543.069 340.726C542.218 340.726 541.469 341.156 541.028 341.815C540.852 342.075 540.726 342.377 540.66 342.697C540.629 342.861 540.611 343.024 540.611 343.193C540.611 344.554 541.71 345.66 543.076 345.66C544.423 345.66 545.529 344.554 545.529 343.193Z" fill="white"/>
<path opacity="0.1" d="M539.366 324.702C539.366 323.341 538.26 322.234 536.901 322.234C535.541 322.234 534.436 323.341 534.436 324.702C534.436 326.062 535.535 327.169 536.901 327.169C538.26 327.169 539.366 326.062 539.366 324.702Z" fill="white"/>
<path opacity="0.1" d="M551.676 337.032C551.676 335.671 550.571 334.564 549.211 334.564C547.852 334.564 546.746 335.671 546.746 337.032C546.746 338.392 547.846 339.499 549.211 339.499C550.577 339.499 551.676 338.392 551.676 337.032Z" fill="white"/>
<path opacity="0.1" d="M551.676 324.702C551.676 323.341 550.571 322.234 549.211 322.234C547.852 322.234 546.746 323.341 546.746 324.702C546.746 326.062 547.846 327.169 549.211 327.169C550.577 327.169 551.676 326.062 551.676 324.702Z" fill="white"/>
<path opacity="0.1" d="M557.839 330.87C557.839 329.509 556.734 328.403 555.374 328.403C554.015 328.403 552.909 329.509 552.909 330.87C552.909 332.231 554.008 333.337 555.374 333.337C556.74 333.33 557.839 332.231 557.839 330.87Z" fill="white"/>
<path opacity="0.1" d="M557.836 343.193C557.836 343.024 557.818 342.855 557.788 342.697C557.722 342.377 557.594 342.081 557.42 341.815C556.978 341.162 556.229 340.726 555.377 340.726C554.525 340.726 553.776 341.156 553.336 341.815C553.16 342.075 553.033 342.377 552.966 342.697C552.937 342.861 552.918 343.024 552.918 343.193C552.918 344.554 554.018 345.66 555.383 345.66C556.736 345.66 557.836 344.554 557.836 343.193Z" fill="white"/>
<path opacity="0.1" d="M514.736 287.725C514.736 286.364 513.63 285.258 512.271 285.258C510.911 285.258 509.806 286.357 509.806 287.725C509.806 289.086 510.911 290.192 512.271 290.192C513.63 290.185 514.736 289.086 514.736 287.725Z" fill="white"/>
<path opacity="0.1" d="M520.894 293.886C520.894 292.526 519.788 291.419 518.429 291.419C517.92 291.419 517.444 291.576 517.051 291.842C516.942 291.915 516.845 292.006 516.749 292.09C516.731 292.109 516.706 292.121 516.688 292.138C516.465 292.363 516.29 292.623 516.163 292.919V292.925C516.036 293.221 515.97 293.542 515.97 293.886C515.97 295.247 517.069 296.354 518.435 296.354C519.788 296.354 520.894 295.247 520.894 293.886Z" fill="white"/>
<path opacity="0.1" d="M539.366 287.725C539.366 286.364 538.26 285.258 536.901 285.258C535.541 285.258 534.436 286.357 534.436 287.725C534.436 289.086 535.541 290.192 536.901 290.192C538.26 290.185 539.366 289.086 539.366 287.725Z" fill="white"/>
<path opacity="0.1" d="M545.527 293.886C545.527 292.526 544.421 291.419 543.062 291.419C542.555 291.419 542.077 291.576 541.684 291.842C541.575 291.915 541.479 292.006 541.382 292.09C541.364 292.109 541.339 292.121 541.322 292.138C541.099 292.363 540.923 292.623 540.797 292.919V292.925C540.669 293.221 540.603 293.542 540.603 293.886C540.603 295.247 541.703 296.354 543.068 296.354C544.421 296.354 545.527 295.247 545.527 293.886Z" fill="white"/>
<path opacity="0.1" d="M532.727 295.338C532.745 295.313 532.768 295.289 532.787 295.265C532.799 295.247 532.805 295.229 532.817 295.21C533.059 294.83 533.21 294.376 533.21 293.886C533.21 293.717 533.192 293.547 533.161 293.39C532.932 292.266 531.941 291.419 530.751 291.419C530.243 291.419 529.766 291.576 529.374 291.842C529.265 291.915 529.168 292.006 529.071 292.09C529.054 292.109 529.029 292.121 529.011 292.138C528.787 292.363 528.612 292.623 528.485 292.919V292.925C528.359 293.221 528.292 293.542 528.292 293.886C528.292 295.247 529.391 296.354 530.757 296.354C531.56 296.354 532.274 295.948 532.727 295.338Z" fill="white"/>
<path opacity="0.1" d="M545.521 306.215C545.521 304.855 544.415 303.748 543.056 303.748C541.696 303.748 540.591 304.855 540.591 306.215C540.591 307.576 541.691 308.682 543.056 308.682C544.415 308.676 545.521 307.576 545.521 306.215Z" fill="white"/>
<path opacity="0.1" d="M545.529 318.54C545.529 318.371 545.511 318.201 545.48 318.044C545.414 317.724 545.288 317.427 545.112 317.162C544.671 316.509 543.921 316.073 543.069 316.073C542.218 316.073 541.469 316.503 541.028 317.162C540.852 317.421 540.726 317.724 540.66 318.044C540.629 318.207 540.611 318.371 540.611 318.54C540.611 319.901 541.71 321.007 543.076 321.007C544.423 321.007 545.529 319.901 545.529 318.54Z" fill="white"/>
<path opacity="0.1" d="M539.366 312.379C539.366 311.018 538.26 309.911 536.901 309.911C535.541 309.911 534.436 311.018 534.436 312.379C534.436 313.739 535.535 314.846 536.901 314.846C538.26 314.846 539.366 313.739 539.366 312.379Z" fill="white"/>
<path opacity="0.1" d="M539.366 300.048C539.366 298.687 538.26 297.581 536.901 297.581C535.541 297.581 534.436 298.687 534.436 300.048C534.436 301.408 535.535 302.515 536.901 302.515C538.26 302.515 539.366 301.408 539.366 300.048Z" fill="white"/>
<path opacity="0.1" d="M551.676 312.379C551.676 311.018 550.571 309.911 549.211 309.911C547.852 309.911 546.746 311.018 546.746 312.379C546.746 313.739 547.846 314.846 549.211 314.846C550.577 314.846 551.676 313.739 551.676 312.379Z" fill="white"/>
<path opacity="0.1" d="M551.676 300.048C551.676 298.687 550.571 297.581 549.211 297.581C547.852 297.581 546.746 298.687 546.746 300.048C546.746 301.408 547.846 302.515 549.211 302.515C550.577 302.515 551.676 301.408 551.676 300.048Z" fill="white"/>
<path opacity="0.1" d="M557.836 318.54C557.836 318.371 557.818 318.201 557.788 318.044C557.722 317.724 557.594 317.427 557.42 317.162C556.978 316.509 556.229 316.073 555.377 316.073C554.525 316.073 553.776 316.503 553.336 317.162C553.16 317.421 553.033 317.724 552.966 318.044C552.937 318.207 552.918 318.371 552.918 318.54C552.918 319.901 554.018 321.007 555.383 321.007C556.736 321.007 557.836 319.901 557.836 318.54Z" fill="white"/>
<path opacity="0.1" d="M527.046 300.048C527.046 298.687 525.941 297.581 524.581 297.581C523.222 297.581 522.116 298.687 522.116 300.048C522.116 301.408 523.216 302.515 524.581 302.515C525.941 302.515 527.046 301.408 527.046 300.048Z" fill="white"/>
<path opacity="0.1" d="M533.206 306.215C533.206 304.855 532.1 303.748 530.741 303.748C529.382 303.748 528.276 304.855 528.276 306.215C528.276 307.576 529.376 308.682 530.741 308.682C532.107 308.676 533.206 307.576 533.206 306.215Z" fill="white"/>
<path opacity="0.1" d="M533.202 318.54C533.202 318.371 533.185 318.201 533.154 318.044C533.088 317.724 532.961 317.427 532.786 317.162C532.345 316.509 531.595 316.073 530.743 316.073C529.891 316.073 529.142 316.503 528.701 317.162C528.526 317.421 528.399 317.724 528.333 318.044C528.303 318.207 528.284 318.371 528.284 318.54C528.284 319.901 529.384 321.007 530.749 321.007C532.103 321.007 533.202 319.901 533.202 318.54Z" fill="white"/>
<path d="M124.693 299.655C124.693 299.655 134.25 295.373 147.627 299.655" stroke="#292929" stroke-width="0.408331" stroke-miterlimit="10" stroke-linecap="round"/>
<path d="M143.71 297.902C143.71 298.071 143.705 298.24 143.693 298.41C138.521 297.8 133.174 297.739 127.954 298.223C127.942 298.12 127.942 298.011 127.942 297.902C127.942 297.364 127.996 296.85 128.099 296.342C128.824 292.732 132.008 290.011 135.827 290.011C139.645 290.011 142.829 292.732 143.553 296.342C143.656 296.844 143.71 297.364 143.71 297.902Z" fill="#305EED"/>
<path opacity="0.2" d="M143.71 297.902C143.71 298.071 143.705 298.24 143.693 298.41C138.521 297.8 133.174 297.739 127.954 298.223C127.942 298.12 127.942 298.011 127.942 297.902C127.942 297.364 127.996 296.85 128.099 296.342C130.419 295.846 133.041 295.562 135.827 295.562C138.612 295.562 141.234 295.846 143.553 296.342C143.656 296.844 143.71 297.364 143.71 297.902Z" fill="#292929"/>
<path d="M426.881 35.4829H440.644V43.9668C440.644 48.006 437.375 51.2775 433.34 51.2775H367.383C363.347 51.2775 360.079 48.006 360.079 43.9668V35.4829H410.448" stroke="#FFE458" stroke-width="0.758272" stroke-miterlimit="10" stroke-linecap="round"/>
</g>
<defs>
<filter id="filter0_b" x="261.931" y="64.1937" width="258.404" height="258.568" filterUnits="userSpaceOnUse" color-interpolation-filters="sRGB">
<feFlood flood-opacity="0" result="BackgroundImageFix"/>
<feGaussianBlur in="BackgroundImage" stdDeviation="19.4744"/>
<feComposite in2="SourceAlpha" operator="in" result="effect1_backgroundBlur"/>
<feBlend mode="normal" in="SourceGraphic" in2="effect1_backgroundBlur" result="shape"/>
</filter>
<clipPath id="clip0">
<rect width="648" height="476" fill="white"/>
</clipPath>
</defs>
</svg>
