<svg viewBox="30 30 440 70">
    <path d="m38.145 64.717c0 14.677 11.898 26.576 26.574 26.576 14.675 0 26.574-11.9 26.574-26.576 0-14.675-11.9-26.573-26.575-26.573-14.677 0-26.575 11.898-26.575 26.573" fill="white"/>
    <path d="m66.883 72.393v-3.813c.318-.05.634-.117.87-.19 0 0 .887-.27 1.695-.703 3.65-1.954 6.176-6.074 6.176-10.856 0-2.62-1.665-6.193-1.665-6.193-.213-.454-.626-.493-.916-.084l-3.27 4.575c-.292.408-.766.405-1.055-.003l-3.47-4.934c-.287-.41-.76-.41-1.048 0l-3.47 4.935c-.287.408-.76.41-1.052.002l-3.298-4.624c-.292-.408-.705-.37-.918.083 0 0-1.695 3.602-1.695 6.245 0 4.677 2.41 8.725 5.932 10.73.893.507 1.997.843 1.997.843.236.073.552.138.87.184v11.6c0 1.19.966 2.153 2.156 2.153s2.157-.962 2.157-2.153v-2.7c10.49 0 12.263.637 12.263-14.103-2.256 4.786-6.822 8.27-12.263 9.01zm-16.59-9.01c0 13.44 1.474 14.1 9.692 14.112v-5.7c-4.285-1.333-7.805-4.403-9.693-8.41zm14.403-6.552" fill="#fff" stroke="#062233"/>
    <path d="m409.295 78.398v6.302h-3.15c-2.612 0-4.854-.932-6.72-2.8-1.865-1.868-2.8-4.106-2.8-6.722v-28.623h6.3v9.553h6.37v6.37h-6.37v12.762c0 .89.312 1.64.946 2.246.627.61 1.386.912 2.275.912h3.15zm-17.848-9.802c1.864 1.86 2.8 4.1 2.8 6.707 0 2.655-.936 4.913-2.8 6.777-1.87 1.863-4.106 2.796-6.72 2.796-2.66 0-4.923-.933-6.788-2.802-1.87-1.868-2.8-4.127-2.8-6.787h6.37c0 .88.315 1.634.942 2.262.63.624 1.388.937 2.274.937.885 0 1.633-.317 2.24-.95.606-.63.91-1.39.91-2.28 0-.888-.315-1.636-.942-2.244-.634-.608-1.39-.912-2.277-.912-2.612 0-4.853-.933-6.718-2.793-1.87-1.86-2.8-4.098-2.8-6.705 0-2.656.93-4.917 2.8-6.78 1.864-1.86 4.126-2.794 6.786-2.794 2.615 0 4.85.934 6.72 2.802 1.865 1.867 2.8 4.127 2.8 6.787h-6.37c0-.88-.304-1.635-.91-2.26-.607-.627-1.355-.94-2.24-.94-.886 0-1.645.303-2.274.91-.627.61-.942 1.383-.942 2.318 0 .888.315 1.638.943 2.243.628.61 1.387.914 2.273.914 2.615 0 4.85.934 6.72 2.794zm-28.618 3.47c-.88 0-1.634.316-2.26.95-.623.637-.935 1.4-.935 2.294s.312 1.65.935 2.258c.626.612 1.38.92 2.26.92.877 0 1.62-.308 2.22-.92.602-.608.902-1.364.902-2.258v-3.244h-3.123zm9.51 3.267c0 2.62-.934 4.868-2.796 6.737-1.86 1.868-4.096 2.806-6.706 2.806s-4.857-.94-6.742-2.813c-1.886-1.874-2.83-4.12-2.83-6.743 0-2.622.94-4.87 2.824-6.742 1.88-1.873 4.123-2.81 6.725-2.81h3.138v-3.215c0-.88-.3-1.626-.9-2.23-.602-.603-1.34-.907-2.215-.907-.878 0-1.627.3-2.252.906-.62.604-.935 1.342-.935 2.224h-6.384c0-2.61.944-4.85 2.83-6.716 1.885-1.868 4.133-2.802 6.742-2.802 2.61 0 4.845.937 6.706 2.806 1.862 1.87 2.796 4.115 2.796 6.734v12.765zm-24.716-22.305c-.885 0-1.63.304-2.235.914-.605.608-.908 1.356-.908 2.245v3.23h6.354v6.383h-6.354v19.073h-6.387v-28.71c0-2.613.932-4.856 2.802-6.724 1.864-1.866 4.103-2.797 6.717-2.797h3.15v6.385h-3.14zm-14.04 16.78c1.12 1.633 1.68 3.43 1.68 5.39v9.588h-6.336v-9.576c0-.886-.315-1.63-.95-2.238-.628-.604-1.393-.906-2.28-.906h-3.158v12.72h-6.386v-38.23h6.386v19.138l5.663-12.737 6.988-.016-6.016 13.367c1.817.702 3.29 1.867 4.41 3.5zm-29.828 2.258c-.876 0-1.628.316-2.257.95-.624.637-.934 1.4-.934 2.294s.31 1.65.933 2.258c.628.612 1.38.92 2.256.92.88 0 1.62-.308 2.223-.92.6-.608.9-1.364.9-2.258v-3.244h-3.124zm9.513 3.267c0 2.62-.934 4.868-2.8 6.737-1.86 1.868-4.095 2.806-6.704 2.806-2.61 0-4.855-.94-6.74-2.813-1.888-1.874-2.83-4.12-2.83-6.743 0-2.622.938-4.87 2.823-6.742 1.88-1.873 4.124-2.81 6.724-2.81h3.136v-3.215c0-.88-.3-1.626-.897-2.23-.603-.603-1.342-.907-2.217-.907-.877 0-1.627.3-2.25.906-.623.604-.933 1.342-.933 2.224h-6.388c0-2.61.943-4.85 2.83-6.716 1.886-1.868 4.133-2.802 6.74-2.802 2.61 0 4.845.937 6.706 2.806 1.866 1.87 2.8 4.115 2.8 6.734zm-28.052-12.758c0-.89-.302-1.64-.905-2.247-.607-.608-1.35-.912-2.233-.912-.885 0-1.632.304-2.236.912-.604.607-.906 1.358-.906 2.247v3.227h6.3zm6.407 9.615h-12.687v3.113c0 .877.298 1.626.9 2.248.598.628 1.335.937 2.215.937.878 0 1.627-.313 2.25-.938.623-.63.935-1.383.935-2.263h6.387c0 2.613-.935 4.862-2.796 6.752-1.862 1.888-4.12 2.836-6.777 2.836-2.61 0-4.844-.948-6.707-2.837-1.865-1.89-2.796-4.14-2.796-6.753v-12.74c0-2.61.93-4.85 2.796-6.717 1.863-1.868 4.098-2.802 6.707-2.802 2.656 0 4.915.937 6.776 2.81 1.86 1.87 2.795 4.118 2.795 6.737v9.615zm-21.12-19.162v6.368h-3.152c-.89 0-1.644.318-2.272.945-.632.63-.947 1.39-.947 2.277v22.258h-6.368v-22.259c0-2.613.933-4.864 2.803-6.753 1.863-1.89 4.126-2.836 6.785-2.836h3.15zm-22.17 9.425c0-.883-.314-1.64-.937-2.27-.622-.627-1.373-.942-2.245-.942h-3.12v15.93c0 .885.303 1.628.9 2.235.603.605 1.34.91 2.22.91.872 0 1.623-.305 2.245-.91.623-.607.937-1.35.937-2.236v-12.718zm-12.683-15.898h6.383v6.3h3.14c2.645 0 4.898.944 6.758 2.834s2.79 4.14 2.79 6.752v12.736c0 2.616-.93 4.854-2.794 6.72-1.862 1.87-4.123 2.802-6.776 2.802-2.61 0-4.847-.932-6.71-2.8-1.86-1.868-2.79-4.106-2.79-6.722v-28.622zm-81.452 28.718c0 .885.3 1.642.9 2.272s1.338.942 2.217.942c.874 0 1.624-.313 2.25-.942.62-.63.93-1.387.93-2.272v-15.857h-3.18c-.88 0-1.617.314-2.217.943-.6.628-.9 1.385-.9 2.27v12.643zm12.686.008c0 2.66-.934 4.924-2.794 6.793-1.864 1.865-4.122 2.803-6.78 2.803-2.606 0-4.84-.933-6.704-2.802-1.862-1.868-2.795-4.127-2.795-6.787v-12.67c0-2.66.93-4.92 2.79-6.787 1.858-1.868 4.09-2.802 6.69-2.802h3.206v-6.385h6.388v28.636zm-28.224-12.705c0-.888-.304-1.64-.907-2.247-.605-.608-1.35-.912-2.233-.912-.887 0-1.632.304-2.236.912-.603.608-.906 1.36-.906 2.247v3.227h6.298l-.017-3.227zm6.403 9.615h-12.685v3.113c0 .877.3 1.626.9 2.248.6.628 1.337.937 2.216.937.875 0 1.625-.313 2.25-.938.62-.63.932-1.383.932-2.263h6.387c0 2.613-.932 4.862-2.792 6.752-1.862 1.888-4.124 2.836-6.777 2.836-2.61 0-4.845-.948-6.708-2.837-1.862-1.89-2.794-4.14-2.794-6.753v-12.74c0-2.61.933-4.85 2.795-6.717 1.863-1.868 4.098-2.802 6.708-2.802 2.653 0 4.915.937 6.778 2.81 1.86 1.87 2.793 4.118 2.793 6.737v9.615zm-28.24-9.737c0-.883-.312-1.64-.935-2.27-.623-.627-1.373-.942-2.25-.942h-3.114v15.93c0 .885.298 1.628.9 2.235.598.605 1.336.91 2.214.91.877 0 1.627-.305 2.25-.91.623-.607.936-1.35.936-2.236v-12.719zm-12.683-15.899h6.386v6.3h3.137c2.648 0 4.902.944 6.76 2.834 1.86 1.89 2.79 4.14 2.79 6.752v12.736c0 2.616-.932 4.854-2.795 6.72-1.862 1.87-4.123 2.802-6.777 2.802-2.61 0-4.845-.932-6.708-2.8-1.862-1.868-2.792-4.106-2.792-6.722v-28.622" fill="#fff"/>
    <path d="m452.86 84.876c-2.614 0-4.853-.938-6.718-2.803-1.87-1.87-2.8-4.133-2.8-6.792v-28.637h6.386v28.624c0 .89.303 1.645.907 2.273.606.634 1.348.947 2.235.947h3.21v6.388zm-12.404-.09h-6.335v-22.243c0-.886-.305-1.63-.91-2.236-.61-.608-1.356-.91-2.245-.91-.892 0-1.65.302-2.282.91-.634.607-.947 1.35-.947 2.236v22.243h-6.387v-22.246c0-2.61.93-4.847 2.8-6.714 1.864-1.864 4.13-2.798 6.788-2.798 2.61 0 4.85.934 6.718 2.798 1.868 1.867 2.8 4.104 2.8 6.713v22.246zm-28.66 0v-6.388h6.37v6.388zm-191.88-9.514c0 .886.3 1.643.9 2.273s1.34.942 2.216.942c.877 0 1.627-.313 2.25-.942.623-.63.935-1.387.935-2.273v-15.856h-3.185c-.876 0-1.615.314-2.215.943-.6.628-.9 1.385-.9 2.27v12.641zm12.688.01c0 2.658-.933 4.922-2.793 6.79-1.865 1.866-4.125 2.803-6.778 2.803-2.61 0-4.845-.932-6.707-2.8-1.864-1.87-2.794-4.128-2.794-6.788v-12.67c0-2.66.93-4.92 2.79-6.787 1.857-1.868 4.09-2.802 6.69-2.802h3.207v-6.385h6.387v28.637zm-21.784 9.504h-6.336v-22.243c0-.886-.303-1.63-.913-2.236-.605-.608-1.355-.91-2.244-.91-.89 0-1.647.302-2.28.91-.63.607-.95 1.35-.95 2.236v22.243h-6.382v-22.246c0-2.61.93-4.847 2.798-6.714 1.865-1.864 4.128-2.798 6.787-2.798 2.612 0 4.85.934 6.72 2.798 1.865 1.867 2.8 4.104 2.8 6.713v22.246zm-31.504-12.72c-.88 0-1.634.316-2.26.95-.62.637-.935 1.4-.935 2.294s.315 1.65.937 2.258c.625.612 1.38.92 2.26.92.877 0 1.617-.308 2.218-.92.6-.608.902-1.364.902-2.258v-3.244h-3.12zm9.508 3.267c0 2.62-.933 4.868-2.794 6.737-1.863 1.868-4.1 2.806-6.706 2.806-2.608 0-4.855-.94-6.742-2.813-1.886-1.874-2.83-4.12-2.83-6.743 0-2.622.943-4.87 2.824-6.742 1.88-1.873 4.123-2.81 6.728-2.81h3.133v-3.215c0-.88-.302-1.626-.9-2.23-.6-.603-1.337-.907-2.213-.907-.88 0-1.627.3-2.248.906-.626.604-.937 1.342-.937 2.224h-6.388c0-2.61.944-4.85 2.83-6.716 1.887-1.868 4.134-2.802 6.742-2.802 2.607 0 4.843.937 6.706 2.806 1.86 1.87 2.794 4.115 2.794 6.734v12.765" fill="#fff"/>
</svg>
