<svg width="96" height="14" viewBox="0 0 96 14" fill="none" xmlns="http://www.w3.org/2000/svg">
<path fill-rule="evenodd" clip-rule="evenodd" d="M89.9529 6.58074H93.1721H95.6153V8.86882V13.6579H93.1721V12.6811C92.0825 13.472 90.6641 13.9173 88.9865 13.9173C84.4191 13.9173 81.9364 10.665 81.9364 7.03437C81.9364 3.30937 84.5518 0 88.8916 0C92.3785 0 94.7854 2.11827 95.013 4.63288H91.7341C91.5448 3.61189 90.5212 2.64732 88.8728 2.64732C86.4469 2.64732 85.0824 4.72758 85.0824 7.01537C85.0824 9.32246 86.4469 11.327 89.0811 11.327C91.0333 11.327 92.0753 10.2113 92.303 8.86882H89.9529V6.58074ZM72.1378 0.348948L76.959 9.01886V0.348948H80.027V13.658H76.8063L72.0045 5.10236V13.658H68.9174V0.348948H72.1378ZM63.2384 13.658H66.3635V0.349017H63.2384V13.658ZM53.7663 5.99597L58.0731 0.348932H61.7888L56.5103 7.00359L61.7888 13.658H58.0731L53.7663 8.03022V13.658H50.6793V0.348932H53.7663V5.99597ZM41.7028 10.9962H40.0452V3.01088H41.7028C44.1992 3.01088 45.6474 4.95013 45.6474 7.00368C45.6474 9.05693 44.1992 10.9962 41.7028 10.9962ZM41.8555 0.349017H36.9582V13.658H41.8555C46.2955 13.658 48.7917 10.4069 48.7917 7.00368C48.7917 3.6002 46.2762 0.349017 41.8555 0.349017ZM28.3254 0.348932H31.4125V10.9961H35.2045V13.658H28.3254V0.348932ZM19.3868 11.2243C16.9477 11.2243 15.4805 9.18979 15.4805 7.00353C15.4805 4.81698 16.9477 2.78243 19.3868 2.78243C21.807 2.78243 23.2933 4.81698 23.2933 7.00353C23.2933 9.18979 21.807 11.2243 19.3868 11.2243ZM19.3869 0.00665436C14.9472 0.00665436 12.3174 3.35284 12.3174 7.00332C12.3174 10.6538 14.9472 14 19.3869 14C23.8076 14 26.4373 10.6538 26.4373 7.00332C26.4373 3.35284 23.8076 0.00665436 19.3869 0.00665436ZM3.91253 11.3003H5.83737C7.34266 11.3003 7.68574 10.3117 7.68574 9.66537C7.68574 9.03805 7.34266 8.03013 5.85611 8.03013H3.91253V11.3003ZM5.7609 2.6114H3.91253V5.76758H5.7609C7.26649 5.76758 7.60927 4.83625 7.60927 4.17064C7.60927 3.58132 7.32362 2.6114 5.7609 2.6114ZM10.6963 4.03733C10.6963 5.84357 9.49594 6.68019 8.58128 6.92749C9.36264 7.1175 10.8108 7.87812 10.8108 9.87437C10.8108 11.2436 10.1437 13.6579 6.48505 13.6579H0.844727V0.348836H6.37079C10.0294 0.348836 10.6963 2.70669 10.6963 4.03733Z" fill="white"/>
</svg>
