<svg width="87" height="16" viewBox="0 0 87 16" fill="none" xmlns="http://www.w3.org/2000/svg">
<path fill-rule="evenodd" clip-rule="evenodd" d="M49.7286 2.63638H45.7855V0H49.7286V2.63638ZM27.3393 15.7501H31.2817V0.000718061H27.3393V15.7501ZM8.48777 4.52874C9.04301 5.22311 9.32059 6.28895 9.32059 7.7256C9.32059 9.26333 9.02653 10.406 8.44047 11.1529C7.85374 11.901 6.93224 12.2738 5.67476 12.2738H4.75336V3.48848H5.95766C7.08976 3.48848 7.93186 3.83502 8.48777 4.52874ZM11.5047 13.6258C12.9119 12.2101 13.6154 10.1933 13.6154 7.57598C13.6154 5.14371 12.9466 3.28505 11.6097 1.99737C10.2722 0.710353 8.37414 0.0665211 5.91562 0.0665211H0.615295V15.7503H5.56977C8.11955 15.7503 10.0976 15.0421 11.5047 13.6258ZM83.9256 11.4643C82.6741 11.4643 81.6575 12.4802 81.6575 13.7325C81.6575 14.9847 82.6741 16 83.9256 16C85.1779 16 86.1932 14.9847 86.1932 13.7325C86.1932 12.4802 85.1779 11.4643 83.9256 11.4643ZM37.2133 12.1719C36.9514 11.6455 36.8201 10.8796 36.8201 9.8755C36.8201 8.87003 36.9514 8.11462 37.2133 7.60861C37.4758 7.10325 37.9083 6.84924 38.5134 6.84924C39.1323 6.84924 39.5687 7.10456 39.8246 7.61451C40.0799 8.12314 40.2073 8.8766 40.2073 9.8755C40.2073 10.8796 40.0819 11.6455 39.8299 12.1719C39.5779 12.6989 39.1454 12.9621 38.5337 12.9621C37.9154 12.9621 37.4758 12.6989 37.2133 12.1719ZM42.713 14.3508C43.7185 13.2811 44.22 11.7886 44.22 9.8755C44.22 8.65673 43.987 7.5909 43.5197 6.67994C43.0531 5.76768 42.3889 5.06739 41.5285 4.57845C40.6687 4.0895 39.6764 3.84468 38.5547 3.84468C36.7394 3.84468 35.3296 4.373 34.3242 5.42966C33.3188 6.48631 32.8166 7.96827 32.8166 9.8755C32.8166 11.7407 33.3292 13.22 34.355 14.3147C35.3795 15.4095 36.7597 15.9568 38.4937 15.9568C40.3018 15.9568 41.7082 15.4213 42.713 14.3508ZM45.7855 15.7501H49.7286V9.72261V4.05146H45.7855V15.7501ZM57.7171 12.7662C58.2494 12.7662 58.8833 12.6311 59.623 12.3626V15.3061C59.0914 15.5398 58.5861 15.7071 58.1057 15.8062C57.6252 15.9067 57.0614 15.9565 56.4163 15.9565C55.0925 15.9565 54.1382 15.6238 53.5521 14.9596C52.9687 14.2954 52.676 13.2755 52.676 11.8993V7.07672H51.2952V4.05246H52.676V1.06495L56.6493 0.373837V4.05246H59.165V7.07672H56.6493V11.6302C56.6493 12.3876 57.0057 12.7662 57.7171 12.7662ZM68.7489 12.3626C68.0093 12.6311 67.3752 12.7662 66.8429 12.7662C66.1308 12.7662 65.7745 12.3876 65.7745 11.6302V7.07672H68.2914V4.05246H65.7745V0.373837L61.8019 1.01966V4.05246H60.4203V7.07672H61.8019V11.8993C61.8019 13.2755 62.0946 14.2954 62.6793 14.9596C63.2641 15.6238 64.2183 15.9565 65.5421 15.9565C66.1886 15.9565 66.7504 15.9067 67.2314 15.8062C67.7119 15.7071 68.218 15.5398 68.7489 15.3061V12.3626ZM73.7241 8.45027C73.7779 7.80972 73.9611 7.34046 74.2735 7.04052C74.5872 6.74125 74.9744 6.59162 75.4378 6.59162C75.9431 6.59162 76.3447 6.75962 76.6427 7.09827C76.9426 7.43496 77.0989 7.88585 77.1114 8.45027H73.7241ZM79.2843 5.22389C78.3471 4.30506 77.0174 3.84497 75.2973 3.84497C73.4891 3.84497 72.0978 4.37329 71.1226 5.42995C70.1479 6.4866 69.6602 8.00269 69.6602 9.97817C69.6602 11.8913 70.1873 13.3667 71.2387 14.4023C72.2907 15.438 73.768 15.9565 75.6707 15.9565C76.5843 15.9565 77.3706 15.8941 78.0295 15.7701C78.6845 15.6473 79.3185 15.4255 79.9335 15.1052L79.3277 12.4688C78.8808 12.6513 78.4554 12.7917 78.0538 12.8843C77.4736 13.0188 76.8371 13.0864 76.1439 13.0864C75.384 13.0864 74.7841 12.9007 74.3444 12.5292C73.9046 12.1571 73.6703 11.6439 73.6434 10.9902H80.6908V9.19387C80.6908 7.46582 80.2222 6.14206 79.2843 5.22389ZM19.3972 7.04052C19.0848 7.34046 18.9017 7.80972 18.8479 8.45027H22.2358C22.222 7.88585 22.0665 7.43496 21.7666 7.09827C21.4679 6.75962 21.0663 6.59162 20.5623 6.59162C20.0982 6.59162 19.7103 6.74125 19.3972 7.04052ZM20.4211 3.84497C22.1419 3.84497 23.471 4.30506 24.4088 5.22389C25.346 6.14206 25.8146 7.46582 25.8146 9.19387V10.9902H18.7673C18.7942 11.6439 19.0278 12.1571 19.4682 12.5292C19.9079 12.9007 20.5083 13.0864 21.2677 13.0864C21.9608 13.0864 22.5968 13.0188 23.1783 12.8843C23.5792 12.7917 24.0045 12.6513 24.4515 12.4688L25.058 15.1052C24.4423 15.4255 23.8083 15.6473 23.1533 15.7701C22.4943 15.8941 21.7081 15.9565 20.7945 15.9565C18.8919 15.9565 17.4146 15.438 16.3632 14.4023C15.3105 13.3667 14.7841 11.8913 14.7841 9.97817C14.7841 8.00269 15.2723 6.4866 16.2469 5.42995C17.2216 4.37329 18.6123 3.84497 20.4211 3.84497Z" fill="white"/>
</svg>
