<svg width="180" height="31" viewBox="0 0 180 31" fill="none" xmlns="http://www.w3.org/2000/svg">
<g clip-path="url(#clip0)">
<path d="M23.0899 14.1563C24.0356 10.3736 25.5506 7.11293 26.1396 5.9235C26.2754 5.64864 26.1821 5.31488 25.9253 5.148L21.3246 2.17688C21.0677 2.00999 20.7274 2.06399 20.5311 2.29958C19.6852 3.31722 17.3211 6.0233 14.2175 8.42016C8.80366 12.602 4.96541 12.9685 2.5751 12.4138C2.26752 12.3418 1.95666 12.5202 1.86177 12.8212L0.22896 18.001C0.125887 18.3315 0.318945 18.6784 0.652705 18.7684C2.26097 19.1987 3.92978 19.3459 5.64766 19.2085C7.14631 19.089 8.68095 18.7553 10.245 18.2056C11.7993 17.6607 13.3831 16.8983 14.9815 15.9314C15.4151 15.6696 15.9582 16.0247 15.8928 16.5269C15.6572 18.3266 15.5967 20.0282 15.7128 21.6152C15.9697 25.1229 17.079 28.0891 19.0128 30.4418C19.232 30.7085 19.6312 30.7396 19.8881 30.5072L23.9211 26.8653C24.155 26.6543 24.1861 26.3009 23.9963 26.0489C22.5909 24.2002 21.4571 20.6875 23.0899 14.1563Z" fill="black"/>
<path d="M22.6646 11.9576C23.4221 8.13247 24.7751 4.80141 25.3036 3.5858C25.4263 3.3044 25.3167 2.97555 25.0516 2.82175L20.3086 0.0813182C20.0436 -0.0724734 19.7066 -0.00212191 19.5217 0.241654C18.7266 1.3002 16.4982 4.11917 13.5173 6.66654C8.31781 11.1101 4.50083 11.6648 2.08761 11.2296C1.77675 11.1739 1.47571 11.3654 1.39555 11.6713L0.0196023 16.9264C-0.06711 17.2602 0.142308 17.5988 0.480977 17.6725C2.10888 18.0226 3.78259 18.0864 5.49229 17.8655C6.98276 17.6725 8.49941 17.2634 10.0341 16.6385C11.5589 16.0167 13.1033 15.1774 14.6527 14.1336C15.0732 13.8506 15.6327 14.1794 15.5935 14.6833C15.4478 16.4928 15.4708 18.1944 15.6638 19.7748C16.0925 23.2646 17.3473 26.1735 19.3941 28.4281C19.6264 28.6849 20.0256 28.6947 20.271 28.451L24.1191 24.6144C24.3416 24.3918 24.3563 24.0368 24.1534 23.7963C22.6597 22.0146 21.3541 18.5625 22.6646 11.9576Z" fill="#fff"/>
<path d="M42.646 21.7573C42.646 21.9078 42.5511 22.0027 42.4022 22.0027H39.8434C39.6929 22.0027 39.5996 21.9095 39.5996 21.7573V8.90589C39.5996 8.75537 39.6929 8.66211 39.8434 8.66211H42.4022C42.5527 8.66211 42.646 8.75537 42.646 8.90589V21.7573Z" fill="white"/>
<path d="M54.0477 12.7654C53.4653 13.9139 52.7127 14.5913 51.695 14.9856C51.6001 15.0232 51.5625 15.1557 51.695 15.2113C52.7863 15.7005 53.5765 16.4728 54.1606 17.6197L56.3431 21.7213C56.438 21.8898 56.3628 22.0044 56.155 22.0044H53.3524C53.2199 22.0044 53.1266 21.9471 53.071 21.8342L51.5461 18.9171C50.7363 17.3922 49.6074 16.4711 48.5358 16.4711H48.1398V21.7589C48.1398 21.9095 48.0449 22.0044 47.8944 22.0044H45.3356C45.1851 22.0044 45.0918 21.9111 45.0918 21.7589V8.90752C45.0918 8.757 45.1867 8.66375 45.3356 8.66375H47.8944C48.0449 8.66375 48.1398 8.757 48.1398 8.90752V13.8174H48.5161C49.5878 13.8174 50.6807 12.9715 51.4136 11.5776L52.8436 8.83063C52.9008 8.71774 52.9941 8.66211 53.1266 8.66211H55.8736C56.0617 8.66211 56.137 8.775 56.0421 8.94352L54.0477 12.7654Z" fill="white"/>
<path d="M77.0233 17.9567C76.6847 19.2557 76.4016 20.4975 76.1578 21.7769C76.1382 21.9275 76.045 22.0027 75.8944 22.0027H72.4505C72.3 22.0027 72.2067 21.9275 72.1871 21.7769C71.9793 20.6857 71.7731 19.6893 71.5097 18.6537L70.9257 16.2077C70.8128 15.7185 70.6622 14.9283 70.5494 14.269C70.5117 14.0056 70.2859 14.0056 70.2483 14.269C70.1354 14.9283 69.9849 15.6989 69.872 16.2077L69.2879 18.6537C69.0425 19.6877 68.8364 20.6857 68.6106 21.7769C68.5926 21.9275 68.4977 22.0027 68.3472 22.0027H64.9049C64.7544 22.0027 64.6595 21.9275 64.6415 21.7769C64.3977 20.4975 64.1147 19.2557 63.776 17.9567L61.4609 8.92552C61.4053 8.775 61.4986 8.66211 61.6671 8.66211H64.2635C64.4141 8.66211 64.5089 8.73737 64.5466 8.86826L65.826 13.9483C66.1467 15.2277 66.4101 16.8654 66.523 18.0876C66.541 18.333 66.824 18.351 66.8616 18.0876C67.0318 16.8834 67.3328 15.2277 67.6895 13.9483L69.0638 8.86826C69.1014 8.73737 69.1947 8.66211 69.3272 8.66211H71.4721C71.603 8.66211 71.6979 8.73737 71.7355 8.86826L73.1278 13.9483C73.4845 15.2277 73.7872 16.8834 73.9557 18.0876C73.9737 18.351 74.2567 18.333 74.2764 18.0876C74.3712 16.8654 74.6527 15.2277 74.9733 13.9483L76.2527 8.86826C76.2904 8.73737 76.3836 8.66211 76.5358 8.66211H79.1322C79.3008 8.66211 79.3957 8.775 79.3384 8.92552L77.0233 17.9567Z" fill="white"/>
<path d="M84.2502 21.7573C84.2502 21.9078 84.1553 22.0027 84.0048 22.0027H81.4459C81.2954 22.0027 81.2021 21.9095 81.2021 21.7573V8.90589C81.2021 8.75537 81.297 8.66211 81.4459 8.66211H84.0048C84.1553 8.66211 84.2502 8.75537 84.2502 8.90589V21.7573Z" fill="white"/>
<path d="M95.2003 19.3506C95.3508 19.3506 95.4441 19.4455 95.4441 19.596L94.253 21.7606C94.132 21.9291 94.1058 22.0044 93.9553 22.0044H86.9397C86.7892 22.0044 86.6943 21.9111 86.6943 21.7606V8.90752C86.6943 8.757 86.7876 8.66211 86.9397 8.66211H89.4986C89.6491 8.66211 89.7424 8.75537 89.7424 8.90752V19.3506H95.2003Z" fill="white"/>
<path d="M111.339 14.5968C111.489 14.5968 111.582 14.6917 111.582 14.8423V21.0708C111.582 21.2033 111.525 21.2966 111.375 21.3342L109.626 21.879L109.4 21.9543C108.439 22.2553 107.744 22.3502 106.596 22.3502C102.813 22.3502 100.518 19.6965 100.518 15.482C100.518 11.2478 102.813 8.5957 106.596 8.5957C107.631 8.5957 108.402 8.72659 109.38 9.02763L110.359 9.3483C110.529 9.40556 110.566 9.49882 110.509 9.64934L109.437 11.6846C109.349 11.8237 109.287 11.8908 109.136 11.8351L108.533 11.5881C107.913 11.3803 107.348 11.3247 106.596 11.3247C104.714 11.3247 103.585 12.8675 103.585 15.4836C103.585 18.0801 104.714 19.6425 106.596 19.6425C107.273 19.6425 107.932 19.5869 108.477 19.3971L108.685 19.3398V17.2702H106.673C106.504 17.2702 106.427 17.1573 106.465 16.9872L107.657 14.8046C107.741 14.6639 107.788 14.5968 107.921 14.5968H111.339Z" fill="white"/>
<path d="M118.941 14.7463C120.353 14.7463 121.011 14.2195 121.011 13.1086C121.011 12.1106 120.334 11.4709 119.337 11.4709H116.891V14.7447H118.941V14.7463ZM119.336 8.80078C122.328 8.80078 124.077 10.3256 124.077 12.8844C124.077 14.5974 123.005 15.7443 121.857 16.2515C121.594 16.384 121.613 16.4773 121.837 16.6098C122.665 17.1186 123.136 17.9465 123.475 18.6794L124.792 21.86C124.848 22.0285 124.772 22.1414 124.604 22.1414H121.895C121.744 22.1414 121.669 22.0841 121.612 21.9532L120.784 19.9392C120.106 18.3031 119.504 17.3984 117.415 17.3984H116.888V21.896C116.888 22.0465 116.795 22.1398 116.644 22.1398H114.086C113.935 22.1398 113.842 22.0465 113.842 21.896V9.04619C113.842 8.89567 113.937 8.80078 114.086 8.80078H119.336Z" fill="white"/>
<path d="M129.121 15.464C129.121 18.0424 130.232 19.6409 132.056 19.6409C133.881 19.6409 134.974 18.0408 134.974 15.464C134.974 12.8299 133.882 11.3247 132.056 11.3247C130.231 11.3247 129.121 12.8299 129.121 15.464ZM138.04 15.464C138.04 19.6785 135.762 22.3502 132.056 22.3502C128.331 22.3502 126.054 19.6785 126.054 15.464C126.054 11.2298 128.331 8.5957 132.056 8.5957C135.764 8.59734 138.04 11.2314 138.04 15.464Z" fill="white"/>
<path d="M147.768 13.9583C147.918 13.9583 148.013 14.0532 148.013 14.2038V16.3683C148.013 16.5188 147.918 16.6121 147.768 16.6121H143.157V19.4916H149.311C149.461 19.4916 149.556 19.5848 149.556 19.7353V21.8999C149.556 22.0504 149.461 22.1437 149.311 22.1437H140.355C140.204 22.1437 140.109 22.0504 140.109 21.8999V9.04846C140.109 8.89794 140.204 8.80469 140.355 8.80469H149.406C149.576 8.80469 149.651 8.91758 149.613 9.08773L148.588 11.2703C148.516 11.4682 148.455 11.4764 148.324 11.4764H143.159V13.96H147.768V13.9583Z" fill="white"/>
<path d="M154.693 21.8976C154.693 22.0481 154.598 22.1414 154.448 22.1414H151.889C151.738 22.1414 151.644 22.0465 151.644 21.8976V9.04619C151.644 8.89567 151.738 8.80078 151.889 8.80078H154.448C154.598 8.80078 154.693 8.89567 154.693 9.04619V21.8976Z" fill="white"/>
<path d="M164.798 13.9583C164.948 13.9583 165.041 14.0532 165.041 14.2038V16.3683C165.041 16.5188 164.947 16.6121 164.798 16.6121H160.187V19.4916H166.34C166.491 19.4916 166.586 19.5848 166.586 19.7353V21.8999C166.586 22.0504 166.493 22.1437 166.34 22.1437H157.385C157.234 22.1437 157.139 22.0504 157.139 21.8999V9.04846C157.139 8.89794 157.234 8.80469 157.385 8.80469H166.435C166.606 8.80469 166.681 8.91758 166.643 9.08773L165.446 11.2703C165.359 11.4142 165.315 11.4764 165.182 11.4764H160.189V13.96H164.798V13.9583Z" fill="white"/>
<path d="M180 21.8976C180 22.0481 179.905 22.1414 179.756 22.1414H176.407C176.257 22.1414 176.181 22.0858 176.126 21.9532C175.843 21.2955 175.486 20.5789 175.185 19.9589L172.513 14.5402C172.27 14.051 172.062 13.6174 171.836 13.1282C171.686 12.8468 171.497 12.9597 171.515 13.2035C171.686 14.388 171.723 15.2731 171.723 16.6278V21.896C171.723 22.0465 171.628 22.1398 171.479 22.1398H168.921C168.77 22.1398 168.677 22.0449 168.677 21.896V9.04619C168.677 8.89567 168.77 8.80078 168.921 8.80078H172.27C172.42 8.80078 172.495 8.85804 172.551 8.98893C172.852 9.64827 173.21 10.3632 173.51 10.9833L176.201 16.4396C176.427 16.9288 176.633 17.3624 176.878 17.8123C177.011 18.1134 177.217 18.0005 177.179 17.7371C176.991 16.5705 176.972 15.705 176.972 14.3504V9.04619C176.972 8.89567 177.067 8.80078 177.217 8.80078H179.758C179.908 8.80078 180.002 8.89567 180.002 9.04619V21.8976H180Z" fill="white"/>
</g>
<defs>
<clipPath id="clip0">
<rect width="180" height="30.6667" fill="white"/>
</clipPath>
</defs>
</svg>
