<svg width="83" height="28" viewBox="0 0 83 28" fill="none" xmlns="http://www.w3.org/2000/svg">
<path d="M7.34305 23.9273C7.34305 25.9 5.74689 27.4909 3.76766 27.4909C1.78843 27.4909 0.192276 25.9 0.192276 23.9273C0.192276 21.9545 1.78843 20.3636 3.76766 20.3636C5.74689 20.3636 7.34305 21.9545 7.34305 23.9273Z" fill="white"/>
<path d="M19.2815 23.9909C19.2815 25.3909 18.1323 26.5364 16.7277 26.5364C15.3231 26.5364 14.1738 25.3909 14.1738 23.9909C14.1738 22.5909 15.3231 21.4455 16.7277 21.4455C18.1323 21.4455 19.2815 22.5909 19.2815 23.9909Z" fill="white"/>
<path d="M28.5392 23.9909C28.5392 24.6273 28.0285 25.1364 27.39 25.1364C26.7515 25.1364 26.2408 24.6273 26.2408 23.9909C26.2408 23.3545 26.7515 22.8454 27.39 22.8454C28.0285 22.8454 28.5392 23.3545 28.5392 23.9909Z" fill="white"/>
<path d="M16.0256 16.4182C15.3872 16.4182 14.9402 15.9091 14.9402 15.3364V10.6273C14.9402 9.03637 14.1741 7.76364 12.4502 7.76364C10.7264 7.76364 9.64101 9.10001 9.64101 10.6273V15.2727C9.64101 15.9091 9.19409 16.3546 8.55563 16.3546C7.91716 16.3546 7.47024 15.8455 7.47024 15.2727V10.5636C7.47024 8.97273 6.64024 7.70001 4.91639 7.70001C3.1287 7.70001 2.23486 9.03637 2.23486 10.5636V15.2091C2.23486 15.8455 1.78793 16.2909 1.14947 16.2909C0.51101 16.2909 0.0640869 15.7818 0.0640869 15.2091V7.00001C0.0640869 6.36364 0.51101 5.85455 1.14947 5.85455C1.91563 5.85455 2.23486 6.36364 2.23486 7.00001V7.76364C2.87332 6.55455 4.15024 5.79092 5.55486 5.79092C7.21486 5.79092 8.49178 6.61819 9.13024 7.89092C10.0241 6.49092 11.3649 5.79092 13.0249 5.79092C15.8341 5.79092 17.2387 7.76364 17.2387 10.5V15.3364C17.1749 15.9091 16.7279 16.4182 16.0256 16.4182Z" fill="white"/>
<path d="M20.2392 16.4182C19.6008 16.4182 19.1538 15.9091 19.1538 15.3364V7.00001C19.1538 6.36365 19.6008 5.91819 20.2392 5.91819C20.8777 5.91819 21.3246 6.42728 21.3246 7.00001V15.3364C21.3246 15.9091 20.8777 16.4182 20.2392 16.4182ZM20.2392 1.71819C20.9415 1.71819 21.5162 2.29092 21.5162 2.99092C21.5162 3.69092 20.9415 4.26365 20.2392 4.26365C19.5369 4.26365 18.9623 3.69092 18.9623 2.99092C18.9623 2.29092 19.5369 1.71819 20.2392 1.71819Z" fill="white"/>
<path d="M27.5177 9.67271L30.3269 6.23635C30.5185 6.04544 30.7739 5.91817 31.0292 5.91817C31.6677 5.91817 32.0508 6.29999 32.0508 6.87271C32.0508 7.06362 31.9869 7.31817 31.7954 7.50908L28.7308 11.1363L31.8592 14.8273C32.0508 15.0182 32.1146 15.2091 32.1146 15.4636C32.1146 15.9727 31.6677 16.4182 31.1569 16.4182C30.8377 16.4182 30.5823 16.2909 30.3908 16.0364L27.5815 12.5364L24.7723 16.0364C24.5808 16.2909 24.3254 16.4182 24.0062 16.4182C23.4954 16.4182 23.0485 15.9727 23.0485 15.4636C23.0485 15.2091 23.1123 15.0182 23.3038 14.8273L26.4323 11.1363L23.3677 7.50908C23.1762 7.31817 23.1123 7.06362 23.1123 6.87271C23.1123 6.29999 23.4954 5.91817 24.1338 5.91817C24.4531 5.91817 24.6446 6.04544 24.8362 6.23635L27.5177 9.67271Z" fill="white"/>
<path d="M39.0739 7.63638C37.1585 7.63638 35.9454 9.29093 35.9454 11.2C35.9454 13.0455 37.2223 14.7637 39.0739 14.7637C40.9892 14.7637 42.2023 13.3637 42.2023 11.2C42.2023 9.03638 40.9892 7.63638 39.0739 7.63638ZM39.5208 16.5455C37.9246 16.5455 36.6477 15.7182 35.9454 14.5091V19.7273C35.9454 20.3637 35.4985 20.8091 34.86 20.8091C34.2215 20.8091 33.7746 20.3 33.7746 19.7273V7.00002C33.7746 6.36365 34.1577 5.9182 34.7962 5.9182C35.4346 5.9182 35.8815 6.42729 35.8815 7.06365V7.89092C36.5839 6.68183 37.9885 5.85456 39.5208 5.85456C42.2023 5.85456 44.3731 8.08183 44.3731 11.2C44.3731 14.3818 42.2023 16.5455 39.5208 16.5455Z" fill="white"/>
<path d="M50.63 7.70002C48.7785 7.70002 47.4377 9.29092 47.4377 11.2C47.4377 13.2364 48.5231 14.7 50.63 14.7C52.5454 14.7 53.8223 13.0455 53.8223 11.2C53.7585 8.97274 52.4815 7.70002 50.63 7.70002ZM55.9931 15.3364C55.9931 15.9727 55.5462 16.4182 54.9077 16.4182C54.2692 16.4182 53.8223 15.9091 53.8223 15.3364V14.8273C53.1838 15.7818 51.9069 16.5455 50.4385 16.5455C47.1823 16.5455 45.2669 14.1273 45.2669 11.2C45.2669 8.27274 47.3738 5.85456 50.6938 5.85456C54.0777 5.85456 56.0569 8.08183 56.0569 11.2V15.3364H55.9931Z" fill="white"/>
<path d="M62.5692 5.79092C65.3785 5.79092 67.4854 7.95455 67.4854 10.6909V15.3364C67.4854 15.9727 66.9746 16.4182 66.4 16.4182C65.7616 16.4182 65.3146 15.9091 65.3146 15.3364V10.4364C65.3146 8.97273 64.1654 7.82728 62.6331 7.82728C61.1008 7.82728 59.9516 8.97273 59.9516 10.4364V15.3364C59.9516 15.9727 59.4408 16.4182 58.8662 16.4182C58.2277 16.4182 57.7808 15.9091 57.7808 15.3364V10.6909C57.7169 7.95455 59.76 5.79092 62.5692 5.79092Z" fill="white"/>
<path d="M74.0615 7.57273C72.4654 7.57273 71.38 8.71819 71.1246 10.1818H76.8708C76.6792 8.71819 75.6577 7.57273 74.0615 7.57273ZM78.9138 11.2C78.9138 11.5818 78.7223 11.9636 78.0839 11.9636H71.1246C71.2523 13.5546 72.3377 14.7636 74.2531 14.7636C75.4662 14.7636 76.1685 14.3182 76.9346 13.6182C77.1262 13.4273 77.3815 13.2364 77.6369 13.2364C78.1477 13.2364 78.5308 13.6182 78.5308 14.1273C78.5308 14.3818 78.4031 14.5727 78.2754 14.7636C77.3815 15.7818 75.7854 16.4818 74.1254 16.4818C70.6138 16.4818 68.8262 14.0636 68.8262 11.1364C68.8262 8.08183 71.0608 5.79092 74.0615 5.79092C76.9985 5.79092 78.9138 8.2091 78.9138 11.2Z" fill="white"/>
<path d="M81.5315 16.4182C80.8931 16.4182 80.4462 15.9091 80.4462 15.3364V1.5909C80.4462 0.954534 80.8931 0.509079 81.5315 0.509079C82.17 0.509079 82.6169 1.01817 82.6169 1.5909V15.3364C82.6169 15.9091 82.17 16.4182 81.5315 16.4182Z" fill="white"/>
</svg>
