<svg width="50" height="18" viewBox="0 0 50 18" fill="none" xmlns="http://www.w3.org/2000/svg">
<path d="M6.02031 17.7246C4.56031 17.6666 3.36581 17.2671 2.43181 16.5251C2.25356 16.3833 1.82881 15.9583 1.68631 15.7791C1.30756 15.3028 1.05006 14.8393 0.878309 14.3251C0.349809 12.7421 0.621809 10.6648 1.65631 8.38506C2.54206 6.43331 3.90881 4.49757 6.29331 1.81657C6.64456 1.42207 7.69056 0.268311 7.69731 0.268311C7.69981 0.268311 7.64281 0.367062 7.57106 0.487312C6.95106 1.52581 6.42056 2.74906 6.13156 3.80806C5.66731 5.50731 5.72331 6.96556 6.29556 8.09631C6.69031 8.87531 7.36706 9.55007 8.12806 9.92307C9.46031 10.5758 11.4108 10.6298 13.7928 10.0811C13.9568 10.0431 22.0833 7.88581 31.8518 5.28706C41.6203 2.68806 49.6141 0.563314 49.6153 0.565064C49.6181 0.567314 26.9203 10.2798 15.1376 15.3186C13.2716 16.1163 12.7726 16.3178 11.8953 16.6258C9.65281 17.4133 7.64406 17.7891 6.02031 17.7246Z" fill="white"/>
</svg>
