<svg width="99" height="20" viewBox="0 0 99 20" fill="none" xmlns="http://www.w3.org/2000/svg">
<path fill-rule="evenodd" clip-rule="evenodd" d="M0.868774 7.8502C0.842204 7.80774 0.824778 7.76043 0.817563 7.71116C0.810347 7.66188 0.813494 7.61169 0.82681 7.56365C1.35363 5.52534 2.53225 3.70453 4.19113 2.3662C5.48801 1.32264 7.03857 0.624003 8.69273 0.337913C10.3469 0.051824 12.0486 0.187975 13.6331 0.733185C13.6807 0.74983 13.7243 0.775658 13.7613 0.809129C13.7985 0.842599 13.8282 0.883027 13.849 0.928002C13.8875 1.01982 13.8875 1.12275 13.849 1.21456L13.3659 2.47304C13.3338 2.56267 13.2667 2.6362 13.1792 2.67748C13.0917 2.71876 12.9911 2.72443 12.8993 2.69323C11.6552 2.26917 10.3204 2.16559 9.02341 2.39245C7.72643 2.61931 6.51117 3.16897 5.4948 3.98841C4.20682 5.04211 3.29203 6.4663 2.88085 8.05798C2.86043 8.1364 2.81394 8.20598 2.74869 8.2558C2.68343 8.3056 2.6031 8.33283 2.52029 8.3332H2.43636L1.11117 8.02182C1.06231 8.0105 1.01632 7.9896 0.975975 7.96038C0.935634 7.93115 0.901792 7.89422 0.876504 7.85182L0.868774 7.8502ZM20.1039 10.9775C20.0733 10.939 20.035 10.9068 19.9914 10.8831C19.9477 10.8594 19.8996 10.8445 19.8499 10.8393L18.4944 10.7007C18.3983 10.6918 18.3023 10.7195 18.2267 10.7782C18.151 10.8368 18.1015 10.9218 18.0885 11.0153C17.8471 12.8154 16.9651 14.4751 15.5972 15.7033C14.5439 16.6585 13.2374 17.3053 11.8263 17.5701C10.4152 17.8348 8.95649 17.707 7.61624 17.2008C7.57139 17.1837 7.52352 17.1752 7.47534 17.1761C7.42718 17.177 7.37966 17.1872 7.3355 17.206C7.29135 17.2249 7.25143 17.2521 7.21803 17.286C7.18462 17.3199 7.15839 17.36 7.14083 17.4038L6.61241 18.6628C6.59247 18.708 6.58219 18.7566 6.58219 18.8058C6.58219 18.855 6.59247 18.9037 6.61241 18.9489C6.63067 18.995 6.65879 19.0368 6.69487 19.0715C6.73095 19.1062 6.77418 19.133 6.82168 19.1502C7.95453 19.5865 9.16157 19.8097 10.3793 19.808C12.8412 19.8079 15.2123 18.8987 17.0173 17.2624C18.7572 15.6856 19.873 13.5601 20.1691 11.2592C20.176 11.2104 20.1727 11.1607 20.1595 11.1131C20.1462 11.0654 20.1231 11.021 20.0918 10.9824L20.1039 10.9775ZM12.6195 11.4524V12.8085C12.6199 12.857 12.6105 12.9049 12.592 12.9498C12.5735 12.9946 12.546 13.0355 12.5113 13.07C12.4766 13.1044 12.4352 13.1319 12.3897 13.1508C12.3441 13.1696 12.2951 13.1795 12.2456 13.1798H1.16484C1.11534 13.1795 1.0664 13.1696 1.02082 13.1508C0.975229 13.1319 0.933894 13.1044 0.899175 13.07C0.864455 13.0355 0.837033 12.9946 0.818476 12.9498C0.79992 12.9049 0.790593 12.857 0.79103 12.8085V11.4524C0.790434 11.3553 0.829057 11.2618 0.89852 11.1922C0.967983 11.1228 1.06269 11.0828 1.16208 11.0812H12.2456C12.3455 11.0821 12.441 11.1217 12.511 11.1913C12.581 11.2609 12.62 11.3548 12.6195 11.4524ZM8.35569 6.52857V7.88473C8.35479 7.98179 8.39318 8.07526 8.46246 8.1448C8.53175 8.21434 8.62634 8.25431 8.72564 8.25601H19.8081C19.8575 8.25559 19.9065 8.24565 19.9519 8.22676C19.9975 8.20787 20.0387 8.18041 20.0734 8.14593C20.108 8.11145 20.1354 8.07064 20.154 8.02582C20.1725 7.981 20.1818 7.93306 20.1813 7.88473V6.52857C20.179 6.43307 20.1388 6.34219 20.0692 6.2752C19.9995 6.20821 19.9058 6.17037 19.8081 6.1697H8.72398C8.62468 6.1714 8.53009 6.21137 8.46081 6.2809C8.39151 6.35044 8.35314 6.44392 8.35403 6.54098L8.35569 6.52857ZM15.8217 2.20944C16.0107 2.0905 16.2316 2.02898 16.4563 2.03269H16.4557C16.7544 2.03582 17.0396 2.15442 17.249 2.36255C17.4585 2.57068 17.5751 2.85139 17.5733 3.1433V3.16166C17.5695 3.38129 17.4992 3.59491 17.3713 3.7755C17.2433 3.95608 17.0634 4.09552 16.8543 4.17618C16.6453 4.25684 16.4164 4.2751 16.1968 4.22864C15.9771 4.18219 15.7764 4.07311 15.6202 3.91519C15.4639 3.75728 15.3592 3.55763 15.319 3.3415C15.2788 3.12536 15.3052 2.90244 15.3947 2.70094C15.4842 2.49943 15.6328 2.32839 15.8217 2.20944ZM4.12057 15.461C3.89585 15.4573 3.67504 15.5188 3.48609 15.6378C3.29713 15.7567 3.14851 15.9278 3.05902 16.1293C2.96953 16.3307 2.94319 16.5536 2.98333 16.7698C3.02347 16.986 3.12829 17.1856 3.28453 17.3435C3.44077 17.5014 3.64142 17.6105 3.86109 17.657C4.08077 17.7034 4.30961 17.6852 4.51867 17.6045C4.72772 17.5239 4.90761 17.3844 5.03558 17.2038C5.16355 17.0233 5.23386 16.8096 5.2376 16.59V16.5711C5.23893 16.2794 5.12228 15.9991 4.91304 15.7912C4.7038 15.5832 4.41896 15.4645 4.12057 15.461ZM37.8725 9.03965H42.4539C42.3412 7.83133 41.4622 7.08228 40.1491 7.08228C39.5885 7.07337 39.0447 7.26897 38.6238 7.63089C38.2028 7.99282 37.9349 8.4951 37.8725 9.03965ZM35.6037 10.1184C35.6037 7.01968 37.9068 5.16919 40.1315 5.16919L40.1325 5.16973C42.937 5.16973 44.6785 7.05098 44.6785 10.0806C44.6781 10.2394 44.6695 10.3981 44.6526 10.5561C44.6462 10.6284 44.6122 10.6957 44.5574 10.7447C44.5026 10.7937 44.4309 10.8208 44.3566 10.8205H37.809C37.8286 11.4681 38.1086 12.082 38.5884 12.529C39.0681 12.9762 39.7089 13.2203 40.3716 13.2085C40.8898 13.2407 41.4036 13.1001 41.8293 12.8098C42.255 12.5194 42.5672 12.0964 42.7151 11.61C42.742 11.5385 42.7964 11.4801 42.8667 11.4471C42.937 11.4143 43.0176 11.4093 43.0916 11.4336L44.3991 11.8836C44.4368 11.8957 44.4715 11.9154 44.5009 11.9415C44.5303 11.9675 44.5537 11.9992 44.5697 12.0347C44.5848 12.0701 44.5925 12.1081 44.5925 12.1465C44.5925 12.1847 44.5848 12.2227 44.5697 12.2581C44.2742 13.1133 43.7054 13.8531 42.9473 14.3687C42.1891 14.8842 41.2816 15.1481 40.3584 15.1216C39.7419 15.1283 39.1302 15.0151 38.5588 14.7889C37.9874 14.5625 37.4677 14.2275 37.03 13.8032C36.5537 13.3124 36.1823 12.7337 35.9374 12.1011C35.6925 11.4684 35.5791 10.7944 35.6037 10.1184ZM53.2045 9.92359C53.2045 11.569 52.2194 12.6758 50.7578 12.6758C49.2256 12.6758 48.2731 11.6219 48.2731 9.92359C48.2731 8.22526 49.2388 7.16752 50.7578 7.16752C52.2194 7.16752 53.2045 8.2749 53.2045 9.92359ZM54.9912 5.45573H53.4496C53.3702 5.46017 53.2953 5.49317 53.2394 5.54838C53.1834 5.60358 53.1503 5.67707 53.1465 5.75469V6.31486C52.5706 5.63813 51.6595 5.28574 50.4906 5.28574C49.8889 5.27703 49.2923 5.39345 48.7401 5.62726C48.188 5.86106 47.693 6.20692 47.288 6.6419C46.4821 7.5515 46.0494 8.72054 46.0733 9.92359C46.0733 12.5981 47.9313 14.5425 50.4933 14.5425C50.9888 14.5585 51.4818 14.4679 51.9375 14.277C52.3931 14.086 52.8001 13.7996 53.1299 13.4378V14.1712C53.1299 16.0601 52.2934 16.9618 50.4933 16.9618C49.9256 16.9754 49.3731 16.7813 48.9441 16.4175C48.5151 16.0538 48.2405 15.5466 48.1743 14.9953C48.1626 14.9177 48.1198 14.8478 48.0553 14.8011C47.991 14.7543 47.9102 14.7346 47.8308 14.7459C47.8229 14.7469 47.8149 14.7483 47.8071 14.7503L46.3002 15.0962C46.2277 15.1164 46.1648 15.1609 46.1225 15.2218C46.0801 15.2828 46.0609 15.3564 46.0683 15.4297C46.3676 17.4653 48.1864 18.8905 50.4911 18.8905C52.1476 18.8905 53.4115 18.3902 54.242 17.4027C54.9703 16.4607 55.3412 15.3007 55.291 14.121V5.75631C55.2874 5.67926 55.255 5.6062 55.1998 5.55106C55.1445 5.49593 55.0705 5.46257 54.9918 5.45735L54.9912 5.45573ZM66.0923 5.54123C66.6308 5.27148 67.2318 5.14327 67.8362 5.16918L67.8335 5.16702C69.5077 5.16702 71.1979 6.31974 71.1979 8.8367V14.665C71.1941 14.7426 71.1611 14.8161 71.1053 14.8713C71.0494 14.9265 70.9745 14.9595 70.8952 14.964H69.3531C69.2737 14.9594 69.199 14.9264 69.1431 14.8712C69.0873 14.8159 69.0543 14.7426 69.0505 14.665V9.02664C69.0505 8.3127 68.8229 7.11088 67.2769 7.11088C66.1461 7.11088 65.3443 7.97919 65.3443 9.23769V14.665C65.3407 14.7426 65.3077 14.8161 65.2518 14.8713C65.196 14.9265 65.1211 14.9595 65.0418 14.964H63.4808C63.4015 14.9595 63.3266 14.9265 63.2708 14.8713C63.2149 14.8161 63.1819 14.7426 63.1782 14.665V9.02664C63.1782 8.3127 62.9502 7.11088 61.4042 7.11088C60.2291 7.11088 59.4373 7.97271 59.4373 9.25658V14.665C59.4335 14.7426 59.4005 14.8159 59.3446 14.8712C59.2888 14.9264 59.214 14.9594 59.1347 14.964H57.5925C57.5138 14.9588 57.4397 14.9254 57.3846 14.8703C57.3294 14.8151 57.2969 14.7421 57.2932 14.665V5.73421C57.2969 5.65715 57.3294 5.58409 57.3846 5.52895C57.4397 5.47381 57.5138 5.44045 57.5925 5.43523H59.0767C59.1561 5.43969 59.2309 5.47271 59.2868 5.52792C59.3427 5.58314 59.3756 5.65663 59.3793 5.73421V6.27387C59.7094 5.92012 60.1124 5.63876 60.5618 5.44835C61.0113 5.25794 61.4968 5.16279 61.9867 5.16918C62.5494 5.15312 63.1059 5.28802 63.5957 5.55927C64.0855 5.8305 64.49 6.22771 64.7651 6.70775C65.0966 6.21298 65.5539 5.81098 66.0923 5.54123ZM74.9315 9.03965C74.9939 8.49469 75.262 7.99202 75.6834 7.63001C76.1049 7.26802 76.6493 7.0727 77.2103 7.08228C78.5239 7.08228 79.4029 7.83133 79.5156 9.03965H74.9315ZM77.1849 5.16919C74.9608 5.16919 72.6572 7.01968 72.6572 10.1184C72.6318 10.7945 72.7448 11.4687 72.9897 12.1015C73.2346 12.7343 73.6065 13.3129 74.0834 13.8032C74.5205 14.2267 75.0392 14.5614 75.6095 14.7877C76.1797 15.014 76.7903 15.1274 77.4058 15.1216C78.3294 15.1487 79.2374 14.885 79.9961 14.3695C80.7547 13.8539 81.3237 13.1138 81.6193 12.2581C81.6321 12.2218 81.6372 12.1833 81.6345 12.1448C81.6318 12.1065 81.6211 12.0691 81.6033 12.0347C81.5874 11.9991 81.564 11.9673 81.5347 11.9412C81.5052 11.9152 81.4704 11.8956 81.4327 11.8836L80.1257 11.4336C80.0518 11.4102 79.9714 11.4155 79.9014 11.4483C79.8313 11.4812 79.7768 11.539 79.7491 11.61C79.6009 12.0961 79.2885 12.5187 78.863 12.809C78.4373 13.0993 77.9237 13.2401 77.4058 13.2085C76.7446 13.2178 76.1063 12.9726 75.6285 12.5258C75.1508 12.079 74.872 11.4664 74.8526 10.8205H81.4007C81.4747 10.8201 81.546 10.7927 81.6007 10.7439C81.6553 10.6951 81.6895 10.6281 81.6966 10.5561C81.7138 10.3981 81.7225 10.2394 81.7226 10.0806C81.7226 7.05098 79.9811 5.16973 77.1772 5.16973L77.1849 5.16919ZM86.8061 5.4646C87.2666 5.25897 87.7689 5.15797 88.2753 5.16918V5.17187C88.7685 5.15128 89.2601 5.24056 89.7133 5.43296C90.1665 5.62537 90.5681 5.91586 90.8896 6.28249C91.4876 7.05317 91.7927 8.00342 91.7518 8.97003V14.6607C91.7485 14.7377 91.7158 14.8108 91.6602 14.8659C91.6054 14.9211 91.5309 14.9544 91.4524 14.9597H89.8916C89.8123 14.9552 89.737 14.9222 89.6814 14.867C89.6258 14.8118 89.5923 14.7383 89.5882 14.6607V9.27113C89.5882 7.86153 88.9092 7.14432 87.6217 7.14432C87.3411 7.13537 87.0621 7.19108 86.8077 7.30696C86.5533 7.42283 86.33 7.59562 86.1566 7.81135C85.809 8.30134 85.6331 8.88831 85.6552 9.48431V14.665C85.6511 14.7426 85.6184 14.8159 85.5619 14.8712C85.5063 14.9264 85.4319 14.9594 85.3525 14.964H83.7942C83.7149 14.9595 83.6396 14.9265 83.584 14.8713C83.5283 14.8161 83.4956 14.7426 83.4915 14.665V5.72935C83.4956 5.65184 83.5283 5.57849 83.584 5.52332C83.6404 5.46816 83.7149 5.43506 83.7942 5.43037H85.3173C85.3959 5.43582 85.4695 5.46925 85.5243 5.52434C85.5799 5.57944 85.6126 5.65236 85.6159 5.72935V6.35642C85.939 5.97513 86.3456 5.67022 86.8061 5.4646ZM98.5445 7.42818C98.5846 7.42783 98.6239 7.41983 98.6607 7.40465C98.6967 7.38946 98.7302 7.36738 98.758 7.33966C98.7859 7.31195 98.8079 7.27915 98.8227 7.24313C98.8374 7.20711 98.8447 7.16859 98.8447 7.12975V5.75794C98.8447 5.67815 98.8137 5.60129 98.758 5.5429C98.7024 5.48451 98.6263 5.44892 98.5445 5.44332H96.8521V2.85997C96.8521 2.7797 96.821 2.70241 96.7645 2.64393C96.7081 2.58544 96.6312 2.55017 96.5494 2.54536H95.1424C95.0606 2.55004 94.9837 2.58527 94.9273 2.64379C94.8709 2.7023 94.8398 2.77967 94.8398 2.85997V4.22531C94.8398 5.29815 94.0668 5.45573 93.6038 5.45573H93.2234C93.1408 5.46042 93.0639 5.49565 93.0074 5.55416C92.9518 5.61268 92.9207 5.69004 92.9207 5.77035V7.14864C92.9248 7.22612 92.9575 7.29948 93.0132 7.35458C93.0688 7.40969 93.144 7.44264 93.2234 7.44707H94.6884V12.2862C94.6884 14.0077 95.7404 15.0741 97.437 15.0741C97.8394 15.0801 98.2411 15.0292 98.628 14.9229C98.691 14.9046 98.7458 14.8668 98.785 14.8152C98.8243 14.7636 98.8447 14.7011 98.8439 14.637V13.3418C98.8431 13.2992 98.8341 13.2572 98.8161 13.2184C98.7989 13.1794 98.7728 13.1445 98.7409 13.1156C98.7073 13.0876 98.6681 13.0672 98.6263 13.0557C98.5838 13.0443 98.5396 13.0421 98.4963 13.0493C98.3171 13.0756 98.1364 13.0904 97.9548 13.0935C97.1597 13.0935 96.8504 12.7789 96.8504 12.0174V7.42818H98.5445ZM31.4134 9.35426C33.3322 9.73144 34.4299 10.7573 34.4299 12.1858L34.4233 12.1604C34.4233 13.5852 33.0269 15.0962 30.4317 15.0962C27.4214 15.0962 26.242 13.4335 26.021 12.4519C26.014 12.4004 26.0265 12.3483 26.0563 12.3053C26.086 12.2624 26.1309 12.2315 26.1823 12.2188L27.7919 11.726C27.8206 11.7212 27.8499 11.7212 27.8786 11.726C27.9246 11.7249 27.9701 11.7357 28.0105 11.7573C28.0398 11.7709 28.0657 11.7906 28.0863 11.8151C28.1069 11.8395 28.1217 11.8681 28.1298 11.8988C28.3324 12.8426 29.2048 13.406 30.4605 13.406C31.6294 13.406 32.1605 12.8091 32.1605 12.2678C32.1605 11.7266 31.6873 11.3283 30.8729 11.1664L29.0668 10.8232C27.3827 10.5118 26.3336 9.48915 26.3336 8.15835C26.3336 6.5383 28.1138 5.16648 30.2159 5.16648C31.4748 5.16648 32.4918 5.46491 33.2461 6.05314C33.7554 6.44983 34.1328 6.98528 34.3305 7.5917C34.3369 7.6174 34.3381 7.64408 34.334 7.67021C34.3298 7.69634 34.3204 7.72141 34.3063 7.74398C34.2922 7.76654 34.2736 7.78616 34.2517 7.8017C34.2299 7.81725 34.205 7.82841 34.1787 7.83456L32.6177 8.33806C32.5484 8.36504 32.4711 8.36504 32.4018 8.33806C32.3726 8.32476 32.3466 8.30557 32.3254 8.28176C32.3043 8.25796 32.2886 8.23006 32.2793 8.1999C32.1484 7.70558 31.6934 6.87505 30.2159 6.87505C29.1855 6.87505 28.5677 7.4541 28.5677 8.01426C28.5677 8.38827 28.7642 8.86639 29.6946 9.03965L31.4134 9.35426Z" fill="white"/>
</svg>
