<svg width="32" height="136" viewBox="0 0 32 136" fill="none" xmlns="http://www.w3.org/2000/svg">
<path d="M-17.4064 190.016L-17.7068 190.969L-18.6606 190.669L-129.3 155.815L-130.258 155.513L-129.952 154.556L-81.4525 2.90327L-81.1456 1.94386L-80.1885 2.25763L-62.3261 8.11328L-62.3201 8.11519L29.7148 37.1085L30.6686 37.4089L30.3681 38.3627L-17.4064 190.016Z" fill="white" stroke="#E8E8E8" stroke-width="2"/>
<rect x="-77.2255" y="53.7449" width="86" height="24" transform="rotate(17.4857 -77.2255 53.7449)" fill="#E8E8E8"/>
<rect x="-67.6105" y="23.2236" width="86" height="4" transform="rotate(17.4857 -67.6105 23.2236)" fill="#E8E8E8"/>
<rect x="-70.3147" y="31.8079" width="86" height="4" transform="rotate(17.4857 -70.3147 31.8079)" fill="#E8E8E8"/>
<rect x="-73.0189" y="40.3918" width="86" height="4" transform="rotate(17.4857 -73.0189 40.3918)" fill="#E8E8E8"/>
</svg>
