<svg width="88" height="150" viewBox="0 0 88 150" fill="none" xmlns="http://www.w3.org/2000/svg">
<rect x="-59" y="24.2341" width="116" height="159" transform="rotate(-12.0588 -59 24.2341)" fill="#062233"/>
<rect x="-41.4062" y="34.7915" width="86" height="4" transform="rotate(-12.0588 -41.4062 34.7915)" fill="white"/>
<rect x="-39.5259" y="43.593" width="86" height="4" transform="rotate(-12.0588 -39.5259 43.593)" fill="white"/>
<rect x="-37.6457" y="52.3943" width="86" height="4" transform="rotate(-12.0588 -37.6457 52.3943)" fill="white"/>
<rect x="-34.7209" y="66.0854" width="36" height="4" transform="rotate(-12.0588 -34.7209 66.0854)" fill="white"/>
<rect x="-32.8406" y="74.887" width="36" height="4" transform="rotate(-12.0588 -32.8406 74.887)" fill="white"/>
<rect x="-30.9604" y="83.6882" width="36" height="4" transform="rotate(-12.0588 -30.9604 83.6882)" fill="white"/>
<rect x="-28" y="96.9668" width="86" height="4" transform="rotate(-12.0588 -28 96.9668)" fill="white"/>
<rect x="-26.1198" y="105.768" width="86" height="4" transform="rotate(-12.0588 -26.1198 105.768)" fill="white"/>
<rect x="-24.2395" y="114.57" width="86" height="4" transform="rotate(-12.0588 -24.2395 114.57)" fill="white"/>
<rect x="27.5463" y="118.227" width="36" height="4" transform="rotate(-12.0588 27.5463 118.227)" fill="white"/>
<rect x="29.4266" y="127.029" width="36" height="4" transform="rotate(-12.0588 29.4266 127.029)" fill="white"/>
<rect x="31.3068" y="135.83" width="36" height="4" transform="rotate(-12.0588 31.3068 135.83)" fill="white"/>
</svg>
