<svg width="80" height="111" viewBox="0 0 80 111" fill="none" xmlns="http://www.w3.org/2000/svg">
<path d="M52.0925 -69.1798L51.9127 -70.1635L50.929 -69.9836L-63.1798 -49.1229L-64.1635 -48.943L-63.9837 -47.9593L-35.39 108.448L-35.2102 109.432L-34.2265 109.252L58.7328 92.258L59.1784 92.1766L59.411 91.788L76.1545 63.821L76.348 63.4979L76.2803 63.1275L52.0925 -69.1798Z" fill="white" stroke="#E8E8E8" stroke-width="2"/>
<mask id="path-2-outside-1" maskUnits="userSpaceOnUse" x="51.4181" y="61.4721" width="30.6115" height="32.2192" fill="black">
<rect fill="white" x="51.4181" y="61.4721" width="30.6115" height="32.2192"/>
<path d="M59.3884 76.3813C60.2875 81.2998 59.0449 91.1844 59.0449 91.1844C67.4063 89.6558 71.0183 78.8298 74.8946 63.8891C74.8946 63.8891 65.7824 75.2124 59.3884 76.3813Z"/>
</mask>
<path d="M59.3884 76.3813C60.2875 81.2998 59.0449 91.1844 59.0449 91.1844C67.4063 89.6558 71.0183 78.8298 74.8946 63.8891C74.8946 63.8891 65.7824 75.2124 59.3884 76.3813Z" fill="white"/>
<path d="M59.0449 91.1844L57.0605 90.9349L56.7201 93.6426L59.4045 93.1518L59.0449 91.1844ZM59.3884 76.3813L59.0287 74.4139L57.0613 74.7736L57.421 76.741L59.3884 76.3813ZM74.8946 63.8891L76.8305 64.3913C77.0672 63.4791 76.6349 62.5253 75.7928 62.1021C74.9507 61.6788 73.9274 61.9009 73.3365 62.6352L74.8946 63.8891ZM59.0449 91.1844C61.0293 91.4339 61.0293 91.4337 61.0293 91.4335C61.0293 91.4334 61.0294 91.4331 61.0294 91.4328C61.0294 91.4323 61.0295 91.4317 61.0296 91.4309C61.0298 91.4293 61.0301 91.4271 61.0304 91.4243C61.0311 91.4188 61.0321 91.4108 61.0334 91.4006C61.0359 91.3801 61.0396 91.3503 61.0442 91.3118C61.0535 91.2348 61.0668 91.1226 61.0834 90.9788C61.1165 90.6914 61.1625 90.2774 61.2147 89.7662C61.3189 88.7448 61.4486 87.3297 61.5497 85.7555C61.7476 82.6759 61.8546 78.7504 61.3558 76.0216L57.421 76.741C57.8213 78.9307 57.7566 82.4068 57.5579 85.4991C57.4608 87.0109 57.336 88.3743 57.2353 89.36C57.1851 89.8523 57.141 90.249 57.1096 90.5213C57.094 90.6575 57.0815 90.7624 57.073 90.8326C57.0688 90.8676 57.0656 90.894 57.0634 90.9112C57.0624 90.9198 57.0616 90.9262 57.0611 90.9301C57.0608 90.9321 57.0607 90.9335 57.0606 90.9343C57.0605 90.9347 57.0605 90.935 57.0605 90.9351C57.0605 90.9351 57.0605 90.9351 57.0605 90.9351C57.0605 90.935 57.0605 90.9349 59.0449 91.1844ZM59.748 78.3487C61.7675 77.9795 63.8175 76.8598 65.6547 75.5754C67.5263 74.2668 69.3488 72.6638 70.9298 71.1343C72.5163 69.5996 73.8919 68.1075 74.8697 67.0009C75.3594 66.4467 75.7516 65.9867 76.0229 65.6633C76.1585 65.5015 76.2641 65.3738 76.3367 65.2854C76.373 65.2411 76.4011 65.2067 76.4205 65.1828C76.4303 65.1708 76.4379 65.1614 76.4432 65.1548C76.4459 65.1514 76.4481 65.1488 76.4497 65.1468C76.4505 65.1458 76.4511 65.145 76.4516 65.1444C76.4519 65.1441 76.4522 65.1437 76.4523 65.1435C76.4526 65.1432 76.4528 65.143 74.8946 63.8891C73.3365 62.6352 73.3366 62.635 73.3368 62.6349C73.3368 62.6349 73.3368 62.6348 73.3368 62.6348C73.3368 62.6349 73.3366 62.6351 73.3363 62.6355C73.3357 62.6362 73.3345 62.6377 73.3328 62.6398C73.3294 62.644 73.3238 62.6509 73.3161 62.6604C73.3007 62.6794 73.2768 62.7087 73.2448 62.7477C73.1807 62.8257 73.0843 62.9424 72.9584 63.0925C72.7063 63.393 72.3366 63.8267 71.8722 64.3523C70.9416 65.4054 69.6396 66.8171 68.1487 68.2594C66.6524 69.7068 64.998 71.1538 63.3627 72.2971C61.693 73.4645 60.2063 74.1986 59.0287 74.4139L59.748 78.3487ZM72.9587 63.3868C71.0153 70.8774 69.1895 77.1141 66.8704 81.6569C64.5577 86.1868 61.9703 88.6165 58.6852 89.217L59.4045 93.1518C64.4809 92.2238 67.8801 88.4761 70.433 83.4757C72.9792 78.4881 74.8976 71.8415 76.8305 64.3913L72.9587 63.3868Z" fill="#E8E8E8" mask="url(#path-2-outside-1)"/>
<rect x="-34.2175" y="25.8917" width="86" height="4" transform="rotate(-10.3601 -34.2175 25.8917)" fill="#E8E8E8"/>
<rect x="-32.5989" y="34.745" width="86" height="4" transform="rotate(-10.3601 -32.5989 34.745)" fill="#E8E8E8"/>
<rect x="-30.9805" y="43.5983" width="86" height="4" transform="rotate(-10.3601 -30.9805 43.5983)" fill="#E8E8E8"/>
<rect x="20.7221" y="48.3783" width="36" height="4" transform="rotate(-10.3601 20.7221 48.3783)" fill="#E8E8E8"/>
<rect x="22.3406" y="57.2316" width="36" height="4" transform="rotate(-10.3601 22.3406 57.2316)" fill="#E8E8E8"/>
<rect x="23.9591" y="66.0848" width="36" height="4" transform="rotate(-10.3601 23.9591 66.0848)" fill="#E8E8E8"/>
</svg>
