<svg width="216" height="97" viewBox="0 0 216 97" fill="none" xmlns="http://www.w3.org/2000/svg">
<path d="M2.29288 85.7317L1.58578 85.0246L2.29288 84.3175L84.3173 2.29314L85.0271 1.58333L85.7342 2.29584L213.708 131.249L214.419 131.965L213.696 132.669L200.23 145.784L200.226 145.788L131.995 214.019L131.288 214.726L130.58 214.019L2.29288 85.7317Z" fill="white" stroke="#E8E8E8" stroke-width="2"/>
<rect x="150.785" y="95.6313" width="86" height="24" transform="rotate(135 150.785 95.6313)" fill="#E8E8E8"/>
<rect x="99.8738" y="44.7197" width="86" height="24" transform="rotate(135 99.8738 44.7197)" fill="#E8E8E8"/>
<rect x="121.087" y="65.9329" width="86" height="4" transform="rotate(135 121.087 65.9329)" fill="#E8E8E8"/>
<rect x="114.723" y="59.5688" width="86" height="4" transform="rotate(135 114.723 59.5688)" fill="#E8E8E8"/>
<rect x="108.359" y="53.2048" width="86" height="4" transform="rotate(135 108.359 53.2048)" fill="#E8E8E8"/>
</svg>
