<svg width="191" height="124" viewBox="0 0 191 124" fill="none" xmlns="http://www.w3.org/2000/svg">
<path d="M188.216 -7.0657L188.805 -7.8737L187.997 -8.46289L94.2691 -76.808L93.4611 -77.3972L92.8719 -76.5892L14.8053 30.4709L14.6119 30.7361L14.6133 31.0644L14.756 63.9654L14.7582 64.4711L15.1668 64.7691L93.1388 121.625L93.9468 122.214L94.536 121.406L188.216 -7.0657Z" fill="white" stroke="#E8E8E8" stroke-width="2"/>
<mask id="path-2-outside-1" maskUnits="userSpaceOnUse" x="-3.19838" y="29.1831" width="35.6703" height="36.9832" fill="black">
<rect fill="white" x="-3.19838" y="29.1831" width="35.6703" height="36.9832"/>
<path d="M22.4643 49.6696C19.5184 53.7096 14.14 62.7828 14.14 62.7828C7.27198 57.7747 11.733 47.4138 14.7295 32.2721C14.7295 32.2721 17.2123 45.8399 22.4643 49.6696Z"/>
</mask>
<path d="M22.4643 49.6696C19.5184 53.7096 14.14 62.7828 14.14 62.7828C7.27198 57.7747 11.733 47.4138 14.7295 32.2721C14.7295 32.2721 17.2123 45.8399 22.4643 49.6696Z" fill="white"/>
<path d="M14.14 62.7828L15.8604 63.8026L14.7388 65.6947L12.9616 64.3988L14.14 62.7828ZM22.4643 49.6696L23.6427 48.0536L25.2587 49.2319L24.0803 50.8479L22.4643 49.6696ZM14.7295 32.2721L12.7676 31.8838C12.954 30.9418 13.7837 30.2652 14.7439 30.2721C15.7042 30.279 16.524 30.9675 16.6969 31.9121L14.7295 32.2721ZM14.14 62.7828C12.4195 61.7629 12.4196 61.7629 12.4197 61.7627C12.4197 61.7627 12.4198 61.7625 12.4199 61.7624C12.4201 61.762 12.4204 61.7616 12.4207 61.761C12.4214 61.7598 12.4225 61.758 12.4238 61.7557C12.4265 61.7511 12.4305 61.7444 12.4358 61.7355C12.4463 61.7178 12.4619 61.6917 12.4822 61.6575C12.5228 61.5892 12.5826 61.4888 12.6596 61.3598C12.8136 61.1019 13.0365 60.7295 13.3131 60.2702C13.8661 59.3519 14.6345 58.0848 15.4958 56.6902C17.2062 53.9209 19.3243 50.5813 20.8483 48.4912L24.0803 50.8479C22.6584 52.7979 20.6143 56.0149 18.899 58.7921C18.0475 60.1708 17.2872 61.4246 16.7397 62.3337C16.466 62.7882 16.2458 63.1562 16.0941 63.4102C16.0183 63.5372 15.9596 63.6357 15.92 63.7023C15.9003 63.7355 15.8852 63.7608 15.8752 63.7777C15.8702 63.7861 15.8664 63.7925 15.864 63.7966C15.8627 63.7987 15.8618 63.8003 15.8612 63.8013C15.8609 63.8018 15.8607 63.8021 15.8606 63.8024C15.8605 63.8025 15.8605 63.8025 15.8604 63.8026C15.8604 63.8026 15.8604 63.8026 14.14 62.7828ZM21.2859 51.2856C19.6184 50.0696 18.3061 48.1981 17.2777 46.2811C16.2321 44.3321 15.3873 42.1591 14.7281 40.1614C14.0665 38.1563 13.5771 36.2823 13.2532 34.912C13.0909 34.2254 12.9693 33.6617 12.8878 33.267C12.847 33.0695 12.8162 32.9141 12.7953 32.8064C12.7849 32.7526 12.7769 32.7106 12.7714 32.6814C12.7686 32.6667 12.7665 32.6552 12.7649 32.647C12.7642 32.6429 12.7636 32.6396 12.7631 32.6371C12.7629 32.6358 12.7627 32.6348 12.7625 32.634C12.7625 32.6335 12.7624 32.6331 12.7623 32.6329C12.7623 32.6324 12.7622 32.6321 14.7295 32.2721C16.6969 31.9121 16.6968 31.9118 16.6968 31.9116C16.6968 31.9116 16.6967 31.9114 16.6967 31.9114C16.6967 31.9114 16.6968 31.9116 16.6969 31.912C16.697 31.9128 16.6973 31.9145 16.6978 31.9169C16.6986 31.9217 16.7001 31.9297 16.7022 31.9409C16.7064 31.9632 16.713 31.9979 16.7221 32.0444C16.7401 32.1373 16.7678 32.2771 16.8052 32.4581C16.8799 32.8203 16.9934 33.3466 17.1459 33.9918C17.4516 35.2851 17.9111 37.0424 18.5267 38.908C19.1447 40.7809 19.9054 42.718 20.8025 44.3901C21.7166 46.0941 22.6843 47.3547 23.6427 48.0536L21.2859 51.2856ZM16.6915 32.6603C15.9345 36.4855 15.0831 40.0173 14.3564 43.172C13.6229 46.3559 13.0218 49.1339 12.7205 51.5728C12.113 56.489 12.8022 59.332 15.3184 61.1668L12.9616 64.3988C8.60979 61.2255 8.09551 56.384 8.75065 51.0823C9.08059 48.4122 9.72735 45.4479 10.4585 42.2741C11.1964 39.0709 12.0263 35.6295 12.7676 31.8838L16.6915 32.6603Z" fill="#E8E8E8" mask="url(#path-2-outside-1)"/>
<rect x="97.5514" y="-55.8502" width="86" height="24" transform="rotate(36.099 97.5514 -55.8502)" fill="#E8E8E8"/>
<rect x="40.9899" y="21.7178" width="46" height="24" transform="rotate(36.099 40.9899 21.7178)" fill="#E8E8E8"/>
<rect x="78.6976" y="-29.9943" width="86" height="4" transform="rotate(36.099 78.6976 -29.9943)" fill="#E8E8E8"/>
<rect x="73.3949" y="-22.7223" width="86" height="4" transform="rotate(36.099 73.3949 -22.7223)" fill="#E8E8E8"/>
<rect x="68.0923" y="-15.4503" width="86" height="4" transform="rotate(36.099 68.0923 -15.4503)" fill="#E8E8E8"/>
<rect x="59.8438" y="-4.13818" width="86" height="4" transform="rotate(36.099 59.8438 -4.13818)" fill="#E8E8E8"/>
<rect x="54.5411" y="3.13379" width="86" height="4" transform="rotate(36.099 54.5411 3.13379)" fill="#E8E8E8"/>
<rect x="49.2385" y="10.4058" width="86" height="4" transform="rotate(36.099 49.2385 10.4058)" fill="#E8E8E8"/>
</svg>
