<svg width="132" height="144" viewBox="0 0 132 144" fill="none" xmlns="http://www.w3.org/2000/svg">
<path d="M2.01137 160.032L1.86061 161.02L2.84917 161.171L117.523 178.66L118.512 178.811L118.663 177.822L138.639 46.837L138.689 46.5125L138.536 46.2218L123.255 17.0847L123.02 16.6368L122.52 16.5606L27.123 2.0114L26.1344 1.86063L25.9836 2.8492L2.01137 160.032Z" fill="white" stroke="#E8E8E8" stroke-width="2"/>
<mask id="path-2-outside-1" maskUnits="userSpaceOnUse" x="115.751" y="14.7009" width="29.2373" height="33.4263" fill="black">
<rect fill="white" x="115.751" y="14.7009" width="29.2373" height="33.4263"/>
<path d="M126.567 29.8224C127.32 24.8796 123.852 17.7754 123.852 17.7754C130.772 18.8308 135.464 31.1794 137.952 44.7092C137.952 44.7092 132.992 30.8024 126.567 29.8224Z"/>
</mask>
<path d="M126.567 29.8224C127.32 24.8796 123.852 17.7754 123.852 17.7754C130.772 18.8308 135.464 31.1794 137.952 44.7092C137.952 44.7092 132.992 30.8024 126.567 29.8224Z" fill="white"/>
<path d="M123.852 17.7754L122.055 18.6529L120.38 15.2228L124.153 15.7983L123.852 17.7754ZM126.567 29.8224L126.265 31.7996L124.288 31.498L124.589 29.5209L126.567 29.8224ZM137.952 44.7092L139.919 44.3474C140.108 45.3725 139.477 46.3706 138.471 46.6408C137.464 46.911 136.419 46.3628 136.068 45.3811L137.952 44.7092ZM123.852 17.7754C125.649 16.8979 125.649 16.8983 125.649 16.8987C125.65 16.8988 125.65 16.8992 125.65 16.8995C125.65 16.9002 125.651 16.9009 125.651 16.9018C125.652 16.9035 125.653 16.9056 125.654 16.9082C125.657 16.9134 125.66 16.9203 125.664 16.9288C125.672 16.946 125.684 16.9698 125.698 17.0002C125.727 17.0609 125.767 17.1474 125.818 17.2577C125.919 17.478 126.06 17.7934 126.225 18.1856C126.555 18.9681 126.987 20.0661 127.395 21.3309C128.186 23.7794 128.995 27.1673 128.544 30.124L124.589 29.5209C124.892 27.5347 124.344 24.8991 123.589 22.5599C123.224 21.4307 122.836 20.4437 122.539 19.7397C122.391 19.3887 122.267 19.1105 122.181 18.923C122.138 18.8293 122.105 18.7584 122.083 18.7126C122.072 18.6897 122.064 18.6731 122.06 18.6631C122.057 18.658 122.055 18.6547 122.055 18.653C122.054 18.6521 122.054 18.6517 122.054 18.6517C122.054 18.6517 122.054 18.6518 122.054 18.652C122.054 18.6521 122.054 18.6523 122.054 18.6524C122.054 18.6526 122.055 18.6529 123.852 17.7754ZM126.868 27.8453C129.114 28.1879 131.01 29.6087 132.507 31.1849C134.031 32.7906 135.346 34.7746 136.408 36.6459C137.478 38.5294 138.331 40.3697 138.915 41.733C139.208 42.4168 139.436 42.9858 139.591 43.3867C139.669 43.5873 139.729 43.7462 139.77 43.8568C139.791 43.9121 139.806 43.9553 139.817 43.9857C139.823 44.0009 139.827 44.0128 139.83 44.0215C139.832 44.0258 139.833 44.0293 139.834 44.0319C139.835 44.0333 139.835 44.0344 139.835 44.0353C139.835 44.0357 139.836 44.0362 139.836 44.0365C139.836 44.0369 139.836 44.0373 137.952 44.7092C136.068 45.3811 136.069 45.3814 136.069 45.3816C136.069 45.3816 136.069 45.3818 136.069 45.3819C136.069 45.3819 136.069 45.3818 136.069 45.3814C136.068 45.3807 136.068 45.3791 136.067 45.3768C136.065 45.372 136.062 45.364 136.058 45.3529C136.05 45.3305 136.037 45.2956 136.02 45.2488C135.985 45.1551 135.932 45.0143 135.862 44.8327C135.721 44.4693 135.511 43.9442 135.239 43.3089C134.692 42.0341 133.904 40.3364 132.93 38.6207C131.949 36.8928 130.819 35.2164 129.606 33.939C128.365 32.632 127.232 31.947 126.265 31.7996L126.868 27.8453ZM135.985 45.071C134.757 38.391 133.002 32.1138 130.76 27.4275C128.441 22.5814 125.934 20.116 123.55 19.7526L124.153 15.7983C128.69 16.4902 131.988 20.7268 134.368 25.7013C136.824 30.8355 138.659 37.4976 139.919 44.3474L135.985 45.071Z" fill="#E8E8E8" mask="url(#path-2-outside-1)"/>
<g clip-path="url(#clip0)">
<rect x="28.1133" y="61.8447" width="46" height="24" transform="rotate(8.67149 28.1133 61.8447)" fill="#E8E8E8"/>
<rect x="58.61" y="127.19" width="46" height="24" transform="rotate(8.67149 58.61 127.19)" fill="#E8E8E8"/>
<rect x="32.9379" y="30.2104" width="86" height="4" transform="rotate(8.67149 32.9379 30.2104)" fill="#E8E8E8"/>
<rect x="31.581" y="39.1077" width="86" height="4" transform="rotate(8.67149 31.581 39.1077)" fill="#E8E8E8"/>
<rect x="30.2241" y="48.0046" width="86" height="4" transform="rotate(8.67149 30.2241 48.0046)" fill="#E8E8E8"/>
<rect x="23.2887" y="93.4788" width="86" height="4" transform="rotate(8.67149 23.2887 93.4788)" fill="#E8E8E8"/>
<rect x="21.9318" y="102.376" width="86" height="4" transform="rotate(8.67149 21.9318 102.376)" fill="#E8E8E8"/>
<rect x="20.5748" y="111.273" width="86" height="4" transform="rotate(8.67149 20.5748 111.273)" fill="#E8E8E8"/>
</g>
<defs>
<clipPath id="clip0">
<rect width="86" height="120" fill="white" transform="translate(32.9378 30.2102) rotate(8.67149)"/>
</clipPath>
</defs>
</svg>
