<svg width="119" height="85" viewBox="0 0 119 85" fill="none" xmlns="http://www.w3.org/2000/svg">
<path d="M154.466 82.9841L155.439 83.2181L155.673 82.2458L182.816 -30.5338L183.05 -31.5061L182.077 -31.7401L27.4914 -68.9448L26.5192 -69.1788L26.2852 -68.2065L4.17299 23.67L4.06701 24.1103L4.32807 24.4804L23.1171 51.1164L23.3342 51.4241L23.7003 51.5122L154.466 82.9841Z" fill="white" stroke="#E8E8E8" stroke-width="2"/>
<mask id="path-2-outside-1" maskUnits="userSpaceOnUse" x="-2.44517" y="21.114" width="33.3065" height="31.83" fill="black">
<rect fill="white" x="-2.44517" y="21.114" width="33.3065" height="31.83"/>
<path d="M18.2766 30.8083C13.4154 29.6383 4.88112 24.4987 4.88112 24.4987C2.89219 32.7627 11.3276 40.45 23.418 50.0454C23.418 50.0454 16.7557 37.1278 18.2766 30.8083Z"/>
</mask>
<path d="M18.2766 30.8083C13.4154 29.6383 4.88112 24.4987 4.88112 24.4987C2.89219 32.7627 11.3276 40.45 23.418 50.0454C23.418 50.0454 16.7557 37.1278 18.2766 30.8083Z" fill="white"/>
<path d="M4.88112 24.4987L5.91292 22.7854L3.57519 21.3775L2.93664 24.0307L4.88112 24.4987ZM18.2766 30.8083L20.2211 31.2763L20.6891 29.3318L18.7446 28.8638L18.2766 30.8083ZM23.418 50.0454L22.1747 51.612C22.9129 52.1979 23.96 52.1889 24.6881 51.5904C25.4161 50.9918 25.6275 49.9663 25.1955 49.1286L23.418 50.0454ZM4.88112 24.4987C3.84931 26.212 3.84947 26.2121 3.84967 26.2122C3.84977 26.2123 3.85 26.2124 3.85021 26.2125C3.85064 26.2128 3.8512 26.2131 3.85189 26.2135C3.85327 26.2144 3.85516 26.2155 3.85757 26.217C3.86238 26.2198 3.86924 26.224 3.87809 26.2293C3.89581 26.2399 3.92152 26.2552 3.95485 26.2751C4.02152 26.3148 4.11872 26.3724 4.24346 26.4458C4.49287 26.5925 4.8527 26.8022 5.29899 27.0569C6.19066 27.566 7.43199 28.2576 8.8303 28.9877C11.5659 30.4159 15.1117 32.1037 17.8086 32.7528L18.7446 28.8638C16.5803 28.3429 13.4284 26.8759 10.6815 25.4418C9.33861 24.7407 8.14255 24.0744 7.28212 23.5832C6.85237 23.3378 6.50748 23.1368 6.27119 22.9979C6.15307 22.9284 6.06216 22.8745 6.00145 22.8383C5.97109 22.8202 5.94828 22.8066 5.9334 22.7977C5.92597 22.7932 5.92051 22.79 5.91708 22.7879C5.91536 22.7869 5.91416 22.7861 5.91346 22.7857C5.91311 22.7855 5.9129 22.7854 5.91281 22.7853C5.91276 22.7853 5.91279 22.7853 5.91277 22.7853C5.91283 22.7853 5.91292 22.7854 4.88112 24.4987ZM16.3321 30.3403C15.8518 32.3362 16.0452 34.6641 16.4755 36.8641C16.9139 39.1053 17.6414 41.4209 18.3995 43.4859C19.1601 45.558 19.9672 47.42 20.5829 48.7622C20.8913 49.4345 21.1531 49.9793 21.3389 50.3583C21.4318 50.5479 21.5058 50.6962 21.5573 50.7984C21.583 50.8495 21.6031 50.8891 21.6172 50.9166C21.6242 50.9303 21.6297 50.941 21.6336 50.9487C21.6355 50.9525 21.6371 50.9555 21.6382 50.9578C21.6388 50.9589 21.6393 50.9598 21.6397 50.9606C21.6399 50.9609 21.6401 50.9613 21.6402 50.9615C21.6403 50.9619 21.6405 50.9622 23.418 50.0454C25.1955 49.1286 25.1956 49.1288 25.1957 49.129C25.1957 49.129 25.1958 49.1291 25.1957 49.1291C25.1957 49.129 25.1956 49.1288 25.1954 49.1283C25.1949 49.1274 25.1941 49.1258 25.1928 49.1234C25.1903 49.1185 25.1863 49.1106 25.1807 49.0997C25.1696 49.0779 25.1525 49.0442 25.1298 48.9992C25.0844 48.9091 25.0168 48.7736 24.9305 48.5976C24.7579 48.2455 24.5111 47.7318 24.2186 47.0944C23.6327 45.817 22.8693 44.0547 22.1544 42.1075C21.437 40.1532 20.7841 38.0545 20.4011 36.0962C20.01 34.0968 19.941 32.4402 20.2211 31.2763L16.3321 30.3403ZM24.6613 48.4788C18.5998 43.6681 13.6369 39.4728 10.4227 35.5124C7.21763 31.5633 6.04418 28.2135 6.8256 24.9667L2.93664 24.0307C1.72913 29.0479 3.77892 33.6738 7.3169 38.0331C10.8458 42.3812 16.1459 46.8272 22.1747 51.612L24.6613 48.4788Z" fill="#E8E8E8" mask="url(#path-2-outside-1)"/>
<rect x="142.167" y="-26.4387" width="86" height="4" transform="rotate(103.532 142.167 -26.4387)" fill="#E8E8E8"/>
<rect x="128.556" y="-29.7145" width="36" height="4" transform="rotate(103.532 128.556 -29.7145)" fill="#E8E8E8"/>
<rect x="119.806" y="-31.8204" width="36" height="4" transform="rotate(103.532 119.806 -31.8204)" fill="#E8E8E8"/>
<rect x="111.055" y="-33.9264" width="36" height="4" transform="rotate(103.532 111.055 -33.9264)" fill="#E8E8E8"/>
<rect x="97.444" y="-37.2023" width="86" height="4" transform="rotate(103.532 97.444 -37.2023)" fill="#E8E8E8"/>
<rect x="88.6939" y="-39.3082" width="86" height="4" transform="rotate(103.532 88.6939 -39.3082)" fill="#E8E8E8"/>
<rect x="79.9437" y="-41.4142" width="86" height="4" transform="rotate(103.532 79.9437 -41.4142)" fill="#E8E8E8"/>
<rect x="54.6328" y="3.92188" width="36" height="4" transform="rotate(103.532 54.6328 3.92188)" fill="#E8E8E8"/>
<rect x="45.8827" y="1.81592" width="36" height="4" transform="rotate(103.532 45.8827 1.81592)" fill="#E8E8E8"/>
<rect x="37.1325" y="-0.290039" width="36" height="4" transform="rotate(103.532 37.1325 -0.290039)" fill="#E8E8E8"/>
</svg>
