<svg width="69" height="119" viewBox="0 0 69 119" fill="none" xmlns="http://www.w3.org/2000/svg">
<rect x="-23.9999" y="10.7725" width="79.0252" height="108.319" transform="rotate(-7.70263 -23.9999 10.7725)" fill="#062233"/>
<rect x="-9.6731" y="40.4575" width="58.5877" height="16.35" transform="rotate(-7.70263 -9.6731 40.4575)" fill="white"/>
<rect x="-3.09888" y="89.0652" width="58.5877" height="16.35" transform="rotate(-7.70263 -3.09888 89.0652)" fill="white"/>
<rect x="-12.595" y="18.8542" width="58.5877" height="2.72501" transform="rotate(-7.70263 -12.595 18.8542)" fill="white"/>
<rect x="-11.7732" y="24.9302" width="58.5877" height="2.72501" transform="rotate(-7.70263 -11.7732 24.9302)" fill="white"/>
<rect x="-10.9514" y="31.0063" width="58.5877" height="2.72501" transform="rotate(-7.70263 -10.9514 31.0063)" fill="white"/>
<rect x="-5.83813" y="68.812" width="58.5877" height="2.72501" transform="rotate(-7.70263 -5.83813 68.812)" fill="white"/>
<rect x="-5.01636" y="74.8879" width="58.5877" height="2.72501" transform="rotate(-7.70263 -5.01636 74.8879)" fill="white"/>
<rect x="-4.19458" y="80.9641" width="58.5877" height="2.72501" transform="rotate(-7.70263 -4.19458 80.9641)" fill="white"/>
</svg>
