<svg width="104" height="72" viewBox="0 0 104 72" fill="none" xmlns="http://www.w3.org/2000/svg">
<path d="M83.2304 70.0389L83.8928 70.1983L84.0522 69.536L102.543 -7.29543L102.703 -7.95777L102.041 -8.11717L-3.27148 -33.463L-3.93382 -33.6224L-4.09322 -32.96L-19.1572 29.6311L-19.2294 29.931L-19.0516 30.1832L-6.25152 48.3289L-6.10365 48.5386L-5.85424 48.5986L83.2304 70.0389Z" fill="white" stroke="#E8E8E8" stroke-width="1.3625"/>
<rect x="86.7736" y="-1.6355" width="58.5877" height="2.72501" transform="rotate(103.532 86.7736 -1.6355)" fill="#E8E8E8"/>
<rect x="80.8126" y="-3.0708" width="58.5877" height="2.72501" transform="rotate(103.532 80.8126 -3.0708)" fill="#E8E8E8"/>
<rect x="74.8516" y="-4.50562" width="58.5877" height="2.72501" transform="rotate(103.532 74.8516 -4.50562)" fill="#E8E8E8"/>
<rect x="65.5786" y="-6.73657" width="24.5251" height="2.72501" transform="rotate(103.532 65.5786 -6.73657)" fill="#E8E8E8"/>
<rect x="59.6177" y="-8.17188" width="24.5251" height="2.72501" transform="rotate(103.532 59.6177 -8.17188)" fill="#E8E8E8"/>
<rect x="53.6567" y="-9.60669" width="24.5251" height="2.72501" transform="rotate(103.532 53.6567 -9.60669)" fill="#E8E8E8"/>
<rect x="44.3838" y="-11.8379" width="58.5877" height="2.72501" transform="rotate(103.532 44.3838 -11.8379)" fill="#E8E8E8"/>
<rect x="38.4229" y="-13.2729" width="58.5877" height="2.72501" transform="rotate(103.532 38.4229 -13.2729)" fill="#E8E8E8"/>
<rect x="32.4619" y="-14.7078" width="58.5877" height="2.72501" transform="rotate(103.532 32.4619 -14.7078)" fill="#E8E8E8"/>
<rect x="15.2186" y="16.1777" width="24.5251" height="2.72501" transform="rotate(103.532 15.2186 16.1777)" fill="#E8E8E8"/>
<rect x="9.25757" y="14.7429" width="24.5251" height="2.72501" transform="rotate(103.532 9.25757 14.7429)" fill="#E8E8E8"/>
<rect x="3.29663" y="13.3081" width="24.5251" height="2.72501" transform="rotate(103.532 3.29663 13.3081)" fill="#E8E8E8"/>
</svg>
