<svg width="138" height="133" viewBox="0 0 138 133" fill="none" xmlns="http://www.w3.org/2000/svg">
<path d="M2.00323 71.0209L1.49038 71.4694L1.93881 71.9822L53.9566 131.473L54.4051 131.986L54.9179 131.537L136.461 60.237L136.974 59.7885L136.526 59.2757L94.1489 10.8113L93.9458 10.5791L93.6373 10.5785L71.4312 10.5388L71.1747 10.5383L70.9816 10.7072L2.00323 71.0209Z" fill="white" stroke="#E8E8E8" stroke-width="1.3625"/>
<mask id="path-2-outside-1" maskUnits="userSpaceOnUse" x="69.0635" y="-2.25215" width="26.9045" height="26.7154" fill="black">
<rect fill="white" x="69.0635" y="-2.25215" width="26.9045" height="26.7154"/>
<path d="M84.6277 15.8425C87.192 13.6003 93.4094 10.8788 93.4094 10.8788C89.5977 6.51958 82.0028 8.1832 71.9081 11.1277C71.9081 11.1277 81.7129 12.509 84.6277 15.8425Z"/>
</mask>
<path d="M84.6277 15.8425C87.192 13.6003 93.4094 10.8788 93.4094 10.8788C89.5977 6.51958 82.0028 8.1832 71.9081 11.1277C71.9081 11.1277 81.7129 12.509 84.6277 15.8425Z" fill="white"/>
<path d="M93.4094 10.8788L93.9557 12.127L95.6588 11.3815L94.4351 9.98195L93.4094 10.8788ZM84.6277 15.8425L83.602 16.7393L84.4989 17.765L85.5246 16.8682L84.6277 15.8425ZM71.9081 11.1277L71.5266 9.81969C70.9102 9.99948 70.503 10.5852 70.5492 11.2256C70.5953 11.866 71.0823 12.3873 71.7181 12.4769L71.9081 11.1277ZM93.4094 10.8788C92.863 9.63064 92.8629 9.63069 92.8627 9.63075C92.8627 9.63079 92.8625 9.63086 92.8623 9.63093C92.862 9.63107 92.8616 9.63124 92.8611 9.63146C92.8601 9.6319 92.8587 9.63251 92.857 9.63328C92.8535 9.63481 92.8485 9.63701 92.8421 9.63984C92.8292 9.64551 92.8105 9.65376 92.7864 9.66448C92.738 9.68592 92.6677 9.71726 92.5778 9.75773C92.3981 9.83866 92.1399 9.95617 91.8225 10.104C91.1885 10.3993 90.3152 10.8172 89.3588 11.3072C87.4878 12.2659 85.1535 13.5729 83.7309 14.8168L85.5246 16.8682C86.6662 15.87 88.7227 14.6951 90.6015 13.7324C91.52 13.2618 92.3613 12.8592 92.9731 12.5742C93.2787 12.4318 93.5263 12.3192 93.6966 12.2425C93.7817 12.2042 93.8474 12.1749 93.8914 12.1554C93.9135 12.1456 93.93 12.1383 93.9408 12.1335C93.9462 12.1311 93.9502 12.1294 93.9527 12.1283C93.9539 12.1277 93.9548 12.1274 93.9553 12.1271C93.9556 12.127 93.9557 12.127 93.9558 12.1269C93.9558 12.1269 93.9558 12.1269 93.9558 12.1269C93.9558 12.1269 93.9557 12.127 93.4094 10.8788ZM85.6534 14.9456C84.7329 13.8928 83.3624 13.0839 81.9699 12.457C80.5513 11.8184 78.9774 11.3113 77.5308 10.9198C76.0794 10.527 74.7263 10.2427 73.7377 10.0566C73.2425 9.96339 72.8365 9.89443 72.5527 9.84852C72.4107 9.82556 72.2991 9.80834 72.222 9.79672C72.1835 9.79091 72.1536 9.7865 72.1328 9.78347C72.1224 9.78196 72.1142 9.78079 72.1085 9.77996C72.1056 9.77954 72.1033 9.77922 72.1016 9.77897C72.1007 9.77885 72.1 9.77875 72.0994 9.77867C72.0992 9.77863 72.0989 9.77859 72.0987 9.77857C72.0984 9.77853 72.0982 9.7785 71.9081 11.1277C71.7181 12.4769 71.7179 12.4768 71.7178 12.4768C71.7178 12.4768 71.7177 12.4768 71.7178 12.4768C71.7178 12.4768 71.718 12.4769 71.7183 12.4769C71.719 12.477 71.7202 12.4772 71.7221 12.4774C71.7257 12.478 71.7317 12.4788 71.74 12.48C71.7564 12.4824 71.7819 12.4862 71.8159 12.4913C71.8839 12.5015 71.9858 12.5173 72.1176 12.5386C72.3813 12.5812 72.7641 12.6462 73.2337 12.7346C74.1746 12.9117 75.4549 13.181 76.819 13.5502C78.1879 13.9207 79.6118 14.3839 80.8514 14.9419C82.117 15.5116 83.0652 16.1254 83.602 16.7393L85.6534 14.9456ZM72.2897 12.4357C77.3507 10.9595 81.637 9.85183 85.1043 9.62392C88.5617 9.39666 90.8861 10.063 92.3837 11.7757L94.4351 9.98195C92.1209 7.33538 88.7421 6.65392 84.9255 6.90478C81.1188 7.155 76.5603 8.35143 71.5266 9.81969L72.2897 12.4357Z" fill="#E8E8E8" mask="url(#path-2-outside-1)"/>
<rect x="58.4506" y="115.332" width="58.5877" height="2.72501" transform="rotate(-131.166 58.4506 115.332)" fill="#E8E8E8"/>
<rect x="63.0667" y="111.297" width="58.5877" height="2.72501" transform="rotate(-131.166 63.0667 111.297)" fill="#E8E8E8"/>
<rect x="67.6824" y="107.261" width="58.5877" height="2.72501" transform="rotate(-131.166 67.6824 107.261)" fill="#E8E8E8"/>
<rect x="74.8619" y="100.982" width="24.5251" height="2.72501" transform="rotate(-131.166 74.8619 100.982)" fill="#E8E8E8"/>
<rect x="79.4779" y="96.9468" width="24.5251" height="2.72501" transform="rotate(-131.166 79.4779 96.9468)" fill="#E8E8E8"/>
<rect x="84.0936" y="92.9109" width="24.5251" height="2.72501" transform="rotate(-131.166 84.0936 92.9109)" fill="#E8E8E8"/>
<rect x="91.2731" y="86.6326" width="58.5877" height="2.72501" transform="rotate(-131.166 91.2731 86.6326)" fill="#E8E8E8"/>
<rect x="95.8892" y="82.5972" width="58.5877" height="2.72501" transform="rotate(-131.166 95.8892 82.5972)" fill="#E8E8E8"/>
<rect x="100.505" y="78.5613" width="58.5877" height="2.72501" transform="rotate(-131.166 100.505 78.5613)" fill="#E8E8E8"/>
<rect x="85.2633" y="46.6409" width="24.5251" height="2.72501" transform="rotate(-131.166 85.2633 46.6409)" fill="#E8E8E8"/>
<rect x="89.879" y="42.605" width="24.5251" height="2.72501" transform="rotate(-131.166 89.879 42.605)" fill="#E8E8E8"/>
<rect x="94.4947" y="38.5691" width="24.5251" height="2.72501" transform="rotate(-131.166 94.4947 38.5691)" fill="#E8E8E8"/>
</svg>
