<svg width="133" height="139" viewBox="0 0 133 139" fill="none" xmlns="http://www.w3.org/2000/svg">
<path d="M1.48368 84.5925L1.03942 85.109L1.55589 85.5533L61.4659 137.088L61.9824 137.532L62.4266 137.015L121.291 68.5836L121.437 68.4141L121.454 68.1911L123.156 45.8417L123.182 45.4981L122.921 45.2735L73.0819 2.4023L72.5654 1.95804L72.1212 2.4745L1.48368 84.5925Z" fill="white" stroke="#E8E8E8" stroke-width="1.3625"/>
<mask id="path-2-outside-1" maskUnits="userSpaceOnUse" x="108.788" y="42.7494" width="26.5825" height="27.0065" fill="black">
<rect fill="white" x="108.788" y="42.7494" width="26.5825" height="27.0065"/>
<path d="M120.466 54.395C122.687 51.8127 123.251 46.4565 123.251 46.4565C126.866 49.5663 125.114 58.3934 121.663 67.1066C121.663 67.1066 123.823 57.2827 120.466 54.395Z"/>
</mask>
<path d="M120.466 54.395C122.687 51.8127 123.251 46.4565 123.251 46.4565C126.866 49.5663 125.114 58.3934 121.663 67.1066C121.663 67.1066 123.823 57.2827 120.466 54.395Z" fill="white"/>
<path d="M123.251 46.4565L121.896 46.3139L122.168 43.7277L124.14 45.4235L123.251 46.4565ZM120.466 54.395L119.578 55.4279L118.545 54.5394L119.433 53.5065L120.466 54.395ZM121.663 67.1066L122.93 67.6083C122.668 68.2685 121.944 68.6172 121.265 68.4095C120.586 68.2018 120.18 67.5075 120.332 66.814L121.663 67.1066ZM123.251 46.4565C124.606 46.599 124.606 46.5993 124.606 46.5996C124.606 46.5997 124.606 46.6 124.606 46.6002C124.606 46.6007 124.606 46.6013 124.606 46.6019C124.606 46.6032 124.605 46.6048 124.605 46.6068C124.605 46.6107 124.604 46.6158 124.604 46.6223C124.602 46.6352 124.6 46.6531 124.597 46.6758C124.592 46.7212 124.584 46.7859 124.574 46.8678C124.552 47.0315 124.52 47.2645 124.473 47.5508C124.381 48.1219 124.234 48.9121 124.013 49.7901C123.585 51.4899 122.828 53.7388 121.499 55.2835L119.433 53.5065C120.326 52.4688 120.961 50.7485 121.37 49.1246C121.568 48.3407 121.7 47.6305 121.783 47.1166C121.825 46.8604 121.853 46.6548 121.871 46.5155C121.881 46.4459 121.887 46.393 121.891 46.3587C121.893 46.3415 121.894 46.3291 121.895 46.3215C121.896 46.3177 121.896 46.3152 121.896 46.3139C121.896 46.3133 121.896 46.3129 121.896 46.3129C121.896 46.3129 121.896 46.313 121.896 46.3132C121.896 46.3132 121.896 46.3134 121.896 46.3135C121.896 46.3137 121.896 46.3139 123.251 46.4565ZM121.355 53.3621C122.528 54.3715 123.11 55.8772 123.405 57.3282C123.705 58.8064 123.747 60.4272 123.685 61.8918C123.622 63.366 123.45 64.737 123.295 65.7356C123.217 66.2364 123.143 66.6472 123.088 66.935C123.06 67.079 123.037 67.1923 123.021 67.271C123.013 67.3104 123.006 67.3411 123.002 67.3626C122.999 67.3734 122.998 67.3818 122.996 67.3879C122.996 67.391 122.995 67.3935 122.995 67.3953C122.994 67.3963 122.994 67.3971 122.994 67.3977C122.994 67.398 122.994 67.3984 122.994 67.3985C122.994 67.3989 122.994 67.3992 121.663 67.1066C120.332 66.814 120.332 66.8142 120.332 66.8143C120.332 66.8144 120.332 66.8145 120.332 66.8145C120.332 66.8146 120.332 66.8144 120.332 66.8142C120.332 66.8137 120.333 66.8126 120.333 66.8109C120.334 66.8076 120.335 66.8019 120.337 66.794C120.34 66.7782 120.345 66.7533 120.352 66.72C120.366 66.6534 120.386 66.5529 120.411 66.4226C120.461 66.1618 120.53 65.7826 120.602 65.3173C120.747 64.3837 120.905 63.1183 120.962 61.7755C121.02 60.4231 120.973 59.0466 120.734 57.8706C120.49 56.6675 120.083 55.8623 119.578 55.4279L121.355 53.3621ZM120.396 66.6048C122.1 62.3029 123.355 58.0435 123.753 54.5269C124.165 50.8904 123.608 48.5604 122.363 47.4894L124.14 45.4235C126.51 47.4623 126.884 51.1008 126.461 54.8337C126.024 58.6864 124.677 63.1971 122.93 67.6083L120.396 66.6048Z" fill="#E8E8E8" mask="url(#path-2-outside-1)"/>
<g clip-path="url(#clip0)">
<rect x="52.035" y="37.3164" width="31.3376" height="16.35" transform="rotate(40.7019 52.035 37.3164)" fill="#E8E8E8"/>
<rect x="46.038" y="86.0747" width="31.3376" height="16.35" transform="rotate(40.7019 46.038 86.0747)" fill="#E8E8E8"/>
<rect x="66.2515" y="20.7893" width="58.5877" height="2.72501" transform="rotate(40.7019 66.2515 20.7893)" fill="#E8E8E8"/>
<rect x="62.2529" y="25.4375" width="58.5877" height="2.72501" transform="rotate(40.7019 62.2529 25.4375)" fill="#E8E8E8"/>
<rect x="58.2546" y="30.0857" width="58.5877" height="2.72501" transform="rotate(40.7019 58.2546 30.0857)" fill="#E8E8E8"/>
<rect x="37.8187" y="53.843" width="58.5877" height="2.72501" transform="rotate(40.7019 37.8187 53.843)" fill="#E8E8E8"/>
<rect x="33.8204" y="58.4912" width="58.5877" height="2.72501" transform="rotate(40.7019 33.8204 58.4912)" fill="#E8E8E8"/>
<rect x="29.8221" y="63.1392" width="58.5877" height="2.72501" transform="rotate(40.7019 29.8221 63.1392)" fill="#E8E8E8"/>
</g>
<defs>
<clipPath id="clip0">
<rect width="58.5877" height="81.7503" fill="white" transform="translate(66.2515 20.7893) rotate(40.7019)"/>
</clipPath>
</defs>
</svg>
