<svg width="112" height="139" viewBox="0 0 112 139" fill="none" xmlns="http://www.w3.org/2000/svg">
<path d="M128.223 49.1423L128.624 48.5918L128.074 48.1905L64.2212 1.63021L63.6708 1.22883L63.2694 1.77928L10.0863 74.7142L9.95456 74.8949L9.95553 75.1185L10.0527 97.5324L10.0542 97.8769L10.3326 98.0799L63.4512 136.813L64.0017 137.215L64.403 136.664L128.223 49.1423Z" fill="white" stroke="#E8E8E8" stroke-width="1.3625"/>
<mask id="path-2-outside-1" maskUnits="userSpaceOnUse" x="-2.83892" y="73.1008" width="25.3008" height="26.3949" fill="black">
<rect fill="white" x="-2.83892" y="73.1008" width="25.3008" height="26.3949"/>
<path d="M15.304 87.7932C13.2971 90.5455 9.633 96.7266 9.633 96.7266C4.95416 93.3149 7.99323 86.2565 10.0346 75.9412C10.0346 75.9412 11.726 85.1843 15.304 87.7932Z"/>
</mask>
<path d="M15.304 87.7932C13.2971 90.5455 9.633 96.7266 9.633 96.7266C4.95416 93.3149 7.99323 86.2565 10.0346 75.9412C10.0346 75.9412 11.726 85.1843 15.304 87.7932Z" fill="white"/>
<path d="M9.633 96.7266L10.8051 97.4214L10.041 98.7104L8.83024 97.8275L9.633 96.7266ZM15.304 87.7932L16.1067 86.6923L17.2076 87.4951L16.4049 88.596L15.304 87.7932ZM10.0346 75.9412L8.69805 75.6766C8.82505 75.0349 9.39025 74.574 10.0444 74.5787C10.6986 74.5834 11.2571 75.0524 11.3749 75.6959L10.0346 75.9412ZM9.633 96.7266C8.46095 96.0319 8.46098 96.0318 8.46102 96.0317C8.46106 96.0317 8.46111 96.0316 8.46118 96.0315C8.46131 96.0312 8.4615 96.0309 8.46174 96.0305C8.46223 96.0297 8.46294 96.0285 8.46386 96.027C8.46571 96.0238 8.46844 96.0192 8.47202 96.0132C8.47919 96.0011 8.48977 95.9833 8.50362 95.96C8.5313 95.9135 8.57202 95.8451 8.62447 95.7572C8.72937 95.5815 8.88124 95.3278 9.06967 95.0149C9.44641 94.3893 9.96988 93.5262 10.5567 92.5761C11.7219 90.6895 13.1648 88.4143 14.2031 86.9905L16.4049 88.596C15.4362 89.9244 14.0437 92.116 12.8751 94.008C12.295 94.9472 11.7771 95.8014 11.4041 96.4207C11.2176 96.7303 11.0676 96.981 10.9643 97.1541C10.9126 97.2406 10.8726 97.3077 10.8457 97.353C10.8322 97.3757 10.822 97.3929 10.8151 97.4044C10.8117 97.4102 10.8092 97.4145 10.8075 97.4173C10.8066 97.4187 10.806 97.4198 10.8056 97.4205C10.8054 97.4208 10.8053 97.4211 10.8052 97.4212C10.8051 97.4213 10.8051 97.4213 10.8051 97.4214C10.8051 97.4214 10.8051 97.4214 9.633 96.7266ZM14.5012 88.8941C13.3652 88.0658 12.4712 86.7908 11.7706 85.4848C11.0583 84.1571 10.4828 82.6767 10.0337 81.3158C9.58297 79.9498 9.24953 78.6731 9.02886 77.7396C8.91829 77.2719 8.83547 76.8879 8.77994 76.6189C8.75217 76.4844 8.73119 76.3785 8.71695 76.3052C8.70983 76.2685 8.7044 76.2399 8.70064 76.22C8.69876 76.21 8.6973 76.2022 8.69626 76.1966C8.69574 76.1938 8.69532 76.1915 8.69501 76.1898C8.69485 76.189 8.69472 76.1882 8.69462 76.1877C8.69457 76.1874 8.69451 76.1871 8.69448 76.1869C8.69443 76.1867 8.69438 76.1864 10.0346 75.9412C11.3749 75.6959 11.3749 75.6957 11.3748 75.6956C11.3748 75.6956 11.3748 75.6955 11.3748 75.6955C11.3748 75.6955 11.3748 75.6956 11.3749 75.6959C11.375 75.6964 11.3752 75.6975 11.3755 75.6992C11.3761 75.7025 11.3771 75.7079 11.3785 75.7155C11.3814 75.7307 11.3859 75.7544 11.3921 75.786C11.4043 75.8493 11.4232 75.9446 11.4487 76.0679C11.4996 76.3146 11.5769 76.6732 11.6808 77.1127C11.8891 77.9938 12.2021 79.1909 12.6215 80.4619C13.0425 81.7378 13.5607 83.0574 14.1718 84.1966C14.7946 85.3574 15.4538 86.2162 16.1067 86.6923L14.5012 88.8941ZM11.3712 76.2057C10.8555 78.8115 10.2755 81.2176 9.78043 83.3667C9.28076 85.5358 8.87126 87.4283 8.66595 89.0898C8.25209 92.439 8.72162 94.3758 10.4358 95.6257L8.83024 97.8275C5.86555 95.6657 5.51519 92.3675 5.96151 88.7556C6.18628 86.9367 6.62688 84.9172 7.12497 82.755C7.62765 80.5729 8.19305 78.2284 8.69805 75.6766L11.3712 76.2057Z" fill="#E8E8E8" mask="url(#path-2-outside-1)"/>
<rect x="66.4572" y="15.9077" width="58.5877" height="16.35" transform="rotate(36.099 66.4572 15.9077)" fill="#E8E8E8"/>
<rect x="27.9246" y="68.7512" width="31.3376" height="16.35" transform="rotate(36.099 27.9246 68.7512)" fill="#E8E8E8"/>
<rect x="53.613" y="33.5222" width="58.5877" height="2.72501" transform="rotate(36.099 53.613 33.5222)" fill="#E8E8E8"/>
<rect x="50.0006" y="38.4763" width="58.5877" height="2.72501" transform="rotate(36.099 50.0006 38.4763)" fill="#E8E8E8"/>
<rect x="46.3882" y="43.4304" width="58.5877" height="2.72501" transform="rotate(36.099 46.3882 43.4304)" fill="#E8E8E8"/>
<rect x="40.7688" y="51.1367" width="58.5877" height="2.72501" transform="rotate(36.099 40.7688 51.1367)" fill="#E8E8E8"/>
<rect x="37.1564" y="56.0908" width="58.5877" height="2.72501" transform="rotate(36.099 37.1564 56.0908)" fill="#E8E8E8"/>
<rect x="33.5439" y="61.0447" width="58.5877" height="2.72501" transform="rotate(36.099 33.5439 61.0447)" fill="#E8E8E8"/>
</svg>
