<svg width="194" height="310" viewBox="0 0 194 310" fill="none" xmlns="http://www.w3.org/2000/svg">
<g filter="url(#filter0_d)">
<path d="M62 44.2326C62 41.895 63.895 40 66.2326 40H224.089C226.426 40 228.321 41.895 228.321 44.2326V243.95C228.321 246.288 226.426 248.183 224.089 248.183H66.2326C63.895 248.183 62 246.288 62 243.95V44.2326Z" fill="#53D084"/>
<path d="M62.2645 44.2326C62.2645 42.0411 64.0411 40.2645 66.2326 40.2645H224.089C226.28 40.2645 228.057 42.0411 228.057 44.2326V243.95C228.057 246.142 226.28 247.918 224.089 247.918H66.2326C64.0411 247.918 62.2645 246.142 62.2645 243.95V44.2326Z" stroke="#329B5B" stroke-width="0.529069"/>
<path d="M89.2517 86.231L85.3723 93.1162V96.1516H82.4109V93.1162L78.6648 86.231H81.789L83.9509 90.2585L86.0979 86.231H89.2517ZM90.69 87.5192C91.7265 86.5123 92.9949 86.0089 94.4954 86.0089C95.9958 86.0089 97.2593 86.5123 98.2859 87.5192C99.3224 88.5162 99.8407 89.7402 99.8407 91.1913C99.8407 92.6424 99.3224 93.8714 98.2859 94.8782C97.2593 95.8752 95.9958 96.3737 94.4954 96.3737C92.9949 96.3737 91.7265 95.8752 90.69 94.8782C89.6634 93.8714 89.1501 92.6424 89.1501 91.1913C89.1501 89.7402 89.6634 88.5162 90.69 87.5192ZM92.7185 93.0718C93.1924 93.5654 93.7846 93.8121 94.4954 93.8121C95.2061 93.8121 95.7934 93.5654 96.2574 93.0718C96.7312 92.5684 96.9681 91.9415 96.9681 91.1913C96.9681 90.451 96.7312 89.8291 96.2574 89.3256C95.7934 88.8222 95.2061 88.5705 94.4954 88.5705C93.7846 88.5705 93.1924 88.8222 92.7185 89.3256C92.2546 89.8291 92.0226 90.451 92.0226 91.1913C92.0226 91.9415 92.2546 92.5684 92.7185 93.0718ZM110.461 86.231V91.6651C110.461 93.0965 110.046 94.2415 109.217 95.1003C108.398 95.9493 107.307 96.3737 105.944 96.3737C104.543 96.3737 103.417 95.9493 102.569 95.1003C101.72 94.2514 101.295 93.1063 101.295 91.6651V86.231H104.153V91.6651C104.153 92.3364 104.316 92.8596 104.641 93.2347C104.967 93.6098 105.402 93.7973 105.944 93.7973C106.448 93.7973 106.848 93.6098 107.144 93.2347C107.45 92.8497 107.603 92.3265 107.603 91.6651V86.231H110.461ZM127.556 86.231V96.1516H124.772V91.6651L122.566 96.1516H120.715L118.509 91.6948V96.1516H115.725V86.231H118.731L121.633 91.6503L124.55 86.231H127.556ZM133.369 88.6741V93.7085H135.042V96.1516H128.838V93.7085H130.511V88.6741H128.838V86.231H135.042V88.6741H133.369ZM141.012 90.2289H146.535C146.575 90.7619 146.595 91.0877 146.595 91.2061C146.595 92.7263 146.101 93.9701 145.114 94.9375C144.137 95.895 142.878 96.3737 141.338 96.3737C139.818 96.3737 138.535 95.8752 137.488 94.8782C136.452 93.8714 135.934 92.6424 135.934 91.1913C135.934 89.7402 136.452 88.5162 137.488 87.5192C138.535 86.5123 139.813 86.0089 141.323 86.0089C142.498 86.0089 143.53 86.2705 144.418 86.7937C145.306 87.3168 145.914 88.0473 146.239 88.9851L143.352 89.7106C142.957 88.9505 142.281 88.5705 141.323 88.5705C140.593 88.5705 139.991 88.8222 139.517 89.3256C139.043 89.8192 138.806 90.4411 138.806 91.1913C138.806 91.9415 139.048 92.5684 139.532 93.0718C140.015 93.5654 140.627 93.8121 141.368 93.8121C142.424 93.8121 143.154 93.3976 143.559 92.5684H141.012V90.2289ZM157.363 86.231V96.1516H154.506V92.3759H150.878V96.1516H148.035V86.231H150.878V89.9327H154.506V86.231H157.363ZM167.708 88.6741H164.599V96.1516H161.741V88.6741H158.632V86.231H167.708V88.6741ZM180.087 93.7085V96.1516H172.565V86.231H175.408V93.7085H180.087ZM185.596 88.6741V93.7085H187.269V96.1516H181.065V93.7085H182.738V88.6741H181.065V86.231H187.269V88.6741H185.596ZM198.596 96.1516H195.161L192.866 92.7312L191.4 94.4933V96.1516H188.557V86.231H191.4V90.5102L195.013 86.231H198.241L194.717 90.4954L198.596 96.1516ZM207.374 93.7529V96.1516H199.482V86.231H207.314V88.6297H202.324V90.0956H206.915V92.2722H202.324V93.7529H207.374ZM87.9932 106.674H84.8837V114.152H82.026V106.674H78.9165V104.231H87.9932V106.674ZM98.6145 104.231V114.152H95.7567V110.376H92.129V114.152H89.2861V104.231H92.129V107.933H95.7567V104.231H98.6145ZM104.414 106.674V111.708H106.087V114.152H99.8828V111.708H101.556V106.674H99.8828V104.231H106.087V106.674H104.414ZM111.506 104.009C112.681 104.009 113.643 104.261 114.393 104.764C115.144 105.267 115.608 105.978 115.785 106.896L113.001 107.459C112.913 107.025 112.725 106.709 112.439 106.511C112.153 106.314 111.842 106.215 111.506 106.215C111.19 106.215 110.933 106.289 110.736 106.437C110.548 106.575 110.455 106.768 110.455 107.015C110.455 107.35 110.647 107.563 111.032 107.651L113.046 108.125C114.931 108.599 115.874 109.581 115.874 111.072C115.874 111.812 115.657 112.439 115.223 112.952C114.798 113.466 114.28 113.831 113.668 114.048C113.056 114.265 112.385 114.374 111.654 114.374C110.43 114.374 109.403 114.097 108.574 113.545C107.745 112.992 107.261 112.246 107.123 111.309L110.025 110.761C110.252 111.639 110.815 112.079 111.713 112.079C112.059 112.079 112.34 112.01 112.557 111.871C112.774 111.733 112.883 111.536 112.883 111.279C112.883 110.943 112.656 110.721 112.202 110.613L110.144 110.124C108.327 109.7 107.419 108.742 107.419 107.252C107.419 106.235 107.799 105.44 108.559 104.868C109.32 104.295 110.302 104.009 111.506 104.009ZM125.011 106.674V111.708H126.684V114.152H120.48V111.708H122.153V106.674H120.48V104.231H126.684V106.674H125.011ZM136.649 106.674H133.54V114.152H130.682V106.674H127.572V104.231H136.649V106.674ZM145.834 111.753V114.152H137.942V104.231H145.775V106.63H140.785V108.096H145.375V110.272H140.785V111.753H145.834ZM159.207 104.231V114.152H156.424V109.665L154.218 114.152H152.367L150.16 109.695V114.152H147.377V104.231H150.383L153.285 109.65L156.202 104.231H159.207ZM165.02 104.009C166.195 104.009 167.157 104.261 167.908 104.764C168.658 105.267 169.122 105.978 169.3 106.896L166.516 107.459C166.427 107.025 166.239 106.709 165.953 106.511C165.667 106.314 165.356 106.215 165.02 106.215C164.704 106.215 164.448 106.289 164.25 106.437C164.063 106.575 163.969 106.768 163.969 107.015C163.969 107.35 164.162 107.563 164.547 107.651L166.56 108.125C168.446 108.599 169.388 109.581 169.388 111.072C169.388 111.812 169.171 112.439 168.737 112.952C168.312 113.466 167.794 113.831 167.182 114.048C166.57 114.265 165.899 114.374 165.168 114.374C163.944 114.374 162.918 114.097 162.089 113.545C161.259 112.992 160.776 112.246 160.638 111.309L163.54 110.761C163.767 111.639 164.329 112.079 165.228 112.079C165.573 112.079 165.854 112.01 166.072 111.871C166.289 111.733 166.397 111.536 166.397 111.279C166.397 110.943 166.17 110.721 165.716 110.613L163.658 110.124C161.842 109.7 160.934 108.742 160.934 107.252C160.934 106.235 161.314 105.44 162.074 104.868C162.834 104.295 163.816 104.009 165.02 104.009Z" fill="white"/>
<rect width="40.3362" height="8.55274" rx="0.846111" transform="matrix(1 0 0 -1 78.6204 56.9222)" fill="#329B5B"/>
<rect width="92.5616" height="5.70182" rx="0.846111" transform="matrix(1 0 0 -1 78.6213 135.1)" fill="#329B5B"/>
<rect width="83.4131" height="5.70184" rx="0.846111" transform="matrix(1 0 0 -1 78.6213 143.653)" fill="#329B5B"/>
<rect width="57.9407" height="5.70181" rx="0.846111" transform="matrix(1 0 0 -1 78.6213 152.206)" fill="#329B5B"/>
<rect width="41.3955" height="58.3972" rx="0.846111" transform="matrix(1 0 0 -1 77.5234 224.801)" fill="#329B5B"/>
<rect width="41.3955" height="58.3972" rx="0.846111" transform="matrix(1 0 0 -1 124.093 224.801)" fill="#329B5B"/>
<rect width="41.3955" height="58.3972" rx="0.846111" transform="matrix(1 0 0 -1 171.403 224.801)" fill="#329B5B"/>
</g>
<defs>
<filter id="filter0_d" x="0.593018" y="0.922829" width="266.805" height="308.667" filterUnits="userSpaceOnUse" color-interpolation-filters="sRGB">
<feFlood flood-opacity="0" result="BackgroundImageFix"/>
<feColorMatrix in="SourceAlpha" type="matrix" values="0 0 0 0 0 0 0 0 0 0 0 0 0 0 0 0 0 0 127 0"/>
<feOffset dx="-11.1649" dy="11.1649"/>
<feGaussianBlur stdDeviation="25.121"/>
<feColorMatrix type="matrix" values="0 0 0 0 0 0 0 0 0 0 0 0 0 0 0 0 0 0 0.25 0"/>
<feBlend mode="normal" in2="BackgroundImageFix" result="effect1_dropShadow"/>
<feBlend mode="normal" in="SourceGraphic" in2="effect1_dropShadow" result="shape"/>
</filter>
<filter id="filter1_b" x="30.2558" y="8.25584" width="229.81" height="271.671" filterUnits="userSpaceOnUse" color-interpolation-filters="sRGB">
<feFlood flood-opacity="0" result="BackgroundImageFix"/>
<feGaussianBlur in="BackgroundImage" stdDeviation="15.8721"/>
<feComposite in2="SourceAlpha" operator="in" result="effect1_backgroundBlur"/>
<feBlend mode="normal" in="SourceGraphic" in2="effect1_backgroundBlur" result="shape"/>
</filter>
</defs>
</svg>
