<svg width="163" height="265" viewBox="0 0 163 265" fill="none" xmlns="http://www.w3.org/2000/svg">
<g clip-path="url(#clip0)">
<path d="M15.3262 1.23691L6.4289 11.1822C5.4548 12.2711 4.91626 13.6808 4.91626 15.1418V252.363C4.91626 257.283 8.90443 261.271 13.8241 261.271H146.229C148.545 261.271 150.769 260.369 152.431 258.757L161.097 250.351C161.673 249.792 161.999 249.023 161.999 248.22V2.96928C161.999 1.32939 160.669 0 159.029 0H18.0924C17.0363 0 16.0303 0.449854 15.3262 1.23691Z" fill="#D5DFE9"/>
<path d="M14.5913 5.93858C14.5913 2.6588 17.2501 0 20.5299 0H156.29C159.57 0 162.229 2.65879 162.229 5.93857V246.761C162.229 250.041 159.57 252.699 156.29 252.699H20.5299C17.2501 252.699 14.5913 250.041 14.5913 246.761V5.93858Z" fill="#F8FAFD"/>
<rect x="25.3013" y="9.94476" width="126.222" height="88.7378" fill="#E6EFFA"/>
<path d="M128.673 30.0734H125.6L125.051 28.559H121.131L120.567 30.0734H117.509L121.517 20.1263H124.665L128.673 30.0734ZM124.19 26.1688L123.106 23.1846L122.007 26.1688H124.19ZM129.37 20.1263H133.572C135.195 20.1263 136.502 20.5865 137.491 21.507C138.491 22.4176 138.991 23.6152 138.991 25.0998C138.991 26.5845 138.491 27.787 137.491 28.7075C136.502 29.6181 135.195 30.0734 133.572 30.0734H129.37V20.1263ZM132.221 27.6683H133.364C134.186 27.6683 134.849 27.4307 135.353 26.9556C135.858 26.4805 136.111 25.8619 136.111 25.0998C136.111 24.3377 135.858 23.7191 135.353 23.244C134.849 22.7689 134.186 22.5314 133.364 22.5314H132.221V27.6683Z" fill="#80B0C8"/>
<rect x="25.3013" y="109.392" width="48.3647" height="13.6508" fill="#E6EFFA"/>
<rect x="25.301" y="128.503" width="62.1832" height="6.82542" fill="#E6EFFA"/>
<path d="M31.066 146.6V157.542H27.9795V150.226L25.4481 151.516V148.625L29.041 146.6H31.066ZM36.0666 150.406H37.4385C38.7123 150.406 39.6921 150.721 40.378 151.353C41.064 151.984 41.4069 152.85 41.4069 153.949C41.4069 155.093 41.015 156.018 40.2311 156.726C39.4472 157.433 38.4183 157.787 37.1445 157.787C35.9251 157.787 34.9017 157.461 34.0743 156.807C33.2468 156.143 32.8004 155.223 32.7351 154.047L35.7074 153.492C35.7183 154.08 35.8652 154.51 36.1483 154.782C36.4314 155.054 36.7743 155.191 37.1772 155.191C37.5691 155.191 37.8848 155.082 38.1244 154.864C38.3639 154.646 38.4836 154.352 38.4836 153.982C38.4836 153.645 38.3584 153.372 38.108 153.165C37.8576 152.948 37.5256 152.839 37.1118 152.839H33.2414L33.4863 146.584H40.9496V149.262H36.1156L36.0666 150.406ZM50.7814 152.872L53.819 153.476C53.6339 154.76 53.1005 155.8 52.2186 156.595C51.3476 157.39 50.2643 157.787 48.9687 157.787C47.7929 157.787 46.7858 157.45 45.9474 156.775C45.12 156.1 44.5484 155.174 44.2327 153.998H42.8282V152.431H44.0041V152.071V151.712H42.8282V150.161H44.2327C44.5375 148.985 45.1091 148.059 45.9474 147.384C46.7858 146.698 47.7929 146.355 48.9687 146.355C50.2534 146.355 51.3258 146.747 52.1859 147.531C53.046 148.315 53.5849 149.344 53.8027 150.618L50.7814 151.189C50.531 149.731 49.9268 149.001 48.9687 149.001C48.2828 149.001 47.7711 149.388 47.4336 150.161H49.8342L49.524 151.712H47.1233L47.107 152.071C47.107 152.235 47.1124 152.354 47.1233 152.431H49.4096L49.0993 153.998H47.4336C47.7711 154.76 48.2828 155.142 48.9687 155.142C49.905 155.142 50.5093 154.385 50.7814 152.872Z" fill="#305EED"/>
<rect x="29.0298" y="206.365" width="113.575" height="23.7543" rx="11.8771" fill="#305EED"/>
</g>
<defs>
<clipPath id="clip0">
<rect width="161.411" height="264.684" fill="white" transform="translate(0.821777)"/>
</clipPath>
</defs>
</svg>
