<svg width="1024" height="768" viewBox="0 0 680 420" fill="none" xmlns="http://www.w3.org/2000/svg">
<g transform="matrix(0.69, -0.34, 0.63, 0.39, -60, 150)">
<path d="M0 178.85C0 172.305 5.30529 167 11.8497 167H322.099C328.643 167 333.948 172.305 333.948 178.85V573.15C333.948 579.695 328.643 585 322.099 585H11.8497C5.3053 585 0 579.695 0 573.15V178.85Z" fill="#F8FAFD"/>
<path d="M84.7687 259.723H95.085C97.2851 259.723 99.049 260.367 100.377 261.656C101.705 262.944 102.369 264.639 102.369 266.739C102.369 268.92 101.665 270.674 100.258 272.002C98.8707 273.31 97.0076 273.964 94.6688 273.964H90.4768V279.642H84.7687V259.723ZM90.4768 269.445H93.985C94.7778 269.445 95.4319 269.207 95.9472 268.731C96.4823 268.256 96.7499 267.641 96.7499 266.888C96.7499 266.175 96.4823 265.59 95.9472 265.134C95.4319 264.678 94.7778 264.45 93.985 264.45H90.4768V269.445ZM120.952 274.826V279.642H105.106V259.723H120.833V264.539H110.814V267.483H120.03V271.853H110.814V274.826H120.952ZM142.869 279.642H136.001L130.531 273.28H129.758V279.642H124.05V259.723H134.663C136.804 259.723 138.528 260.338 139.836 261.566C141.164 262.795 141.828 264.411 141.828 266.412C141.828 267.998 141.402 269.366 140.55 270.515C139.698 271.645 138.528 272.438 137.042 272.894L142.869 279.642ZM129.758 268.761H133.593C134.386 268.761 135.02 268.563 135.496 268.166C135.971 267.75 136.209 267.215 136.209 266.561C136.209 265.927 135.971 265.421 135.496 265.045C135.02 264.648 134.386 264.45 133.593 264.45H129.758V268.761ZM152.885 259.277C155.243 259.277 157.176 259.783 158.682 260.793C160.189 261.804 161.12 263.231 161.477 265.075L155.888 266.204C155.709 265.332 155.333 264.698 154.758 264.302C154.183 263.905 153.559 263.707 152.885 263.707C152.251 263.707 151.735 263.856 151.339 264.153C150.962 264.43 150.774 264.817 150.774 265.312C150.774 265.986 151.16 266.412 151.933 266.591L155.977 267.542C159.762 268.494 161.655 270.466 161.655 273.458C161.655 274.945 161.219 276.204 160.347 277.234C159.495 278.265 158.454 278.998 157.225 279.434C155.997 279.87 154.649 280.088 153.182 280.088C150.724 280.088 148.663 279.533 146.998 278.423C145.333 277.313 144.362 275.817 144.085 273.934L149.912 272.834C150.368 274.598 151.497 275.48 153.301 275.48C153.995 275.48 154.56 275.341 154.996 275.064C155.432 274.786 155.65 274.39 155.65 273.875C155.65 273.201 155.194 272.755 154.282 272.537L150.15 271.556C146.503 270.703 144.679 268.781 144.679 265.788C144.679 263.747 145.442 262.151 146.969 261.002C148.495 259.852 150.467 259.277 152.885 259.277ZM166.875 262.31C168.956 260.288 171.503 259.277 174.516 259.277C177.529 259.277 180.065 260.288 182.127 262.31C184.208 264.311 185.248 266.769 185.248 269.683C185.248 272.596 184.208 275.064 182.127 277.086C180.065 279.087 177.529 280.088 174.516 280.088C171.503 280.088 168.956 279.087 166.875 277.086C164.814 275.064 163.783 272.596 163.783 269.683C163.783 266.769 164.814 264.311 166.875 262.31ZM170.948 273.458C171.9 274.449 173.089 274.945 174.516 274.945C175.943 274.945 177.122 274.449 178.054 273.458C179.005 272.448 179.481 271.189 179.481 269.683C179.481 268.196 179.005 266.948 178.054 265.937C177.122 264.926 175.943 264.42 174.516 264.42C173.089 264.42 171.9 264.926 170.948 265.937C170.017 266.948 169.551 268.196 169.551 269.683C169.551 271.189 170.017 272.448 170.948 273.458ZM207.731 259.723V279.642H203.004L193.847 269.385V279.642H188.139V259.723H192.836L201.993 270.337V259.723H207.731ZM231.991 279.642H225.837L224.737 276.61H216.888L215.758 279.642H209.634L217.661 259.723H223.964L231.991 279.642ZM223.012 271.823L220.842 265.848L218.642 271.823H223.012ZM249.084 274.737V279.642H233.982V259.723H239.69V274.737H249.084ZM94.7265 295.723H103.14C106.391 295.723 109.007 296.645 110.989 298.488C112.991 300.311 113.992 302.71 113.992 305.683C113.992 308.656 112.991 311.064 110.989 312.907C109.007 314.731 106.391 315.642 103.14 315.642H94.7265V295.723ZM100.435 310.826H102.724C104.369 310.826 105.697 310.35 106.708 309.399C107.719 308.448 108.224 307.209 108.224 305.683C108.224 304.157 107.719 302.918 106.708 301.966C105.697 301.015 104.369 300.539 102.724 300.539H100.435V310.826ZM124.868 300.629V310.737H128.228V315.642H115.771V310.737H119.13V300.629H115.771V295.723H128.228V300.629H124.868ZM139.109 295.277C141.467 295.277 143.4 295.783 144.906 296.793C146.412 297.804 147.344 299.231 147.701 301.075L142.111 302.204C141.933 301.332 141.556 300.698 140.982 300.302C140.407 299.905 139.782 299.707 139.109 299.707C138.474 299.707 137.959 299.856 137.563 300.153C137.186 300.43 136.998 300.817 136.998 301.312C136.998 301.986 137.384 302.412 138.157 302.591L142.2 303.542C145.986 304.494 147.879 306.466 147.879 309.458C147.879 310.945 147.443 312.204 146.571 313.234C145.719 314.265 144.678 314.998 143.449 315.434C142.22 315.87 140.873 316.088 139.406 316.088C136.948 316.088 134.887 315.533 133.222 314.423C131.557 313.313 130.586 311.817 130.308 309.934L136.136 308.834C136.591 310.598 137.721 311.48 139.525 311.48C140.218 311.48 140.783 311.341 141.219 311.064C141.655 310.786 141.873 310.39 141.873 309.875C141.873 309.201 141.418 308.755 140.506 308.537L136.373 307.556C132.726 306.703 130.903 304.781 130.903 301.788C130.903 299.747 131.666 298.151 133.192 297.002C134.718 295.852 136.69 295.277 139.109 295.277ZM160.74 310.945C161.909 310.945 162.88 310.608 163.653 309.934C164.446 309.26 164.981 308.269 165.259 306.961L170.967 308.269C170.531 310.687 169.391 312.6 167.548 314.007C165.724 315.395 163.455 316.088 160.74 316.088C157.727 316.088 155.18 315.087 153.099 313.086C151.038 311.064 150.007 308.596 150.007 305.683C150.007 302.769 151.038 300.311 153.099 298.31C155.18 296.288 157.727 295.277 160.74 295.277C163.277 295.277 165.496 295.971 167.399 297.358C169.322 298.746 170.511 300.589 170.967 302.888L165.259 304.256C164.981 303.007 164.446 302.056 163.653 301.402C162.88 300.748 161.909 300.42 160.74 300.42C159.332 300.42 158.153 300.926 157.202 301.937C156.25 302.948 155.775 304.196 155.775 305.683C155.775 307.169 156.25 308.418 157.202 309.429C158.153 310.44 159.332 310.945 160.74 310.945ZM176.427 298.31C178.508 296.288 181.055 295.277 184.067 295.277C187.08 295.277 189.617 296.288 191.678 298.31C193.759 300.311 194.8 302.769 194.8 305.683C194.8 308.596 193.759 311.064 191.678 313.086C189.617 315.087 187.08 316.088 184.067 316.088C181.055 316.088 178.508 315.087 176.427 313.086C174.365 311.064 173.335 308.596 173.335 305.683C173.335 302.769 174.365 300.311 176.427 298.31ZM180.5 309.458C181.451 310.449 182.64 310.945 184.067 310.945C185.494 310.945 186.674 310.449 187.605 309.458C188.557 308.448 189.032 307.189 189.032 305.683C189.032 304.196 188.557 302.948 187.605 301.937C186.674 300.926 185.494 300.42 184.067 300.42C182.64 300.42 181.451 300.926 180.5 301.937C179.568 302.948 179.102 304.196 179.102 305.683C179.102 307.189 179.568 308.448 180.5 309.458ZM216.123 295.723V306.634C216.123 309.508 215.291 311.807 213.626 313.531C211.981 315.236 209.791 316.088 207.055 316.088C204.241 316.088 201.981 315.236 200.277 313.531C198.572 311.827 197.72 309.528 197.72 306.634V295.723H203.458V306.634C203.458 307.982 203.785 309.032 204.439 309.785C205.093 310.539 205.965 310.915 207.055 310.915C208.066 310.915 208.869 310.539 209.464 309.785C210.078 309.013 210.385 307.962 210.385 306.634V295.723H216.123ZM239.13 295.723V315.642H234.403L225.246 305.385V315.642H219.537V295.723H224.235L233.392 306.337V295.723H239.13Z" fill="#305EED"/>
<rect width="80.9891" height="17.1726" rx="1.69887" transform="matrix(1 0 0 -1 126.562 200.977)" fill="#C7E1FF"/>
<rect width="185.85" height="11.4484" rx="1.69887" transform="matrix(1 0 0 -1 73.9014 347.558)" fill="#C7E1FF"/>
<rect width="167.481" height="11.4484" rx="1.69887" transform="matrix(1 0 0 -1 83.2285 364.731)" fill="#C7E1FF"/>
<rect width="116.336" height="11.4484" rx="1.69887" transform="matrix(1 0 0 -1 108.882 381.903)" fill="#C7E1FF"/>
<rect width="79.7686" height="84.7182" rx="1.69887" transform="matrix(1 0 0 -1 31.4292 538.199)" fill="#C7E1FF"/>
<rect width="79.7686" height="84.7182" rx="1.69887" transform="matrix(1 0 0 -1 127.416 538.199)" fill="#C7E1FF"/>
<rect width="79.7686" height="84.7182" rx="1.69887" transform="matrix(1 0 0 -1 222.551 538.199)" fill="#C7E1FF"/>
<g filter="url(#filter0_d)">
<path d="M213 58.7258C213 55.5636 215.564 53 218.726 53H432.274C435.436 53 438 55.5635 438 58.7258V328.904C438 332.067 435.436 334.63 432.274 334.63H218.726C215.564 334.63 213 332.067 213 328.904V58.7258Z" fill="#53D084"/>
<path d="M213.358 58.7258C213.358 55.7612 215.761 53.3579 218.726 53.3579H432.274C435.239 53.3579 437.642 55.7612 437.642 58.7258V328.904C437.642 331.869 435.239 334.272 432.274 334.272H218.726C215.761 334.272 213.358 331.869 213.358 328.904V58.7258Z" stroke="#329B5B" stroke-width="0.715727"/>
<path d="M249.866 114.955L244.618 124.269V128.376H240.612V124.269L235.544 114.955H239.77L242.695 120.403L245.599 114.955H249.866ZM251.812 116.698C253.214 115.336 254.93 114.655 256.96 114.655C258.989 114.655 260.699 115.336 262.088 116.698C263.49 118.046 264.191 119.702 264.191 121.665C264.191 123.628 263.49 125.291 262.088 126.653C260.699 128.002 258.989 128.676 256.96 128.676C254.93 128.676 253.214 128.002 251.812 126.653C250.423 125.291 249.729 123.628 249.729 121.665C249.729 119.702 250.423 118.046 251.812 116.698ZM254.556 124.209C255.197 124.877 255.998 125.211 256.96 125.211C257.921 125.211 258.716 124.877 259.343 124.209C259.984 123.528 260.305 122.68 260.305 121.665C260.305 120.664 259.984 119.823 259.343 119.141C258.716 118.46 257.921 118.12 256.96 118.12C255.998 118.12 255.197 118.46 254.556 119.141C253.928 119.823 253.614 120.664 253.614 121.665C253.614 122.68 253.928 123.528 254.556 124.209ZM278.557 114.955V122.306C278.557 124.243 277.997 125.792 276.875 126.954C275.767 128.102 274.291 128.676 272.448 128.676C270.552 128.676 269.029 128.102 267.881 126.954C266.733 125.805 266.158 124.256 266.158 122.306V114.955H270.024V122.306C270.024 123.214 270.245 123.922 270.685 124.43C271.126 124.937 271.714 125.191 272.448 125.191C273.129 125.191 273.67 124.937 274.071 124.43C274.485 123.909 274.692 123.201 274.692 122.306V114.955H278.557ZM301.684 114.955V128.376H297.918V122.306L294.934 128.376H292.43L289.445 122.346V128.376H285.679V114.955H289.746L293.672 122.286L297.618 114.955H301.684ZM309.548 118.26V125.071H311.811V128.376H303.418V125.071H305.682V118.26H303.418V114.955H311.811V118.26H309.548ZM319.888 120.363H327.36C327.413 121.084 327.44 121.525 327.44 121.685C327.44 123.742 326.772 125.425 325.437 126.733C324.115 128.029 322.412 128.676 320.329 128.676C318.272 128.676 316.536 128.002 315.121 126.653C313.719 125.291 313.017 123.628 313.017 121.665C313.017 119.702 313.719 118.046 315.121 116.698C316.536 115.336 318.266 114.655 320.309 114.655C321.898 114.655 323.293 115.008 324.495 115.716C325.697 116.424 326.518 117.412 326.959 118.681L323.053 119.662C322.519 118.634 321.604 118.12 320.309 118.12C319.321 118.12 318.506 118.46 317.865 119.141C317.224 119.809 316.903 120.65 316.903 121.665C316.903 122.68 317.231 123.528 317.885 124.209C318.539 124.877 319.367 125.211 320.369 125.211C321.798 125.211 322.786 124.65 323.333 123.528H319.888V120.363ZM342.008 114.955V128.376H338.142V123.268H333.234V128.376H329.388V114.955H333.234V119.963H338.142V114.955H342.008ZM356.002 118.26H351.796V128.376H347.93V118.26H343.723V114.955H356.002V118.26ZM372.749 125.071V128.376H362.573V114.955H366.419V125.071H372.749ZM380.201 118.26V125.071H382.465V128.376H374.072V125.071H376.335V118.26H374.072V114.955H382.465V118.26H380.201ZM397.788 128.376H393.141L390.036 123.749L388.053 126.132V128.376H384.207V114.955H388.053V120.744L392.941 114.955H397.307L392.54 120.724L397.788 128.376ZM409.662 125.131V128.376H398.985V114.955H409.582V118.2H402.831V120.183H409.041V123.128H402.831V125.131H409.662ZM248.163 142.26H243.957V152.376H240.091V142.26H235.885V138.955H248.163V142.26ZM262.532 138.955V152.376H258.666V147.268H253.758V152.376H249.913V138.955H253.758V143.963H258.666V138.955H262.532ZM270.377 142.26V149.071H272.641V152.376H264.248V149.071H266.511V142.26H264.248V138.955H272.641V142.26H270.377ZM279.972 138.655C281.561 138.655 282.863 138.995 283.878 139.676C284.893 140.357 285.52 141.319 285.761 142.561L281.995 143.322C281.875 142.734 281.621 142.307 281.234 142.04C280.846 141.773 280.426 141.639 279.972 141.639C279.544 141.639 279.197 141.739 278.93 141.94C278.676 142.127 278.55 142.387 278.55 142.721C278.55 143.175 278.81 143.462 279.331 143.582L282.055 144.223C284.606 144.864 285.881 146.193 285.881 148.209C285.881 149.211 285.587 150.059 284.999 150.753C284.425 151.448 283.724 151.942 282.896 152.236C282.068 152.529 281.16 152.676 280.172 152.676C278.516 152.676 277.127 152.302 276.006 151.554C274.884 150.807 274.23 149.798 274.043 148.53L277.969 147.789C278.276 148.977 279.037 149.571 280.252 149.571C280.72 149.571 281.1 149.478 281.394 149.291C281.688 149.104 281.835 148.837 281.835 148.49C281.835 148.036 281.527 147.735 280.913 147.588L278.129 146.927C275.672 146.353 274.443 145.058 274.443 143.041C274.443 141.666 274.957 140.591 275.986 139.816C277.014 139.042 278.343 138.655 279.972 138.655ZM298.241 142.26V149.071H300.505V152.376H292.112V149.071H294.375V142.26H292.112V138.955H300.505V142.26H298.241ZM313.985 142.26H309.779V152.376H305.913V142.26H301.706V138.955H313.985V142.26ZM326.411 149.131V152.376H315.734V138.955H326.331V142.2H319.58V144.183H325.79V147.128H319.58V149.131H326.411ZM344.502 138.955V152.376H340.737V146.306L337.752 152.376H335.248L332.264 146.346V152.376H328.498V138.955H332.564L336.49 146.286L340.436 138.955H344.502ZM352.366 138.655C353.955 138.655 355.257 138.995 356.272 139.676C357.287 140.357 357.915 141.319 358.155 142.561L354.389 143.322C354.269 142.734 354.015 142.307 353.628 142.04C353.241 141.773 352.82 141.639 352.366 141.639C351.939 141.639 351.592 141.739 351.325 141.94C351.071 142.127 350.944 142.387 350.944 142.721C350.944 143.175 351.204 143.462 351.725 143.582L354.449 144.223C357 144.864 358.275 146.193 358.275 148.209C358.275 149.211 357.981 150.059 357.394 150.753C356.82 151.448 356.119 151.942 355.291 152.236C354.463 152.529 353.555 152.676 352.566 152.676C350.911 152.676 349.522 152.302 348.4 151.554C347.278 150.807 346.624 149.798 346.437 148.53L350.363 147.789C350.67 148.977 351.431 149.571 352.647 149.571C353.114 149.571 353.495 149.478 353.788 149.291C354.082 149.104 354.229 148.837 354.229 148.49C354.229 148.036 353.922 147.735 353.308 147.588L350.523 146.927C348.066 146.353 346.838 145.058 346.838 143.041C346.838 141.666 347.352 140.591 348.38 139.816C349.408 139.042 350.737 138.655 352.366 138.655Z" fill="white"/>
<rect width="54.5669" height="11.5702" rx="1.14462" transform="matrix(1 0 0 -1 235.484 75.8923)" fill="#329B5B"/>
<rect width="125.218" height="7.71345" rx="1.14462" transform="matrix(1 0 0 -1 235.485 181.652)" fill="#329B5B"/>
<rect width="112.842" height="7.71347" rx="1.14462" transform="matrix(1 0 0 -1 235.485 193.222)" fill="#329B5B"/>
<rect width="78.3824" height="7.71343" rx="1.14462" transform="matrix(1 0 0 -1 235.485 204.792)" fill="#329B5B"/>
<rect width="56" height="79" rx="1.14462" transform="matrix(1 0 0 -1 234 303)" fill="#329B5B"/>
<rect width="56" height="79" rx="1.14462" transform="matrix(1 0 0 -1 297 303)" fill="#329B5B"/>
<rect width="56" height="79" rx="1.14462" transform="matrix(1 0 0 -1 361 303)" fill="#329B5B"/>
</g>
<g filter="url(#filter2_d)">
<path d="M104 405.319C104 402.381 106.381 400 109.319 400H307.681C310.619 400 313 402.381 313 405.319V656.285C313 659.222 310.619 661.603 307.681 661.603H109.319C106.381 661.603 104 659.222 104 656.285V405.319Z" fill="#184285"/>
<path d="M104.332 405.319C104.332 402.565 106.565 400.332 109.319 400.332H307.681C310.435 400.332 312.668 402.565 312.668 405.319V656.285C312.668 659.038 310.435 661.271 307.681 661.271H109.319C106.565 661.271 104.332 659.038 104.332 656.285V405.319Z" stroke="#254BC1" stroke-opacity="0.5" stroke-width="0.664831"/>
<path d="M187.349 457.758V470.225H183.758V465.48H179.2V470.225H175.627V457.758H179.2V462.41H183.758V457.758H187.349ZM202.563 470.225H198.711L198.023 468.327H193.111L192.404 470.225H188.571L193.595 457.758H197.539L202.563 470.225ZM196.944 465.331L195.586 461.591L194.209 465.331H196.944ZM203.809 457.758H210.265C211.642 457.758 212.746 458.161 213.577 458.968C214.408 459.774 214.824 460.835 214.824 462.149C214.824 463.514 214.383 464.612 213.503 465.443C212.634 466.261 211.468 466.671 210.005 466.671H207.381V470.225H203.809V457.758ZM207.381 463.843H209.577C210.073 463.843 210.482 463.694 210.805 463.396C211.14 463.098 211.307 462.714 211.307 462.242C211.307 461.796 211.14 461.43 210.805 461.145C210.482 460.859 210.073 460.717 209.577 460.717H207.381V463.843ZM216.537 457.758H222.993C224.37 457.758 225.474 458.161 226.305 458.968C227.136 459.774 227.552 460.835 227.552 462.149C227.552 463.514 227.111 464.612 226.231 465.443C225.362 466.261 224.196 466.671 222.733 466.671H220.109V470.225H216.537V457.758ZM220.109 463.843H222.305C222.801 463.843 223.21 463.694 223.533 463.396C223.868 463.098 224.035 462.714 224.035 462.242C224.035 461.796 223.868 461.43 223.533 461.145C223.21 460.859 222.801 460.717 222.305 460.717H220.109V463.843ZM241.75 457.758L236.875 466.41V470.225H233.153V466.41L228.446 457.758H232.372L235.089 462.819L237.786 457.758H241.75ZM164.962 485.787V485.861C165.694 485.886 166.314 486.134 166.823 486.605C167.344 487.064 167.604 487.765 167.604 488.708C167.604 489.775 167.226 490.631 166.469 491.276C165.713 491.908 164.683 492.225 163.381 492.225H156.608V479.758H163.381C164.547 479.758 165.477 480.062 166.172 480.67C166.879 481.278 167.232 482.084 167.232 483.089C167.232 483.932 166.99 484.59 166.507 485.061C166.035 485.52 165.52 485.762 164.962 485.787ZM160.18 482.531V484.838H162.394C162.791 484.838 163.114 484.732 163.362 484.522C163.61 484.298 163.734 484.013 163.734 483.666C163.734 483.331 163.61 483.058 163.362 482.847C163.126 482.636 162.822 482.531 162.45 482.531H160.18ZM160.18 489.452H162.581C163.002 489.452 163.331 489.341 163.567 489.117C163.815 488.882 163.939 488.578 163.939 488.206C163.939 487.858 163.815 487.579 163.567 487.368C163.331 487.157 163.015 487.052 162.618 487.052H160.18V489.452ZM174.545 482.828V489.155H176.648V492.225H168.852V489.155H170.954V482.828H168.852V479.758H176.648V482.828H174.545ZM190.044 492.225H185.746L182.322 488.243H181.839V492.225H178.266V479.758H184.909C186.248 479.758 187.328 480.143 188.146 480.912C188.977 481.681 189.393 482.692 189.393 483.945C189.393 484.937 189.126 485.793 188.593 486.512C188.059 487.219 187.328 487.716 186.397 488.001L190.044 492.225ZM181.839 485.415H184.239C184.735 485.415 185.132 485.291 185.43 485.043C185.727 484.782 185.876 484.447 185.876 484.038C185.876 483.641 185.727 483.325 185.43 483.089C185.132 482.841 184.735 482.717 184.239 482.717H181.839V485.415ZM201.807 482.828H197.899V492.225H194.308V482.828H190.401V479.758H201.807V482.828ZM215.154 479.758V492.225H211.563V487.48H207.004V492.225H203.431V479.758H207.004V484.41H211.563V479.758H215.154ZM217.25 479.758H222.515C224.55 479.758 226.187 480.335 227.427 481.489C228.68 482.63 229.307 484.131 229.307 485.991C229.307 487.852 228.68 489.359 227.427 490.513C226.187 491.654 224.55 492.225 222.515 492.225H217.25V479.758ZM220.822 489.21H222.255C223.284 489.21 224.115 488.913 224.748 488.317C225.381 487.722 225.697 486.947 225.697 485.991C225.697 485.036 225.381 484.261 224.748 483.666C224.115 483.07 223.284 482.773 222.255 482.773H220.822V489.21ZM243.586 492.225H239.734L239.046 490.327H234.134L233.427 492.225H229.594L234.618 479.758H238.562L243.586 492.225ZM237.967 487.331L236.608 483.591L235.232 487.331H237.967ZM255.082 479.758L250.207 488.41V492.225H246.485V488.41L241.778 479.758H245.704L248.42 484.819L251.118 479.758H255.082ZM260.323 479.758V480.335L260.044 487.778H256.658L256.379 480.335V479.758H260.323ZM258.425 488.596C258.983 488.596 259.449 488.782 259.821 489.155C260.193 489.527 260.379 489.967 260.379 490.476C260.379 490.997 260.193 491.437 259.821 491.797C259.449 492.144 258.983 492.318 258.425 492.318C257.867 492.318 257.408 492.144 257.048 491.797C256.689 491.437 256.509 490.997 256.509 490.476C256.509 489.967 256.689 489.527 257.048 489.155C257.42 488.782 257.879 488.596 258.425 488.596Z" fill="white"/>
<rect width="50.6866" height="10.7474" rx="1.06323" transform="matrix(1 0 0 -1 183.21 421.264)" fill="#1F3169"/>
<rect width="116.313" height="7.16494" rx="1.06323" transform="matrix(1 0 0 -1 150.251 513.001)" fill="#1F3169"/>
<rect width="104.817" height="7.16495" rx="1.06323" transform="matrix(1 0 0 -1 156.088 523.749)" fill="#1F3169"/>
<rect width="72.8085" height="7.16492" rx="1.06323" transform="matrix(1 0 0 -1 172.144 534.496)" fill="#1F3169"/>
<rect width="49.9228" height="53.0205" rx="1.06323" transform="matrix(1 0 0 -1 123.669 632.313)" fill="#1F3169"/>
<rect width="49.9228" height="53.0205" rx="1.06323" transform="matrix(1 0 0 -1 183.742 632.313)" fill="#1F3169"/>
<rect width="49.9228" height="53.0205" rx="1.06323" transform="matrix(1 0 0 -1 243.282 632.313)" fill="#1F3169"/>
</g>
</g>
<defs>
<filter id="filter0_d" x="129.928" y="0.136259" width="360.935" height="417.566" filterUnits="userSpaceOnUse" color-interpolation-filters="sRGB">
<feFlood flood-opacity="0" result="BackgroundImageFix"/>
<feColorMatrix in="SourceAlpha" type="matrix" values="0 0 0 0 0 0 0 0 0 0 0 0 0 0 0 0 0 0 127 0"/>
<feOffset dx="-15.1039" dy="15.1039"/>
<feGaussianBlur stdDeviation="33.9838"/>
<feColorMatrix type="matrix" values="0 0 0 0 0 0 0 0 0 0 0 0 0 0 0 0 0 0 0.25 0"/>
<feBlend mode="normal" in2="BackgroundImageFix" result="effect1_dropShadow"/>
<feBlend mode="normal" in="SourceGraphic" in2="effect1_dropShadow" result="shape"/>
</filter>

<filter id="filter2_d" x="20.9284" y="347.136" width="344.935" height="397.539" filterUnits="userSpaceOnUse" color-interpolation-filters="sRGB">
<feFlood flood-opacity="0" result="BackgroundImageFix"/>
<feColorMatrix in="SourceAlpha" type="matrix" values="0 0 0 0 0 0 0 0 0 0 0 0 0 0 0 0 0 0 127 0"/>
<feOffset dx="-15.1039" dy="15.1039"/>
<feGaussianBlur stdDeviation="33.9838"/>
<feColorMatrix type="matrix" values="0 0 0 0 0 0 0 0 0 0 0 0 0 0 0 0 0 0 0.25 0"/>
<feBlend mode="normal" in2="BackgroundImageFix" result="effect1_dropShadow"/>
<feBlend mode="normal" in="SourceGraphic" in2="effect1_dropShadow" result="shape"/>
</filter>

</defs>
</svg>
