<svg width="283" height="347" viewBox="0 0 283 347" fill="none" xmlns="http://www.w3.org/2000/svg">
<path d="M24.9402 1.16495L17.889 9.52339C17.0904 10.47 16.6523 11.6686 16.6523 12.9071V322.681C16.6523 327.028 20.1765 330.552 24.5238 330.552H269.617C271.733 330.552 273.759 329.701 275.239 328.19L281.827 321.469C282.307 320.978 282.577 320.319 282.577 319.632V2.62382C282.577 1.17472 281.402 0 279.953 0H27.4471C26.4806 0 25.5634 0.426249 24.9402 1.16495Z" fill="#D5DFE9"/>
<path d="M24.6929 5.24764C24.6929 2.34945 27.0423 0 29.9405 0H277.329C280.227 0 282.577 2.34945 282.577 5.24764V317.543C282.577 320.441 280.227 322.791 277.329 322.791H29.9405C27.0423 322.791 24.6929 320.441 24.6929 317.543V5.24764Z" fill="#F8FAFD"/>
<path fill-rule="evenodd" clip-rule="evenodd" d="M56.2392 27.0318L52.1483 29.1767L52.9296 24.6339L49.6199 21.4166L54.1937 20.7538L56.2392 16.6206L58.2846 20.7538L62.8584 21.4166L59.5488 24.6339L60.3301 29.1767L56.2392 27.0318Z" fill="#305EED"/>
<g filter="url(#filter0_i)">
<rect x="24.8318" y="47.7401" width="257.745" height="70.7261" rx="1.31191" fill="#E6EFFA"/>
</g>
<rect x="83.5942" y="18.5656" width="130.899" height="8.84077" rx="1.31191" fill="#E6EFFA"/>
<rect x="228.677" y="18.5656" width="29.5839" height="8.84077" rx="1.31191" fill="#E6EFFA"/>
<rect width="61.5994" height="65.4217" rx="1.31191" transform="matrix(1 0 0 -1 49.0566 208.594)" fill="#E6EFFA"/>
<circle cx="79.8867" cy="175.796" r="12.4631" fill="white"/>
<path d="M80.8296 171.358V179.268H78.598V173.979L76.7679 174.912V172.822L79.3655 171.358H80.8296Z" fill="#305EED"/>
<rect width="121.578" height="13.2612" rx="1.31191" transform="matrix(1 0 0 -1 49.1472 245.773)" fill="#E6EFFA"/>
<rect width="209.114" height="8.84077" rx="1.31191" transform="matrix(1 0 0 -1 49.1472 266.991)" fill="#E6EFFA"/>
<rect width="188.446" height="8.84079" rx="1.31191" transform="matrix(1 0 0 -1 49.1472 280.252)" fill="#E6EFFA"/>
<rect width="130.899" height="8.84075" rx="1.31191" transform="matrix(1 0 0 -1 49.1472 293.513)" fill="#E6EFFA"/>
<rect width="61.5994" height="65.4217" rx="1.31191" transform="matrix(1 0 0 -1 123.18 208.594)" fill="#E6EFFA"/>
<circle cx="154.01" cy="175.796" r="12.4631" fill="white"/>
<path d="M156.577 177.32V179.268H150.497H150.485V177.769L153.295 175.266C153.539 175.045 153.708 174.884 153.803 174.782C153.905 174.679 154.007 174.542 154.11 174.368C154.22 174.187 154.275 174.006 154.275 173.825C154.275 173.597 154.2 173.412 154.05 173.27C153.909 173.121 153.724 173.046 153.496 173.046C152.905 173.046 152.586 173.42 152.539 174.168L150.39 173.766C150.43 172.963 150.725 172.334 151.276 171.877C151.835 171.413 152.563 171.181 153.46 171.181C154.357 171.181 155.082 171.417 155.633 171.889C156.184 172.361 156.459 173.007 156.459 173.825C156.459 174.337 156.333 174.778 156.081 175.148C155.837 175.51 155.436 175.939 154.877 176.435L153.85 177.32H156.577Z" fill="#305EED"/>
<rect width="61.5994" height="65.4217" rx="1.31191" transform="matrix(1 0 0 -1 196.646 208.594)" fill="#E6EFFA"/>
<circle cx="227.476" cy="175.796" r="12.4631" fill="white"/>
<path d="M229.201 175.23C229.831 175.585 230.146 176.128 230.146 176.86C230.146 177.615 229.855 178.237 229.272 178.725C228.698 179.205 227.958 179.446 227.052 179.446C226.202 179.446 225.482 179.221 224.892 178.773C224.309 178.324 223.963 177.71 223.853 176.931L226.037 176.541C226.163 177.257 226.509 177.615 227.076 177.615C227.352 177.615 227.576 177.545 227.749 177.403C227.93 177.253 228.021 177.06 228.021 176.824C228.021 176.596 227.934 176.415 227.761 176.281C227.588 176.14 227.348 176.069 227.041 176.069H226.143V174.463H226.982C227.273 174.463 227.505 174.4 227.678 174.274C227.851 174.14 227.938 173.967 227.938 173.754C227.938 173.518 227.855 173.329 227.69 173.188C227.533 173.046 227.316 172.975 227.041 172.975C226.765 172.975 226.537 173.07 226.356 173.259C226.183 173.447 226.08 173.731 226.049 174.109L223.935 173.707C224.061 172.912 224.4 172.294 224.951 171.854C225.51 171.405 226.202 171.181 227.029 171.181C227.903 171.181 228.619 171.417 229.178 171.889C229.744 172.361 230.028 172.963 230.028 173.695C230.028 174.365 229.752 174.876 229.201 175.23Z" fill="#305EED"/>
<defs>
<filter id="filter0_i" x="24.8318" y="47.7401" width="257.745" height="70.7261" filterUnits="userSpaceOnUse" color-interpolation-filters="sRGB">
<feFlood flood-opacity="0" result="BackgroundImageFix"/>
<feBlend mode="normal" in="SourceGraphic" in2="BackgroundImageFix" result="shape"/>
<feColorMatrix in="SourceAlpha" type="matrix" values="0 0 0 0 0 0 0 0 0 0 0 0 0 0 0 0 0 0 127 0" result="hardAlpha"/>
<feOffset dy="1.31191"/>
<feComposite in2="hardAlpha" operator="arithmetic" k2="-1" k3="1"/>
<feColorMatrix type="matrix" values="0 0 0 0 0.823333 0 0 0 0 0.882444 0 0 0 0 0.95 0 0 0 1 0"/>
<feBlend mode="normal" in2="shape" result="effect1_innerShadow"/>
</filter>
</defs>
</svg>
