<svg width="830" height="479" viewBox="0 0 830 479" fill="none" xmlns="http://www.w3.org/2000/svg">
<g transform="matrix(1, 0, 0, 1, -280, -188)">
<path d="M283.784 387.271L285.51 399.017C285.705 400.347 286.709 401.595 288.345 402.539L697.324 638.663C703.063 641.976 712.369 641.976 718.108 638.663L1041.69 451.841C1044.49 450.228 1046.04 448.035 1046 445.755L1045.82 435.61C1045.81 434.87 1045.29 434.162 1044.39 433.639L625.855 192C623.942 190.895 620.84 190.895 618.927 192L285.556 384.472C284.28 385.209 283.632 386.233 283.784 387.271Z" fill="#D5DFE9"/>
<path d="M288.847 390.571C285.021 388.362 285.021 384.781 288.847 382.571L615.463 194C619.289 191.791 625.493 191.791 629.319 194L1041.63 432.047C1045.45 434.256 1045.45 437.837 1041.63 440.047L715.012 628.618C711.186 630.827 704.982 630.827 701.156 628.618L288.847 390.571Z" fill="#F8FAFD"/>
<path fill-rule="evenodd" clip-rule="evenodd" d="M359.257 383.13L356.688 387.883L351.722 383.825L343.105 383.895L348.268 379.904L345.512 375.194L353.669 376.786L360.583 373.804L360.461 378.779L367.49 381.647L359.257 383.13Z" fill="#305EED"/>
<rect width="392.931" height="107.822" rx="2" transform="matrix(0.866025 -0.5 0.866025 0.5 345.132 422.855)" fill="#E6EFFA"/>
<rect width="199.555" height="13.4777" rx="2" transform="matrix(0.866025 -0.5 0.866025 0.5 384.195 355.825)" fill="#E6EFFA"/>
<rect width="45.1006" height="13.4777" rx="2" transform="matrix(0.866025 -0.5 0.866025 0.5 575.741 245.236)" fill="#E6EFFA"/>
<rect width="93.9081" height="99.735" rx="2" transform="matrix(0.866025 -0.5 -0.866025 -0.5 589.482 527)" fill="#E6EFFA"/>
<circle r="19" transform="matrix(0.866025 -0.5 0.866025 0.5 586.884 478.5)" fill="white"/>
<path d="M583.044 474.657L593.488 480.687L590.542 482.388L583.558 478.356L582.374 480.462L579.615 478.869L581.111 475.773L583.044 474.657Z" fill="#305EED"/>
<rect width="185.345" height="20.2166" rx="2" transform="matrix(0.866025 -0.5 -0.866025 -0.5 638.688 555.271)" fill="#E6EFFA"/>
<rect width="318.793" height="13.4777" rx="2" transform="matrix(0.866025 -0.5 -0.866025 -0.5 666.701 571.444)" fill="#E6EFFA"/>
<rect width="287.284" height="13.4778" rx="2" transform="matrix(0.866025 -0.5 -0.866025 -0.5 684.209 581.553)" fill="#E6EFFA"/>
<rect width="199.555" height="13.4777" rx="2" transform="matrix(0.866025 -0.5 -0.866025 -0.5 701.717 591.661)" fill="#E6EFFA"/>
<rect width="93.908" height="99.735" rx="2" transform="matrix(0.866025 -0.5 -0.866025 -0.5 687.343 470.5)" fill="#E6EFFA"/>
<circle r="19" transform="matrix(0.866025 -0.5 0.866025 0.5 684.745 422)" fill="white"/>
<path d="M690.901 421.476L693.473 422.961L685.445 427.596L685.43 427.605L683.45 426.462L683.855 422.412C683.886 422.058 683.897 421.806 683.886 421.656C683.886 421.5 683.84 421.317 683.746 421.107C683.653 420.885 683.486 420.705 683.247 420.567C682.946 420.393 682.603 420.309 682.218 420.315C681.834 420.309 681.491 420.393 681.19 420.567C680.41 421.017 680.483 421.545 681.408 422.151L678.041 423.483C677.033 422.841 676.591 422.136 676.716 421.368C676.84 420.588 677.495 419.856 678.68 419.172C679.865 418.488 681.132 418.116 682.483 418.056C683.834 417.996 685.05 418.278 686.131 418.902C686.807 419.292 687.222 419.724 687.378 420.198C687.534 420.66 687.57 421.293 687.487 422.097L687.3 423.555L690.901 421.476Z" fill="#305EED"/>
<rect width="93.9081" height="99.735" rx="2" transform="matrix(0.866025 -0.5 -0.866025 -0.5 784.338 414.5)" fill="#E6EFFA"/>
<circle r="19" transform="matrix(0.866025 -0.5 0.866025 0.5 781.74 366)" fill="white"/>
<path d="M784.024 364.525C785.323 364.315 786.456 364.489 787.423 365.047C788.42 365.623 788.857 366.319 788.732 367.135C788.607 367.939 787.947 368.686 786.752 369.376C785.63 370.024 784.383 370.402 783.011 370.51C781.65 370.612 780.382 370.408 779.208 369.898L781.577 367.936C782.689 368.386 783.619 368.395 784.367 367.963C784.731 367.753 784.934 367.528 784.975 367.288C785.017 367.036 784.882 366.82 784.57 366.64C784.269 366.466 783.915 366.394 783.51 366.424C783.094 366.448 782.684 366.577 782.278 366.811L781.094 367.495L778.974 366.271L780.08 365.632C780.465 365.41 780.688 365.185 780.751 364.957C780.803 364.723 780.688 364.525 780.408 364.363C780.096 364.183 779.738 364.102 779.332 364.12C778.937 364.132 778.558 364.243 778.194 364.453C777.831 364.663 777.654 364.909 777.664 365.191C777.685 365.467 777.924 365.761 778.381 366.073L775.061 367.378C774.178 366.676 773.809 365.947 773.954 365.191C774.1 364.423 774.718 363.724 775.809 363.094C776.963 362.428 778.22 362.062 779.582 361.996C780.953 361.924 782.123 362.167 783.089 362.725C783.972 363.235 784.284 363.835 784.024 364.525Z" fill="#305EED"/>
</g>
</svg>
