<svg width="202" height="247" viewBox="0 0 202 247" fill="none" xmlns="http://www.w3.org/2000/svg">
<path d="M118.992 19.5V20H113.95V19.5H111.933V20H106.891V19.5H104.874V20H99.8319V19.5H97.8151V20H92.7731V19.5H90.7563V20H85.7143V19.5H83.6975V20H78.6555V19.5H76.6387V20H71.5966V19.5H69.5798V20H64.5378V19.5H62.521V20H57.479V19.5H55.4622V20H50.4202V19.5H48.4034V20H43.3614V19.5H41.3445V20H36.3025V19.5H34.2857V20H29.2437V19.5H27.2269V20H22.1849V19.5H20.1681V20H15.1261V19.5H13.1092V20H8.06723V19.5H6.05042V20H1.0084V19.5H0.5V19.0476H0V14.2857H0.5V12.381H0V7.61905H0.5V5.71429H0V0.952381H0.5V0.5H1.02252V0H6.1353V0.5H8.18042V0H13.2932V0.5H15.3383V0H20.4511V0.5H22.4962V0H27.609V0.5H29.6541V0H34.7669V0.5H36.812V0H41.9248V0.5H43.9699V0H49.0827V0.5H51.1278V0H56.2406V0.5H58.2857V0H63.3985V0.5H65.4436V0H70.5564V0.5H72.6015V0H77.7143V0.5H79.7594V0H84.8722V0.5H86.9173V0H92.0301V0.5H94.0752V0H99.188V0.5H101.233V0H106.346V0.5H108.391V0H113.504V0.5H115.549V0H120.662V0.5H122.707V0H127.82V0.5H129.865V0H134.977V0.5H136C136.284 0.5 136.565 0.515809 136.841 0.546557L136.896 0.0496349C138.434 0.221043 139.84 0.82831 140.988 1.74507L140.676 2.13579C141.115 2.48628 141.514 2.88501 141.864 3.32394L142.255 3.01195C143.172 4.16004 143.779 5.56612 143.95 7.10382L143.453 7.15921C143.484 7.43506 143.5 7.71559 143.5 8V8.99074H144V13.9447H143.5V15.9262H144V20.8801H143.5V22.8617H144V27.8156H143.5V29.7972H144V34.7511H143.5V36.7327H144V41.6866H143.5V43.6682H144V48.6221H143.5V50.6037H144V55.5576H143.5V57.5391H144V62.4931H143.5V64.4746H144V69.4285H143.5V71.4101H144V76.364H143.5V78.3456H144V83.2995H143.5V85.2811H144V90.235H143.5V92.2166H144V97.1705H143.5V99.152H144V104.106H143.5V106.088H144V111.041H143.5V113.023H144V117.977H143.5V119.959H144V124.912H143.5V126.894H144V131.848H143.5V133.829H144V138.783H143.5V140.765H144V145.719H143.5V147.7H144V152.654H143.5V154.636H144V159.59H143.5V161.571H144V166.525H143.5V168.507H144V173.461H143.5V175.442H144V180.396H143.5V182.378H144V187.332H143.5V189.313H144V194.267H143.5V196.249H144V201.203H143.5V203.184H144V208.138H143.5V210.12H144V215.074H143.5V217.055H144V222.009H143.5V223C143.5 223.344 143.539 223.679 143.612 224.001L144.099 223.89C144.439 225.385 145.615 226.561 147.11 226.901L146.999 227.388C147.321 227.461 147.656 227.5 148 227.5H148.955V227H153.732V227.5H155.643V227H160.42V227.5H162.33V227H167.107V227.5H169.018V227H173.795V227.5H175.705V227H180.482V227.5H182.393V227H187.17V227.5H189.08V227H193.857V227.5H195.768V227H200.545V227.5H201V227.952H201.5V232.714H201V234.619H201.5V239.381H201V241.286H201.5V246.048H201V246.5H200.507V247H195.543V246.5H193.557V247H188.593V246.5H186.607V247H181.643V246.5H179.657V247H174.693V246.5H172.707V247H167.743V246.5H165.757V247H160.793V246.5H158.807V247H153.843V246.5H151.857V247H146.893V246.5H144.907V247H139.943V246.5H137.957V247H132.993V246.5H132C131.716 246.5 131.435 246.484 131.159 246.453L131.104 246.95C129.566 246.779 128.16 246.172 127.012 245.255L127.324 244.864C126.885 244.514 126.486 244.115 126.136 243.676L125.745 243.988C124.828 242.84 124.221 241.434 124.05 239.896L124.547 239.841C124.516 239.565 124.5 239.284 124.5 239V238.009H124V233.055H124.5V231.074H124V226.12H124.5V224.138H124V219.184H124.5V217.203H124V212.249H124.5V210.267H124V205.313H124.5V203.332H124V198.378H124.5V196.396H124V191.442H124.5V189.461H124V184.507H124.5V182.525H124V177.571H124.5V175.59H124V170.636H124.5V168.654H124V163.7H124.5V161.719H124V156.765H124.5V154.783H124V149.83H124.5V147.848H124V142.894H124.5V140.912H124V135.959H124.5V133.977H124V129.023H124.5V127.041H124V122.088H124.5V120.106H124V115.152H124.5V113.171H124V108.217H124.5V106.235H124V101.281H124.5V99.2996H124V94.3456H124.5V92.3641H124V87.4102H124.5V85.4286H124V80.4747H124.5V78.4931H124V73.5392H124.5V71.5576H124V66.6037H124.5V64.6221H124V59.6682H124.5V57.6866H124V52.7327H124.5V50.7512H124V45.7972H124.5V43.8157H124V38.8618H124.5V36.8802H124V31.9263H124.5V29.9447H124V24.9908H124.5V24C124.5 23.6564 124.461 23.3212 124.388 22.9987L123.901 23.1095C123.561 21.6154 122.385 20.4392 120.89 20.0995L121.001 19.6119C120.679 19.5386 120.344 19.5 120 19.5H118.992Z" stroke="#53D084" stroke-dasharray="2 5"/>
</svg>
