<svg viewBox="0 0 40 40" fill="none" xmlns="http://www.w3.org/2000/svg">
<path d="M32.5225 27.3665L26.5897 21.9723C26.0074 21.4425 25.1083 21.4703 24.5595 22.0351L21.067 25.6268C20.2263 25.4663 18.5362 24.9394 16.7965 23.2041C15.0568 21.463 14.5299 19.7685 14.3738 18.9337L17.9626 15.4398C18.5289 14.891 18.5552 13.9935 18.0254 13.4097L12.6326 7.47844C12.1028 6.89319 11.2023 6.83774 10.6024 7.35146L7.43534 10.0675C7.18285 10.3215 7.03252 10.6571 7.01209 11.0147C6.9902 11.3796 6.57278 20.0225 13.2748 26.7272C19.1215 32.5724 26.4452 33 28.4622 33C28.757 33 28.938 32.9912 28.9862 32.9883C29.3437 32.9679 29.6794 32.8176 29.9319 32.5636L32.6466 29.3951C33.1632 28.7953 33.1063 27.8963 32.5225 27.3665Z" fill="white"/>
</svg>
