<svg width="946" height="548" viewBox="0 0 946 548" fill="none" xmlns="http://www.w3.org/2000/svg">
<path d="M110.838 301.257L112.385 317.317C112.561 319.146 113.899 320.872 116.141 322.167L469.021 525.902C476.574 530.263 488.819 530.263 496.371 525.902L690.863 413.612C694.496 411.515 696.534 408.669 696.528 405.703L696.495 390.058C696.494 389.53 696.298 389.008 695.921 388.527L693.296 385.181L332.045 176.613C329.528 175.16 325.446 175.16 322.929 176.613L113.186 297.709C111.564 298.645 110.711 299.935 110.838 301.257Z" fill="#1E3367" fill-opacity="0.3"/>
<path d="M441.088 495.832L440.912 506.519C440.879 508.518 442.24 510.44 444.688 511.854L491.813 539.061C499.365 543.422 511.61 543.422 519.163 539.061L713.655 426.771C717.288 424.674 719.326 421.828 719.319 418.862L719.287 403.217C719.285 402.689 719.09 402.167 718.712 401.686L716.087 398.34L665.945 369.391C663.428 367.937 659.346 367.937 656.829 369.391L443.447 492.586C441.955 493.448 441.108 494.613 441.088 495.832Z" fill="#D5DFE9"/>
<path d="M441.088 495.832L440.912 506.519C440.879 508.518 442.24 510.44 444.688 511.854L491.813 539.061C499.365 543.422 511.61 543.422 519.163 539.061L713.655 426.771C717.288 424.674 719.326 421.828 719.319 418.862L719.287 403.217C719.285 402.689 719.09 402.167 718.712 401.686L716.087 398.34L665.945 369.391C663.428 367.937 659.346 367.937 656.829 369.391L443.447 492.586C441.955 493.448 441.108 494.613 441.088 495.832Z" fill="#142960" fill-opacity="0.78"/>
<path d="M442.196 492.651L660.998 366.326L715.128 397.578C719.849 400.303 719.849 404.722 715.128 407.447L513.421 523.903C508.701 526.628 501.047 526.628 496.327 523.903L442.196 492.651Z" fill="#142960" fill-opacity="0.78" stroke="#305EED" stroke-width="1.31589"/>
<g filter="url(#filter1_b)">
<path d="M441.057 492.651L660.998 365.668L715.698 397.249C720.733 400.156 720.733 404.869 715.698 407.776L513.991 524.232C508.956 527.139 500.792 527.139 495.757 524.232L441.057 492.651Z" fill="#142960" fill-opacity="0.78"/>
<path d="M442.196 492.651L660.998 366.326L715.128 397.578C719.849 400.303 719.849 404.722 715.128 407.447L513.421 523.903C508.701 526.628 501.047 526.628 496.327 523.903L442.196 492.651Z" stroke="#305EED" stroke-opacity="0.5" stroke-width="1.31589"/>
</g>
<circle r="3.94766" transform="matrix(0.866025 -0.5 0.866025 0.5 461.569 491.335)" fill="#EC665A"/>
<circle r="3.94766" transform="matrix(0.866025 -0.5 0.866025 0.5 472.965 484.755)" fill="#E0C14C"/>
<circle r="3.94766" transform="matrix(0.866025 -0.5 0.866025 0.5 484.361 478.176)" fill="#71BF46"/>
<path d="M139.51 179.179L141.057 195.239C141.233 197.067 142.571 198.794 144.813 200.089L497.693 403.824C505.245 408.185 517.491 408.185 525.043 403.824L719.535 291.534C723.168 289.437 725.206 286.591 725.2 283.625L725.167 267.98C725.166 267.452 724.97 266.93 724.592 266.449L721.968 263.103L360.717 54.5352C358.2 53.0817 354.118 53.0817 351.601 54.5352L141.857 175.63C140.236 176.566 139.382 177.857 139.51 179.179Z" fill="#D5DFE9"/>
<path d="M143.404 182.633C138.369 179.726 138.369 175.013 143.404 172.106L345.106 55.6529C350.141 52.7459 358.305 52.746 363.34 55.6529L721.552 262.467C726.587 265.374 726.587 270.087 721.552 272.994L519.85 389.447C514.815 392.354 506.651 392.354 501.616 389.447L143.404 182.633Z" fill="#F8FAFD"/>
<path d="M143.404 182.633C138.369 179.726 138.369 175.013 143.404 172.106L345.112 55.6498C350.147 52.7428 358.31 52.7428 363.345 55.6498L532.005 153.025L312.063 280.008L143.404 182.633Z" fill="#E7F0FF"/>
<path d="M447.675 357.646L666.476 231.321L720.607 262.573C725.327 265.298 725.327 269.717 720.607 272.442L518.899 388.898C514.179 391.623 506.526 391.623 501.805 388.898L447.675 357.646Z" fill="#EFEFEF" stroke="#305EED" stroke-width="1.31589"/>
<g clip-path="url(#clip0)">
<path d="M665.678 249.248L665.678 241.421C665.678 241.184 666.011 240.992 666.421 240.992C666.831 240.992 667.164 241.184 667.164 241.421L667.164 249.248C667.164 249.485 666.831 249.677 666.421 249.677C666.011 249.677 665.678 249.485 665.678 249.248Z" fill="#3F6AF7"/>
<path d="M674.054 245.335C674.054 245.099 673.722 244.907 673.313 244.907H659.754C659.345 244.907 659.013 245.099 659.013 245.335C659.013 245.572 659.345 245.764 659.754 245.764H673.313C673.722 245.764 674.054 245.572 674.054 245.335Z" fill="#3F6AF7"/>
</g>
<rect width="82.1713" height="18.218" transform="matrix(0.866025 -0.5 0.866025 0.5 473.885 360.277)" fill="#DDDDDD"/>
<rect width="82.1713" height="27.4292" rx="13.7146" transform="matrix(0.866025 -0.5 0.866025 0.5 607.218 292.509)" fill="#305EED"/>
<path d="M658.921 281.658L655.619 283.565L653.401 282.966L649.189 285.398L650.21 286.688L646.924 288.585L640.542 279.927L643.924 277.974L658.921 281.658ZM649.907 282.017L645.535 280.838L647.562 283.372L649.907 282.017ZM649.3 274.87L653.815 272.263C655.559 271.256 657.458 270.731 659.511 270.688C661.563 270.633 663.388 271.066 664.983 271.987C666.578 272.908 667.334 273.964 667.249 275.156C667.163 276.335 666.249 277.428 664.504 278.435L659.989 281.042L649.3 274.87ZM660.468 277.781L661.696 277.072C662.579 276.562 663.037 276.003 663.068 275.395C663.1 274.787 662.707 274.247 661.888 273.774C661.069 273.301 660.133 273.074 659.08 273.092C658.027 273.111 657.059 273.375 656.176 273.884L654.948 274.594L660.468 277.781Z" fill="white"/>
<rect width="105.649" height="11.7408" transform="matrix(0.866025 -0.5 0.866025 0.5 495.538 372.778)" fill="#DDDDDD"/>
<rect width="82.1713" height="23.4816" transform="matrix(0.866025 -0.5 0.866025 0.5 256.905 223.258)" fill="#C7E2FF"/>
<rect width="105.649" height="11.7408" transform="matrix(0.866025 -0.5 0.866025 0.5 285.375 239.695)" fill="#C7E2FF"/>
<path d="M235.217 185.853L252.014 195.551L247.301 198.272L239.704 193.887L243.565 200.429L240.431 202.239L229.149 200.038L236.696 204.395L231.982 207.117L215.185 197.418L220.274 194.48L234.364 196.941L230.127 188.792L235.217 185.853ZM256.591 178.289L267.197 193.734L262.258 196.585L258.572 191.244L241.098 187.234L246.062 184.368L255.438 186.684L251.627 181.155L256.591 178.289ZM279.625 169.594L279.725 169.652C280.745 169.101 281.915 168.812 283.235 168.783C284.556 168.735 285.851 169.077 287.121 169.811C288.559 170.641 289.202 171.601 289.052 172.691C288.884 173.772 287.923 174.819 286.168 175.832L277.043 181.101L260.245 171.403L269.371 166.134C270.942 165.227 272.605 164.74 274.36 164.672C276.132 164.595 277.694 164.947 279.048 165.729C280.185 166.385 280.745 167.085 280.728 167.828C280.711 168.551 280.344 169.14 279.625 169.594ZM268.794 170.781L271.903 172.575L274.886 170.853C275.421 170.544 275.714 170.211 275.764 169.854C275.797 169.487 275.58 169.169 275.112 168.899C274.661 168.638 274.126 168.522 273.508 168.551C272.906 168.571 272.354 168.725 271.853 169.015L268.794 170.781ZM278.121 176.165L281.355 174.298C281.923 173.97 282.216 173.627 282.232 173.27C282.249 172.894 282.007 172.561 281.505 172.271C281.037 172.001 280.494 171.881 279.876 171.91C279.274 171.929 278.706 172.093 278.171 172.402L274.886 174.298L278.121 176.165ZM279.475 157.405L294.167 165.888C294.451 166.052 294.777 166.134 295.145 166.134C295.496 166.124 295.822 166.032 296.123 165.859C296.44 165.675 296.783 165.362 297.15 164.918L301.287 166.495C301.103 166.833 300.97 167.084 300.886 167.248C300.786 167.403 300.568 167.634 300.234 167.943C299.917 168.261 299.507 168.565 299.006 168.855C297.635 169.646 296.114 170.042 294.443 170.042C292.771 170.022 291.242 169.612 289.855 168.811L274.787 160.112L279.475 157.405ZM293.388 158.81C293.522 157.286 294.575 155.954 296.547 154.815C298.519 153.677 300.818 153.073 303.442 153.006C306.083 152.929 308.381 153.455 310.336 154.584C312.292 155.713 313.203 157.04 313.069 158.564C312.935 160.07 311.882 161.392 309.91 162.53C307.938 163.669 305.64 164.282 303.016 164.369C300.391 164.436 298.102 163.905 296.146 162.776C294.191 161.647 293.271 160.325 293.388 158.81ZM303.392 160.88C304.445 160.89 305.322 160.692 306.024 160.287C306.726 159.881 307.06 159.38 307.027 158.781C307.01 158.173 306.609 157.643 305.823 157.189C305.038 156.736 304.127 156.499 303.091 156.48C302.054 156.461 301.177 156.658 300.458 157.073C299.74 157.488 299.397 157.995 299.43 158.593C299.464 159.191 299.873 159.717 300.659 160.171C301.444 160.624 302.355 160.861 303.392 160.88ZM320.025 141.666L332.911 149.106C334.783 150.187 335.51 151.465 335.093 152.942C334.708 154.418 333.429 155.783 331.257 157.038C328.198 158.804 324.914 159.417 321.404 158.876L323.56 155.547C324.513 155.576 325.248 155.537 325.766 155.431C326.318 155.325 326.844 155.127 327.346 154.838C328.198 154.346 328.708 153.81 328.875 153.231C329.059 152.642 328.724 152.102 327.872 151.61L326.919 151.06C326.953 152.16 326.201 153.154 324.663 154.042C322.908 155.055 320.827 155.542 318.42 155.504C316.013 155.446 313.824 154.847 311.852 153.709C309.863 152.56 308.826 151.296 308.743 149.916C308.659 148.517 309.495 147.311 311.25 146.298C312.788 145.41 314.509 144.976 316.415 144.995L315.337 144.372L320.025 141.666ZM321.88 151.132C322.599 150.717 322.941 150.211 322.908 149.612C322.875 149.014 322.465 148.488 321.68 148.035C320.877 147.571 319.958 147.33 318.922 147.311C317.885 147.292 317.008 147.489 316.289 147.904C315.52 148.348 315.169 148.86 315.236 149.439C315.286 150.008 315.721 150.529 316.54 151.002C317.342 151.465 318.245 151.716 319.248 151.755C320.234 151.784 321.111 151.576 321.88 151.132Z" fill="#305EED"/>
<line x1="631.483" y1="293.825" x2="631.483" y2="184.607" stroke="url(#paint0_linear)" stroke-width="1.31589"/>
<line x1="631.483" y1="293.825" x2="631.483" y2="184.607" stroke="#305EED" stroke-width="1.31589"/>
<g filter="url(#filter2_d)">
<rect width="253.966" height="205.278" rx="15.3632" transform="matrix(0.866025 -0.5 0.866025 0.5 331.436 192.502)" fill="#2143AB" fill-opacity="0.38"/>
<rect x="1.66312" width="252.046" height="203.358" rx="14.403" transform="matrix(0.866025 -0.5 0.866025 0.5 331.659 193.334)" stroke="#305EED" stroke-opacity="0.3" stroke-width="1.9204"/>
<path d="M457.072 154.257L476.924 165.718L473.013 167.976L457.872 159.235L455.502 163.511L451.916 161.441L454.583 155.693L457.072 154.257ZM472.246 153.604L475.268 151.86C477.302 150.685 479.525 150.075 481.935 150.029C484.325 149.972 486.497 150.508 488.453 151.637C490.468 152.8 491.446 154.14 491.386 155.657C491.327 157.174 490.201 158.565 488.009 159.831C485.915 161.04 483.554 161.707 480.927 161.833C478.32 161.947 475.93 161.377 473.757 160.122L476.868 157.436C478.211 158.212 479.554 158.6 480.897 158.6C482.241 158.6 483.436 158.297 484.483 157.693C485.49 157.111 486.013 156.478 486.053 155.794C486.092 155.087 485.628 154.454 484.66 153.895C483.811 153.405 482.823 153.177 481.697 153.211C480.572 153.245 479.525 153.542 478.557 154.101L471.92 157.932L461.638 151.62L474.112 144.418L477.757 146.522L469.016 151.569L472.246 153.604ZM506.328 141.693C507.908 142.606 508.698 143.666 508.698 144.875C508.698 146.061 507.948 147.213 506.447 148.331L509.706 150.212L506.387 152.128L503.01 150.178C501.034 150.954 498.97 151.37 496.817 151.427C494.664 151.484 492.738 151.079 491.039 150.212L494.21 147.492C495.948 148.382 497.775 148.582 499.691 148.091L495.039 145.405L494.121 145.765C492.501 146.426 490.782 146.803 488.965 146.894C487.148 146.962 485.469 146.552 483.928 145.662C482.388 144.773 481.617 143.746 481.617 142.583C481.617 141.397 482.368 140.245 483.869 139.127L480.61 137.246L483.928 135.33L487.276 137.263C489.192 136.522 491.168 136.168 493.202 136.202C495.237 136.214 497.084 136.641 498.743 137.485L495.513 140.137C494.032 139.259 492.402 139.002 490.624 139.367L494.95 141.864L496.106 141.437C498.002 140.73 499.829 140.393 501.587 140.427C503.326 140.45 504.906 140.872 506.328 141.693ZM487.721 143.199C488.689 143.758 489.884 143.775 491.306 143.25L487.365 140.975C487.01 141.385 486.862 141.79 486.921 142.189C486.98 142.589 487.247 142.925 487.721 143.199ZM498.684 144.02L502.891 146.449C503.385 145.981 503.612 145.531 503.573 145.098C503.533 144.641 503.247 144.259 502.713 143.951C502.219 143.666 501.656 143.524 501.024 143.524C500.392 143.524 499.612 143.689 498.684 144.02Z" fill="white"/>
<path opacity="0.6" d="M488.584 187.092L479.476 181.833L480.556 181.21L481.746 181.897C481.537 181.544 481.514 181.189 481.678 180.831C481.842 180.462 482.188 180.125 482.717 179.82C483.31 179.478 483.966 179.262 484.686 179.173C485.407 179.073 486.145 179.104 486.902 179.268C487.658 179.42 488.392 179.702 489.103 180.112C489.805 180.518 490.293 180.941 490.567 181.383C490.84 181.815 490.895 182.241 490.731 182.663C490.576 183.078 490.202 183.457 489.609 183.799C489.099 184.094 488.529 184.292 487.9 184.392C487.271 184.492 486.66 184.481 486.068 184.36L489.691 186.452L488.584 187.092ZM488.488 183.42C489.108 183.063 489.386 182.649 489.322 182.181C489.249 181.707 488.803 181.233 487.982 180.76C487.152 180.281 486.332 180.023 485.521 179.986C484.709 179.949 483.994 180.11 483.374 180.468C482.754 180.826 482.476 181.239 482.539 181.707C482.603 182.176 483.05 182.649 483.88 183.128C484.7 183.602 485.521 183.86 486.341 183.902C487.152 183.939 487.868 183.778 488.488 183.42ZM496.57 179.781C494.975 180.702 493.297 180.654 491.538 179.639L487.408 177.254L488.516 176.615L492.632 178.991C493.224 179.333 493.78 179.517 494.3 179.544C494.829 179.565 495.353 179.425 495.873 179.125C496.438 178.799 496.711 178.425 496.693 178.004C496.666 177.578 496.338 177.183 495.709 176.82L491.934 174.641L493.042 174.001L499.688 177.838L498.608 178.462L497.486 177.815C497.678 178.167 497.691 178.517 497.527 178.865C497.363 179.202 497.044 179.507 496.57 179.781ZM501.76 176.642L495.114 172.805L496.195 172.181L497.384 172.868C496.938 172.199 497.225 171.523 498.246 170.839L498.602 170.586L499.641 171.091L499.025 171.542C498.451 171.936 498.173 172.328 498.191 172.718C498.2 173.102 498.501 173.465 499.094 173.807L502.882 175.994L501.76 176.642ZM509.522 172.303C508.856 172.687 508.14 172.937 507.375 173.053C506.6 173.164 505.82 173.145 505.036 172.998C504.252 172.84 503.509 172.558 502.807 172.153C501.75 171.543 501.207 170.898 501.18 170.219C501.143 169.534 501.627 168.903 502.629 168.324C503.04 168.087 503.518 167.895 504.065 167.748C504.612 167.6 505.15 167.526 505.679 167.526L506.103 168.213C505.583 168.219 505.105 168.279 504.667 168.395C504.238 168.505 503.883 168.642 503.6 168.805C502.907 169.206 502.593 169.64 502.657 170.108C502.711 170.571 503.144 171.037 503.956 171.506C504.749 171.964 505.565 172.219 506.404 172.272C507.233 172.319 507.995 172.143 508.687 171.743C508.97 171.579 509.207 171.374 509.399 171.127C509.599 170.874 509.699 170.595 509.699 170.29L510.889 170.535C510.889 170.84 510.761 171.156 510.506 171.482C510.251 171.798 509.923 172.072 509.522 172.303ZM512.912 170.204L503.271 164.638L504.378 163.998L508.467 166.359C508.285 166.001 508.289 165.651 508.481 165.309C508.672 164.956 509.014 164.638 509.506 164.353C511.084 163.443 512.747 163.493 514.498 164.503L518.641 166.896L517.534 167.535L513.459 165.182C512.839 164.824 512.264 164.635 511.735 164.614C511.207 164.582 510.678 164.719 510.149 165.024C509.538 165.377 509.242 165.769 509.26 166.201C509.279 166.622 509.602 167.014 510.231 167.377L514.019 169.564L512.912 170.204ZM522.899 164.58C522.443 164.843 521.947 165.03 521.409 165.14C520.871 165.24 520.342 165.261 519.822 165.203C519.303 165.145 518.851 165.006 518.469 164.785C517.985 164.506 517.726 164.214 517.689 163.908C517.662 163.598 517.876 163.243 518.332 162.843C518.788 162.432 519.517 161.937 520.52 161.358L520.957 161.106L520.533 160.861C519.968 160.534 519.444 160.369 518.961 160.363C518.478 160.348 517.981 160.487 517.47 160.782C517.069 161.013 516.741 161.271 516.486 161.556C516.221 161.835 516.021 162.161 515.884 162.535L514.694 162.29C514.795 161.948 515.018 161.592 515.364 161.224C515.72 160.85 516.126 160.532 516.581 160.269C517.438 159.774 518.282 159.529 519.111 159.534C519.95 159.534 520.812 159.79 521.696 160.3L525.88 162.716L524.841 163.316L523.692 162.653C523.911 162.979 523.952 163.314 523.816 163.656C523.688 163.993 523.382 164.301 522.899 164.58ZM522.243 163.995C522.79 163.679 523.05 163.314 523.022 162.898C522.986 162.477 522.676 162.098 522.092 161.761L521.682 161.524L521.258 161.769C520.52 162.195 519.973 162.553 519.617 162.843C519.262 163.122 519.084 163.361 519.084 163.561C519.084 163.751 519.23 163.929 519.522 164.098C519.895 164.314 520.328 164.416 520.821 164.406C521.322 164.39 521.796 164.253 522.243 163.995ZM530.301 160.306C529.782 160.606 529.216 160.848 528.606 161.032C527.995 161.217 527.407 161.319 526.841 161.34L526.418 160.685C527.01 160.648 527.566 160.553 528.086 160.401C528.606 160.238 529.07 160.038 529.481 159.801C530 159.501 530.297 159.219 530.37 158.956C530.443 158.693 530.315 158.466 529.987 158.277C529.731 158.13 529.444 158.064 529.125 158.08C528.797 158.09 528.405 158.18 527.949 158.348L526.431 158.909C525.055 159.419 523.906 159.409 522.985 158.877C522.383 158.53 522.137 158.114 522.247 157.629C522.365 157.14 522.812 156.672 523.587 156.224C524.043 155.961 524.549 155.753 525.105 155.6C525.661 155.437 526.212 155.356 526.759 155.356L527.17 156.019C526.659 156.029 526.162 156.1 525.679 156.232C525.196 156.353 524.781 156.514 524.435 156.714C523.924 157.008 523.637 157.29 523.573 157.558C523.509 157.827 523.641 158.056 523.97 158.245C524.48 158.54 525.146 158.535 525.966 158.23L527.47 157.661C528.182 157.398 528.829 157.261 529.412 157.251C529.987 157.235 530.511 157.364 530.985 157.637C531.596 157.99 531.837 158.408 531.71 158.893C531.573 159.372 531.104 159.843 530.301 160.306ZM537.637 156.071C536.589 156.676 535.454 156.979 534.232 156.979C533.001 156.973 531.857 156.665 530.8 156.055C530.116 155.66 529.651 155.234 529.405 154.776C529.15 154.313 529.118 153.863 529.309 153.426C529.5 152.978 529.911 152.573 530.54 152.21C531.442 151.689 532.441 151.449 533.535 151.491C534.62 151.528 535.668 151.839 536.68 152.423L537.104 152.668L532.099 155.557C532.892 155.973 533.69 156.181 534.492 156.181C535.285 156.176 536.037 155.968 536.748 155.557C537.149 155.326 537.473 155.071 537.719 154.792C537.956 154.507 538.098 154.189 538.143 153.836L539.306 154.065C539.287 154.402 539.128 154.752 538.827 155.115C538.517 155.473 538.12 155.792 537.637 156.071ZM531.388 152.668C530.759 153.031 530.458 153.431 530.485 153.868C530.512 154.305 530.813 154.726 531.388 155.131L535.422 152.802C534.72 152.428 534.018 152.228 533.316 152.202C532.623 152.17 531.98 152.326 531.388 152.668Z" fill="white"/>
<path d="M526.817 198.834L546.669 210.295L542.758 212.553L527.617 203.812L525.247 208.089L521.662 206.019L524.328 200.271L526.817 198.834ZM556.035 209.404L553.102 211.097L546.939 205.486L551.443 202.886L551.532 202.937L556.035 209.404ZM549.456 193.872L552.478 192.127C554.513 190.952 556.735 190.342 559.145 190.297C561.535 190.24 563.708 190.776 565.663 191.905C567.678 193.068 568.656 194.408 568.597 195.925C568.538 197.441 567.412 198.833 565.219 200.099C563.125 201.307 560.765 201.975 558.138 202.1C555.53 202.214 553.14 201.644 550.967 200.389L554.078 197.704C555.422 198.479 556.765 198.867 558.108 198.867C559.451 198.867 560.646 198.565 561.693 197.96C562.701 197.379 563.224 196.746 563.264 196.061C563.303 195.354 562.839 194.721 561.871 194.163C561.022 193.672 560.034 193.444 558.908 193.478C557.782 193.513 556.735 193.809 555.767 194.368L549.13 198.2L538.849 191.887L551.323 184.686L554.967 186.79L546.227 191.836L549.456 193.872ZM583.539 181.961C585.119 182.873 585.909 183.934 585.909 185.143C585.909 186.329 585.158 187.48 583.657 188.598L586.916 190.48L583.598 192.396L580.22 190.446C578.245 191.221 576.181 191.637 574.028 191.694C571.874 191.751 569.949 191.347 568.25 190.48L571.42 187.76C573.158 188.649 574.986 188.849 576.902 188.359L572.25 185.673L571.331 186.032C569.712 186.694 567.993 187.07 566.176 187.161C564.358 187.23 562.679 186.819 561.139 185.929C559.598 185.04 558.828 184.014 558.828 182.85C558.828 181.664 559.578 180.512 561.08 179.395L557.82 177.513L561.139 175.597L564.487 177.53C566.403 176.789 568.378 176.435 570.413 176.47C572.447 176.481 574.294 176.909 575.953 177.753L572.724 180.404C571.242 179.526 569.613 179.269 567.835 179.634L572.161 182.132L573.316 181.704C575.213 180.997 577.04 180.661 578.798 180.695C580.536 180.718 582.116 181.14 583.539 181.961ZM564.931 183.466C565.899 184.025 567.094 184.042 568.516 183.517L564.576 181.242C564.22 181.653 564.072 182.058 564.131 182.457C564.191 182.856 564.457 183.192 564.931 183.466ZM575.894 184.287L580.102 186.716C580.595 186.249 580.823 185.798 580.783 185.365C580.744 184.909 580.457 184.527 579.924 184.219C579.43 183.934 578.867 183.791 578.235 183.791C577.603 183.791 576.823 183.956 575.894 184.287Z" fill="white"/>
<path opacity="0.6" d="M529.256 248.454L520.148 243.196L521.229 242.572L522.419 243.259C522.209 242.907 522.186 242.551 522.35 242.193C522.514 241.825 522.861 241.488 523.389 241.183C523.982 240.841 524.638 240.625 525.359 240.535C526.079 240.435 526.817 240.467 527.574 240.63C528.331 240.783 529.065 241.064 529.776 241.475C530.478 241.88 530.965 242.304 531.239 242.746C531.512 243.178 531.567 243.604 531.403 244.025C531.248 244.441 530.874 244.82 530.282 245.162C529.771 245.457 529.201 245.654 528.572 245.754C527.943 245.854 527.332 245.844 526.74 245.723L530.364 247.815L529.256 248.454ZM529.16 244.783C529.78 244.425 530.058 244.012 529.995 243.544C529.922 243.07 529.475 242.596 528.654 242.122C527.825 241.643 527.004 241.385 526.193 241.349C525.381 241.312 524.666 241.472 524.046 241.83C523.426 242.188 523.148 242.601 523.212 243.07C523.275 243.538 523.722 244.012 524.552 244.491C525.372 244.965 526.193 245.223 527.013 245.265C527.825 245.302 528.54 245.141 529.16 244.783ZM537.242 241.143C535.647 242.064 533.97 242.017 532.21 241.001L528.08 238.617L529.188 237.977L533.304 240.354C533.897 240.696 534.453 240.88 534.972 240.906C535.501 240.927 536.025 240.788 536.545 240.488C537.11 240.162 537.384 239.788 537.365 239.367C537.338 238.941 537.01 238.546 536.381 238.183L532.607 236.003L533.714 235.364L540.36 239.201L539.28 239.825L538.159 239.177C538.35 239.53 538.364 239.88 538.2 240.227C538.036 240.564 537.716 240.87 537.242 241.143ZM545.92 236.133C545.391 236.439 544.808 236.639 544.169 236.733C543.54 236.823 542.921 236.807 542.31 236.686L543.513 237.381L542.433 238.005L532.792 232.438L533.9 231.799L538.043 234.191C537.842 233.854 537.829 233.504 538.002 233.141C538.175 232.778 538.517 232.449 539.028 232.154C539.62 231.812 540.277 231.596 540.997 231.507C541.717 231.407 542.456 231.438 543.212 231.601C543.969 231.754 544.703 232.036 545.414 232.446C546.116 232.852 546.604 233.275 546.877 233.717C547.151 234.149 547.205 234.575 547.041 234.996C546.886 235.412 546.512 235.791 545.92 236.133ZM544.799 235.754C545.418 235.396 545.697 234.983 545.633 234.515C545.56 234.041 545.113 233.567 544.293 233.094C543.463 232.615 542.642 232.357 541.831 232.32C541.02 232.283 540.304 232.444 539.684 232.802C539.064 233.159 538.786 233.573 538.85 234.041C538.914 234.51 539.36 234.983 540.19 235.462C541.011 235.936 541.831 236.194 542.652 236.236C543.463 236.273 544.179 236.112 544.799 235.754ZM552.566 232.296C551.891 232.686 551.185 232.867 550.446 232.841C549.708 232.804 548.96 232.567 548.204 232.13L540.765 227.835L541.872 227.196L549.229 231.443C550.205 232.007 551.08 232.065 551.855 231.617C552.083 231.486 552.261 231.351 552.388 231.215L553.291 231.767C553.072 231.967 552.83 232.144 552.566 232.296ZM546.014 226.352L544.77 225.633L546.137 224.844L547.382 225.562L546.014 226.352ZM554.452 231.065L547.806 227.228L548.913 226.589L555.56 230.426L554.452 231.065ZM559.996 228.006C559.476 228.306 558.911 228.549 558.3 228.733C557.69 228.917 557.101 229.02 556.536 229.041L556.112 228.385C556.705 228.349 557.261 228.254 557.781 228.101C558.3 227.938 558.765 227.738 559.176 227.501C559.695 227.201 559.992 226.92 560.064 226.656C560.137 226.393 560.01 226.167 559.682 225.977C559.426 225.83 559.139 225.764 558.82 225.78C558.492 225.791 558.1 225.88 557.644 226.048L556.126 226.609C554.749 227.12 553.601 227.109 552.68 226.577C552.078 226.23 551.832 225.814 551.941 225.33C552.06 224.84 552.507 224.372 553.282 223.925C553.737 223.661 554.243 223.454 554.8 223.301C555.356 223.138 555.907 223.056 556.454 223.056L556.864 223.719C556.354 223.73 555.857 223.801 555.374 223.932C554.891 224.054 554.476 224.214 554.129 224.414C553.619 224.709 553.332 224.99 553.268 225.259C553.204 225.527 553.336 225.756 553.664 225.946C554.175 226.241 554.841 226.235 555.661 225.93L557.165 225.362C557.876 225.098 558.524 224.962 559.107 224.951C559.682 224.935 560.206 225.064 560.68 225.338C561.291 225.691 561.532 226.109 561.405 226.593C561.268 227.072 560.798 227.543 559.996 228.006ZM564.214 225.429L554.573 219.863L555.681 219.223L559.77 221.584C559.587 221.226 559.592 220.876 559.783 220.534C559.975 220.181 560.317 219.863 560.809 219.579C562.386 218.668 564.05 218.718 565.8 219.729L569.944 222.121L568.836 222.76L564.761 220.408C564.141 220.05 563.567 219.86 563.038 219.839C562.509 219.808 561.98 219.944 561.452 220.25C560.841 220.602 560.545 220.995 560.563 221.426C560.581 221.847 560.905 222.239 561.534 222.603L565.322 224.79L564.214 225.429ZM575.104 219.284C574.056 219.889 572.921 220.192 571.699 220.192C570.469 220.186 569.324 219.878 568.267 219.268C567.583 218.873 567.118 218.447 566.872 217.989C566.617 217.526 566.585 217.076 566.776 216.639C566.968 216.191 567.378 215.786 568.007 215.423C568.91 214.902 569.908 214.662 571.002 214.704C572.087 214.741 573.135 215.052 574.147 215.636L574.571 215.881L569.566 218.77C570.359 219.186 571.157 219.394 571.959 219.394C572.752 219.389 573.504 219.181 574.215 218.77C574.617 218.539 574.94 218.284 575.186 218.005C575.423 217.72 575.565 217.402 575.61 217.049L576.773 217.278C576.754 217.615 576.595 217.965 576.294 218.328C575.984 218.686 575.588 219.005 575.104 219.284ZM568.855 215.881C568.226 216.244 567.925 216.644 567.952 217.081C567.98 217.518 568.28 217.939 568.855 218.344L572.889 216.015C572.187 215.641 571.485 215.441 570.783 215.415C570.09 215.383 569.447 215.539 568.855 215.881ZM579.265 216.74L572.619 212.902L573.699 212.279L574.889 212.966C574.442 212.297 574.729 211.621 575.75 210.937L576.106 210.684L577.145 211.189L576.53 211.639C575.955 212.034 575.677 212.426 575.695 212.816C575.705 213.2 576.005 213.563 576.598 213.905L580.386 216.092L579.265 216.74ZM590.618 210.327C589.953 210.711 589.237 210.961 588.471 211.077C587.696 211.187 586.917 211.169 586.133 211.022C585.349 210.864 584.606 210.582 583.904 210.177C582.846 209.566 582.304 208.921 582.276 208.242C582.24 207.558 582.723 206.927 583.726 206.348C584.136 206.111 584.615 205.919 585.162 205.771C585.709 205.624 586.247 205.55 586.776 205.55L587.199 206.237C586.68 206.242 586.201 206.303 585.764 206.419C585.335 206.529 584.98 206.666 584.697 206.829C584.004 207.229 583.69 207.663 583.753 208.132C583.808 208.595 584.241 209.061 585.052 209.529C585.846 209.987 586.662 210.243 587.5 210.295C588.33 210.343 589.091 210.166 589.784 209.766C590.067 209.603 590.304 209.398 590.495 209.15C590.696 208.898 590.796 208.619 590.796 208.313L591.986 208.558C591.986 208.864 591.858 209.179 591.603 209.506C591.348 209.821 591.019 210.095 590.618 210.327ZM596.76 206.781C596.113 207.154 595.411 207.397 594.654 207.507C593.897 207.618 593.132 207.602 592.357 207.46C591.582 207.307 590.843 207.028 590.141 206.623C589.439 206.218 588.961 205.794 588.705 205.352C588.45 204.899 588.418 204.454 588.61 204.017C588.801 203.581 589.221 203.175 589.868 202.802C590.506 202.433 591.203 202.194 591.96 202.083C592.726 201.967 593.496 201.986 594.271 202.138C595.046 202.28 595.785 202.554 596.487 202.959C597.189 203.365 597.667 203.794 597.922 204.246C598.178 204.689 598.205 205.131 598.004 205.573C597.813 206.01 597.398 206.412 596.76 206.781ZM595.871 206.268C596.491 205.91 596.769 205.496 596.705 205.028C596.632 204.554 596.186 204.081 595.365 203.607C594.536 203.128 593.715 202.87 592.904 202.833C592.092 202.796 591.377 202.957 590.757 203.315C590.128 203.678 589.845 204.094 589.909 204.562C589.982 205.025 590.433 205.496 591.263 205.975C592.083 206.449 592.899 206.71 593.71 206.757C594.522 206.794 595.242 206.631 595.871 206.268ZM601.501 203.902L594.855 200.065L595.935 199.441L597.056 200.088C596.856 199.741 596.828 199.404 596.974 199.078C597.111 198.746 597.416 198.443 597.89 198.17C598.93 197.57 600.047 197.446 601.241 197.799C601.022 197.441 600.99 197.08 601.145 196.717C601.291 196.348 601.619 196.017 602.13 195.722C603.607 194.869 605.22 194.948 606.971 195.959L611.114 198.351L610.007 198.991L605.918 196.63C605.307 196.277 604.751 196.083 604.249 196.046C603.748 195.998 603.251 196.117 602.759 196.401C602.221 196.712 601.984 197.07 602.048 197.475C602.112 197.88 602.463 198.267 603.101 198.635L606.861 200.807L605.754 201.446L601.665 199.086C601.054 198.733 600.498 198.538 599.996 198.501C599.495 198.454 598.998 198.572 598.506 198.857C597.959 199.172 597.717 199.533 597.781 199.938C597.854 200.338 598.21 200.722 598.848 201.091L602.608 203.262L601.501 203.902ZM604.748 192.442L603.503 191.724L604.871 190.934L606.115 191.652L604.748 192.442ZM613.185 197.156L606.539 193.318L607.647 192.679L614.293 196.516L613.185 197.156ZM618.73 194.097C618.21 194.397 617.645 194.639 617.034 194.823C616.423 195.007 615.835 195.11 615.27 195.131L614.846 194.476C615.438 194.439 615.994 194.344 616.514 194.191C617.034 194.028 617.499 193.828 617.909 193.591C618.429 193.291 618.725 193.01 618.798 192.747C618.871 192.483 618.743 192.257 618.415 192.068C618.16 191.92 617.873 191.854 617.553 191.87C617.225 191.881 616.833 191.97 616.377 192.139L614.859 192.699C613.483 193.21 612.334 193.199 611.413 192.668C610.812 192.32 610.565 191.904 610.675 191.42C610.793 190.931 611.24 190.462 612.015 190.015C612.471 189.752 612.977 189.544 613.533 189.391C614.089 189.228 614.641 189.146 615.188 189.146L615.598 189.81C615.087 189.82 614.591 189.891 614.107 190.023C613.624 190.144 613.209 190.304 612.863 190.504C612.352 190.799 612.065 191.081 612.001 191.349C611.938 191.618 612.07 191.847 612.398 192.036C612.908 192.331 613.574 192.326 614.394 192.02L615.899 191.452C616.61 191.189 617.257 191.052 617.841 191.041C618.415 191.025 618.939 191.154 619.413 191.428C620.024 191.781 620.266 192.199 620.138 192.683C620.001 193.162 619.532 193.634 618.73 194.097ZM625.313 190.296C624.794 190.596 624.228 190.838 623.618 191.022C623.007 191.206 622.419 191.309 621.854 191.33L621.43 190.675C622.022 190.638 622.578 190.543 623.098 190.39C623.618 190.227 624.083 190.027 624.493 189.79C625.012 189.49 625.309 189.209 625.382 188.945C625.455 188.682 625.327 188.456 624.999 188.266C624.744 188.119 624.456 188.053 624.137 188.069C623.809 188.08 623.417 188.169 622.961 188.338L621.443 188.898C620.067 189.409 618.918 189.398 617.997 188.866C617.395 188.519 617.149 188.103 617.259 187.619C617.377 187.13 617.824 186.661 618.599 186.214C619.055 185.95 619.561 185.743 620.117 185.59C620.673 185.427 621.224 185.345 621.771 185.345L622.182 186.008C621.671 186.019 621.174 186.09 620.691 186.222C620.208 186.343 619.793 186.503 619.447 186.703C618.936 186.998 618.649 187.28 618.585 187.548C618.521 187.816 618.654 188.045 618.982 188.235C619.492 188.53 620.158 188.524 620.978 188.219L622.483 187.651C623.194 187.387 623.841 187.251 624.424 187.24C624.999 187.224 625.523 187.353 625.997 187.627C626.608 187.98 626.849 188.398 626.722 188.882C626.585 189.361 626.116 189.832 625.313 190.296ZM621.094 183.005L619.849 182.286L621.217 181.497L622.461 182.215L621.094 183.005ZM629.531 187.718L622.885 183.881L623.993 183.242L630.639 187.079L629.531 187.718ZM635.595 184.359C634.948 184.733 634.246 184.975 633.489 185.086C632.733 185.196 631.967 185.18 631.192 185.038C630.417 184.886 629.678 184.607 628.976 184.201C628.274 183.796 627.796 183.372 627.541 182.93C627.285 182.478 627.253 182.033 627.445 181.596C627.636 181.159 628.056 180.754 628.703 180.38C629.341 180.012 630.039 179.772 630.795 179.662C631.561 179.546 632.331 179.564 633.106 179.717C633.881 179.859 634.62 180.133 635.322 180.538C636.024 180.943 636.502 181.372 636.758 181.825C637.013 182.267 637.04 182.709 636.84 183.151C636.648 183.588 636.233 183.991 635.595 184.359ZM634.706 183.846C635.326 183.488 635.604 183.075 635.54 182.607C635.468 182.133 635.021 181.659 634.2 181.185C633.371 180.706 632.55 180.449 631.739 180.412C630.927 180.375 630.212 180.535 629.592 180.893C628.963 181.256 628.68 181.672 628.744 182.141C628.817 182.604 629.268 183.075 630.098 183.554C630.918 184.028 631.734 184.288 632.546 184.336C633.357 184.372 634.077 184.209 634.706 183.846ZM640.308 181.496L633.662 177.659L634.743 177.035L635.878 177.69C635.677 177.322 635.673 176.961 635.864 176.609C636.056 176.256 636.402 175.935 636.903 175.646C638.481 174.735 640.144 174.785 641.895 175.796L646.038 178.188L644.931 178.827L640.855 176.475C640.236 176.117 639.661 175.927 639.132 175.906C638.604 175.875 638.075 176.011 637.546 176.317C636.935 176.669 636.639 177.061 636.657 177.493C636.675 177.914 636.999 178.306 637.628 178.669L641.416 180.856L640.308 181.496Z" fill="white"/>
<rect width="248.702" height="1.31589" transform="matrix(0.866025 -0.5 0.866025 0.5 421.464 241.848)" fill="#B7C8FF" fill-opacity="0.08"/>
</g>
<defs>
<filter id="filter0_b" x="299.375" y="226.764" width="561.481" height="457.104" filterUnits="userSpaceOnUse" color-interpolation-filters="sRGB">
<feFlood flood-opacity="0" result="BackgroundImageFix"/>
<feGaussianBlur in="BackgroundImage" stdDeviation="70.7683"/>
<feComposite in2="SourceAlpha" operator="in" result="effect1_backgroundBlur"/>
<feBlend mode="normal" in="SourceGraphic" in2="effect1_backgroundBlur" result="shape"/>
</filter>
<filter id="filter1_b" x="299.52" y="224.131" width="561.491" height="443.818" filterUnits="userSpaceOnUse" color-interpolation-filters="sRGB">
<feFlood flood-opacity="0" result="BackgroundImageFix"/>
<feGaussianBlur in="BackgroundImage" stdDeviation="70.7683"/>
<feComposite in2="SourceAlpha" operator="in" result="effect1_backgroundBlur"/>
<feBlend mode="normal" in="SourceGraphic" in2="effect1_backgroundBlur" result="shape"/>
</filter>
<filter id="filter2_d" x="229.917" y="0.456076" width="561.005" height="399.498" filterUnits="userSpaceOnUse" color-interpolation-filters="sRGB">
<feFlood flood-opacity="0" result="BackgroundImageFix"/>
<feColorMatrix in="SourceAlpha" type="matrix" values="0 0 0 0 0 0 0 0 0 0 0 0 0 0 0 0 0 0 127 0"/>
<feOffset dx="-19.875" dy="19.875"/>
<feGaussianBlur stdDeviation="44.7189"/>
<feColorMatrix type="matrix" values="0 0 0 0 0 0 0 0 0 0 0 0 0 0 0 0 0 0 0.25 0"/>
<feBlend mode="normal" in2="BackgroundImageFix" result="effect1_dropShadow"/>
<feBlend mode="normal" in="SourceGraphic" in2="effect1_dropShadow" result="shape"/>
</filter>
<filter id="filter3_b" x="224.006" y="-45.2052" width="612.577" height="451.071" filterUnits="userSpaceOnUse" color-interpolation-filters="sRGB">
<feFlood flood-opacity="0" result="BackgroundImageFix"/>
<feGaussianBlur in="BackgroundImage" stdDeviation="57.612"/>
<feComposite in2="SourceAlpha" operator="in" result="effect1_backgroundBlur"/>
<feBlend mode="normal" in="SourceGraphic" in2="effect1_backgroundBlur" result="shape"/>
</filter>
<linearGradient id="paint0_linear" x1="633.514" y1="292.637" x2="633.514" y2="185.795" gradientUnits="userSpaceOnUse">
<stop stop-color="#305EED"/>
<stop offset="0.357071" stop-color="white"/>
</linearGradient>
<clipPath id="clip0">
<rect width="18.4224" height="18.4224" fill="white" transform="matrix(-0.866025 0.5 0.866025 0.5 666.476 235.926)"/>
</clipPath>
</defs>
</svg>
