<svg width="537" height="535" viewBox="0 0 537 535" fill="none" xmlns="http://www.w3.org/2000/svg">
<path d="M18.9164 190.666L7.39019 203.55C6.07796 205.017 5.35248 206.916 5.35248 208.884V518.539C5.35248 525.166 10.7251 530.539 17.3525 530.539H189.936C193.055 530.539 196.052 529.324 198.291 527.152L209.479 516.299C210.256 515.546 210.694 514.51 210.694 513.428V193C210.694 190.791 208.903 189 206.694 189H22.6428C21.2202 189 19.8649 189.606 18.9164 190.666Z" fill="#D5DFE9"/>
<path d="M18 195C18 190.582 21.5817 187 26 187H202.995C207.414 187 210.995 190.582 210.995 195V509.334C210.995 513.752 207.414 517.334 202.995 517.334H26C21.5817 517.334 18 513.752 18 509.334V195Z" fill="#F8FAFD"/>
<rect width="80" height="21" rx="2" transform="matrix(1 0 0 -1 28 424)" fill="#E6EFFA"/>
<rect width="137" height="13" rx="2" transform="matrix(1 0 0 -1 28 456)" fill="#E6EFFA"/>
<rect width="123" height="13" rx="2" transform="matrix(1 0 0 -1 28 476)" fill="#E6EFFA"/>
<rect width="86" height="13" rx="2" transform="matrix(1 0 0 -1 28 496)" fill="#E6EFFA"/>
<rect x="27" y="352" width="173" height="35" rx="10" fill="#305EED"/>
<path d="M104.886 367.81V367.87C105.476 367.89 105.976 368.09 106.386 368.47C106.806 368.84 107.016 369.405 107.016 370.165C107.016 371.025 106.711 371.715 106.101 372.235C105.491 372.745 104.661 373 103.611 373H98.1506V362.95H103.611C104.551 362.95 105.301 363.195 105.861 363.685C106.431 364.175 106.716 364.825 106.716 365.635C106.716 366.315 106.521 366.845 106.131 367.225C105.751 367.595 105.336 367.79 104.886 367.81ZM101.031 365.185V367.045H102.816C103.136 367.045 103.396 366.96 103.596 366.79C103.796 366.61 103.896 366.38 103.896 366.1C103.896 365.83 103.796 365.61 103.596 365.44C103.406 365.27 103.161 365.185 102.861 365.185H101.031ZM101.031 370.765H102.966C103.306 370.765 103.571 370.675 103.761 370.495C103.961 370.305 104.061 370.06 104.061 369.76C104.061 369.48 103.961 369.255 103.761 369.085C103.571 368.915 103.316 368.83 102.996 368.83H101.031V370.765ZM117.726 362.95V368.455C117.726 369.905 117.306 371.065 116.466 371.935C115.636 372.795 114.531 373.225 113.151 373.225C111.731 373.225 110.591 372.795 109.731 371.935C108.871 371.075 108.441 369.915 108.441 368.455V362.95H111.336V368.455C111.336 369.135 111.501 369.665 111.831 370.045C112.161 370.425 112.601 370.615 113.151 370.615C113.661 370.615 114.066 370.425 114.366 370.045C114.676 369.655 114.831 369.125 114.831 368.455V362.95H117.726ZM129.514 362.95L125.584 369.925V373H122.584V369.925L118.789 362.95H121.954L124.144 367.03L126.319 362.95H129.514Z" fill="white"/>
<path d="M18 195C18 190.582 21.5817 187 26 187H203C207.418 187 211 190.582 211 195V343H18V195Z" fill="#E7F0FF"/>
<rect x="26.9258" y="208.258" width="82.0714" height="115.99" fill="#C7E2FF"/>
<rect x="119.702" y="229.672" width="62.4456" height="17.8447" fill="#C7E2FF"/>
<circle cx="196" cy="203" r="10.5" stroke="#305EED" stroke-opacity="0.2"/>
<line x1="195.646" y1="203.646" x2="278.646" y2="120.646" stroke="url(#paint0_linear)"/>
<line x1="195.646" y1="203.646" x2="278.646" y2="120.646" stroke="white"/>
<line x1="195.646" y1="370.646" x2="278.646" y2="287.646" stroke="url(#paint1_linear)"/>
<line x1="195.646" y1="370.646" x2="278.646" y2="287.646" stroke="white"/>
<rect x="140" y="263" width="173" height="35" rx="10" fill="#53D084"/>
<path d="M217.886 278.81V278.87C218.476 278.89 218.976 279.09 219.386 279.47C219.806 279.84 220.016 280.405 220.016 281.165C220.016 282.025 219.711 282.715 219.101 283.235C218.491 283.745 217.661 284 216.611 284H211.151V273.95H216.611C217.551 273.95 218.301 274.195 218.861 274.685C219.431 275.175 219.716 275.825 219.716 276.635C219.716 277.315 219.521 277.845 219.131 278.225C218.751 278.595 218.336 278.79 217.886 278.81ZM214.031 276.185V278.045H215.816C216.136 278.045 216.396 277.96 216.596 277.79C216.796 277.61 216.896 277.38 216.896 277.1C216.896 276.83 216.796 276.61 216.596 276.44C216.406 276.27 216.161 276.185 215.861 276.185H214.031ZM214.031 281.765H215.966C216.306 281.765 216.571 281.675 216.761 281.495C216.961 281.305 217.061 281.06 217.061 280.76C217.061 280.48 216.961 280.255 216.761 280.085C216.571 279.915 216.316 279.83 215.996 279.83H214.031V281.765ZM230.726 273.95V279.455C230.726 280.905 230.306 282.065 229.466 282.935C228.636 283.795 227.531 284.225 226.151 284.225C224.731 284.225 223.591 283.795 222.731 282.935C221.871 282.075 221.441 280.915 221.441 279.455V273.95H224.336V279.455C224.336 280.135 224.501 280.665 224.831 281.045C225.161 281.425 225.601 281.615 226.151 281.615C226.661 281.615 227.066 281.425 227.366 281.045C227.676 280.655 227.831 280.125 227.831 279.455V273.95H230.726ZM242.514 273.95L238.584 280.925V284H235.584V280.925L231.789 273.95H234.954L237.144 278.03L239.319 273.95H242.514Z" fill="white"/>
<path d="M431.886 278.81V278.87C432.476 278.89 432.976 279.09 433.386 279.47C433.806 279.84 434.016 280.405 434.016 281.165C434.016 282.025 433.711 282.715 433.101 283.235C432.491 283.745 431.661 284 430.611 284H425.151V273.95H430.611C431.551 273.95 432.301 274.195 432.861 274.685C433.431 275.175 433.716 275.825 433.716 276.635C433.716 277.315 433.521 277.845 433.131 278.225C432.751 278.595 432.336 278.79 431.886 278.81ZM428.031 276.185V278.045H429.816C430.136 278.045 430.396 277.96 430.596 277.79C430.796 277.61 430.896 277.38 430.896 277.1C430.896 276.83 430.796 276.61 430.596 276.44C430.406 276.27 430.161 276.185 429.861 276.185H428.031ZM428.031 281.765H429.966C430.306 281.765 430.571 281.675 430.761 281.495C430.961 281.305 431.061 281.06 431.061 280.76C431.061 280.48 430.961 280.255 430.761 280.085C430.571 279.915 430.316 279.83 429.996 279.83H428.031V281.765ZM444.726 273.95V279.455C444.726 280.905 444.306 282.065 443.466 282.935C442.636 283.795 441.531 284.225 440.151 284.225C438.731 284.225 437.591 283.795 436.731 282.935C435.871 282.075 435.441 280.915 435.441 279.455V273.95H438.336V279.455C438.336 280.135 438.501 280.665 438.831 281.045C439.161 281.425 439.601 281.615 440.151 281.615C440.661 281.615 441.066 281.425 441.366 281.045C441.676 280.655 441.831 280.125 441.831 279.455V273.95H444.726ZM456.514 273.95L452.584 280.925V284H449.584V280.925L445.789 273.95H448.954L451.144 278.03L453.319 273.95H456.514Z" fill="#305EED"/>
<rect x="354.5" y="263.5" width="172" height="34" rx="9.5" stroke="#305EED"/>
<rect x="131" width="193" height="156" rx="8" fill="white"/>
<rect x="140" y="10" width="174" height="86" fill="#C7E1FF"/>
<rect x="140" y="108" width="62.4456" height="17.8447" fill="#C7E1FF"/>
<rect x="140" y="132.982" width="80.2872" height="8.92233" fill="#C7E1FF"/>
<path d="M278.193 115.26V130H274.035V120.144L270.625 121.882V117.988L275.465 115.26H278.193ZM284.929 120.386H286.777C288.493 120.386 289.813 120.811 290.737 121.662C291.661 122.513 292.123 123.679 292.123 125.16C292.123 126.7 291.595 127.947 290.539 128.9C289.483 129.853 288.097 130.33 286.381 130.33C284.738 130.33 283.36 129.89 282.245 129.01C281.13 128.115 280.529 126.876 280.441 125.292L284.445 124.544C284.46 125.336 284.658 125.915 285.039 126.282C285.42 126.649 285.882 126.832 286.425 126.832C286.953 126.832 287.378 126.685 287.701 126.392C288.024 126.099 288.185 125.703 288.185 125.204C288.185 124.749 288.016 124.383 287.679 124.104C287.342 123.811 286.894 123.664 286.337 123.664H281.123L281.453 115.238H291.507V118.846H284.995L284.929 120.386ZM304.752 123.708L308.844 124.522C308.594 126.253 307.876 127.653 306.688 128.724C305.514 129.795 304.055 130.33 302.31 130.33C300.726 130.33 299.369 129.875 298.24 128.966C297.125 128.057 296.355 126.81 295.93 125.226H294.038V123.114H295.622V122.63V122.146H294.038V120.056H295.93C296.34 118.472 297.11 117.225 298.24 116.316C299.369 115.392 300.726 114.93 302.31 114.93C304.04 114.93 305.485 115.458 306.644 116.514C307.802 117.57 308.528 118.956 308.822 120.672L304.752 121.442C304.414 119.477 303.6 118.494 302.31 118.494C301.386 118.494 300.696 119.015 300.242 120.056H303.476L303.058 122.146H299.824L299.802 122.63C299.802 122.85 299.809 123.011 299.824 123.114H302.904L302.486 125.226H300.242C300.696 126.253 301.386 126.766 302.31 126.766C303.571 126.766 304.385 125.747 304.752 123.708Z" fill="#305EED"/>
<rect x="344.5" y="0.5" width="192" height="155" rx="7.5" stroke="#305EED"/>
<rect x="441.287" y="17" width="82.0714" height="115.99" fill="#305EED"/>
<rect x="358" y="38.4136" width="52.4456" height="17.8447" fill="#305EED"/>
<rect x="358" y="63.396" width="70.2872" height="8.92233" fill="#305EED"/>
<path d="M366.491 93.0017V107.742H362.333V97.8857L358.923 99.6237V95.7297L363.763 93.0017H366.491ZM373.227 98.1277H375.075C376.791 98.1277 378.111 98.553 379.035 99.4037C379.959 100.254 380.421 101.42 380.421 102.902C380.421 104.442 379.893 105.688 378.837 106.642C377.781 107.595 376.395 108.072 374.679 108.072C373.037 108.072 371.658 107.632 370.543 106.752C369.429 105.857 368.827 104.618 368.739 103.034L372.743 102.286C372.758 103.078 372.956 103.657 373.337 104.024C373.719 104.39 374.181 104.574 374.723 104.574C375.251 104.574 375.677 104.427 375.999 104.134C376.322 103.84 376.483 103.444 376.483 102.946C376.483 102.491 376.315 102.124 375.977 101.846C375.64 101.552 375.193 101.406 374.635 101.406H369.421L369.751 92.9797H379.805V96.5877H373.293L373.227 98.1277ZM393.05 101.45L397.142 102.264C396.893 103.994 396.174 105.395 394.986 106.466C393.813 107.536 392.353 108.072 390.608 108.072C389.024 108.072 387.667 107.617 386.538 106.708C385.423 105.798 384.653 104.552 384.228 102.968H382.336V100.856H383.92V100.372V99.8877H382.336V97.7977H384.228C384.639 96.2137 385.409 94.967 386.538 94.0577C387.667 93.1337 389.024 92.6717 390.608 92.6717C392.339 92.6717 393.783 93.1997 394.942 94.2557C396.101 95.3117 396.827 96.6977 397.12 98.4137L393.05 99.1837C392.713 97.2184 391.899 96.2357 390.608 96.2357C389.684 96.2357 388.995 96.7564 388.54 97.7977H391.774L391.356 99.8877H388.122L388.1 100.372C388.1 100.592 388.107 100.753 388.122 100.856H391.202L390.784 102.968H388.54C388.995 103.994 389.684 104.508 390.608 104.508C391.869 104.508 392.683 103.488 393.05 101.45Z" fill="white"/>
<defs>
<feFlood flood-opacity="0" result="BackgroundImageFix"/>
<feGaussianBlur in="BackgroundImage" stdDeviation="30"/>
<feComposite in2="SourceAlpha" operator="in" result="effect1_backgroundBlur"/>
<feBlend mode="normal" in="SourceGraphic" in2="effect1_backgroundBlur" result="shape"/>
<linearGradient id="paint0_linear" x1="197.61" y1="203.804" x2="278.804" y2="122.61" gradientUnits="userSpaceOnUse">
<stop stop-color="#305EED"/>
<stop offset="0.357071" stop-color="white"/>
</linearGradient>
<linearGradient id="paint1_linear" x1="197.61" y1="370.804" x2="278.804" y2="289.61" gradientUnits="userSpaceOnUse">
<stop stop-color="#305EED"/>
<stop offset="0.357071" stop-color="white"/>
</linearGradient>
</defs>
</svg>
