<svg viewBox="0 0 687 569" fill="none" xmlns="http://www.w3.org/2000/svg">
<g transform="matrix(1,0,0,1,-80,40)">
<path d="M165.655 323.393L166.727 334.521C166.849 335.788 167.776 336.985 169.33 337.882L413.848 479.055C419.082 482.077 427.567 482.077 432.8 479.055L569.08 400.374C571.544 398.951 572.951 397.031 573.004 395.02L573.269 384.972C573.287 384.274 572.815 383.602 571.961 383.109L318.935 237.024C317.19 236.017 314.362 236.017 312.618 237.024L167.282 320.934C166.158 321.583 165.567 322.477 165.655 323.393Z" fill="#D5DFE9"/>
<path d="M168.353 325.786C164.864 323.772 164.864 320.506 168.353 318.492L308.117 237.799C311.606 235.785 317.263 235.785 320.752 237.799L568.966 381.105C572.455 383.12 572.455 386.385 568.966 388.4L429.201 469.093C425.713 471.107 420.056 471.107 416.567 469.093L168.353 325.786Z" fill="#F8FAFD"/>
<rect width="72.9447" height="19.148" rx="1.82362" transform="matrix(0.866025 -0.5 -0.866025 -0.5 323.914 406.481)" fill="#E6EFFA"/>
<rect width="124.918" height="11.8535" rx="1.82362" transform="matrix(0.866025 -0.5 -0.866025 -0.5 349.183 421.07)" fill="#E6EFFA"/>
<rect width="112.152" height="11.8535" rx="1.82362" transform="matrix(0.866025 -0.5 -0.866025 -0.5 364.976 430.188)" fill="#E6EFFA"/>
<rect width="78.4155" height="11.8535" rx="1.82362" transform="matrix(0.866025 -0.5 -0.866025 -0.5 380.769 439.307)" fill="#E6EFFA"/>
<rect width="157.653" height="31.9417" rx="9.11809" transform="matrix(0.866025 -0.5 0.866025 0.5 394.193 447.969)" fill="#305EED"/>
<path d="M468.42 419.852L468.468 419.88C468.949 419.62 469.502 419.483 470.126 419.469C470.75 419.446 471.362 419.608 471.962 419.955C472.641 420.347 472.945 420.8 472.874 421.316C472.795 421.826 472.341 422.321 471.512 422.8L467.2 425.289L459.264 420.707L463.576 418.218C464.318 417.789 465.104 417.559 465.933 417.527C466.77 417.491 467.508 417.657 468.148 418.026C468.685 418.336 468.949 418.667 468.942 419.018C468.934 419.36 468.76 419.638 468.42 419.852ZM463.303 420.413L464.772 421.261L466.182 420.447C466.434 420.301 466.573 420.144 466.596 419.975C466.612 419.802 466.509 419.652 466.288 419.524C466.075 419.401 465.822 419.346 465.53 419.36C465.246 419.369 464.985 419.442 464.749 419.579L463.303 420.413ZM467.71 422.957L469.238 422.075C469.506 421.92 469.644 421.758 469.652 421.589C469.66 421.411 469.546 421.254 469.309 421.117C469.088 420.99 468.831 420.933 468.539 420.946C468.255 420.955 467.986 421.033 467.733 421.179L466.182 422.075L467.71 422.957ZM474.722 411.782L479.069 414.292C480.214 414.953 480.799 415.674 480.822 416.453C480.846 417.224 480.313 417.923 479.223 418.553C478.102 419.2 476.862 419.524 475.504 419.524C474.146 419.524 472.89 419.191 471.737 418.525L467.39 416.016L469.676 414.696L474.023 417.205C474.56 417.515 475.109 417.682 475.67 417.705C476.23 417.727 476.728 417.613 477.162 417.363C477.565 417.13 477.735 416.859 477.672 416.549C477.608 416.23 477.312 415.917 476.783 415.612L472.436 413.102L474.722 411.782ZM484.03 406.408L486.435 411.38L488.863 412.782L486.494 414.15L484.066 412.748L475.561 411.298L478.061 409.855L483.012 410.717L481.507 407.865L484.03 406.408Z" fill="white"/>
<path d="M168.353 325.786C164.864 323.772 164.864 320.506 168.353 318.492L308.121 237.797C311.61 235.783 317.267 235.783 320.756 237.797L437.624 305.271L285.221 393.26L168.353 325.786Z" fill="#E7F0FF"/>
<rect width="74.8334" height="105.761" transform="matrix(0.866025 -0.5 0.866025 0.5 185.871 327.762)" fill="#C7E2FF"/>
<rect width="56.9385" height="16.2709" transform="matrix(0.866025 -0.5 0.866025 0.5 276.041 295.227)" fill="#C7E2FF"/>
<rect width="73.2066" height="8.13546" transform="matrix(0.866025 -0.5 0.866025 0.5 295.768 306.617)" fill="#C7E2FF"/>
<path d="M325.671 316.375L337.311 323.095L334.027 324.991L326.245 320.498L324.924 322.845L321.849 321.069L323.517 317.619L325.671 316.375ZM335.038 315.641L336.498 314.799C337.853 314.016 339.231 313.608 340.632 313.575C342.034 313.542 343.319 313.863 344.489 314.538C345.705 315.24 346.273 316.049 346.191 316.965C346.11 317.881 345.392 318.73 344.037 319.513C342.74 320.262 341.304 320.69 339.729 320.797C338.142 320.897 336.689 320.606 335.369 319.924L337.94 317.757C338.577 318.112 339.19 318.286 339.781 318.279C340.372 318.272 340.881 318.145 341.31 317.898C341.727 317.657 341.947 317.396 341.97 317.116C341.993 316.835 341.808 316.581 341.414 316.353C341.055 316.146 340.632 316.056 340.146 316.083C339.648 316.103 339.179 316.24 338.739 316.494L334.621 318.871L328.228 314.879L336.168 310.295L339.017 311.94L333.874 314.909L335.038 315.641ZM353.315 308.118L357.189 306.624C358.358 307.527 358.897 308.493 358.804 309.523C358.723 310.546 357.994 311.455 356.615 312.251C355.365 312.973 353.934 313.384 352.324 313.484C350.726 313.578 349.134 313.361 347.547 312.833L346.053 313.695L344.385 312.732L345.636 312.01L345.254 311.789L344.872 311.569L343.621 312.291L341.971 311.338L343.465 310.475C342.538 309.566 342.162 308.647 342.335 307.717C342.497 306.781 343.204 305.952 344.455 305.23C345.821 304.441 347.379 304.023 349.128 303.976C350.877 303.929 352.544 304.23 354.131 304.879L351.525 307.085C349.707 306.343 348.288 306.266 347.269 306.855C346.539 307.276 346.406 307.828 346.87 308.51L349.423 307.035L350.744 308.179L348.19 309.653L348.555 309.884C348.728 309.984 348.862 310.054 348.954 310.094L351.386 308.69L352.724 309.844L350.952 310.867C352.122 311.127 353.071 311.047 353.801 310.626C354.797 310.051 354.635 309.215 353.315 308.118Z" fill="#305EED"/>
<circle r="9.57399" transform="matrix(0.866025 -0.5 0.866025 0.5 315.228 248.282)" stroke="#305EED" stroke-opacity="0.2" stroke-width="0.911809"/>
<line x1="315.459" y1="248.738" x2="315.459" y2="173.058" stroke="url(#paint0_linear)" stroke-width="0.911809"/>
<line x1="315.459" y1="248.738" x2="315.459" y2="173.058" stroke="white" stroke-width="0.911809"/>
<line x1="542.089" y1="379.583" x2="542.089" y2="303.903" stroke="url(#paint1_linear)" stroke-width="0.911809"/>
<line x1="542.089" y1="379.583" x2="542.089" y2="303.903" stroke="white" stroke-width="0.911809"/>
<rect width="157.653" height="31.9417" rx="9.11809" transform="matrix(0.866025 -0.5 0.866025 0.5 413.145 355.876)" fill="#53D084"/>
<path d="M487.372 327.759L487.419 327.787C487.901 327.527 488.454 327.39 489.078 327.376C489.702 327.354 490.314 327.516 490.914 327.862C491.593 328.254 491.897 328.708 491.826 329.223C491.747 329.734 491.293 330.228 490.464 330.707L486.152 333.196L478.216 328.614L482.528 326.125C483.27 325.696 484.056 325.466 484.885 325.434C485.722 325.398 486.46 325.564 487.1 325.934C487.637 326.244 487.901 326.574 487.893 326.925C487.885 327.267 487.712 327.545 487.372 327.759ZM482.255 328.32L483.724 329.168L485.133 328.354C485.386 328.209 485.524 328.051 485.548 327.883C485.564 327.709 485.461 327.559 485.24 327.431C485.027 327.308 484.774 327.253 484.482 327.267C484.198 327.276 483.937 327.349 483.7 327.486L482.255 328.32ZM486.661 330.864L488.189 329.982C488.458 329.827 488.596 329.665 488.604 329.496C488.612 329.319 488.497 329.161 488.26 329.025C488.039 328.897 487.783 328.84 487.491 328.854C487.206 328.863 486.938 328.94 486.685 329.086L485.133 329.982L486.661 330.864ZM493.674 319.69L498.021 322.199C499.166 322.86 499.75 323.581 499.774 324.36C499.798 325.131 499.265 325.831 498.175 326.46C497.054 327.107 495.814 327.431 494.456 327.431C493.097 327.431 491.842 327.098 490.689 326.432L486.342 323.923L488.628 322.603L492.975 325.113C493.512 325.423 494.061 325.589 494.622 325.612C495.182 325.635 495.68 325.521 496.114 325.27C496.517 325.037 496.686 324.766 496.623 324.456C496.56 324.137 496.264 323.825 495.735 323.519L491.388 321.01L493.674 319.69ZM502.982 314.316L505.387 319.287L507.815 320.689L505.446 322.057L503.018 320.655L494.513 319.205L497.012 317.762L501.963 318.624L500.459 315.772L502.982 314.316Z" fill="white"/>
<path d="M656.199 230.105L656.247 230.132C656.728 229.872 657.281 229.735 657.905 229.722C658.529 229.699 659.141 229.861 659.741 230.207C660.42 230.599 660.724 231.053 660.653 231.568C660.574 232.079 660.12 232.573 659.291 233.052L654.979 235.541L647.043 230.959L651.355 228.47C652.097 228.042 652.883 227.811 653.712 227.78C654.549 227.743 655.287 227.909 655.927 228.279C656.464 228.589 656.728 228.919 656.72 229.27C656.712 229.612 656.539 229.89 656.199 230.105ZM651.082 230.665L652.551 231.513L653.961 230.7C654.213 230.554 654.351 230.396 654.375 230.228C654.391 230.055 654.288 229.904 654.067 229.776C653.854 229.653 653.601 229.599 653.309 229.612C653.025 229.621 652.764 229.694 652.527 229.831L651.082 230.665ZM655.489 233.209L657.016 232.327C657.285 232.172 657.423 232.01 657.431 231.842C657.439 231.664 657.324 231.507 657.088 231.37C656.866 231.242 656.61 231.185 656.318 231.199C656.033 231.208 655.765 231.285 655.512 231.431L653.961 232.327L655.489 233.209ZM662.501 222.035L666.848 224.545C667.993 225.206 668.577 225.926 668.601 226.706C668.625 227.476 668.092 228.176 667.002 228.805C665.881 229.452 664.641 229.776 663.283 229.776C661.925 229.776 660.669 229.443 659.516 228.778L655.169 226.268L657.455 224.948L661.802 227.458C662.339 227.768 662.888 227.934 663.449 227.957C664.009 227.98 664.507 227.866 664.941 227.615C665.344 227.383 665.514 227.111 665.45 226.801C665.387 226.482 665.091 226.17 664.562 225.864L660.215 223.355L662.501 222.035ZM671.809 216.661L674.214 221.632L676.642 223.034L674.273 224.402L671.845 223L663.34 221.55L665.839 220.107L670.791 220.969L669.286 218.117L671.809 216.661Z" fill="#305EED"/>
<rect x="0.789649" width="156.741" height="31.0299" rx="8.66218" transform="matrix(0.866025 -0.5 0.866025 0.5 582.077 258.616)" stroke="#305EED" stroke-width="0.911809"/>
<rect width="175.979" height="142.242" rx="7.29447" transform="matrix(0.866025 -0.5 0.866025 0.5 103.444 185.276)" fill="white"/>
<rect width="158.655" height="78.4155" transform="matrix(0.866025 -0.5 0.866025 0.5 118.447 185.732)" fill="#C7E1FF"/>
<rect width="56.9385" height="16.2709" transform="matrix(0.866025 -0.5 0.866025 0.5 195.833 230.411)" fill="#C7E1FF"/>
<rect width="73.2066" height="8.13546" transform="matrix(0.866025 -0.5 0.866025 0.5 215.56 241.801)" fill="#C7E1FF"/>
<path d="M310.51 170.851L322.149 177.571L318.866 179.466L311.083 174.973L309.763 177.32L306.688 175.544L308.356 172.094L310.51 170.851ZM319.877 170.116L321.336 169.274C322.691 168.491 324.069 168.084 325.471 168.05C326.872 168.017 328.158 168.338 329.327 169.013C330.543 169.715 331.111 170.524 331.03 171.44C330.949 172.356 330.231 173.205 328.876 173.988C327.579 174.737 326.142 175.165 324.567 175.272C322.981 175.372 321.527 175.081 320.207 174.399L322.778 172.233C323.415 172.587 324.029 172.761 324.62 172.754C325.21 172.747 325.72 172.62 326.148 172.373C326.565 172.132 326.785 171.872 326.808 171.591C326.832 171.31 326.646 171.056 326.253 170.828C325.893 170.621 325.471 170.531 324.984 170.558C324.486 170.578 324.017 170.715 323.577 170.969L319.46 173.346L313.067 169.354L321.006 164.77L323.855 166.415L318.713 169.384L319.877 170.116ZM338.153 162.594L342.027 161.099C343.197 162.002 343.735 162.968 343.643 163.998C343.562 165.021 342.832 165.93 341.454 166.726C340.203 167.448 338.773 167.859 337.163 167.96C335.565 168.053 333.972 167.836 332.385 167.308L330.891 168.17L329.224 167.207L330.475 166.485L330.092 166.264L329.71 166.044L328.459 166.766L326.809 165.813L328.303 164.951C327.376 164.041 327 163.122 327.174 162.192C327.336 161.256 328.042 160.427 329.293 159.705C330.66 158.916 332.218 158.498 333.966 158.451C335.715 158.404 337.383 158.705 338.97 159.354L336.364 161.56C334.545 160.818 333.127 160.741 332.108 161.33C331.378 161.751 331.245 162.303 331.708 162.985L334.262 161.51L335.582 162.654L333.028 164.128L333.393 164.359C333.567 164.459 333.7 164.529 333.793 164.569L336.225 163.165L337.562 164.319L335.79 165.342C336.96 165.603 337.91 165.522 338.639 165.101C339.635 164.526 339.473 163.69 338.153 162.594Z" fill="#305EED"/>
<rect x="0.789649" width="175.067" height="141.33" rx="6.83856" transform="matrix(0.866025 -0.5 0.866025 0.5 271.745 88.5638)" stroke="#305EED" stroke-width="0.911809"/>
<rect width="74.8334" height="105.761" transform="matrix(0.866025 -0.5 0.866025 0.5 361.886 51.5654)" fill="#305EED"/>
<rect width="47.8204" height="16.2709" transform="matrix(0.866025 -0.5 0.866025 0.5 313.028 99.2993)" fill="#305EED"/>
<rect width="64.0885" height="8.13546" transform="matrix(0.866025 -0.5 0.866025 0.5 332.755 110.689)" fill="#305EED"/>
<path d="M362.658 120.448L374.298 127.168L371.014 129.063L363.231 124.57L361.911 126.917L358.836 125.142L360.504 121.691L362.658 120.448ZM372.025 119.713L373.485 118.871C374.84 118.089 376.218 117.681 377.619 117.647C379.021 117.614 380.306 117.935 381.476 118.61C382.692 119.312 383.259 120.121 383.178 121.037C383.097 121.953 382.379 122.803 381.024 123.585C379.727 124.334 378.291 124.762 376.716 124.869C375.129 124.969 373.676 124.678 372.355 123.996L374.926 121.83C375.563 122.184 376.177 122.358 376.768 122.351C377.359 122.345 377.868 122.218 378.297 121.97C378.714 121.729 378.934 121.469 378.957 121.188C378.98 120.907 378.795 120.653 378.401 120.426C378.042 120.218 377.619 120.128 377.133 120.155C376.635 120.175 376.166 120.312 375.726 120.566L371.608 122.943L365.215 118.951L373.155 114.368L376.004 116.012L370.861 118.981L372.025 119.713ZM390.301 112.191L394.176 110.696C395.345 111.599 395.884 112.565 395.791 113.595C395.71 114.618 394.98 115.527 393.602 116.323C392.351 117.045 390.921 117.456 389.311 117.557C387.713 117.65 386.121 117.433 384.534 116.905L383.04 117.767L381.372 116.804L382.623 116.082L382.241 115.862L381.859 115.641L380.608 116.363L378.957 115.41L380.451 114.548C379.525 113.638 379.148 112.719 379.322 111.79C379.484 110.853 380.191 110.024 381.442 109.302C382.808 108.513 384.366 108.095 386.115 108.048C387.864 108.002 389.531 108.302 391.118 108.951L388.512 111.158C386.694 110.415 385.275 110.339 384.256 110.927C383.526 111.348 383.393 111.9 383.856 112.582L386.41 111.107L387.73 112.251L385.177 113.725L385.541 113.956C385.715 114.056 385.848 114.126 385.941 114.167L388.373 112.762L389.711 113.916L387.939 114.939C389.109 115.2 390.058 115.119 390.788 114.698C391.784 114.123 391.622 113.287 390.301 112.191Z" fill="white"/>
</g>
<defs>
<linearGradient id="paint0_linear" x1="317.243" y1="247.915" x2="317.243" y2="173.882" gradientUnits="userSpaceOnUse">
<stop stop-color="#305EED"/>
<stop offset="0.357071" stop-color="white"/>
</linearGradient>
<linearGradient id="paint1_linear" x1="543.872" y1="378.76" x2="543.872" y2="304.726" gradientUnits="userSpaceOnUse">
<stop stop-color="#305EED"/>
<stop offset="0.357071" stop-color="white"/>
</linearGradient>
</defs>
</svg>
