<svg width="825" height="548" viewBox="0 0 825 548" fill="none" xmlns="http://www.w3.org/2000/svg">
<path d="M73.4875 307.83C68.4699 304.933 68.4699 300.237 73.4875 297.34L310.773 160.343C315.791 157.446 323.926 157.446 328.944 160.343L631.252 334.881C636.27 337.778 636.27 342.474 631.252 345.371L393.966 482.368C388.949 485.265 380.814 485.265 375.796 482.368L73.4875 307.83Z" fill="#F8FAFD"/>
<path d="M200.949 312.927L209.451 308.018C210.333 308.457 210.864 308.729 211.047 308.834C213.387 310.185 214.542 311.729 214.511 313.466C214.481 315.186 213.281 316.73 210.91 318.099C208.57 319.45 205.827 320.147 202.681 320.191C199.536 320.217 196.846 319.586 194.612 318.296C192.378 317.006 191.292 315.458 191.353 313.65C191.414 311.826 192.606 310.242 194.931 308.9C196.74 307.856 198.73 307.171 200.903 306.847C203.076 306.522 205.136 306.632 207.081 307.176L203.753 310.387C201.975 310.062 200.349 310.325 198.875 311.176C197.75 311.826 197.211 312.585 197.256 313.453C197.287 314.313 197.879 315.076 199.034 315.743C200.189 316.41 201.526 316.752 203.046 316.769C204.55 316.778 205.873 316.454 207.012 315.796C208.638 314.857 209.124 313.839 208.471 312.742L204.55 315.006L200.949 312.927ZM229.334 302.803L233.026 304.935L220.877 311.949L205.605 303.132L217.663 296.17L221.356 298.302L213.674 302.737L215.931 304.04L222.997 299.96L226.348 301.895L219.282 305.975L221.561 307.291L229.334 302.803ZM237.248 289.206L232.461 291.97L243.972 298.616L239.573 301.155L228.062 294.51L223.275 297.273L219.514 295.102L233.487 287.035L237.248 289.206ZM247.87 278.73L263.142 287.548L258.834 290.035L248.622 284.139L246.89 287.219L242.855 284.889L245.044 280.362L247.87 278.73ZM254.075 277.306C253.877 275.718 254.812 274.328 256.878 273.135C258.945 271.941 261.346 271.406 264.081 271.529C266.801 271.643 269.354 272.389 271.74 273.766C274.126 275.144 275.425 276.622 275.638 278.201C275.835 279.772 274.901 281.154 272.834 282.347C270.752 283.549 268.344 284.097 265.608 283.992C262.873 283.869 260.313 283.119 257.927 281.741C255.541 280.364 254.257 278.886 254.075 277.306ZM269.096 280.188C269.856 279.75 270.084 279.188 269.78 278.504C269.476 277.82 268.655 277.091 267.318 276.319C265.981 275.547 264.727 275.078 263.557 274.911C262.372 274.736 261.399 274.867 260.639 275.306C259.864 275.753 259.621 276.324 259.91 277.017C260.199 277.692 261.012 278.416 262.349 279.188C263.686 279.96 264.947 280.434 266.133 280.61C267.333 280.776 268.321 280.636 269.096 280.188ZM269.896 265.619C271.02 264.97 272.342 264.628 273.862 264.593C275.381 264.557 276.726 264.878 277.896 265.553C279.066 266.229 279.621 267.005 279.56 267.883C279.5 268.76 278.907 269.523 277.782 270.172C276.643 270.83 275.305 271.181 273.771 271.225C272.251 271.26 270.906 270.94 269.736 270.265C268.566 269.589 268.011 268.813 268.072 267.935C268.148 267.049 268.756 266.277 269.896 265.619ZM284.074 275.463L279.697 260.355L281.976 259.039L286.376 274.134L284.074 275.463ZM272.335 267.027C271.94 267.255 271.734 267.532 271.719 267.856C271.704 268.181 271.924 268.475 272.38 268.738C272.821 268.992 273.33 269.12 273.907 269.12C274.485 269.102 274.964 268.984 275.343 268.764C275.723 268.545 275.913 268.277 275.913 267.962C275.913 267.628 275.693 267.334 275.252 267.08C274.796 266.817 274.287 266.689 273.725 266.698C273.178 266.698 272.715 266.808 272.335 267.027ZM288.404 264.25C289.529 263.601 290.851 263.259 292.371 263.224C293.89 263.189 295.235 263.509 296.405 264.185C297.575 264.86 298.13 265.637 298.069 266.514C298.008 267.391 297.416 268.155 296.291 268.804C295.151 269.462 293.814 269.813 292.279 269.857C290.76 269.892 289.415 269.571 288.245 268.896C287.075 268.22 286.52 267.444 286.581 266.567C286.657 265.68 287.265 264.908 288.404 264.25ZM290.843 265.659C290.448 265.887 290.243 266.163 290.228 266.488C290.213 266.812 290.433 267.106 290.889 267.369C291.33 267.624 291.839 267.751 292.416 267.751C292.994 267.733 293.472 267.615 293.852 267.396C294.232 267.176 294.422 266.909 294.422 266.593C294.422 266.26 294.202 265.966 293.761 265.711C293.305 265.448 292.796 265.321 292.234 265.33C291.687 265.33 291.223 265.439 290.843 265.659ZM300.831 252.522L303.521 254.075L310.45 250.075L314.257 252.272L307.328 256.273L312.32 259.155L307.943 261.682L292.671 252.864L304.866 245.824L308.65 248.008L300.831 252.522ZM310.761 244.71C310.806 242.894 311.984 241.319 314.294 239.986C316.603 238.652 319.324 237.977 322.454 237.959C325.584 237.924 328.266 238.551 330.5 239.841C332.734 241.131 333.828 242.684 333.783 244.5C333.737 246.298 332.559 247.864 330.249 249.198C327.94 250.531 325.22 251.216 322.089 251.251C318.959 251.268 316.277 250.632 314.043 249.343C311.809 248.053 310.715 246.509 310.761 244.71ZM322.431 247.842C323.92 247.86 325.212 247.553 326.306 246.921C327.4 246.29 327.924 245.548 327.879 244.697C327.833 243.829 327.233 243.061 326.078 242.394C324.938 241.736 323.616 241.394 322.112 241.368C320.623 241.333 319.331 241.631 318.237 242.263C317.143 242.894 316.619 243.644 316.664 244.513C316.725 245.373 317.325 246.132 318.465 246.79C319.62 247.456 320.942 247.807 322.431 247.842ZM354.781 234.64L349.516 237.68L340.444 237.285L339.851 237.627L344.729 240.443L340.352 242.97L325.08 234.153L333.218 229.455C334.859 228.507 336.652 228.016 338.597 227.981C340.558 227.937 342.305 228.358 343.84 229.244C345.056 229.946 345.777 230.74 346.005 231.626C346.218 232.504 345.929 233.372 345.139 234.232L354.781 234.64ZM336.386 235.627L339.327 233.929C339.934 233.578 340.269 233.21 340.33 232.824C340.375 232.429 340.147 232.087 339.646 231.797C339.159 231.517 338.59 231.398 337.936 231.442C337.268 231.477 336.629 231.67 336.022 232.021L333.081 233.719L336.386 235.627ZM266.785 317.444L262.067 320.168L258.898 319.313L252.881 322.787L254.34 324.63L249.644 327.341L240.526 314.97L245.359 312.18L266.785 317.444ZM253.907 317.958L247.661 316.273L250.556 319.892L253.907 317.958ZM266.686 304.236L269.376 305.789L276.305 301.788L280.112 303.986L273.182 307.987L278.174 310.869L273.798 313.395L258.526 304.578L270.721 297.538L274.504 299.722L266.686 304.236ZM302.35 296.911L297.084 299.951L288.012 299.556L287.42 299.898L292.298 302.715L287.921 305.241L272.649 296.424L280.787 291.726C282.428 290.778 284.221 290.287 286.166 290.252C288.126 290.208 289.874 290.629 291.409 291.515C292.624 292.217 293.346 293.011 293.574 293.897C293.787 294.775 293.498 295.643 292.708 296.503L302.35 296.911ZM283.955 297.898L286.895 296.2C287.503 295.849 287.838 295.481 287.898 295.095C287.944 294.7 287.716 294.358 287.215 294.068C286.728 293.788 286.158 293.669 285.505 293.713C284.836 293.748 284.198 293.941 283.59 294.292L280.65 295.99L283.955 297.898ZM299.008 285.549L306.758 290.023L309.333 288.536L313.094 290.708L303.544 296.222L299.783 294.05L302.359 292.563L294.609 288.089L292.033 289.576L288.272 287.404L297.823 281.89L301.584 284.062L299.008 285.549ZM323.534 280.417L327.226 282.548L315.077 289.563L299.805 280.746L311.863 273.784L315.556 275.916L307.874 280.351L310.131 281.654L317.197 277.574L320.548 279.509L313.482 283.588L315.761 284.904L323.534 280.417ZM329.35 263.688L344.622 272.505L340.998 274.597L326.114 274.11L333.978 278.651L329.601 281.177L314.329 272.36L317.931 270.281L333.089 270.926L324.951 266.227L329.35 263.688ZM331.925 262.201L338.376 258.477C340.868 257.038 343.58 256.288 346.513 256.226C349.446 256.147 352.052 256.766 354.332 258.082C356.611 259.398 357.69 260.907 357.568 262.609C357.447 264.294 356.14 265.855 353.648 267.294L347.197 271.018L331.925 262.201ZM347.881 266.36L349.636 265.346C350.897 264.618 351.551 263.82 351.596 262.951C351.642 262.083 351.08 261.311 349.91 260.635C348.74 259.96 347.402 259.635 345.898 259.661C344.393 259.688 343.011 260.065 341.749 260.793L339.994 261.806L347.881 266.36Z" fill="#305EED"/>
<rect width="71.5373" height="15.203" rx="1.50401" transform="matrix(0.866025 -0.5 -0.866025 -0.5 187.268 261.729)" fill="#C7E1FF"/>
<rect width="164.161" height="10.1353" rx="1.50401" transform="matrix(0.866025 -0.5 -0.866025 -0.5 259.367 349.871)" fill="#C7E1FF"/>
<rect width="147.935" height="10.1354" rx="1.50401" transform="matrix(0.866025 -0.5 -0.866025 -0.5 279.668 353.353)" fill="#C7E1FF"/>
<rect width="102.759" height="10.1353" rx="1.50401" transform="matrix(0.866025 -0.5 -0.866025 -0.5 312.458 349.625)" fill="#C7E1FF"/>
<rect width="70.4592" height="75.0013" rx="1.50401" transform="matrix(0.866025 -0.5 -0.866025 -0.5 373.04 453.016)" fill="#C7E1FF"/>
<rect width="70.4592" height="75.0013" rx="1.50401" transform="matrix(0.866025 -0.5 -0.866025 -0.5 446.465 410.624)" fill="#C7E1FF"/>
<rect width="70.4592" height="75.0013" rx="1.50401" transform="matrix(0.866025 -0.5 -0.866025 -0.5 519.24 368.608)" fill="#C7E1FF"/>
<g filter="url(#filter0_d)">
<path d="M213.223 147.367C210.798 145.967 210.798 143.698 213.223 142.298L376.558 47.9962C378.983 46.5964 382.914 46.5964 385.338 47.9962L592.483 167.591C594.907 168.991 594.907 171.261 592.483 172.66L429.148 266.962C426.723 268.362 422.792 268.362 420.368 266.962L213.223 147.367Z" fill="#D1003C"/>
<path d="M213.497 147.209C211.224 145.896 211.224 143.769 213.497 142.456L376.833 48.1546C379.106 46.8423 382.791 46.8423 385.064 48.1546L592.209 167.75C594.482 169.062 594.482 171.19 592.209 172.502L428.873 266.804C426.6 268.116 422.915 268.116 420.642 266.804L213.497 147.209Z" stroke="#671717" stroke-width="0.633636"/>
<path d="M287.358 163.375C287.962 163.026 288.289 162.636 288.341 162.204C288.402 161.767 288.167 161.312 287.634 160.839L291.259 159.527C292.282 160.378 292.682 161.288 292.456 162.258C292.231 163.215 291.417 164.099 290.015 164.909C288.458 165.807 286.626 166.268 284.517 166.292C282.407 166.304 280.6 165.875 279.095 165.006C277.59 164.137 276.853 163.097 276.884 161.885C276.915 160.662 277.708 159.601 279.264 158.702C280.575 157.945 282.08 157.49 283.779 157.337C285.489 157.177 287.056 157.372 288.479 157.922L286.237 160.032C285.448 159.742 284.68 159.618 283.933 159.66C283.196 159.695 282.525 159.887 281.921 160.236C281.194 160.656 280.846 161.158 280.877 161.743C280.908 162.329 281.307 162.843 282.075 163.286C282.843 163.73 283.733 163.96 284.747 163.978C285.761 163.996 286.631 163.795 287.358 163.375ZM295.937 149.342L306.227 155.283L303.263 156.994L299.347 154.733L295.584 156.905L299.5 159.166L296.552 160.869L286.262 154.928L289.211 153.226L293.05 155.442L296.813 153.27L292.973 151.053L295.937 149.342ZM317.678 148.671L314.131 150.719L308.018 150.453L307.619 150.684L310.906 152.581L307.957 154.284L297.667 148.343L303.15 145.178C304.256 144.539 305.464 144.208 306.774 144.185C308.095 144.155 309.273 144.439 310.307 145.036C311.126 145.509 311.612 146.044 311.766 146.641C311.909 147.232 311.714 147.817 311.182 148.396L317.678 148.671ZM305.285 149.336L307.266 148.192C307.675 147.956 307.901 147.708 307.942 147.448C307.972 147.182 307.819 146.951 307.481 146.756C307.153 146.567 306.769 146.487 306.329 146.517C305.879 146.54 305.449 146.67 305.039 146.907L303.058 148.05L305.285 149.336ZM315.427 141.016L320.648 144.03L322.384 143.029L324.918 144.492L318.483 148.207L315.949 146.744L317.684 145.742L312.463 142.727L310.727 143.729L308.193 142.266L314.628 138.551L317.162 140.014L315.427 141.016ZM320.018 135.173C321.237 134.469 322.496 134.044 323.796 133.896C325.097 133.748 326.315 133.896 327.451 134.339L325.148 136.343C324.605 136.136 324.083 136.059 323.581 136.113C323.08 136.166 322.655 136.293 322.307 136.494C321.979 136.683 321.79 136.881 321.738 137.088C321.687 137.283 321.79 137.454 322.046 137.602C322.394 137.803 322.813 137.815 323.305 137.638L325.885 136.716C328.332 135.87 330.328 135.894 331.874 136.787C332.642 137.23 333.067 137.735 333.149 138.303C333.241 138.864 333.083 139.393 332.673 139.89C332.263 140.386 331.68 140.853 330.922 141.291C329.653 142.024 328.301 142.473 326.868 142.639C325.434 142.804 324.16 142.647 323.044 142.169L325.486 140.103C326.632 140.493 327.672 140.419 328.603 139.881C328.962 139.674 329.182 139.464 329.264 139.251C329.345 139.039 329.253 138.855 328.987 138.702C328.639 138.501 328.173 138.504 327.59 138.711L324.948 139.65C322.624 140.484 320.689 140.454 319.143 139.562C318.088 138.953 317.658 138.25 317.853 137.452C318.047 136.654 318.769 135.894 320.018 135.173ZM337.598 128.215L334.373 130.077L342.129 134.555L339.165 136.266L331.409 131.788L328.184 133.65L325.65 132.187L335.064 126.752L337.598 128.215ZM348.676 118.893L358.965 124.834L356.078 126.501L351.425 123.814L353.79 127.822L351.87 128.93L344.959 127.583L349.582 130.252L346.695 131.919L336.405 125.978L339.523 124.178L348.154 125.685L345.558 120.693L348.676 118.893ZM371.537 117.576L368.358 119.411L366.223 118.835L362.169 121.176L363.152 122.417L359.988 124.244L353.845 115.909L357.101 114.029L371.537 117.576ZM362.86 117.922L358.652 116.787L360.602 119.225L362.86 117.922ZM365.955 108.651C367.173 107.948 368.433 107.522 369.733 107.374C371.033 107.227 372.252 107.374 373.388 107.818L371.084 109.822C370.542 109.615 370.02 109.538 369.518 109.591C369.016 109.644 368.591 109.771 368.243 109.972C367.916 110.162 367.726 110.36 367.675 110.566C367.624 110.762 367.726 110.933 367.982 111.081C368.33 111.282 368.75 111.294 369.241 111.116L371.822 110.194C374.268 109.349 376.265 109.372 377.811 110.265C378.579 110.708 379.004 111.214 379.086 111.781C379.178 112.343 379.019 112.872 378.61 113.368C378.2 113.865 377.616 114.332 376.859 114.769C375.589 115.502 374.238 115.952 372.804 116.117C371.371 116.283 370.096 116.126 368.98 115.647L371.422 113.581C372.569 113.971 373.608 113.897 374.54 113.359C374.898 113.153 375.118 112.943 375.2 112.73C375.282 112.517 375.19 112.334 374.924 112.18C374.576 111.979 374.11 111.982 373.526 112.189L370.885 113.129C368.561 113.962 366.626 113.933 365.08 113.04C364.025 112.431 363.595 111.728 363.789 110.93C363.984 110.132 364.706 109.372 365.955 108.651ZM296.453 169.778C297.671 169.075 298.93 168.649 300.231 168.502C301.531 168.354 302.749 168.502 303.886 168.945L301.582 170.949C301.039 170.742 300.517 170.665 300.016 170.718C299.514 170.772 299.089 170.899 298.741 171.1C298.413 171.289 298.224 171.487 298.173 171.694C298.121 171.889 298.224 172.06 298.48 172.208C298.828 172.409 299.248 172.421 299.739 172.243L302.319 171.321C304.766 170.476 306.763 170.5 308.309 171.392C309.077 171.836 309.501 172.341 309.583 172.908C309.675 173.47 309.517 173.999 309.107 174.496C308.698 174.992 308.114 175.459 307.356 175.896C306.087 176.629 304.735 177.079 303.302 177.244C301.869 177.41 300.594 177.253 299.478 176.774L301.92 174.708C303.067 175.098 304.106 175.025 305.037 174.487C305.396 174.28 305.616 174.07 305.698 173.857C305.78 173.644 305.688 173.461 305.421 173.307C305.073 173.106 304.607 173.109 304.024 173.316L301.382 174.256C299.058 175.09 297.123 175.06 295.577 174.167C294.523 173.559 294.093 172.855 294.287 172.057C294.482 171.259 295.204 170.5 296.453 169.778ZM323.675 166.209L320.496 168.044L318.362 167.468L314.307 169.809L315.29 171.05L312.127 172.876L305.984 164.542L309.239 162.662L323.675 166.209ZM314.998 166.554L310.79 165.42L312.741 167.858L314.998 166.554ZM329.971 159.648L332.505 161.111L324.704 165.615L314.414 159.674L317.363 157.972L325.118 162.45L329.971 159.648ZM339.632 154.123L342.12 155.56L333.934 160.286L323.645 154.345L331.769 149.654L334.257 151.091L329.081 154.079L330.602 154.957L335.363 152.208L337.62 153.511L332.859 156.26L334.395 157.147L339.632 154.123ZM352.469 146.658L355.003 148.121L347.094 152.688L347.079 152.697L345.128 151.571L345.528 147.581C345.558 147.232 345.569 146.984 345.558 146.836C345.558 146.682 345.512 146.502 345.42 146.295C345.328 146.076 345.164 145.899 344.929 145.763C344.632 145.592 344.294 145.509 343.915 145.515C343.536 145.509 343.199 145.592 342.902 145.763C342.134 146.206 342.205 146.726 343.117 147.323L339.799 148.636C338.806 148.003 338.371 147.309 338.494 146.552C338.617 145.784 339.262 145.062 340.429 144.389C341.596 143.715 342.845 143.348 344.176 143.289C345.507 143.23 346.705 143.508 347.77 144.123C348.435 144.507 348.845 144.932 348.999 145.399C349.152 145.855 349.188 146.478 349.106 147.27L348.922 148.707L352.469 146.658ZM348.436 141.486C348.302 140.416 348.932 139.479 350.325 138.675C351.717 137.872 353.335 137.511 355.178 137.594C357.01 137.671 358.73 138.173 360.338 139.101C361.945 140.029 362.82 141.025 362.964 142.089C363.097 143.147 362.467 144.078 361.075 144.882C359.672 145.692 358.049 146.061 356.206 145.991C354.364 145.908 352.638 145.402 351.031 144.474C349.424 143.546 348.558 142.55 348.436 141.486ZM358.556 143.428C359.068 143.132 359.222 142.754 359.017 142.293C358.812 141.832 358.259 141.341 357.358 140.821C356.457 140.301 355.613 139.985 354.824 139.872C354.026 139.754 353.37 139.843 352.859 140.138C352.336 140.44 352.173 140.824 352.367 141.291C352.562 141.746 353.109 142.234 354.01 142.754C354.911 143.274 355.761 143.594 356.56 143.712C357.369 143.824 358.034 143.73 358.556 143.428ZM372.011 135.376L374.545 136.839L366.636 141.406L366.62 141.415L364.67 140.288L365.069 136.298C365.1 135.95 365.11 135.701 365.1 135.554C365.1 135.4 365.054 135.22 364.962 135.013C364.869 134.794 364.706 134.617 364.47 134.481C364.173 134.309 363.835 134.227 363.457 134.232C363.078 134.227 362.74 134.309 362.443 134.481C361.675 134.924 361.747 135.444 362.658 136.041L359.341 137.354C358.348 136.721 357.912 136.027 358.035 135.27C358.158 134.501 358.803 133.78 359.97 133.106C361.138 132.433 362.387 132.066 363.718 132.007C365.049 131.948 366.247 132.226 367.311 132.84C367.977 133.225 368.386 133.65 368.54 134.117C368.694 134.572 368.729 135.196 368.647 135.988L368.463 137.425L372.011 135.376ZM367.977 130.204C367.844 129.134 368.473 128.197 369.866 127.393C371.258 126.589 372.876 126.229 374.719 126.312C376.552 126.388 378.272 126.891 379.879 127.819C381.486 128.747 382.362 129.743 382.505 130.807C382.638 131.865 382.009 132.796 380.616 133.6C379.213 134.41 377.591 134.779 375.748 134.708C373.905 134.626 372.18 134.12 370.572 133.192C368.965 132.264 368.1 131.268 367.977 130.204ZM378.098 132.146C378.609 131.85 378.763 131.472 378.558 131.011C378.353 130.55 377.801 130.059 376.9 129.539C375.999 129.019 375.154 128.703 374.366 128.59C373.567 128.472 372.912 128.561 372.4 128.856C371.878 129.158 371.714 129.542 371.908 130.009C372.103 130.464 372.651 130.952 373.552 131.472C374.453 131.992 375.302 132.311 376.101 132.43C376.91 132.542 377.575 132.447 378.098 132.146Z" fill="white"/>
<rect width="48.1987" height="10.2431" rx="1.01334" transform="matrix(0.866025 -0.5 -0.866025 -0.5 243.584 145.036)" fill="#A81B29"/>
<rect width="110.604" height="6.82874" rx="1.01334" transform="matrix(0.866025 -0.5 -0.866025 -0.5 319.304 188.751)" fill="#A81B29"/>
<rect width="99.6724" height="6.82876" rx="1.01334" transform="matrix(0.866025 -0.5 -0.866025 -0.5 328.175 193.873)" fill="#A81B29"/>
<rect width="69.2348" height="6.82872" rx="1.01334" transform="matrix(0.866025 -0.5 -0.866025 -0.5 337.045 198.995)" fill="#A81B29"/>
<rect width="154.889" height="78.5708" rx="1.01334" transform="matrix(0.866025 -0.5 -0.866025 -0.5 416.448 246.104)" fill="#A81B29"/>
</g>
<g filter="url(#filter2_d)">
<path d="M326.675 362.146C324.423 360.846 324.423 358.738 326.675 357.437L478.396 269.842C480.648 268.541 484.299 268.541 486.551 269.842L678.966 380.932C681.218 382.232 681.218 384.34 678.966 385.641L527.245 473.236C524.993 474.537 521.342 474.537 519.09 473.236L326.675 362.146Z" fill="#184285"/>
<path d="M326.93 361.999C324.819 360.78 324.819 358.803 326.93 357.584L478.651 269.989C480.762 268.77 484.185 268.77 486.296 269.989L678.711 381.079C680.822 382.298 680.822 384.275 678.711 385.494L526.991 473.089C524.879 474.308 521.456 474.308 519.345 473.089L326.93 361.999Z" stroke="#254BC1" stroke-opacity="0.5" stroke-width="0.588577"/>
<path d="M433.051 352.328L433.108 352.361C433.688 352.048 434.354 351.883 435.105 351.866C435.856 351.839 436.593 352.034 437.316 352.451C438.134 352.923 438.5 353.47 438.415 354.09C438.319 354.705 437.773 355.301 436.774 355.877L431.581 358.875L422.024 353.357L427.216 350.359C428.11 349.843 429.056 349.566 430.055 349.527C431.063 349.483 431.952 349.684 432.723 350.129C433.369 350.502 433.688 350.9 433.678 351.323C433.669 351.735 433.46 352.07 433.051 352.328ZM426.888 353.003L428.657 354.024L430.355 353.044C430.659 352.868 430.825 352.679 430.854 352.476C430.873 352.267 430.749 352.086 430.483 351.932C430.226 351.784 429.922 351.718 429.57 351.735C429.228 351.746 428.914 351.833 428.628 351.998L426.888 353.003ZM432.195 356.067L434.035 355.004C434.358 354.818 434.525 354.623 434.534 354.42C434.544 354.205 434.406 354.016 434.121 353.851C433.854 353.698 433.545 353.629 433.193 353.645C432.851 353.656 432.528 353.75 432.223 353.925L430.355 355.004L432.195 356.067ZM446.247 347.69L448.601 349.049L441.354 353.233L431.796 347.715L434.535 346.134L441.739 350.293L446.247 347.69ZM459.985 342.476L457.032 344.181L455.049 343.646L451.283 345.82L452.196 346.973L449.258 348.67L443.551 340.928L446.576 339.182L459.985 342.476ZM451.925 342.798L448.017 341.743L449.828 344.008L451.925 342.798ZM463.106 338.072C463.667 337.748 463.972 337.386 464.019 336.985C464.076 336.578 463.858 336.156 463.363 335.716L466.73 334.497C467.681 335.288 468.052 336.134 467.842 337.034C467.633 337.924 466.877 338.744 465.574 339.497C464.129 340.331 462.426 340.76 460.467 340.782C458.508 340.793 456.829 340.394 455.431 339.587C454.033 338.78 453.349 337.814 453.377 336.688C453.406 335.552 454.143 334.566 455.588 333.731C456.806 333.029 458.204 332.606 459.782 332.463C461.371 332.315 462.826 332.496 464.148 333.007L462.065 334.967C461.333 334.698 460.619 334.582 459.925 334.621C459.24 334.654 458.617 334.832 458.056 335.156C457.381 335.546 457.058 336.013 457.086 336.556C457.115 337.1 457.486 337.578 458.199 337.99C458.912 338.401 459.74 338.615 460.681 338.632C461.623 338.648 462.431 338.462 463.106 338.072ZM481.318 330.16L478.009 332.071L472.502 331.445L472.788 333.24L474.385 334.163L471.646 335.744L462.088 330.226L464.827 328.644L468.95 331.025L468.308 326.635L471.418 324.839L472.131 329.171L481.318 330.16ZM421.197 376.569L422.881 377.541L427.217 375.037L429.6 376.412L425.263 378.916L428.387 380.72L425.648 382.301L416.09 376.783L423.722 372.376L426.09 373.744L421.197 376.569ZM443.517 371.984L440.222 373.887L434.544 373.64L434.173 373.854L437.226 375.616L434.487 377.198L424.929 371.68L430.022 368.739C431.049 368.146 432.171 367.839 433.389 367.817C434.615 367.789 435.709 368.053 436.67 368.607C437.431 369.047 437.882 369.544 438.025 370.098C438.158 370.647 437.977 371.191 437.483 371.729L443.517 371.984ZM432.005 372.602L433.845 371.54C434.226 371.32 434.435 371.089 434.473 370.848C434.501 370.601 434.359 370.386 434.045 370.205C433.741 370.03 433.384 369.955 432.975 369.983C432.556 370.005 432.157 370.126 431.777 370.345L429.936 371.408L432.005 372.602ZM441.426 364.873L446.276 367.674L447.888 366.743L450.242 368.102L444.264 371.553L441.911 370.194L443.523 369.263L438.672 366.463L437.06 367.394L434.707 366.035L440.684 362.584L443.038 363.943L441.426 364.873ZM441.925 361.867L445.962 359.536C447.521 358.636 449.219 358.166 451.055 358.128C452.89 358.079 454.521 358.466 455.948 359.289C457.374 360.113 458.049 361.057 457.973 362.123C457.897 363.177 457.079 364.154 455.52 365.055L451.483 367.385L441.925 361.867ZM451.91 364.47L453.009 363.836C453.798 363.38 454.207 362.88 454.236 362.337C454.264 361.793 453.912 361.31 453.18 360.887C452.448 360.464 451.611 360.261 450.669 360.278C449.728 360.294 448.862 360.53 448.073 360.986L446.975 361.62L451.91 364.47ZM471.674 355.728L468.721 357.433L466.738 356.897L462.972 359.072L463.885 360.225L460.947 361.921L455.24 354.179L458.265 352.433L471.674 355.728ZM463.614 356.049L459.706 354.995L461.517 357.26L463.614 356.049ZM470.93 345.121L473.826 351.109L476.75 352.797L473.897 354.444L470.973 352.756L460.73 351.01L463.74 349.272L469.703 350.31L467.892 346.875L470.93 345.121ZM479.124 340.143C480.256 339.489 481.426 339.094 482.634 338.957C483.841 338.82 484.973 338.957 486.029 339.369L483.889 341.23C483.385 341.038 482.9 340.966 482.434 341.016C481.968 341.065 481.573 341.183 481.25 341.37C480.946 341.546 480.77 341.73 480.722 341.922C480.675 342.103 480.77 342.262 481.007 342.4C481.331 342.586 481.721 342.597 482.177 342.433L484.574 341.576C486.847 340.791 488.701 340.813 490.137 341.642C490.851 342.054 491.245 342.523 491.321 343.05C491.407 343.572 491.26 344.063 490.879 344.525C490.499 344.986 489.957 345.42 489.253 345.826C488.074 346.507 486.818 346.924 485.487 347.078C484.155 347.231 482.971 347.086 481.935 346.641L484.203 344.722C485.268 345.085 486.233 345.016 487.099 344.516C487.432 344.324 487.636 344.129 487.712 343.932C487.788 343.734 487.703 343.564 487.455 343.421C487.132 343.234 486.699 343.237 486.157 343.429L483.704 344.302C481.545 345.076 479.747 345.049 478.311 344.22C477.332 343.654 476.932 343.001 477.113 342.26C477.294 341.518 477.964 340.813 479.124 340.143ZM504.411 336.827L501.458 338.532L499.476 337.997L495.709 340.171L496.622 341.324L493.684 343.021L487.978 335.279L491.002 333.532L504.411 336.827ZM496.351 337.148L492.443 336.094L494.254 338.359L496.351 337.148ZM510.26 330.733L512.613 332.092L505.367 336.276L495.809 330.757L498.548 329.176L505.752 333.335L510.26 330.733ZM519.233 325.601L521.544 326.935L513.941 331.325L504.383 325.807L511.929 321.45L514.24 322.784L509.433 325.56L510.845 326.375L515.268 323.822L517.365 325.033L512.942 327.586L514.369 328.41L519.233 325.601Z" fill="white"/>
<rect width="44.7712" height="9.51472" rx="0.941279" transform="matrix(0.866025 -0.5 -0.866025 -0.5 399.494 334.221)" fill="#1F3169"/>
<rect width="102.739" height="6.34315" rx="0.941279" transform="matrix(0.866025 -0.5 -0.866025 -0.5 444.615 389.385)" fill="#1F3169"/>
<rect width="92.5846" height="6.34315" rx="0.941279" transform="matrix(0.866025 -0.5 -0.866025 -0.5 457.32 391.564)" fill="#1F3169"/>
<rect width="64.3115" height="6.34313" rx="0.941279" transform="matrix(0.866025 -0.5 -0.866025 -0.5 477.842 389.231)" fill="#1F3169"/>
<rect width="44.0966" height="46.9393" rx="0.941279" transform="matrix(0.866025 -0.5 -0.866025 -0.5 515.757 453.938)" fill="#1F3169"/>
<rect width="44.0966" height="46.9393" rx="0.941279" transform="matrix(0.866025 -0.5 -0.866025 -0.5 561.71 427.408)" fill="#1F3169"/>
<rect width="44.0966" height="46.9393" rx="0.941279" transform="matrix(0.866025 -0.5 -0.866025 -0.5 607.256 401.112)" fill="#1F3169"/>
</g>
<defs>
<filter id="filter0_d" x="137.861" y="0.145885" width="503.241" height="341.41" filterUnits="userSpaceOnUse" color-interpolation-filters="sRGB">
<feFlood flood-opacity="0" result="BackgroundImageFix"/>
<feColorMatrix in="SourceAlpha" type="matrix" values="0 0 0 0 0 0 0 0 0 0 0 0 0 0 0 0 0 0 127 0"/>
<feOffset dx="-13.3716" dy="13.3716"/>
<feGaussianBlur stdDeviation="30.086"/>
<feColorMatrix type="matrix" values="0 0 0 0 0 0 0 0 0 0 0 0 0 0 0 0 0 0 0.25 0"/>
<feBlend mode="normal" in2="BackgroundImageFix" result="effect1_dropShadow"/>
<feBlend mode="normal" in="SourceGraphic" in2="effect1_dropShadow" result="shape"/>
</filter>
<filter id="filter1_b" x="173.386" y="8.9282" width="458.933" height="297.102" filterUnits="userSpaceOnUse" color-interpolation-filters="sRGB">
<feFlood flood-opacity="0" result="BackgroundImageFix"/>
<feGaussianBlur in="BackgroundImage" stdDeviation="19.0091"/>
<feComposite in2="SourceAlpha" operator="in" result="effect1_backgroundBlur"/>
<feBlend mode="normal" in="SourceGraphic" in2="effect1_backgroundBlur" result="shape"/>
</filter>
<filter id="filter2_d" x="251.443" y="222.066" width="476.013" height="325.689" filterUnits="userSpaceOnUse" color-interpolation-filters="sRGB">
<feFlood flood-opacity="0" result="BackgroundImageFix"/>
<feColorMatrix in="SourceAlpha" type="matrix" values="0 0 0 0 0 0 0 0 0 0 0 0 0 0 0 0 0 0 127 0"/>
<feOffset dx="-13.3716" dy="13.3716"/>
<feGaussianBlur stdDeviation="30.086"/>
<feColorMatrix type="matrix" values="0 0 0 0 0 0 0 0 0 0 0 0 0 0 0 0 0 0 0.25 0"/>
<feBlend mode="normal" in2="BackgroundImageFix" result="effect1_dropShadow"/>
<feBlend mode="normal" in="SourceGraphic" in2="effect1_dropShadow" result="shape"/>
</filter>
<filter id="filter3_b" x="289.672" y="233.552" width="426.298" height="275.975" filterUnits="userSpaceOnUse" color-interpolation-filters="sRGB">
<feFlood flood-opacity="0" result="BackgroundImageFix"/>
<feGaussianBlur in="BackgroundImage" stdDeviation="17.6573"/>
<feComposite in2="SourceAlpha" operator="in" result="effect1_backgroundBlur"/>
<feBlend mode="normal" in="SourceGraphic" in2="effect1_backgroundBlur" result="shape"/>
</filter>
</defs>
</svg>
