<svg viewBox="0 0 655 500" fill="none" xmlns="http://www.w3.org/2000/svg">
<g transform="matrix(1,0,0,1,115,40)">
<g filter="url(#filter0_d)">
<path d="M-109.316 162.69C-111.378 161.5 -111.378 159.57 -109.316 158.38L29.5559 78.202C31.6173 77.0118 34.9595 77.0118 37.0208 78.202L213.141 179.885C215.203 181.075 215.203 183.005 213.141 184.195L74.2689 264.373C72.2075 265.563 68.8653 265.563 66.8039 264.373L-109.316 162.69Z" fill="#D1003C"/>
<path d="M-109.083 162.555C-111.016 161.439 -111.016 159.63 -109.083 158.515L29.7892 78.3366C31.7217 77.2209 34.855 77.2209 36.7876 78.3366L212.908 180.02C214.84 181.136 214.84 182.945 212.908 184.06L74.0356 264.238C72.103 265.354 68.9698 265.354 67.0372 264.238L-109.083 162.555Z" stroke="#671717" stroke-width="0.538735"/>
<path d="M-46.0718 176.423C-45.5582 176.127 -45.2797 175.795 -45.2362 175.428C-45.1839 175.056 -45.3841 174.669 -45.8368 174.267L-42.7552 173.152C-41.8848 173.875 -41.5453 174.649 -41.7368 175.473C-41.9283 176.288 -42.6203 177.039 -43.8129 177.728C-45.1361 178.491 -46.6942 178.883 -48.4875 178.904C-50.2807 178.914 -51.8171 178.549 -53.0968 177.81C-54.3764 177.072 -55.0031 176.187 -54.977 175.157C-54.9509 174.116 -54.2763 173.214 -52.9531 172.45C-51.8389 171.807 -50.5593 171.42 -49.1142 171.289C-47.6605 171.154 -46.3286 171.32 -45.1186 171.787L-47.025 173.581C-47.6953 173.335 -48.3482 173.229 -48.9837 173.265C-49.6104 173.295 -50.1806 173.458 -50.6942 173.755C-51.3122 174.111 -51.6082 174.539 -51.5821 175.036C-51.556 175.534 -51.2165 175.971 -50.5636 176.348C-49.9107 176.725 -49.1534 176.921 -48.2916 176.936C-47.4298 176.951 -46.6899 176.78 -46.0718 176.423ZM-38.7773 164.492L-30.0288 169.543L-32.5489 170.998L-35.8786 169.076L-39.0776 170.923L-35.748 172.845L-38.255 174.293L-47.0035 169.242L-44.4965 167.794L-41.2321 169.679L-38.033 167.832L-41.2974 165.947L-38.7773 164.492ZM-20.2924 163.922L-23.3087 165.663L-28.5056 165.437L-28.8451 165.633L-26.0508 167.246L-28.5578 168.694L-37.3063 163.643L-32.6448 160.952C-31.7047 160.409 -30.6775 160.127 -29.5632 160.107C-28.4403 160.082 -27.4392 160.323 -26.56 160.831C-25.8636 161.233 -25.4501 161.688 -25.3196 162.195C-25.1977 162.698 -25.3631 163.196 -25.8157 163.688L-20.2924 163.922ZM-30.8298 164.487L-29.1454 163.515C-28.7972 163.314 -28.6057 163.103 -28.5709 162.881C-28.5448 162.655 -28.6753 162.459 -28.9626 162.293C-29.2412 162.133 -29.5676 162.065 -29.9419 162.09C-30.3249 162.11 -30.6905 162.221 -31.0387 162.422L-32.7231 163.394L-30.8298 164.487ZM-22.2069 157.413L-17.7674 159.976L-16.2919 159.124L-14.1374 160.368L-19.6085 163.527L-21.7629 162.283L-20.2874 161.431L-24.727 158.868L-26.2025 159.72L-28.357 158.476L-22.8859 155.317L-20.7314 156.561L-22.2069 157.413ZM-18.3029 152.445C-17.267 151.847 -16.1963 151.485 -15.0908 151.36C-13.9853 151.234 -12.9494 151.36 -11.9831 151.736L-13.9417 153.44C-14.4031 153.264 -14.847 153.199 -15.2736 153.244C-15.7001 153.289 -16.0614 153.397 -16.3574 153.568C-16.6359 153.729 -16.797 153.898 -16.8405 154.073C-16.884 154.239 -16.797 154.385 -16.5793 154.511C-16.2834 154.682 -15.9265 154.692 -15.5086 154.541L-13.315 153.757C-11.2345 153.038 -9.53701 153.058 -8.22256 153.817C-7.56969 154.194 -7.20843 154.624 -7.13879 155.106C-7.06045 155.584 -7.19538 156.034 -7.54358 156.456C-7.89177 156.878 -8.38796 157.275 -9.03213 157.647C-10.1115 158.27 -11.2606 158.652 -12.4793 158.793C-13.698 158.933 -14.7818 158.8 -15.7306 158.393L-13.6545 156.637C-12.6795 156.968 -11.796 156.906 -11.0038 156.448C-10.6991 156.272 -10.512 156.094 -10.4423 155.913C-10.3727 155.732 -10.451 155.576 -10.6774 155.446C-10.9733 155.275 -11.3694 155.277 -11.8656 155.453L-14.1115 156.252C-16.0875 156.961 -17.7327 156.936 -19.0472 156.177C-19.9438 155.659 -20.3094 155.061 -20.144 154.383C-19.9786 153.704 -19.3649 153.058 -18.3029 152.445ZM-3.35611 146.529L-6.09817 148.113L0.49584 151.92L-2.02425 153.375L-8.61826 149.568L-11.3603 151.151L-13.5148 149.907L-5.51059 145.286L-3.35611 146.529ZM6.0625 138.604L14.811 143.655L12.3562 145.072L8.39978 142.788L10.4106 146.195L8.77845 147.138L2.90259 145.992L6.83289 148.261L4.37809 149.678L-4.37041 144.627L-1.71975 143.097L5.61854 144.379L3.41183 140.134L6.0625 138.604ZM25.4995 137.484L22.7966 139.044L20.9817 138.554L17.5345 140.545L18.3702 141.6L15.6803 143.153L10.4574 136.067L13.2255 134.468L25.4995 137.484ZM18.1221 137.778L14.5443 136.813L16.2026 138.886L18.1221 137.778ZM20.7537 129.896C21.7896 129.298 22.8603 128.936 23.9658 128.81C25.0713 128.685 26.1072 128.81 27.0735 129.187L25.1149 130.891C24.6535 130.715 24.2095 130.65 23.783 130.695C23.3565 130.74 22.9952 130.848 22.6992 131.019C22.4207 131.18 22.2596 131.348 22.2161 131.524C22.1726 131.69 22.2596 131.836 22.4772 131.961C22.7732 132.132 23.1301 132.142 23.548 131.992L25.7416 131.208C27.8221 130.489 29.5196 130.509 30.834 131.268C31.4869 131.645 31.8481 132.074 31.9178 132.557C31.9961 133.034 31.8612 133.484 31.513 133.906C31.1648 134.329 30.6686 134.726 30.0245 135.097C28.945 135.721 27.796 136.103 26.5773 136.243C25.3586 136.384 24.2748 136.251 23.326 135.844L25.4021 134.087C26.3771 134.419 27.2606 134.356 28.0528 133.899C28.3575 133.723 28.5446 133.545 28.6143 133.364C28.6839 133.183 28.6055 133.027 28.3792 132.896C28.0833 132.725 27.6872 132.728 27.191 132.904L24.9451 133.703C22.9691 134.411 21.3238 134.386 20.0094 133.627C19.1128 133.11 18.7472 132.512 18.9126 131.833C19.078 131.155 19.6917 130.509 20.7537 129.896ZM-38.2134 181.94C-37.1775 181.342 -36.1068 180.98 -35.0013 180.855C-33.8957 180.729 -32.8598 180.855 -31.8936 181.232L-33.8522 182.936C-34.3136 182.76 -34.7575 182.694 -35.1841 182.74C-35.6106 182.785 -35.9719 182.893 -36.2678 183.064C-36.5464 183.225 -36.7074 183.393 -36.751 183.569C-36.7945 183.735 -36.7074 183.88 -36.4898 184.006C-36.1938 184.177 -35.8369 184.187 -35.4191 184.036L-33.2254 183.252C-31.145 182.533 -29.4475 182.554 -28.133 183.312C-27.4802 183.689 -27.1189 184.119 -27.0493 184.602C-26.9709 185.079 -27.1059 185.529 -27.4541 185.951C-27.8023 186.373 -28.2984 186.77 -28.9426 187.142C-30.022 187.765 -31.1711 188.147 -32.3898 188.288C-33.6085 188.429 -34.6922 188.296 -35.6411 187.888L-33.5649 186.132C-32.59 186.464 -31.7064 186.401 -30.9143 185.943C-30.6096 185.768 -30.4224 185.589 -30.3528 185.408C-30.2832 185.227 -30.3615 185.072 -30.5878 184.941C-30.8838 184.77 -31.2799 184.772 -31.7761 184.948L-34.022 185.747C-35.998 186.456 -37.6432 186.431 -38.9577 185.672C-39.8543 185.154 -40.2199 184.556 -40.0545 183.878C-39.8891 183.199 -39.2754 182.554 -38.2134 181.94ZM-15.0677 178.905L-17.7706 180.466L-19.5856 179.976L-23.0328 181.966L-22.1971 183.021L-24.8869 184.574L-30.1099 177.488L-27.3417 175.89L-15.0677 178.905ZM-22.4452 179.199L-26.0229 178.234L-24.3646 180.308L-22.4452 179.199ZM-9.71479 173.327L-7.56031 174.571L-14.1935 178.401L-22.942 173.35L-20.435 171.902L-13.8409 175.709L-9.71479 173.327ZM-1.50093 168.63L0.614375 169.851L-6.34525 173.869L-15.0937 168.818L-8.18635 164.83L-6.07104 166.052L-10.4714 168.592L-9.17872 169.339L-5.13091 167.002L-3.21146 168.11L-7.25927 170.447L-5.95353 171.201L-1.50093 168.63ZM9.41367 162.283L11.5682 163.527L4.84356 167.41L4.8305 167.417L3.17221 166.46L3.5117 163.067C3.53782 162.771 3.54652 162.56 3.53782 162.434C3.53782 162.303 3.49864 162.15 3.4203 161.974C3.34196 161.788 3.20268 161.637 3.00246 161.522C2.75002 161.376 2.46275 161.306 2.14067 161.311C1.81859 161.306 1.53132 161.376 1.27888 161.522C0.626005 161.899 0.68694 162.341 1.46168 162.849L-1.35873 163.964C-2.20311 163.427 -2.57307 162.836 -2.46861 162.193C-2.36415 161.539 -1.81574 160.926 -0.823373 160.353C0.168993 159.78 1.231 159.469 2.36265 159.418C3.49429 159.368 4.51277 159.604 5.41809 160.127C5.98391 160.454 6.33211 160.816 6.46269 161.213C6.59326 161.6 6.62373 162.13 6.55409 162.803L6.3974 164.025L9.41367 162.283ZM5.98395 157.886C5.87078 156.976 6.40614 156.179 7.59001 155.496C8.77389 154.812 10.1493 154.506 11.7162 154.576C13.2744 154.641 14.7368 155.069 16.1035 155.858C17.4702 156.647 18.2144 157.494 18.3363 158.398C18.4495 159.298 17.9141 160.089 16.7302 160.773C15.5377 161.461 14.1579 161.776 12.591 161.715C11.0241 161.645 9.55734 161.215 8.19066 160.426C6.82398 159.637 6.08841 158.79 5.98395 157.886ZM14.5888 159.537C15.0241 159.285 15.1546 158.964 14.9805 158.572C14.8064 158.18 14.3364 157.762 13.5703 157.32C12.8043 156.878 12.0861 156.609 11.4158 156.514C10.7369 156.413 10.1797 156.488 9.74449 156.74C9.30054 156.996 9.16126 157.323 9.32665 157.72C9.49205 158.107 9.95777 158.521 10.7238 158.964C11.4898 159.406 12.2124 159.677 12.8913 159.778C13.579 159.873 14.1449 159.793 14.5888 159.537ZM26.0283 152.691L28.1827 153.935L21.4582 157.817L21.4451 157.825L19.7868 156.867L20.1263 153.475C20.1524 153.178 20.1611 152.967 20.1524 152.842C20.1524 152.711 20.1132 152.558 20.0349 152.382C19.9565 152.196 19.8173 152.045 19.6171 151.929C19.3646 151.784 19.0773 151.713 18.7553 151.718C18.4332 151.713 18.1459 151.784 17.8935 151.929C17.2406 152.306 17.3015 152.749 18.0763 153.256L15.2559 154.372C14.4115 153.834 14.0415 153.244 14.146 152.6C14.2504 151.947 14.7989 151.334 15.7912 150.761C16.7836 150.188 17.8456 149.876 18.9772 149.826C20.1089 149.776 21.1274 150.012 22.0327 150.535C22.5985 150.861 22.9467 151.223 23.0773 151.62C23.2079 152.007 23.2383 152.537 23.1687 153.211L23.012 154.432L26.0283 152.691ZM22.5985 148.293C22.4854 147.383 23.0207 146.587 24.2046 145.903C25.3885 145.22 26.7639 144.913 28.3308 144.984C29.889 145.049 31.3514 145.476 32.7181 146.265C34.0847 147.054 34.829 147.901 34.9509 148.806C35.0641 149.705 34.5287 150.497 33.3448 151.18C32.1522 151.869 30.7725 152.183 29.2056 152.123C27.6387 152.052 26.1719 151.623 24.8052 150.834C23.4386 150.045 22.703 149.198 22.5985 148.293ZM31.2034 149.944C31.6387 149.693 31.7692 149.371 31.5951 148.979C31.421 148.587 30.951 148.17 30.1849 147.728C29.4189 147.285 28.7007 147.017 28.0304 146.921C27.3515 146.821 26.7943 146.896 26.3591 147.147C25.9151 147.404 25.7759 147.73 25.9412 148.127C26.1066 148.514 26.5724 148.929 27.3384 149.371C28.1044 149.813 28.8269 150.085 29.5059 150.185C30.1936 150.281 30.7594 150.2 31.2034 149.944Z" fill="white"/>
<rect width="94.0388" height="5.80599" rx="0.861569" transform="matrix(0.866025 -0.5 -0.866025 -0.5 -19.1235 197.876)" fill="#A81B29"/>
<rect width="84.7443" height="5.806" rx="0.861569" transform="matrix(0.866025 -0.5 -0.866025 -0.5 -11.5815 202.231)" fill="#A81B29"/>
<rect width="58.8654" height="5.80597" rx="0.861569" transform="matrix(0.866025 -0.5 -0.866025 -0.5 -4.03955 206.585)" fill="#A81B29"/>
<rect width="131.691" height="66.8031" rx="0.861569" transform="matrix(0.866025 -0.5 -0.866025 -0.5 63.4722 246.639)" fill="#A81B29"/>
</g>
<path d="M16.4813 188.006C12.2152 185.543 12.2152 181.55 16.4813 179.087L217.578 62.9834C221.844 60.5204 228.761 60.5204 233.027 62.9834L490.058 211.38C494.324 213.843 494.324 217.837 490.058 220.3L288.961 336.403C284.695 338.866 277.778 338.866 273.512 336.403L16.4813 188.006Z" fill="#F8FAFD"/>
<path d="M124.046 192.249L131.275 188.076C132.025 188.449 132.477 188.68 132.632 188.769C134.621 189.918 135.603 191.231 135.578 192.708C135.552 194.17 134.531 195.483 132.515 196.646C130.526 197.795 128.194 198.388 125.519 198.426C122.845 198.448 120.558 197.911 118.659 196.814C116.759 195.718 115.836 194.401 115.887 192.865C115.939 191.313 116.953 189.967 118.93 188.825C120.468 187.938 122.16 187.356 124.008 187.08C125.855 186.804 127.606 186.897 129.26 187.36L126.43 190.09C124.918 189.814 123.536 190.037 122.283 190.761C121.327 191.313 120.868 191.958 120.907 192.697C120.933 193.428 121.437 194.077 122.418 194.644C123.4 195.211 124.537 195.501 125.829 195.516C127.108 195.524 128.232 195.248 129.201 194.688C130.584 193.89 130.997 193.025 130.442 192.092L127.108 194.017L124.046 192.249ZM148.18 183.642L151.319 185.454L140.99 191.418L128.005 183.921L138.257 178.002L141.397 179.815L134.866 183.586L136.784 184.693L142.792 181.225L145.641 182.87L139.633 186.338L141.571 187.457L148.18 183.642ZM154.908 172.081L150.839 174.431L160.626 180.081L156.885 182.241L147.098 176.59L143.028 178.94L139.831 177.094L151.711 170.235L154.908 172.081ZM163.94 163.174L176.925 170.671L173.262 172.786L164.58 167.773L163.107 170.391L159.676 168.411L161.537 164.562L163.94 163.174ZM169.215 161.964C169.047 160.614 169.842 159.431 171.599 158.417C173.356 157.402 175.398 156.947 177.723 157.052C180.036 157.149 182.206 157.783 184.235 158.954C186.263 160.125 187.368 161.382 187.549 162.725C187.717 164.06 186.922 165.235 185.165 166.249C183.395 167.271 181.347 167.737 179.022 167.648C176.696 167.543 174.519 166.906 172.491 165.734C170.462 164.563 169.37 163.306 169.215 161.964ZM181.987 164.414C182.633 164.041 182.827 163.564 182.568 162.982C182.31 162.4 181.612 161.781 180.475 161.125C179.338 160.468 178.272 160.069 177.277 159.927C176.27 159.778 175.443 159.89 174.797 160.263C174.138 160.643 173.931 161.128 174.177 161.718C174.422 162.292 175.113 162.907 176.25 163.564C177.387 164.22 178.46 164.623 179.467 164.772C180.488 164.914 181.328 164.795 181.987 164.414ZM182.667 152.027C183.623 151.475 184.747 151.184 186.039 151.154C187.331 151.124 188.474 151.397 189.469 151.971C190.464 152.545 190.936 153.205 190.884 153.951C190.832 154.697 190.328 155.346 189.372 155.898C188.403 156.458 187.266 156.756 185.961 156.793C184.669 156.823 183.526 156.551 182.531 155.977C181.536 155.402 181.065 154.742 181.116 153.996C181.181 153.243 181.698 152.586 182.667 152.027ZM194.721 160.396L191 147.551L192.938 146.432L196.679 159.266L194.721 160.396ZM184.74 153.224C184.404 153.418 184.23 153.653 184.217 153.929C184.204 154.205 184.392 154.455 184.779 154.679C185.154 154.895 185.587 155.003 186.078 155.003C186.569 154.988 186.976 154.888 187.299 154.701C187.622 154.515 187.783 154.287 187.783 154.019C187.783 153.735 187.596 153.485 187.221 153.269C186.833 153.045 186.401 152.937 185.923 152.944C185.457 152.944 185.063 153.038 184.74 153.224ZM198.403 150.863C199.359 150.311 200.483 150.02 201.775 149.99C203.067 149.961 204.211 150.233 205.206 150.807C206.201 151.382 206.672 152.042 206.621 152.788C206.569 153.534 206.065 154.183 205.109 154.735C204.14 155.294 203.003 155.592 201.698 155.63C200.406 155.66 199.263 155.387 198.268 154.813C197.273 154.239 196.801 153.578 196.853 152.832C196.918 152.079 197.434 151.423 198.403 150.863ZM200.477 152.06C200.141 152.254 199.967 152.489 199.954 152.765C199.941 153.041 200.128 153.291 200.516 153.515C200.89 153.731 201.323 153.84 201.814 153.84C202.305 153.825 202.712 153.724 203.035 153.537C203.358 153.351 203.52 153.123 203.52 152.855C203.52 152.571 203.332 152.322 202.958 152.105C202.57 151.881 202.137 151.773 201.659 151.781C201.194 151.781 200.8 151.874 200.477 152.06ZM208.969 140.892L211.256 142.212L217.148 138.81L220.384 140.679L214.492 144.081L218.737 146.531L215.016 148.679L202.031 141.183L212.399 135.196L215.617 137.054L208.969 140.892ZM217.411 134.25C217.45 132.706 218.451 131.367 220.415 130.233C222.379 129.099 224.692 128.525 227.353 128.51C230.015 128.48 232.295 129.013 234.194 130.11C236.094 131.206 237.024 132.527 236.985 134.071C236.946 135.6 235.945 136.931 233.981 138.065C232.017 139.199 229.705 139.781 227.043 139.811C224.382 139.826 222.101 139.285 220.202 138.188C218.303 137.092 217.373 135.779 217.411 134.25ZM227.334 136.913C228.6 136.928 229.698 136.667 230.628 136.129C231.559 135.592 232.004 134.962 231.966 134.238C231.927 133.5 231.417 132.847 230.435 132.28C229.466 131.721 228.342 131.43 227.063 131.408C225.796 131.378 224.698 131.631 223.768 132.169C222.838 132.706 222.392 133.343 222.431 134.082C222.482 134.813 222.993 135.458 223.962 136.018C224.944 136.584 226.068 136.883 227.334 136.913ZM254.839 125.687L250.362 128.272L242.649 127.937L242.145 128.227L246.292 130.622L242.571 132.77L229.586 125.274L236.505 121.279C237.9 120.473 239.425 120.056 241.079 120.026C242.745 119.989 244.231 120.347 245.536 121.1C246.57 121.697 247.183 122.372 247.377 123.125C247.558 123.871 247.313 124.61 246.641 125.341L254.839 125.687ZM239.199 126.527L241.699 125.083C242.216 124.785 242.5 124.472 242.552 124.143C242.59 123.808 242.397 123.517 241.97 123.271C241.557 123.032 241.072 122.931 240.517 122.969C239.948 122.998 239.406 123.162 238.889 123.461L236.389 124.904L239.199 126.527ZM179.843 195.986L175.831 198.303L173.137 197.575L168.021 200.529L169.261 202.096L165.269 204.401L157.517 193.883L161.625 191.511L179.843 195.986ZM168.893 196.423L163.583 194.991L166.044 198.068L168.893 196.423ZM179.758 184.756L182.045 186.077L187.937 182.675L191.173 184.544L185.282 187.945L189.526 190.396L185.805 192.544L172.82 185.047L183.189 179.061L186.406 180.919L179.758 184.756ZM210.081 178.529L205.604 181.113L197.891 180.778L197.387 181.068L201.534 183.463L197.813 185.611L184.828 178.115L191.747 174.12C193.142 173.314 194.667 172.897 196.321 172.867C197.987 172.83 199.473 173.188 200.778 173.941C201.812 174.538 202.425 175.213 202.619 175.966C202.8 176.712 202.555 177.451 201.883 178.182L210.081 178.529ZM194.441 179.368L196.941 177.924C197.458 177.626 197.742 177.313 197.794 176.984C197.832 176.649 197.639 176.358 197.212 176.112C196.799 175.873 196.314 175.772 195.759 175.81C195.19 175.839 194.648 176.004 194.131 176.302L191.631 177.745L194.441 179.368ZM207.239 168.868L213.828 172.672L216.018 171.408L219.216 173.254L211.096 177.942L207.898 176.096L210.088 174.832L203.499 171.028L201.309 172.292L198.111 170.446L206.231 165.757L209.429 167.604L207.239 168.868ZM228.092 164.504L231.231 166.317L220.902 172.281L207.917 164.784L218.169 158.865L221.309 160.678L214.778 164.449L216.696 165.556L222.704 162.088L225.553 163.732L219.545 167.201L221.483 168.32L228.092 164.504ZM233.037 150.281L246.022 157.778L242.941 159.557L230.285 159.143L236.972 163.003L233.251 165.151L220.266 157.655L223.328 155.887L236.216 156.435L229.297 152.441L233.037 150.281ZM235.226 149.017L240.711 145.851C242.83 144.627 245.136 143.99 247.63 143.937C250.123 143.87 252.339 144.396 254.277 145.515C256.215 146.634 257.132 147.917 257.029 149.364C256.926 150.796 255.815 152.124 253.696 153.347L248.211 156.514L235.226 149.017ZM248.792 152.553L250.285 151.691C251.357 151.072 251.913 150.393 251.951 149.655C251.99 148.916 251.512 148.26 250.517 147.686C249.522 147.111 248.386 146.835 247.106 146.858C245.827 146.88 244.652 147.201 243.579 147.82L242.087 148.682L248.792 152.553Z" fill="#305EED"/>
<rect width="60.6409" height="12.926" rx="1.27875" transform="matrix(0.866025 -0.5 -0.866025 -0.5 112.974 148.952)" fill="#C7E1FF"/>
<rect width="139.156" height="8.61735" rx="1.27875" transform="matrix(0.866025 -0.5 -0.866025 -0.5 174.377 223.833)" fill="#C7E1FF"/>
<rect width="125.402" height="8.61737" rx="1.27875" transform="matrix(0.866025 -0.5 -0.866025 -0.5 191.619 226.805)" fill="#C7E1FF"/>
<rect width="87.1073" height="8.61732" rx="1.27875" transform="matrix(0.866025 -0.5 -0.866025 -0.5 219.448 223.663)" fill="#C7E1FF"/>
<rect width="59.727" height="63.7682" rx="1.27875" transform="matrix(0.866025 -0.5 -0.866025 -0.5 271.108 311.483)" fill="#C7E1FF"/>
<rect width="59.727" height="63.7682" rx="1.27875" transform="matrix(0.866025 -0.5 -0.866025 -0.5 333.35 275.547)" fill="#C7E1FF"/>
<rect width="59.727" height="63.7682" rx="1.27875" transform="matrix(0.866025 -0.5 -0.866025 -0.5 395.04 239.931)" fill="#C7E1FF"/>
<g filter="url(#filter2_d)">
<path d="M231.749 234.187C229.834 233.081 229.834 231.289 231.749 230.183L360.746 155.707C362.661 154.601 365.765 154.601 367.68 155.707L531.276 250.159C533.191 251.265 533.191 253.057 531.276 254.163L402.28 328.639C400.365 329.744 397.26 329.744 395.345 328.639L231.749 234.187Z" fill="#184285"/>
<path d="M231.966 234.062C230.171 233.025 230.171 231.345 231.966 230.308L360.963 155.832C362.758 154.796 365.668 154.796 367.464 155.832L531.06 250.284C532.855 251.321 532.855 253.001 531.06 254.037L402.063 328.514C400.268 329.55 397.357 329.55 395.562 328.514L231.966 234.062Z" stroke="#254BC1" stroke-opacity="0.5" stroke-width="0.500425"/>
<path d="M322.275 225.887L322.324 225.915C322.817 225.649 323.383 225.509 324.022 225.495C324.661 225.472 325.287 225.637 325.902 225.992C326.597 226.394 326.909 226.858 326.836 227.386C326.755 227.909 326.29 228.415 325.441 228.905L321.026 231.454L312.9 226.762L317.315 224.213C318.075 223.775 318.879 223.539 319.728 223.506C320.585 223.469 321.342 223.639 321.996 224.017C322.546 224.335 322.817 224.673 322.809 225.033C322.801 225.383 322.623 225.668 322.275 225.887ZM317.036 226.461L318.54 227.33L319.983 226.496C320.242 226.347 320.383 226.186 320.408 226.013C320.424 225.836 320.319 225.682 320.092 225.551C319.874 225.425 319.615 225.369 319.316 225.383C319.025 225.392 318.758 225.467 318.515 225.607L317.036 226.461ZM321.548 229.066L323.112 228.163C323.387 228.004 323.529 227.839 323.537 227.666C323.545 227.484 323.428 227.323 323.185 227.183C322.959 227.052 322.696 226.994 322.397 227.008C322.106 227.017 321.831 227.096 321.572 227.246L319.983 228.163L321.548 229.066ZM333.495 221.944L335.496 223.1L329.335 226.657L321.209 221.965L323.537 220.621L329.662 224.157L333.495 221.944ZM345.176 217.511L342.665 218.961L340.979 218.506L337.777 220.354L338.554 221.335L336.055 222.777L331.203 216.195L333.775 214.71L345.176 217.511ZM338.323 217.784L335 216.888L336.54 218.814L338.323 217.784ZM347.829 213.766C348.307 213.491 348.565 213.183 348.606 212.842C348.654 212.497 348.468 212.137 348.048 211.764L350.91 210.727C351.719 211.4 352.034 212.119 351.856 212.884C351.678 213.64 351.036 214.338 349.928 214.978C348.699 215.688 347.251 216.052 345.586 216.07C343.92 216.08 342.493 215.741 341.304 215.055C340.115 214.369 339.533 213.547 339.558 212.59C339.582 211.624 340.208 210.786 341.438 210.076C342.473 209.479 343.661 209.119 345.003 208.998C346.354 208.872 347.591 209.026 348.715 209.46L346.944 211.126C346.321 210.898 345.715 210.8 345.125 210.832C344.543 210.86 344.013 211.012 343.536 211.288C342.962 211.619 342.687 212.016 342.711 212.478C342.735 212.94 343.051 213.346 343.657 213.696C344.264 214.047 344.967 214.229 345.768 214.243C346.568 214.257 347.255 214.098 347.829 213.766ZM363.314 207.039L360.5 208.664L355.818 208.132L356.061 209.658L357.419 210.443L355.09 211.787L346.964 207.095L349.293 205.751L352.798 207.775L352.252 204.042L354.896 202.516L355.503 206.199L363.314 207.039ZM312.193 246.495L313.624 247.322L317.312 245.193L319.337 246.362L315.65 248.491L318.306 250.025L315.977 251.369L307.851 246.677L314.34 242.931L316.353 244.093L312.193 246.495ZM331.17 242.598L328.369 244.215L323.541 244.005L323.226 244.187L325.821 245.686L323.493 247.03L315.366 242.338L319.696 239.838C320.57 239.334 321.524 239.073 322.559 239.054C323.602 239.031 324.532 239.255 325.348 239.726C325.995 240.1 326.379 240.522 326.501 240.994C326.614 241.461 326.46 241.923 326.04 242.38L331.17 242.598ZM321.382 243.123L322.947 242.219C323.27 242.033 323.448 241.837 323.481 241.631C323.505 241.421 323.384 241.239 323.117 241.085C322.858 240.936 322.555 240.873 322.207 240.896C321.851 240.915 321.512 241.017 321.188 241.204L319.624 242.107L321.382 243.123ZM329.392 236.552L333.516 238.932L334.886 238.141L336.888 239.297L331.806 242.231L329.804 241.075L331.175 240.284L327.051 237.903L325.681 238.694L323.679 237.539L328.761 234.605L330.763 235.76L329.392 236.552ZM329.816 233.996L333.249 232.014C334.575 231.248 336.018 230.849 337.579 230.816C339.139 230.774 340.526 231.104 341.739 231.804C342.952 232.504 343.526 233.307 343.461 234.213C343.397 235.109 342.701 235.94 341.375 236.706L337.943 238.687L329.816 233.996ZM338.307 236.209L339.24 235.669C339.912 235.282 340.259 234.857 340.284 234.395C340.308 233.933 340.009 233.522 339.386 233.162C338.763 232.803 338.052 232.63 337.251 232.644C336.451 232.658 335.715 232.859 335.044 233.246L334.11 233.786L338.307 236.209ZM355.11 228.776L352.6 230.225L350.914 229.77L347.712 231.619L348.488 232.599L345.989 234.042L341.138 227.459L343.709 225.975L355.11 228.776ZM348.257 229.049L344.934 228.152L346.475 230.078L348.257 229.049ZM354.478 219.757L356.94 224.848L359.426 226.284L357 227.684L354.514 226.249L345.805 224.764L348.365 223.287L353.435 224.169L351.894 221.249L354.478 219.757ZM361.445 215.525C362.407 214.969 363.401 214.633 364.428 214.517C365.455 214.4 366.417 214.517 367.315 214.867L365.496 216.449C365.067 216.286 364.655 216.225 364.258 216.267C363.862 216.309 363.527 216.41 363.252 216.568C362.993 216.718 362.843 216.874 362.803 217.038C362.763 217.192 362.843 217.327 363.046 217.444C363.321 217.602 363.652 217.612 364.04 217.472L366.078 216.743C368.01 216.076 369.587 216.095 370.808 216.8C371.415 217.15 371.75 217.549 371.815 217.997C371.888 218.44 371.762 218.858 371.439 219.25C371.115 219.643 370.654 220.011 370.056 220.357C369.053 220.936 367.986 221.291 366.854 221.421C365.722 221.552 364.715 221.428 363.834 221.05L365.762 219.418C366.668 219.727 367.489 219.668 368.225 219.243C368.508 219.08 368.681 218.914 368.746 218.746C368.811 218.578 368.738 218.433 368.528 218.312C368.253 218.153 367.885 218.156 367.424 218.319L365.338 219.061C363.502 219.72 361.974 219.696 360.753 218.991C359.92 218.51 359.581 217.955 359.734 217.325C359.888 216.694 360.458 216.095 361.445 215.525ZM382.944 212.706L380.434 214.155L378.748 213.7L375.546 215.549L376.322 216.529L373.823 217.972L368.972 211.389L371.543 209.905L382.944 212.706ZM376.091 212.979L372.768 212.083L374.309 214.008L376.091 212.979ZM387.917 207.524L389.918 208.68L383.756 212.237L375.63 207.545L377.959 206.201L384.084 209.737L387.917 207.524ZM395.546 203.161L397.511 204.296L391.047 208.028L382.92 203.336L389.336 199.632L391.301 200.766L387.214 203.126L388.415 203.819L392.175 201.649L393.957 202.678L390.198 204.849L391.41 205.549L395.546 203.161Z" fill="white"/>
<rect width="38.0658" height="8.08968" rx="0.800302" transform="matrix(0.866025 -0.5 -0.866025 -0.5 293.661 210.444)" fill="#1F3169"/>
<rect width="87.3516" height="5.39313" rx="0.800302" transform="matrix(0.866025 -0.5 -0.866025 -0.5 332.025 257.346)" fill="#1F3169"/>
<rect width="78.718" height="5.39313" rx="0.800302" transform="matrix(0.866025 -0.5 -0.866025 -0.5 342.827 259.199)" fill="#1F3169"/>
<rect width="54.6794" height="5.39311" rx="0.800302" transform="matrix(0.866025 -0.5 -0.866025 -0.5 360.275 257.215)" fill="#1F3169"/>
<rect width="37.4921" height="39.9091" rx="0.800302" transform="matrix(0.866025 -0.5 -0.866025 -0.5 392.512 312.231)" fill="#1F3169"/>
</g>
</g>
<defs>
<filter id="filter0_d" x="-173.391" y="37.5183" width="427.869" height="290.276" filterUnits="userSpaceOnUse" color-interpolation-filters="sRGB">
<feFlood flood-opacity="0" result="BackgroundImageFix"/>
<feColorMatrix in="SourceAlpha" type="matrix" values="0 0 0 0 0 0 0 0 0 0 0 0 0 0 0 0 0 0 127 0"/>
<feOffset dx="-11.3689" dy="11.3689"/>
<feGaussianBlur stdDeviation="25.58"/>
<feColorMatrix type="matrix" values="0 0 0 0 0 0 0 0 0 0 0 0 0 0 0 0 0 0 0.25 0"/>
<feBlend mode="normal" in2="BackgroundImageFix" result="effect1_dropShadow"/>
<feBlend mode="normal" in="SourceGraphic" in2="effect1_dropShadow" result="shape"/>
</filter>
<filter id="filter2_d" x="167.784" y="115.087" width="404.719" height="276.91" filterUnits="userSpaceOnUse" color-interpolation-filters="sRGB">
<feFlood flood-opacity="0" result="BackgroundImageFix"/>
<feColorMatrix in="SourceAlpha" type="matrix" values="0 0 0 0 0 0 0 0 0 0 0 0 0 0 0 0 0 0 127 0"/>
<feOffset dx="-11.3689" dy="11.3689"/>
<feGaussianBlur stdDeviation="25.58"/>
<feColorMatrix type="matrix" values="0 0 0 0 0 0 0 0 0 0 0 0 0 0 0 0 0 0 0.25 0"/>
<feBlend mode="normal" in2="BackgroundImageFix" result="effect1_dropShadow"/>
<feBlend mode="normal" in="SourceGraphic" in2="effect1_dropShadow" result="shape"/>
</filter>
</defs>
</svg>
