<svg width="645" height="755" viewBox="0 0 645 755" fill="none" xmlns="http://www.w3.org/2000/svg">
<g filter="url(#filter0_d)">
<g filter="url(#filter1_b)">
<path d="M84 58.7258C84 55.5636 86.5635 53 89.7258 53H303.274C306.436 53 309 55.5635 309 58.7258V328.904C309 332.067 306.436 334.63 303.274 334.63H89.7258C86.5635 334.63 84 332.067 84 328.904V58.7258Z" fill="#D1003C"/>
<path d="M84.3579 58.7258C84.3579 55.7612 86.7612 53.3579 89.7258 53.3579H303.274C306.239 53.3579 308.642 55.7612 308.642 58.7258V328.904C308.642 331.869 306.239 334.272 303.274 334.272H89.7258C86.7612 334.272 84.3579 331.869 84.3579 328.904V58.7258Z" stroke="#671717" stroke-width="0.715727"/>
</g>
<path d="M114.316 125.211C115.104 125.211 115.758 124.984 116.279 124.53C116.813 124.076 117.174 123.408 117.361 122.527L121.207 123.408C120.913 125.037 120.145 126.326 118.903 127.274C117.674 128.209 116.145 128.676 114.316 128.676C112.286 128.676 110.57 128.002 109.168 126.653C107.779 125.291 107.085 123.628 107.085 121.665C107.085 119.702 107.779 118.046 109.168 116.698C110.57 115.336 112.286 114.655 114.316 114.655C116.025 114.655 117.521 115.122 118.803 116.057C120.098 116.991 120.899 118.233 121.207 119.782L117.361 120.704C117.174 119.863 116.813 119.222 116.279 118.781C115.758 118.34 115.104 118.12 114.316 118.12C113.368 118.12 112.573 118.46 111.932 119.141C111.291 119.823 110.971 120.664 110.971 121.665C110.971 122.667 111.291 123.508 111.932 124.189C112.573 124.87 113.368 125.211 114.316 125.211ZM135.762 114.955V128.376H131.896V123.268H126.988V128.376H123.143V114.955H126.988V119.963H131.896V114.955H135.762ZM150.698 128.376H146.071L142.385 124.089H141.865V128.376H138.019V114.955H145.17C146.612 114.955 147.774 115.369 148.655 116.197C149.55 117.025 149.997 118.113 149.997 119.462C149.997 120.53 149.71 121.452 149.136 122.226C148.562 122.987 147.774 123.522 146.772 123.829L150.698 128.376ZM141.865 121.044H144.449C144.983 121.044 145.41 120.911 145.73 120.644C146.051 120.363 146.211 120.003 146.211 119.562C146.211 119.135 146.051 118.794 145.73 118.541C145.41 118.273 144.983 118.14 144.449 118.14H141.865V121.044ZM157.877 118.26V125.071H160.14V128.376H151.747V125.071H154.011V118.26H151.747V114.955H160.14V118.26H157.877ZM167.471 114.655C169.06 114.655 170.362 114.995 171.377 115.676C172.392 116.357 173.02 117.319 173.26 118.561L169.494 119.322C169.374 118.734 169.121 118.307 168.733 118.04C168.346 117.773 167.925 117.639 167.471 117.639C167.044 117.639 166.697 117.739 166.43 117.94C166.176 118.127 166.049 118.387 166.049 118.721C166.049 119.175 166.31 119.462 166.83 119.582L169.555 120.223C172.105 120.864 173.38 122.193 173.38 124.209C173.38 125.211 173.087 126.059 172.499 126.753C171.925 127.448 171.224 127.942 170.396 128.235C169.568 128.529 168.66 128.676 167.672 128.676C166.016 128.676 164.627 128.302 163.505 127.554C162.384 126.807 161.729 125.798 161.542 124.53L165.468 123.789C165.775 124.977 166.537 125.571 167.752 125.571C168.219 125.571 168.6 125.478 168.894 125.291C169.187 125.104 169.334 124.837 169.334 124.49C169.334 124.036 169.027 123.735 168.413 123.588L165.629 122.927C163.171 122.353 161.943 121.058 161.943 119.041C161.943 117.666 162.457 116.591 163.485 115.816C164.513 115.042 165.842 114.655 167.471 114.655ZM186.795 118.26H182.589V128.376H178.723V118.26H174.516V114.955H186.795V118.26ZM204.549 114.955V128.376H200.783V122.306L197.798 128.376H195.295L192.31 122.346V128.376H188.544V114.955H192.61L196.536 122.286L200.483 114.955H204.549ZM220.946 128.376H216.799L216.058 126.333H210.77L210.009 128.376H205.882L211.291 114.955H215.537L220.946 128.376ZM214.896 123.108L213.434 119.081L211.952 123.108H214.896ZM227.386 114.655C228.976 114.655 230.278 114.995 231.292 115.676C232.307 116.357 232.935 117.319 233.175 118.561L229.41 119.322C229.289 118.734 229.036 118.307 228.648 118.04C228.261 117.773 227.84 117.639 227.386 117.639C226.959 117.639 226.612 117.739 226.345 117.94C226.091 118.127 225.964 118.387 225.964 118.721C225.964 119.175 226.225 119.462 226.745 119.582L229.47 120.223C232.02 120.864 233.296 122.193 233.296 124.209C233.296 125.211 233.002 126.059 232.414 126.753C231.84 127.448 231.139 127.942 230.311 128.235C229.483 128.529 228.575 128.676 227.587 128.676C225.931 128.676 224.542 128.302 223.42 127.554C222.299 126.807 221.644 125.798 221.457 124.53L225.383 123.789C225.69 124.977 226.452 125.571 227.667 125.571C228.134 125.571 228.515 125.478 228.809 125.291C229.102 125.104 229.249 124.837 229.249 124.49C229.249 124.036 228.942 123.735 228.328 123.588L225.544 122.927C223.086 122.353 221.858 121.058 221.858 119.041C221.858 117.666 222.372 116.591 223.4 115.816C224.428 115.042 225.757 114.655 227.386 114.655ZM113.014 138.655C114.603 138.655 115.905 138.995 116.92 139.676C117.935 140.357 118.563 141.319 118.803 142.561L115.037 143.322C114.917 142.734 114.663 142.307 114.276 142.04C113.889 141.773 113.468 141.639 113.014 141.639C112.587 141.639 112.239 141.739 111.972 141.94C111.719 142.127 111.592 142.387 111.592 142.721C111.592 143.175 111.852 143.462 112.373 143.582L115.097 144.223C117.648 144.864 118.923 146.193 118.923 148.209C118.923 149.211 118.629 150.059 118.042 150.753C117.467 151.448 116.766 151.942 115.938 152.235C115.111 152.529 114.202 152.676 113.214 152.676C111.558 152.676 110.17 152.302 109.048 151.554C107.926 150.807 107.272 149.798 107.085 148.53L111.011 147.789C111.318 148.977 112.079 149.571 113.294 149.571C113.762 149.571 114.142 149.478 114.436 149.291C114.73 149.104 114.877 148.837 114.877 148.49C114.877 148.036 114.57 147.735 113.955 147.588L111.171 146.927C108.714 146.353 107.485 145.058 107.485 143.041C107.485 141.666 108 140.591 109.028 139.816C110.056 139.042 111.385 138.655 113.014 138.655ZM134.8 152.376H130.653L129.912 150.333H124.624L123.863 152.376H119.736L125.145 138.955H129.391L134.8 152.376ZM128.75 147.108L127.288 143.081L125.806 147.108H128.75ZM146.316 149.071V152.376H136.141V138.955H139.987V149.071H146.316ZM158.857 149.131V152.376H148.18V138.955H158.777V142.2H152.026V144.183H158.236V147.128H152.026V149.131H158.857ZM175.661 149.071V152.376H165.345H165.325V149.832L170.092 145.585C170.506 145.211 170.793 144.938 170.953 144.764C171.127 144.59 171.3 144.357 171.474 144.063C171.661 143.756 171.755 143.449 171.755 143.141C171.755 142.754 171.628 142.44 171.374 142.2C171.134 141.946 170.82 141.819 170.432 141.819C169.431 141.819 168.89 142.454 168.81 143.722L165.164 143.041C165.231 141.679 165.732 140.611 166.667 139.836C167.615 139.048 168.85 138.655 170.372 138.655C171.895 138.655 173.123 139.055 174.058 139.856C174.993 140.658 175.46 141.753 175.46 143.141C175.46 144.009 175.247 144.757 174.819 145.385C174.405 145.999 173.724 146.727 172.776 147.568L171.033 149.071H175.661ZM178.872 140.598C179.994 139.302 181.463 138.655 183.279 138.655C185.095 138.655 186.557 139.302 187.666 140.598C188.774 141.88 189.328 143.569 189.328 145.665C189.328 147.762 188.774 149.458 187.666 150.753C186.557 152.035 185.095 152.676 183.279 152.676C181.45 152.676 179.974 152.035 178.852 150.753C177.744 149.458 177.19 147.762 177.19 145.665C177.19 143.569 177.75 141.88 178.872 140.598ZM183.279 149.391C183.947 149.391 184.474 149.064 184.861 148.41C185.249 147.755 185.442 146.84 185.442 145.665C185.442 144.49 185.249 143.582 184.861 142.941C184.474 142.287 183.947 141.96 183.279 141.96C182.598 141.96 182.057 142.287 181.657 142.941C181.269 143.582 181.076 144.49 181.076 145.665C181.076 146.84 181.269 147.755 181.657 148.41C182.057 149.064 182.598 149.391 183.279 149.391ZM201.148 149.071V152.376H190.832H190.812V149.832L195.58 145.585C195.994 145.211 196.281 144.938 196.441 144.764C196.615 144.59 196.788 144.357 196.962 144.063C197.149 143.756 197.242 143.449 197.242 143.141C197.242 142.754 197.115 142.44 196.862 142.2C196.621 141.946 196.307 141.819 195.92 141.819C194.919 141.819 194.378 142.454 194.298 143.722L190.652 143.041C190.719 141.679 191.22 140.611 192.154 139.836C193.103 139.048 194.338 138.655 195.86 138.655C197.382 138.655 198.611 139.055 199.546 139.856C200.481 140.658 200.948 141.753 200.948 143.141C200.948 144.009 200.734 144.757 200.307 145.385C199.893 145.999 199.212 146.727 198.264 147.568L196.521 149.071H201.148ZM204.36 140.598C205.482 139.302 206.951 138.655 208.767 138.655C210.583 138.655 212.045 139.302 213.154 140.598C214.262 141.88 214.816 143.569 214.816 145.665C214.816 147.762 214.262 149.458 213.154 150.753C212.045 152.035 210.583 152.676 208.767 152.676C206.937 152.676 205.462 152.035 204.34 150.753C203.232 149.458 202.677 147.762 202.677 145.665C202.677 143.569 203.238 141.88 204.36 140.598ZM208.767 149.391C209.434 149.391 209.962 149.064 210.349 148.41C210.736 147.755 210.93 146.84 210.93 145.665C210.93 144.49 210.736 143.582 210.349 142.941C209.962 142.287 209.434 141.96 208.767 141.96C208.086 141.96 207.545 142.287 207.144 142.941C206.757 143.582 206.563 144.49 206.563 145.665C206.563 146.84 206.757 147.755 207.144 148.41C207.545 149.064 208.086 149.391 208.767 149.391Z" fill="white"/>
<rect width="54.5669" height="11.5702" rx="1.14462" transform="matrix(1 0 0 -1 106.484 75.8924)" fill="#A81B29"/>
<rect width="125.218" height="7.71345" rx="1.14462" transform="matrix(1 0 0 -1 106.485 174.652)" fill="#A81B29"/>
<rect width="112.842" height="7.71347" rx="1.14462" transform="matrix(1 0 0 -1 106.485 186.222)" fill="#A81B29"/>
<rect width="78.3824" height="7.71343" rx="1.14462" transform="matrix(1 0 0 -1 106.485 197.793)" fill="#A81B29"/>
<rect width="175.353" height="88.7502" rx="1.14462" transform="matrix(1 0 0 -1 105.053 302.789)" fill="#A81B29"/>
</g>
<path d="M147 188.85C147 182.305 152.305 177 158.85 177H468.099C474.643 177 479.948 182.305 479.948 188.85V583.15C479.948 589.695 474.643 595 468.099 595H158.85C152.305 595 147 589.695 147 583.15V188.85Z" fill="#F8FAFD"/>
<path d="M224.246 277.75H235.335C235.414 278.82 235.454 279.475 235.454 279.712C235.454 282.765 234.463 285.262 232.481 287.204C230.519 289.127 227.992 290.088 224.9 290.088C221.848 290.088 219.271 289.087 217.17 287.085C215.089 285.064 214.048 282.596 214.048 279.683C214.048 276.769 215.089 274.311 217.17 272.31C219.271 270.288 221.838 269.277 224.87 269.277C227.229 269.277 229.3 269.802 231.084 270.853C232.868 271.903 234.087 273.37 234.741 275.253L228.943 276.71C228.15 275.183 226.793 274.42 224.87 274.42C223.403 274.42 222.194 274.926 221.243 275.937C220.292 276.928 219.816 278.176 219.816 279.683C219.816 281.189 220.302 282.448 221.273 283.458C222.244 284.449 223.473 284.945 224.959 284.945C227.08 284.945 228.547 284.112 229.359 282.448H224.246V277.75ZM254.192 284.826V289.642H238.346V269.723H254.073V274.539H244.054V277.483H253.271V281.853H244.054V284.826H254.192ZM274.712 274.629H268.468V289.642H262.73V274.629H256.487V269.723H274.712V274.629ZM293.472 269.723V289.642H287.853V276.323L283.245 278.672V273.41L289.785 269.723H293.472ZM299.127 272.161C300.792 270.238 302.972 269.277 305.667 269.277C308.363 269.277 310.533 270.238 312.178 272.161C313.823 274.064 314.646 276.571 314.646 279.683C314.646 282.794 313.823 285.312 312.178 287.234C310.533 289.137 308.363 290.088 305.667 290.088C302.952 290.088 300.762 289.137 299.097 287.234C297.452 285.312 296.629 282.794 296.629 279.683C296.629 276.571 297.462 274.064 299.127 272.161ZM305.667 285.212C306.658 285.212 307.441 284.727 308.016 283.756C308.591 282.785 308.878 281.427 308.878 279.683C308.878 277.938 308.591 276.591 308.016 275.639C307.441 274.668 306.658 274.183 305.667 274.183C304.657 274.183 303.854 274.668 303.259 275.639C302.685 276.591 302.397 277.938 302.397 279.683C302.397 281.427 302.685 282.785 303.259 283.756C303.854 284.727 304.657 285.212 305.667 285.212ZM322.646 269.277C324.113 269.277 325.361 269.753 326.392 270.704C327.423 271.656 327.938 272.894 327.938 274.42C327.938 275.947 327.423 277.185 326.392 278.137C325.361 279.088 324.113 279.564 322.646 279.564C321.159 279.564 319.891 279.088 318.84 278.137C317.81 277.185 317.294 275.947 317.294 274.42C317.294 272.894 317.81 271.656 318.84 270.704C319.891 269.753 321.159 269.277 322.646 269.277ZM320.773 289.642L334.984 269.723H337.957L323.776 289.642H320.773ZM322.646 272.458C322.131 272.458 321.685 272.637 321.308 272.993C320.931 273.35 320.743 273.826 320.743 274.42C320.743 274.995 320.931 275.471 321.308 275.847C321.704 276.204 322.15 276.383 322.646 276.383C323.141 276.383 323.568 276.204 323.924 275.847C324.301 275.471 324.489 274.995 324.489 274.42C324.489 273.826 324.301 273.35 323.924 272.993C323.568 272.637 323.141 272.458 322.646 272.458ZM336.262 279.802C337.729 279.802 338.978 280.277 340.008 281.229C341.039 282.18 341.554 283.419 341.554 284.945C341.554 286.471 341.039 287.71 340.008 288.661C338.978 289.613 337.729 290.088 336.262 290.088C334.776 290.088 333.507 289.613 332.457 288.661C331.426 287.71 330.911 286.471 330.911 284.945C330.911 283.419 331.426 282.18 332.457 281.229C333.507 280.277 334.776 279.802 336.262 279.802ZM336.262 282.983C335.747 282.983 335.301 283.161 334.924 283.518C334.548 283.875 334.36 284.35 334.36 284.945C334.36 285.52 334.548 285.995 334.924 286.372C335.321 286.729 335.767 286.907 336.262 286.907C336.758 286.907 337.184 286.729 337.541 286.372C337.917 285.995 338.106 285.52 338.106 284.945C338.106 284.35 337.917 283.875 337.541 283.518C337.184 283.161 336.758 282.983 336.262 282.983ZM357.614 274.658V278.166H366.652V283.131H357.614V289.642H351.906V269.723H367.812V274.658H357.614ZM372.914 272.31C374.995 270.288 377.542 269.277 380.554 269.277C383.567 269.277 386.104 270.288 388.165 272.31C390.246 274.311 391.287 276.769 391.287 279.683C391.287 282.596 390.246 285.064 388.165 287.085C386.104 289.087 383.567 290.088 380.554 290.088C377.542 290.088 374.995 289.087 372.914 287.085C370.852 285.064 369.822 282.596 369.822 279.683C369.822 276.769 370.852 274.311 372.914 272.31ZM376.987 283.458C377.938 284.449 379.127 284.945 380.554 284.945C381.981 284.945 383.161 284.449 384.092 283.458C385.043 282.448 385.519 281.189 385.519 279.683C385.519 278.196 385.043 276.947 384.092 275.937C383.161 274.926 381.981 274.42 380.554 274.42C379.127 274.42 377.938 274.926 376.987 275.937C376.055 276.947 375.589 278.196 375.589 279.683C375.589 281.189 376.055 282.448 376.987 283.458ZM412.997 289.642H406.129L400.659 283.28H399.886V289.642H394.177V269.723H404.791C406.932 269.723 408.656 270.337 409.964 271.566C411.292 272.795 411.956 274.411 411.956 276.412C411.956 277.998 411.53 279.366 410.678 280.515C409.825 281.645 408.656 282.438 407.169 282.894L412.997 289.642ZM399.886 278.761H403.721C404.514 278.761 405.148 278.563 405.623 278.166C406.099 277.75 406.337 277.215 406.337 276.561C406.337 275.927 406.099 275.421 405.623 275.045C405.148 274.648 404.514 274.45 403.721 274.45H399.886V278.761ZM262.078 325.642H255.924L254.824 322.61H246.975L245.845 325.642H239.721L247.748 305.723H254.051L262.078 325.642ZM253.099 317.823L250.929 311.847L248.729 317.823H253.099ZM276.933 310.658V314.166H285.971V319.131H276.933V325.642H271.225V305.723H287.13V310.658H276.933ZM308.465 325.642H301.597L296.127 319.28H295.354V325.642H289.646V305.723H300.259C302.4 305.723 304.124 306.337 305.432 307.566C306.76 308.795 307.424 310.411 307.424 312.412C307.424 313.998 306.998 315.366 306.146 316.515C305.294 317.645 304.124 318.438 302.638 318.894L308.465 325.642ZM295.354 314.761H299.189C299.982 314.761 300.616 314.563 301.092 314.166C301.567 313.75 301.805 313.215 301.805 312.561C301.805 311.927 301.567 311.421 301.092 311.045C300.616 310.648 299.982 310.45 299.189 310.45H295.354V314.761ZM319.12 310.629V320.737H322.479V325.642H310.022V320.737H313.382V310.629H310.022V305.723H322.479V310.629H319.12ZM340.911 320.826V325.642H325.065V305.723H340.792V310.539H330.773V313.483H339.99V317.853H330.773V320.826H340.911ZM363.601 305.723V325.642H358.874L349.717 315.385V325.642H344.009V305.723H348.706L357.863 316.337V305.723H363.601ZM366.959 305.723H375.373C378.623 305.723 381.24 306.645 383.222 308.488C385.223 310.311 386.224 312.71 386.224 315.683C386.224 318.656 385.223 321.064 383.222 322.907C381.24 324.731 378.623 325.642 375.373 325.642H366.959V305.723ZM372.667 320.826H374.957C376.602 320.826 377.93 320.35 378.94 319.399C379.951 318.448 380.457 317.209 380.457 315.683C380.457 314.157 379.951 312.918 378.94 311.966C377.93 311.015 376.602 310.539 374.957 310.539H372.667V320.826Z" fill="#305EED"/>
<rect width="80.7465" height="17.1726" rx="1.69887" transform="matrix(1 0 0 -1 273.184 210.977)" fill="#C7E1FF"/>
<rect width="185.294" height="11.4484" rx="1.69887" transform="matrix(1 0 0 -1 220.68 357.558)" fill="#C7E1FF"/>
<rect width="166.98" height="11.4484" rx="1.69887" transform="matrix(1 0 0 -1 229.979 374.731)" fill="#C7E1FF"/>
<rect width="115.988" height="11.4484" rx="1.69887" transform="matrix(1 0 0 -1 255.556 391.903)" fill="#C7E1FF"/>
<rect width="79.5297" height="84.7182" rx="1.69887" transform="matrix(1 0 0 -1 178.335 548.199)" fill="#C7E1FF"/>
<rect width="79.5297" height="84.7182" rx="1.69887" transform="matrix(1 0 0 -1 274.034 548.199)" fill="#C7E1FF"/>
<rect width="79.5297" height="84.7182" rx="1.69887" transform="matrix(1 0 0 -1 368.884 548.199)" fill="#C7E1FF"/>
<g filter="url(#filter2_d)">
<g filter="url(#filter3_b)">
<path d="M251 415.319C251 412.381 253.381 410 256.319 410H454.681C457.619 410 460 412.381 460 415.319V666.285C460 669.222 457.619 671.603 454.681 671.603H256.319C253.381 671.603 251 669.222 251 666.285V415.319Z" fill="#184285"/>
<path d="M251.332 415.319C251.332 412.565 253.565 410.332 256.319 410.332H454.681C457.435 410.332 459.668 412.565 459.668 415.319V666.285C459.668 669.038 457.435 671.271 454.681 671.271H256.319C253.565 671.271 251.332 669.038 251.332 666.285V415.319Z" stroke="#254BC1" stroke-opacity="0.5" stroke-width="0.664831"/>
</g>
<path d="M331.699 473.787V473.861C332.431 473.886 333.051 474.134 333.56 474.605C334.081 475.064 334.341 475.765 334.341 476.708C334.341 477.775 333.963 478.631 333.206 479.276C332.45 479.908 331.42 480.225 330.118 480.225H323.345V467.758H330.118C331.284 467.758 332.214 468.062 332.909 468.67C333.616 469.278 333.969 470.084 333.969 471.089C333.969 471.932 333.727 472.59 333.244 473.061C332.772 473.52 332.257 473.762 331.699 473.787ZM326.917 470.531V472.838H329.132C329.528 472.838 329.851 472.732 330.099 472.521C330.347 472.298 330.471 472.013 330.471 471.666C330.471 471.331 330.347 471.058 330.099 470.847C329.863 470.636 329.559 470.531 329.187 470.531H326.917ZM326.917 477.452H329.318C329.739 477.452 330.068 477.341 330.304 477.117C330.552 476.882 330.676 476.578 330.676 476.206C330.676 475.858 330.552 475.579 330.304 475.368C330.068 475.157 329.752 475.052 329.355 475.052H326.917V477.452ZM345.543 477.155V480.225H336.091V467.758H339.664V477.155H345.543ZM360.392 480.225H356.541L355.852 478.327H350.94L350.233 480.225H346.4L351.424 467.758H355.368L360.392 480.225ZM354.773 475.331L353.415 471.591L352.038 475.331H354.773ZM367.403 477.285C368.134 477.285 368.742 477.074 369.226 476.652C369.722 476.23 370.057 475.61 370.231 474.791L373.803 475.61C373.53 477.124 372.817 478.321 371.663 479.201C370.522 480.07 369.102 480.504 367.403 480.504C365.517 480.504 363.923 479.877 362.621 478.624C361.331 477.359 360.686 475.815 360.686 473.991C360.686 472.168 361.331 470.63 362.621 469.377C363.923 468.112 365.517 467.479 367.403 467.479C368.99 467.479 370.38 467.913 371.57 468.782C372.774 469.65 373.518 470.804 373.803 472.242L370.231 473.098C370.057 472.317 369.722 471.721 369.226 471.312C368.742 470.903 368.134 470.698 367.403 470.698C366.522 470.698 365.784 471.014 365.188 471.647C364.593 472.28 364.295 473.061 364.295 473.991C364.295 474.922 364.593 475.703 365.188 476.336C365.784 476.968 366.522 477.285 367.403 477.285ZM388.217 480.225H383.9L381.016 475.926L379.174 478.141V480.225H375.601V467.758H379.174V473.136L383.714 467.758H387.77L383.342 473.117L388.217 480.225ZM296.587 492.847V495.042H302.244V498.15H296.587V502.225H293.015V489.758H302.969V492.847H296.587ZM316.322 502.225H312.023L308.6 498.243H308.116V502.225H304.544V489.758H311.186C312.526 489.758 313.605 490.143 314.424 490.912C315.255 491.681 315.67 492.692 315.67 493.945C315.67 494.937 315.404 495.793 314.87 496.512C314.337 497.219 313.605 497.716 312.675 498.001L316.322 502.225ZM308.116 495.415H310.516C311.013 495.415 311.409 495.291 311.707 495.042C312.005 494.782 312.154 494.447 312.154 494.038C312.154 493.641 312.005 493.324 311.707 493.089C311.409 492.841 311.013 492.717 310.516 492.717H308.116V495.415ZM322.99 492.828V499.155H325.092V502.225H317.296V499.155H319.399V492.828H317.296V489.758H325.092V492.828H322.99ZM326.711 489.758H331.976C334.011 489.758 335.648 490.335 336.889 491.489C338.141 492.63 338.768 494.131 338.768 495.991C338.768 497.852 338.141 499.359 336.889 500.513C335.648 501.654 334.011 502.225 331.976 502.225H326.711V489.758ZM330.283 499.21H331.716C332.745 499.21 333.577 498.913 334.209 498.317C334.842 497.722 335.158 496.947 335.158 495.991C335.158 495.036 334.842 494.261 334.209 493.666C333.577 493.07 332.745 492.772 331.716 492.772H330.283V499.21ZM353.047 502.225H349.195L348.507 500.327H343.595L342.888 502.225H339.055L344.079 489.758H348.023L353.047 502.225ZM347.428 497.331L346.07 493.591L344.693 497.331H347.428ZM364.543 489.758L359.668 498.41V502.225H355.946V498.41L351.239 489.758H355.165L357.882 494.819L360.58 489.758H364.543ZM375.509 489.479C376.986 489.479 378.195 489.795 379.138 490.428C380.08 491.061 380.663 491.954 380.887 493.107L377.389 493.814C377.277 493.269 377.041 492.872 376.682 492.624C376.322 492.376 375.931 492.252 375.509 492.252C375.113 492.252 374.79 492.345 374.542 492.531C374.306 492.704 374.188 492.946 374.188 493.256C374.188 493.678 374.43 493.945 374.914 494.056L377.445 494.652C379.814 495.247 380.998 496.481 380.998 498.354C380.998 499.285 380.725 500.072 380.18 500.717C379.646 501.362 378.995 501.821 378.226 502.094C377.457 502.367 376.613 502.504 375.696 502.504C374.157 502.504 372.867 502.156 371.825 501.462C370.783 500.767 370.176 499.831 370.002 498.652L373.649 497.964C373.934 499.068 374.641 499.62 375.77 499.62C376.204 499.62 376.558 499.533 376.831 499.359C377.103 499.186 377.24 498.937 377.24 498.615C377.24 498.193 376.955 497.914 376.384 497.778L373.798 497.164C371.515 496.63 370.374 495.427 370.374 493.554C370.374 492.276 370.852 491.278 371.807 490.558C372.762 489.839 373.996 489.479 375.509 489.479ZM395.746 502.225H391.894L391.206 500.327H386.294L385.587 502.225H381.754L386.778 489.758H390.722L395.746 502.225ZM390.127 497.331L388.768 493.591L387.392 497.331H390.127ZM406.444 499.155V502.225H396.992V489.758H400.564V499.155H406.444ZM418.092 499.21V502.225H408.175V489.758H418.018V492.772H411.748V494.615H417.516V497.35H411.748V499.21H418.092Z" fill="white"/>
<rect width="50.6866" height="10.7474" rx="1.06323" transform="matrix(1 0 0 -1 330.21 431.265)" fill="#1F3169"/>
<rect width="116.313" height="7.16494" rx="1.06323" transform="matrix(1 0 0 -1 297.251 523.001)" fill="#1F3169"/>
<rect width="104.817" height="7.16495" rx="1.06323" transform="matrix(1 0 0 -1 303.088 533.749)" fill="#1F3169"/>
<rect width="72.8085" height="7.16492" rx="1.06323" transform="matrix(1 0 0 -1 319.144 544.496)" fill="#1F3169"/>
<rect width="49.9228" height="53.0205" rx="1.06323" transform="matrix(1 0 0 -1 270.669 642.313)" fill="#1F3169"/>
<rect width="49.9228" height="53.0205" rx="1.06323" transform="matrix(1 0 0 -1 330.742 642.313)" fill="#1F3169"/>
<rect width="49.9228" height="53.0205" rx="1.06323" transform="matrix(1 0 0 -1 390.282 642.313)" fill="#1F3169"/>
</g>
<defs>
<filter id="filter0_d" x="0.928408" y="0.136259" width="360.935" height="417.566" filterUnits="userSpaceOnUse" color-interpolation-filters="sRGB">
<feFlood flood-opacity="0" result="BackgroundImageFix"/>
<feColorMatrix in="SourceAlpha" type="matrix" values="0 0 0 0 0 0 0 0 0 0 0 0 0 0 0 0 0 0 127 0"/>
<feOffset dx="-15.1039" dy="15.1039"/>
<feGaussianBlur stdDeviation="33.9838"/>
<feColorMatrix type="matrix" values="0 0 0 0 0 0 0 0 0 0 0 0 0 0 0 0 0 0 0.25 0"/>
<feBlend mode="normal" in2="BackgroundImageFix" result="effect1_dropShadow"/>
<feBlend mode="normal" in="SourceGraphic" in2="effect1_dropShadow" result="shape"/>
</filter>
<filter id="filter1_b" x="41.0564" y="10.0564" width="310.887" height="367.518" filterUnits="userSpaceOnUse" color-interpolation-filters="sRGB">
<feFlood flood-opacity="0" result="BackgroundImageFix"/>
<feGaussianBlur in="BackgroundImage" stdDeviation="21.4718"/>
<feComposite in2="SourceAlpha" operator="in" result="effect1_backgroundBlur"/>
<feBlend mode="normal" in="SourceGraphic" in2="effect1_backgroundBlur" result="shape"/>
</filter>
<filter id="filter2_d" x="167.928" y="357.136" width="344.935" height="397.539" filterUnits="userSpaceOnUse" color-interpolation-filters="sRGB">
<feFlood flood-opacity="0" result="BackgroundImageFix"/>
<feColorMatrix in="SourceAlpha" type="matrix" values="0 0 0 0 0 0 0 0 0 0 0 0 0 0 0 0 0 0 127 0"/>
<feOffset dx="-15.1039" dy="15.1039"/>
<feGaussianBlur stdDeviation="33.9838"/>
<feColorMatrix type="matrix" values="0 0 0 0 0 0 0 0 0 0 0 0 0 0 0 0 0 0 0.25 0"/>
<feBlend mode="normal" in2="BackgroundImageFix" result="effect1_dropShadow"/>
<feBlend mode="normal" in="SourceGraphic" in2="effect1_dropShadow" result="shape"/>
</filter>
<filter id="filter3_b" x="211.11" y="370.11" width="288.78" height="341.383" filterUnits="userSpaceOnUse" color-interpolation-filters="sRGB">
<feFlood flood-opacity="0" result="BackgroundImageFix"/>
<feGaussianBlur in="BackgroundImage" stdDeviation="19.9449"/>
<feComposite in2="SourceAlpha" operator="in" result="effect1_backgroundBlur"/>
<feBlend mode="normal" in="SourceGraphic" in2="effect1_backgroundBlur" result="shape"/>
</filter>
</defs>
</svg>
