<svg viewBox="0 0 509 503" fill="none" xmlns="http://www.w3.org/2000/svg">
<g filter="url(#filter1_d)">
<rect x="43.877" y="40.877" width="65.8456" height="65.8456" rx="8.68437" fill="url(#paint0_linear)"/>
<path d="M88.8715 75.4392C88.865 76.0407 88.3756 76.5249 87.7741 76.5249C87.1726 76.5249 86.6831 76.0407 86.6766 75.4392V65.5691C86.6831 64.9676 87.1726 64.4835 87.7741 64.4835C88.3756 64.4835 88.865 64.9676 88.8715 65.5691V75.4392ZM88.4886 82.3084C88.3189 82.4536 84.2536 85.865 76.7998 85.865C69.3461 85.865 65.2809 82.4535 65.1113 82.3083C64.6512 81.9138 64.5979 81.221 64.9923 80.7608C65.3858 80.3014 66.077 80.2472 66.5373 80.6396C66.6017 80.6936 70.2319 83.6699 76.7999 83.6699C83.4503 83.6699 87.0244 80.6722 87.0597 80.6419C87.519 80.2475 88.2131 80.3005 88.6073 80.7609C89.0018 81.221 88.9486 81.9138 88.4886 82.3084ZM64.728 65.5691C64.7346 64.9676 65.224 64.4835 65.8255 64.4835C66.427 64.4835 66.9164 64.9676 66.9229 65.5691V75.4392C66.9164 76.0407 66.427 76.5249 65.8255 76.5249C65.224 76.5249 64.7346 76.0407 64.728 75.4392V65.5691ZM70.2154 63.3742C70.2245 62.7747 70.7132 62.2935 71.3127 62.2935C71.9123 62.2935 72.4009 62.7747 72.4101 63.3742V78.0353C72.4009 78.6348 71.9123 79.116 71.3127 79.116C70.7132 79.116 70.2245 78.6348 70.2154 78.0353V63.3743V63.3742ZM75.7024 62.8189C75.7024 62.5278 75.818 62.2487 76.0238 62.0429C76.2296 61.8371 76.5087 61.7215 76.7998 61.7215C77.0909 61.7214 77.37 61.837 77.5759 62.0428C77.7817 62.2486 77.8973 62.5278 77.8973 62.8189V78.7315C77.8908 79.333 77.4014 79.8172 76.7999 79.8172C76.1983 79.8172 75.7089 79.333 75.7024 78.7315V62.8189ZM81.1896 63.3742C81.1988 62.7747 81.6874 62.2935 82.287 62.2935C82.8866 62.2935 83.3752 62.7747 83.3844 63.3742V78.0353C83.3752 78.6348 82.8866 79.116 82.287 79.116C81.6874 79.116 81.1988 78.6348 81.1896 78.0353V63.3743V63.3742ZM89.1458 57.3384H64.4537C62.1809 57.3384 60.3384 59.1809 60.3384 61.4537V86.1458C60.3384 88.4186 62.1809 90.2612 64.4537 90.2612H89.1458C91.4187 90.2612 93.2612 88.4186 93.2612 86.1458V61.4537C93.2612 59.1809 91.4187 57.3384 89.1458 57.3384Z" fill="#1F8DED"/>
<rect x="44.5354" y="41.5354" width="64.5287" height="64.5287" rx="8.02591" stroke="url(#paint1_linear)" stroke-width="1.31691"/>
</g>
<rect x="34.4342" y="31.4342" width="84.7309" height="84.7309" rx="9.11858" stroke="#305EED" stroke-width="0.868437"/>
<g filter="url(#filter3_d)">
<rect x="162.399" y="40.877" width="65.8456" height="65.8456" rx="8.68437" fill="url(#paint2_linear)"/>
<g clip-path="url(#clip0)">
<path d="M206.991 57.4639H183.654C181.076 57.4639 178.986 59.5536 178.986 62.1314V85.4688C178.986 88.0466 181.076 90.1363 183.654 90.1363H206.991C209.569 90.1363 211.659 88.0466 211.659 85.4688V62.1314C211.659 59.5536 209.569 57.4639 206.991 57.4639Z" fill="#4F44E0"/>
<path d="M188.321 77.3001C190.254 77.3001 191.822 75.7328 191.822 73.7994C191.822 71.8661 190.254 70.2988 188.321 70.2988C186.388 70.2988 184.82 71.8661 184.82 73.7994C184.82 75.7328 186.388 77.3001 188.321 77.3001Z" fill="white"/>
<path d="M197.656 76.1338C198.945 76.1338 199.99 75.0889 199.99 73.8001C199.99 72.5112 198.945 71.4663 197.656 71.4663C196.368 71.4663 195.323 72.5112 195.323 73.8001C195.323 75.0889 196.368 76.1338 197.656 76.1338Z" fill="white"/>
<path d="M204.657 74.967C205.301 74.967 205.823 74.4446 205.823 73.8002C205.823 73.1557 205.301 72.6333 204.657 72.6333C204.012 72.6333 203.49 73.1557 203.49 73.8002C203.49 74.4446 204.012 74.967 204.657 74.967Z" fill="white"/>
</g>
<rect x="163.057" y="41.5354" width="64.5287" height="64.5287" rx="8.02591" stroke="url(#paint3_linear)" stroke-width="1.31691"/>
</g>
<rect x="152.956" y="31.4342" width="84.7309" height="84.7309" rx="9.11858" stroke="#305EED" stroke-width="0.868437"/>
<g filter="url(#filter5_d)">
<rect x="280.92" y="40.877" width="65.8456" height="65.8456" rx="8.68437" fill="url(#paint4_linear)"/>
<path d="M313.843 57.3384H325.9C328.33 57.3384 330.305 59.3134 330.305 61.7434V73.7998H313.843V57.3384Z" fill="#45A4FF"/>
<path d="M297.382 73.7998H313.843V90.2612H302.635C299.739 90.2612 297.382 87.9142 297.382 85.0081V73.7998Z" fill="#2599FE"/>
<path d="M313.843 73.7998H330.305V86.032C330.305 88.3689 328.412 90.2612 326.075 90.2612H313.843V73.7998Z" fill="#E7F2FC"/>
<path d="M302.769 57.3384H313.843V73.7998H297.382V62.7254C297.382 59.7582 299.791 57.3384 302.769 57.3384Z" fill="#2599FE"/>
<rect x="281.579" y="41.5354" width="64.5287" height="64.5287" rx="8.02591" stroke="url(#paint5_linear)" stroke-width="1.31691"/>
</g>
<rect x="271.478" y="31.4342" width="84.7309" height="84.7309" rx="9.11858" stroke="#305EED" stroke-width="0.868437"/>
<g filter="url(#filter7_d)">
<rect x="399.442" y="40.877" width="65.8456" height="65.8456" rx="8.68437" fill="url(#paint6_linear)"/>
<path d="M446.185 57.2925H440.187C439.837 57.2948 439.491 57.3669 439.169 57.5046C438.847 57.6422 438.556 57.8426 438.312 58.0942C438.068 58.3457 437.876 58.6434 437.748 58.97C437.62 59.2965 437.557 59.6453 437.565 59.9962V90.2889H446.185C446.536 90.289 446.884 90.2187 447.208 90.0821C447.533 89.9456 447.826 89.7456 448.072 89.4937C448.318 89.2419 448.511 88.9434 448.641 88.6157C448.77 88.2879 448.833 87.9376 448.826 87.5852V59.9962C448.833 59.6438 448.77 59.2934 448.641 58.9657C448.511 58.638 448.318 58.3394 448.072 58.0876C447.826 57.8358 447.533 57.6358 447.208 57.4992C446.884 57.3627 446.536 57.2924 446.185 57.2925Z" fill="#F57C00"/>
<path d="M426.285 70.2962V78.9959H418.49C417.804 78.9959 417.146 79.2692 416.661 79.7555C416.176 80.2419 415.904 80.9015 415.904 81.5893V87.5853C415.908 88.2751 416.181 88.9359 416.664 89.4271C417.147 89.9182 417.802 90.2011 418.49 90.2155H437.565V67.7213H428.889C428.55 67.7188 428.213 67.7835 427.898 67.9116C427.584 68.0397 427.297 68.2287 427.055 68.4678C426.813 68.7069 426.621 68.9915 426.489 69.3052C426.357 69.6189 426.287 69.9557 426.285 70.2962Z" fill="#FFC107"/>
<path d="M440.169 90.289H446.185C446.537 90.289 446.885 90.2188 447.209 90.0822C447.533 89.9457 447.827 89.7456 448.073 89.4938C448.319 89.242 448.512 88.9435 448.641 88.6158C448.771 88.288 448.834 87.9377 448.826 87.5852V79.0327L437.565 67.7212V90.289H440.169Z" fill="url(#paint7_linear)"/>
<path opacity="0.2" d="M428.908 67.905H437.528V67.6843H428.908C428.563 67.6794 428.222 67.7435 427.902 67.8728C427.583 68.0021 427.293 68.194 427.049 68.4372C426.804 68.6805 426.611 68.9702 426.48 69.2894C426.349 69.6086 426.282 69.9509 426.285 70.2961V70.5168C426.285 70.1731 426.353 69.8328 426.485 69.5158C426.617 69.1987 426.811 68.9112 427.055 68.6699C427.299 68.4286 427.589 68.2383 427.907 68.1102C428.225 67.982 428.565 67.9186 428.908 67.9234V67.905ZM418.49 79.2165H426.285V78.9958H418.49C417.804 78.9958 417.146 79.269 416.661 79.7554C416.176 80.2417 415.904 80.9014 415.904 81.5892V81.8099C415.904 81.1221 416.176 80.4624 416.661 79.9761C417.146 79.4897 417.804 79.2165 418.49 79.2165ZM446.185 57.2925H440.187C439.837 57.2948 439.491 57.3669 439.169 57.5046C438.848 57.6422 438.556 57.8426 438.312 58.0942C438.068 58.3457 437.876 58.6434 437.748 58.97C437.62 59.2965 437.557 59.6453 437.565 59.9962V60.2169C437.565 59.5145 437.843 58.8408 438.338 58.3441C438.834 57.8474 439.505 57.5684 440.206 57.5684H446.185C446.885 57.5684 447.557 57.8474 448.052 58.3441C448.548 58.8408 448.826 59.5145 448.826 60.2169V59.9962C448.833 59.6438 448.77 59.2934 448.641 58.9657C448.512 58.638 448.318 58.3394 448.072 58.0876C447.826 57.8358 447.533 57.6358 447.209 57.4992C446.884 57.3627 446.536 57.2924 446.185 57.2925Z" fill="white"/>
<path opacity="0.2" d="M446.204 90.0681H418.508C417.826 90.0682 417.171 89.7975 416.686 89.3151C416.202 88.8327 415.927 88.1778 415.922 87.4932V87.7139C415.922 88.4017 416.195 89.0613 416.68 89.5477C417.165 90.034 417.823 90.3072 418.508 90.3072H446.204C446.555 90.3049 446.903 90.2323 447.226 90.0935C447.549 89.9547 447.841 89.7526 448.086 89.4991C448.33 89.2456 448.521 88.9457 448.648 88.617C448.776 88.2884 448.836 87.9375 448.826 87.5851V87.438C448.821 88.1341 448.544 88.8003 448.053 89.2925C447.562 89.7847 446.898 90.0633 446.204 90.0681Z" fill="#BF360C"/>
<path d="M432.88 71.7993H429.515C429.319 71.8006 429.125 71.841 428.944 71.9179C428.764 71.9949 428.6 72.107 428.463 72.2478C428.326 72.3885 428.219 72.555 428.147 72.7377C428.075 72.9203 428.04 73.1154 428.044 73.3117V77.6637H423.188C422.808 77.6608 422.443 77.8068 422.17 78.0703C421.897 78.3338 421.738 78.6939 421.727 79.0732V83.9396H417.344C416.961 83.9423 416.595 84.0964 416.325 84.3681C416.055 84.6399 415.904 85.0073 415.904 85.3903V88.7443C415.906 89.1301 416.059 89.4997 416.33 89.7745C416.601 90.0493 416.969 90.2075 417.354 90.2155H432.89C433.281 90.2155 433.656 90.0609 433.934 89.7852C434.211 89.5096 434.369 89.1354 434.371 88.7443V73.3117C434.376 73.1146 434.34 72.9186 434.268 72.7353C434.195 72.5519 434.087 72.385 433.949 72.2441C433.811 72.1032 433.646 71.9913 433.464 71.915C433.282 71.8386 433.087 71.7993 432.89 71.7993H432.88Z" fill="url(#paint8_linear)"/>
<rect x="400.101" y="41.5354" width="64.5287" height="64.5287" rx="8.02591" stroke="url(#paint9_linear)" stroke-width="1.31691"/>
</g>
<rect x="390" y="31.4342" width="84.7309" height="84.7309" rx="9.11858" stroke="#305EED" stroke-width="0.868437"/>
<g filter="url(#filter9_d)">
<rect x="43.877" y="157.011" width="65.8456" height="65.8456" rx="8.68437" fill="url(#paint10_linear)"/>
<path d="M91.5712 184.142H73.8348C73.4598 184.142 73.1558 184.446 73.1558 184.821V186.776C73.1558 187.151 73.4598 187.455 73.8348 187.455H91.5712C91.9462 187.455 92.2503 187.151 92.2503 186.776V184.821C92.2503 184.446 91.9462 184.142 91.5712 184.142Z" fill="#52BD94"/>
<path d="M79.7572 192.421H62.0209C61.6458 192.421 61.3418 192.725 61.3418 193.1V195.056C61.3418 195.431 61.6458 195.735 62.0209 195.735H79.7572C80.1323 195.735 80.4363 195.431 80.4363 195.056V193.1C80.4363 192.725 80.1323 192.421 79.7572 192.421Z" fill="#52BD94"/>
<path d="M63.6321 186.409C63.958 186.493 64.2914 186.302 64.3827 185.978C66.4324 179.562 73.033 175.765 79.6096 177.218C79.9285 177.283 80.243 177.088 80.3257 176.773L80.865 174.761C80.9076 174.597 80.8818 174.424 80.7934 174.28C80.705 174.136 80.5618 174.035 80.3969 173.999C72.0808 172.127 63.7227 176.962 61.1989 185.104C61.1526 185.263 61.1722 185.434 61.2534 185.578C61.3345 185.723 61.4704 185.829 61.6303 185.872L63.6321 186.409Z" fill="#52BD94"/>
<path d="M89.9643 193.458C89.6357 193.37 89.2973 193.562 89.205 193.889C87.1597 200.31 80.5579 204.112 73.9781 202.66C73.6591 202.593 73.3438 202.789 73.262 203.104L72.7335 205.106C72.6902 205.27 72.7157 205.444 72.8042 205.588C72.8926 205.732 73.0362 205.834 73.2016 205.87C81.5177 207.737 89.8732 202.903 92.3996 194.763C92.4465 194.604 92.4271 194.433 92.3458 194.289C92.2645 194.145 92.1283 194.039 91.9682 193.997L89.9643 193.458Z" fill="#52BD94"/>
<path d="M86.2362 180.505C87.2393 180.505 88.0524 179.691 88.0524 178.688C88.0524 177.685 87.2393 176.872 86.2362 176.872C85.2331 176.872 84.4199 177.685 84.4199 178.688C84.4199 179.691 85.2331 180.505 86.2362 180.505Z" fill="#52BD94"/>
<path d="M67.3597 203.001C68.3628 203.001 69.176 202.188 69.176 201.185C69.176 200.182 68.3628 199.369 67.3597 199.369C66.3566 199.369 65.5435 200.182 65.5435 201.185C65.5435 202.188 66.3566 203.001 67.3597 203.001Z" fill="#52BD94"/>
<rect x="44.5354" y="157.669" width="64.5287" height="64.5287" rx="8.02591" stroke="url(#paint11_linear)" stroke-width="1.31691"/>
</g>
<rect x="34.4342" y="147.568" width="84.7309" height="84.7309" rx="9.11858" stroke="#305EED" stroke-width="0.868437"/>
<g filter="url(#filter11_d)">
<rect x="162.399" y="157.011" width="65.8456" height="65.8456" rx="8.68437" fill="url(#paint12_linear)"/>
<path d="M186.309 203.409L179.147 191.004C178.765 190.342 178.765 189.525 179.147 188.862L186.309 176.458C186.691 175.796 187.397 175.388 188.161 175.387H202.491C203.253 175.391 203.955 175.799 204.335 176.458L211.496 188.862C211.879 189.525 211.879 190.342 211.496 191.004L204.334 203.409C203.952 204.071 203.246 204.479 202.482 204.48H188.156C187.393 204.478 186.69 204.07 186.308 203.409H186.309Z" fill="#4386FA"/>
<path opacity="0.1" d="M199.796 185.939C199.796 185.939 201.787 190.714 199.073 193.421C196.359 196.128 191.417 194.395 191.417 194.395L201.469 204.476H202.49C203.254 204.475 203.96 204.067 204.342 203.405L209.083 195.196L199.796 185.939Z" fill="black"/>
<path d="M202.147 195.711L199.952 193.511C199.928 193.486 199.901 193.465 199.871 193.449C200.804 192.246 201.244 190.733 201.101 189.217C200.958 187.701 200.242 186.297 199.099 185.291C197.957 184.284 196.474 183.751 194.952 183.8C193.43 183.85 191.984 184.477 190.909 185.555C189.834 186.633 189.21 188.08 189.165 189.602C189.119 191.124 189.656 192.606 190.665 193.746C191.674 194.886 193.08 195.598 194.596 195.738C196.113 195.877 197.625 195.433 198.825 194.497C198.841 194.525 198.86 194.551 198.883 194.574L201.084 196.774C201.148 196.839 201.236 196.875 201.327 196.875C201.418 196.875 201.506 196.839 201.571 196.774L202.147 196.198C202.211 196.133 202.248 196.046 202.248 195.954C202.248 195.863 202.211 195.775 202.147 195.711ZM195.137 194.288C194.247 194.288 193.376 194.024 192.636 193.53C191.896 193.035 191.319 192.332 190.978 191.509C190.637 190.687 190.548 189.782 190.722 188.909C190.895 188.036 191.324 187.233 191.954 186.604C192.583 185.974 193.385 185.546 194.258 185.372C195.132 185.198 196.037 185.288 196.859 185.628C197.682 185.969 198.385 186.546 198.879 187.286C199.374 188.027 199.638 188.897 199.637 189.787C199.637 190.981 199.163 192.126 198.319 192.97C197.475 193.814 196.33 194.288 195.137 194.288ZM192.26 189.547V191.407C192.546 191.913 192.961 192.335 193.462 192.629V189.536L192.26 189.547ZM194.51 188.005V193.032C194.908 193.105 195.315 193.105 195.713 193.032V188.005H194.51ZM197.99 191.403V190.301H196.788V192.616C197.289 192.323 197.704 191.902 197.991 191.398L197.99 191.403Z" fill="white"/>
<rect x="163.057" y="157.669" width="64.5287" height="64.5287" rx="8.02591" stroke="url(#paint13_linear)" stroke-width="1.31691"/>
</g>
<rect x="152.956" y="147.568" width="84.7309" height="84.7309" rx="9.11858" stroke="#305EED" stroke-width="0.868437"/>
<g filter="url(#filter13_d)">
<rect x="280.92" y="157.011" width="65.8456" height="65.8456" rx="8.68437" fill="url(#paint14_linear)"/>
<path d="M298.062 196.81L309.008 177.848L318.494 183.324L307.549 202.286L298.062 196.81Z" fill="#FBBC04"/>
<path d="M329.533 196.743L318.579 177.775C317.165 175.1 313.852 174.079 311.178 175.493C308.503 176.907 307.483 180.22 308.895 182.894C308.957 183.012 309.024 183.126 309.094 183.24L320.047 202.208C321.525 204.847 324.862 205.79 327.501 204.312C330.141 202.835 331.083 199.497 329.606 196.858C329.581 196.815 329.557 196.773 329.533 196.731V196.743Z" fill="#4285F4"/>
<path d="M302.859 204.982C305.884 204.982 308.336 202.53 308.336 199.506C308.336 196.481 305.884 194.029 302.859 194.029C299.834 194.029 297.382 196.481 297.382 199.506C297.382 202.53 299.834 204.982 302.859 204.982Z" fill="#34A853"/>
<rect x="281.579" y="157.669" width="64.5287" height="64.5287" rx="8.02591" stroke="url(#paint15_linear)" stroke-width="1.31691"/>
</g>
<rect x="271.478" y="147.568" width="84.7309" height="84.7309" rx="9.11858" stroke="#305EED" stroke-width="0.868437"/>
<g filter="url(#filter15_d)">
<rect x="399.442" y="157.011" width="65.8456" height="65.8456" rx="8.68437" fill="url(#paint16_linear)"/>
<path d="M432.365 197.821L444.885 200.52V179.288L432.365 181.987V197.821Z" fill="#E56A68"/>
<path d="M444.885 179.288L447.27 180.367V199.44L444.885 200.52V179.288ZM432.365 197.821L419.845 200.52V179.288L432.365 181.987V197.821Z" fill="#CC5E5C"/>
<path d="M419.845 179.288L417.46 180.367V199.44L419.845 200.52V179.288Z" fill="#E86D6B"/>
<path d="M435.545 204.838L440.315 202.679V177.188L435.545 175.029L434.087 189.184L435.545 204.838Z" fill="#CD5F5D"/>
<path d="M429.184 204.838L424.415 202.679V177.188L429.184 175.029L430.643 189.184L429.184 204.838Z" fill="#E86D6B"/>
<path d="M429.185 175.029H435.61V204.778H429.185V175.029Z" fill="#DE6664"/>
<rect x="400.101" y="157.669" width="64.5287" height="64.5287" rx="8.02591" stroke="url(#paint17_linear)" stroke-width="1.31691"/>
</g>
<rect x="390" y="147.568" width="84.7309" height="84.7309" rx="9.11858" stroke="#305EED" stroke-width="0.868437"/>
<g filter="url(#filter17_d)">
<rect x="43.877" y="273.144" width="65.8456" height="65.8456" rx="8.68437" fill="url(#paint18_linear)"/>
<mask id="mask0" mask-type="alpha" maskUnits="userSpaceOnUse" x="60" y="294" width="34" height="24">
<path d="M60.3926 294.583H93.2073V317.55H60.3926V294.583Z" fill="white"/>
</mask>
<g mask="url(#mask0)">
<path fill-rule="evenodd" clip-rule="evenodd" d="M74.0438 297.089C75.1022 295.986 76.576 295.302 78.2059 295.302C80.3724 295.302 82.2629 296.51 83.2693 298.304C84.1697 297.902 85.1451 297.694 86.1314 297.695C90.0392 297.695 93.2073 300.891 93.2073 304.833C93.2073 308.776 90.0392 311.972 86.1314 311.972C85.6542 311.972 85.1882 311.924 84.7374 311.833C83.8511 313.414 82.1616 314.482 80.2229 314.482C79.4387 314.483 78.6647 314.305 77.9599 313.961C77.0614 316.075 74.9674 317.557 72.5276 317.557C69.9863 317.557 67.8204 315.949 66.9896 313.694C66.6193 313.773 66.2419 313.812 65.8635 313.812C62.8378 313.812 60.3853 311.333 60.3853 308.276C60.3853 306.227 61.487 304.439 63.1246 303.482C62.7776 302.683 62.5991 301.821 62.6001 300.95C62.6001 297.434 65.4543 294.583 68.975 294.583C71.042 294.583 72.879 295.566 74.0438 297.089Z" fill="#00A1E0"/>
<path fill-rule="evenodd" clip-rule="evenodd" d="M65.1393 306.497C65.1187 306.551 65.1467 306.562 65.1533 306.572C65.2149 306.616 65.2775 306.649 65.3407 306.685C65.6753 306.862 65.9917 306.914 66.3221 306.914C66.9954 306.914 67.4136 306.556 67.4136 305.98V305.968C67.4136 305.435 66.9415 305.242 66.499 305.102L66.4413 305.083C66.1076 304.975 65.8196 304.881 65.8196 304.661V304.65C65.8196 304.462 65.9879 304.323 66.2488 304.323C66.5388 304.323 66.8825 304.42 67.1042 304.542C67.1042 304.542 67.1695 304.584 67.1933 304.521C67.2062 304.487 67.3182 304.185 67.3302 304.153C67.343 304.117 67.3205 304.091 67.2975 304.077C67.0444 303.923 66.6947 303.818 66.3328 303.818L66.2657 303.818C65.6494 303.818 65.2191 304.191 65.2191 304.724V304.735C65.2191 305.297 65.6938 305.48 66.1384 305.607L66.2098 305.629C66.5336 305.729 66.8133 305.815 66.8133 306.042V306.054C66.8133 306.262 66.6316 306.417 66.3389 306.417C66.2254 306.417 65.8631 306.415 65.4717 306.168C65.4243 306.14 65.3973 306.12 65.3607 306.098C65.3414 306.086 65.2932 306.065 65.2722 306.128L65.1393 306.497ZM74.9956 306.497C74.975 306.551 75.003 306.562 75.0099 306.572C75.0713 306.616 75.134 306.649 75.197 306.685C75.5318 306.862 75.8481 306.914 76.1784 306.914C76.8517 306.914 77.2701 306.556 77.2701 305.98V305.968C77.2701 305.435 76.7981 305.242 76.3555 305.102L76.2977 305.083C75.964 304.975 75.6759 304.881 75.6759 304.661V304.65C75.6759 304.462 75.8444 304.323 76.1054 304.323C76.3953 304.323 76.7389 304.42 76.9605 304.542C76.9605 304.542 77.0259 304.584 77.0498 304.521C77.0625 304.487 77.1747 304.185 77.1865 304.153C77.1994 304.117 77.1769 304.091 77.154 304.077C76.9007 303.923 76.5512 303.818 76.1893 303.818L76.122 303.818C75.5059 303.818 75.0756 304.191 75.0756 304.724V304.735C75.0756 305.297 75.5501 305.48 75.9949 305.607L76.0662 305.629C76.3901 305.729 76.6698 305.815 76.6698 306.042V306.054C76.6698 306.262 76.4879 306.417 76.1955 306.417C76.0817 306.417 75.7195 306.415 75.3281 306.168C75.2807 306.14 75.253 306.121 75.2171 306.098C75.2049 306.09 75.1481 306.068 75.1287 306.128L74.9956 306.497ZM81.7243 305.368C81.7243 305.693 81.6635 305.95 81.5441 306.132C81.4255 306.311 81.2464 306.399 80.9966 306.399C80.7469 306.399 80.5688 306.312 80.452 306.132C80.3342 305.951 80.2744 305.693 80.2744 305.368C80.2744 305.042 80.3342 304.786 80.452 304.607C80.5688 304.429 80.7469 304.342 80.9966 304.342C81.2464 304.342 81.4255 304.429 81.5441 304.607C81.6638 304.786 81.7243 305.042 81.7243 305.368ZM82.2865 304.764C82.2312 304.577 82.1452 304.413 82.0308 304.276C81.9161 304.138 81.771 304.028 81.599 303.948C81.4273 303.867 81.2247 303.827 80.9966 303.827C80.7686 303.827 80.5659 303.867 80.394 303.948C80.2223 304.028 80.0771 304.138 79.9624 304.276C79.8481 304.413 79.7619 304.577 79.7067 304.764C79.6519 304.949 79.624 305.153 79.624 305.368C79.624 305.583 79.6519 305.786 79.7067 305.972C79.7619 306.158 79.8478 306.322 79.9625 306.46C80.0772 306.598 80.2228 306.707 80.3943 306.785C80.5662 306.864 80.7688 306.903 80.9966 306.903C81.2246 306.903 81.4269 306.864 81.5988 306.785C81.7705 306.707 81.9158 306.598 82.0308 306.46C82.1452 306.323 82.2312 306.158 82.2865 305.972C82.3413 305.786 82.3691 305.583 82.3691 305.368C82.3691 305.153 82.3413 304.949 82.2865 304.764ZM86.9014 306.312C86.8829 306.257 86.8296 306.278 86.8296 306.278C86.748 306.309 86.6612 306.338 86.5683 306.352C86.4747 306.367 86.3711 306.374 86.2603 306.374C85.9886 306.374 85.7721 306.293 85.6177 306.134C85.4624 305.974 85.3753 305.715 85.3762 305.365C85.3771 305.047 85.454 304.808 85.592 304.625C85.7287 304.444 85.9376 304.351 86.2153 304.351C86.4472 304.351 86.6241 304.378 86.8095 304.436C86.8095 304.436 86.8535 304.455 86.8746 304.397C86.924 304.26 86.9604 304.163 87.013 304.013C87.0279 303.97 86.9912 303.952 86.9779 303.947C86.905 303.918 86.7329 303.872 86.603 303.852C86.4816 303.834 86.3397 303.824 86.1813 303.824C85.9453 303.824 85.7349 303.864 85.5549 303.944C85.3754 304.024 85.2231 304.135 85.1023 304.272C84.9816 304.41 84.8897 304.574 84.829 304.761C84.768 304.946 84.7373 305.15 84.7373 305.365C84.7373 305.832 84.8631 306.208 85.1111 306.484C85.3601 306.761 85.7334 306.902 86.2208 306.902C86.5086 306.902 86.804 306.843 87.0167 306.76C87.0167 306.76 87.0572 306.74 87.0396 306.693L86.9014 306.312ZM87.8847 305.056C87.9116 304.875 87.9612 304.724 88.0385 304.607C88.1551 304.429 88.3326 304.331 88.5824 304.331C88.8323 304.331 88.9969 304.429 89.1155 304.607C89.1939 304.724 89.2282 304.881 89.2416 305.056L87.8847 305.056ZM89.7768 304.658C89.7289 304.478 89.611 304.296 89.5334 304.213C89.411 304.081 89.2911 303.988 89.1721 303.937C88.9998 303.864 88.8146 303.826 88.6274 303.827C88.3899 303.827 88.1742 303.867 87.9992 303.949C87.824 304.031 87.6767 304.143 87.5613 304.283C87.4457 304.423 87.3589 304.589 87.3036 304.777C87.2481 304.964 87.2201 305.169 87.2201 305.384C87.2201 305.603 87.2492 305.808 87.3064 305.992C87.3641 306.177 87.4569 306.34 87.582 306.475C87.7071 306.611 87.8681 306.718 88.0605 306.792C88.2518 306.866 88.4843 306.905 88.751 306.904C89.3007 306.902 89.5897 306.779 89.7091 306.713C89.7302 306.702 89.7501 306.681 89.7253 306.622L89.6008 306.274C89.5818 306.222 89.5292 306.241 89.5292 306.241C89.3928 306.292 89.1997 306.383 88.7482 306.382C88.4532 306.381 88.2347 306.294 88.0974 306.158C87.9569 306.019 87.8879 305.814 87.8762 305.525L89.7782 305.527C89.7782 305.527 89.8284 305.526 89.8336 305.477C89.8356 305.457 89.8988 305.086 89.7768 304.658ZM72.6487 305.056C72.6756 304.875 72.7253 304.724 72.8025 304.607C72.9192 304.429 73.0965 304.331 73.3465 304.331C73.5964 304.331 73.761 304.429 73.8796 304.607C73.9579 304.724 73.9922 304.881 74.0055 305.056L72.6487 305.056ZM74.5407 304.658C74.493 304.478 74.3749 304.296 74.2975 304.213C74.1751 304.081 74.0553 303.988 73.9362 303.937C73.7639 303.864 73.5786 303.826 73.3915 303.827C73.154 303.827 72.9383 303.867 72.7633 303.949C72.5881 304.031 72.4408 304.143 72.3252 304.283C72.2097 304.423 72.123 304.589 72.0674 304.777C72.0121 304.964 71.9842 305.169 71.9842 305.384C71.9842 305.603 72.013 305.808 72.0706 305.992C72.1282 306.177 72.2211 306.34 72.346 306.475C72.4712 306.611 72.6321 306.718 72.8244 306.792C73.0159 306.866 73.2482 306.905 73.5151 306.904C74.0646 306.902 74.3538 306.779 74.4732 306.713C74.4942 306.702 74.5142 306.681 74.4893 306.622L74.3649 306.274C74.3457 306.222 74.2932 306.241 74.2932 306.241C74.1569 306.292 73.9638 306.383 73.5122 306.382C73.2173 306.381 72.9987 306.294 72.8613 306.158C72.721 306.019 72.6518 305.814 72.6402 305.525L74.5423 305.527C74.5423 305.527 74.5925 305.526 74.5977 305.477C74.5997 305.457 74.6629 305.086 74.5407 304.658ZM68.5367 306.301C68.4621 306.242 68.4517 306.227 68.427 306.188C68.3892 306.13 68.37 306.047 68.37 305.941C68.37 305.774 68.4254 305.654 68.5398 305.573C68.5385 305.573 68.7038 305.43 69.0915 305.435C69.2644 305.438 69.437 305.453 69.608 305.479V306.344H69.6082C69.6082 306.344 69.3664 306.396 69.0943 306.412C68.7074 306.436 68.5355 306.301 68.5367 306.301ZM69.2937 304.964C69.2165 304.959 69.1166 304.956 68.9967 304.956C68.8338 304.956 68.6761 304.976 68.5282 305.016C68.3796 305.056 68.246 305.118 68.1311 305.2C68.0162 305.282 67.9217 305.39 67.855 305.514C67.7876 305.639 67.7532 305.787 67.7532 305.952C67.7532 306.121 67.7825 306.267 67.8404 306.387C67.897 306.505 67.9823 306.607 68.0885 306.684C68.1942 306.761 68.3247 306.818 68.4761 306.852C68.6255 306.886 68.7948 306.904 68.9798 306.904C69.1752 306.904 69.3695 306.887 69.5577 306.856C69.7181 306.828 69.8778 306.797 70.0368 306.762C70.1003 306.748 70.1702 306.729 70.1702 306.729C70.2172 306.717 70.2136 306.666 70.2136 306.666L70.2125 304.927C70.2125 304.545 70.1108 304.263 69.9102 304.087C69.7106 303.912 69.4167 303.824 69.0365 303.824C68.8937 303.824 68.6643 303.843 68.5266 303.871C68.5266 303.871 68.1113 303.951 67.9403 304.085C67.9403 304.085 67.9026 304.109 67.9231 304.161L68.0578 304.523C68.0746 304.57 68.1203 304.554 68.1203 304.554C68.1203 304.554 68.1347 304.548 68.1516 304.538C68.5174 304.339 68.9804 304.345 68.9804 304.345C69.1859 304.345 69.3443 304.386 69.4506 304.468C69.5545 304.548 69.6072 304.668 69.6072 304.921V305.002C69.444 304.978 69.2937 304.964 69.2937 304.964ZM84.6378 303.984C84.6405 303.978 84.642 303.971 84.642 303.964C84.6421 303.957 84.6407 303.95 84.638 303.944C84.6354 303.938 84.6314 303.932 84.6265 303.927C84.6215 303.922 84.6157 303.918 84.6092 303.916C84.5768 303.903 84.4151 303.869 84.2904 303.862C84.0512 303.847 83.9187 303.887 83.7998 303.941C83.6818 303.994 83.5512 304.08 83.4784 304.178L83.4782 303.946C83.4782 303.914 83.4556 303.888 83.4235 303.888H82.9358C82.9042 303.888 82.8813 303.914 82.8813 303.946V306.784C82.8813 306.799 82.8874 306.814 82.8983 306.824C82.9091 306.835 82.9238 306.841 82.9391 306.841H83.439C83.4543 306.841 83.4689 306.835 83.4797 306.824C83.4905 306.814 83.4966 306.799 83.4966 306.784V305.366C83.4966 305.176 83.5176 304.986 83.5594 304.867C83.6007 304.749 83.6568 304.654 83.7262 304.587C83.792 304.521 83.8726 304.473 83.9611 304.445C84.0441 304.422 84.13 304.41 84.2163 304.41C84.3158 304.41 84.4253 304.435 84.4253 304.435C84.462 304.439 84.4824 304.417 84.4948 304.384C84.5275 304.297 84.6201 304.036 84.6378 303.984Z" fill="#FFFFFE"/>
<path fill-rule="evenodd" clip-rule="evenodd" d="M79.9465 302.669C79.8848 302.651 79.822 302.636 79.7585 302.625C79.673 302.61 79.5865 302.604 79.4999 302.605C79.1559 302.605 78.8846 302.702 78.6942 302.894C78.5051 303.084 78.3764 303.375 78.3119 303.757L78.2887 303.885H77.8568C77.8568 303.885 77.8041 303.883 77.793 303.941L77.7221 304.336C77.7171 304.374 77.7334 304.398 77.7841 304.398H78.2045L77.7779 306.779C77.7445 306.97 77.7063 307.128 77.664 307.248C77.6222 307.365 77.5815 307.454 77.5313 307.518C77.4827 307.58 77.4366 307.626 77.3572 307.653C77.2916 307.675 77.2161 307.685 77.1333 307.685C77.0873 307.685 77.026 307.677 76.9808 307.668C76.9356 307.659 76.912 307.649 76.8782 307.635C76.8782 307.635 76.8288 307.616 76.8094 307.665C76.7936 307.706 76.6816 308.014 76.6683 308.052C76.6548 308.09 76.6737 308.119 76.6976 308.128C76.7536 308.148 76.7952 308.161 76.8714 308.179C76.9773 308.204 77.0665 308.205 77.1501 308.205C77.3252 308.205 77.4848 308.18 77.617 308.133C77.7502 308.085 77.8661 308.001 77.9686 307.887C78.0794 307.765 78.1491 307.637 78.2158 307.462C78.2818 307.289 78.338 307.073 78.383 306.823L78.8116 304.398H79.4382C79.4382 304.398 79.491 304.4 79.502 304.342L79.5729 303.947C79.5778 303.909 79.5617 303.885 79.5108 303.885H78.9026C78.9056 303.872 78.9332 303.658 79.0031 303.456C79.0329 303.37 79.0889 303.301 79.1364 303.253C79.1808 303.208 79.2355 303.174 79.2958 303.154C79.3618 303.134 79.4307 303.124 79.4999 303.125C79.5572 303.125 79.6134 303.132 79.6562 303.141C79.7152 303.153 79.7381 303.16 79.7535 303.164C79.8155 303.183 79.8238 303.165 79.836 303.135L79.9815 302.736C79.9964 302.693 79.96 302.675 79.9465 302.669ZM71.4476 306.784C71.4476 306.815 71.4249 306.841 71.3931 306.841H70.8886C70.8567 306.841 70.834 306.815 70.834 306.784V302.723C70.834 302.692 70.8567 302.666 70.8886 302.666H71.3931C71.4249 302.666 71.4476 302.692 71.4476 302.723V306.784Z" fill="#FFFFFE"/>
</g>
<rect x="44.5354" y="273.802" width="64.5287" height="64.5287" rx="8.02591" stroke="url(#paint19_linear)" stroke-width="1.31691"/>
</g>
<rect x="34.4342" y="263.701" width="84.7309" height="84.7309" rx="9.11858" stroke="#305EED" stroke-width="0.868437"/>
<g filter="url(#filter19_d)">
<rect x="162.399" y="273.144" width="65.8456" height="65.8456" rx="8.68437" fill="url(#paint20_linear)"/>
<path d="M209.073 305.243C208.339 303.991 207.293 302.951 206.036 302.226C205.076 301.668 204.084 301.314 202.964 301.161V297.15C203.507 296.924 203.97 296.542 204.294 296.05C204.617 295.559 204.786 294.982 204.777 294.394C204.779 293.997 204.703 293.603 204.552 293.236C204.402 292.869 204.18 292.534 203.9 292.253C203.62 291.971 203.287 291.748 202.92 291.596C202.554 291.443 202.16 291.365 201.763 291.365C200.959 291.365 200.187 291.684 199.618 292.251C199.048 292.819 198.727 293.59 198.724 294.394C198.724 295.625 199.377 296.675 200.5 297.15V301.138C199.57 301.273 198.667 301.556 197.827 301.977L187.089 293.847C187.164 293.563 187.23 293.269 187.23 292.96C187.23 291.106 185.728 289.604 183.874 289.604C182.02 289.604 180.521 291.106 180.521 292.96C180.521 294.814 182.023 296.316 183.876 296.316C184.509 296.316 185.095 296.13 185.599 295.826L186.303 296.358L195.936 303.304C195.426 303.771 194.951 304.303 194.572 304.901C193.803 306.119 193.333 307.458 193.333 308.92V309.222C193.337 310.213 193.515 311.196 193.861 312.125C194.152 312.919 194.579 313.642 195.109 314.295L191.909 317.503C190.962 317.151 189.9 317.385 189.184 318.101C188.697 318.586 188.423 319.246 188.425 319.935C188.428 320.623 188.697 321.278 189.186 321.768C189.676 322.258 190.332 322.529 191.02 322.529C191.708 322.529 192.369 322.258 192.854 321.768C193.338 321.278 193.615 320.623 193.612 319.935C193.612 319.67 193.571 319.408 193.492 319.156L196.797 315.85C197.249 316.164 197.739 316.428 198.267 316.654C199.351 317.13 200.522 317.376 201.705 317.378H201.932C203.318 317.378 204.627 317.051 205.855 316.385C207.118 315.708 208.178 314.709 208.93 313.489C209.701 312.258 210.123 310.894 210.123 309.395V309.32C210.123 307.845 209.781 306.486 209.068 305.24L209.073 305.243ZM205.036 312.181C204.139 313.178 203.107 313.793 201.942 313.793H201.721C201.055 313.793 200.402 313.61 199.766 313.273C199.069 312.911 198.479 312.373 198.053 311.713C197.591 311.06 197.34 310.347 197.34 309.591V309.365C197.34 308.621 197.483 307.915 197.842 307.25C198.227 306.496 198.746 305.956 199.437 305.507C200.128 305.057 200.839 304.841 201.648 304.841H201.723C202.451 304.841 203.147 304.984 203.8 305.318C204.462 305.666 205.024 306.177 205.433 306.803C205.838 307.43 206.089 308.145 206.164 308.887L206.182 309.357C206.182 310.38 205.79 311.326 205.009 312.186L205.036 312.181Z" fill="#F8761F"/>
<rect x="163.057" y="273.802" width="64.5287" height="64.5287" rx="8.02591" stroke="url(#paint21_linear)" stroke-width="1.31691"/>
</g>
<rect x="152.956" y="263.701" width="84.7309" height="84.7309" rx="9.11858" stroke="#305EED" stroke-width="0.868437"/>
<g filter="url(#filter21_d)">
<rect x="280.92" y="273.144" width="65.8456" height="65.8456" rx="8.68437" fill="url(#paint22_linear)"/>
<path d="M328.476 289.605H299.211C298.199 289.605 297.382 290.425 297.382 291.435V320.699C297.382 321.709 298.199 322.528 299.211 322.528H314.968V309.798H310.692V304.814H314.968V301.156C314.968 296.903 317.565 294.586 321.37 294.586C322.648 294.582 323.929 294.648 325.202 294.782V299.208H322.577C320.514 299.208 320.111 300.192 320.111 301.631V304.805H325.044L324.404 309.789H320.11V322.528H328.476C329.487 322.528 330.305 321.709 330.305 320.699V291.435C330.305 290.425 329.487 289.605 328.476 289.605Z" fill="#4267B2"/>
<rect x="281.579" y="273.802" width="64.5287" height="64.5287" rx="8.02591" stroke="url(#paint23_linear)" stroke-width="1.31691"/>
</g>
<rect x="271.478" y="263.701" width="84.7309" height="84.7309" rx="9.11858" stroke="#305EED" stroke-width="0.868437"/>
<g filter="url(#filter23_d)">
<rect x="399.442" y="273.144" width="65.8456" height="65.8456" rx="8.68437" fill="url(#paint24_linear)"/>
<path d="M430.779 308.428C431.048 305.89 432.665 303.824 434.55 303.824C436.436 303.824 437.453 305.89 437.184 308.428C436.915 310.966 435.358 313.062 433.592 313.062C431.826 313.062 430.39 311.468 430.779 308.428ZM432.365 319.938C428.175 319.944 424.202 318.104 421.531 314.921C423.865 315.659 426.469 315.01 428.504 313.032C428.719 312.819 428.919 312.593 429.103 312.353C430.031 314.331 431.826 315.334 433.622 315.334C436.675 315.334 439.249 312.235 439.548 308.398C439.848 304.562 437.663 301.522 434.76 301.522C433.706 301.507 432.67 301.783 431.767 302.318L432.665 297.153C432.754 296.74 432.656 296.309 432.395 295.973C432.126 295.56 431.886 295.383 431.527 295.383H427.337C427.089 295.395 426.887 295.582 426.858 295.825C426.747 296.312 426.667 296.805 426.619 297.301C426.589 297.626 426.828 297.744 427.098 297.744H430.15C429.672 300.695 428.714 306.421 428.444 307.867C428.162 309.236 427.487 310.496 426.499 311.497C424.823 313.15 421.74 313.534 419.914 311.733C419.286 311.084 418.298 309.49 418.298 306.067C418.298 298.406 424.596 292.195 432.365 292.195C440.134 292.195 446.432 298.406 446.432 306.067C446.432 313.728 440.134 319.938 432.365 319.938ZM432.365 289.834C423.274 289.834 415.904 297.102 415.904 306.067C415.904 315.032 423.274 322.3 432.365 322.3C441.457 322.3 448.827 315.032 448.827 306.067C448.827 301.762 447.092 297.633 444.005 294.588C440.918 291.544 436.731 289.834 432.365 289.834Z" fill="#212124"/>
<rect x="400.101" y="273.802" width="64.5287" height="64.5287" rx="8.02591" stroke="url(#paint25_linear)" stroke-width="1.31691"/>
</g>
<rect x="390" y="263.701" width="84.7309" height="84.7309" rx="9.11858" stroke="#305EED" stroke-width="0.868437"/>
<g filter="url(#filter25_d)">
<rect x="43.877" y="389.278" width="65.8456" height="65.8456" rx="8.68437" fill="url(#paint26_linear)"/>
<path d="M75.9064 418.186L70.3992 423.693C70.1234 423.185 69.8907 422.659 69.6924 422.124C69.4425 421.444 69.2529 420.754 69.1322 420.047L74.6498 414.528C75.3565 414.649 76.049 414.833 76.7299 415.083C76.1352 416.014 75.8461 417.117 75.9064 418.186ZM80.8104 423.09C81.8791 423.15 82.9656 422.877 83.905 422.274C84.168 422.953 84.3632 423.634 84.4723 424.345L78.9574 429.864C78.2506 429.743 77.5525 429.554 76.8803 429.304C76.3459 429.105 75.8198 428.866 75.3113 428.59C78.8545 424.991 80.6876 423.158 80.8104 423.09ZM84.2405 429.64C83.248 429.971 82.2329 430.113 81.224 430.045C83.5008 427.736 84.6442 426.593 84.6542 426.615C84.6831 427.632 85.233 429.309 84.2405 429.64ZM69.3563 414.756C70.2759 414.45 71.3609 414.301 72.3923 414.338L68.9426 417.781C68.8837 416.765 68.9951 415.735 69.3563 414.756ZM78.8545 422.59L73.8121 427.64C73.3467 427.296 72.9071 426.916 72.4935 426.503C72.0798 426.08 71.7006 425.641 71.3558 425.184L76.3977 420.142C76.6476 420.668 76.9837 421.151 77.4146 421.581C77.8456 422.012 78.3374 422.34 78.8545 422.59Z" fill="#080738"/>
<path d="M72.5023 409.31C77.2425 404.569 84.9389 404.569 89.6877 409.31C94.4365 414.058 94.4365 421.746 89.6877 426.495C88.1191 428.063 86.2317 429.106 84.2408 429.641C84.508 428.65 84.6459 427.633 84.6545 426.616L81.2243 430.046C80.4659 430.054 79.7074 429.994 78.9576 429.856L84.4649 424.349C84.3442 423.642 84.1546 422.944 83.9047 422.272C84.2149 422.074 84.508 421.841 84.7751 421.574C86.8005 419.54 86.8005 416.247 84.7751 414.222C82.7412 412.197 79.4489 412.197 77.4235 414.222C77.1563 414.498 76.9236 414.782 76.7254 415.093C76.0445 414.843 75.3551 414.653 74.6483 414.532L69.1411 420.04C69.0032 419.29 68.9429 418.531 68.9515 417.773L72.3817 414.343C71.3647 414.351 70.3477 414.489 69.3566 414.756C69.8909 412.757 70.9338 410.878 72.5023 409.31ZM76.3979 420.143L74.7345 421.806L71.3561 425.185C70.9941 424.702 70.6752 424.202 70.3994 423.685L72.7781 421.307L75.898 418.187C75.9411 418.859 76.1049 419.523 76.3979 420.143ZM80.8106 423.091L77.6907 426.21L75.312 428.589C74.7949 428.313 74.295 427.995 73.8123 427.633L77.1908 424.254L78.8542 422.591C79.4747 422.892 80.1384 423.056 80.8106 423.091Z" fill="#0037FF"/>
<path d="M69.3565 414.757C69.0893 415.748 68.9514 416.765 68.9428 417.773L60.3501 426.366C60.3846 423.298 61.5653 420.247 63.9096 417.903C65.4781 416.334 67.3656 415.291 69.3565 414.757ZM72.6229 438.647L81.2239 430.046C82.2409 430.037 83.2496 429.908 84.2407 429.641C83.7063 431.641 82.6635 433.519 81.0949 435.088C78.7507 437.432 75.6911 438.613 72.6229 438.647ZM68.8221 422.824C67.7362 423.91 67.2363 425.358 67.3053 426.78L61.8066 432.278C61.1861 431.132 60.7638 429.9 60.5397 428.641L69.1324 420.049C69.253 420.755 69.4427 421.445 69.6926 422.126C69.3823 422.324 69.0893 422.557 68.8221 422.824ZM76.8718 429.305C77.5527 429.555 78.2508 429.744 78.9489 429.865L70.3562 438.458C69.0979 438.234 67.8655 437.811 66.7192 437.191L72.2178 431.692C73.6399 431.77 75.0878 431.261 76.1737 430.175C76.4409 429.908 76.6736 429.615 76.8718 429.305ZM68.8221 430.175C69.253 430.598 69.7443 430.942 70.2614 431.192L65.2196 436.234C64.7542 435.889 64.3146 435.51 63.9009 435.097C63.4872 434.674 63.108 434.235 62.7633 433.778L67.8051 428.736C68.0551 429.262 68.3912 429.744 68.8221 430.175Z" fill="#0037FF"/>
<rect x="44.5354" y="389.936" width="64.5287" height="64.5287" rx="8.02591" stroke="url(#paint27_linear)" stroke-width="1.31691"/>
</g>
<rect x="34.4342" y="379.835" width="84.7309" height="84.7309" rx="9.11858" stroke="#305EED" stroke-width="0.868437"/>
<g filter="url(#filter27_d)">
<rect x="162.399" y="389.278" width="65.8456" height="65.8456" rx="8.68437" fill="url(#paint28_linear)"/>
<path d="M183.67 428.832V415.565L195.321 408.93V422.198L206.973 415.565V428.832L195.321 435.467L183.67 428.832V428.832ZM193.92 406.535L182.269 413.17L180.868 413.969V430.431L182.269 431.229L193.921 437.864L195.321 438.662L196.723 437.863L208.375 431.228L209.776 430.429V413.968L208.375 413.169L196.723 406.535L195.321 405.739L193.92 406.535Z" fill="url(#paint29_linear)"/>
<rect x="163.057" y="389.936" width="64.5287" height="64.5287" rx="8.02591" stroke="url(#paint30_linear)" stroke-width="1.31691"/>
</g>
<rect x="152.956" y="379.835" width="84.7309" height="84.7309" rx="9.11858" stroke="#305EED" stroke-width="0.868437"/>
<g filter="url(#filter29_d)">
<rect x="280.92" y="389.278" width="65.8456" height="65.8456" rx="8.68437" fill="url(#paint31_linear)"/>
<path d="M326.922 415.596C326.944 415.884 326.944 416.172 326.944 416.459C326.944 425.245 320.154 435.37 307.745 435.37C303.922 435.37 300.371 434.279 297.382 432.385C297.925 432.446 298.447 432.468 299.012 432.468C302.166 432.468 305.07 431.418 307.39 429.628C304.423 429.567 301.937 427.653 301.079 425.019C301.496 425.08 301.915 425.121 302.354 425.121C302.959 425.121 303.567 425.039 304.132 424.895C301.037 424.278 298.72 421.604 298.72 418.373V418.29C299.62 418.784 300.664 419.092 301.769 419.133C299.952 417.942 298.761 415.904 298.761 413.599C298.761 412.365 299.094 411.233 299.679 410.246C303.001 414.277 307.995 416.912 313.594 417.201C313.49 416.706 313.426 416.193 313.426 415.678C313.426 412.015 316.435 409.032 320.174 409.032C322.118 409.032 323.872 409.834 325.105 411.131C326.629 410.842 328.09 410.286 329.387 409.525C328.886 411.068 327.819 412.365 326.42 413.188C327.778 413.043 329.095 412.673 330.305 412.159C329.387 413.475 328.239 414.649 326.922 415.596Z" fill="#1DA1F2"/>
<rect x="281.579" y="389.936" width="64.5287" height="64.5287" rx="8.02591" stroke="url(#paint32_linear)" stroke-width="1.31691"/>
</g>
<rect x="271.478" y="379.835" width="84.7309" height="84.7309" rx="9.11858" stroke="#305EED" stroke-width="0.868437"/>
<g filter="url(#filter31_d)">
<rect x="399.442" y="389.278" width="65.8456" height="65.8456" rx="8.68437" fill="url(#paint33_linear)"/>
<path d="M432.338 424.301C436.977 424.301 440.739 420.539 440.739 415.9C440.739 411.259 436.977 407.498 432.338 407.498C427.698 407.498 423.936 411.259 423.936 415.9C423.936 420.539 427.698 424.301 432.338 424.301Z" fill="#FFCD00"/>
<path d="M432.393 428.502C432.384 428.502 432.374 428.502 432.366 428.502C426.477 428.502 421.532 424.464 420.149 419.005C419.723 417.326 418.359 415.9 416.627 415.9H411.362C411.362 427.5 420.765 436.904 432.366 436.904C432.374 436.904 432.384 436.904 432.393 436.904V428.502Z" fill="#00ECBB"/>
<path d="M432.338 428.502C432.347 428.502 432.356 428.502 432.365 428.502C438.254 428.502 443.199 424.464 444.582 419.005C445.007 417.326 446.372 415.9 448.104 415.9H453.369C453.369 427.5 443.965 436.904 432.365 436.904C432.356 436.904 432.347 436.904 432.338 436.904V428.502Z" fill="#AF64FF"/>
<path d="M447.217 430.752C443.416 434.553 438.165 436.904 432.365 436.904C426.565 436.904 421.314 434.553 417.513 430.752L423.454 424.811C425.734 427.092 428.885 428.502 432.365 428.502C435.845 428.502 438.996 427.092 441.276 424.811L447.217 430.752Z" fill="#7131FF"/>
<rect x="400.101" y="389.936" width="64.5287" height="64.5287" rx="8.02591" stroke="url(#paint34_linear)" stroke-width="1.31691"/>
</g>
<rect x="390" y="379.835" width="84.7309" height="84.7309" rx="9.11858" stroke="#305EED" stroke-width="0.868437"/>
<defs>
<filter id="filter0_d" x="27.0525" y="24.0525" width="99.4943" height="99.4943" filterUnits="userSpaceOnUse" color-interpolation-filters="sRGB">
<feFlood flood-opacity="0" result="BackgroundImageFix"/>
<feColorMatrix in="SourceAlpha" type="matrix" values="0 0 0 0 0 0 0 0 0 0 0 0 0 0 0 0 0 0 127 0"/>
<feOffset/>
<feGaussianBlur stdDeviation="3.47375"/>
<feColorMatrix type="matrix" values="0 0 0 0 0.188235 0 0 0 0 0.368627 0 0 0 0 0.929412 0 0 0 1 0"/>
<feBlend mode="normal" in2="BackgroundImageFix" result="effect1_dropShadow"/>
<feBlend mode="normal" in="SourceGraphic" in2="effect1_dropShadow" result="shape"/>
</filter>
<filter id="filter1_d" x="0.455124" y="0.92887" width="152.689" height="152.689" filterUnits="userSpaceOnUse" color-interpolation-filters="sRGB">
<feFlood flood-opacity="0" result="BackgroundImageFix"/>
<feColorMatrix in="SourceAlpha" type="matrix" values="0 0 0 0 0 0 0 0 0 0 0 0 0 0 0 0 0 0 127 0"/>
<feOffset dy="3.47375"/>
<feGaussianBlur stdDeviation="21.7109"/>
<feColorMatrix type="matrix" values="0 0 0 0 0.188235 0 0 0 0 0.368627 0 0 0 0 0.929412 0 0 0 0.5 0"/>
<feBlend mode="normal" in2="BackgroundImageFix" result="effect1_dropShadow"/>
<feBlend mode="normal" in="SourceGraphic" in2="effect1_dropShadow" result="shape"/>
</filter>
<filter id="filter2_d" x="145.574" y="24.0525" width="99.4943" height="99.4943" filterUnits="userSpaceOnUse" color-interpolation-filters="sRGB">
<feFlood flood-opacity="0" result="BackgroundImageFix"/>
<feColorMatrix in="SourceAlpha" type="matrix" values="0 0 0 0 0 0 0 0 0 0 0 0 0 0 0 0 0 0 127 0"/>
<feOffset/>
<feGaussianBlur stdDeviation="3.47375"/>
<feColorMatrix type="matrix" values="0 0 0 0 0.188235 0 0 0 0 0.368627 0 0 0 0 0.929412 0 0 0 1 0"/>
<feBlend mode="normal" in2="BackgroundImageFix" result="effect1_dropShadow"/>
<feBlend mode="normal" in="SourceGraphic" in2="effect1_dropShadow" result="shape"/>
</filter>
<filter id="filter3_d" x="118.977" y="0.92887" width="152.689" height="152.689" filterUnits="userSpaceOnUse" color-interpolation-filters="sRGB">
<feFlood flood-opacity="0" result="BackgroundImageFix"/>
<feColorMatrix in="SourceAlpha" type="matrix" values="0 0 0 0 0 0 0 0 0 0 0 0 0 0 0 0 0 0 127 0"/>
<feOffset dy="3.47375"/>
<feGaussianBlur stdDeviation="21.7109"/>
<feColorMatrix type="matrix" values="0 0 0 0 0.188235 0 0 0 0 0.368627 0 0 0 0 0.929412 0 0 0 0.5 0"/>
<feBlend mode="normal" in2="BackgroundImageFix" result="effect1_dropShadow"/>
<feBlend mode="normal" in="SourceGraphic" in2="effect1_dropShadow" result="shape"/>
</filter>
<filter id="filter4_d" x="264.096" y="24.0525" width="99.4943" height="99.4943" filterUnits="userSpaceOnUse" color-interpolation-filters="sRGB">
<feFlood flood-opacity="0" result="BackgroundImageFix"/>
<feColorMatrix in="SourceAlpha" type="matrix" values="0 0 0 0 0 0 0 0 0 0 0 0 0 0 0 0 0 0 127 0"/>
<feOffset/>
<feGaussianBlur stdDeviation="3.47375"/>
<feColorMatrix type="matrix" values="0 0 0 0 0.188235 0 0 0 0 0.368627 0 0 0 0 0.929412 0 0 0 1 0"/>
<feBlend mode="normal" in2="BackgroundImageFix" result="effect1_dropShadow"/>
<feBlend mode="normal" in="SourceGraphic" in2="effect1_dropShadow" result="shape"/>
</filter>
<filter id="filter5_d" x="237.499" y="0.92887" width="152.689" height="152.689" filterUnits="userSpaceOnUse" color-interpolation-filters="sRGB">
<feFlood flood-opacity="0" result="BackgroundImageFix"/>
<feColorMatrix in="SourceAlpha" type="matrix" values="0 0 0 0 0 0 0 0 0 0 0 0 0 0 0 0 0 0 127 0"/>
<feOffset dy="3.47375"/>
<feGaussianBlur stdDeviation="21.7109"/>
<feColorMatrix type="matrix" values="0 0 0 0 0.188235 0 0 0 0 0.368627 0 0 0 0 0.929412 0 0 0 0.5 0"/>
<feBlend mode="normal" in2="BackgroundImageFix" result="effect1_dropShadow"/>
<feBlend mode="normal" in="SourceGraphic" in2="effect1_dropShadow" result="shape"/>
</filter>
<filter id="filter6_d" x="382.618" y="24.0525" width="99.4943" height="99.4943" filterUnits="userSpaceOnUse" color-interpolation-filters="sRGB">
<feFlood flood-opacity="0" result="BackgroundImageFix"/>
<feColorMatrix in="SourceAlpha" type="matrix" values="0 0 0 0 0 0 0 0 0 0 0 0 0 0 0 0 0 0 127 0"/>
<feOffset/>
<feGaussianBlur stdDeviation="3.47375"/>
<feColorMatrix type="matrix" values="0 0 0 0 0.188235 0 0 0 0 0.368627 0 0 0 0 0.929412 0 0 0 1 0"/>
<feBlend mode="normal" in2="BackgroundImageFix" result="effect1_dropShadow"/>
<feBlend mode="normal" in="SourceGraphic" in2="effect1_dropShadow" result="shape"/>
</filter>
<filter id="filter7_d" x="356.021" y="0.92887" width="152.689" height="152.689" filterUnits="userSpaceOnUse" color-interpolation-filters="sRGB">
<feFlood flood-opacity="0" result="BackgroundImageFix"/>
<feColorMatrix in="SourceAlpha" type="matrix" values="0 0 0 0 0 0 0 0 0 0 0 0 0 0 0 0 0 0 127 0"/>
<feOffset dy="3.47375"/>
<feGaussianBlur stdDeviation="21.7109"/>
<feColorMatrix type="matrix" values="0 0 0 0 0.188235 0 0 0 0 0.368627 0 0 0 0 0.929412 0 0 0 0.5 0"/>
<feBlend mode="normal" in2="BackgroundImageFix" result="effect1_dropShadow"/>
<feBlend mode="normal" in="SourceGraphic" in2="effect1_dropShadow" result="shape"/>
</filter>
<filter id="filter8_d" x="27.0525" y="140.186" width="99.4943" height="99.4943" filterUnits="userSpaceOnUse" color-interpolation-filters="sRGB">
<feFlood flood-opacity="0" result="BackgroundImageFix"/>
<feColorMatrix in="SourceAlpha" type="matrix" values="0 0 0 0 0 0 0 0 0 0 0 0 0 0 0 0 0 0 127 0"/>
<feOffset/>
<feGaussianBlur stdDeviation="3.47375"/>
<feColorMatrix type="matrix" values="0 0 0 0 0.188235 0 0 0 0 0.368627 0 0 0 0 0.929412 0 0 0 1 0"/>
<feBlend mode="normal" in2="BackgroundImageFix" result="effect1_dropShadow"/>
<feBlend mode="normal" in="SourceGraphic" in2="effect1_dropShadow" result="shape"/>
</filter>
<filter id="filter9_d" x="0.455124" y="117.063" width="152.689" height="152.689" filterUnits="userSpaceOnUse" color-interpolation-filters="sRGB">
<feFlood flood-opacity="0" result="BackgroundImageFix"/>
<feColorMatrix in="SourceAlpha" type="matrix" values="0 0 0 0 0 0 0 0 0 0 0 0 0 0 0 0 0 0 127 0"/>
<feOffset dy="3.47375"/>
<feGaussianBlur stdDeviation="21.7109"/>
<feColorMatrix type="matrix" values="0 0 0 0 0.188235 0 0 0 0 0.368627 0 0 0 0 0.929412 0 0 0 0.5 0"/>
<feBlend mode="normal" in2="BackgroundImageFix" result="effect1_dropShadow"/>
<feBlend mode="normal" in="SourceGraphic" in2="effect1_dropShadow" result="shape"/>
</filter>
<filter id="filter10_d" x="145.574" y="140.186" width="99.4943" height="99.4943" filterUnits="userSpaceOnUse" color-interpolation-filters="sRGB">
<feFlood flood-opacity="0" result="BackgroundImageFix"/>
<feColorMatrix in="SourceAlpha" type="matrix" values="0 0 0 0 0 0 0 0 0 0 0 0 0 0 0 0 0 0 127 0"/>
<feOffset/>
<feGaussianBlur stdDeviation="3.47375"/>
<feColorMatrix type="matrix" values="0 0 0 0 0.188235 0 0 0 0 0.368627 0 0 0 0 0.929412 0 0 0 1 0"/>
<feBlend mode="normal" in2="BackgroundImageFix" result="effect1_dropShadow"/>
<feBlend mode="normal" in="SourceGraphic" in2="effect1_dropShadow" result="shape"/>
</filter>
<filter id="filter11_d" x="118.977" y="117.063" width="152.689" height="152.689" filterUnits="userSpaceOnUse" color-interpolation-filters="sRGB">
<feFlood flood-opacity="0" result="BackgroundImageFix"/>
<feColorMatrix in="SourceAlpha" type="matrix" values="0 0 0 0 0 0 0 0 0 0 0 0 0 0 0 0 0 0 127 0"/>
<feOffset dy="3.47375"/>
<feGaussianBlur stdDeviation="21.7109"/>
<feColorMatrix type="matrix" values="0 0 0 0 0.188235 0 0 0 0 0.368627 0 0 0 0 0.929412 0 0 0 0.5 0"/>
<feBlend mode="normal" in2="BackgroundImageFix" result="effect1_dropShadow"/>
<feBlend mode="normal" in="SourceGraphic" in2="effect1_dropShadow" result="shape"/>
</filter>
<filter id="filter12_d" x="264.096" y="140.186" width="99.4943" height="99.4943" filterUnits="userSpaceOnUse" color-interpolation-filters="sRGB">
<feFlood flood-opacity="0" result="BackgroundImageFix"/>
<feColorMatrix in="SourceAlpha" type="matrix" values="0 0 0 0 0 0 0 0 0 0 0 0 0 0 0 0 0 0 127 0"/>
<feOffset/>
<feGaussianBlur stdDeviation="3.47375"/>
<feColorMatrix type="matrix" values="0 0 0 0 0.188235 0 0 0 0 0.368627 0 0 0 0 0.929412 0 0 0 1 0"/>
<feBlend mode="normal" in2="BackgroundImageFix" result="effect1_dropShadow"/>
<feBlend mode="normal" in="SourceGraphic" in2="effect1_dropShadow" result="shape"/>
</filter>
<filter id="filter13_d" x="237.499" y="117.063" width="152.689" height="152.689" filterUnits="userSpaceOnUse" color-interpolation-filters="sRGB">
<feFlood flood-opacity="0" result="BackgroundImageFix"/>
<feColorMatrix in="SourceAlpha" type="matrix" values="0 0 0 0 0 0 0 0 0 0 0 0 0 0 0 0 0 0 127 0"/>
<feOffset dy="3.47375"/>
<feGaussianBlur stdDeviation="21.7109"/>
<feColorMatrix type="matrix" values="0 0 0 0 0.188235 0 0 0 0 0.368627 0 0 0 0 0.929412 0 0 0 0.5 0"/>
<feBlend mode="normal" in2="BackgroundImageFix" result="effect1_dropShadow"/>
<feBlend mode="normal" in="SourceGraphic" in2="effect1_dropShadow" result="shape"/>
</filter>
<filter id="filter14_d" x="382.618" y="140.186" width="99.4943" height="99.4943" filterUnits="userSpaceOnUse" color-interpolation-filters="sRGB">
<feFlood flood-opacity="0" result="BackgroundImageFix"/>
<feColorMatrix in="SourceAlpha" type="matrix" values="0 0 0 0 0 0 0 0 0 0 0 0 0 0 0 0 0 0 127 0"/>
<feOffset/>
<feGaussianBlur stdDeviation="3.47375"/>
<feColorMatrix type="matrix" values="0 0 0 0 0.188235 0 0 0 0 0.368627 0 0 0 0 0.929412 0 0 0 1 0"/>
<feBlend mode="normal" in2="BackgroundImageFix" result="effect1_dropShadow"/>
<feBlend mode="normal" in="SourceGraphic" in2="effect1_dropShadow" result="shape"/>
</filter>
<filter id="filter15_d" x="356.021" y="117.063" width="152.689" height="152.689" filterUnits="userSpaceOnUse" color-interpolation-filters="sRGB">
<feFlood flood-opacity="0" result="BackgroundImageFix"/>
<feColorMatrix in="SourceAlpha" type="matrix" values="0 0 0 0 0 0 0 0 0 0 0 0 0 0 0 0 0 0 127 0"/>
<feOffset dy="3.47375"/>
<feGaussianBlur stdDeviation="21.7109"/>
<feColorMatrix type="matrix" values="0 0 0 0 0.188235 0 0 0 0 0.368627 0 0 0 0 0.929412 0 0 0 0.5 0"/>
<feBlend mode="normal" in2="BackgroundImageFix" result="effect1_dropShadow"/>
<feBlend mode="normal" in="SourceGraphic" in2="effect1_dropShadow" result="shape"/>
</filter>
<filter id="filter16_d" x="27.0525" y="256.32" width="99.4943" height="99.4943" filterUnits="userSpaceOnUse" color-interpolation-filters="sRGB">
<feFlood flood-opacity="0" result="BackgroundImageFix"/>
<feColorMatrix in="SourceAlpha" type="matrix" values="0 0 0 0 0 0 0 0 0 0 0 0 0 0 0 0 0 0 127 0"/>
<feOffset/>
<feGaussianBlur stdDeviation="3.47375"/>
<feColorMatrix type="matrix" values="0 0 0 0 0.188235 0 0 0 0 0.368627 0 0 0 0 0.929412 0 0 0 1 0"/>
<feBlend mode="normal" in2="BackgroundImageFix" result="effect1_dropShadow"/>
<feBlend mode="normal" in="SourceGraphic" in2="effect1_dropShadow" result="shape"/>
</filter>
<filter id="filter17_d" x="0.455124" y="233.196" width="152.689" height="152.689" filterUnits="userSpaceOnUse" color-interpolation-filters="sRGB">
<feFlood flood-opacity="0" result="BackgroundImageFix"/>
<feColorMatrix in="SourceAlpha" type="matrix" values="0 0 0 0 0 0 0 0 0 0 0 0 0 0 0 0 0 0 127 0"/>
<feOffset dy="3.47375"/>
<feGaussianBlur stdDeviation="21.7109"/>
<feColorMatrix type="matrix" values="0 0 0 0 0.188235 0 0 0 0 0.368627 0 0 0 0 0.929412 0 0 0 0.5 0"/>
<feBlend mode="normal" in2="BackgroundImageFix" result="effect1_dropShadow"/>
<feBlend mode="normal" in="SourceGraphic" in2="effect1_dropShadow" result="shape"/>
</filter>
<filter id="filter18_d" x="145.574" y="256.32" width="99.4943" height="99.4943" filterUnits="userSpaceOnUse" color-interpolation-filters="sRGB">
<feFlood flood-opacity="0" result="BackgroundImageFix"/>
<feColorMatrix in="SourceAlpha" type="matrix" values="0 0 0 0 0 0 0 0 0 0 0 0 0 0 0 0 0 0 127 0"/>
<feOffset/>
<feGaussianBlur stdDeviation="3.47375"/>
<feColorMatrix type="matrix" values="0 0 0 0 0.188235 0 0 0 0 0.368627 0 0 0 0 0.929412 0 0 0 1 0"/>
<feBlend mode="normal" in2="BackgroundImageFix" result="effect1_dropShadow"/>
<feBlend mode="normal" in="SourceGraphic" in2="effect1_dropShadow" result="shape"/>
</filter>
<filter id="filter19_d" x="118.977" y="233.196" width="152.689" height="152.689" filterUnits="userSpaceOnUse" color-interpolation-filters="sRGB">
<feFlood flood-opacity="0" result="BackgroundImageFix"/>
<feColorMatrix in="SourceAlpha" type="matrix" values="0 0 0 0 0 0 0 0 0 0 0 0 0 0 0 0 0 0 127 0"/>
<feOffset dy="3.47375"/>
<feGaussianBlur stdDeviation="21.7109"/>
<feColorMatrix type="matrix" values="0 0 0 0 0.188235 0 0 0 0 0.368627 0 0 0 0 0.929412 0 0 0 0.5 0"/>
<feBlend mode="normal" in2="BackgroundImageFix" result="effect1_dropShadow"/>
<feBlend mode="normal" in="SourceGraphic" in2="effect1_dropShadow" result="shape"/>
</filter>
<filter id="filter20_d" x="264.096" y="256.32" width="99.4943" height="99.4943" filterUnits="userSpaceOnUse" color-interpolation-filters="sRGB">
<feFlood flood-opacity="0" result="BackgroundImageFix"/>
<feColorMatrix in="SourceAlpha" type="matrix" values="0 0 0 0 0 0 0 0 0 0 0 0 0 0 0 0 0 0 127 0"/>
<feOffset/>
<feGaussianBlur stdDeviation="3.47375"/>
<feColorMatrix type="matrix" values="0 0 0 0 0.188235 0 0 0 0 0.368627 0 0 0 0 0.929412 0 0 0 1 0"/>
<feBlend mode="normal" in2="BackgroundImageFix" result="effect1_dropShadow"/>
<feBlend mode="normal" in="SourceGraphic" in2="effect1_dropShadow" result="shape"/>
</filter>
<filter id="filter21_d" x="237.499" y="233.196" width="152.689" height="152.689" filterUnits="userSpaceOnUse" color-interpolation-filters="sRGB">
<feFlood flood-opacity="0" result="BackgroundImageFix"/>
<feColorMatrix in="SourceAlpha" type="matrix" values="0 0 0 0 0 0 0 0 0 0 0 0 0 0 0 0 0 0 127 0"/>
<feOffset dy="3.47375"/>
<feGaussianBlur stdDeviation="21.7109"/>
<feColorMatrix type="matrix" values="0 0 0 0 0.188235 0 0 0 0 0.368627 0 0 0 0 0.929412 0 0 0 0.5 0"/>
<feBlend mode="normal" in2="BackgroundImageFix" result="effect1_dropShadow"/>
<feBlend mode="normal" in="SourceGraphic" in2="effect1_dropShadow" result="shape"/>
</filter>
<filter id="filter22_d" x="382.618" y="256.32" width="99.4943" height="99.4943" filterUnits="userSpaceOnUse" color-interpolation-filters="sRGB">
<feFlood flood-opacity="0" result="BackgroundImageFix"/>
<feColorMatrix in="SourceAlpha" type="matrix" values="0 0 0 0 0 0 0 0 0 0 0 0 0 0 0 0 0 0 127 0"/>
<feOffset/>
<feGaussianBlur stdDeviation="3.47375"/>
<feColorMatrix type="matrix" values="0 0 0 0 0.188235 0 0 0 0 0.368627 0 0 0 0 0.929412 0 0 0 1 0"/>
<feBlend mode="normal" in2="BackgroundImageFix" result="effect1_dropShadow"/>
<feBlend mode="normal" in="SourceGraphic" in2="effect1_dropShadow" result="shape"/>
</filter>
<filter id="filter23_d" x="356.021" y="233.196" width="152.689" height="152.689" filterUnits="userSpaceOnUse" color-interpolation-filters="sRGB">
<feFlood flood-opacity="0" result="BackgroundImageFix"/>
<feColorMatrix in="SourceAlpha" type="matrix" values="0 0 0 0 0 0 0 0 0 0 0 0 0 0 0 0 0 0 127 0"/>
<feOffset dy="3.47375"/>
<feGaussianBlur stdDeviation="21.7109"/>
<feColorMatrix type="matrix" values="0 0 0 0 0.188235 0 0 0 0 0.368627 0 0 0 0 0.929412 0 0 0 0.5 0"/>
<feBlend mode="normal" in2="BackgroundImageFix" result="effect1_dropShadow"/>
<feBlend mode="normal" in="SourceGraphic" in2="effect1_dropShadow" result="shape"/>
</filter>
<filter id="filter24_d" x="27.0525" y="372.453" width="99.4943" height="99.4943" filterUnits="userSpaceOnUse" color-interpolation-filters="sRGB">
<feFlood flood-opacity="0" result="BackgroundImageFix"/>
<feColorMatrix in="SourceAlpha" type="matrix" values="0 0 0 0 0 0 0 0 0 0 0 0 0 0 0 0 0 0 127 0"/>
<feOffset/>
<feGaussianBlur stdDeviation="3.47375"/>
<feColorMatrix type="matrix" values="0 0 0 0 0.188235 0 0 0 0 0.368627 0 0 0 0 0.929412 0 0 0 1 0"/>
<feBlend mode="normal" in2="BackgroundImageFix" result="effect1_dropShadow"/>
<feBlend mode="normal" in="SourceGraphic" in2="effect1_dropShadow" result="shape"/>
</filter>
<filter id="filter25_d" x="0.455124" y="349.33" width="152.689" height="152.689" filterUnits="userSpaceOnUse" color-interpolation-filters="sRGB">
<feFlood flood-opacity="0" result="BackgroundImageFix"/>
<feColorMatrix in="SourceAlpha" type="matrix" values="0 0 0 0 0 0 0 0 0 0 0 0 0 0 0 0 0 0 127 0"/>
<feOffset dy="3.47375"/>
<feGaussianBlur stdDeviation="21.7109"/>
<feColorMatrix type="matrix" values="0 0 0 0 0.188235 0 0 0 0 0.368627 0 0 0 0 0.929412 0 0 0 0.5 0"/>
<feBlend mode="normal" in2="BackgroundImageFix" result="effect1_dropShadow"/>
<feBlend mode="normal" in="SourceGraphic" in2="effect1_dropShadow" result="shape"/>
</filter>
<filter id="filter26_d" x="145.574" y="372.453" width="99.4943" height="99.4943" filterUnits="userSpaceOnUse" color-interpolation-filters="sRGB">
<feFlood flood-opacity="0" result="BackgroundImageFix"/>
<feColorMatrix in="SourceAlpha" type="matrix" values="0 0 0 0 0 0 0 0 0 0 0 0 0 0 0 0 0 0 127 0"/>
<feOffset/>
<feGaussianBlur stdDeviation="3.47375"/>
<feColorMatrix type="matrix" values="0 0 0 0 0.188235 0 0 0 0 0.368627 0 0 0 0 0.929412 0 0 0 1 0"/>
<feBlend mode="normal" in2="BackgroundImageFix" result="effect1_dropShadow"/>
<feBlend mode="normal" in="SourceGraphic" in2="effect1_dropShadow" result="shape"/>
</filter>
<filter id="filter27_d" x="118.977" y="349.33" width="152.689" height="152.689" filterUnits="userSpaceOnUse" color-interpolation-filters="sRGB">
<feFlood flood-opacity="0" result="BackgroundImageFix"/>
<feColorMatrix in="SourceAlpha" type="matrix" values="0 0 0 0 0 0 0 0 0 0 0 0 0 0 0 0 0 0 127 0"/>
<feOffset dy="3.47375"/>
<feGaussianBlur stdDeviation="21.7109"/>
<feColorMatrix type="matrix" values="0 0 0 0 0.188235 0 0 0 0 0.368627 0 0 0 0 0.929412 0 0 0 0.5 0"/>
<feBlend mode="normal" in2="BackgroundImageFix" result="effect1_dropShadow"/>
<feBlend mode="normal" in="SourceGraphic" in2="effect1_dropShadow" result="shape"/>
</filter>
<filter id="filter28_d" x="264.096" y="372.453" width="99.4943" height="99.4943" filterUnits="userSpaceOnUse" color-interpolation-filters="sRGB">
<feFlood flood-opacity="0" result="BackgroundImageFix"/>
<feColorMatrix in="SourceAlpha" type="matrix" values="0 0 0 0 0 0 0 0 0 0 0 0 0 0 0 0 0 0 127 0"/>
<feOffset/>
<feGaussianBlur stdDeviation="3.47375"/>
<feColorMatrix type="matrix" values="0 0 0 0 0.188235 0 0 0 0 0.368627 0 0 0 0 0.929412 0 0 0 1 0"/>
<feBlend mode="normal" in2="BackgroundImageFix" result="effect1_dropShadow"/>
<feBlend mode="normal" in="SourceGraphic" in2="effect1_dropShadow" result="shape"/>
</filter>
<filter id="filter29_d" x="237.499" y="349.33" width="152.689" height="152.689" filterUnits="userSpaceOnUse" color-interpolation-filters="sRGB">
<feFlood flood-opacity="0" result="BackgroundImageFix"/>
<feColorMatrix in="SourceAlpha" type="matrix" values="0 0 0 0 0 0 0 0 0 0 0 0 0 0 0 0 0 0 127 0"/>
<feOffset dy="3.47375"/>
<feGaussianBlur stdDeviation="21.7109"/>
<feColorMatrix type="matrix" values="0 0 0 0 0.188235 0 0 0 0 0.368627 0 0 0 0 0.929412 0 0 0 0.5 0"/>
<feBlend mode="normal" in2="BackgroundImageFix" result="effect1_dropShadow"/>
<feBlend mode="normal" in="SourceGraphic" in2="effect1_dropShadow" result="shape"/>
</filter>
<filter id="filter30_d" x="382.618" y="372.453" width="99.4943" height="99.4943" filterUnits="userSpaceOnUse" color-interpolation-filters="sRGB">
<feFlood flood-opacity="0" result="BackgroundImageFix"/>
<feColorMatrix in="SourceAlpha" type="matrix" values="0 0 0 0 0 0 0 0 0 0 0 0 0 0 0 0 0 0 127 0"/>
<feOffset/>
<feGaussianBlur stdDeviation="3.47375"/>
<feColorMatrix type="matrix" values="0 0 0 0 0.188235 0 0 0 0 0.368627 0 0 0 0 0.929412 0 0 0 1 0"/>
<feBlend mode="normal" in2="BackgroundImageFix" result="effect1_dropShadow"/>
<feBlend mode="normal" in="SourceGraphic" in2="effect1_dropShadow" result="shape"/>
</filter>
<filter id="filter31_d" x="356.021" y="349.33" width="152.689" height="152.689" filterUnits="userSpaceOnUse" color-interpolation-filters="sRGB">
<feFlood flood-opacity="0" result="BackgroundImageFix"/>
<feColorMatrix in="SourceAlpha" type="matrix" values="0 0 0 0 0 0 0 0 0 0 0 0 0 0 0 0 0 0 127 0"/>
<feOffset dy="3.47375"/>
<feGaussianBlur stdDeviation="21.7109"/>
<feColorMatrix type="matrix" values="0 0 0 0 0.188235 0 0 0 0 0.368627 0 0 0 0 0.929412 0 0 0 0.5 0"/>
<feBlend mode="normal" in2="BackgroundImageFix" result="effect1_dropShadow"/>
<feBlend mode="normal" in="SourceGraphic" in2="effect1_dropShadow" result="shape"/>
</filter>
<linearGradient id="paint0_linear" x1="76.7998" y1="40.877" x2="76.7998" y2="106.723" gradientUnits="userSpaceOnUse">
<stop stop-color="white"/>
<stop offset="1" stop-color="#F9F9F9"/>
</linearGradient>
<linearGradient id="paint1_linear" x1="76.7998" y1="40.877" x2="76.7998" y2="106.723" gradientUnits="userSpaceOnUse">
<stop stop-color="#E2E2E2"/>
<stop offset="1" stop-color="#D7D7D7" stop-opacity="0.41"/>
</linearGradient>
<linearGradient id="paint2_linear" x1="195.322" y1="40.877" x2="195.322" y2="106.723" gradientUnits="userSpaceOnUse">
<stop stop-color="white"/>
<stop offset="1" stop-color="#F9F9F9"/>
</linearGradient>
<linearGradient id="paint3_linear" x1="195.322" y1="40.877" x2="195.322" y2="106.723" gradientUnits="userSpaceOnUse">
<stop stop-color="#E2E2E2"/>
<stop offset="1" stop-color="#D7D7D7" stop-opacity="0.41"/>
</linearGradient>
<linearGradient id="paint4_linear" x1="313.843" y1="40.877" x2="313.843" y2="106.723" gradientUnits="userSpaceOnUse">
<stop stop-color="white"/>
<stop offset="1" stop-color="#F9F9F9"/>
</linearGradient>
<linearGradient id="paint5_linear" x1="313.843" y1="40.877" x2="313.843" y2="106.723" gradientUnits="userSpaceOnUse">
<stop stop-color="#E2E2E2"/>
<stop offset="1" stop-color="#D7D7D7" stop-opacity="0.41"/>
</linearGradient>
<linearGradient id="paint6_linear" x1="432.365" y1="40.877" x2="432.365" y2="106.723" gradientUnits="userSpaceOnUse">
<stop stop-color="white"/>
<stop offset="1" stop-color="#F9F9F9"/>
</linearGradient>
<linearGradient id="paint7_linear" x1="431.989" y1="73.4045" x2="448.083" y2="89.4529" gradientUnits="userSpaceOnUse">
<stop stop-color="#BF360C" stop-opacity="0.2"/>
<stop offset="0.28" stop-color="#BF360C" stop-opacity="0.12"/>
<stop offset="0.67" stop-color="#BF360C" stop-opacity="0.05"/>
<stop offset="1" stop-color="#BF360C" stop-opacity="0.02"/>
</linearGradient>
<linearGradient id="paint8_linear" x1="415.904" y1="81.028" x2="434.371" y2="81.028" gradientUnits="userSpaceOnUse">
<stop stop-color="white" stop-opacity="0.1"/>
<stop offset="0.14" stop-color="white" stop-opacity="0.08"/>
<stop offset="0.61" stop-color="white" stop-opacity="0.02"/>
<stop offset="1" stop-color="white" stop-opacity="0"/>
</linearGradient>
<linearGradient id="paint9_linear" x1="432.365" y1="40.877" x2="432.365" y2="106.723" gradientUnits="userSpaceOnUse">
<stop stop-color="#E2E2E2"/>
<stop offset="1" stop-color="#D7D7D7" stop-opacity="0.41"/>
</linearGradient>
<linearGradient id="paint10_linear" x1="76.7998" y1="157.011" x2="76.7998" y2="222.856" gradientUnits="userSpaceOnUse">
<stop stop-color="white"/>
<stop offset="1" stop-color="#F9F9F9"/>
</linearGradient>
<linearGradient id="paint11_linear" x1="76.7998" y1="157.011" x2="76.7998" y2="222.856" gradientUnits="userSpaceOnUse">
<stop stop-color="#E2E2E2"/>
<stop offset="1" stop-color="#D7D7D7" stop-opacity="0.41"/>
</linearGradient>
<linearGradient id="paint12_linear" x1="195.322" y1="157.011" x2="195.322" y2="222.856" gradientUnits="userSpaceOnUse">
<stop stop-color="white"/>
<stop offset="1" stop-color="#F9F9F9"/>
</linearGradient>
<linearGradient id="paint13_linear" x1="195.322" y1="157.011" x2="195.322" y2="222.856" gradientUnits="userSpaceOnUse">
<stop stop-color="#E2E2E2"/>
<stop offset="1" stop-color="#D7D7D7" stop-opacity="0.41"/>
</linearGradient>
<linearGradient id="paint14_linear" x1="313.843" y1="157.011" x2="313.843" y2="222.856" gradientUnits="userSpaceOnUse">
<stop stop-color="white"/>
<stop offset="1" stop-color="#F9F9F9"/>
</linearGradient>
<linearGradient id="paint15_linear" x1="313.843" y1="157.011" x2="313.843" y2="222.856" gradientUnits="userSpaceOnUse">
<stop stop-color="#E2E2E2"/>
<stop offset="1" stop-color="#D7D7D7" stop-opacity="0.41"/>
</linearGradient>
<linearGradient id="paint16_linear" x1="432.365" y1="157.011" x2="432.365" y2="222.856" gradientUnits="userSpaceOnUse">
<stop stop-color="white"/>
<stop offset="1" stop-color="#F9F9F9"/>
</linearGradient>
<linearGradient id="paint17_linear" x1="432.365" y1="157.011" x2="432.365" y2="222.856" gradientUnits="userSpaceOnUse">
<stop stop-color="#E2E2E2"/>
<stop offset="1" stop-color="#D7D7D7" stop-opacity="0.41"/>
</linearGradient>
<linearGradient id="paint18_linear" x1="76.7998" y1="273.144" x2="76.7998" y2="338.99" gradientUnits="userSpaceOnUse">
<stop stop-color="white"/>
<stop offset="1" stop-color="#F9F9F9"/>
</linearGradient>
<linearGradient id="paint19_linear" x1="76.7998" y1="273.144" x2="76.7998" y2="338.99" gradientUnits="userSpaceOnUse">
<stop stop-color="#E2E2E2"/>
<stop offset="1" stop-color="#D7D7D7" stop-opacity="0.41"/>
</linearGradient>
<linearGradient id="paint20_linear" x1="195.322" y1="273.144" x2="195.322" y2="338.99" gradientUnits="userSpaceOnUse">
<stop stop-color="white"/>
<stop offset="1" stop-color="#F9F9F9"/>
</linearGradient>
<linearGradient id="paint21_linear" x1="195.322" y1="273.144" x2="195.322" y2="338.99" gradientUnits="userSpaceOnUse">
<stop stop-color="#E2E2E2"/>
<stop offset="1" stop-color="#D7D7D7" stop-opacity="0.41"/>
</linearGradient>
<linearGradient id="paint22_linear" x1="313.843" y1="273.144" x2="313.843" y2="338.99" gradientUnits="userSpaceOnUse">
<stop stop-color="white"/>
<stop offset="1" stop-color="#F9F9F9"/>
</linearGradient>
<linearGradient id="paint23_linear" x1="313.843" y1="273.144" x2="313.843" y2="338.99" gradientUnits="userSpaceOnUse">
<stop stop-color="#E2E2E2"/>
<stop offset="1" stop-color="#D7D7D7" stop-opacity="0.41"/>
</linearGradient>
<linearGradient id="paint24_linear" x1="432.365" y1="273.144" x2="432.365" y2="338.99" gradientUnits="userSpaceOnUse">
<stop stop-color="white"/>
<stop offset="1" stop-color="#F9F9F9"/>
</linearGradient>
<linearGradient id="paint25_linear" x1="432.365" y1="273.144" x2="432.365" y2="338.99" gradientUnits="userSpaceOnUse">
<stop stop-color="#E2E2E2"/>
<stop offset="1" stop-color="#D7D7D7" stop-opacity="0.41"/>
</linearGradient>
<linearGradient id="paint26_linear" x1="76.7998" y1="389.278" x2="76.7998" y2="455.123" gradientUnits="userSpaceOnUse">
<stop stop-color="white"/>
<stop offset="1" stop-color="#F9F9F9"/>
</linearGradient>
<linearGradient id="paint27_linear" x1="76.7998" y1="389.278" x2="76.7998" y2="455.123" gradientUnits="userSpaceOnUse">
<stop stop-color="#E2E2E2"/>
<stop offset="1" stop-color="#D7D7D7" stop-opacity="0.41"/>
</linearGradient>
<linearGradient id="paint28_linear" x1="195.322" y1="389.278" x2="195.322" y2="455.123" gradientUnits="userSpaceOnUse">
<stop stop-color="white"/>
<stop offset="1" stop-color="#F9F9F9"/>
</linearGradient>
<linearGradient id="paint29_linear" x1="195.293" y1="438.663" x2="195.293" y2="405.74" gradientUnits="userSpaceOnUse">
<stop stop-color="#F37C27"/>
<stop offset="1" stop-color="#ED3774"/>
</linearGradient>
<linearGradient id="paint30_linear" x1="195.322" y1="389.278" x2="195.322" y2="455.123" gradientUnits="userSpaceOnUse">
<stop stop-color="#E2E2E2"/>
<stop offset="1" stop-color="#D7D7D7" stop-opacity="0.41"/>
</linearGradient>
<linearGradient id="paint31_linear" x1="313.843" y1="389.278" x2="313.843" y2="455.123" gradientUnits="userSpaceOnUse">
<stop stop-color="white"/>
<stop offset="1" stop-color="#F9F9F9"/>
</linearGradient>
<linearGradient id="paint32_linear" x1="313.843" y1="389.278" x2="313.843" y2="455.123" gradientUnits="userSpaceOnUse">
<stop stop-color="#E2E2E2"/>
<stop offset="1" stop-color="#D7D7D7" stop-opacity="0.41"/>
</linearGradient>
<linearGradient id="paint33_linear" x1="432.365" y1="389.278" x2="432.365" y2="455.123" gradientUnits="userSpaceOnUse">
<stop stop-color="white"/>
<stop offset="1" stop-color="#F9F9F9"/>
</linearGradient>
<linearGradient id="paint34_linear" x1="432.365" y1="389.278" x2="432.365" y2="455.123" gradientUnits="userSpaceOnUse">
<stop stop-color="#E2E2E2"/>
<stop offset="1" stop-color="#D7D7D7" stop-opacity="0.41"/>
</linearGradient>
<clipPath id="clip0">
<rect width="32.6724" height="32.6724" fill="white" transform="translate(178.985 57.4634)"/>
</clipPath>
</defs>
</svg>
