<svg viewBox="0 0 413 394" fill="none" xmlns="http://www.w3.org/2000/svg">
<g transform="matrix(1,0,0,1,-12,40)">
<g filter="url(#filter0_d)">
<rect width="41.2723" height="41.2723" rx="5.4434" transform="matrix(0.866025 -0.5 0.866025 0.5 24.7231 156.262)" fill="url(#paint0_linear)"/>
<path d="M67.909 152.992C68.232 153.183 68.2291 153.488 67.9026 153.676C67.5761 153.865 67.0476 153.867 66.7175 153.68L61.3597 150.587C61.0368 150.396 61.0396 150.091 61.3662 149.903C61.6927 149.714 62.2212 149.712 62.5512 149.899L67.909 152.992ZM71.4299 155.265C71.4166 155.364 71.0616 157.707 67.0155 160.043C62.9694 162.379 58.9109 162.584 58.74 162.592C58.2761 162.612 57.8711 162.412 57.8354 162.144C57.7996 161.876 58.1453 161.643 58.6082 161.622C58.6725 161.618 62.2588 161.413 65.824 159.355C69.4341 157.271 69.7469 155.211 69.7497 155.191C69.7849 154.923 70.1904 154.722 70.6543 154.743C71.1182 154.763 71.4654 154.997 71.4299 155.265ZM49.4454 157.466C49.1225 157.275 49.1253 156.97 49.4518 156.781C49.7784 156.593 50.3068 156.591 50.6369 156.778L55.9947 159.871C56.3176 160.061 56.3148 160.367 55.9883 160.555C55.6618 160.744 55.1333 160.745 54.8032 160.559L49.4454 157.466ZM51.2326 155.058C50.9122 154.867 50.9162 154.563 51.2417 154.375C51.5672 154.187 52.0936 154.185 52.424 154.37L60.3825 158.965C60.7029 159.156 60.6989 159.46 60.3734 159.647C60.0479 159.835 59.5215 159.838 59.1911 159.653L51.2327 155.058L51.2326 155.058ZM53.9097 153.164C53.7517 153.073 53.6629 152.949 53.6629 152.82C53.6629 152.691 53.7517 152.568 53.9097 152.476C54.0677 152.385 54.282 152.334 54.5054 152.334C54.7289 152.334 54.9432 152.385 55.1012 152.476L63.739 157.463C64.062 157.654 64.0591 157.959 63.7326 158.148C63.4061 158.336 62.8776 158.338 62.5476 158.151L53.9097 153.164ZM57.1898 151.619C56.8693 151.428 56.8733 151.124 57.1988 150.936C57.5243 150.748 58.0507 150.746 58.3811 150.931L66.3396 155.526C66.66 155.716 66.656 156.02 66.3305 156.208C66.0051 156.396 65.4786 156.398 65.1482 156.213L57.1898 151.619L57.1898 151.619ZM58.2322 147.233L44.8287 154.972C43.5949 155.684 43.5949 156.839 44.8287 157.551L58.2322 165.29C59.4659 166.002 61.4663 166.002 62.7001 165.29L76.1037 157.551C77.3374 156.839 77.3374 155.684 76.1037 154.972L62.7001 147.233C61.4663 146.521 59.466 146.521 58.2322 147.233Z" fill="#1F8DED"/>
<rect x="0.714858" width="40.4469" height="40.4469" rx="5.03067" transform="matrix(0.866025 -0.5 0.866025 0.5 24.8189 156.619)" stroke="url(#paint1_linear)" stroke-width="0.825447"/>
<rect x="0.471412" width="53.1097" height="53.1097" rx="5.71557" transform="matrix(0.866025 -0.5 0.866025 0.5 14.0632 156.497)" stroke="#305EED" stroke-width="0.54434"/>
</g>
<g filter="url(#filter2_d)">
<g clip-path="url(#clip0)">
<rect width="41.2723" height="41.2723" rx="5.4434" transform="matrix(0.866025 -0.5 0.866025 0.5 89.0596 119.117)" fill="url(#paint2_linear)"/>
<g clip-path="url(#clip1)">
<path d="M122.27 110.34L109.602 117.654C108.203 118.462 108.203 119.772 109.602 120.58L122.27 127.894C123.67 128.701 125.938 128.701 127.338 127.894L140.006 120.58C141.405 119.772 141.405 118.462 140.006 117.654L127.338 110.34C125.938 109.532 123.67 109.532 122.27 110.34Z" fill="#4F44E0"/>
<path d="M122.902 122.408C123.952 121.802 123.952 120.82 122.902 120.214C121.853 119.608 120.151 119.608 119.102 120.214C118.052 120.82 118.052 121.802 119.102 122.408C120.151 123.014 121.853 123.014 122.902 122.408Z" fill="white"/>
<path d="M127.337 119.117C128.037 118.713 128.037 118.058 127.337 117.654C126.637 117.25 125.503 117.25 124.803 117.654C124.104 118.058 124.104 118.713 124.803 119.117C125.503 119.521 126.637 119.521 127.337 119.117Z" fill="white"/>
<path d="M130.504 116.557C130.854 116.355 130.854 116.028 130.504 115.826C130.154 115.624 129.587 115.624 129.237 115.826C128.887 116.028 128.887 116.355 129.237 116.557C129.587 116.759 130.154 116.759 130.504 116.557Z" fill="white"/>
</g>
<rect x="0.714858" width="40.4469" height="40.4469" rx="5.03067" transform="matrix(0.866025 -0.5 0.866025 0.5 89.1553 119.474)" stroke="url(#paint3_linear)" stroke-width="0.825447"/>
</g>
<rect x="0.471412" width="53.1097" height="53.1097" rx="5.71557" transform="matrix(0.866025 -0.5 0.866025 0.5 78.4001 119.352)" stroke="#305EED" stroke-width="0.54434"/>
</g>
<g filter="url(#filter4_d)">
<rect width="41.2723" height="41.2723" rx="5.4434" transform="matrix(0.866025 -0.5 0.866025 0.5 153.396 81.9717)" fill="url(#paint4_linear)"/>
<path d="M180.204 76.8125L186.748 73.034C188.067 72.2724 190.211 72.2724 191.53 73.034L198.075 76.8125L189.139 81.9715L180.204 76.8125Z" fill="#45A4FF"/>
<path d="M180.204 87.1304L189.139 81.9713L198.075 87.1304L191.991 90.6431C190.419 91.5505 187.865 91.5538 186.288 90.6431L180.204 87.1304Z" fill="#2599FE"/>
<path d="M189.139 81.9717L198.075 76.8126L204.715 80.6462C205.983 81.3786 205.983 82.5648 204.715 83.2971L198.075 87.1307L189.139 81.9717Z" fill="#E7F2FC"/>
<path d="M174.192 80.2833L180.203 76.8126L189.139 81.9717L180.203 87.1307L174.192 83.66C172.581 82.7301 172.575 81.2166 174.192 80.2833Z" fill="#2599FE"/>
<rect x="0.714858" width="40.4469" height="40.4469" rx="5.03067" transform="matrix(0.866025 -0.5 0.866025 0.5 153.492 82.3291)" stroke="url(#paint5_linear)" stroke-width="0.825447"/>
<rect x="0.471412" width="53.1097" height="53.1097" rx="5.71557" transform="matrix(0.866025 -0.5 0.866025 0.5 142.737 82.2074)" stroke="#305EED" stroke-width="0.54434"/>
</g>
<g filter="url(#filter6_d)">
<rect width="41.2723" height="41.2723" rx="5.4434" transform="matrix(0.866025 -0.5 0.866025 0.5 217.733 44.8267)" fill="url(#paint6_linear)"/>
<path d="M252.017 35.3221L248.761 37.2018C248.573 37.3122 248.424 37.4432 248.324 37.5872C248.224 37.7313 248.175 37.8854 248.179 38.0408C248.183 38.1961 248.24 38.3495 248.348 38.492C248.455 38.6346 248.611 38.7634 248.805 38.8711L265.249 48.3649L269.928 45.6633C270.119 45.5531 270.27 45.422 270.372 45.2777C270.474 45.1333 270.524 44.9786 270.521 44.8226C270.518 44.6666 270.461 44.5124 270.353 44.3691C270.246 44.2259 270.09 44.0963 269.894 43.9882L254.918 35.3417C254.731 35.229 254.507 35.1389 254.259 35.0768C254.01 35.0146 253.743 34.9817 253.473 34.9798C253.203 34.978 252.935 35.0074 252.685 35.0661C252.435 35.1249 252.208 35.2119 252.017 35.3221Z" fill="#F57C00"/>
<path d="M248.274 45.6346L252.996 48.3611L248.765 50.8041C248.392 51.0191 248.184 51.3108 248.184 51.6153C248.185 51.9197 248.395 52.2118 248.769 52.4274L252.024 54.3065C252.4 54.5212 252.907 54.6428 253.436 54.6454C253.965 54.648 254.474 54.5314 254.855 54.3203L265.209 48.3423L252.999 41.2925L248.29 44.0114C248.104 44.1171 247.956 44.2429 247.855 44.3817C247.754 44.5204 247.701 44.6694 247.699 44.8202C247.698 44.9709 247.748 45.1204 247.846 45.2601C247.945 45.3999 248.09 45.5271 248.274 45.6346Z" fill="#FFC107"/>
<path d="M266.663 47.5485L269.929 45.6632C270.12 45.553 270.27 45.4219 270.372 45.2776C270.474 45.1332 270.525 44.9785 270.522 44.8225C270.518 44.6665 270.461 44.5123 270.354 44.369C270.246 44.2257 270.09 44.0962 269.895 43.9881L265.252 41.3077L252.999 41.292L265.249 48.3648L266.663 47.5485Z" fill="url(#paint7_linear)"/>
<path opacity="0.2" d="M248.4 44.0631L253.079 41.3614L252.959 41.2923L248.28 43.9939C248.09 44.1002 247.94 44.2274 247.837 44.368C247.733 44.5086 247.68 44.6597 247.68 44.8125C247.679 44.9653 247.731 45.1167 247.833 45.2578C247.935 45.399 248.085 45.527 248.274 45.6344L248.394 45.7036C248.207 45.5959 248.059 45.4679 247.959 45.3271C247.859 45.1863 247.808 45.0354 247.809 44.8833C247.811 44.7312 247.865 44.5809 247.968 44.4411C248.071 44.3012 248.221 44.1747 248.41 44.0688L248.4 44.0631ZM248.885 50.8731L253.116 48.4301L252.996 48.3609L248.765 50.8039C248.393 51.0188 248.184 51.3106 248.185 51.615C248.185 51.9195 248.396 52.2116 248.769 52.4271L248.889 52.4963C248.515 52.2807 248.305 51.9886 248.305 51.6842C248.304 51.3798 248.513 51.088 248.885 50.8731ZM252.018 35.3223L248.762 37.202C248.573 37.3124 248.425 37.4434 248.324 37.5875C248.224 37.7315 248.175 37.8856 248.179 38.041C248.183 38.1963 248.241 38.3497 248.348 38.4922C248.456 38.6348 248.611 38.7636 248.806 38.8713L248.926 38.9405C248.544 38.7203 248.33 38.422 248.329 38.1111C248.328 37.8002 248.541 37.5022 248.922 37.2827L252.167 35.4088C252.548 35.1893 253.064 35.0662 253.602 35.0666C254.141 35.0671 254.657 35.191 255.039 35.4111L254.919 35.3419C254.732 35.2292 254.507 35.1391 254.259 35.077C254.011 35.0148 253.744 34.9819 253.474 34.9801C253.203 34.9782 252.935 35.0076 252.685 35.0663C252.435 35.1251 252.208 35.2121 252.018 35.3223Z" fill="white"/>
<path opacity="0.2" d="M269.819 45.5885L254.785 54.2682C254.415 54.4822 253.912 54.6026 253.387 54.6033C252.862 54.6039 252.358 54.4847 251.984 54.2717L252.103 54.3409C252.477 54.5564 252.983 54.6778 253.51 54.6782C254.037 54.6786 254.543 54.5581 254.915 54.3431L269.949 45.6635C270.138 45.5525 270.287 45.4209 270.387 45.2761C270.488 45.1313 270.537 44.9764 270.532 44.8203C270.527 44.6643 270.468 44.5104 270.358 44.3675C270.249 44.2246 270.091 44.0957 269.895 43.9884L269.815 43.9422C270.19 44.1619 270.401 44.4578 270.402 44.7659C270.402 45.0739 270.193 45.3695 269.819 45.5885Z" fill="#BF360C"/>
<path d="M252.669 44.0386L250.843 45.093C250.737 45.1549 250.654 45.2284 250.597 45.3091C250.541 45.3899 250.513 45.4762 250.515 45.5632C250.517 45.6502 250.549 45.7361 250.609 45.8159C250.669 45.8957 250.756 45.9679 250.865 46.0281L253.228 47.392L250.592 48.9139C250.384 49.032 250.265 49.1923 250.26 49.3604C250.254 49.5286 250.364 49.6913 250.564 49.8135L253.205 51.3387L250.826 52.7123C250.62 52.8331 250.504 52.9962 250.505 53.166C250.507 53.3357 250.624 53.4983 250.832 53.6183L252.652 54.6695C252.863 54.7896 253.147 54.8575 253.443 54.8587C253.739 54.8599 254.025 54.7943 254.238 54.6759L262.671 49.8071C262.884 49.6845 263.004 49.5184 263.005 49.345C263.006 49.1717 262.888 49.0051 262.677 48.8817L254.3 44.0451C254.195 43.982 254.07 43.9316 253.931 43.8969C253.792 43.8622 253.642 43.8439 253.491 43.843C253.339 43.8421 253.189 43.8587 253.049 43.8917C252.909 43.9247 252.782 43.9736 252.675 44.0354L252.669 44.0386Z" fill="url(#paint8_linear)"/>
<rect x="0.714858" width="40.4469" height="40.4469" rx="5.03067" transform="matrix(0.866025 -0.5 0.866025 0.5 217.829 45.1841)" stroke="url(#paint9_linear)" stroke-width="0.825447"/>
<rect x="0.471412" width="53.1097" height="53.1097" rx="5.71557" transform="matrix(0.866025 -0.5 0.866025 0.5 207.074 45.0624)" stroke="#305EED" stroke-width="0.54434"/>
</g>
<g filter="url(#filter8_d)">
<rect width="41.2723" height="41.2723" rx="5.4434" transform="matrix(0.866025 -0.5 0.866025 0.5 87.7632 192.658)" fill="url(#paint10_linear)"/>
<path d="M128.381 186.213L118.753 191.772C118.549 191.89 118.549 192.08 118.753 192.198L119.814 192.81C120.018 192.928 120.348 192.928 120.551 192.81L130.179 187.252C130.383 187.134 130.383 186.944 130.179 186.826L129.118 186.213C128.914 186.096 128.584 186.096 128.381 186.213Z" fill="#52BD94"/>
<path d="M126.462 192.511L116.834 198.069C116.631 198.187 116.631 198.378 116.834 198.495L117.896 199.108C118.099 199.225 118.429 199.225 118.633 199.108L128.261 193.549C128.464 193.432 128.464 193.241 128.261 193.124L127.199 192.511C126.996 192.393 126.666 192.393 126.462 192.511Z" fill="#52BD94"/>
<path d="M114.445 195.68C114.668 195.605 114.745 195.44 114.619 195.31C112.248 192.657 113.77 189.398 118.129 187.792C118.338 187.713 118.403 187.553 118.276 187.429L117.477 186.629C117.411 186.564 117.303 186.518 117.177 186.501C117.051 186.483 116.918 186.497 116.809 186.537C111.279 188.557 109.366 192.691 112.416 196.034C112.477 196.098 112.581 196.146 112.703 196.166C112.826 196.185 112.957 196.176 113.067 196.139L114.445 195.68Z" fill="#52BD94"/>
<path d="M132.566 189.637C132.339 189.712 132.26 189.878 132.388 190.01C134.762 192.663 133.243 195.924 128.883 197.531C128.674 197.61 128.609 197.77 128.736 197.894L129.535 198.687C129.601 198.752 129.709 198.799 129.835 198.816C129.962 198.834 130.095 198.821 130.204 198.78C135.732 196.759 137.643 192.625 134.596 189.282C134.535 189.218 134.432 189.171 134.309 189.151C134.187 189.131 134.056 189.141 133.946 189.178L132.566 189.637Z" fill="#52BD94"/>
<path d="M123.51 186.746C124.055 186.432 124.055 185.922 123.51 185.608C122.966 185.293 122.083 185.293 121.539 185.608C120.994 185.922 120.994 186.432 121.539 186.746C122.083 187.06 122.966 187.06 123.51 186.746Z" fill="#52BD94"/>
<path d="M125.475 199.712C126.02 199.397 126.02 198.888 125.475 198.573C124.931 198.259 124.048 198.259 123.503 198.573C122.959 198.888 122.959 199.397 123.503 199.712C124.048 200.026 124.931 200.026 125.475 199.712Z" fill="#52BD94"/>
<rect x="0.714858" width="40.4469" height="40.4469" rx="5.03067" transform="matrix(0.866025 -0.5 0.866025 0.5 87.859 193.016)" stroke="url(#paint11_linear)" stroke-width="0.825447"/>
<rect x="0.471412" width="53.1097" height="53.1097" rx="5.71557" transform="matrix(0.866025 -0.5 0.866025 0.5 77.1037 192.894)" stroke="#305EED" stroke-width="0.54434"/>
</g>
<g filter="url(#filter10_d)">
<rect width="41.2723" height="41.2723" rx="5.4434" transform="matrix(0.866025 -0.5 0.866025 0.5 152.1 155.513)" fill="url(#paint12_linear)"/>
<path d="M190.266 162.561L179.645 160.918C179.077 160.83 178.634 160.574 178.482 160.246L175.636 154.114C175.484 153.787 175.646 153.438 176.06 153.198L183.839 148.707C184.254 148.47 184.857 148.378 185.421 148.465L196.042 150.108C196.609 150.196 197.052 150.452 197.204 150.78L200.05 156.912C200.202 157.239 200.041 157.588 199.626 157.828L191.85 162.318C191.434 162.556 190.831 162.649 190.265 162.561L190.266 162.561Z" fill="#4386FA"/>
<path opacity="0.1" d="M188.104 152.859C188.104 152.859 191.777 153.731 191.773 155.43C191.769 157.129 188.146 158.135 188.146 158.135L199.075 158.144L199.629 157.824C200.043 157.584 200.204 157.235 200.052 156.908L198.17 152.849L188.104 152.859Z" fill="black"/>
<path d="M194.684 155.185L192.298 155.183C192.272 155.183 192.246 155.185 192.22 155.189C192.074 154.52 191.492 153.908 190.591 153.477C189.691 153.047 188.54 152.832 187.373 152.874C186.207 152.917 185.112 153.215 184.313 153.707C183.514 154.199 183.069 154.849 183.071 155.524C183.072 156.199 183.519 156.848 184.321 157.339C185.122 157.83 186.218 158.126 187.385 158.167C188.551 158.208 189.701 157.991 190.6 157.559C191.499 157.128 192.079 156.515 192.222 155.845C192.246 155.849 192.27 155.851 192.295 155.851H194.684C194.754 155.851 194.821 155.835 194.871 155.806C194.92 155.778 194.948 155.739 194.948 155.699L194.948 155.337C194.948 155.297 194.92 155.258 194.871 155.229C194.821 155.201 194.754 155.185 194.684 155.185ZM190.106 156.936C189.623 157.215 189.007 157.405 188.337 157.482C187.667 157.559 186.972 157.519 186.34 157.368C185.709 157.217 185.169 156.962 184.79 156.634C184.41 156.306 184.207 155.92 184.207 155.525C184.207 155.131 184.41 154.745 184.79 154.417C185.169 154.089 185.709 153.833 186.34 153.682C186.972 153.531 187.667 153.492 188.337 153.569C189.007 153.646 189.623 153.836 190.106 154.115C190.754 154.489 191.118 154.996 191.118 155.525C191.118 156.054 190.754 156.562 190.106 156.936ZM185.971 156.352L186.981 156.935C187.411 157.003 187.865 157.006 188.297 156.941L186.618 155.971L185.971 156.352ZM186.356 155.163L189.084 156.738C189.34 156.637 189.561 156.509 189.737 156.362L187.008 154.786L186.356 155.163ZM190.089 155.138L189.491 154.792L188.839 155.169L190.095 155.894C190.208 155.645 190.205 155.384 190.087 155.136L190.089 155.138Z" fill="white"/>
<rect x="0.714858" width="40.4469" height="40.4469" rx="5.03067" transform="matrix(0.866025 -0.5 0.866025 0.5 152.196 155.871)" stroke="url(#paint13_linear)" stroke-width="0.825447"/>
<rect x="0.471412" width="53.1097" height="53.1097" rx="5.71557" transform="matrix(0.866025 -0.5 0.866025 0.5 141.441 155.749)" stroke="#305EED" stroke-width="0.54434"/>
</g>
<g filter="url(#filter12_d)">
<rect width="41.2723" height="41.2723" rx="5.4434" transform="matrix(0.866025 -0.5 0.866025 0.5 216.438 118.368)" fill="url(#paint14_linear)"/>
<path d="M247.346 125.469L242.995 116.096L251.117 114.839L255.469 124.212L247.346 125.469Z" fill="#FBBC04"/>
<path d="M264.393 115.585L248.151 113.074C245.931 112.679 243.578 113.397 242.894 114.678C242.21 115.959 243.455 117.318 245.673 117.713C245.77 117.73 245.869 117.745 245.968 117.759L262.211 120.271C264.445 120.635 266.769 119.884 267.399 118.594C268.03 117.304 266.73 115.963 264.495 115.599C264.459 115.593 264.423 115.587 264.387 115.582L264.393 115.585Z" fill="#4285F4"/>
<path d="M254.387 126.527C256.029 125.579 256.029 124.042 254.387 123.094C252.745 122.146 250.083 122.146 248.441 123.094C246.799 124.042 246.799 125.579 248.441 126.527C250.083 127.474 252.745 127.474 254.387 126.527Z" fill="#34A853"/>
<rect x="0.714858" width="40.4469" height="40.4469" rx="5.03067" transform="matrix(0.866025 -0.5 0.866025 0.5 216.533 118.726)" stroke="url(#paint15_linear)" stroke-width="0.825447"/>
<rect x="0.471412" width="53.1097" height="53.1097" rx="5.71557" transform="matrix(0.866025 -0.5 0.866025 0.5 205.778 118.604)" stroke="#305EED" stroke-width="0.54434"/>
</g>
<g filter="url(#filter14_d)">
<rect width="41.2723" height="41.2723" rx="5.4434" transform="matrix(0.866025 -0.5 0.866025 0.5 280.774 81.2231)" fill="url(#paint16_linear)"/>
<path d="M320.798 83.6952L329.059 80.6173L317.534 73.963L312.203 78.7326L320.798 83.6952Z" fill="#E56A68"/>
<path d="M317.534 73.9631L319.415 73.5541L329.768 79.5317L329.06 80.6174L317.534 73.9631ZM320.799 83.6953L315.467 88.4648L303.942 81.8105L312.203 78.7327L320.799 83.6953Z" fill="#CC5E5C"/>
<path d="M303.942 81.8102L303.233 82.896L313.587 88.8736L315.468 88.4645L303.942 81.8102Z" fill="#E86D6B"/>
<path d="M326.334 84.8974L327.751 82.726L313.914 74.7372L310.153 75.5552L317.045 80.4484L326.334 84.8974Z" fill="#CD5F5D"/>
<path d="M322.882 86.8909L319.12 87.709L305.283 79.7201L306.7 77.5487L315.176 81.5279L322.882 86.8909Z" fill="#E86D6B"/>
<path d="M306.7 77.5488L310.188 75.5352L326.336 84.8585L322.849 86.8722L306.7 77.5488Z" fill="#DE6664"/>
<rect x="0.714858" width="40.4469" height="40.4469" rx="5.03067" transform="matrix(0.866025 -0.5 0.866025 0.5 280.87 81.5806)" stroke="url(#paint17_linear)" stroke-width="0.825447"/>
<rect x="0.471412" width="53.1097" height="53.1097" rx="5.71557" transform="matrix(0.866025 -0.5 0.866025 0.5 270.114 81.4589)" stroke="#305EED" stroke-width="0.54434"/>
</g>
<g filter="url(#filter16_d)">
<rect width="41.2723" height="41.2723" rx="5.4434" transform="matrix(0.866025 -0.5 0.866025 0.5 150.804 229.055)" fill="url(#paint18_linear)"/>
<mask id="mask0" mask-type="alpha" maskUnits="userSpaceOnUse" x="171" y="220" width="31" height="18">
<path d="M171.407 230.598L189.22 220.314L201.686 227.512L183.874 237.796L171.407 230.598Z" fill="white"/>
</mask>
<g mask="url(#mask0)">
<path fill-rule="evenodd" clip-rule="evenodd" d="M180.177 227.105C180.153 226.427 180.582 225.751 181.466 225.24C182.643 224.561 184.325 224.347 185.845 224.594C186.115 224.186 186.532 223.815 187.068 223.507C189.189 222.282 192.644 222.29 194.784 223.526C196.924 224.761 196.939 226.756 194.817 227.981C194.558 228.13 194.279 228.261 193.985 228.374C194.362 229.147 194.025 230.012 192.973 230.619C192.548 230.865 192.031 231.052 191.462 231.165C192.121 232.109 191.789 233.23 190.465 233.995C189.085 234.791 187.037 234.966 185.362 234.52C185.203 234.66 185.02 234.791 184.814 234.909C183.172 235.858 180.495 235.85 178.836 234.891C177.723 234.249 177.351 233.343 177.72 232.53C177.098 232.389 176.533 232.174 176.061 231.901C174.152 230.799 174.154 229.011 176.066 227.908C177.188 227.26 178.718 226.992 180.177 227.105Z" fill="#00A1E0"/>
<path fill-rule="evenodd" clip-rule="evenodd" d="M180.451 232.844C180.469 232.867 180.49 232.862 180.499 232.863C180.556 232.858 180.608 232.848 180.662 232.84C180.94 232.791 181.14 232.708 181.319 232.604C181.684 232.393 181.717 232.15 181.404 231.969L181.398 231.966C181.109 231.799 180.747 231.886 180.431 231.981L180.39 231.993C180.15 232.064 179.943 232.124 179.823 232.056L179.817 232.052C179.715 231.993 179.731 231.897 179.873 231.815C180.03 231.724 180.269 231.647 180.456 231.616C180.456 231.616 180.514 231.608 180.493 231.581C180.482 231.566 180.379 231.437 180.367 231.423C180.355 231.408 180.328 231.406 180.308 231.409C180.087 231.44 179.841 231.517 179.644 231.63L179.608 231.652C179.273 231.845 179.242 232.096 179.531 232.263L179.538 232.267C179.843 232.443 180.2 232.352 180.51 232.252L180.561 232.237C180.79 232.166 180.989 232.106 181.112 232.177L181.119 232.181C181.232 232.246 181.217 232.351 181.058 232.443C180.997 232.479 180.799 232.592 180.452 232.637C180.412 232.643 180.386 232.645 180.354 232.65C180.337 232.652 180.3 232.661 180.323 232.687L180.451 232.844ZM185.801 229.755C185.819 229.778 185.84 229.773 185.849 229.774C185.907 229.769 185.958 229.759 186.012 229.751C186.29 229.701 186.49 229.619 186.669 229.515C187.035 229.304 187.068 229.061 186.755 228.88L186.748 228.877C186.459 228.71 186.098 228.797 185.782 228.892L185.74 228.904C185.5 228.975 185.293 229.035 185.174 228.967L185.168 228.963C185.065 228.904 185.082 228.808 185.223 228.726C185.381 228.635 185.62 228.558 185.806 228.527C185.806 228.527 185.865 228.519 185.843 228.492C185.832 228.477 185.729 228.348 185.718 228.334C185.705 228.319 185.679 228.317 185.659 228.32C185.438 228.351 185.191 228.428 184.994 228.541L184.958 228.563C184.624 228.756 184.592 229.007 184.882 229.174L184.888 229.178C185.193 229.354 185.55 229.263 185.86 229.163L185.911 229.148C186.141 229.077 186.339 229.017 186.463 229.088L186.469 229.092C186.582 229.157 186.568 229.262 186.409 229.354C186.347 229.39 186.149 229.503 185.803 229.548C185.762 229.554 185.737 229.557 185.704 229.561C185.694 229.562 185.651 229.573 185.673 229.598L185.801 229.755ZM188.84 227.292C189.017 227.395 189.124 227.494 189.157 227.588C189.19 227.682 189.141 227.765 189.005 227.844C188.87 227.922 188.725 227.95 188.565 227.931C188.402 227.911 188.23 227.849 188.053 227.747C187.877 227.645 187.77 227.546 187.737 227.453C187.703 227.36 187.753 227.277 187.889 227.199C188.024 227.121 188.169 227.092 188.33 227.11C188.492 227.129 188.664 227.19 188.84 227.292ZM188.818 226.927C188.686 226.886 188.55 226.861 188.414 226.854C188.277 226.847 188.138 226.858 188.001 226.887C187.865 226.915 187.733 226.966 187.609 227.038C187.485 227.109 187.397 227.185 187.347 227.264C187.298 227.343 187.279 227.423 187.291 227.502C187.304 227.581 187.346 227.66 187.417 227.736C187.488 227.811 187.583 227.883 187.7 227.951C187.817 228.018 187.943 228.073 188.073 228.114C188.204 228.155 188.34 228.18 188.477 228.187C188.614 228.194 188.752 228.183 188.888 228.154C189.024 228.124 189.155 228.073 189.279 228.002C189.403 227.93 189.491 227.854 189.542 227.776C189.593 227.698 189.612 227.618 189.6 227.539C189.587 227.46 189.545 227.381 189.473 227.305C189.402 227.23 189.307 227.158 189.19 227.09C189.074 227.023 188.948 226.968 188.818 226.927ZM192.163 225.966C192.123 225.954 192.106 225.978 192.106 225.978C192.078 226.013 192.047 226.049 192.004 226.083C191.961 226.117 191.909 226.152 191.849 226.186C191.702 226.271 191.54 226.314 191.369 226.312C191.198 226.311 191.011 226.257 190.821 226.147C190.649 226.047 190.561 225.948 190.537 225.848C190.513 225.748 190.575 225.653 190.726 225.566C190.852 225.494 190.963 225.447 191.095 225.407C191.095 225.407 191.129 225.399 191.109 225.374C191.062 225.316 191.029 225.274 190.976 225.21C190.961 225.192 190.931 225.198 190.921 225.201C190.866 225.215 190.747 225.254 190.666 225.288C190.59 225.321 190.508 225.362 190.422 225.412C190.294 225.486 190.201 225.564 190.147 225.646C190.093 225.727 190.07 225.81 190.079 225.89C190.089 225.971 190.128 226.052 190.196 226.129C190.264 226.206 190.358 226.28 190.475 226.347C190.728 226.494 191 226.572 191.285 226.581C191.57 226.59 191.849 226.517 192.114 226.364C192.27 226.274 192.399 226.163 192.469 226.07C192.469 226.07 192.48 226.051 192.445 226.042L192.163 225.966ZM192.015 225.264C191.931 225.199 191.877 225.136 191.855 225.075C191.822 224.983 191.865 224.896 192 224.818C192.136 224.74 192.279 224.719 192.439 224.738C192.546 224.75 192.649 224.788 192.752 224.839L192.015 225.264ZM192.826 224.546C192.702 224.505 192.54 224.485 192.452 224.483C192.314 224.48 192.199 224.489 192.107 224.51C191.973 224.541 191.852 224.587 191.751 224.646C191.622 224.72 191.527 224.801 191.476 224.881C191.426 224.962 191.407 225.043 191.42 225.123C191.433 225.203 191.476 225.282 191.548 225.359C191.62 225.435 191.716 225.508 191.833 225.575C191.952 225.644 192.078 225.699 192.209 225.739C192.341 225.779 192.48 225.8 192.621 225.804C192.763 225.807 192.908 225.79 193.053 225.753C193.197 225.716 193.344 225.655 193.488 225.572C193.786 225.399 193.876 225.27 193.905 225.212C193.91 225.201 193.91 225.189 193.865 225.178L193.608 225.108C193.569 225.098 193.551 225.12 193.551 225.12C193.505 225.179 193.449 225.268 193.204 225.409C193.043 225.501 192.877 225.542 192.729 225.543C192.577 225.543 192.428 225.501 192.265 225.414L193.298 224.818C193.298 224.818 193.325 224.802 193.302 224.785C193.292 224.778 193.125 224.642 192.826 224.546ZM183.744 230.039C183.661 229.974 183.606 229.911 183.584 229.85C183.551 229.758 183.594 229.671 183.73 229.593C183.865 229.515 184.008 229.494 184.169 229.513C184.275 229.525 184.379 229.563 184.481 229.614L183.744 230.039ZM184.556 229.321C184.432 229.28 184.269 229.26 184.182 229.258C184.044 229.255 183.929 229.264 183.836 229.285C183.703 229.316 183.582 229.362 183.481 229.421C183.352 229.495 183.256 229.576 183.206 229.656C183.155 229.737 183.136 229.818 183.149 229.898C183.163 229.978 183.206 230.057 183.278 230.134C183.349 230.21 183.445 230.283 183.562 230.35C183.681 230.419 183.808 230.474 183.939 230.513C184.071 230.554 184.209 230.575 184.351 230.579C184.492 230.582 184.638 230.565 184.782 230.528C184.927 230.491 185.074 230.431 185.218 230.347C185.515 230.174 185.606 230.045 185.635 229.987C185.64 229.976 185.64 229.964 185.594 229.953L185.338 229.883C185.299 229.873 185.281 229.895 185.281 229.895C185.234 229.954 185.179 230.043 184.933 230.184C184.773 230.276 184.607 230.317 184.458 230.318C184.306 230.318 184.158 230.276 183.995 230.189L185.028 229.593C185.028 229.593 185.055 229.577 185.031 229.56C185.021 229.553 184.855 229.417 184.556 229.321ZM182.189 231.718C182.116 231.723 182.102 231.721 182.068 231.717C182.016 231.711 181.96 231.691 181.902 231.657C181.812 231.605 181.777 231.55 181.795 231.489C181.794 231.489 181.806 231.393 182.02 231.273C182.115 231.22 182.217 231.17 182.324 231.125L182.793 231.396L182.793 231.396C182.793 231.396 182.69 231.488 182.551 231.578C182.354 231.707 182.188 231.718 182.189 231.718ZM181.874 231.062C181.829 231.084 181.773 231.115 181.708 231.152C181.619 231.203 181.545 231.259 181.486 231.318C181.427 231.377 181.388 231.438 181.371 231.5C181.353 231.562 181.36 231.625 181.391 231.685C181.423 231.745 181.484 231.802 181.574 231.854C181.665 231.907 181.761 231.944 181.857 231.963C181.952 231.982 182.054 231.988 182.153 231.979C182.252 231.97 182.354 231.946 182.455 231.91C182.554 231.874 182.656 231.826 182.756 231.768C182.862 231.707 182.959 231.641 183.044 231.572C183.116 231.513 183.186 231.453 183.253 231.392C183.28 231.368 183.307 231.34 183.307 231.34C183.326 231.322 183.297 231.307 183.297 231.307L182.352 230.762C182.145 230.642 181.936 230.586 181.732 230.594C181.529 230.601 181.321 230.666 181.115 230.785C181.038 230.83 180.923 230.908 180.864 230.959C180.864 230.959 180.682 231.115 180.662 231.21C180.662 231.21 180.654 231.23 180.694 231.24L180.963 231.311C180.998 231.32 181.014 231.301 181.014 231.301C181.014 231.301 181.019 231.295 181.022 231.286C181.113 231.109 181.367 230.966 181.367 230.966C181.479 230.901 181.587 230.865 181.689 230.857C181.789 230.849 181.883 230.871 182.02 230.95L182.064 230.975C181.963 231.019 181.874 231.062 181.874 231.062ZM189.671 225.946C189.669 225.943 189.666 225.94 189.662 225.938C189.659 225.936 189.654 225.934 189.649 225.933C189.644 225.932 189.639 225.931 189.634 225.931C189.628 225.931 189.623 225.932 189.618 225.933C189.594 225.94 189.488 225.98 189.416 226.016C189.278 226.086 189.228 226.141 189.192 226.195C189.157 226.248 189.133 226.316 189.147 226.37L189.02 226.297C189.003 226.287 188.977 226.286 188.96 226.296L188.695 226.449C188.678 226.459 188.679 226.474 188.697 226.484L190.237 227.374C190.245 227.378 190.257 227.381 190.268 227.381C190.28 227.381 190.291 227.378 190.3 227.374L190.571 227.217C190.579 227.212 190.584 227.206 190.584 227.199C190.584 227.192 190.579 227.186 190.571 227.181L189.801 226.736C189.698 226.677 189.607 226.611 189.564 226.56C189.523 226.51 189.502 226.463 189.503 226.42C189.503 226.379 189.521 226.339 189.554 226.302C189.586 226.269 189.626 226.238 189.673 226.211C189.727 226.18 189.8 226.154 189.8 226.154C189.822 226.143 189.821 226.13 189.81 226.116C189.781 226.078 189.689 225.968 189.671 225.946Z" fill="#FFFFFE"/>
<path fill-rule="evenodd" clip-rule="evenodd" d="M186.41 227.004C186.367 227.018 186.325 227.033 186.284 227.049C186.23 227.071 186.179 227.097 186.133 227.124C185.946 227.232 185.852 227.347 185.852 227.467C185.853 227.586 185.941 227.717 186.113 227.857L186.171 227.905L185.936 228.04C185.936 228.04 185.906 228.056 185.932 228.078L186.108 228.224C186.126 228.237 186.147 228.24 186.175 228.224L186.403 228.092L187.464 228.972C187.55 229.042 187.615 229.104 187.657 229.154C187.698 229.204 187.724 229.245 187.731 229.281C187.739 229.316 187.739 229.344 187.71 229.378C187.686 229.405 187.651 229.432 187.606 229.458C187.581 229.472 187.543 229.489 187.514 229.5C187.485 229.512 187.466 229.516 187.44 229.522C187.44 229.522 187.403 229.532 187.419 229.553C187.433 229.571 187.539 229.702 187.553 229.719C187.566 229.735 187.592 229.738 187.61 229.733C187.651 229.722 187.681 229.713 187.732 229.695C187.803 229.669 187.852 229.642 187.897 229.616C187.992 229.561 188.066 229.503 188.112 229.447C188.158 229.39 188.175 229.327 188.169 229.259C188.163 229.186 188.131 229.124 188.072 229.049C188.014 228.974 187.928 228.889 187.816 228.796L186.733 227.902L187.073 227.705C187.073 227.705 187.102 227.689 187.077 227.668L186.901 227.522C186.883 227.508 186.862 227.506 186.834 227.522L186.504 227.713C186.498 227.707 186.397 227.632 186.326 227.547C186.295 227.51 186.288 227.471 186.288 227.441C186.287 227.413 186.298 227.385 186.32 227.36C186.345 227.333 186.377 227.308 186.415 227.287C186.446 227.269 186.481 227.254 186.509 227.243C186.548 227.228 186.564 227.223 186.574 227.22C186.618 227.206 186.613 227.198 186.603 227.185L186.465 227.014C186.45 226.996 186.421 227.002 186.41 227.004ZM184.03 230.957C184.048 230.967 184.049 230.982 184.032 230.992L183.758 231.151C183.741 231.161 183.715 231.16 183.697 231.15L181.493 229.877C181.476 229.867 181.474 229.852 181.492 229.842L181.766 229.684C181.783 229.674 181.809 229.675 181.826 229.685L184.03 230.957Z" fill="#FFFFFE"/>
</g>
<rect x="0.714858" width="40.4469" height="40.4469" rx="5.03067" transform="matrix(0.866025 -0.5 0.866025 0.5 150.899 229.412)" stroke="url(#paint19_linear)" stroke-width="0.825447"/>
<rect x="0.471412" width="53.1097" height="53.1097" rx="5.71557" transform="matrix(0.866025 -0.5 0.866025 0.5 140.144 229.29)" stroke="#305EED" stroke-width="0.54434"/>
</g>
<g filter="url(#filter18_d)">
<rect width="41.2723" height="41.2723" rx="5.4434" transform="matrix(0.866025 -0.5 0.866025 0.5 215.141 191.91)" fill="url(#paint20_linear)"/>
<path d="M257.901 187.342C256.823 187.18 255.691 187.182 254.615 187.348C253.791 187.474 253.06 187.674 252.369 187.977L250.191 186.72C250.364 186.479 250.408 186.214 250.317 185.959C250.225 185.704 250.004 185.47 249.68 185.288C249.466 185.163 249.211 185.064 248.929 184.996C248.648 184.928 248.346 184.893 248.042 184.892C247.737 184.892 247.435 184.926 247.153 184.993C246.871 185.06 246.615 185.159 246.4 185.283C245.963 185.536 245.717 185.877 245.716 186.234C245.715 186.59 245.959 186.932 246.394 187.185C247.062 187.571 247.987 187.696 248.854 187.492L251.019 188.743C250.587 189.076 250.251 189.448 250.024 189.843L239.781 190.66C239.668 190.548 239.544 190.435 239.376 190.338C238.37 189.757 236.739 189.757 235.733 190.338C234.727 190.919 234.728 191.86 235.734 192.441C236.741 193.022 238.371 193.022 239.378 192.441C239.721 192.243 239.938 192.001 240.047 191.747L240.718 191.694L249.717 190.851C249.694 191.158 249.725 191.473 249.844 191.78C250.088 192.402 250.56 192.969 251.353 193.427L251.517 193.522C252.057 193.831 252.687 194.083 253.379 194.266C253.968 194.424 254.593 194.517 255.235 194.555L255.239 196.564C254.534 196.75 254.084 197.156 254.084 197.605C254.083 197.91 254.293 198.203 254.668 198.417C255.043 198.632 255.545 198.754 256.076 198.754C256.608 198.754 257.111 198.633 257.485 198.417C257.858 198.202 258.07 197.91 258.067 197.604C258.064 197.299 257.858 197.007 257.483 196.792C257.34 196.709 257.175 196.64 256.995 196.586L256.995 194.514C257.411 194.47 257.82 194.399 258.229 194.305C259.076 194.114 259.845 193.825 260.489 193.454L260.611 193.383C261.364 192.949 261.897 192.436 262.203 191.843C262.52 191.235 262.554 190.589 262.299 189.971C262.05 189.344 261.539 188.784 260.725 188.314L260.684 188.291C259.883 187.829 258.96 187.51 257.897 187.343L257.901 187.342ZM259.476 190.781C259.53 191.375 259.304 191.891 258.671 192.257L258.551 192.326C258.19 192.535 257.736 192.682 257.208 192.775C256.633 192.88 256.021 192.897 255.431 192.823C254.826 192.764 254.302 192.619 253.892 192.382L253.769 192.311C253.366 192.078 253.06 191.812 252.894 191.491C252.693 191.134 252.683 190.802 252.813 190.444C252.944 190.087 253.213 189.797 253.652 189.543L253.693 189.52C254.088 189.291 254.544 189.118 255.08 189.018C255.628 188.92 256.21 188.904 256.772 188.972C257.332 189.041 257.856 189.187 258.3 189.396L258.565 189.538C259.12 189.858 259.421 190.278 259.463 190.792L259.476 190.781Z" fill="#F8761F"/>
<rect x="0.714858" width="40.4469" height="40.4469" rx="5.03067" transform="matrix(0.866025 -0.5 0.866025 0.5 215.236 192.267)" stroke="url(#paint21_linear)" stroke-width="0.825447"/>
<rect x="0.471412" width="53.1097" height="53.1097" rx="5.71557" transform="matrix(0.866025 -0.5 0.866025 0.5 204.481 192.145)" stroke="#305EED" stroke-width="0.54434"/>
</g>
<g filter="url(#filter20_d)">
<g clip-path="url(#clip2)">
<rect width="41.2723" height="41.2723" rx="5.4434" transform="matrix(0.866025 -0.5 0.866025 0.5 279.478 154.765)" fill="url(#paint22_linear)"/>
<path d="M314.228 145.02L298.342 154.191C297.793 154.508 297.794 155.021 298.342 155.338L314.228 164.51C314.776 164.826 315.664 164.826 316.213 164.51L324.767 159.571L317.857 155.581L315.535 156.922L312.83 155.36L315.151 154.019L313.165 152.873C310.857 151.54 311.009 150 313.074 148.808C313.766 148.406 314.497 148.025 315.26 147.668L317.663 149.055L316.238 149.878C315.118 150.524 315.434 150.959 316.215 151.41L317.938 152.405L320.616 150.859L322.974 152.621L320.643 153.967L327.558 157.96L332.099 155.338C332.648 155.021 332.647 154.508 332.099 154.191L316.213 145.02C315.665 144.703 314.777 144.703 314.228 145.02Z" fill="#4267B2"/>
</g>
<rect x="0.714858" width="40.4469" height="40.4469" rx="5.03067" transform="matrix(0.866025 -0.5 0.866025 0.5 279.573 155.122)" stroke="url(#paint23_linear)" stroke-width="0.825447"/>
<rect x="0.471412" width="53.1097" height="53.1097" rx="5.71557" transform="matrix(0.866025 -0.5 0.866025 0.5 268.818 155)" stroke="#305EED" stroke-width="0.54434"/>
</g>
<g filter="url(#filter22_d)">
<rect width="41.2723" height="41.2723" rx="5.4434" transform="matrix(0.866025 -0.5 0.866025 0.5 343.814 117.62)" fill="url(#paint24_linear)"/>
<path d="M379.978 118.857C378.746 117.977 378.502 116.823 379.526 116.232C380.549 115.641 382.223 115.97 383.455 116.85C384.686 117.729 384.979 118.874 384.021 119.427C383.062 119.981 381.417 119.932 379.978 118.857ZM387.087 121.967C384.816 123.282 381.66 123.951 378.482 123.79C380.15 123.29 381.211 122.27 381.243 121.013C381.244 120.879 381.229 120.745 381.199 120.612C382.776 120.941 384.296 120.693 385.27 120.13C386.928 119.173 386.643 117.396 384.722 116.099C382.802 114.803 379.966 114.535 378.39 115.445C377.81 115.771 377.397 116.182 377.198 116.633L374.881 114.733C374.706 114.575 374.418 114.471 374.094 114.447C373.724 114.402 373.498 114.421 373.303 114.534L371.028 115.847C370.901 115.929 370.892 116.051 371.009 116.136C371.212 116.323 371.436 116.503 371.68 116.674C371.84 116.785 372.034 116.747 372.18 116.662L373.837 115.705C375.179 116.78 377.768 118.875 378.406 119.413C378.996 119.93 379.314 120.537 379.321 121.16C379.308 122.203 377.843 123.29 375.875 123.298C375.181 123.291 373.78 123.101 371.921 122.028C367.763 119.627 367.81 115.707 372.027 113.272C376.245 110.838 383.035 110.81 387.193 113.211C391.352 115.612 391.305 119.532 387.087 121.967ZM370.746 112.532C365.811 115.382 365.755 119.969 370.622 122.779C375.488 125.588 383.434 125.556 388.369 122.707C393.304 119.858 393.36 115.27 388.493 112.461C386.156 111.111 382.973 110.361 379.645 110.374C376.317 110.388 373.116 111.164 370.746 112.532Z" fill="#212124"/>
<rect x="0.714858" width="40.4469" height="40.4469" rx="5.03067" transform="matrix(0.866025 -0.5 0.866025 0.5 343.91 117.977)" stroke="url(#paint25_linear)" stroke-width="0.825447"/>
<rect x="0.471412" width="53.1097" height="53.1097" rx="5.71557" transform="matrix(0.866025 -0.5 0.866025 0.5 333.155 117.855)" stroke="#305EED" stroke-width="0.54434"/>
</g>
<g filter="url(#filter24_d)">
<rect width="41.2723" height="41.2723" rx="5.4434" transform="matrix(0.866025 -0.5 0.866025 0.5 213.844 265.451)" fill="url(#paint26_linear)"/>
<path d="M246.923 264.473L246.923 267.925C246.497 267.852 246.085 267.76 245.688 267.654C245.182 267.519 244.705 267.363 244.256 267.179L244.255 263.72C244.704 263.536 245.18 263.377 245.686 263.242C245.868 263.72 246.31 264.157 246.923 264.473ZM252.247 264.473C252.86 264.157 253.301 263.731 253.484 263.247C253.995 263.378 254.471 263.53 254.916 263.718L254.918 267.176C254.469 267.36 253.987 267.519 253.487 267.652C253.089 267.757 252.673 267.847 252.247 267.92C252.217 265.681 252.217 264.532 252.247 264.473ZM257.664 265.45C257.305 265.865 256.832 266.228 256.247 266.523C256.229 265.086 256.229 264.369 256.247 264.373C256.815 264.682 258.024 265.036 257.664 265.45ZM241.505 265.45C241.838 265.066 242.347 264.68 242.927 264.368L242.923 266.528C242.34 266.228 241.841 265.871 241.505 265.45ZM250.914 264.929L250.918 268.092C250.478 268.13 250.034 268.149 249.585 268.149C249.131 268.146 248.687 268.127 248.251 268.092L248.251 264.932C248.673 265.018 249.117 265.064 249.585 265.064C250.053 265.064 250.497 265.013 250.914 264.929Z" fill="#080738"/>
<path d="M240.257 262.758C240.257 259.787 244.434 257.375 249.585 257.372C254.741 257.372 258.914 259.781 258.914 262.758C258.914 263.741 258.456 264.659 257.665 265.451C257.272 265.057 256.795 264.695 256.247 264.373L256.247 266.523C255.84 266.764 255.396 266.982 254.914 267.174L254.914 263.722C254.465 263.539 253.983 263.379 253.482 263.247C253.543 263.087 253.576 262.923 253.576 262.755C253.571 261.483 251.784 260.451 249.585 260.451C247.382 260.454 245.595 261.486 245.595 262.755C245.599 262.925 245.627 263.087 245.688 263.247C245.183 263.382 244.706 263.539 244.257 263.722L244.257 267.174C243.775 266.982 243.33 266.764 242.923 266.523L242.923 264.373C242.376 264.695 241.899 265.057 241.506 265.451C240.71 264.657 240.257 263.741 240.257 262.758ZM248.252 264.932L248.252 265.975L248.252 268.093C247.794 268.055 247.349 267.998 246.919 267.922L246.919 266.431L246.919 264.476C247.307 264.673 247.756 264.83 248.252 264.932ZM252.247 264.473L252.247 266.429L252.247 267.92C251.817 267.995 251.373 268.052 250.914 268.09L250.914 265.972L250.914 264.93C251.415 264.83 251.864 264.673 252.247 264.473Z" fill="#0037FF"/>
<path d="M241.506 265.451C241.899 265.845 242.376 266.207 242.919 266.526L242.919 271.912C241.272 270.939 240.257 269.613 240.257 268.144C240.257 267.161 240.715 266.242 241.506 265.451ZM256.248 271.914L256.247 266.523C256.795 266.202 257.272 265.845 257.665 265.451C258.461 266.245 258.914 267.161 258.914 268.144C258.914 269.613 257.894 270.942 256.248 271.914ZM245.595 268.146C245.595 268.827 246.11 269.438 246.919 269.862L246.919 273.308C245.96 273.143 245.062 272.89 244.257 272.565L244.257 267.18C244.706 267.363 245.183 267.52 245.689 267.655C245.628 267.814 245.595 267.979 245.595 268.146ZM253.483 267.655C253.988 267.52 254.47 267.36 254.914 267.18L254.914 272.565C254.11 272.89 253.211 273.143 252.252 273.308L252.252 269.862C253.066 269.44 253.576 268.827 253.576 268.146C253.576 267.979 253.544 267.814 253.483 267.655ZM249.586 270.45C250.049 270.448 250.503 270.402 250.919 270.318L250.919 273.478C250.479 273.516 250.035 273.535 249.586 273.535C249.132 273.532 248.687 273.514 248.252 273.478L248.252 270.318C248.673 270.405 249.118 270.45 249.586 270.45Z" fill="#0037FF"/>
<rect x="0.714858" width="40.4469" height="40.4469" rx="5.03067" transform="matrix(0.866025 -0.5 0.866025 0.5 213.94 265.809)" stroke="url(#paint27_linear)" stroke-width="0.825447"/>
<rect x="0.471412" width="53.1097" height="53.1097" rx="5.71557" transform="matrix(0.866025 -0.5 0.866025 0.5 203.185 265.687)" stroke="#305EED" stroke-width="0.54434"/>
</g>
<g filter="url(#filter26_d)">
<rect width="41.2723" height="41.2723" rx="5.4434" transform="matrix(0.866025 -0.5 0.866025 0.5 278.181 228.306)" fill="url(#paint28_linear)"/>
<path d="M311.199 234.036L303.997 229.878L306.72 224.147L313.923 228.306L316.647 222.575L323.849 226.733L321.126 232.464L311.199 234.036L311.199 234.036ZM304.66 223.836L301.937 229.567L301.61 230.256L310.546 235.416L311.74 235.227L321.666 233.654L322.86 233.466L323.187 232.776L325.91 227.045L326.237 226.355L317.301 221.196L316.107 221.385L306.181 222.957L304.988 223.147L304.66 223.836Z" fill="url(#paint29_linear)"/>
<rect x="0.714858" width="40.4469" height="40.4469" rx="5.03067" transform="matrix(0.866025 -0.5 0.866025 0.5 278.277 228.664)" stroke="url(#paint30_linear)" stroke-width="0.825447"/>
<rect x="0.471412" width="53.1097" height="53.1097" rx="5.71557" transform="matrix(0.866025 -0.5 0.866025 0.5 267.522 228.542)" stroke="#305EED" stroke-width="0.54434"/>
</g>
<g filter="url(#filter28_d)">
<rect width="41.2723" height="41.2723" rx="5.4434" transform="matrix(0.866025 -0.5 0.866025 0.5 342.518 191.161)" fill="url(#paint31_linear)"/>
<path d="M381.775 184.992C381.944 185.076 382.1 185.166 382.255 185.256C387.025 188.009 388.835 193.31 382.099 197.199C380.024 198.398 377.504 199.169 374.854 199.512C375.181 199.361 375.477 199.204 375.783 199.027C377.496 198.038 378.502 196.799 378.79 195.511C377.146 196.422 374.757 196.601 372.862 196.045C373.122 195.933 373.372 195.815 373.61 195.677C373.938 195.488 374.223 195.271 374.452 195.049C372.437 195.826 369.728 195.713 367.974 194.701L367.929 194.675C368.685 194.548 369.419 194.317 370.042 193.984C368.409 194.18 366.656 193.915 365.404 193.192C364.735 192.805 364.301 192.346 364.083 191.854C368.074 192.076 372.216 191.337 375.412 189.672C375.086 189.55 374.773 189.409 374.494 189.248C372.505 188.1 372.519 186.222 374.549 185.05C375.604 184.441 376.991 184.142 378.365 184.162C379.036 183.594 379.527 182.962 379.818 182.317C380.383 182.958 380.508 183.699 380.196 184.395C380.854 183.924 381.368 183.395 381.746 182.855C381.962 183.555 381.976 184.282 381.775 184.992Z" fill="#1DA1F2"/>
<rect x="0.714858" width="40.4469" height="40.4469" rx="5.03067" transform="matrix(0.866025 -0.5 0.866025 0.5 342.614 191.519)" stroke="url(#paint32_linear)" stroke-width="0.825447"/>
<rect x="0.471412" width="53.1097" height="53.1097" rx="5.71557" transform="matrix(0.866025 -0.5 0.866025 0.5 331.859 191.397)" stroke="#305EED" stroke-width="0.54434"/>
</g>
</g>
<defs>
<filter id="filter0_d" x="9.64528" y="125.08" width="101.641" height="62.3635" filterUnits="userSpaceOnUse" color-interpolation-filters="sRGB">
<feFlood flood-opacity="0" result="BackgroundImageFix"/>
<feColorMatrix in="SourceAlpha" type="matrix" values="0 0 0 0 0 0 0 0 0 0 0 0 0 0 0 0 0 0 127 0"/>
<feOffset/>
<feGaussianBlur stdDeviation="2.17736"/>
<feColorMatrix type="matrix" values="0 0 0 0 0.188235 0 0 0 0 0.368627 0 0 0 0 0.929412 0 0 0 1 0"/>
<feBlend mode="normal" in2="BackgroundImageFix" result="effect1_dropShadow"/>
<feBlend mode="normal" in="SourceGraphic" in2="effect1_dropShadow" result="shape"/>
</filter>
<filter id="filter1_d" x="-2.49385" y="110.586" width="125.92" height="95.7063" filterUnits="userSpaceOnUse" color-interpolation-filters="sRGB">
<feFlood flood-opacity="0" result="BackgroundImageFix"/>
<feColorMatrix in="SourceAlpha" type="matrix" values="0 0 0 0 0 0 0 0 0 0 0 0 0 0 0 0 0 0 127 0"/>
<feOffset dy="2.17736"/>
<feGaussianBlur stdDeviation="13.6085"/>
<feColorMatrix type="matrix" values="0 0 0 0 0.188235 0 0 0 0 0.368627 0 0 0 0 0.929412 0 0 0 0.5 0"/>
<feBlend mode="normal" in2="BackgroundImageFix" result="effect1_dropShadow"/>
<feBlend mode="normal" in="SourceGraphic" in2="effect1_dropShadow" result="shape"/>
</filter>
<filter id="filter2_d" x="73.9822" y="87.9348" width="101.641" height="62.3635" filterUnits="userSpaceOnUse" color-interpolation-filters="sRGB">
<feFlood flood-opacity="0" result="BackgroundImageFix"/>
<feColorMatrix in="SourceAlpha" type="matrix" values="0 0 0 0 0 0 0 0 0 0 0 0 0 0 0 0 0 0 127 0"/>
<feOffset/>
<feGaussianBlur stdDeviation="2.17736"/>
<feColorMatrix type="matrix" values="0 0 0 0 0.188235 0 0 0 0 0.368627 0 0 0 0 0.929412 0 0 0 1 0"/>
<feBlend mode="normal" in2="BackgroundImageFix" result="effect1_dropShadow"/>
<feBlend mode="normal" in="SourceGraphic" in2="effect1_dropShadow" result="shape"/>
</filter>
<filter id="filter3_d" x="61.8426" y="73.4408" width="125.92" height="95.7063" filterUnits="userSpaceOnUse" color-interpolation-filters="sRGB">
<feFlood flood-opacity="0" result="BackgroundImageFix"/>
<feColorMatrix in="SourceAlpha" type="matrix" values="0 0 0 0 0 0 0 0 0 0 0 0 0 0 0 0 0 0 127 0"/>
<feOffset dy="2.17736"/>
<feGaussianBlur stdDeviation="13.6085"/>
<feColorMatrix type="matrix" values="0 0 0 0 0.188235 0 0 0 0 0.368627 0 0 0 0 0.929412 0 0 0 0.5 0"/>
<feBlend mode="normal" in2="BackgroundImageFix" result="effect1_dropShadow"/>
<feBlend mode="normal" in="SourceGraphic" in2="effect1_dropShadow" result="shape"/>
</filter>
<filter id="filter4_d" x="138.319" y="50.7898" width="101.641" height="62.3635" filterUnits="userSpaceOnUse" color-interpolation-filters="sRGB">
<feFlood flood-opacity="0" result="BackgroundImageFix"/>
<feColorMatrix in="SourceAlpha" type="matrix" values="0 0 0 0 0 0 0 0 0 0 0 0 0 0 0 0 0 0 127 0"/>
<feOffset/>
<feGaussianBlur stdDeviation="2.17736"/>
<feColorMatrix type="matrix" values="0 0 0 0 0.188235 0 0 0 0 0.368627 0 0 0 0 0.929412 0 0 0 1 0"/>
<feBlend mode="normal" in2="BackgroundImageFix" result="effect1_dropShadow"/>
<feBlend mode="normal" in="SourceGraphic" in2="effect1_dropShadow" result="shape"/>
</filter>
<filter id="filter5_d" x="126.179" y="36.2958" width="125.92" height="95.7063" filterUnits="userSpaceOnUse" color-interpolation-filters="sRGB">
<feFlood flood-opacity="0" result="BackgroundImageFix"/>
<feColorMatrix in="SourceAlpha" type="matrix" values="0 0 0 0 0 0 0 0 0 0 0 0 0 0 0 0 0 0 127 0"/>
<feOffset dy="2.17736"/>
<feGaussianBlur stdDeviation="13.6085"/>
<feColorMatrix type="matrix" values="0 0 0 0 0.188235 0 0 0 0 0.368627 0 0 0 0 0.929412 0 0 0 0.5 0"/>
<feBlend mode="normal" in2="BackgroundImageFix" result="effect1_dropShadow"/>
<feBlend mode="normal" in="SourceGraphic" in2="effect1_dropShadow" result="shape"/>
</filter>
<filter id="filter6_d" x="202.656" y="13.6448" width="101.641" height="62.3635" filterUnits="userSpaceOnUse" color-interpolation-filters="sRGB">
<feFlood flood-opacity="0" result="BackgroundImageFix"/>
<feColorMatrix in="SourceAlpha" type="matrix" values="0 0 0 0 0 0 0 0 0 0 0 0 0 0 0 0 0 0 127 0"/>
<feOffset/>
<feGaussianBlur stdDeviation="2.17736"/>
<feColorMatrix type="matrix" values="0 0 0 0 0.188235 0 0 0 0 0.368627 0 0 0 0 0.929412 0 0 0 1 0"/>
<feBlend mode="normal" in2="BackgroundImageFix" result="effect1_dropShadow"/>
<feBlend mode="normal" in="SourceGraphic" in2="effect1_dropShadow" result="shape"/>
</filter>
<filter id="filter7_d" x="190.516" y="-0.849202" width="125.92" height="95.7063" filterUnits="userSpaceOnUse" color-interpolation-filters="sRGB">
<feFlood flood-opacity="0" result="BackgroundImageFix"/>
<feColorMatrix in="SourceAlpha" type="matrix" values="0 0 0 0 0 0 0 0 0 0 0 0 0 0 0 0 0 0 127 0"/>
<feOffset dy="2.17736"/>
<feGaussianBlur stdDeviation="13.6085"/>
<feColorMatrix type="matrix" values="0 0 0 0 0.188235 0 0 0 0 0.368627 0 0 0 0 0.929412 0 0 0 0.5 0"/>
<feBlend mode="normal" in2="BackgroundImageFix" result="effect1_dropShadow"/>
<feBlend mode="normal" in="SourceGraphic" in2="effect1_dropShadow" result="shape"/>
</filter>
<filter id="filter8_d" x="72.6858" y="161.476" width="101.641" height="62.3635" filterUnits="userSpaceOnUse" color-interpolation-filters="sRGB">
<feFlood flood-opacity="0" result="BackgroundImageFix"/>
<feColorMatrix in="SourceAlpha" type="matrix" values="0 0 0 0 0 0 0 0 0 0 0 0 0 0 0 0 0 0 127 0"/>
<feOffset/>
<feGaussianBlur stdDeviation="2.17736"/>
<feColorMatrix type="matrix" values="0 0 0 0 0.188235 0 0 0 0 0.368627 0 0 0 0 0.929412 0 0 0 1 0"/>
<feBlend mode="normal" in2="BackgroundImageFix" result="effect1_dropShadow"/>
<feBlend mode="normal" in="SourceGraphic" in2="effect1_dropShadow" result="shape"/>
</filter>
<filter id="filter9_d" x="60.5462" y="146.982" width="125.92" height="95.7063" filterUnits="userSpaceOnUse" color-interpolation-filters="sRGB">
<feFlood flood-opacity="0" result="BackgroundImageFix"/>
<feColorMatrix in="SourceAlpha" type="matrix" values="0 0 0 0 0 0 0 0 0 0 0 0 0 0 0 0 0 0 127 0"/>
<feOffset dy="2.17736"/>
<feGaussianBlur stdDeviation="13.6085"/>
<feColorMatrix type="matrix" values="0 0 0 0 0.188235 0 0 0 0 0.368627 0 0 0 0 0.929412 0 0 0 0.5 0"/>
<feBlend mode="normal" in2="BackgroundImageFix" result="effect1_dropShadow"/>
<feBlend mode="normal" in="SourceGraphic" in2="effect1_dropShadow" result="shape"/>
</filter>
<filter id="filter10_d" x="137.023" y="124.331" width="101.641" height="62.3635" filterUnits="userSpaceOnUse" color-interpolation-filters="sRGB">
<feFlood flood-opacity="0" result="BackgroundImageFix"/>
<feColorMatrix in="SourceAlpha" type="matrix" values="0 0 0 0 0 0 0 0 0 0 0 0 0 0 0 0 0 0 127 0"/>
<feOffset/>
<feGaussianBlur stdDeviation="2.17736"/>
<feColorMatrix type="matrix" values="0 0 0 0 0.188235 0 0 0 0 0.368627 0 0 0 0 0.929412 0 0 0 1 0"/>
<feBlend mode="normal" in2="BackgroundImageFix" result="effect1_dropShadow"/>
<feBlend mode="normal" in="SourceGraphic" in2="effect1_dropShadow" result="shape"/>
</filter>
<filter id="filter11_d" x="124.883" y="109.837" width="125.92" height="95.7063" filterUnits="userSpaceOnUse" color-interpolation-filters="sRGB">
<feFlood flood-opacity="0" result="BackgroundImageFix"/>
<feColorMatrix in="SourceAlpha" type="matrix" values="0 0 0 0 0 0 0 0 0 0 0 0 0 0 0 0 0 0 127 0"/>
<feOffset dy="2.17736"/>
<feGaussianBlur stdDeviation="13.6085"/>
<feColorMatrix type="matrix" values="0 0 0 0 0.188235 0 0 0 0 0.368627 0 0 0 0 0.929412 0 0 0 0.5 0"/>
<feBlend mode="normal" in2="BackgroundImageFix" result="effect1_dropShadow"/>
<feBlend mode="normal" in="SourceGraphic" in2="effect1_dropShadow" result="shape"/>
</filter>
<filter id="filter12_d" x="201.36" y="87.1863" width="101.641" height="62.3635" filterUnits="userSpaceOnUse" color-interpolation-filters="sRGB">
<feFlood flood-opacity="0" result="BackgroundImageFix"/>
<feColorMatrix in="SourceAlpha" type="matrix" values="0 0 0 0 0 0 0 0 0 0 0 0 0 0 0 0 0 0 127 0"/>
<feOffset/>
<feGaussianBlur stdDeviation="2.17736"/>
<feColorMatrix type="matrix" values="0 0 0 0 0.188235 0 0 0 0 0.368627 0 0 0 0 0.929412 0 0 0 1 0"/>
<feBlend mode="normal" in2="BackgroundImageFix" result="effect1_dropShadow"/>
<feBlend mode="normal" in="SourceGraphic" in2="effect1_dropShadow" result="shape"/>
</filter>
<filter id="filter13_d" x="189.221" y="72.6923" width="125.92" height="95.7063" filterUnits="userSpaceOnUse" color-interpolation-filters="sRGB">
<feFlood flood-opacity="0" result="BackgroundImageFix"/>
<feColorMatrix in="SourceAlpha" type="matrix" values="0 0 0 0 0 0 0 0 0 0 0 0 0 0 0 0 0 0 127 0"/>
<feOffset dy="2.17736"/>
<feGaussianBlur stdDeviation="13.6085"/>
<feColorMatrix type="matrix" values="0 0 0 0 0.188235 0 0 0 0 0.368627 0 0 0 0 0.929412 0 0 0 0.5 0"/>
<feBlend mode="normal" in2="BackgroundImageFix" result="effect1_dropShadow"/>
<feBlend mode="normal" in="SourceGraphic" in2="effect1_dropShadow" result="shape"/>
</filter>
<filter id="filter14_d" x="265.697" y="50.0413" width="101.641" height="62.3635" filterUnits="userSpaceOnUse" color-interpolation-filters="sRGB">
<feFlood flood-opacity="0" result="BackgroundImageFix"/>
<feColorMatrix in="SourceAlpha" type="matrix" values="0 0 0 0 0 0 0 0 0 0 0 0 0 0 0 0 0 0 127 0"/>
<feOffset/>
<feGaussianBlur stdDeviation="2.17736"/>
<feColorMatrix type="matrix" values="0 0 0 0 0.188235 0 0 0 0 0.368627 0 0 0 0 0.929412 0 0 0 1 0"/>
<feBlend mode="normal" in2="BackgroundImageFix" result="effect1_dropShadow"/>
<feBlend mode="normal" in="SourceGraphic" in2="effect1_dropShadow" result="shape"/>
</filter>
<filter id="filter15_d" x="253.557" y="35.5473" width="125.92" height="95.7063" filterUnits="userSpaceOnUse" color-interpolation-filters="sRGB">
<feFlood flood-opacity="0" result="BackgroundImageFix"/>
<feColorMatrix in="SourceAlpha" type="matrix" values="0 0 0 0 0 0 0 0 0 0 0 0 0 0 0 0 0 0 127 0"/>
<feOffset dy="2.17736"/>
<feGaussianBlur stdDeviation="13.6085"/>
<feColorMatrix type="matrix" values="0 0 0 0 0.188235 0 0 0 0 0.368627 0 0 0 0 0.929412 0 0 0 0.5 0"/>
<feBlend mode="normal" in2="BackgroundImageFix" result="effect1_dropShadow"/>
<feBlend mode="normal" in="SourceGraphic" in2="effect1_dropShadow" result="shape"/>
</filter>
<filter id="filter16_d" x="135.726" y="197.873" width="101.641" height="62.3635" filterUnits="userSpaceOnUse" color-interpolation-filters="sRGB">
<feFlood flood-opacity="0" result="BackgroundImageFix"/>
<feColorMatrix in="SourceAlpha" type="matrix" values="0 0 0 0 0 0 0 0 0 0 0 0 0 0 0 0 0 0 127 0"/>
<feOffset/>
<feGaussianBlur stdDeviation="2.17736"/>
<feColorMatrix type="matrix" values="0 0 0 0 0.188235 0 0 0 0 0.368627 0 0 0 0 0.929412 0 0 0 1 0"/>
<feBlend mode="normal" in2="BackgroundImageFix" result="effect1_dropShadow"/>
<feBlend mode="normal" in="SourceGraphic" in2="effect1_dropShadow" result="shape"/>
</filter>
<filter id="filter17_d" x="123.587" y="183.379" width="125.92" height="95.7063" filterUnits="userSpaceOnUse" color-interpolation-filters="sRGB">
<feFlood flood-opacity="0" result="BackgroundImageFix"/>
<feColorMatrix in="SourceAlpha" type="matrix" values="0 0 0 0 0 0 0 0 0 0 0 0 0 0 0 0 0 0 127 0"/>
<feOffset dy="2.17736"/>
<feGaussianBlur stdDeviation="13.6085"/>
<feColorMatrix type="matrix" values="0 0 0 0 0.188235 0 0 0 0 0.368627 0 0 0 0 0.929412 0 0 0 0.5 0"/>
<feBlend mode="normal" in2="BackgroundImageFix" result="effect1_dropShadow"/>
<feBlend mode="normal" in="SourceGraphic" in2="effect1_dropShadow" result="shape"/>
</filter>
<filter id="filter18_d" x="200.063" y="160.728" width="101.641" height="62.3635" filterUnits="userSpaceOnUse" color-interpolation-filters="sRGB">
<feFlood flood-opacity="0" result="BackgroundImageFix"/>
<feColorMatrix in="SourceAlpha" type="matrix" values="0 0 0 0 0 0 0 0 0 0 0 0 0 0 0 0 0 0 127 0"/>
<feOffset/>
<feGaussianBlur stdDeviation="2.17736"/>
<feColorMatrix type="matrix" values="0 0 0 0 0.188235 0 0 0 0 0.368627 0 0 0 0 0.929412 0 0 0 1 0"/>
<feBlend mode="normal" in2="BackgroundImageFix" result="effect1_dropShadow"/>
<feBlend mode="normal" in="SourceGraphic" in2="effect1_dropShadow" result="shape"/>
</filter>
<filter id="filter19_d" x="187.924" y="146.234" width="125.92" height="95.7063" filterUnits="userSpaceOnUse" color-interpolation-filters="sRGB">
<feFlood flood-opacity="0" result="BackgroundImageFix"/>
<feColorMatrix in="SourceAlpha" type="matrix" values="0 0 0 0 0 0 0 0 0 0 0 0 0 0 0 0 0 0 127 0"/>
<feOffset dy="2.17736"/>
<feGaussianBlur stdDeviation="13.6085"/>
<feColorMatrix type="matrix" values="0 0 0 0 0.188235 0 0 0 0 0.368627 0 0 0 0 0.929412 0 0 0 0.5 0"/>
<feBlend mode="normal" in2="BackgroundImageFix" result="effect1_dropShadow"/>
<feBlend mode="normal" in="SourceGraphic" in2="effect1_dropShadow" result="shape"/>
</filter>
<filter id="filter20_d" x="264.4" y="123.583" width="101.641" height="62.3635" filterUnits="userSpaceOnUse" color-interpolation-filters="sRGB">
<feFlood flood-opacity="0" result="BackgroundImageFix"/>
<feColorMatrix in="SourceAlpha" type="matrix" values="0 0 0 0 0 0 0 0 0 0 0 0 0 0 0 0 0 0 127 0"/>
<feOffset/>
<feGaussianBlur stdDeviation="2.17736"/>
<feColorMatrix type="matrix" values="0 0 0 0 0.188235 0 0 0 0 0.368627 0 0 0 0 0.929412 0 0 0 1 0"/>
<feBlend mode="normal" in2="BackgroundImageFix" result="effect1_dropShadow"/>
<feBlend mode="normal" in="SourceGraphic" in2="effect1_dropShadow" result="shape"/>
</filter>
<filter id="filter21_d" x="252.261" y="109.089" width="125.92" height="95.7063" filterUnits="userSpaceOnUse" color-interpolation-filters="sRGB">
<feFlood flood-opacity="0" result="BackgroundImageFix"/>
<feColorMatrix in="SourceAlpha" type="matrix" values="0 0 0 0 0 0 0 0 0 0 0 0 0 0 0 0 0 0 127 0"/>
<feOffset dy="2.17736"/>
<feGaussianBlur stdDeviation="13.6085"/>
<feColorMatrix type="matrix" values="0 0 0 0 0.188235 0 0 0 0 0.368627 0 0 0 0 0.929412 0 0 0 0.5 0"/>
<feBlend mode="normal" in2="BackgroundImageFix" result="effect1_dropShadow"/>
<feBlend mode="normal" in="SourceGraphic" in2="effect1_dropShadow" result="shape"/>
</filter>
<filter id="filter22_d" x="328.737" y="86.4378" width="101.641" height="62.3635" filterUnits="userSpaceOnUse" color-interpolation-filters="sRGB">
<feFlood flood-opacity="0" result="BackgroundImageFix"/>
<feColorMatrix in="SourceAlpha" type="matrix" values="0 0 0 0 0 0 0 0 0 0 0 0 0 0 0 0 0 0 127 0"/>
<feOffset/>
<feGaussianBlur stdDeviation="2.17736"/>
<feColorMatrix type="matrix" values="0 0 0 0 0.188235 0 0 0 0 0.368627 0 0 0 0 0.929412 0 0 0 1 0"/>
<feBlend mode="normal" in2="BackgroundImageFix" result="effect1_dropShadow"/>
<feBlend mode="normal" in="SourceGraphic" in2="effect1_dropShadow" result="shape"/>
</filter>
<filter id="filter23_d" x="316.597" y="71.9438" width="125.92" height="95.7063" filterUnits="userSpaceOnUse" color-interpolation-filters="sRGB">
<feFlood flood-opacity="0" result="BackgroundImageFix"/>
<feColorMatrix in="SourceAlpha" type="matrix" values="0 0 0 0 0 0 0 0 0 0 0 0 0 0 0 0 0 0 127 0"/>
<feOffset dy="2.17736"/>
<feGaussianBlur stdDeviation="13.6085"/>
<feColorMatrix type="matrix" values="0 0 0 0 0.188235 0 0 0 0 0.368627 0 0 0 0 0.929412 0 0 0 0.5 0"/>
<feBlend mode="normal" in2="BackgroundImageFix" result="effect1_dropShadow"/>
<feBlend mode="normal" in="SourceGraphic" in2="effect1_dropShadow" result="shape"/>
</filter>
<filter id="filter24_d" x="198.767" y="234.269" width="101.641" height="62.3635" filterUnits="userSpaceOnUse" color-interpolation-filters="sRGB">
<feFlood flood-opacity="0" result="BackgroundImageFix"/>
<feColorMatrix in="SourceAlpha" type="matrix" values="0 0 0 0 0 0 0 0 0 0 0 0 0 0 0 0 0 0 127 0"/>
<feOffset/>
<feGaussianBlur stdDeviation="2.17736"/>
<feColorMatrix type="matrix" values="0 0 0 0 0.188235 0 0 0 0 0.368627 0 0 0 0 0.929412 0 0 0 1 0"/>
<feBlend mode="normal" in2="BackgroundImageFix" result="effect1_dropShadow"/>
<feBlend mode="normal" in="SourceGraphic" in2="effect1_dropShadow" result="shape"/>
</filter>
<filter id="filter25_d" x="186.627" y="219.775" width="125.92" height="95.7063" filterUnits="userSpaceOnUse" color-interpolation-filters="sRGB">
<feFlood flood-opacity="0" result="BackgroundImageFix"/>
<feColorMatrix in="SourceAlpha" type="matrix" values="0 0 0 0 0 0 0 0 0 0 0 0 0 0 0 0 0 0 127 0"/>
<feOffset dy="2.17736"/>
<feGaussianBlur stdDeviation="13.6085"/>
<feColorMatrix type="matrix" values="0 0 0 0 0.188235 0 0 0 0 0.368627 0 0 0 0 0.929412 0 0 0 0.5 0"/>
<feBlend mode="normal" in2="BackgroundImageFix" result="effect1_dropShadow"/>
<feBlend mode="normal" in="SourceGraphic" in2="effect1_dropShadow" result="shape"/>
</filter>
<filter id="filter26_d" x="263.104" y="197.124" width="101.641" height="62.3635" filterUnits="userSpaceOnUse" color-interpolation-filters="sRGB">
<feFlood flood-opacity="0" result="BackgroundImageFix"/>
<feColorMatrix in="SourceAlpha" type="matrix" values="0 0 0 0 0 0 0 0 0 0 0 0 0 0 0 0 0 0 127 0"/>
<feOffset/>
<feGaussianBlur stdDeviation="2.17736"/>
<feColorMatrix type="matrix" values="0 0 0 0 0.188235 0 0 0 0 0.368627 0 0 0 0 0.929412 0 0 0 1 0"/>
<feBlend mode="normal" in2="BackgroundImageFix" result="effect1_dropShadow"/>
<feBlend mode="normal" in="SourceGraphic" in2="effect1_dropShadow" result="shape"/>
</filter>
<filter id="filter27_d" x="250.964" y="182.63" width="125.92" height="95.7063" filterUnits="userSpaceOnUse" color-interpolation-filters="sRGB">
<feFlood flood-opacity="0" result="BackgroundImageFix"/>
<feColorMatrix in="SourceAlpha" type="matrix" values="0 0 0 0 0 0 0 0 0 0 0 0 0 0 0 0 0 0 127 0"/>
<feOffset dy="2.17736"/>
<feGaussianBlur stdDeviation="13.6085"/>
<feColorMatrix type="matrix" values="0 0 0 0 0.188235 0 0 0 0 0.368627 0 0 0 0 0.929412 0 0 0 0.5 0"/>
<feBlend mode="normal" in2="BackgroundImageFix" result="effect1_dropShadow"/>
<feBlend mode="normal" in="SourceGraphic" in2="effect1_dropShadow" result="shape"/>
</filter>
<filter id="filter28_d" x="327.441" y="159.979" width="101.641" height="62.3635" filterUnits="userSpaceOnUse" color-interpolation-filters="sRGB">
<feFlood flood-opacity="0" result="BackgroundImageFix"/>
<feColorMatrix in="SourceAlpha" type="matrix" values="0 0 0 0 0 0 0 0 0 0 0 0 0 0 0 0 0 0 127 0"/>
<feOffset/>
<feGaussianBlur stdDeviation="2.17736"/>
<feColorMatrix type="matrix" values="0 0 0 0 0.188235 0 0 0 0 0.368627 0 0 0 0 0.929412 0 0 0 1 0"/>
<feBlend mode="normal" in2="BackgroundImageFix" result="effect1_dropShadow"/>
<feBlend mode="normal" in="SourceGraphic" in2="effect1_dropShadow" result="shape"/>
</filter>
<filter id="filter29_d" x="315.301" y="145.485" width="125.92" height="95.7063" filterUnits="userSpaceOnUse" color-interpolation-filters="sRGB">
<feFlood flood-opacity="0" result="BackgroundImageFix"/>
<feColorMatrix in="SourceAlpha" type="matrix" values="0 0 0 0 0 0 0 0 0 0 0 0 0 0 0 0 0 0 127 0"/>
<feOffset dy="2.17736"/>
<feGaussianBlur stdDeviation="13.6085"/>
<feColorMatrix type="matrix" values="0 0 0 0 0.188235 0 0 0 0 0.368627 0 0 0 0 0.929412 0 0 0 0.5 0"/>
<feBlend mode="normal" in2="BackgroundImageFix" result="effect1_dropShadow"/>
<feBlend mode="normal" in="SourceGraphic" in2="effect1_dropShadow" result="shape"/>
</filter>
<linearGradient id="paint0_linear" x1="20.6362" y1="0" x2="20.6362" y2="41.2723" gradientUnits="userSpaceOnUse">
<stop stop-color="white"/>
<stop offset="1" stop-color="#F9F9F9"/>
</linearGradient>
<linearGradient id="paint1_linear" x1="20.6362" y1="0" x2="20.6362" y2="41.2723" gradientUnits="userSpaceOnUse">
<stop stop-color="#E2E2E2"/>
<stop offset="1" stop-color="#D7D7D7" stop-opacity="0.41"/>
</linearGradient>
<linearGradient id="paint2_linear" x1="20.6362" y1="0" x2="20.6362" y2="41.2723" gradientUnits="userSpaceOnUse">
<stop stop-color="white"/>
<stop offset="1" stop-color="#F9F9F9"/>
</linearGradient>
<linearGradient id="paint3_linear" x1="20.6362" y1="0" x2="20.6362" y2="41.2723" gradientUnits="userSpaceOnUse">
<stop stop-color="#E2E2E2"/>
<stop offset="1" stop-color="#D7D7D7" stop-opacity="0.41"/>
</linearGradient>
<linearGradient id="paint4_linear" x1="20.6362" y1="0" x2="20.6362" y2="41.2723" gradientUnits="userSpaceOnUse">
<stop stop-color="white"/>
<stop offset="1" stop-color="#F9F9F9"/>
</linearGradient>
<linearGradient id="paint5_linear" x1="20.6362" y1="0" x2="20.6362" y2="41.2723" gradientUnits="userSpaceOnUse">
<stop stop-color="#E2E2E2"/>
<stop offset="1" stop-color="#D7D7D7" stop-opacity="0.41"/>
</linearGradient>
<linearGradient id="paint6_linear" x1="20.6362" y1="0" x2="20.6362" y2="41.2723" gradientUnits="userSpaceOnUse">
<stop stop-color="white"/>
<stop offset="1" stop-color="#F9F9F9"/>
</linearGradient>
<linearGradient id="paint7_linear" x1="253.057" y1="44.8206" x2="270.505" y2="44.7782" gradientUnits="userSpaceOnUse">
<stop stop-color="#BF360C" stop-opacity="0.2"/>
<stop offset="0.28" stop-color="#BF360C" stop-opacity="0.12"/>
<stop offset="0.67" stop-color="#BF360C" stop-opacity="0.05"/>
<stop offset="1" stop-color="#BF360C" stop-opacity="0.02"/>
</linearGradient>
<linearGradient id="paint8_linear" x1="248.464" y1="52.2512" x2="253.476" y2="43.5695" gradientUnits="userSpaceOnUse">
<stop stop-color="white" stop-opacity="0.1"/>
<stop offset="0.14" stop-color="white" stop-opacity="0.08"/>
<stop offset="0.61" stop-color="white" stop-opacity="0.02"/>
<stop offset="1" stop-color="white" stop-opacity="0"/>
</linearGradient>
<linearGradient id="paint9_linear" x1="20.6362" y1="0" x2="20.6362" y2="41.2723" gradientUnits="userSpaceOnUse">
<stop stop-color="#E2E2E2"/>
<stop offset="1" stop-color="#D7D7D7" stop-opacity="0.41"/>
</linearGradient>
<linearGradient id="paint10_linear" x1="20.6362" y1="0" x2="20.6362" y2="41.2723" gradientUnits="userSpaceOnUse">
<stop stop-color="white"/>
<stop offset="1" stop-color="#F9F9F9"/>
</linearGradient>
<linearGradient id="paint11_linear" x1="20.6362" y1="0" x2="20.6362" y2="41.2723" gradientUnits="userSpaceOnUse">
<stop stop-color="#E2E2E2"/>
<stop offset="1" stop-color="#D7D7D7" stop-opacity="0.41"/>
</linearGradient>
<linearGradient id="paint12_linear" x1="20.6362" y1="0" x2="20.6362" y2="41.2723" gradientUnits="userSpaceOnUse">
<stop stop-color="white"/>
<stop offset="1" stop-color="#F9F9F9"/>
</linearGradient>
<linearGradient id="paint13_linear" x1="20.6362" y1="0" x2="20.6362" y2="41.2723" gradientUnits="userSpaceOnUse">
<stop stop-color="#E2E2E2"/>
<stop offset="1" stop-color="#D7D7D7" stop-opacity="0.41"/>
</linearGradient>
<linearGradient id="paint14_linear" x1="20.6362" y1="0" x2="20.6362" y2="41.2723" gradientUnits="userSpaceOnUse">
<stop stop-color="white"/>
<stop offset="1" stop-color="#F9F9F9"/>
</linearGradient>
<linearGradient id="paint15_linear" x1="20.6362" y1="0" x2="20.6362" y2="41.2723" gradientUnits="userSpaceOnUse">
<stop stop-color="#E2E2E2"/>
<stop offset="1" stop-color="#D7D7D7" stop-opacity="0.41"/>
</linearGradient>
<linearGradient id="paint16_linear" x1="20.6362" y1="0" x2="20.6362" y2="41.2723" gradientUnits="userSpaceOnUse">
<stop stop-color="white"/>
<stop offset="1" stop-color="#F9F9F9"/>
</linearGradient>
<linearGradient id="paint17_linear" x1="20.6362" y1="0" x2="20.6362" y2="41.2723" gradientUnits="userSpaceOnUse">
<stop stop-color="#E2E2E2"/>
<stop offset="1" stop-color="#D7D7D7" stop-opacity="0.41"/>
</linearGradient>
<linearGradient id="paint18_linear" x1="20.6362" y1="0" x2="20.6362" y2="41.2723" gradientUnits="userSpaceOnUse">
<stop stop-color="white"/>
<stop offset="1" stop-color="#F9F9F9"/>
</linearGradient>
<linearGradient id="paint19_linear" x1="20.6362" y1="0" x2="20.6362" y2="41.2723" gradientUnits="userSpaceOnUse">
<stop stop-color="#E2E2E2"/>
<stop offset="1" stop-color="#D7D7D7" stop-opacity="0.41"/>
</linearGradient>
<linearGradient id="paint20_linear" x1="20.6362" y1="0" x2="20.6362" y2="41.2723" gradientUnits="userSpaceOnUse">
<stop stop-color="white"/>
<stop offset="1" stop-color="#F9F9F9"/>
</linearGradient>
<linearGradient id="paint21_linear" x1="20.6362" y1="0" x2="20.6362" y2="41.2723" gradientUnits="userSpaceOnUse">
<stop stop-color="#E2E2E2"/>
<stop offset="1" stop-color="#D7D7D7" stop-opacity="0.41"/>
</linearGradient>
<linearGradient id="paint22_linear" x1="20.6362" y1="0" x2="20.6362" y2="41.2723" gradientUnits="userSpaceOnUse">
<stop stop-color="white"/>
<stop offset="1" stop-color="#F9F9F9"/>
</linearGradient>
<linearGradient id="paint23_linear" x1="20.6362" y1="0" x2="20.6362" y2="41.2723" gradientUnits="userSpaceOnUse">
<stop stop-color="#E2E2E2"/>
<stop offset="1" stop-color="#D7D7D7" stop-opacity="0.41"/>
</linearGradient>
<linearGradient id="paint24_linear" x1="20.6362" y1="0" x2="20.6362" y2="41.2723" gradientUnits="userSpaceOnUse">
<stop stop-color="white"/>
<stop offset="1" stop-color="#F9F9F9"/>
</linearGradient>
<linearGradient id="paint25_linear" x1="20.6362" y1="0" x2="20.6362" y2="41.2723" gradientUnits="userSpaceOnUse">
<stop stop-color="#E2E2E2"/>
<stop offset="1" stop-color="#D7D7D7" stop-opacity="0.41"/>
</linearGradient>
<linearGradient id="paint26_linear" x1="20.6362" y1="0" x2="20.6362" y2="41.2723" gradientUnits="userSpaceOnUse">
<stop stop-color="white"/>
<stop offset="1" stop-color="#F9F9F9"/>
</linearGradient>
<linearGradient id="paint27_linear" x1="20.6362" y1="0" x2="20.6362" y2="41.2723" gradientUnits="userSpaceOnUse">
<stop stop-color="#E2E2E2"/>
<stop offset="1" stop-color="#D7D7D7" stop-opacity="0.41"/>
</linearGradient>
<linearGradient id="paint28_linear" x1="20.6362" y1="0" x2="20.6362" y2="41.2723" gradientUnits="userSpaceOnUse">
<stop stop-color="white"/>
<stop offset="1" stop-color="#F9F9F9"/>
</linearGradient>
<linearGradient id="paint29_linear" x1="322.845" y1="233.475" x2="313.909" y2="217.998" gradientUnits="userSpaceOnUse">
<stop stop-color="#F37C27"/>
<stop offset="1" stop-color="#ED3774"/>
</linearGradient>
<linearGradient id="paint30_linear" x1="20.6362" y1="0" x2="20.6362" y2="41.2723" gradientUnits="userSpaceOnUse">
<stop stop-color="#E2E2E2"/>
<stop offset="1" stop-color="#D7D7D7" stop-opacity="0.41"/>
</linearGradient>
<linearGradient id="paint31_linear" x1="20.6362" y1="0" x2="20.6362" y2="41.2723" gradientUnits="userSpaceOnUse">
<stop stop-color="white"/>
<stop offset="1" stop-color="#F9F9F9"/>
</linearGradient>
<linearGradient id="paint32_linear" x1="20.6362" y1="0" x2="20.6362" y2="41.2723" gradientUnits="userSpaceOnUse">
<stop stop-color="#E2E2E2"/>
<stop offset="1" stop-color="#D7D7D7" stop-opacity="0.41"/>
</linearGradient>
<clipPath id="clip0">
<rect width="41.2723" height="41.2723" rx="5.4434" transform="matrix(0.866025 -0.5 0.866025 0.5 89.0596 119.117)" fill="white"/>
</clipPath>
<clipPath id="clip1">
<rect width="20.4792" height="20.4792" fill="white" transform="matrix(0.866025 -0.5 0.866025 0.5 107.067 119.117)"/>
</clipPath>
<clipPath id="clip2">
<rect width="41.2723" height="41.2723" rx="5.4434" transform="matrix(0.866025 -0.5 0.866025 0.5 279.478 154.765)" fill="white"/>
</clipPath>
</defs>
</svg>
