<svg viewBox="0 0 575 397" fill="none" xmlns="http://www.w3.org/2000/svg">
<g transform="matrix(1,0,0,1,60,0)">
<g filter="url(#filter0_d)">
<rect x="1.14028" width="175.777" height="325.878" rx="19.0918" transform="matrix(0.866025 -0.5 0.866025 0.5 7.75824 156.267)" stroke="white" stroke-width="1.31668"/>
<rect x="1.14028" width="175.777" height="325.878" rx="19.0918" transform="matrix(0.866025 -0.5 0.866025 0.5 7.75824 156.267)" stroke="#305EED" stroke-width="1.31668"/>
</g>
<rect width="177.093" height="327.194" rx="19.7502" transform="matrix(0.866025 -0.5 0.866025 0.5 7.60547 135.947)" fill="#1A2A5C"/>
<rect width="69.2882" height="67.073" rx="6.58339" transform="matrix(0.866025 -0.5 0.866025 0.5 149.413 201.559)" fill="#0B264E"/>
<rect width="69.2882" height="67.073" rx="6.58339" transform="matrix(0.866025 -0.5 0.866025 0.5 214.458 239.112)" fill="#0B264E"/>
<rect width="65.4389" height="67.073" rx="6.58339" transform="matrix(0.866025 -0.5 0.866025 0.5 220.086 160.755)" fill="#0B264E"/>
<rect width="65.4389" height="67.073" rx="6.58339" transform="matrix(0.866025 -0.5 0.866025 0.5 285.131 198.31)" fill="#0B264E"/>
<rect width="70.8279" height="88.1056" rx="6.58339" transform="matrix(0.866025 -0.5 0.866025 0.5 57.7754 149.31)" fill="#0B264E"/>
<rect width="53.8908" height="13.5547" transform="matrix(0.866025 -0.5 0.866025 0.5 141.202 117.41)" fill="#0B264E"/>
<rect width="106.558" height="6.97132" rx="3.48566" transform="matrix(0.866025 -0.5 0.866025 0.5 42.3838 120.476)" fill="#0B264E"/>
<rect width="69.2882" height="6.77735" transform="matrix(0.866025 -0.5 0.866025 0.5 157.636 126.898)" fill="#0B264E"/>
<g filter="url(#filter1_d)">
<path d="M184.348 125.414C179.31 122.505 179.31 117.789 184.348 114.88L233.38 86.5717C238.418 83.663 246.587 83.663 251.625 86.5717L300.657 114.88C305.695 117.789 305.695 122.505 300.656 125.414L251.625 153.722C246.587 156.631 238.418 156.631 233.38 153.722L184.348 125.414Z" fill="#3E6AEF"/>
<g clip-path="url(#clip0)">
<path d="M237.906 108.43L235.944 107.297C234.861 106.672 233.101 106.672 232.019 107.297L219.265 114.661C217.642 115.598 217.642 117.123 219.265 118.06L231.038 124.857C233.197 126.104 235.741 125.54 236.925 124.857L251.641 116.36C252.724 115.736 252.724 114.719 251.641 114.095L241.83 108.43C240.748 107.805 238.988 107.805 237.906 108.43ZM244.774 114.661L242.811 115.794L238.887 113.528L240.849 112.395L244.774 114.661ZM223.189 116.927C222.648 117.239 221.767 117.239 221.227 116.927C220.686 116.615 220.685 116.107 221.227 115.794L233.981 108.43L235.944 109.563L223.189 116.927Z" fill="white"/>
</g>
<path d="M234.755 138.215L232.93 139.268L237.353 141.822L235.974 142.618L231.551 140.064L229.726 141.118L228.515 140.419L233.544 137.515L234.755 138.215ZM238.187 136.398C238.299 136.333 238.412 136.281 238.524 136.243L239.81 137.053L239.566 137.194C238.597 137.754 238.639 138.338 239.693 138.947L241.013 139.709L239.667 140.486L235.446 138.049L236.791 137.272L237.599 137.738C237.369 137.204 237.565 136.757 238.187 136.398ZM240.793 134.816C241.392 134.47 242.009 134.282 242.643 134.253C243.282 134.221 243.868 134.358 244.4 134.666L247.075 136.21L245.779 136.957L245.468 136.778C245.418 137.143 245.143 137.47 244.644 137.758C244.173 138.03 243.666 138.178 243.122 138.2C242.584 138.22 242.107 138.11 241.692 137.87C241.272 137.627 241.095 137.347 241.163 137.03C241.224 136.71 241.533 136.389 242.088 136.069L243.164 135.447L243.08 135.399C242.906 135.298 242.71 135.25 242.491 135.253C242.273 135.25 242.074 135.3 241.894 135.404C241.485 135.64 241.426 135.878 241.718 136.117L240.187 136.7C239.873 136.409 239.769 136.096 239.876 135.763C239.982 135.423 240.288 135.107 240.793 134.816ZM244.013 136.957C244.255 136.818 244.389 136.656 244.417 136.472C244.445 136.287 244.344 136.129 244.114 135.996L244.022 135.943L243.097 136.477C242.929 136.574 242.836 136.676 242.819 136.782C242.802 136.883 242.859 136.97 242.987 137.045C243.122 137.122 243.282 137.153 243.467 137.137C243.652 137.121 243.834 137.061 244.013 136.957ZM246.205 131.691C246.699 131.406 247.257 131.272 247.879 131.288C248.501 131.298 249.076 131.455 249.603 131.759L252.193 133.254L250.856 134.026L248.552 132.696C248.305 132.554 248.039 132.477 247.753 132.468C247.461 132.455 247.209 132.51 246.996 132.633C246.721 132.791 246.604 132.973 246.643 133.177C246.682 133.374 246.901 133.588 247.299 133.818L249.258 134.949L247.913 135.726L243.691 133.288L245.037 132.511L245.44 132.745C245.423 132.346 245.678 131.995 246.205 131.691ZM251.724 132.253L252.766 131.341C253.153 131.499 253.568 131.451 254.011 131.195C254.179 131.098 254.28 131.004 254.314 130.913C254.347 130.816 254.316 130.74 254.221 130.685C254.064 130.594 253.82 130.616 253.49 130.748L252.464 131.146C251.494 131.532 250.675 131.532 250.008 131.146C249.576 130.897 249.4 130.601 249.478 130.258C249.551 129.912 249.857 129.583 250.395 129.272C250.911 128.974 251.446 128.792 252.001 128.724C252.562 128.652 253.069 128.699 253.523 128.864L252.539 129.714C252.377 129.646 252.183 129.622 251.959 129.641C251.74 129.657 251.533 129.722 251.337 129.835C251.169 129.933 251.079 130.023 251.068 130.107C251.056 130.185 251.096 130.25 251.185 130.302C251.337 130.389 251.541 130.384 251.799 130.287L252.993 129.831C253.464 129.656 253.91 129.576 254.33 129.593C254.745 129.606 255.113 129.704 255.432 129.889C255.886 130.151 256.06 130.455 255.954 130.802C255.847 131.148 255.508 131.486 254.936 131.816C254.403 132.124 253.854 132.325 253.288 132.418C252.721 132.506 252.2 132.451 251.724 132.253ZM254.992 126.618C255.592 126.272 256.208 126.084 256.842 126.055C257.481 126.023 258.067 126.16 258.6 126.468L261.274 128.012L259.979 128.759L259.668 128.58C259.617 128.945 259.342 129.272 258.843 129.56C258.373 129.832 257.865 129.98 257.321 130.002C256.783 130.022 256.307 129.912 255.892 129.672C255.471 129.429 255.295 129.149 255.362 128.832C255.424 128.512 255.732 128.191 256.287 127.871L257.363 127.249L257.279 127.201C257.105 127.1 256.909 127.052 256.691 127.055C256.472 127.052 256.273 127.102 256.094 127.206C255.684 127.442 255.625 127.68 255.917 127.919L254.386 128.502C254.072 128.211 253.969 127.898 254.075 127.565C254.182 127.225 254.487 126.909 254.992 126.618ZM258.213 128.759C258.454 128.62 258.588 128.458 258.616 128.274C258.644 128.089 258.544 127.931 258.314 127.798L258.221 127.745L257.296 128.279C257.128 128.376 257.035 128.478 257.019 128.584C257.002 128.685 257.058 128.772 257.187 128.847C257.321 128.924 257.481 128.955 257.666 128.939C257.851 128.923 258.033 128.863 258.213 128.759ZM263.087 125.751C263.558 125.479 263.617 125.16 263.264 124.794L264.769 124.236C265.156 124.582 265.302 124.958 265.207 125.362C265.111 125.767 264.797 126.123 264.265 126.43C263.62 126.803 262.866 126.998 262.003 127.018C261.139 127.031 260.38 126.848 259.724 126.469C259.073 126.094 258.759 125.657 258.782 125.158C258.81 124.657 259.146 124.22 259.791 123.847C260.312 123.546 260.921 123.367 261.616 123.308C262.311 123.25 262.961 123.328 263.567 123.542L262.608 124.445C262.305 124.335 262.014 124.289 261.734 124.309C261.448 124.325 261.193 124.398 260.968 124.527C260.666 124.702 260.523 124.901 260.539 125.124C260.551 125.344 260.71 125.544 261.019 125.722C261.333 125.903 261.68 125.997 262.061 126.003C262.443 126.01 262.785 125.925 263.087 125.751ZM268.563 122.366L269.933 122.798C269.754 123.141 269.474 123.423 269.093 123.643C268.56 123.951 268.002 124.108 267.419 124.114C266.842 124.117 266.278 123.96 265.729 123.643L264.131 122.721L263.366 123.162L262.298 122.546L263.063 122.104L261.65 121.288L262.996 120.511L264.408 121.327L265.653 120.609L266.721 121.225L265.476 121.944L266.94 122.789C267.349 123.025 267.741 123.035 268.117 122.818C268.33 122.695 268.479 122.544 268.563 122.366ZM264.809 119.037C264.803 118.866 264.913 118.715 265.137 118.586C265.361 118.456 265.622 118.393 265.919 118.396C266.222 118.396 266.477 118.456 266.684 118.576C266.897 118.699 267.001 118.846 266.995 119.018C266.99 119.183 266.875 119.33 266.651 119.46C266.426 119.589 266.171 119.656 265.885 119.659C265.594 119.659 265.341 119.597 265.128 119.474C264.915 119.351 264.809 119.206 264.809 119.037ZM272.041 121.795L270.696 122.572L266.474 120.135L267.819 119.358L272.041 121.795ZM270.813 117.503C271.458 117.131 272.212 116.935 273.075 116.916C273.939 116.896 274.696 117.074 275.346 117.45C276.002 117.828 276.313 118.267 276.279 118.765C276.246 119.264 275.907 119.699 275.262 120.072C274.606 120.45 273.843 120.651 272.974 120.674C272.111 120.693 271.351 120.513 270.695 120.135C270.045 119.759 269.737 119.322 269.77 118.824C269.81 118.322 270.157 117.882 270.813 117.503ZM274.127 119.416C274.401 119.257 274.539 119.062 274.539 118.829C274.533 118.592 274.37 118.382 274.051 118.197C273.731 118.013 273.367 117.922 272.958 117.926C272.548 117.922 272.209 117.998 271.94 118.154C271.66 118.316 271.52 118.516 271.52 118.756C271.514 118.992 271.671 119.202 271.991 119.387C272.31 119.571 272.674 119.665 273.084 119.669C273.493 119.665 273.841 119.581 274.127 119.416ZM276.444 114.233C276.937 113.948 277.495 113.814 278.117 113.83C278.74 113.84 279.314 113.997 279.841 114.301L282.431 115.796L281.094 116.568L278.79 115.238C278.543 115.096 278.277 115.019 277.991 115.01C277.7 114.997 277.447 115.052 277.234 115.175C276.959 115.333 276.842 115.515 276.881 115.719C276.92 115.916 277.139 116.13 277.537 116.36L279.496 117.491L278.151 118.268L273.929 115.83L275.275 115.053L275.678 115.287C275.662 114.888 275.917 114.537 276.444 114.233Z" fill="white"/>
</g>
<g filter="url(#filter2_d)">
<path d="M186.629 302.507C184.74 301.416 184.74 299.647 186.629 298.557L206.584 287.036C208.473 285.945 211.536 285.945 213.425 287.036L233.38 298.557C235.269 299.647 235.269 301.416 233.38 302.507L213.425 314.028C211.536 315.118 208.473 315.118 206.584 314.028L186.629 302.507Z" fill="white"/>
</g>
<g clip-path="url(#clip1)">
<path d="M203.408 296.904C200.636 298.504 200.636 301.108 203.404 302.706C207.436 305.055 215.648 304.191 215.974 304.159C215.974 304.159 217.526 299.23 213.461 296.904C210.689 295.304 206.179 295.304 203.408 296.904ZM210.948 301.257C209.559 302.059 207.31 302.059 205.921 301.257C204.532 300.455 204.532 299.157 205.921 298.355C207.31 297.553 209.559 297.553 210.948 298.355C212.336 299.157 212.336 300.455 210.948 301.257Z" fill="#305EED"/>
</g>
<path d="M206.013 218.898C202.865 217.08 202.865 214.132 206.013 212.314L247.063 188.614C250.212 186.796 255.317 186.796 258.466 188.614L299.516 212.314C302.665 214.132 302.665 217.08 299.516 218.898L258.466 242.598C255.317 244.416 250.212 244.416 247.063 242.598L206.013 218.898Z" fill="#2E56A4"/>
<g clip-path="url(#clip2)">
<path d="M242.493 209.675L246.317 211.883L250.142 209.675L248.612 208.792L246.317 210.117L244.023 208.792L242.493 209.675Z" fill="white"/>
<path d="M249.981 205.791C249.399 205.655 248.791 205.551 248.177 205.482C247.565 205.413 246.94 205.378 246.317 205.379C245.693 205.379 245.071 205.414 244.458 205.482C243.84 205.551 243.233 205.656 242.655 205.791C242.062 205.93 241.491 206.103 240.961 206.305C239.871 206.72 238.904 207.277 238.187 207.907C237.834 208.215 237.535 208.544 237.295 208.884C237.061 209.218 236.88 209.568 236.76 209.926C236.642 210.279 236.581 210.641 236.581 211C236.581 211.36 236.642 211.722 236.76 212.074C236.88 212.432 237.06 212.782 237.294 213.115C237.534 213.457 237.834 213.786 238.185 214.093C238.546 214.408 238.965 214.705 239.433 214.975C239.439 214.979 239.447 214.982 239.453 214.986L237.922 215.869L243.258 216.3L242.512 213.22L240.983 214.102C240.977 214.099 240.969 214.095 240.963 214.092C240.598 213.881 240.271 213.65 239.991 213.406C239.718 213.167 239.486 212.911 239.299 212.645C239.117 212.387 238.976 212.114 238.884 211.836C238.791 211.562 238.745 211.281 238.745 211C238.744 210.72 238.791 210.439 238.883 210.165C238.976 209.887 239.117 209.614 239.299 209.354C239.484 209.089 239.718 208.834 239.991 208.594C240.55 208.105 241.304 207.67 242.151 207.348C242.563 207.191 243.007 207.056 243.467 206.948C243.916 206.842 244.389 206.762 244.869 206.708C245.344 206.655 245.832 206.628 246.317 206.628C246.801 206.627 247.287 206.655 247.764 206.708C248.241 206.761 248.713 206.842 249.167 206.948C249.622 207.054 250.063 207.189 250.482 207.347C250.908 207.51 251.308 207.699 251.672 207.909C252.036 208.119 252.363 208.35 252.642 208.594C252.918 208.837 253.151 209.092 253.335 209.355C253.519 209.616 253.658 209.888 253.75 210.165C253.843 210.439 253.89 210.72 253.89 211C253.89 211.28 253.842 211.562 253.751 211.835C253.657 212.113 253.519 212.385 253.336 212.645C253.149 212.911 252.916 213.167 252.643 213.406C252.085 213.894 251.333 214.329 250.484 214.652C250.07 214.81 249.628 214.944 249.168 215.052C248.719 215.157 248.247 215.238 247.765 215.292C247.29 215.345 246.804 215.372 246.318 215.372L246.318 216.621C246.942 216.621 247.567 216.587 248.178 216.518C248.797 216.449 249.404 216.345 249.981 216.209C250.573 216.071 251.143 215.898 251.675 215.695C252.22 215.487 252.734 215.245 253.202 214.975C253.67 214.705 254.09 214.408 254.449 214.094C254.8 213.787 255.1 213.458 255.341 213.116C255.575 212.781 255.756 212.431 255.876 212.073C255.994 211.72 256.054 211.36 256.054 211C256.054 210.641 255.993 210.28 255.875 209.928C255.757 209.572 255.576 209.221 255.341 208.886C255.104 208.548 254.804 208.218 254.448 207.907C254.088 207.592 253.668 207.295 253.202 207.026C252.735 206.756 252.221 206.514 251.674 206.305C251.136 206.1 250.566 205.928 249.981 205.791Z" fill="white"/>
</g>
<path d="M255.337 228.915L253.982 229.697L252.681 229.363L250.511 230.616L251.088 231.367L249.726 232.154L246.724 227.932L248.025 227.181L255.337 228.915ZM251.165 228.977L248.81 228.381L249.849 229.737L251.165 228.977ZM256.597 227.076C257.028 226.827 257.082 226.535 256.759 226.2L258.136 225.689C258.49 226.006 258.624 226.35 258.537 226.72C258.449 227.091 258.162 227.417 257.675 227.698C257.084 228.039 256.394 228.218 255.604 228.236C254.814 228.248 254.119 228.08 253.518 227.734C252.923 227.39 252.636 226.99 252.656 226.534C252.682 226.075 252.99 225.675 253.58 225.334C254.057 225.058 254.614 224.894 255.25 224.841C255.886 224.787 256.482 224.858 257.036 225.054L256.158 225.881C255.881 225.78 255.614 225.738 255.358 225.756C255.096 225.771 254.863 225.838 254.657 225.956C254.38 226.116 254.249 226.298 254.265 226.503C254.275 226.704 254.421 226.886 254.704 227.049C254.991 227.215 255.309 227.301 255.658 227.307C256.007 227.313 256.32 227.236 256.597 227.076ZM261.608 223.978L262.863 224.374C262.699 224.688 262.442 224.945 262.093 225.147C261.606 225.428 261.095 225.572 260.561 225.578C260.033 225.581 259.517 225.437 259.014 225.147L257.552 224.303L256.852 224.707L255.874 224.143L256.575 223.738L255.281 222.992L256.513 222.281L257.806 223.027L258.945 222.37L259.923 222.934L258.784 223.592L260.123 224.365C260.497 224.581 260.857 224.59 261.2 224.391C261.395 224.279 261.531 224.141 261.608 223.978ZM258.173 220.931C258.167 220.774 258.267 220.637 258.473 220.518C258.678 220.4 258.917 220.342 259.189 220.345C259.466 220.345 259.699 220.4 259.889 220.509C260.084 220.622 260.179 220.757 260.174 220.914C260.169 221.065 260.063 221.2 259.858 221.318C259.653 221.437 259.419 221.497 259.158 221.5C258.891 221.5 258.66 221.444 258.465 221.331C258.27 221.219 258.173 221.086 258.173 220.931ZM264.792 223.456L263.56 224.167L259.697 221.936L260.928 221.225L264.792 223.456ZM265.939 218.323L268.209 221.483L266.955 222.207L261.482 220.896L262.783 220.145L266.1 220.985L264.638 219.074L265.939 218.323ZM264.982 217C264.977 216.843 265.077 216.705 265.283 216.587C265.488 216.468 265.726 216.41 265.998 216.413C266.276 216.413 266.509 216.468 266.699 216.578C266.894 216.69 266.989 216.825 266.984 216.982C266.979 217.133 266.873 217.268 266.668 217.386C266.463 217.505 266.229 217.566 265.968 217.569C265.701 217.569 265.47 217.512 265.275 217.4C265.08 217.287 264.982 217.154 264.982 217ZM271.602 219.524L270.37 220.235L266.506 218.004L267.738 217.293L271.602 219.524ZM273.995 216.827L275.25 217.222C275.086 217.536 274.829 217.794 274.48 217.995C273.993 218.277 273.482 218.42 272.949 218.426C272.42 218.429 271.904 218.286 271.402 217.995L269.939 217.151L269.239 217.555L268.261 216.991L268.962 216.587L267.669 215.84L268.9 215.129L270.193 215.876L271.332 215.218L272.31 215.782L271.171 216.44L272.51 217.213C272.885 217.429 273.244 217.438 273.587 217.24C273.782 217.127 273.918 216.989 273.995 216.827ZM276.163 212.42L279.419 217.144L278.087 217.912L276.963 216.277L271.622 215.042L272.946 214.277L276.125 215.055L274.839 213.184L276.163 212.42Z" fill="white"/>
<g filter="url(#filter3_d)">
<path d="M358.811 250.498C356.607 249.225 356.607 247.162 358.811 245.89L382.757 232.065C384.961 230.792 388.534 230.792 390.739 232.065L414.684 245.89C416.888 247.162 416.888 249.225 414.684 250.498L390.739 264.323C388.534 265.596 384.961 265.596 382.757 264.323L358.811 250.498Z" fill="#3E6AEF"/>
<g clip-path="url(#clip3)">
<path d="M386.168 242.713L383.586 242.216C383.229 242.148 382.836 242.201 382.569 242.355L376.406 245.913C376.14 246.067 376.048 246.294 376.167 246.5L377.027 247.991L375.269 249.006L376.675 249.817L389.332 242.51L387.926 241.698L386.168 242.713ZM389.245 254.043C389.641 254.214 390.195 254.191 390.545 253.989L396.558 250.517C396.908 250.315 396.947 249.995 396.651 249.767L389.332 244.134L379.488 249.817L389.245 254.043ZM389.332 246.57L392.346 248.889L387.725 251.557L383.707 249.817L389.332 246.57Z" fill="white"/>
</g>
</g>
<g filter="url(#filter4_d)">
<path d="M47.0812 254.699C44.6374 253.288 44.6374 251 47.0812 249.589L78.4388 231.485C80.8825 230.074 84.8447 230.074 87.2884 231.485L118.646 249.589C121.09 251 121.09 253.288 118.646 254.699L87.2884 272.803C84.8447 274.214 80.8825 274.214 78.4388 272.803L47.0812 254.699Z" stroke="url(#paint0_linear)" stroke-width="0.314724"/>
</g>
<g opacity="0.5" clip-path="url(#clip4)">
<path d="M80.8193 250.963L80.229 249.941L77.1935 248.188C77.9456 247.45 77.7838 246.484 76.687 245.851C75.3847 245.099 73.2666 245.099 71.9643 245.851C70.6621 246.603 70.6621 247.826 71.9644 248.578C73.0612 249.211 74.733 249.304 76.0128 248.87L79.0483 250.623L80.8193 250.963Z" fill="white"/>
<path d="M79.5386 247.315L80.3621 248.154C82.3143 247.515 84.116 247.414 84.9519 247.896C86.0688 248.541 85.374 250.379 82.5906 251.986C79.8072 253.593 76.6235 253.994 75.5066 253.35C74.6707 252.867 74.8466 251.827 75.9535 250.699L74.5007 250.223C72.99 251.762 72.9227 253.221 74.3259 254.031C76.3118 255.178 80.4613 254.579 83.7712 252.668C87.0812 250.757 88.1184 248.361 86.1326 247.215C84.7293 246.404 82.2027 246.443 79.5386 247.315Z" fill="white"/>
</g>
<path opacity="0.5" d="M82.6116 263.294L83.5049 263.81L80.4343 265.583L76.2783 263.183L77.3018 262.592L80.5646 264.476L82.6116 263.294ZM82.4002 260.759C82.8758 260.485 83.432 260.34 84.0688 260.326C84.7057 260.311 85.264 260.443 85.7437 260.72C86.2275 260.999 86.457 261.323 86.4322 261.69C86.4074 262.058 86.1572 262.379 85.6816 262.654C85.1978 262.933 84.6354 263.081 83.9944 263.098C83.3575 263.112 82.7972 262.98 82.3133 262.7C81.8336 262.423 81.6062 262.101 81.631 261.733C81.66 261.363 81.9163 261.038 82.4002 260.759ZM84.8442 262.17C85.0468 262.053 85.1482 261.909 85.1482 261.737C85.144 261.563 85.0241 261.407 84.7884 261.271C84.5527 261.135 84.2839 261.068 83.982 261.071C83.6801 261.068 83.4299 261.124 83.2314 261.239C83.0246 261.358 82.9213 261.506 82.9213 261.683C82.9171 261.857 83.0329 262.013 83.2686 262.149C83.5043 262.285 83.7731 262.354 84.075 262.356C84.3769 262.354 84.6333 262.292 84.8442 262.17ZM88.5322 260.012C88.8796 259.812 88.923 259.577 88.6625 259.307L89.7728 258.895C90.0582 259.15 90.1657 259.427 90.0954 259.726C90.0251 260.024 89.7935 260.287 89.4006 260.514C88.9251 260.788 88.3689 260.933 87.732 260.947C87.0951 260.957 86.5348 260.822 86.051 260.542C85.5713 260.265 85.3397 259.943 85.3562 259.575C85.3769 259.205 85.625 258.883 86.1006 258.608C86.4852 258.386 86.9339 258.254 87.4467 258.211C87.9594 258.168 88.4392 258.225 88.8858 258.383L88.1786 259.049C87.9553 258.968 87.7403 258.934 87.5335 258.949C87.3226 258.961 87.1344 259.014 86.969 259.11C86.7457 259.239 86.6403 259.386 86.6527 259.55C86.6609 259.713 86.7788 259.859 87.0062 259.991C87.2378 260.124 87.4942 260.194 87.7754 260.199C88.0566 260.203 88.3089 260.141 88.5322 260.012ZM89.5634 256.609C90.0059 256.354 90.4608 256.215 90.9281 256.194C91.3995 256.17 91.8317 256.271 92.2246 256.498L94.1971 257.637L93.2419 258.188L93.0123 258.056C92.9751 258.326 92.7725 258.567 92.4044 258.779C92.0571 258.98 91.6828 259.089 91.2817 259.105C90.8847 259.12 90.5332 259.038 90.2272 258.862C89.917 258.683 89.7867 258.476 89.8364 258.242C89.8818 258.006 90.1093 257.769 90.5187 257.533L91.3127 257.075L91.2507 257.039C91.1225 256.965 90.9777 256.929 90.8164 256.931C90.6552 256.929 90.5084 256.966 90.376 257.042C90.0741 257.217 90.0307 257.392 90.2458 257.569L89.1168 257.999C88.8852 257.784 88.8087 257.553 88.8873 257.307C88.9659 257.057 89.1912 256.824 89.5634 256.609ZM91.9392 258.188C92.117 258.086 92.2163 257.966 92.237 257.83C92.2576 257.694 92.1832 257.577 92.0136 257.479L91.9454 257.44L91.2631 257.834C91.139 257.906 91.0708 257.981 91.0584 258.06C91.046 258.134 91.0873 258.198 91.1824 258.253C91.2817 258.31 91.3995 258.333 91.536 258.321C91.6725 258.309 91.8069 258.265 91.9392 258.188ZM95.9753 255.55L96.9865 255.869C96.8541 256.122 96.6473 256.33 96.3661 256.492C95.9733 256.719 95.5618 256.835 95.1317 256.84C94.7058 256.842 94.2902 256.726 93.8849 256.492L92.7063 255.812L92.1418 256.138L91.354 255.683L91.9185 255.357L90.8764 254.755L91.8689 254.182L92.911 254.784L93.8291 254.254L94.6169 254.709L93.6988 255.239L94.7781 255.862C95.08 256.036 95.3695 256.043 95.6466 255.883C95.8037 255.793 95.9133 255.682 95.9753 255.55ZM93.2064 253.095C93.2023 252.968 93.2829 252.857 93.4483 252.762C93.6137 252.666 93.806 252.62 94.0252 252.622C94.2485 252.622 94.4367 252.666 94.5897 252.755C94.7468 252.845 94.8233 252.954 94.8192 253.08C94.8151 253.202 94.7303 253.311 94.5649 253.406C94.3995 253.502 94.2113 253.551 94.0004 253.553C93.7853 253.553 93.5992 253.508 93.4421 253.417C93.285 253.326 93.2064 253.219 93.2064 253.095ZM98.5411 255.129L97.5486 255.702L94.4346 253.904L95.4271 253.331L98.5411 255.129ZM97.6354 251.963C98.1109 251.689 98.6671 251.544 99.304 251.53C99.9408 251.515 100.499 251.647 100.979 251.924C101.463 252.203 101.692 252.527 101.667 252.894C101.643 253.262 101.392 253.583 100.917 253.858C100.433 254.137 99.8705 254.285 99.2296 254.302C98.5927 254.316 98.0324 254.184 97.5485 253.904C97.0688 253.627 96.8414 253.305 96.8662 252.937C96.8951 252.567 97.1515 252.242 97.6354 251.963ZM100.079 253.374C100.282 253.257 100.383 253.113 100.383 252.941C100.379 252.767 100.259 252.611 100.024 252.475C99.7878 252.339 99.519 252.272 99.2171 252.275C98.9153 252.272 98.6651 252.328 98.4666 252.443C98.2598 252.562 98.1564 252.71 98.1564 252.887C98.1523 253.061 98.2681 253.217 98.5038 253.353C98.7395 253.489 99.0083 253.558 99.3102 253.56C99.6121 253.558 99.8685 253.496 100.079 253.374ZM101.789 249.551C102.152 249.341 102.564 249.242 103.023 249.254C103.482 249.261 103.906 249.377 104.295 249.601L106.205 250.704L105.219 251.274L103.519 250.292C103.337 250.187 103.141 250.131 102.93 250.124C102.715 250.114 102.529 250.155 102.372 250.246C102.169 250.363 102.082 250.496 102.111 250.647C102.14 250.792 102.301 250.95 102.595 251.12L104.04 251.954L103.048 252.527L99.9338 250.729L100.926 250.156L101.224 250.328C101.212 250.034 101.4 249.775 101.789 249.551Z" fill="white"/>
<g filter="url(#filter5_d)">
<path d="M380.191 144.67C378.144 143.488 378.144 141.572 380.191 140.391L417.82 118.665C419.866 117.484 423.185 117.484 425.232 118.665L462.861 140.391C464.907 141.572 464.907 143.488 462.861 144.67L425.232 166.395C423.185 167.577 419.866 167.577 417.82 166.395L380.191 144.67Z" stroke="url(#paint1_linear)" stroke-width="0.658339"/>
</g>
<g filter="url(#filter6_d)">
<path d="M3.04416 172.155C-0.10463 170.338 -0.10463 167.39 3.04416 165.572L48.6552 139.239C51.804 137.421 56.9092 137.421 60.058 139.239L105.669 165.572C108.818 167.39 108.818 170.338 105.669 172.155L60.058 198.489C56.9092 200.307 51.804 200.307 48.6552 198.489L3.04416 172.155Z" fill="#53D084"/>
<g clip-path="url(#clip5)">
<path d="M58.5719 158.593C58.3923 158.399 58.2067 158.208 57.9984 158.025C57.9821 158.012 57.9646 158 57.9495 157.986C57.8588 157.906 57.7513 157.831 57.6546 157.753C57.5008 157.63 57.3542 157.504 57.1872 157.387C56.9141 157.193 56.6207 157.004 56.3071 156.823C53.7219 155.331 50.3086 154.599 46.8816 154.621C43.4545 154.644 40.0113 155.421 37.3665 156.948L46.7288 162.353L37.7695 167.526L34.4016 166.768L30.0207 169.297L32.3613 170.648L35.1642 169.03L42.3452 170.649C41.4379 171.882 41.8267 173.348 43.533 174.333C45.7917 175.637 49.5087 175.613 51.8195 174.279C53.9255 173.063 54.1237 171.18 52.4381 169.868L54.9548 168.415C57.2271 169.388 60.4891 169.273 62.5951 168.058C64.9059 166.723 64.9483 164.577 62.6897 163.273C61.9524 162.848 61.0534 162.579 60.1046 162.435C60.1069 162.378 60.121 162.321 60.1222 162.264C60.1307 161.771 60.0577 161.275 59.9063 160.788C59.7479 160.299 59.5112 159.819 59.1971 159.361C59.173 159.325 59.1393 159.292 59.1139 159.257L59.1151 159.256C59.1059 159.243 59.0932 159.231 59.084 159.217C58.9319 159.008 58.769 158.803 58.5836 158.604C58.5801 158.6 58.5766 158.597 58.5719 158.593ZM49.4789 172.928C48.4888 173.499 46.8954 173.51 45.9276 172.951C44.9598 172.392 44.9779 171.472 45.9681 170.901C46.9583 170.329 48.5516 170.318 49.5195 170.877C50.4873 171.436 50.4691 172.356 49.4789 172.928ZM60.2546 166.706C59.2644 167.278 57.671 167.288 56.7032 166.73C55.7354 166.171 55.7535 165.251 56.7437 164.679C57.7339 164.108 59.3272 164.097 60.2951 164.656C61.2629 165.215 61.2447 166.135 60.2546 166.706Z" fill="white"/>
</g>
<path d="M66.8285 178.564L65.3735 179.404L63.9764 179.046L61.6451 180.392L62.2651 181.198L60.8019 182.043L57.5777 177.509L58.9749 176.702L66.8285 178.564ZM62.3478 178.631L59.8181 177.991L60.9341 179.447L62.3478 178.631ZM67.4382 173.42L71.6709 175.863C72.2882 176.22 72.5417 176.633 72.4315 177.104C72.3213 177.575 71.9162 178.013 71.2162 178.417C70.2352 178.983 69.2101 179.19 68.1409 179.037L68.5625 178.011C68.9042 178.03 69.1853 178.021 69.4058 177.983C69.6262 177.944 69.8412 177.865 70.0506 177.744C70.3702 177.559 70.5521 177.359 70.5962 177.143C70.6513 176.926 70.5246 176.729 70.2159 176.551L69.91 176.374C69.899 176.75 69.629 177.09 69.0999 177.396C68.5377 177.72 67.8543 177.879 67.0497 177.873C66.245 177.86 65.5203 177.668 64.8754 177.295C64.2361 176.926 63.9054 176.509 63.8834 176.045C63.8669 175.577 64.1397 175.181 64.7018 174.856C65.2309 174.551 65.8206 174.395 66.471 174.389L66.1155 174.183L67.4382 173.42ZM68.2484 176.589C68.5239 176.43 68.6617 176.236 68.6617 176.007C68.6617 175.771 68.5047 175.563 68.1905 175.381C67.8819 175.203 67.5236 175.114 67.1158 175.114C66.7135 175.111 66.3745 175.189 66.099 175.348C65.8069 175.517 65.6691 175.714 65.6856 175.94C65.6966 176.163 65.8592 176.365 66.1734 176.546C66.493 176.731 66.8457 176.826 67.2315 176.832C67.6173 176.839 67.9563 176.758 68.2484 176.589ZM74.5359 171.718L74.8748 171.914L71.8326 173.67C72.1357 173.781 72.4388 173.832 72.7419 173.823C73.0451 173.813 73.3069 173.745 73.5273 173.618C73.9407 173.379 74.0757 173.116 73.9324 172.83L75.3461 172.291C75.5996 172.641 75.6574 172.983 75.5197 173.317C75.3819 173.645 75.0705 173.948 74.5855 174.228C73.9737 174.582 73.2517 174.763 72.4195 174.773C71.5818 174.779 70.8405 174.596 70.1957 174.224C69.5564 173.855 69.2422 173.428 69.2533 172.945C69.2643 172.461 69.5784 172.041 70.1957 171.684C70.7964 171.338 71.5019 171.163 72.3121 171.159C73.1222 171.156 73.8635 171.342 74.5359 171.718ZM71.2704 172.305C71.0775 172.416 70.9563 172.553 70.9067 172.715C70.8571 172.878 70.9039 173.035 71.0472 173.188L72.7585 172.2C72.4829 172.111 72.2156 172.077 71.9566 172.1C71.6975 172.122 71.4688 172.19 71.2704 172.305Z" fill="white"/>
</g>
</g>
<defs>
<filter id="filter0_d" x="13.0512" y="68.3617" width="425.835" height="249.722" filterUnits="userSpaceOnUse" color-interpolation-filters="sRGB">
<feFlood flood-opacity="0" result="BackgroundImageFix"/>
<feColorMatrix in="SourceAlpha" type="matrix" values="0 0 0 0 0 0 0 0 0 0 0 0 0 0 0 0 0 0 127 0"/>
<feOffset/>
<feGaussianBlur stdDeviation="2.2869"/>
<feColorMatrix type="matrix" values="0 0 0 0 0.188235 0 0 0 0 0.368627 0 0 0 0 0.929412 0 0 0 1 0"/>
<feBlend mode="normal" in2="BackgroundImageFix" result="effect1_dropShadow"/>
<feBlend mode="normal" in="SourceGraphic" in2="effect1_dropShadow" result="shape"/>
</filter>
<filter id="filter1_d" x="101.569" y="8.02281" width="281.867" height="229.515" filterUnits="userSpaceOnUse" color-interpolation-filters="sRGB">
<feFlood flood-opacity="0" result="BackgroundImageFix"/>
<feColorMatrix in="SourceAlpha" type="matrix" values="0 0 0 0 0 0 0 0 0 0 0 0 0 0 0 0 0 0 127 0"/>
<feOffset dy="2.63336"/>
<feGaussianBlur stdDeviation="39.5003"/>
<feColorMatrix type="matrix" values="0 0 0 0 0.188235 0 0 0 0 0.368627 0 0 0 0 0.929412 0 0 0 0.52 0"/>
<feBlend mode="normal" in2="BackgroundImageFix" result="effect1_dropShadow"/>
<feBlend mode="normal" in="SourceGraphic" in2="effect1_dropShadow" result="shape"/>
</filter>
<filter id="filter2_d" x="106.211" y="209.85" width="207.587" height="186.629" filterUnits="userSpaceOnUse" color-interpolation-filters="sRGB">
<feFlood flood-opacity="0" result="BackgroundImageFix"/>
<feColorMatrix in="SourceAlpha" type="matrix" values="0 0 0 0 0 0 0 0 0 0 0 0 0 0 0 0 0 0 127 0"/>
<feOffset dy="2.63336"/>
<feGaussianBlur stdDeviation="39.5003"/>
<feColorMatrix type="matrix" values="0 0 0 0 0.32549 0 0 0 0 0.815686 0 0 0 0 0.517647 0 0 0 1 0"/>
<feBlend mode="normal" in2="BackgroundImageFix" result="effect1_dropShadow"/>
<feBlend mode="normal" in="SourceGraphic" in2="effect1_dropShadow" result="shape"/>
</filter>
<filter id="filter3_d" x="260.983" y="138.141" width="251.529" height="226.517" filterUnits="userSpaceOnUse" color-interpolation-filters="sRGB">
<feFlood flood-opacity="0" result="BackgroundImageFix"/>
<feColorMatrix in="SourceAlpha" type="matrix" values="0 0 0 0 0 0 0 0 0 0 0 0 0 0 0 0 0 0 127 0"/>
<feOffset dy="3.20582"/>
<feGaussianBlur stdDeviation="48.0874"/>
<feColorMatrix type="matrix" values="0 0 0 0 0 0 0 0 0 0 0 0 0 0 0 0 0 0 1 0"/>
<feBlend mode="normal" in2="BackgroundImageFix" result="effect1_dropShadow"/>
<feBlend mode="normal" in="SourceGraphic" in2="effect1_dropShadow" result="shape"/>
</filter>
<filter id="filter4_d" x="-33.945" y="153.948" width="233.617" height="201.658" filterUnits="userSpaceOnUse" color-interpolation-filters="sRGB">
<feFlood flood-opacity="0" result="BackgroundImageFix"/>
<feColorMatrix in="SourceAlpha" type="matrix" values="0 0 0 0 0 0 0 0 0 0 0 0 0 0 0 0 0 0 127 0"/>
<feOffset dy="2.63336"/>
<feGaussianBlur stdDeviation="39.5003"/>
<feColorMatrix type="matrix" values="0 0 0 0 0.188235 0 0 0 0 0.368627 0 0 0 0 0.929412 0 0 0 0.8 0"/>
<feBlend mode="normal" in2="BackgroundImageFix" result="effect1_dropShadow"/>
<feBlend mode="normal" in="SourceGraphic" in2="effect1_dropShadow" result="shape"/>
</filter>
<filter id="filter5_d" x="299.252" y="41.1791" width="244.548" height="207.969" filterUnits="userSpaceOnUse" color-interpolation-filters="sRGB">
<feFlood flood-opacity="0" result="BackgroundImageFix"/>
<feColorMatrix in="SourceAlpha" type="matrix" values="0 0 0 0 0 0 0 0 0 0 0 0 0 0 0 0 0 0 127 0"/>
<feOffset dy="2.63336"/>
<feGaussianBlur stdDeviation="39.5003"/>
<feColorMatrix type="matrix" values="0 0 0 0 0.188235 0 0 0 0 0.368627 0 0 0 0 0.929412 0 0 0 0.8 0"/>
<feBlend mode="normal" in2="BackgroundImageFix" result="effect1_dropShadow"/>
<feBlend mode="normal" in="SourceGraphic" in2="effect1_dropShadow" result="shape"/>
</filter>
<filter id="filter6_d" x="-78.3181" y="61.5077" width="265.349" height="219.979" filterUnits="userSpaceOnUse" color-interpolation-filters="sRGB">
<feFlood flood-opacity="0" result="BackgroundImageFix"/>
<feColorMatrix in="SourceAlpha" type="matrix" values="0 0 0 0 0 0 0 0 0 0 0 0 0 0 0 0 0 0 127 0"/>
<feOffset dy="2.63336"/>
<feGaussianBlur stdDeviation="39.5003"/>
<feColorMatrix type="matrix" values="0 0 0 0 0.32549 0 0 0 0 0.815686 0 0 0 0 0.517647 0 0 0 1 0"/>
<feBlend mode="normal" in2="BackgroundImageFix" result="effect1_dropShadow"/>
<feBlend mode="normal" in="SourceGraphic" in2="effect1_dropShadow" result="shape"/>
</filter>
<linearGradient id="paint0_linear" x1="62.6237" y1="240.459" x2="82.8636" y2="275.515" gradientUnits="userSpaceOnUse">
<stop stop-color="white" stop-opacity="0.11"/>
<stop offset="1" stop-color="white" stop-opacity="0.19"/>
</linearGradient>
<linearGradient id="paint1_linear" x1="398.72" y1="129.363" x2="421.526" y2="168.864" gradientUnits="userSpaceOnUse">
<stop stop-color="white" stop-opacity="0.11"/>
<stop offset="1" stop-color="white" stop-opacity="0.19"/>
</linearGradient>
<clipPath id="clip0">
<rect width="27.1894" height="27.1894" transform="matrix(0.866025 -0.5 0.866025 0.5 209.705 114.806)" fill="white"/>
</clipPath>
<clipPath id="clip1">
<rect width="17.4131" height="17.4131" fill="white" transform="matrix(0.866025 -0.5 0.866025 0.5 194.611 300.532)"/>
</clipPath>
<clipPath id="clip2">
<rect width="21.1985" height="21.1985" fill="white" transform="matrix(0.866025 -0.5 0.866025 0.5 227.194 211.442)"/>
</clipPath>
<clipPath id="clip3">
<rect width="19.4868" height="19.4868" fill="white" transform="matrix(0.866025 -0.5 0.866025 0.5 369.643 248.194)"/>
</clipPath>
<clipPath id="clip4">
<rect width="16.3597" height="16.3597" fill="white" transform="matrix(0.866025 -0.5 0.866025 0.5 63.6997 249.259)"/>
</clipPath>
<clipPath id="clip5">
<rect width="39.5003" height="39.5003" fill="white" transform="matrix(0.866025 -0.5 0.866025 0.5 12.7368 165.243)"/>
</clipPath>
</defs>
</svg>
