<svg width="539" height="551" viewBox="0 0 779 781" fill="none" xmlns="http://www.w3.org/2000/svg">
<g filter="url(#filter0_d)">
<rect x="287" y="80" width="267" height="495" rx="29" stroke="white" stroke-width="2"/>
<rect x="287" y="80" width="267" height="495" rx="29" stroke="#305EED" stroke-width="2"/>
</g>
<rect x="266" y="99" width="269" height="497" rx="30" fill="#1A2A5C"/>
<rect x="290.7" y="323.025" width="105.247" height="101.882" rx="10" fill="#0B264E"/>
<rect x="290.7" y="437.112" width="105.247" height="101.882" rx="10" fill="#0B264E"/>
<rect x="414.658" y="323.025" width="99.4" height="101.882" rx="10" fill="#0B264E"/>
<rect x="414.658" y="437.112" width="99.4" height="101.882" rx="10" fill="#0B264E"/>
<rect x="289.7" y="163.296" width="107.586" height="133.83" rx="10" fill="#0B264E"/>
<rect x="411.319" y="188.003" width="81.8588" height="20.5893" fill="#0B264E"/>
<rect x="320" y="106" width="161.859" height="10.5893" rx="5.29463" fill="#0B264E"/>
<rect x="411.319" y="216.829" width="105.247" height="10.2946" fill="#0B264E"/>
<g filter="url(#filter1_d)">
<path d="M437 238C437 229.163 444.163 222 453 222H539C547.837 222 555 229.163 555 238V324C555 332.837 547.837 340 539 340H453C444.163 340 437 332.837 437 324V238Z" fill="#3E6AEF"/>
<path d="M509.766 259.171V255.729C509.766 253.831 508.222 252.288 506.324 252.288H483.954C481.107 252.288 478.791 254.604 478.791 257.45V278.1C478.791 281.888 481.878 283.263 483.954 283.263H509.766C511.664 283.263 513.208 281.719 513.208 279.821V262.613C513.208 260.715 511.664 259.171 509.766 259.171ZM506.324 274.658H502.883V267.775H506.324V274.658ZM483.954 259.171C483.004 259.171 482.233 258.398 482.233 257.45C482.233 256.502 483.004 255.729 483.954 255.729H506.324V259.171H483.954Z" fill="white"/>
<path d="M461.761 300.942H458.56V308.7H456.141V300.942H452.94V298.818H461.761V300.942ZM467.53 301.192C467.727 301.192 467.904 301.212 468.061 301.251L467.958 303.611H467.53C465.829 303.611 464.979 304.536 464.979 306.384V308.7H462.619V301.296H464.979V302.712C465.588 301.699 466.439 301.192 467.53 301.192ZM472.218 301.074C473.27 301.074 474.096 301.33 474.696 301.841C475.306 302.353 475.611 303.076 475.611 304.01V308.7H473.339V308.154C472.739 308.666 472.002 308.921 471.127 308.921C470.301 308.921 469.632 308.7 469.121 308.258C468.619 307.815 468.368 307.23 468.368 306.502C468.368 305.765 468.639 305.185 469.18 304.762C469.72 304.329 470.478 304.113 471.451 304.113H473.339V303.965C473.339 303.661 473.241 303.415 473.044 303.228C472.857 303.031 472.607 302.933 472.292 302.933C471.574 302.933 471.161 303.243 471.053 303.862L468.826 303.405C468.993 302.687 469.376 302.122 469.976 301.709C470.586 301.286 471.333 301.074 472.218 301.074ZM471.79 307.151C472.213 307.151 472.577 307.024 472.882 306.768C473.187 306.512 473.339 306.183 473.339 305.78V305.617H471.717C471.422 305.617 471.186 305.691 471.009 305.839C470.841 305.976 470.758 306.158 470.758 306.384C470.758 306.62 470.851 306.807 471.038 306.945C471.225 307.083 471.476 307.151 471.79 307.151ZM481.712 301.074C482.577 301.074 483.271 301.36 483.792 301.93C484.323 302.49 484.588 303.233 484.588 304.157V308.7H482.243V304.659C482.243 304.226 482.125 303.877 481.889 303.611C481.653 303.336 481.348 303.198 480.975 303.198C480.493 303.198 480.114 303.371 479.839 303.715C479.573 304.049 479.441 304.565 479.441 305.263V308.7H477.081V301.296H479.441V302.004C480.031 301.384 480.788 301.074 481.712 301.074ZM485.697 306.768L487.998 306.296C488.096 306.876 488.534 307.166 489.311 307.166C489.606 307.166 489.837 307.112 490.004 307.004C490.181 306.886 490.27 306.743 490.27 306.576C490.27 306.301 490.024 306.119 489.532 306.03L488.028 305.735C486.592 305.47 485.874 304.752 485.874 303.582C485.874 302.825 486.169 302.22 486.759 301.768C487.349 301.306 488.116 301.074 489.06 301.074C489.965 301.074 490.712 301.266 491.302 301.65C491.902 302.033 492.276 302.549 492.423 303.198L490.27 303.626C490.23 303.38 490.097 303.174 489.871 303.007C489.655 302.84 489.375 302.756 489.031 302.756C488.736 302.756 488.519 302.815 488.382 302.933C488.254 303.041 488.19 303.174 488.19 303.331C488.19 303.597 488.377 303.769 488.75 303.847L490.491 304.201C491.169 304.349 491.681 304.619 492.025 305.013C492.369 305.396 492.541 305.868 492.541 306.429C492.541 307.225 492.231 307.84 491.612 308.272C490.992 308.705 490.181 308.921 489.178 308.921C488.244 308.921 487.457 308.744 486.818 308.39C486.189 308.027 485.815 307.486 485.697 306.768ZM497.123 301.074C498.175 301.074 499.001 301.33 499.601 301.841C500.211 302.353 500.516 303.076 500.516 304.01V308.7H498.244V308.154C497.644 308.666 496.907 308.921 496.032 308.921C495.206 308.921 494.537 308.7 494.026 308.258C493.524 307.815 493.273 307.23 493.273 306.502C493.273 305.765 493.544 305.185 494.085 304.762C494.625 304.329 495.383 304.113 496.356 304.113H498.244V303.965C498.244 303.661 498.146 303.415 497.949 303.228C497.762 303.031 497.512 302.933 497.197 302.933C496.479 302.933 496.066 303.243 495.958 303.862L493.731 303.405C493.898 302.687 494.281 302.122 494.881 301.709C495.491 301.286 496.238 301.074 497.123 301.074ZM496.695 307.151C497.118 307.151 497.482 307.024 497.787 306.768C498.092 306.512 498.244 306.183 498.244 305.78V305.617H496.622C496.327 305.617 496.091 305.691 495.914 305.839C495.746 305.976 495.663 306.158 495.663 306.384C495.663 306.62 495.756 306.807 495.943 306.945C496.13 307.083 496.381 307.151 496.695 307.151ZM505.54 306.856C506.366 306.856 506.902 306.424 507.148 305.558L509.316 306.03C509.13 306.896 508.687 307.594 507.989 308.125C507.291 308.656 506.475 308.921 505.54 308.921C504.41 308.921 503.451 308.558 502.664 307.83C501.887 307.092 501.499 306.148 501.499 304.998C501.499 303.857 501.887 302.918 502.664 302.181C503.451 301.443 504.41 301.074 505.54 301.074C506.455 301.074 507.261 301.335 507.959 301.856C508.658 302.377 509.11 303.066 509.316 303.921L507.104 304.452C507.006 304.02 506.819 303.695 506.543 303.479C506.268 303.253 505.934 303.139 505.54 303.139C505.009 303.139 504.582 303.316 504.257 303.67C503.933 304.015 503.77 304.457 503.77 304.998C503.77 305.549 503.933 305.996 504.257 306.34C504.582 306.684 505.009 306.856 505.54 306.856ZM515.483 306.517L516.029 308.376C515.35 308.74 514.677 308.921 514.008 308.921C513.074 308.921 512.346 308.671 511.825 308.169C511.314 307.668 511.058 306.935 511.058 305.971V303.169H509.716V301.296H511.058V298.818H513.418V301.296H515.601V303.169H513.418V305.735C513.418 306.453 513.747 306.812 514.406 306.812C514.78 306.812 515.139 306.714 515.483 306.517ZM517.247 298.169C517.503 297.903 517.828 297.77 518.221 297.77C518.614 297.77 518.939 297.903 519.194 298.169C519.46 298.434 519.593 298.749 519.593 299.113C519.593 299.486 519.46 299.801 519.194 300.057C518.939 300.303 518.614 300.425 518.221 300.425C517.828 300.425 517.503 300.303 517.247 300.057C516.992 299.801 516.864 299.486 516.864 299.113C516.864 298.739 516.992 298.424 517.247 298.169ZM519.401 308.7H517.041V301.296H519.401V308.7ZM524.844 301.104C525.974 301.104 526.933 301.468 527.72 302.195C528.506 302.923 528.9 303.857 528.9 304.998C528.9 306.148 528.506 307.088 527.72 307.815C526.933 308.543 525.974 308.907 524.844 308.907C523.693 308.907 522.72 308.543 521.923 307.815C521.136 307.088 520.743 306.148 520.743 304.998C520.743 303.857 521.136 302.923 521.923 302.195C522.72 301.468 523.693 301.104 524.844 301.104ZM524.844 306.915C525.325 306.915 525.743 306.738 526.097 306.384C526.451 306.021 526.628 305.558 526.628 304.998C526.628 304.437 526.446 303.98 526.083 303.626C525.729 303.262 525.316 303.08 524.844 303.08C524.352 303.08 523.924 303.262 523.56 303.626C523.196 303.98 523.015 304.437 523.015 304.998C523.015 305.558 523.192 306.021 523.546 306.384C523.909 306.738 524.342 306.915 524.844 306.915ZM534.749 301.074C535.614 301.074 536.307 301.36 536.829 301.93C537.36 302.49 537.625 303.233 537.625 304.157V308.7H535.28V304.659C535.28 304.226 535.162 303.877 534.926 303.611C534.69 303.336 534.385 303.198 534.011 303.198C533.529 303.198 533.151 303.371 532.876 303.715C532.61 304.049 532.477 304.565 532.477 305.263V308.7H530.117V301.296H532.477V302.004C533.067 301.384 533.824 301.074 534.749 301.074Z" fill="white"/>
</g>
<g filter="url(#filter2_d)">
<path d="M170 509C170 505.686 172.686 503 176 503H211C214.314 503 217 505.686 217 509V544C217 547.314 214.314 550 211 550H176C172.686 550 170 547.314 170 544V509Z" fill="white"/>
</g>
<path d="M193.225 515.204C188.364 515.204 184.408 519.159 184.408 524.015C184.376 531.118 192.89 537.008 193.225 537.246C193.225 537.246 202.074 531.118 202.042 524.021C202.042 519.159 198.086 515.204 193.225 515.204ZM193.225 528.429C190.789 528.429 188.817 526.456 188.817 524.021C188.817 521.585 190.789 519.612 193.225 519.612C195.661 519.612 197.633 521.585 197.633 524.021C197.633 526.456 195.661 528.429 193.225 528.429Z" fill="#305EED"/>
<path d="M314 399C314 393.477 318.477 389 324 389H396C401.523 389 406 393.477 406 399V471C406 476.523 401.523 481 396 481H324C318.477 481 314 476.523 314 471V399Z" fill="#2E56A4"/>
<path d="M360 416.983V423.692H366.708V421.008H362.683V416.983H360Z" fill="white"/>
<path d="M372.467 417.65C372.164 416.932 371.79 416.241 371.355 415.599C370.923 414.957 370.428 414.356 369.881 413.81C369.333 413.264 368.735 412.77 368.094 412.337C367.447 411.9 366.756 411.527 366.044 411.225C365.312 410.916 364.549 410.679 363.776 410.52C362.192 410.194 360.497 410.193 358.911 410.52C358.134 410.679 357.372 410.916 356.644 411.223C355.931 411.525 355.242 411.898 354.592 412.337C353.952 412.769 353.35 413.265 352.804 413.812C352.258 414.358 351.761 414.96 351.329 415.599C350.892 416.248 350.518 416.938 350.217 417.649C349.909 418.379 349.671 419.142 349.513 419.916C349.35 420.71 349.267 421.529 349.267 422.35C349.267 422.361 349.269 422.373 349.269 422.383H346.584L350.609 427.717L354.634 422.383H351.952C351.952 422.373 351.951 422.361 351.951 422.35C351.951 421.71 352.015 421.073 352.141 420.455C352.265 419.853 352.448 419.261 352.689 418.694C352.922 418.141 353.213 417.603 353.554 417.1C353.889 416.602 354.276 416.135 354.701 415.709C355.126 415.282 355.595 414.897 356.091 414.562C356.595 414.221 357.134 413.93 357.688 413.695C358.252 413.455 358.845 413.271 359.449 413.147C360.682 412.894 362.004 412.895 363.237 413.147C363.836 413.271 364.431 413.455 364.998 413.695C365.552 413.928 366.089 414.221 366.592 414.559C367.089 414.896 367.558 415.282 367.984 415.707C368.409 416.131 368.794 416.6 369.131 417.099C369.469 417.598 369.76 418.134 369.996 418.694C370.235 419.253 370.417 419.845 370.543 420.453C370.67 421.074 370.734 421.711 370.734 422.35C370.734 422.989 370.67 423.626 370.543 424.242C370.417 424.852 370.235 425.444 369.996 426.005C369.76 426.563 369.469 427.098 369.129 427.6C368.794 428.098 368.409 428.566 367.984 428.99C367.558 429.415 367.089 429.802 366.594 430.137C366.089 430.476 365.554 430.769 364.998 431.004C364.431 431.244 363.838 431.428 363.237 431.551C362.005 431.803 360.685 431.805 359.449 431.551C358.847 431.428 358.255 431.244 357.688 431.004C357.135 430.77 356.597 430.479 356.094 430.138C355.596 429.803 355.129 429.416 354.702 428.991L352.805 430.888C353.351 431.436 353.952 431.931 354.592 432.363C355.24 432.8 355.931 433.174 356.642 433.475C357.372 433.784 358.136 434.021 358.91 434.179C359.703 434.342 360.521 434.425 361.342 434.425C362.163 434.425 362.983 434.342 363.775 434.179C364.549 434.021 365.312 433.785 366.042 433.476C366.756 433.174 367.447 432.8 368.096 432.361C368.735 431.929 369.335 431.434 369.881 430.888C370.427 430.342 370.922 429.741 371.354 429.102C371.79 428.458 372.164 427.768 372.467 427.051C372.773 426.329 373.011 425.567 373.172 424.781C373.334 423.987 373.417 423.168 373.417 422.35C373.417 421.531 373.334 420.713 373.172 419.916C373.011 419.133 372.773 418.371 372.467 417.65Z" fill="white"/>
<path d="M343.217 456.8H340.841L340.207 455.153H336.4L335.765 456.8H333.376L337.156 447.755H339.437L343.217 456.8ZM339.464 453.236L338.303 450.266L337.156 453.236H339.464ZM347.115 455.112C347.871 455.112 348.362 454.716 348.587 453.924L350.571 454.356C350.4 455.148 349.995 455.787 349.356 456.273C348.717 456.759 347.97 457.002 347.115 457.002C346.08 457.002 345.203 456.669 344.483 456.003C343.772 455.328 343.416 454.464 343.416 453.411C343.416 452.367 343.772 451.508 344.483 450.833C345.203 450.158 346.08 449.82 347.115 449.82C347.952 449.82 348.69 450.059 349.329 450.536C349.968 451.013 350.382 451.643 350.571 452.426L348.546 452.912C348.456 452.516 348.285 452.219 348.033 452.021C347.781 451.814 347.475 451.71 347.115 451.71C346.629 451.71 346.238 451.872 345.941 452.196C345.644 452.511 345.495 452.916 345.495 453.411C345.495 453.915 345.644 454.325 345.941 454.64C346.238 454.955 346.629 455.112 347.115 455.112ZM356.215 454.802L356.715 456.503C356.094 456.836 355.477 457.002 354.865 457.002C354.01 457.002 353.344 456.773 352.867 456.314C352.399 455.855 352.165 455.184 352.165 454.302V451.737H350.937V450.023H352.165V447.755H354.325V450.023H356.323V451.737H354.325V454.086C354.325 454.743 354.627 455.072 355.23 455.072C355.572 455.072 355.9 454.982 356.215 454.802ZM357.83 447.161C358.064 446.918 358.361 446.796 358.721 446.796C359.081 446.796 359.378 446.918 359.612 447.161C359.855 447.404 359.977 447.692 359.977 448.025C359.977 448.367 359.855 448.655 359.612 448.889C359.378 449.114 359.081 449.226 358.721 449.226C358.361 449.226 358.064 449.114 357.83 448.889C357.596 448.655 357.479 448.367 357.479 448.025C357.479 447.683 357.596 447.395 357.83 447.161ZM359.801 456.8H357.641V450.023H359.801V456.8ZM368.603 450.009L365.795 456.8H363.595L360.787 450.009H363.068L364.702 454.194L366.322 450.009H368.603ZM369.775 447.161C370.009 446.918 370.306 446.796 370.666 446.796C371.026 446.796 371.323 446.918 371.557 447.161C371.8 447.404 371.921 447.692 371.921 448.025C371.921 448.367 371.8 448.655 371.557 448.889C371.323 449.114 371.026 449.226 370.666 449.226C370.306 449.226 370.009 449.114 369.775 448.889C369.541 448.655 369.424 448.367 369.424 448.025C369.424 447.683 369.541 447.395 369.775 447.161ZM371.746 456.8H369.586V450.023H371.746V456.8ZM377.942 454.802L378.441 456.503C377.82 456.836 377.204 457.002 376.592 457.002C375.737 457.002 375.071 456.773 374.594 456.314C374.126 455.855 373.892 455.184 373.892 454.302V451.737H372.663V450.023H373.892V447.755H376.052V450.023H378.05V451.737H376.052V454.086C376.052 454.743 376.353 455.072 376.956 455.072C377.298 455.072 377.627 454.982 377.942 454.802ZM386.536 450.009L382.216 460.04H379.881L381.379 456.57L378.571 450.009H380.893L382.5 453.978L384.214 450.009H386.536Z" fill="white"/>
<g filter="url(#filter3_d)">
<path d="M400 581C400 577.134 403.134 574 407 574H449C452.866 574 456 577.134 456 581V623C456 626.866 452.866 630 449 630H407C403.134 630 400 626.866 400 623V581Z" fill="#3E6AEF"/>
<path d="M435.817 593.167L434.307 590.149C434.098 589.731 433.672 589.467 433.205 589.467H422.396C421.928 589.467 421.503 589.731 421.293 590.149L419.784 593.167H416.7V595.633H438.9V593.167H435.817ZM421.305 613.075C421.393 613.682 421.913 614.133 422.528 614.133H433.074C433.688 614.133 434.209 613.682 434.295 613.075L436.434 598.1H419.167L421.305 613.075ZM432.734 601.8L431.853 607.967H423.747L422.867 601.8H432.734Z" fill="white"/>
</g>
<g filter="url(#filter5_d)">
<path d="M559 122C559 118.686 561.686 116 565 116H616C619.314 116 622 118.686 622 122V173C622 176.314 619.314 179 616 179H565C561.686 179 559 176.314 559 173V122Z" fill="white"/>
</g>
<path d="M591.038 131.188C590.694 130.844 590.226 130.65 589.739 130.65H583.15C582.136 130.65 581.312 131.473 581.312 132.487V139.077C581.312 139.564 581.506 140.031 581.851 140.376L589.201 147.726C589.918 148.443 591.082 148.443 591.799 147.726L598.388 141.137C599.106 140.419 599.106 139.256 598.388 138.538L591.038 131.188ZM585.906 137.081C584.892 137.081 584.069 136.258 584.069 135.244C584.069 134.229 584.892 133.406 585.906 133.406C586.921 133.406 587.744 134.229 587.744 135.244C587.744 136.258 586.921 137.081 585.906 137.081Z" fill="#305EED"/>
<path d="M570.468 161.413L571.905 161.724C571.769 162.457 571.429 163.034 570.885 163.453C570.341 163.873 569.681 164.083 568.907 164.083C568.026 164.083 567.278 163.785 566.663 163.187C566.054 162.59 565.749 161.854 565.749 160.979C565.749 160.109 566.054 159.376 566.663 158.779C567.278 158.176 568.026 157.874 568.907 157.874C569.652 157.874 570.299 158.081 570.849 158.495C571.405 158.909 571.754 159.462 571.896 160.154L570.459 160.518C570.37 160.086 570.187 159.761 569.909 159.542C569.637 159.323 569.303 159.214 568.907 159.214C568.434 159.214 568.032 159.382 567.7 159.719C567.375 160.056 567.213 160.476 567.213 160.979C567.213 161.481 567.375 161.904 567.7 162.247C568.032 162.584 568.434 162.753 568.907 162.753C569.297 162.753 569.628 162.64 569.9 162.416C570.178 162.191 570.367 161.857 570.468 161.413ZM574.731 159.364C575.364 159.364 575.861 159.518 576.222 159.826C576.588 160.133 576.772 160.568 576.772 161.13V163.95H575.406V163.622C575.045 163.929 574.601 164.083 574.075 164.083C573.578 164.083 573.176 163.95 572.869 163.684C572.567 163.418 572.416 163.066 572.416 162.629C572.416 162.185 572.579 161.836 572.904 161.582C573.229 161.322 573.685 161.192 574.27 161.192H575.406V161.103C575.406 160.92 575.346 160.772 575.228 160.659C575.116 160.541 574.965 160.482 574.776 160.482C574.344 160.482 574.096 160.668 574.031 161.041L572.691 160.766C572.792 160.334 573.022 159.994 573.383 159.746C573.75 159.492 574.199 159.364 574.731 159.364ZM574.474 163.019C574.728 163.019 574.947 162.942 575.131 162.788C575.314 162.634 575.406 162.436 575.406 162.194V162.096H574.43C574.252 162.096 574.111 162.141 574.004 162.229C573.904 162.312 573.853 162.422 573.853 162.558C573.853 162.7 573.909 162.812 574.022 162.895C574.134 162.977 574.285 163.019 574.474 163.019ZM583.421 159.364C583.906 159.364 584.311 159.533 584.636 159.87C584.961 160.201 585.124 160.633 585.124 161.165V163.95H583.714V161.467C583.714 161.218 583.643 161.02 583.501 160.872C583.359 160.719 583.182 160.642 582.969 160.642C582.703 160.642 582.49 160.739 582.33 160.934C582.176 161.124 582.099 161.402 582.099 161.768V163.95H580.68V161.467C580.68 161.218 580.609 161.02 580.467 160.872C580.325 160.719 580.145 160.642 579.926 160.642C579.66 160.642 579.45 160.739 579.297 160.934C579.149 161.124 579.075 161.402 579.075 161.768V163.95H577.656V159.497H579.075V159.905C579.4 159.545 579.838 159.364 580.388 159.364C581.044 159.364 581.529 159.616 581.842 160.118C582.227 159.616 582.753 159.364 583.421 159.364ZM588.895 159.364C589.499 159.364 590.01 159.586 590.43 160.03C590.856 160.473 591.069 161.038 591.069 161.724C591.069 162.416 590.856 162.983 590.43 163.427C590.01 163.864 589.499 164.083 588.895 164.083C588.328 164.083 587.866 163.912 587.512 163.569V166.079H586.092V159.497H587.512V159.879C587.866 159.536 588.328 159.364 588.895 159.364ZM588.603 162.877C588.916 162.877 589.173 162.77 589.374 162.558C589.575 162.345 589.676 162.067 589.676 161.724C589.676 161.387 589.575 161.112 589.374 160.899C589.173 160.68 588.916 160.571 588.603 160.571C588.307 160.571 588.05 160.68 587.831 160.899C587.618 161.118 587.512 161.393 587.512 161.724C587.512 162.061 587.618 162.339 587.831 162.558C588.05 162.77 588.307 162.877 588.603 162.877ZM593.805 159.364C594.438 159.364 594.935 159.518 595.296 159.826C595.662 160.133 595.846 160.568 595.846 161.13V163.95H594.48V163.622C594.119 163.929 593.675 164.083 593.149 164.083C592.652 164.083 592.25 163.95 591.943 163.684C591.641 163.418 591.49 163.066 591.49 162.629C591.49 162.185 591.653 161.836 591.978 161.582C592.303 161.322 592.759 161.192 593.344 161.192H594.48V161.103C594.48 160.92 594.42 160.772 594.302 160.659C594.19 160.541 594.039 160.482 593.85 160.482C593.418 160.482 593.17 160.668 593.105 161.041L591.765 160.766C591.866 160.334 592.096 159.994 592.457 159.746C592.824 159.492 593.273 159.364 593.805 159.364ZM593.548 163.019C593.802 163.019 594.021 162.942 594.205 162.788C594.388 162.634 594.48 162.436 594.48 162.194V162.096H593.504C593.326 162.096 593.185 162.141 593.078 162.229C592.978 162.312 592.927 162.422 592.927 162.558C592.927 162.7 592.983 162.812 593.096 162.895C593.208 162.977 593.359 163.019 593.548 163.019ZM596.925 157.617C597.078 157.457 597.274 157.378 597.51 157.378C597.747 157.378 597.942 157.457 598.096 157.617C598.255 157.777 598.335 157.966 598.335 158.185C598.335 158.409 598.255 158.599 598.096 158.752C597.942 158.9 597.747 158.974 597.51 158.974C597.274 158.974 597.078 158.9 596.925 158.752C596.771 158.599 596.694 158.409 596.694 158.185C596.694 157.96 596.771 157.771 596.925 157.617ZM598.22 163.95H596.8V159.497H598.22V163.95ZM604.003 159.497V164.039C604.003 164.701 603.754 165.222 603.258 165.6C602.761 165.978 602.137 166.168 601.386 166.168C600.334 166.168 599.592 165.81 599.16 165.094L600.34 164.367C600.505 164.568 600.665 164.71 600.819 164.793C600.972 164.876 601.161 164.917 601.386 164.917C601.729 164.917 602.013 164.828 602.238 164.651C602.468 164.479 602.584 164.228 602.584 163.897V163.569C602.229 163.912 601.768 164.083 601.2 164.083C600.597 164.083 600.082 163.864 599.657 163.427C599.237 162.983 599.027 162.416 599.027 161.724C599.027 161.038 599.237 160.473 599.657 160.03C600.082 159.586 600.597 159.364 601.2 159.364C601.768 159.364 602.229 159.536 602.584 159.879V159.497H604.003ZM601.493 162.877C601.788 162.877 602.043 162.77 602.255 162.558C602.474 162.339 602.584 162.061 602.584 161.724C602.584 161.393 602.474 161.118 602.255 160.899C602.043 160.68 601.788 160.571 601.493 160.571C601.179 160.571 600.922 160.68 600.721 160.899C600.52 161.112 600.419 161.387 600.419 161.724C600.419 162.067 600.52 162.345 600.721 162.558C600.922 162.77 601.179 162.877 601.493 162.877ZM607.813 159.364C608.333 159.364 608.75 159.536 609.064 159.879C609.383 160.216 609.543 160.662 609.543 161.218V163.95H608.132V161.52C608.132 161.26 608.061 161.05 607.919 160.89C607.778 160.724 607.594 160.642 607.37 160.642C607.08 160.642 606.852 160.745 606.687 160.952C606.527 161.153 606.447 161.464 606.447 161.883V163.95H605.028V159.497H606.447V159.923C606.802 159.551 607.257 159.364 607.813 159.364ZM610.209 162.788L611.593 162.504C611.652 162.853 611.915 163.028 612.383 163.028C612.56 163.028 612.699 162.995 612.799 162.93C612.906 162.859 612.959 162.773 612.959 162.673C612.959 162.507 612.811 162.398 612.516 162.345L611.611 162.167C610.747 162.008 610.316 161.576 610.316 160.872C610.316 160.417 610.493 160.053 610.848 159.781C611.203 159.503 611.664 159.364 612.232 159.364C612.776 159.364 613.225 159.48 613.58 159.71C613.941 159.941 614.165 160.251 614.254 160.642L612.959 160.899C612.935 160.751 612.856 160.627 612.72 160.526C612.589 160.426 612.421 160.376 612.214 160.376C612.037 160.376 611.906 160.411 611.824 160.482C611.747 160.547 611.708 160.627 611.708 160.722C611.708 160.881 611.821 160.985 612.045 161.032L613.092 161.245C613.5 161.334 613.808 161.496 614.015 161.733C614.222 161.963 614.325 162.247 614.325 162.584C614.325 163.063 614.139 163.433 613.766 163.693C613.394 163.953 612.906 164.083 612.303 164.083C611.741 164.083 611.268 163.977 610.883 163.764C610.505 163.545 610.28 163.22 610.209 162.788Z" fill="#305EED"/>
<g filter="url(#filter6_d)">
<path d="M120.239 314C120.239 309.714 123.714 306.239 128 306.239H183C187.286 306.239 190.761 309.714 190.761 314V369C190.761 373.286 187.286 376.761 183 376.761H128C123.714 376.761 120.239 373.286 120.239 369V314Z" stroke="url(#paint0_linear)" stroke-width="0.478058"/>
</g>
<g opacity="0.5">
<path d="M155.5 337.915L156.535 335.844V330.52C158.317 330.057 159.642 328.449 159.642 326.525C159.642 324.241 157.784 322.383 155.5 322.383C153.216 322.383 151.358 324.241 151.358 326.525C151.358 328.449 152.683 330.057 154.465 330.52V335.844L155.5 337.915Z" fill="white"/>
<path d="M159.919 331.25L159.367 333.246C162.05 333.987 163.784 335.413 163.784 336.879C163.784 338.838 160.383 341.021 155.501 341.021C150.619 341.021 147.217 338.838 147.217 336.879C147.217 335.413 148.952 333.987 151.635 333.245L151.084 331.249C147.421 332.261 145.146 334.418 145.146 336.879C145.146 340.362 149.695 343.092 155.501 343.092C161.306 343.092 165.855 340.362 165.855 336.879C165.855 334.418 163.58 332.261 159.919 331.25Z" fill="white"/>
</g>
<path opacity="0.5" d="M138.297 357.583V359.15H132.911V351.86H134.706V357.583H138.297ZM141.963 353.547C142.797 353.547 143.504 353.815 144.084 354.352C144.664 354.889 144.955 355.578 144.955 356.419C144.955 357.268 144.664 357.96 144.084 358.497C143.504 359.034 142.797 359.302 141.963 359.302C141.114 359.302 140.396 359.034 139.808 358.497C139.228 357.96 138.938 357.268 138.938 356.419C138.938 355.578 139.228 354.889 139.808 354.352C140.396 353.815 141.114 353.547 141.963 353.547ZM141.963 357.833C142.318 357.833 142.626 357.703 142.887 357.442C143.148 357.173 143.279 356.832 143.279 356.419C143.279 356.006 143.145 355.668 142.876 355.407C142.615 355.139 142.311 355.005 141.963 355.005C141.6 355.005 141.284 355.139 141.016 355.407C140.748 355.668 140.613 356.006 140.613 356.419C140.613 356.832 140.744 357.173 141.005 357.442C141.273 357.703 141.593 357.833 141.963 357.833ZM148.475 357.79C149.084 357.79 149.479 357.471 149.661 356.832L151.26 357.181C151.122 357.819 150.796 358.334 150.281 358.726C149.766 359.117 149.164 359.313 148.475 359.313C147.64 359.313 146.933 359.045 146.353 358.508C145.78 357.964 145.493 357.268 145.493 356.419C145.493 355.578 145.78 354.885 146.353 354.341C146.933 353.797 147.64 353.525 148.475 353.525C149.149 353.525 149.744 353.717 150.259 354.102C150.774 354.486 151.108 354.994 151.26 355.625L149.628 356.016C149.555 355.697 149.418 355.458 149.214 355.298C149.011 355.132 148.765 355.048 148.475 355.048C148.083 355.048 147.767 355.179 147.528 355.44C147.289 355.694 147.169 356.02 147.169 356.419C147.169 356.825 147.289 357.155 147.528 357.409C147.767 357.663 148.083 357.79 148.475 357.79ZM154.548 353.525C155.324 353.525 155.934 353.714 156.376 354.091C156.826 354.468 157.051 355.001 157.051 355.69V359.15H155.375V358.747C154.933 359.125 154.389 359.313 153.743 359.313C153.134 359.313 152.641 359.15 152.263 358.824C151.894 358.497 151.709 358.066 151.709 357.529C151.709 356.985 151.908 356.557 152.307 356.245C152.706 355.926 153.264 355.766 153.983 355.766H155.375V355.657C155.375 355.433 155.303 355.251 155.158 355.113C155.02 354.968 154.835 354.896 154.603 354.896C154.073 354.896 153.769 355.124 153.689 355.581L152.046 355.244C152.169 354.714 152.452 354.297 152.895 353.993C153.344 353.681 153.895 353.525 154.548 353.525ZM154.233 358.008C154.545 358.008 154.813 357.913 155.038 357.725C155.263 357.536 155.375 357.293 155.375 356.996V356.876H154.178C153.961 356.876 153.787 356.93 153.656 357.039C153.533 357.141 153.471 357.275 153.471 357.442C153.471 357.616 153.54 357.754 153.678 357.855C153.816 357.957 154.001 358.008 154.233 358.008ZM161.78 357.54L162.182 358.911C161.682 359.179 161.185 359.313 160.692 359.313C160.003 359.313 159.466 359.128 159.082 358.758C158.704 358.388 158.516 357.848 158.516 357.137V355.07H157.526V353.688H158.516V351.86H160.257V353.688H161.867V355.07H160.257V356.963C160.257 357.493 160.5 357.757 160.986 357.757C161.261 357.757 161.526 357.685 161.78 357.54ZM163.081 351.382C163.27 351.186 163.509 351.088 163.799 351.088C164.089 351.088 164.329 351.186 164.517 351.382C164.713 351.577 164.811 351.81 164.811 352.078C164.811 352.354 164.713 352.586 164.517 352.774C164.329 352.956 164.089 353.046 163.799 353.046C163.509 353.046 163.27 352.956 163.081 352.774C162.893 352.586 162.798 352.354 162.798 352.078C162.798 351.802 162.893 351.57 163.081 351.382ZM164.67 359.15H162.929V353.688H164.67V359.15ZM168.684 353.547C169.519 353.547 170.226 353.815 170.806 354.352C171.386 354.889 171.676 355.578 171.676 356.419C171.676 357.268 171.386 357.96 170.806 358.497C170.226 359.034 169.519 359.302 168.684 359.302C167.836 359.302 167.118 359.034 166.53 358.497C165.95 357.96 165.66 357.268 165.66 356.419C165.66 355.578 165.95 354.889 166.53 354.352C167.118 353.815 167.836 353.547 168.684 353.547ZM168.684 357.833C169.04 357.833 169.348 357.703 169.609 357.442C169.87 357.173 170.001 356.832 170.001 356.419C170.001 356.006 169.867 355.668 169.598 355.407C169.337 355.139 169.033 355.005 168.684 355.005C168.322 355.005 168.006 355.139 167.738 355.407C167.469 355.668 167.335 356.006 167.335 356.419C167.335 356.832 167.466 357.173 167.727 357.442C167.995 357.703 168.314 357.833 168.684 357.833ZM175.991 353.525C176.629 353.525 177.14 353.735 177.525 354.156C177.916 354.569 178.112 355.117 178.112 355.799V359.15H176.382V356.169C176.382 355.85 176.295 355.592 176.121 355.396C175.947 355.193 175.722 355.092 175.447 355.092C175.091 355.092 174.812 355.219 174.609 355.472C174.413 355.719 174.315 356.1 174.315 356.615V359.15H172.574V353.688H174.315V354.21C174.75 353.753 175.309 353.525 175.991 353.525Z" fill="white"/>
<g filter="url(#filter7_d)">
<path d="M579.5 439C579.5 435.41 582.41 432.5 586 432.5H652C655.59 432.5 658.5 435.41 658.5 439V505C658.5 508.59 655.59 511.5 652 511.5H586C582.41 511.5 579.5 508.59 579.5 505V439Z" stroke="url(#paint1_linear)"/>
</g>
<g opacity="0.4">
<path d="M628.333 452.667H609.666C608.38 452.667 607.333 453.713 607.333 455V469C607.333 470.287 608.38 471.333 609.666 471.333H628.333C629.62 471.333 630.666 470.287 630.666 469V455C630.666 453.713 629.62 452.667 628.333 452.667ZM615.167 457.333C616.51 457.333 617.501 458.324 617.501 459.667C617.501 461.009 616.51 462 615.167 462C613.824 462 612.834 461.009 612.834 459.667C612.834 458.324 613.823 457.333 615.167 457.333ZM619.501 466.667H610.833V466.124C610.833 464.522 612.788 462.875 615.167 462.875C617.546 462.875 619.501 464.522 619.501 466.124V466.667ZM627.166 465.5H622.5V463.167H627.166V465.5ZM627.166 460.833H621.333V458.5H627.166V460.833Z" fill="white"/>
</g>
<path opacity="0.4" d="M609.843 484.96V493H608.211L604.143 488.344V493H602.163V484.96H603.807L607.875 489.76V484.96H609.843ZM613.957 486.796C614.813 486.796 615.485 487.004 615.973 487.42C616.469 487.836 616.717 488.424 616.717 489.184V493H614.869V492.556C614.381 492.972 613.781 493.18 613.069 493.18C612.397 493.18 611.853 493 611.437 492.64C611.029 492.28 610.825 491.804 610.825 491.212C610.825 490.612 611.045 490.14 611.485 489.796C611.925 489.444 612.541 489.268 613.333 489.268H614.869V489.148C614.869 488.9 614.789 488.7 614.629 488.548C614.477 488.388 614.273 488.308 614.017 488.308C613.433 488.308 613.097 488.56 613.009 489.064L611.197 488.692C611.333 488.108 611.645 487.648 612.133 487.312C612.629 486.968 613.237 486.796 613.957 486.796ZM613.609 491.74C613.953 491.74 614.249 491.636 614.497 491.428C614.745 491.22 614.869 490.952 614.869 490.624V490.492H613.549C613.309 490.492 613.117 490.552 612.973 490.672C612.837 490.784 612.769 490.932 612.769 491.116C612.769 491.308 612.845 491.46 612.997 491.572C613.149 491.684 613.353 491.74 613.609 491.74ZM625.713 486.796C626.369 486.796 626.917 487.024 627.357 487.48C627.797 487.928 628.017 488.512 628.017 489.232V493H626.109V489.64C626.109 489.304 626.013 489.036 625.821 488.836C625.629 488.628 625.389 488.524 625.101 488.524C624.741 488.524 624.453 488.656 624.237 488.92C624.029 489.176 623.925 489.552 623.925 490.048V493H622.005V489.64C622.005 489.304 621.909 489.036 621.717 488.836C621.525 488.628 621.281 488.524 620.985 488.524C620.625 488.524 620.341 488.656 620.133 488.92C619.933 489.176 619.833 489.552 619.833 490.048V493H617.913V486.976H619.833V487.528C620.273 487.04 620.865 486.796 621.609 486.796C622.497 486.796 623.153 487.136 623.577 487.816C624.097 487.136 624.809 486.796 625.713 486.796ZM635.231 489.988V490.48H630.815C630.895 490.84 631.051 491.124 631.283 491.332C631.515 491.54 631.791 491.644 632.111 491.644C632.711 491.644 633.139 491.412 633.395 490.948L635.099 491.296C634.843 491.92 634.455 492.392 633.935 492.712C633.423 493.024 632.815 493.18 632.111 493.18C631.223 493.18 630.471 492.884 629.855 492.292C629.239 491.692 628.931 490.924 628.931 489.988C628.931 489.06 629.239 488.296 629.855 487.696C630.471 487.096 631.227 486.796 632.123 486.796C632.995 486.796 633.727 487.088 634.319 487.672C634.911 488.256 635.215 489.028 635.231 489.988ZM632.123 488.356C631.843 488.356 631.583 488.44 631.343 488.608C631.103 488.776 630.939 489.008 630.851 489.304H633.335C633.247 488.992 633.095 488.756 632.879 488.596C632.663 488.436 632.411 488.356 632.123 488.356Z" fill="white"/>
<g filter="url(#filter8_d)">
<path d="M207 150C207 144.477 211.477 140 217 140H297C302.523 140 307 144.477 307 150V230C307 235.523 302.523 240 297 240H217C211.477 240 207 235.523 207 230V150Z" fill="#53D084"/>
<g clip-path="url(#clip0)">
<path d="M276.299 178.095C276.435 177.643 276.563 177.19 276.658 176.73C276.664 176.695 276.666 176.662 276.674 176.627C276.716 176.426 276.735 176.219 276.769 176.016C276.821 175.693 276.884 175.373 276.916 175.049C276.971 174.515 277 173.971 277 173.421C277 168.887 275.118 164.782 272.08 161.809C269.039 158.839 264.839 157 260.2 157V173.421H244.486L242.684 169.316H235V173.421H239.916L243.755 182.178C241.086 183.255 239.2 185.823 239.2 188.816C239.2 192.777 242.497 196 246.55 196C250.244 196 253.278 193.313 253.793 189.842H258.207C258.722 193.313 261.756 196 265.45 196C269.503 196 272.8 192.777 272.8 188.816C272.8 187.523 272.42 186.326 271.807 185.275C271.895 185.191 271.994 185.117 272.082 185.031C272.838 184.29 273.527 183.473 274.133 182.6C274.738 181.718 275.259 180.782 275.679 179.811C275.713 179.735 275.734 179.655 275.765 179.579H275.767C275.78 179.55 275.786 179.521 275.799 179.493C275.984 179.041 276.152 178.588 276.292 178.122C276.294 178.113 276.296 178.105 276.299 178.095ZM246.55 191.895C244.813 191.895 243.4 190.513 243.4 188.816C243.4 187.118 244.813 185.737 246.55 185.737C248.287 185.737 249.7 187.118 249.7 188.816C249.7 190.513 248.287 191.895 246.55 191.895ZM265.45 191.895C263.713 191.895 262.3 190.513 262.3 188.816C262.3 187.118 263.713 185.737 265.45 185.737C267.187 185.737 268.6 187.118 268.6 188.816C268.6 190.513 267.187 191.895 265.45 191.895Z" fill="white"/>
</g>
<path d="M253.274 216H250.722L250.04 214.231H245.951L245.27 216H242.703L246.763 206.285H249.214L253.274 216ZM249.243 212.172L247.996 208.982L246.763 212.172H249.243ZM261.622 208.721V216.145C261.622 217.228 261.216 218.078 260.404 218.697C259.592 219.316 258.572 219.625 257.345 219.625C255.624 219.625 254.411 219.04 253.705 217.871L255.634 216.682C255.904 217.01 256.165 217.242 256.417 217.378C256.668 217.513 256.977 217.581 257.345 217.581C257.905 217.581 258.369 217.436 258.737 217.146C259.114 216.865 259.302 216.454 259.302 215.913V215.376C258.722 215.937 257.968 216.218 257.04 216.218C256.054 216.218 255.213 215.86 254.517 215.144C253.831 214.419 253.488 213.491 253.488 212.36C253.488 211.239 253.831 210.316 254.517 209.591C255.213 208.866 256.054 208.503 257.04 208.503C257.968 208.503 258.722 208.784 259.302 209.344V208.721H261.622ZM257.519 214.245C258.002 214.245 258.418 214.071 258.766 213.723C259.123 213.366 259.302 212.911 259.302 212.36C259.302 211.819 259.123 211.37 258.766 211.012C258.418 210.654 258.002 210.475 257.519 210.475C257.006 210.475 256.586 210.654 256.257 211.012C255.928 211.36 255.764 211.809 255.764 212.36C255.764 212.921 255.928 213.375 256.257 213.723C256.586 214.071 257.006 214.245 257.519 214.245ZM270.432 212.36V212.955H265.096C265.192 213.39 265.381 213.733 265.661 213.984C265.941 214.236 266.275 214.361 266.662 214.361C267.387 214.361 267.904 214.081 268.213 213.52L270.272 213.941C269.963 214.695 269.494 215.265 268.866 215.652C268.247 216.029 267.512 216.218 266.662 216.218C265.589 216.218 264.68 215.86 263.936 215.144C263.191 214.419 262.819 213.491 262.819 212.36C262.819 211.239 263.191 210.316 263.936 209.591C264.68 208.866 265.593 208.503 266.676 208.503C267.73 208.503 268.614 208.856 269.33 209.562C270.045 210.268 270.412 211.2 270.432 212.36ZM266.676 210.388C266.338 210.388 266.024 210.49 265.734 210.693C265.444 210.896 265.245 211.176 265.139 211.534H268.141C268.034 211.157 267.851 210.872 267.59 210.678C267.329 210.485 267.024 210.388 266.676 210.388Z" fill="white"/>
</g>
<defs>
<filter id="filter0_d" x="279.053" y="72.0525" width="282.895" height="510.895" filterUnits="userSpaceOnUse" color-interpolation-filters="sRGB">
<feFlood flood-opacity="0" result="BackgroundImageFix"/>
<feColorMatrix in="SourceAlpha" type="matrix" values="0 0 0 0 0 0 0 0 0 0 0 0 0 0 0 0 0 0 127 0"/>
<feOffset/>
<feGaussianBlur stdDeviation="3.47375"/>
<feColorMatrix type="matrix" values="0 0 0 0 0.188235 0 0 0 0 0.368627 0 0 0 0 0.929412 0 0 0 1 0"/>
<feBlend mode="normal" in2="BackgroundImageFix" result="effect1_dropShadow"/>
<feBlend mode="normal" in="SourceGraphic" in2="effect1_dropShadow" result="shape"/>
</filter>
<filter id="filter1_d" x="317" y="106" width="358" height="358" filterUnits="userSpaceOnUse" color-interpolation-filters="sRGB">
<feFlood flood-opacity="0" result="BackgroundImageFix"/>
<feColorMatrix in="SourceAlpha" type="matrix" values="0 0 0 0 0 0 0 0 0 0 0 0 0 0 0 0 0 0 127 0"/>
<feOffset dy="4"/>
<feGaussianBlur stdDeviation="60"/>
<feColorMatrix type="matrix" values="0 0 0 0 0.188235 0 0 0 0 0.368627 0 0 0 0 0.929412 0 0 0 0.52 0"/>
<feBlend mode="normal" in2="BackgroundImageFix" result="effect1_dropShadow"/>
<feBlend mode="normal" in="SourceGraphic" in2="effect1_dropShadow" result="shape"/>
</filter>
<filter id="filter2_d" x="50" y="387" width="287" height="287" filterUnits="userSpaceOnUse" color-interpolation-filters="sRGB">
<feFlood flood-opacity="0" result="BackgroundImageFix"/>
<feColorMatrix in="SourceAlpha" type="matrix" values="0 0 0 0 0 0 0 0 0 0 0 0 0 0 0 0 0 0 127 0"/>
<feOffset dy="4"/>
<feGaussianBlur stdDeviation="60"/>
<feColorMatrix type="matrix" values="0 0 0 0 0.32549 0 0 0 0 0.815686 0 0 0 0 0.517647 0 0 0 1 0"/>
<feBlend mode="normal" in2="BackgroundImageFix" result="effect1_dropShadow"/>
<feBlend mode="normal" in="SourceGraphic" in2="effect1_dropShadow" result="shape"/>
</filter>
<filter id="filter3_d" x="253.913" y="432.783" width="348.174" height="348.174" filterUnits="userSpaceOnUse" color-interpolation-filters="sRGB">
<feFlood flood-opacity="0" result="BackgroundImageFix"/>
<feColorMatrix in="SourceAlpha" type="matrix" values="0 0 0 0 0 0 0 0 0 0 0 0 0 0 0 0 0 0 127 0"/>
<feOffset dy="4.86957"/>
<feGaussianBlur stdDeviation="73.0435"/>
<feColorMatrix type="matrix" values="0 0 0 0 0 0 0 0 0 0 0 0 0 0 0 0 0 0 1 0"/>
<feBlend mode="normal" in2="BackgroundImageFix" result="effect1_dropShadow"/>
<feBlend mode="normal" in="SourceGraphic" in2="effect1_dropShadow" result="shape"/>
</filter>
<filter id="filter4_d" x="439" y="0" width="303" height="303" filterUnits="userSpaceOnUse" color-interpolation-filters="sRGB">
<feFlood flood-opacity="0" result="BackgroundImageFix"/>
<feColorMatrix in="SourceAlpha" type="matrix" values="0 0 0 0 0 0 0 0 0 0 0 0 0 0 0 0 0 0 127 0"/>
<feOffset dy="4"/>
<feGaussianBlur stdDeviation="60"/>
<feColorMatrix type="matrix" values="0 0 0 0 0.32549 0 0 0 0 0.815686 0 0 0 0 0.517647 0 0 0 1 0"/>
<feBlend mode="normal" in2="BackgroundImageFix" result="effect1_dropShadow"/>
<feBlend mode="normal" in="SourceGraphic" in2="effect1_dropShadow" result="shape"/>
</filter>
<filter id="filter5_d" x="439" y="0" width="303" height="303" filterUnits="userSpaceOnUse" color-interpolation-filters="sRGB">
<feFlood flood-opacity="0" result="BackgroundImageFix"/>
<feColorMatrix in="SourceAlpha" type="matrix" values="0 0 0 0 0 0 0 0 0 0 0 0 0 0 0 0 0 0 127 0"/>
<feOffset dy="4"/>
<feGaussianBlur stdDeviation="60"/>
<feColorMatrix type="matrix" values="0 0 0 0 0.32549 0 0 0 0 0.815686 0 0 0 0 0.517647 0 0 0 1 0"/>
<feBlend mode="normal" in2="BackgroundImageFix" result="effect1_dropShadow"/>
<feBlend mode="normal" in="SourceGraphic" in2="effect1_dropShadow" result="shape"/>
</filter>
<filter id="filter6_d" x="0" y="190" width="311" height="311" filterUnits="userSpaceOnUse" color-interpolation-filters="sRGB">
<feFlood flood-opacity="0" result="BackgroundImageFix"/>
<feColorMatrix in="SourceAlpha" type="matrix" values="0 0 0 0 0 0 0 0 0 0 0 0 0 0 0 0 0 0 127 0"/>
<feOffset dy="4"/>
<feGaussianBlur stdDeviation="60"/>
<feColorMatrix type="matrix" values="0 0 0 0 0.188235 0 0 0 0 0.368627 0 0 0 0 0.929412 0 0 0 0.8 0"/>
<feBlend mode="normal" in2="BackgroundImageFix" result="effect1_dropShadow"/>
<feBlend mode="normal" in="SourceGraphic" in2="effect1_dropShadow" result="shape"/>
</filter>
<filter id="filter7_d" x="459" y="316" width="320" height="320" filterUnits="userSpaceOnUse" color-interpolation-filters="sRGB">
<feFlood flood-opacity="0" result="BackgroundImageFix"/>
<feColorMatrix in="SourceAlpha" type="matrix" values="0 0 0 0 0 0 0 0 0 0 0 0 0 0 0 0 0 0 127 0"/>
<feOffset dy="4"/>
<feGaussianBlur stdDeviation="60"/>
<feColorMatrix type="matrix" values="0 0 0 0 0.188235 0 0 0 0 0.368627 0 0 0 0 0.929412 0 0 0 0.8 0"/>
<feBlend mode="normal" in2="BackgroundImageFix" result="effect1_dropShadow"/>
<feBlend mode="normal" in="SourceGraphic" in2="effect1_dropShadow" result="shape"/>
</filter>
<filter id="filter8_d" x="87" y="24" width="340" height="340" filterUnits="userSpaceOnUse" color-interpolation-filters="sRGB">
<feFlood flood-opacity="0" result="BackgroundImageFix"/>
<feColorMatrix in="SourceAlpha" type="matrix" values="0 0 0 0 0 0 0 0 0 0 0 0 0 0 0 0 0 0 127 0"/>
<feOffset dy="4"/>
<feGaussianBlur stdDeviation="60"/>
<feColorMatrix type="matrix" values="0 0 0 0 0.32549 0 0 0 0 0.815686 0 0 0 0 0.517647 0 0 0 1 0"/>
<feBlend mode="normal" in2="BackgroundImageFix" result="effect1_dropShadow"/>
<feBlend mode="normal" in="SourceGraphic" in2="effect1_dropShadow" result="shape"/>
</filter>
<linearGradient id="paint0_linear" x1="155.5" y1="306" x2="155.5" y2="377" gradientUnits="userSpaceOnUse">
<stop stop-color="white" stop-opacity="0.11"/>
<stop offset="1" stop-color="white" stop-opacity="0.19"/>
</linearGradient>
<linearGradient id="paint1_linear" x1="619" y1="432" x2="619" y2="512" gradientUnits="userSpaceOnUse">
<stop stop-color="white" stop-opacity="0.11"/>
<stop offset="1" stop-color="white" stop-opacity="0.19"/>
</linearGradient>
<clipPath id="clip0">
<rect width="60" height="60" fill="white" transform="translate(226 148)"/>
</clipPath>
</defs>
</svg>
