<svg width="779" height="757" viewBox="0 0 779 757" fill="none" xmlns="http://www.w3.org/2000/svg">
<g filter="url(#filter0_d)">
<rect x="237" y="106" width="267" height="495" rx="29" stroke="white" stroke-width="2"/>
<rect x="237" y="106" width="267" height="495" rx="29" stroke="#305EED" stroke-width="2"/>
</g>
<rect x="266" y="75" width="269" height="497" rx="30" fill="#1A2A5C"/>
<rect x="290.7" y="299.025" width="105.247" height="101.882" rx="10" fill="#0B264E"/>
<rect x="290.7" y="413.112" width="105.247" height="101.882" rx="10" fill="#0B264E"/>
<rect x="414.658" y="299.025" width="99.4" height="101.882" rx="10" fill="#0B264E"/>
<rect x="414.658" y="413.112" width="99.4" height="101.882" rx="10" fill="#0B264E"/>
<rect x="289.7" y="139.296" width="107.586" height="133.83" rx="10" fill="#0B264E"/>
<rect x="411.319" y="164.003" width="81.8588" height="20.5893" fill="#0B264E"/>
<rect x="320" y="82" width="161.859" height="10.5893" rx="5.29463" fill="#0B264E"/>
<rect x="411.319" y="192.829" width="105.247" height="10.2946" fill="#0B264E"/>
<g filter="url(#filter1_d)">
<path d="M437 214C437 205.163 444.163 198 453 198H539C547.837 198 555 205.163 555 214V300C555 308.837 547.837 316 539 316H453C444.163 316 437 308.837 437 300V214Z" fill="#3E6AEF"/>
<path d="M509.767 235.171V231.729C509.767 229.831 508.223 228.288 506.325 228.288H483.954C481.108 228.288 478.792 230.604 478.792 233.45V254.1C478.792 257.888 481.879 259.263 483.954 259.263H509.767C511.665 259.263 513.209 257.719 513.209 255.821V238.613C513.209 236.715 511.665 235.171 509.767 235.171ZM506.325 250.658H502.884V243.775H506.325V250.658ZM483.954 235.171C483.005 235.171 482.234 234.398 482.234 233.45C482.234 232.502 483.005 231.729 483.954 231.729H506.325V235.171H483.954Z" fill="white"/>
<path d="M461.761 276.942H458.56V284.7H456.141V276.942H452.94V274.818H461.761V276.942ZM467.53 277.192C467.727 277.192 467.904 277.212 468.061 277.251L467.958 279.611H467.53C465.829 279.611 464.979 280.536 464.979 282.384V284.7H462.619V277.296H464.979V278.712C465.588 277.699 466.439 277.192 467.53 277.192ZM472.218 277.074C473.27 277.074 474.096 277.33 474.696 277.841C475.306 278.353 475.611 279.076 475.611 280.01V284.7H473.339V284.154C472.739 284.666 472.002 284.921 471.127 284.921C470.301 284.921 469.632 284.7 469.121 284.258C468.619 283.815 468.368 283.23 468.368 282.502C468.368 281.765 468.639 281.185 469.18 280.762C469.72 280.329 470.478 280.113 471.451 280.113H473.339V279.965C473.339 279.661 473.241 279.415 473.044 279.228C472.857 279.031 472.607 278.933 472.292 278.933C471.574 278.933 471.161 279.243 471.053 279.862L468.826 279.405C468.993 278.687 469.376 278.122 469.976 277.709C470.586 277.286 471.333 277.074 472.218 277.074ZM471.79 283.151C472.213 283.151 472.577 283.024 472.882 282.768C473.187 282.512 473.339 282.183 473.339 281.78V281.617H471.717C471.422 281.617 471.186 281.691 471.009 281.839C470.841 281.976 470.758 282.158 470.758 282.384C470.758 282.62 470.851 282.807 471.038 282.945C471.225 283.083 471.476 283.151 471.79 283.151ZM481.712 277.074C482.577 277.074 483.271 277.36 483.792 277.93C484.323 278.49 484.588 279.233 484.588 280.157V284.7H482.243V280.659C482.243 280.226 482.125 279.877 481.889 279.611C481.653 279.336 481.348 279.198 480.975 279.198C480.493 279.198 480.114 279.371 479.839 279.715C479.573 280.049 479.441 280.565 479.441 281.263V284.7H477.081V277.296H479.441V278.004C480.031 277.384 480.788 277.074 481.712 277.074ZM485.697 282.768L487.998 282.296C488.096 282.876 488.534 283.166 489.311 283.166C489.606 283.166 489.837 283.112 490.004 283.004C490.181 282.886 490.27 282.743 490.27 282.576C490.27 282.301 490.024 282.119 489.532 282.03L488.028 281.735C486.592 281.47 485.874 280.752 485.874 279.582C485.874 278.825 486.169 278.22 486.759 277.768C487.349 277.306 488.116 277.074 489.06 277.074C489.965 277.074 490.712 277.266 491.302 277.65C491.902 278.033 492.276 278.549 492.423 279.198L490.27 279.626C490.23 279.38 490.097 279.174 489.871 279.007C489.655 278.84 489.375 278.756 489.031 278.756C488.736 278.756 488.519 278.815 488.382 278.933C488.254 279.041 488.19 279.174 488.19 279.331C488.19 279.597 488.377 279.769 488.75 279.847L490.491 280.201C491.169 280.349 491.681 280.619 492.025 281.013C492.369 281.396 492.541 281.868 492.541 282.429C492.541 283.225 492.231 283.84 491.612 284.272C490.992 284.705 490.181 284.921 489.178 284.921C488.244 284.921 487.457 284.744 486.818 284.39C486.189 284.027 485.815 283.486 485.697 282.768ZM497.123 277.074C498.175 277.074 499.001 277.33 499.601 277.841C500.211 278.353 500.516 279.076 500.516 280.01V284.7H498.244V284.154C497.644 284.666 496.907 284.921 496.032 284.921C495.206 284.921 494.537 284.7 494.026 284.258C493.524 283.815 493.273 283.23 493.273 282.502C493.273 281.765 493.544 281.185 494.085 280.762C494.625 280.329 495.383 280.113 496.356 280.113H498.244V279.965C498.244 279.661 498.146 279.415 497.949 279.228C497.762 279.031 497.512 278.933 497.197 278.933C496.479 278.933 496.066 279.243 495.958 279.862L493.731 279.405C493.898 278.687 494.281 278.122 494.881 277.709C495.491 277.286 496.238 277.074 497.123 277.074ZM496.695 283.151C497.118 283.151 497.482 283.024 497.787 282.768C498.092 282.512 498.244 282.183 498.244 281.78V281.617H496.622C496.327 281.617 496.091 281.691 495.914 281.839C495.746 281.976 495.663 282.158 495.663 282.384C495.663 282.62 495.756 282.807 495.943 282.945C496.13 283.083 496.381 283.151 496.695 283.151ZM505.54 282.856C506.366 282.856 506.902 282.424 507.148 281.558L509.316 282.03C509.13 282.896 508.687 283.594 507.989 284.125C507.291 284.656 506.475 284.921 505.54 284.921C504.41 284.921 503.451 284.558 502.664 283.83C501.887 283.092 501.499 282.148 501.499 280.998C501.499 279.857 501.887 278.918 502.664 278.181C503.451 277.443 504.41 277.074 505.54 277.074C506.455 277.074 507.261 277.335 507.959 277.856C508.658 278.377 509.11 279.066 509.316 279.921L507.104 280.452C507.006 280.02 506.819 279.695 506.543 279.479C506.268 279.253 505.934 279.139 505.54 279.139C505.009 279.139 504.582 279.316 504.257 279.67C503.933 280.015 503.77 280.457 503.77 280.998C503.77 281.549 503.933 281.996 504.257 282.34C504.582 282.684 505.009 282.856 505.54 282.856ZM515.483 282.517L516.029 284.376C515.35 284.74 514.677 284.921 514.008 284.921C513.074 284.921 512.346 284.671 511.825 284.169C511.314 283.668 511.058 282.935 511.058 281.971V279.169H509.716V277.296H511.058V274.818H513.418V277.296H515.601V279.169H513.418V281.735C513.418 282.453 513.747 282.812 514.406 282.812C514.78 282.812 515.139 282.714 515.483 282.517ZM517.247 274.169C517.503 273.903 517.828 273.77 518.221 273.77C518.614 273.77 518.939 273.903 519.194 274.169C519.46 274.434 519.593 274.749 519.593 275.113C519.593 275.486 519.46 275.801 519.194 276.057C518.939 276.303 518.614 276.425 518.221 276.425C517.828 276.425 517.503 276.303 517.247 276.057C516.992 275.801 516.864 275.486 516.864 275.113C516.864 274.739 516.992 274.424 517.247 274.169ZM519.401 284.7H517.041V277.296H519.401V284.7ZM524.844 277.104C525.974 277.104 526.933 277.468 527.72 278.195C528.506 278.923 528.9 279.857 528.9 280.998C528.9 282.148 528.506 283.088 527.72 283.815C526.933 284.543 525.974 284.907 524.844 284.907C523.693 284.907 522.72 284.543 521.923 283.815C521.136 283.088 520.743 282.148 520.743 280.998C520.743 279.857 521.136 278.923 521.923 278.195C522.72 277.468 523.693 277.104 524.844 277.104ZM524.844 282.915C525.325 282.915 525.743 282.738 526.097 282.384C526.451 282.021 526.628 281.558 526.628 280.998C526.628 280.437 526.446 279.98 526.083 279.626C525.729 279.262 525.316 279.08 524.844 279.08C524.352 279.08 523.924 279.262 523.56 279.626C523.196 279.98 523.015 280.437 523.015 280.998C523.015 281.558 523.192 282.021 523.546 282.384C523.909 282.738 524.342 282.915 524.844 282.915ZM534.749 277.074C535.614 277.074 536.307 277.36 536.829 277.93C537.36 278.49 537.625 279.233 537.625 280.157V284.7H535.28V280.659C535.28 280.226 535.162 279.877 534.926 279.611C534.69 279.336 534.385 279.198 534.011 279.198C533.529 279.198 533.151 279.371 532.876 279.715C532.61 280.049 532.477 280.565 532.477 281.263V284.7H530.117V277.296H532.477V278.004C533.067 277.384 533.824 277.074 534.749 277.074Z" fill="white"/>
</g>
<g filter="url(#filter2_d)">
<path d="M170 485C170 481.686 172.686 479 176 479H211C214.314 479 217 481.686 217 485V520C217 523.314 214.314 526 211 526H176C172.686 526 170 523.314 170 520V485Z" fill="white"/>
</g>
<path d="M193.225 491.204C188.364 491.204 184.408 495.159 184.408 500.015C184.376 507.118 192.89 513.008 193.225 513.246C193.225 513.246 202.074 507.118 202.042 500.021C202.042 495.159 198.086 491.204 193.225 491.204ZM193.225 504.429C190.789 504.429 188.817 502.456 188.817 500.021C188.817 497.585 190.789 495.612 193.225 495.612C195.661 495.612 197.633 497.585 197.633 500.021C197.633 502.456 195.661 504.429 193.225 504.429Z" fill="#305EED"/>
<path d="M314 375C314 369.477 318.477 365 324 365H396C401.523 365 406 369.477 406 375V447C406 452.523 401.523 457 396 457H324C318.477 457 314 452.523 314 447V375Z" fill="#2E56A4"/>
<path d="M360 392.983V399.692H366.708V397.008H362.683V392.983H360Z" fill="white"/>
<path d="M372.466 393.65C372.163 392.932 371.789 392.241 371.354 391.599C370.922 390.957 370.427 390.356 369.88 389.81C369.332 389.264 368.734 388.77 368.093 388.337C367.446 387.9 366.755 387.527 366.043 387.225C365.311 386.916 364.548 386.679 363.775 386.52C362.191 386.194 360.496 386.193 358.91 386.52C358.133 386.679 357.371 386.916 356.643 387.223C355.93 387.525 355.241 387.898 354.591 388.337C353.951 388.769 353.349 389.265 352.803 389.812C352.257 390.358 351.76 390.96 351.328 391.599C350.891 392.248 350.517 392.938 350.216 393.649C349.908 394.379 349.67 395.142 349.512 395.916C349.35 396.71 349.266 397.529 349.266 398.35C349.266 398.361 349.268 398.373 349.268 398.383H346.583L350.608 403.717L354.633 398.383H351.951C351.951 398.373 351.95 398.361 351.95 398.35C351.95 397.71 352.014 397.073 352.14 396.455C352.264 395.853 352.447 395.261 352.688 394.694C352.921 394.141 353.212 393.603 353.553 393.1C353.888 392.602 354.275 392.135 354.7 391.709C355.125 391.282 355.594 390.897 356.09 390.562C356.595 390.221 357.133 389.93 357.687 389.695C358.251 389.455 358.844 389.271 359.448 389.147C360.681 388.894 362.003 388.895 363.236 389.147C363.835 389.271 364.43 389.455 364.997 389.695C365.551 389.928 366.088 390.221 366.591 390.559C367.088 390.896 367.557 391.282 367.983 391.707C368.408 392.131 368.793 392.6 369.13 393.099C369.468 393.598 369.759 394.134 369.995 394.694C370.234 395.253 370.416 395.845 370.542 396.453C370.669 397.074 370.733 397.711 370.733 398.35C370.733 398.989 370.669 399.626 370.542 400.242C370.416 400.852 370.234 401.444 369.995 402.005C369.759 402.563 369.468 403.098 369.128 403.6C368.793 404.098 368.408 404.566 367.983 404.99C367.557 405.415 367.088 405.802 366.593 406.137C366.088 406.476 365.553 406.769 364.997 407.004C364.43 407.244 363.837 407.428 363.236 407.551C362.004 407.803 360.684 407.805 359.448 407.551C358.846 407.428 358.254 407.244 357.687 407.004C357.134 406.77 356.596 406.479 356.093 406.138C355.595 405.803 355.128 405.416 354.701 404.991L352.804 406.888C353.35 407.436 353.951 407.931 354.591 408.363C355.239 408.8 355.93 409.174 356.641 409.475C357.371 409.784 358.135 410.021 358.909 410.179C359.702 410.342 360.52 410.425 361.341 410.425C362.162 410.425 362.982 410.342 363.774 410.179C364.548 410.021 365.311 409.785 366.041 409.476C366.755 409.174 367.446 408.8 368.095 408.361C368.734 407.929 369.334 407.434 369.88 406.888C370.426 406.342 370.921 405.741 371.353 405.102C371.789 404.458 372.163 403.768 372.466 403.051C372.772 402.329 373.01 401.567 373.171 400.781C373.333 399.987 373.416 399.168 373.416 398.35C373.416 397.531 373.333 396.713 373.171 395.916C373.01 395.133 372.772 394.371 372.466 393.65Z" fill="white"/>
<path d="M343.217 432.8H340.841L340.207 431.153H336.4L335.765 432.8H333.376L337.156 423.755H339.437L343.217 432.8ZM339.464 429.236L338.303 426.266L337.156 429.236H339.464ZM347.115 431.112C347.871 431.112 348.362 430.716 348.587 429.924L350.571 430.356C350.4 431.148 349.995 431.787 349.356 432.273C348.717 432.759 347.97 433.002 347.115 433.002C346.08 433.002 345.203 432.669 344.483 432.003C343.772 431.328 343.416 430.464 343.416 429.411C343.416 428.367 343.772 427.508 344.483 426.833C345.203 426.158 346.08 425.82 347.115 425.82C347.952 425.82 348.69 426.059 349.329 426.536C349.968 427.013 350.382 427.643 350.571 428.426L348.546 428.912C348.456 428.516 348.285 428.219 348.033 428.021C347.781 427.814 347.475 427.71 347.115 427.71C346.629 427.71 346.238 427.872 345.941 428.196C345.644 428.511 345.495 428.916 345.495 429.411C345.495 429.915 345.644 430.325 345.941 430.64C346.238 430.955 346.629 431.112 347.115 431.112ZM356.215 430.802L356.715 432.503C356.094 432.836 355.477 433.002 354.865 433.002C354.01 433.002 353.344 432.773 352.867 432.314C352.399 431.855 352.165 431.184 352.165 430.302V427.737H350.937V426.023H352.165V423.755H354.325V426.023H356.323V427.737H354.325V430.086C354.325 430.743 354.627 431.072 355.23 431.072C355.572 431.072 355.9 430.982 356.215 430.802ZM357.83 423.161C358.064 422.918 358.361 422.796 358.721 422.796C359.081 422.796 359.378 422.918 359.612 423.161C359.855 423.404 359.977 423.692 359.977 424.025C359.977 424.367 359.855 424.655 359.612 424.889C359.378 425.114 359.081 425.226 358.721 425.226C358.361 425.226 358.064 425.114 357.83 424.889C357.596 424.655 357.479 424.367 357.479 424.025C357.479 423.683 357.596 423.395 357.83 423.161ZM359.801 432.8H357.641V426.023H359.801V432.8ZM368.603 426.009L365.795 432.8H363.595L360.787 426.009H363.068L364.702 430.194L366.322 426.009H368.603ZM369.775 423.161C370.009 422.918 370.306 422.796 370.666 422.796C371.026 422.796 371.323 422.918 371.557 423.161C371.8 423.404 371.921 423.692 371.921 424.025C371.921 424.367 371.8 424.655 371.557 424.889C371.323 425.114 371.026 425.226 370.666 425.226C370.306 425.226 370.009 425.114 369.775 424.889C369.541 424.655 369.424 424.367 369.424 424.025C369.424 423.683 369.541 423.395 369.775 423.161ZM371.746 432.8H369.586V426.023H371.746V432.8ZM377.942 430.802L378.441 432.503C377.82 432.836 377.204 433.002 376.592 433.002C375.737 433.002 375.071 432.773 374.594 432.314C374.126 431.855 373.892 431.184 373.892 430.302V427.737H372.663V426.023H373.892V423.755H376.052V426.023H378.05V427.737H376.052V430.086C376.052 430.743 376.353 431.072 376.956 431.072C377.298 431.072 377.627 430.982 377.942 430.802ZM386.536 426.009L382.216 436.04H379.881L381.379 432.57L378.571 426.009H380.893L382.5 429.978L384.214 426.009H386.536Z" fill="white"/>
<g filter="url(#filter3_d)">
<path d="M400 557C400 553.134 403.134 550 407 550H449C452.866 550 456 553.134 456 557V599C456 602.866 452.866 606 449 606H407C403.134 606 400 602.866 400 599V557Z" fill="#3E6AEF"/>
<path d="M435.817 569.167L434.307 566.149C434.098 565.731 433.672 565.467 433.205 565.467H422.396C421.928 565.467 421.503 565.731 421.293 566.149L419.784 569.167H416.7V571.633H438.9V569.167H435.817ZM421.305 589.075C421.393 589.682 421.913 590.133 422.528 590.133H433.074C433.688 590.133 434.209 589.682 434.295 589.075L436.434 574.1H419.167L421.305 589.075ZM432.734 577.8L431.853 583.967H423.747L422.867 577.8H432.734Z" fill="white"/>
</g>
<g filter="url(#filter4_d)">
<path d="M120.239 290C120.239 285.714 123.714 282.239 128 282.239H183C187.286 282.239 190.761 285.714 190.761 290V345C190.761 349.286 187.286 352.761 183 352.761H128C123.714 352.761 120.239 349.286 120.239 345V290Z" stroke="url(#paint0_linear)" stroke-width="0.478058"/>
</g>
<g opacity="0.5">
<path d="M155.5 313.915L156.535 311.844V306.52C158.317 306.057 159.642 304.449 159.642 302.525C159.642 300.241 157.784 298.383 155.5 298.383C153.216 298.383 151.358 300.241 151.358 302.525C151.358 304.449 152.683 306.057 154.465 306.52V311.844L155.5 313.915Z" fill="white"/>
<path d="M159.918 307.25L159.366 309.246C162.049 309.987 163.783 311.413 163.783 312.879C163.783 314.838 160.382 317.021 155.5 317.021C150.618 317.021 147.217 314.838 147.217 312.879C147.217 311.413 148.951 309.987 151.635 309.245L151.083 307.249C147.421 308.261 145.146 310.418 145.146 312.879C145.146 316.362 149.695 319.092 155.5 319.092C161.306 319.092 165.854 316.362 165.854 312.879C165.854 310.418 163.58 308.261 159.918 307.25Z" fill="white"/>
</g>
<path opacity="0.5" d="M138.297 333.583V335.15H132.912V327.86H134.707V333.583H138.297ZM141.963 329.547C142.797 329.547 143.504 329.815 144.085 330.352C144.665 330.889 144.955 331.578 144.955 332.419C144.955 333.268 144.665 333.96 144.085 334.497C143.504 335.034 142.797 335.302 141.963 335.302C141.114 335.302 140.396 335.034 139.809 334.497C139.228 333.96 138.938 333.268 138.938 332.419C138.938 331.578 139.228 330.889 139.809 330.352C140.396 329.815 141.114 329.547 141.963 329.547ZM141.963 333.833C142.318 333.833 142.627 333.703 142.888 333.442C143.149 333.173 143.279 332.832 143.279 332.419C143.279 332.006 143.145 331.668 142.877 331.407C142.616 331.139 142.311 331.005 141.963 331.005C141.6 331.005 141.285 331.139 141.016 331.407C140.748 331.668 140.614 332.006 140.614 332.419C140.614 332.832 140.744 333.173 141.006 333.442C141.274 333.703 141.593 333.833 141.963 333.833ZM148.475 333.79C149.084 333.79 149.48 333.471 149.661 332.832L151.26 333.181C151.123 333.819 150.796 334.334 150.281 334.726C149.766 335.117 149.164 335.313 148.475 335.313C147.641 335.313 146.934 335.045 146.353 334.508C145.78 333.964 145.494 333.268 145.494 332.419C145.494 331.578 145.78 330.885 146.353 330.341C146.934 329.797 147.641 329.525 148.475 329.525C149.15 329.525 149.744 329.717 150.259 330.102C150.774 330.486 151.108 330.994 151.26 331.625L149.628 332.016C149.556 331.697 149.418 331.458 149.215 331.298C149.012 331.132 148.765 331.048 148.475 331.048C148.083 331.048 147.768 331.179 147.529 331.44C147.289 331.694 147.169 332.02 147.169 332.419C147.169 332.825 147.289 333.155 147.529 333.409C147.768 333.663 148.083 333.79 148.475 333.79ZM154.549 329.525C155.325 329.525 155.934 329.714 156.377 330.091C156.826 330.468 157.051 331.001 157.051 331.69V335.15H155.376V334.747C154.933 335.125 154.389 335.313 153.744 335.313C153.134 335.313 152.641 335.15 152.264 334.824C151.894 334.497 151.709 334.066 151.709 333.529C151.709 332.985 151.909 332.557 152.307 332.245C152.706 331.926 153.265 331.766 153.983 331.766H155.376V331.657C155.376 331.433 155.303 331.251 155.158 331.113C155.02 330.968 154.835 330.896 154.603 330.896C154.074 330.896 153.769 331.124 153.689 331.581L152.046 331.244C152.17 330.714 152.453 330.297 152.895 329.993C153.345 329.681 153.896 329.525 154.549 329.525ZM154.233 334.008C154.545 334.008 154.814 333.913 155.038 333.725C155.263 333.536 155.376 333.293 155.376 332.996V332.876H154.179C153.961 332.876 153.787 332.93 153.657 333.039C153.533 333.141 153.472 333.275 153.472 333.442C153.472 333.616 153.541 333.754 153.678 333.855C153.816 333.957 154.001 334.008 154.233 334.008ZM161.78 333.54L162.183 334.911C161.682 335.179 161.186 335.313 160.692 335.313C160.003 335.313 159.467 335.128 159.082 334.758C158.705 334.388 158.516 333.848 158.516 333.137V331.07H157.526V329.688H158.516V327.86H160.257V329.688H161.867V331.07H160.257V332.963C160.257 333.493 160.5 333.757 160.986 333.757C161.262 333.757 161.526 333.685 161.78 333.54ZM163.082 327.382C163.27 327.186 163.51 327.088 163.8 327.088C164.09 327.088 164.329 327.186 164.518 327.382C164.714 327.577 164.812 327.81 164.812 328.078C164.812 328.354 164.714 328.586 164.518 328.774C164.329 328.956 164.09 329.046 163.8 329.046C163.51 329.046 163.27 328.956 163.082 328.774C162.893 328.586 162.799 328.354 162.799 328.078C162.799 327.802 162.893 327.57 163.082 327.382ZM164.67 335.15H162.929V329.688H164.67V335.15ZM168.685 329.547C169.519 329.547 170.226 329.815 170.806 330.352C171.387 330.889 171.677 331.578 171.677 332.419C171.677 333.268 171.387 333.96 170.806 334.497C170.226 335.034 169.519 335.302 168.685 335.302C167.836 335.302 167.118 335.034 166.531 334.497C165.95 333.96 165.66 333.268 165.66 332.419C165.66 331.578 165.95 330.889 166.531 330.352C167.118 329.815 167.836 329.547 168.685 329.547ZM168.685 333.833C169.04 333.833 169.349 333.703 169.61 333.442C169.871 333.173 170.001 332.832 170.001 332.419C170.001 332.006 169.867 331.668 169.599 331.407C169.338 331.139 169.033 331.005 168.685 331.005C168.322 331.005 168.007 331.139 167.738 331.407C167.47 331.668 167.336 332.006 167.336 332.419C167.336 332.832 167.466 333.173 167.727 333.442C167.996 333.703 168.315 333.833 168.685 333.833ZM175.991 329.525C176.63 329.525 177.141 329.735 177.525 330.156C177.917 330.569 178.113 331.117 178.113 331.799V335.15H176.383V332.169C176.383 331.85 176.296 331.592 176.122 331.396C175.948 331.193 175.723 331.092 175.447 331.092C175.092 331.092 174.813 331.219 174.609 331.472C174.414 331.719 174.316 332.1 174.316 332.615V335.15H172.575V329.688H174.316V330.21C174.751 329.753 175.309 329.525 175.991 329.525Z" fill="white"/>
<g filter="url(#filter5_d)">
<path d="M579.5 415C579.5 411.41 582.41 408.5 586 408.5H652C655.59 408.5 658.5 411.41 658.5 415V481C658.5 484.59 655.59 487.5 652 487.5H586C582.41 487.5 579.5 484.59 579.5 481V415Z" stroke="url(#paint1_linear)"/>
</g>
<g opacity="0.4">
<path d="M628.333 428.667H609.667C608.38 428.667 607.333 429.713 607.333 431V445C607.333 446.287 608.38 447.333 609.667 447.333H628.333C629.62 447.333 630.667 446.287 630.667 445V431C630.667 429.713 629.62 428.667 628.333 428.667ZM615.168 433.333C616.51 433.333 617.501 434.324 617.501 435.667C617.501 437.009 616.51 438 615.168 438C613.825 438 612.834 437.009 612.834 435.667C612.834 434.324 613.824 433.333 615.168 433.333ZM619.502 442.667H610.833V442.124C610.833 440.522 612.789 438.875 615.168 438.875C617.546 438.875 619.502 440.522 619.502 442.124V442.667ZM627.167 441.5H622.5V439.167H627.167V441.5ZM627.167 436.833H621.333V434.5H627.167V436.833Z" fill="white"/>
</g>
<path opacity="0.4" d="M609.843 460.96V469H608.211L604.143 464.344V469H602.163V460.96H603.807L607.875 465.76V460.96H609.843ZM613.957 462.796C614.813 462.796 615.485 463.004 615.973 463.42C616.469 463.836 616.717 464.424 616.717 465.184V469H614.869V468.556C614.381 468.972 613.781 469.18 613.069 469.18C612.397 469.18 611.853 469 611.437 468.64C611.029 468.28 610.825 467.804 610.825 467.212C610.825 466.612 611.045 466.14 611.485 465.796C611.925 465.444 612.541 465.268 613.333 465.268H614.869V465.148C614.869 464.9 614.789 464.7 614.629 464.548C614.477 464.388 614.273 464.308 614.017 464.308C613.433 464.308 613.097 464.56 613.009 465.064L611.197 464.692C611.333 464.108 611.645 463.648 612.133 463.312C612.629 462.968 613.237 462.796 613.957 462.796ZM613.609 467.74C613.953 467.74 614.249 467.636 614.497 467.428C614.745 467.22 614.869 466.952 614.869 466.624V466.492H613.549C613.309 466.492 613.117 466.552 612.973 466.672C612.837 466.784 612.769 466.932 612.769 467.116C612.769 467.308 612.845 467.46 612.997 467.572C613.149 467.684 613.353 467.74 613.609 467.74ZM625.713 462.796C626.369 462.796 626.917 463.024 627.357 463.48C627.797 463.928 628.017 464.512 628.017 465.232V469H626.109V465.64C626.109 465.304 626.013 465.036 625.821 464.836C625.629 464.628 625.389 464.524 625.101 464.524C624.741 464.524 624.453 464.656 624.237 464.92C624.029 465.176 623.925 465.552 623.925 466.048V469H622.005V465.64C622.005 465.304 621.909 465.036 621.717 464.836C621.525 464.628 621.281 464.524 620.985 464.524C620.625 464.524 620.341 464.656 620.133 464.92C619.933 465.176 619.833 465.552 619.833 466.048V469H617.913V462.976H619.833V463.528C620.273 463.04 620.865 462.796 621.609 462.796C622.497 462.796 623.153 463.136 623.577 463.816C624.097 463.136 624.809 462.796 625.713 462.796ZM635.231 465.988V466.48H630.815C630.895 466.84 631.051 467.124 631.283 467.332C631.515 467.54 631.791 467.644 632.111 467.644C632.711 467.644 633.139 467.412 633.395 466.948L635.099 467.296C634.843 467.92 634.455 468.392 633.935 468.712C633.423 469.024 632.815 469.18 632.111 469.18C631.223 469.18 630.471 468.884 629.855 468.292C629.239 467.692 628.931 466.924 628.931 465.988C628.931 465.06 629.239 464.296 629.855 463.696C630.471 463.096 631.227 462.796 632.123 462.796C632.995 462.796 633.727 463.088 634.319 463.672C634.911 464.256 635.215 465.028 635.231 465.988ZM632.123 464.356C631.843 464.356 631.583 464.44 631.343 464.608C631.103 464.776 630.939 465.008 630.851 465.304H633.335C633.247 464.992 633.095 464.756 632.879 464.596C632.663 464.436 632.411 464.356 632.123 464.356Z" fill="white"/>
<g filter="url(#filter6_d)">
<path d="M207 126C207 120.477 211.477 116 217 116H297C302.523 116 307 120.477 307 126V206C307 211.523 302.523 216 297 216H217C211.477 216 207 211.523 207 206V126Z" fill="#53D084"/>
<g clip-path="url(#clip0)">
<path d="M276.299 154.095C276.435 153.643 276.563 153.19 276.658 152.73C276.664 152.695 276.666 152.662 276.674 152.627C276.716 152.426 276.735 152.219 276.769 152.016C276.821 151.693 276.884 151.373 276.916 151.049C276.971 150.515 277 149.971 277 149.421C277 144.887 275.118 140.782 272.08 137.809C269.039 134.839 264.839 133 260.2 133V149.421H244.486L242.684 145.316H235V149.421H239.916L243.755 158.178C241.086 159.255 239.2 161.823 239.2 164.816C239.2 168.777 242.497 172 246.55 172C250.244 172 253.278 169.313 253.793 165.842H258.207C258.722 169.313 261.756 172 265.45 172C269.503 172 272.8 168.777 272.8 164.816C272.8 163.523 272.42 162.326 271.807 161.275C271.895 161.191 271.994 161.117 272.082 161.031C272.838 160.29 273.527 159.473 274.133 158.6C274.738 157.718 275.259 156.782 275.679 155.811C275.713 155.735 275.734 155.655 275.765 155.579H275.767C275.78 155.55 275.786 155.521 275.799 155.493C275.984 155.041 276.152 154.588 276.292 154.122C276.294 154.113 276.296 154.105 276.299 154.095ZM246.55 167.895C244.813 167.895 243.4 166.513 243.4 164.816C243.4 163.118 244.813 161.737 246.55 161.737C248.287 161.737 249.7 163.118 249.7 164.816C249.7 166.513 248.287 167.895 246.55 167.895ZM265.45 167.895C263.713 167.895 262.3 166.513 262.3 164.816C262.3 163.118 263.713 161.737 265.45 161.737C267.187 161.737 268.6 163.118 268.6 164.816C268.6 166.513 267.187 167.895 265.45 167.895Z" fill="white"/>
</g>
<path d="M253.274 192H250.722L250.04 190.231H245.951L245.27 192H242.703L246.763 182.285H249.214L253.274 192ZM249.243 188.172L247.996 184.982L246.763 188.172H249.243ZM261.622 184.721V192.145C261.622 193.228 261.216 194.078 260.404 194.697C259.592 195.316 258.572 195.625 257.345 195.625C255.624 195.625 254.411 195.04 253.705 193.871L255.634 192.682C255.904 193.01 256.165 193.242 256.417 193.378C256.668 193.513 256.977 193.581 257.345 193.581C257.905 193.581 258.369 193.436 258.737 193.146C259.114 192.865 259.302 192.454 259.302 191.913V191.376C258.722 191.937 257.968 192.218 257.04 192.218C256.054 192.218 255.213 191.86 254.517 191.144C253.831 190.419 253.488 189.491 253.488 188.36C253.488 187.239 253.831 186.316 254.517 185.591C255.213 184.866 256.054 184.503 257.04 184.503C257.968 184.503 258.722 184.784 259.302 185.344V184.721H261.622ZM257.519 190.245C258.002 190.245 258.418 190.071 258.766 189.723C259.123 189.366 259.302 188.911 259.302 188.36C259.302 187.819 259.123 187.37 258.766 187.012C258.418 186.654 258.002 186.475 257.519 186.475C257.006 186.475 256.586 186.654 256.257 187.012C255.928 187.36 255.764 187.809 255.764 188.36C255.764 188.921 255.928 189.375 256.257 189.723C256.586 190.071 257.006 190.245 257.519 190.245ZM270.432 188.36V188.955H265.096C265.192 189.39 265.381 189.733 265.661 189.984C265.941 190.236 266.275 190.361 266.662 190.361C267.387 190.361 267.904 190.081 268.213 189.52L270.272 189.941C269.963 190.695 269.494 191.265 268.866 191.652C268.247 192.029 267.512 192.218 266.662 192.218C265.589 192.218 264.68 191.86 263.936 191.144C263.191 190.419 262.819 189.491 262.819 188.36C262.819 187.239 263.191 186.316 263.936 185.591C264.68 184.866 265.593 184.503 266.676 184.503C267.73 184.503 268.614 184.856 269.33 185.562C270.045 186.268 270.412 187.2 270.432 188.36ZM266.676 186.388C266.338 186.388 266.024 186.49 265.734 186.693C265.444 186.896 265.245 187.176 265.139 187.534H268.141C268.034 187.157 267.851 186.872 267.59 186.678C267.329 186.485 267.024 186.388 266.676 186.388Z" fill="white"/>
</g>
<defs>
<filter id="filter0_d" x="229.053" y="98.0525" width="282.895" height="510.895" filterUnits="userSpaceOnUse" color-interpolation-filters="sRGB">
<feFlood flood-opacity="0" result="BackgroundImageFix"/>
<feColorMatrix in="SourceAlpha" type="matrix" values="0 0 0 0 0 0 0 0 0 0 0 0 0 0 0 0 0 0 127 0"/>
<feOffset/>
<feGaussianBlur stdDeviation="3.47375"/>
<feColorMatrix type="matrix" values="0 0 0 0 0.188235 0 0 0 0 0.368627 0 0 0 0 0.929412 0 0 0 1 0"/>
<feBlend mode="normal" in2="BackgroundImageFix" result="effect1_dropShadow"/>
<feBlend mode="normal" in="SourceGraphic" in2="effect1_dropShadow" result="shape"/>
</filter>
<filter id="filter1_d" x="317" y="82" width="358" height="358" filterUnits="userSpaceOnUse" color-interpolation-filters="sRGB">
<feFlood flood-opacity="0" result="BackgroundImageFix"/>
<feColorMatrix in="SourceAlpha" type="matrix" values="0 0 0 0 0 0 0 0 0 0 0 0 0 0 0 0 0 0 127 0"/>
<feOffset dy="4"/>
<feGaussianBlur stdDeviation="60"/>
<feColorMatrix type="matrix" values="0 0 0 0 0.188235 0 0 0 0 0.368627 0 0 0 0 0.929412 0 0 0 0.52 0"/>
<feBlend mode="normal" in2="BackgroundImageFix" result="effect1_dropShadow"/>
<feBlend mode="normal" in="SourceGraphic" in2="effect1_dropShadow" result="shape"/>
</filter>
<filter id="filter2_d" x="50" y="363" width="287" height="287" filterUnits="userSpaceOnUse" color-interpolation-filters="sRGB">
<feFlood flood-opacity="0" result="BackgroundImageFix"/>
<feColorMatrix in="SourceAlpha" type="matrix" values="0 0 0 0 0 0 0 0 0 0 0 0 0 0 0 0 0 0 127 0"/>
<feOffset dy="4"/>
<feGaussianBlur stdDeviation="60"/>
<feColorMatrix type="matrix" values="0 0 0 0 0.32549 0 0 0 0 0.815686 0 0 0 0 0.517647 0 0 0 1 0"/>
<feBlend mode="normal" in2="BackgroundImageFix" result="effect1_dropShadow"/>
<feBlend mode="normal" in="SourceGraphic" in2="effect1_dropShadow" result="shape"/>
</filter>
<filter id="filter3_d" x="253.913" y="408.783" width="348.174" height="348.174" filterUnits="userSpaceOnUse" color-interpolation-filters="sRGB">
<feFlood flood-opacity="0" result="BackgroundImageFix"/>
<feColorMatrix in="SourceAlpha" type="matrix" values="0 0 0 0 0 0 0 0 0 0 0 0 0 0 0 0 0 0 127 0"/>
<feOffset dy="4.86957"/>
<feGaussianBlur stdDeviation="73.0435"/>
<feColorMatrix type="matrix" values="0 0 0 0 0 0 0 0 0 0 0 0 0 0 0 0 0 0 1 0"/>
<feBlend mode="normal" in2="BackgroundImageFix" result="effect1_dropShadow"/>
<feBlend mode="normal" in="SourceGraphic" in2="effect1_dropShadow" result="shape"/>
</filter>
<filter id="filter4_d" x="0" y="166" width="311" height="311" filterUnits="userSpaceOnUse" color-interpolation-filters="sRGB">
<feFlood flood-opacity="0" result="BackgroundImageFix"/>
<feColorMatrix in="SourceAlpha" type="matrix" values="0 0 0 0 0 0 0 0 0 0 0 0 0 0 0 0 0 0 127 0"/>
<feOffset dy="4"/>
<feGaussianBlur stdDeviation="60"/>
<feColorMatrix type="matrix" values="0 0 0 0 0.188235 0 0 0 0 0.368627 0 0 0 0 0.929412 0 0 0 0.8 0"/>
<feBlend mode="normal" in2="BackgroundImageFix" result="effect1_dropShadow"/>
<feBlend mode="normal" in="SourceGraphic" in2="effect1_dropShadow" result="shape"/>
</filter>
<filter id="filter5_d" x="459" y="292" width="320" height="320" filterUnits="userSpaceOnUse" color-interpolation-filters="sRGB">
<feFlood flood-opacity="0" result="BackgroundImageFix"/>
<feColorMatrix in="SourceAlpha" type="matrix" values="0 0 0 0 0 0 0 0 0 0 0 0 0 0 0 0 0 0 127 0"/>
<feOffset dy="4"/>
<feGaussianBlur stdDeviation="60"/>
<feColorMatrix type="matrix" values="0 0 0 0 0.188235 0 0 0 0 0.368627 0 0 0 0 0.929412 0 0 0 0.8 0"/>
<feBlend mode="normal" in2="BackgroundImageFix" result="effect1_dropShadow"/>
<feBlend mode="normal" in="SourceGraphic" in2="effect1_dropShadow" result="shape"/>
</filter>
<filter id="filter6_d" x="87" y="0" width="340" height="340" filterUnits="userSpaceOnUse" color-interpolation-filters="sRGB">
<feFlood flood-opacity="0" result="BackgroundImageFix"/>
<feColorMatrix in="SourceAlpha" type="matrix" values="0 0 0 0 0 0 0 0 0 0 0 0 0 0 0 0 0 0 127 0"/>
<feOffset dy="4"/>
<feGaussianBlur stdDeviation="60"/>
<feColorMatrix type="matrix" values="0 0 0 0 0.32549 0 0 0 0 0.815686 0 0 0 0 0.517647 0 0 0 1 0"/>
<feBlend mode="normal" in2="BackgroundImageFix" result="effect1_dropShadow"/>
<feBlend mode="normal" in="SourceGraphic" in2="effect1_dropShadow" result="shape"/>
</filter>
<linearGradient id="paint0_linear" x1="155.5" y1="282" x2="155.5" y2="353" gradientUnits="userSpaceOnUse">
<stop stop-color="white" stop-opacity="0.11"/>
<stop offset="1" stop-color="white" stop-opacity="0.19"/>
</linearGradient>
<linearGradient id="paint1_linear" x1="619" y1="408" x2="619" y2="488" gradientUnits="userSpaceOnUse">
<stop stop-color="white" stop-opacity="0.11"/>
<stop offset="1" stop-color="white" stop-opacity="0.19"/>
</linearGradient>
<clipPath id="clip0">
<rect width="60" height="60" fill="white" transform="translate(226 124)"/>
</clipPath>
</defs>
</svg>
