<svg width="20" height="20" viewBox="0 0 20 20" fill="none" xmlns="http://www.w3.org/2000/svg">
<path d="M11.6667 10C10.7542 10 10 9.24583 10 8.33333C10 8.03833 10.0858 7.76417 10.2233 7.5225C10.1483 7.51667 10.0767 7.5 10 7.5C8.63167 7.5 7.5 8.6325 7.5 10C7.5 11.3683 8.63167 12.5 10 12.5C11.3675 12.5 12.5 11.3683 12.5 10C12.5 9.92333 12.4833 9.85167 12.4775 9.77667C12.2358 9.91417 11.9617 10 11.6667 10Z" fill="white"/>
<path d="M9.99992 4.16663C3.63908 4.16663 1.72742 9.68079 1.70992 9.73663L1.62158 9.99996L1.70908 10.2633C1.72742 10.3191 3.63908 15.8333 9.99992 15.8333C16.3607 15.8333 18.2724 10.3191 18.2899 10.2633L18.3783 9.99996L18.2907 9.73663C18.2724 9.68079 16.3607 4.16663 9.99992 4.16663ZM9.99992 14.1666C5.54075 14.1666 3.81325 10.9616 3.39492 9.99996C3.81492 9.03496 5.54325 5.83329 9.99992 5.83329C14.4591 5.83329 16.1866 9.03829 16.6049 9.99996C16.1849 10.965 14.4566 14.1666 9.99992 14.1666Z" fill="white"/>
</svg>
