<svg viewBox="0 0 40 40" fill="none" xmlns="http://www.w3.org/2000/svg">
<path d="M9.14101 15.4731C9.72391 14.0898 10.5591 12.85 11.6205 11.7887C12.6877 10.7229 13.9275 9.8877 15.3064 9.30915C18.1122 8.12595 21.3689 8.11 24.1949 9.2497C24.2631 11.2 25.8421 12.75 27.8083 12.75C29.818 12.75 31.4333 11.1347 31.4333 9.125C31.4333 7.1153 29.818 5.5 27.8083 5.5C26.8093 5.5 25.9059 5.9002 25.252 6.55125C21.727 5.1404 17.6786 5.16215 14.1812 6.6368C12.4557 7.3618 10.9042 8.4058 9.57021 9.73835C8.24201 11.0651 7.19946 12.6166 6.47011 14.3464C5.71611 16.1343 5.33331 18.0367 5.33331 20H8.23331C8.23331 18.4253 8.53926 16.9028 9.14101 15.4731ZM30.5242 24.5269C29.9427 25.9073 29.1075 27.1485 28.0447 28.2114C26.9818 29.2742 25.7406 30.1094 24.3588 30.6908C21.5516 31.8741 18.2949 31.89 15.4703 30.7503C15.4036 28.8001 13.8245 27.25 11.8583 27.25C9.84861 27.25 8.23331 28.8653 8.23331 30.875C8.23331 32.8847 9.84861 34.5 11.8583 34.5C12.8574 34.5 13.7607 34.0998 14.4147 33.4487C16.1358 34.1404 17.9556 34.5 19.8333 34.5C21.7966 34.5 23.6976 34.1172 25.484 33.3646C27.2124 32.6353 28.7653 31.5913 30.095 30.2617C31.4246 28.932 32.4686 27.3805 33.198 25.6521C33.9505 23.8643 34.3333 21.9633 34.3333 20H31.4333C31.4333 21.5732 31.1274 23.0958 30.5242 24.5269Z" fill="white"/>
<path d="M19.8333 13.5C16.2496 13.5 13.3333 16.4163 13.3333 20C13.3333 23.5837 16.2496 26.5 19.8333 26.5C23.4171 26.5 26.3333 23.5837 26.3333 20C26.3333 16.4163 23.4171 13.5 19.8333 13.5Z" fill="white"/>
</svg>
