<svg viewBox="0 0 40 40" fill="none" xmlns="http://www.w3.org/2000/svg">
<path d="M30.3493 7.47458C28.3454 7.47458 26.7163 9.01358 26.7163 10.9068C26.7163 11.3969 26.8297 11.8623 27.0273 12.2865L24.1863 15.3055C23.2505 14.6987 22.1228 14.339 20.9036 14.339C19.8282 14.339 18.8342 14.6355 17.9696 15.116L14.665 11.9955L14.6316 12.0271C14.9164 11.4806 15.0908 10.8725 15.0908 10.2203C15.0908 7.94548 13.1392 6.1017 10.7313 6.1017C8.32331 6.1017 6.37168 7.94548 6.37168 10.2203C6.37168 12.4952 8.32331 14.339 10.7313 14.339C11.4215 14.339 12.0638 14.1742 12.6436 13.9052L12.6102 13.9367L15.9148 17.0573C15.4033 17.8755 15.0908 18.816 15.0908 19.8305C15.0908 21.1993 15.643 22.4376 16.5222 23.4014L12.7773 26.9379C12.3675 26.7855 11.9243 26.6949 11.4578 26.6949C9.45535 26.6949 7.82487 28.2339 7.82487 30.1271C7.82487 32.0203 9.45535 33.5593 11.4578 33.5593C13.4603 33.5593 15.0908 32.0203 15.0908 30.1271C15.0908 29.6864 14.9949 29.2677 14.8336 28.8792L18.9578 24.9829C19.5696 25.1889 20.2177 25.322 20.9036 25.322C24.1093 25.322 26.7163 22.8591 26.7163 19.8305C26.7163 18.9574 26.4795 18.1432 26.0944 17.4087L29.1708 14.1372C29.5428 14.258 29.9352 14.339 30.3493 14.339C32.3533 14.339 33.9823 12.8 33.9823 10.9068C33.9823 9.01358 32.3533 7.47458 30.3493 7.47458ZM20.9036 22.5763C19.3007 22.5763 17.9972 21.3448 17.9972 19.8305C17.9972 18.3162 19.3007 17.0847 20.9036 17.0847C22.5065 17.0847 23.81 18.3162 23.81 19.8305C23.81 21.3448 22.5065 22.5763 20.9036 22.5763Z" fill="white"/>
</svg>
