<svg viewBox="0 0 25 20" fill="none" xmlns="http://www.w3.org/2000/svg">
<path d="M14.8738 19.8066L24.8282 10.8356C25.0573 10.6289 25.0573 10.2939 24.8282 10.0872L14.8738 1.11645C14.6445 0.909751 14.2726 0.909751 14.0433 1.11645L11.391 3.50635C11.2808 3.60559 11.2188 3.74004 11.2188 3.88058C11.2188 4.02085 11.2808 4.15556 11.391 4.25481L15.6586 8.1014H0.587382C0.263147 8.1014 0 8.33854 0 8.63073V12.2923C0 12.5845 0.263147 12.8216 0.587382 12.8216H15.6592L11.3907 16.6677C11.1704 16.8662 11.1704 17.2177 11.3907 17.4162L14.043 19.8063C14.1531 19.9056 14.3023 19.9614 14.4583 19.9614C14.6139 19.9617 14.7637 19.9058 14.8738 19.8066Z" fill="white"/>
</svg>
