<svg viewBox="0 0 40 40" fill="none" xmlns="http://www.w3.org/2000/svg">
    <path d="M26.2222 6H13.7778C12.062 6 10.6667 7.39533 10.6667 9.11111V30.8889C10.6667 32.6047 12.062 34 13.7778 34H26.2222C27.938 34 29.3333 32.6047 29.3333 30.8889V9.11111C29.3333 7.39533 27.938 6 26.2222 6ZM4.44446 12.2222V27.7778C4.44446 29.4936 5.83979 30.8889 7.55557 30.8889V9.11111C5.83979 9.11111 4.44446 10.5064 4.44446 12.2222ZM32.4445 9.11111V30.8889C34.1602 30.8889 35.5556 29.4936 35.5556 27.7778V12.2222C35.5556 10.5064 34.1602 9.11111 32.4445 9.11111Z" fill="white"/>
</svg>
