<svg viewBox="0 0 40 40" fill="none" xmlns="http://www.w3.org/2000/svg">
    <path d="M33.4997 8.08365H9.50025H8.00028H5.00035V11.0836H8.00028H8.45027L13.7317 25.6078C14.1591 26.7897 15.2931 27.5832 16.5501 27.5832H28.9998V24.5833H16.5501L15.4581 21.5833H28.9998C29.5998 21.5833 30.1428 21.2264 30.3783 20.6744L34.8782 10.1746C35.0777 9.71111 35.0297 9.18012 34.7522 8.75863C34.4732 8.33714 34.0037 8.08365 33.4997 8.08365Z" fill="white"/>
    <path d="M17.7501 33.583C18.9927 33.583 20 32.5757 20 31.3331C20 30.0905 18.9927 29.0831 17.7501 29.0831C16.5075 29.0831 15.5001 30.0905 15.5001 31.3331C15.5001 32.5757 16.5075 33.583 17.7501 33.583Z" fill="white"/>
    <path d="M26.7499 33.583C27.9925 33.583 28.9998 32.5757 28.9998 31.3331C28.9998 30.0905 27.9925 29.0831 26.7499 29.0831C25.5073 29.0831 24.4999 30.0905 24.4999 31.3331C24.4999 32.5757 25.5073 33.583 26.7499 33.583Z" fill="white"/>
</svg>
