<svg viewBox="0 0 40 40" fill="none" xmlns="http://www.w3.org/2000/svg">
<path d="M13.525 27L15.275 24.713L9.6414 20L15.275 15.287L13.525 13L6.525 18.8565C6.1932 19.1347 6 19.5549 6 20C6 20.4451 6.1932 20.8653 6.525 21.1435L13.525 27ZM26.475 13L24.725 15.287L30.3586 20L24.725 24.713L26.475 27L33.475 21.1435C33.8068 20.8653 34 20.4451 34 20C34 19.5549 33.8068 19.1347 33.475 18.8565L26.475 13Z" fill="white"/>
<path d="M24.1978 7.61021L18.5564 33L15.8011 32.3878L21.4425 6.99802L24.1978 7.61021Z" fill="white"/>
</svg>
