<svg viewBox="0 0 40 40" fill="none" xmlns="http://www.w3.org/2000/svg">
<path d="M32.3333 8H11.3333C9.67883 8 8.33333 9.3754 8.33333 11.0667V18.7333H11.3333V14.1333L20.9333 21.4933C21.2003 21.6973 21.5168 21.8 21.8333 21.8C22.1498 21.8 22.4663 21.6973 22.7333 21.4933L32.3333 14.1333V27.9333H20.3333V31H32.3333C33.9878 31 35.3333 29.6246 35.3333 27.9333V11.0667C35.3333 9.3754 33.9878 8 32.3333 8ZM21.8333 18.35L12.3323 11.0667H31.3343L21.8333 18.35Z" fill="white"/>
<path d="M5.33333 20H15.4444V23H5.33333V20ZM8.22222 24.5H16.8889V27.5H8.22222V24.5ZM12.5556 29H18.3333V32H12.5556V29Z" fill="white"/>
</svg>
