<svg viewBox="0 0 18 18" fill="none" xmlns="http://www.w3.org/2000/svg">
<path d="M17.942 5.31279C17.931 4.55738 17.7911 3.80796 17.5232 3.10145C17.0544 1.895 16.0998 0.941014 14.8914 0.474C14.1927 0.211554 13.454 0.0708505 12.7064 0.0548842C11.7448 0.0119748 11.4399 0 8.999 0C6.55809 0 6.24522 6.6914e-08 5.29065 0.0548842C4.54398 0.0708505 3.80531 0.211554 3.10662 0.474C1.89816 0.941014 0.942581 1.895 0.474789 3.10145C0.211906 3.79898 0.0699689 4.53642 0.0559751 5.28185C0.0129942 6.24282 0 6.54718 0 8.98403C0 11.4209 -7.44727e-09 11.7322 0.0559751 12.6862C0.0709685 13.4326 0.211906 14.1691 0.474789 14.8686C0.943581 16.0741 1.89816 17.0281 3.10762 17.4951C3.80331 17.7665 4.54198 17.9202 5.29165 17.9441C6.25422 17.987 6.55909 18 9 18C11.4409 18 11.7538 18 12.7084 17.9441C13.455 17.9291 14.1937 17.7884 14.8934 17.526C16.1018 17.058 17.0564 16.104 17.5252 14.8985C17.7881 14.2 17.929 13.4636 17.944 12.7162C17.987 11.7562 18 11.4518 18 9.01397C17.998 6.57712 17.998 6.26777 17.942 5.31279ZM8.993 13.5923C6.44014 13.5923 4.37206 11.5277 4.37206 8.97905C4.37206 6.43043 6.44014 4.36578 8.993 4.36578C11.5439 4.36578 13.614 6.43043 13.614 8.97905C13.614 11.5277 11.5439 13.5923 8.993 13.5923ZM13.7979 5.27087C13.2011 5.27087 12.7203 4.78989 12.7203 4.19514C12.7203 3.6004 13.2011 3.11941 13.7979 3.11941C14.3926 3.11941 14.8744 3.6004 14.8744 4.19514C14.8744 4.78989 14.3926 5.27087 13.7979 5.27087Z" fill="#2A5D7D"/>
<path d="M8.99302 11.9757C10.6508 11.9757 11.9947 10.6341 11.9947 8.97907C11.9947 7.32405 10.6508 5.9824 8.99302 5.9824C7.33525 5.9824 5.99136 7.32405 5.99136 8.97907C5.99136 10.6341 7.33525 11.9757 8.99302 11.9757Z" fill="#2A5D7D"/>
</svg>
