<svg width="76" height="32" viewBox="0 0 76 32" fill="none" xmlns="http://www.w3.org/2000/svg">
<path d="M12.1971 24.1158L10.0544 21.9744C9.90208 21.8208 9.90208 21.5738 10.0544 21.4221L21.6806 9.79648C21.833 9.64352 22.0806 9.64352 22.233 9.79648L24.3757 11.9386C24.528 12.0909 24.528 12.3379 24.3757 12.4909L12.7488 24.1158C12.5971 24.2688 12.3494 24.2688 12.1971 24.1158ZM14.4506 11.6666L12.3078 9.5232C12.1549 9.37152 11.9078 9.37152 11.7555 9.5232L8.39104 12.8883C8.23872 13.0413 8.23872 13.2877 8.39104 13.44L10.5338 15.5827C10.6854 15.735 10.9331 15.735 11.0861 15.5827L14.4506 12.2182C14.6029 12.0666 14.6029 11.8195 14.4506 11.6666ZM24.8851 6.59136L26.8096 4.6656C26.937 4.53888 26.935 4.33472 26.8026 4.21376C23.9539 1.60064 20.1619 0 16 0C7.1776 0 0 7.17696 0 16C0 20.1613 1.60064 23.9533 4.21376 26.8026C4.33536 26.935 4.53888 26.937 4.66624 26.8102L6.59136 24.8851C6.69248 24.7834 6.69504 24.6157 6.5984 24.5088C4.5568 22.2573 3.30944 19.2723 3.30944 16C3.30944 9.00224 9.00288 3.31008 16.0006 3.31008C19.273 3.31008 22.2586 4.5568 24.5107 6.5984C24.6176 6.69504 24.784 6.69248 24.8851 6.59136ZM28.6906 16C28.6906 22.9978 22.9978 28.6906 16 28.6906C13.8413 28.6906 11.8086 28.1466 10.0269 27.191C9.90016 27.1232 9.71648 27.1494 9.61472 27.2499L7.61984 29.2448C7.49312 29.3715 7.51232 29.5552 7.66592 29.648C10.0947 31.1373 12.9478 32 16 32C24.8224 32 32 24.8218 32 16C32 12.9485 31.1373 10.0954 29.6486 7.66592C29.5546 7.5136 29.3728 7.49312 29.2461 7.61984L27.2506 9.61472C27.1494 9.71584 27.1238 9.9008 27.1917 10.0262C28.1466 11.8086 28.6906 13.8413 28.6906 16Z" fill="#53D084"/>
<path d="M54.4741 10.2959L47.7085 26H44.0508L46.3976 20.568L42 10.2959H45.6365L48.1525 16.5099L50.8376 10.2959H54.4741Z" fill="white"/>
<path d="M65.2343 15.6222V16.4888H57.4539C57.5948 17.1229 57.8697 17.6231 58.2784 17.9894C58.6872 18.3558 59.1735 18.539 59.7373 18.539C60.7944 18.539 61.5485 18.1303 61.9995 17.3131L65.0018 17.926C64.5507 19.0251 63.8671 19.8565 62.9509 20.4201C62.0488 20.9696 60.9776 21.2444 59.7373 21.2444C58.1727 21.2444 56.8478 20.723 55.7625 19.6803C54.6771 18.6235 54.1345 17.2708 54.1345 15.6222C54.1345 13.9877 54.6771 12.642 55.7625 11.5852C56.8478 10.5284 58.1798 10 59.7584 10C61.2948 10 62.5845 10.5143 63.6275 11.5429C64.6705 12.5716 65.2061 13.9313 65.2343 15.6222ZM59.7584 12.7477C59.2651 12.7477 58.807 12.8956 58.3841 13.1915C57.9613 13.4874 57.6723 13.8961 57.5173 14.4174H61.8938C61.7388 13.8679 61.471 13.4522 61.0904 13.1704C60.7098 12.8886 60.2658 12.7477 59.7584 12.7477Z" fill="white"/>
<path d="M71.1372 10C72.6454 10 73.8294 10.3664 74.6892 11.0991C75.5631 11.8318 76 12.8675 76 14.2061V20.9273H72.744V20.1453C71.8843 20.878 70.8271 21.2444 69.5727 21.2444C68.3887 21.2444 67.4302 20.9273 66.6973 20.2933C65.9784 19.6592 65.619 18.8208 65.619 17.7781C65.619 16.7213 66.0066 15.8899 66.7819 15.284C67.5571 14.664 68.6424 14.354 70.0378 14.354H72.744V14.1427C72.744 13.7059 72.6031 13.3536 72.3212 13.0859C72.0534 12.8041 71.694 12.6631 71.2429 12.6631C70.214 12.6631 69.622 13.107 69.467 13.9947L66.2744 13.3395C66.514 12.3109 67.0638 11.5007 67.9236 10.9089C68.7974 10.303 69.8687 10 71.1372 10ZM70.5241 18.7081C71.1302 18.7081 71.6517 18.5249 72.0886 18.1585C72.5256 17.7922 72.744 17.3201 72.744 16.7424V16.5099H70.4184C69.9955 16.5099 69.6572 16.6156 69.4035 16.8269C69.1639 17.0242 69.0441 17.2849 69.0441 17.609C69.0441 17.9472 69.178 18.2149 69.4458 18.4122C69.7136 18.6094 70.073 18.7081 70.5241 18.7081Z" fill="white"/>
</svg>
