<svg viewBox="0 0 40 40" fill="none" xmlns="http://www.w3.org/2000/svg">
<path d="M32.1296 7.08395L14.4 13.489V23.4038L15.4472 23.782L13.8694 26.9746C13.5054 27.7097 13.476 28.5652 13.7854 29.3244C14.0976 30.0836 14.7164 30.6686 15.4878 30.9292L21.2054 32.8569C21.4924 32.9533 21.7878 33 22.079 33C23.1164 33 24.1104 32.4136 24.5948 31.4363L26.419 27.7451L32.1296 29.8088C33.0396 30.1389 34 29.4547 34 28.476V8.41679C34 7.43805 33.0396 6.75393 32.1296 7.08395ZM22.0902 30.17L16.374 28.2423L18.103 24.7423L23.7618 26.7876L22.0902 30.17ZM8.8 23.4038H11.6V13.489H8.8C7.2558 13.489 6 14.7595 6 16.3218V20.571C6 22.1333 7.2558 23.4038 8.8 23.4038Z" fill="white"/>
</svg>
