<svg viewBox="0 0 80 80" fill="none" xmlns="http://www.w3.org/2000/svg">
<path d="M47.8936 52.9724C47.2166 52.9724 46.5396 53.5879 46.5396 55.6498C46.5396 57.7116 47.2166 58.3271 47.8936 58.3271C48.5706 58.3271 49.2476 57.7116 49.2476 55.6498C49.2476 53.5878 48.5706 52.9724 47.8936 52.9724Z" fill="white"/>
<path d="M32.1067 42.817C31.4297 42.817 30.7527 43.4326 30.7527 45.4944C30.7527 47.5562 31.4297 48.1718 32.1067 48.1718C32.7837 48.1718 33.4607 47.5562 33.4607 45.4944C33.4607 43.4326 32.7837 42.817 32.1067 42.817Z" fill="white"/>
<path d="M63.4249 28.3813C56.642 20.8899 52.6111 14.2951 50.4237 10.0819C48.0548 5.51831 47.2784 2.68847 47.2725 2.66595L46.5673 3.8147e-06L44.0489 1.12334C43.7545 1.25455 36.7962 4.42782 32.8973 12.2255C30.9401 16.14 30.5487 20.4984 30.5651 23.4651C30.5746 25.1916 29.3514 26.6908 27.6566 27.0296C26.4683 27.267 25.246 26.8977 24.3884 26.04L19.6972 21.3489L18.0834 23.5741C17.916 23.8051 13.9722 29.2441 13.2542 30.3308C9.74812 35.6382 7.91994 41.8207 7.96733 48.2099C8.03082 56.7432 11.3866 64.7379 17.4165 70.7217C23.446 76.7049 31.4664 80 40.0001 80C57.6634 79.9998 72.0334 65.6298 72.0334 47.9666C72.0336 41.5623 68.8958 34.4238 63.4249 28.3813ZM47.8935 61.6505C44.6316 61.6505 42.1696 59.4964 42.1696 55.6498C42.1696 51.8339 44.6314 49.6488 47.8935 49.6488C51.1556 49.6488 53.6175 51.8337 53.6175 55.6498C53.6175 59.4964 51.1555 61.6505 47.8935 61.6505ZM44.7546 39.8012H49.9553L35.2455 61.3428H30.0448L44.7546 39.8012ZM26.3828 45.4944C26.3828 41.6785 28.8447 39.4936 32.1068 39.4936C35.3689 39.4936 37.8307 41.6785 37.8307 45.4944C37.8307 49.3411 35.3689 51.4953 32.1068 51.4953C28.8447 51.4953 26.3828 49.3411 26.3828 45.4944Z" fill="white"/>
</svg>
