<svg viewBox="0 0 40 40" fill="none" xmlns="http://www.w3.org/2000/svg">
<path d="M36.3967 14.075C36.3967 14.0733 36.395 14.0733 36.3967 14.075C36.3933 14.0733 36.3933 14.0717 36.3917 14.0683C36.39 14.0683 36.39 14.0667 36.39 14.0667C36.39 14.065 36.39 14.065 36.39 14.065C36.285 13.91 36.1483 13.78 35.9983 13.685L20.725 3.55167C20.3 3.26 19.6517 3.26 19.2283 3.55167L3.95168 13.69C3.79668 13.785 3.66001 13.9183 3.55501 14.075C3.40001 14.3083 3.32834 14.57 3.33334 14.8283V25.095C3.32834 25.35 3.40001 25.61 3.55168 25.8417C3.55168 25.8417 3.55168 25.8417 3.55168 25.8433C3.55334 25.845 3.55334 25.845 3.55501 25.8467C3.56001 25.8567 3.56668 25.8633 3.57168 25.8717V25.875C3.57334 25.875 3.57334 25.875 3.57334 25.875C3.57501 25.875 3.57501 25.875 3.57501 25.8767C3.57668 25.8767 3.57668 25.8783 3.57668 25.8783C3.68168 26.025 3.81001 26.145 3.95334 26.2367L19.2283 36.3733C19.4417 36.52 19.6983 36.605 19.975 36.605C20.2567 36.605 20.5133 36.52 20.725 36.3733L36 26.2367C36.1517 26.14 36.2867 26.0133 36.3917 25.855C36.5483 25.62 36.6233 25.355 36.6183 25.095V14.8283C36.6233 14.57 36.55 14.3083 36.3967 14.075ZM21.3017 7.12167L32.89 14.81L27.585 18.33L21.3 14.1033V7.12167H21.3017ZM18.6483 7.12167V14.1033L12.3633 18.33L7.06168 14.8117L18.6483 7.12167ZM5.99001 17.285L9.98168 19.935L5.99001 22.62V17.285ZM18.6483 32.8033L7.04834 25.1083L12.3733 21.525L18.6483 25.6883V32.8033ZM19.9733 23.3817L14.76 19.9183L19.9733 16.41L25.1917 19.9183L19.9733 23.3817ZM21.3017 32.8033V25.6867L27.5783 21.5233L32.9 25.1067L21.3017 32.8033ZM33.9633 22.62L29.97 19.935L33.9633 17.285V22.62Z" fill="white"/>
</svg>
