<svg width="100%" height="100%" viewBox="0 0 20 20" fill="none" xmlns="http://www.w3.org/2000/svg">
<path d="M8.66666 15.3333C10.205 15.3333 11.6192 14.8042 12.7475 13.9267L16.4108 17.59L17.5892 16.4117L13.9258 12.7483C14.8042 11.6192 15.3333 10.205 15.3333 8.66667C15.3333 4.99083 12.3425 2 8.66666 2C4.99083 2 2 4.99083 2 8.66667C2 12.3425 4.99083 15.3333 8.66666 15.3333ZM8.66666 3.66667C11.4242 3.66667 13.6667 5.90917 13.6667 8.66667C13.6667 11.4242 11.4242 13.6667 8.66666 13.6667C5.90917 13.6667 3.66667 11.4242 3.66667 8.66667C3.66667 5.90917 5.90917 3.66667 8.66666 3.66667Z" fill="#B2B2B2"/>
</svg>
