<svg viewBox="0 0 40 40" fill="none" xmlns="http://www.w3.org/2000/svg">
<path d="M20 25C22.7614 25 25 22.7614 25 20C25 17.2386 22.7614 15 20 15C17.2386 15 15 17.2386 15 20C15 22.7614 17.2386 25 20 25Z" fill="white"/>
<path d="M21.6667 6.78166V3.33333H18.3334V6.78166C12.315 7.53666 7.53671 12.315 6.78171 18.3333H3.33337V21.6667H6.78171C7.53671 27.685 12.3134 32.4633 18.3334 33.2183V36.6667H21.6667V33.2183C27.685 32.4633 32.4634 27.6867 33.2184 21.6667H36.6667V18.3333H33.2184C32.4634 12.315 27.685 7.53666 21.6667 6.78166ZM20 30C14.485 30 10 25.515 10 20C10 14.485 14.485 10 20 10C25.515 10 30 14.485 30 20C30 25.515 25.515 30 20 30Z" fill="white"/>
</svg>
