<svg viewBox="0 0 18 16" fill="none" xmlns="http://www.w3.org/2000/svg">
<path d="M16.1507 4.38877C16.1626 4.54665 16.1626 4.70362 16.1626 4.86059C16.1626 9.6645 12.4503 15.2 5.66599 15.2C3.57582 15.2 1.63403 14.6037 0 13.5681C0.296764 13.6015 0.582536 13.6132 0.891207 13.6132C2.61592 13.6132 4.20324 13.0394 5.47181 12.0606C3.84968 12.0272 2.49043 10.9807 2.02147 9.54091C2.24954 9.57429 2.47853 9.59684 2.7185 9.59684C3.04916 9.59684 3.38164 9.55173 3.69031 9.47325C1.99857 9.13585 0.731834 7.67347 0.731834 5.90708V5.86197C1.22369 6.13171 1.79432 6.30041 2.39884 6.32297C1.40505 5.67162 0.753816 4.55747 0.753816 3.29718C0.753816 2.62238 0.936088 2.00351 1.25575 1.46403C3.07205 3.66796 5.80246 5.10868 8.86353 5.26656C8.80674 4.99591 8.77193 4.71535 8.77193 4.43388C8.77193 2.43112 10.417 0.800049 12.4613 0.800049C13.5238 0.800049 14.4828 1.23849 15.1569 1.94757C15.9904 1.7897 16.7891 1.48568 17.4981 1.06979C17.2242 1.91329 16.6407 2.62238 15.8759 3.07255C16.6188 2.99316 17.3387 2.79108 18 2.50961C17.4981 3.22952 16.8706 3.87094 16.1507 4.38877Z" fill="#2A5D7D"/>
</svg>
