<svg viewBox="0 0 40 40" fill="none" xmlns="http://www.w3.org/2000/svg">
<path d="M15.1754 22.3852C18.1154 22.3852 20.3333 20.086 20.3333 17.0381C20.3333 13.9903 18.1154 11.691 15.1754 11.691C12.2354 11.691 10.0175 13.9903 10.0175 17.0381C10.0175 20.086 12.2354 22.3852 15.1754 22.3852ZM16.6491 23.8335H13.7017C9.6388 23.8335 6.33333 27.2603 6.33333 31.4723V33H7.80701H9.2807H21.0702H22.5439H24.0175V31.4723C24.0175 27.2603 20.7121 23.8335 16.6491 23.8335ZM30.4487 8L28.3649 10.1602C30.3116 12.1814 31.386 14.8672 31.386 17.7226C31.386 20.5779 30.3116 23.2637 28.3649 25.2849L30.4487 27.4451C32.954 24.8464 34.3333 21.3937 34.3333 17.7226C34.3333 14.0514 32.954 10.5987 30.4487 8Z" fill="white"/>
<path d="M26.2979 12L24.3333 14.2025C25.1211 15.0813 25.5546 16.2525 25.5546 17.5C25.5546 18.7475 25.1211 19.9187 24.3333 20.7975L26.2979 23C27.6095 21.5317 28.3333 19.5796 28.3333 17.5C28.3333 15.4204 27.6095 13.4683 26.2979 12Z" fill="white"/>
</svg>
