<svg viewBox="0 0 40 40" fill="none" xmlns="http://www.w3.org/2000/svg">
<path d="M20 3.33334C10.965 3.33334 3.33334 10.965 3.33334 20C3.33334 29.035 10.965 36.6667 20 36.6667C29.035 36.6667 36.6667 29.035 36.6667 20C36.6667 10.965 29.035 3.33334 20 3.33334ZM20 11.6667C22.8783 11.6667 25 13.7867 25 16.6667C25 19.5467 22.8783 21.6667 20 21.6667C17.1233 21.6667 15 19.5467 15 16.6667C15 13.7867 17.1233 11.6667 20 11.6667ZM11.49 27.9533C12.985 25.7533 15.4783 24.2867 18.3333 24.2867H21.6667C24.5233 24.2867 27.015 25.7533 28.51 27.9533C26.38 30.2333 23.3583 31.6667 20 31.6667C16.6417 31.6667 13.62 30.2333 11.49 27.9533Z" fill="white"/>
</svg>
