<svg viewBox="0 0 18 12" fill="none" xmlns="http://www.w3.org/2000/svg">
<path d="M17.0582 1.88667C16.8652 1.15188 16.2986 0.572087 15.5792 0.374257C14.2647 0.00600117 9.00579 6.5057e-06 9.00579 6.5057e-06C9.00579 6.5057e-06 3.74775 -0.00598851 2.4324 0.345995C1.7273 0.542113 1.14475 1.13475 0.950009 1.86869C0.603335 3.20982 0.599977 5.99144 0.599977 5.99144C0.599977 5.99144 0.596619 8.78675 0.940776 10.1142C1.13384 10.8481 1.70044 11.4279 2.42065 11.6257C3.74859 11.994 8.9932 12 8.9932 12C8.9932 12 14.2521 12.006 15.5666 11.6549C16.2851 11.4579 16.8542 10.879 17.0498 10.145C17.3973 8.80474 17.3999 6.02398 17.3999 6.02398C17.3999 6.02398 17.4166 3.22781 17.0582 1.88667ZM7.32362 8.56837L7.32782 3.42992L11.6986 6.00343L7.32362 8.56837Z" fill="#2A5D7D"/>
</svg>
